<svg width="108" height="108" viewBox="0 0 108 108" fill="none" xmlns="http://www.w3.org/2000/svg">
<rect width="108" height="108" rx="54" fill="url(#paint0_linear_4817_83350)" fill-opacity="0.2"/>
<path d="M62.8363 30.8994C64.563 30.8994 65.8105 32.5508 65.3314 34.2023L59.7718 51.1135H68.197C71.0921 51.1135 72.4045 54.8351 70.2401 56.6633L46.8537 76.4894C46.3836 76.8864 45.787 77.103 45.1723 77.103C43.4456 77.103 42.1981 75.4516 42.6772 73.8002L48.2368 56.8889H39.694C36.9016 56.8889 35.6371 53.3071 37.7143 51.5376L61.1549 31.5221C61.625 31.116 62.2216 30.8994 62.8363 30.8994Z" fill="url(#paint1_linear_4817_83350)"/>
<defs>
<linearGradient id="paint0_linear_4817_83350" x1="-29.8723" y1="108" x2="-7.6906" y2="-21.9115" gradientUnits="userSpaceOnUse">
<stop stop-color="#32CB08"/>
<stop offset="1" stop-color="#72FA4C"/>
</linearGradient>
<linearGradient id="paint1_linear_4817_83350" x1="27.1036" y1="77.103" x2="39.4899" y2="22.7265" gradientUnits="userSpaceOnUse">
<stop stop-color="#32CB08"/>
<stop offset="1" stop-color="#72FA4C"/>
</linearGradient>
</defs>
</svg>
