<svg width="108" height="108" viewBox="0 0 108 108" fill="none" xmlns="http://www.w3.org/2000/svg">
<rect width="108" height="108" rx="54" fill="url(#paint0_linear_4817_101494)" fill-opacity="0.2"/>
<path fill-rule="evenodd" clip-rule="evenodd" d="M47.3315 31.8564C41.2389 31.8564 36.2998 36.7955 36.2998 42.8882C36.2998 48.9809 41.2389 53.9199 47.3315 53.9199C53.4242 53.9199 58.3633 48.9809 58.3633 42.8882C58.3633 36.7955 53.4242 31.8564 47.3315 31.8564ZM31.8564 74.0001C31.8564 75.1836 32.8158 76.143 33.9993 76.143H60.666C61.8494 76.143 62.8088 75.1836 62.8088 74.0001V69.5557C62.8088 66.6299 61.6466 63.8239 59.5777 61.7551C57.5088 59.6862 54.7029 58.5239 51.7771 58.5239H42.8882C39.9624 58.5239 37.1564 59.6862 35.0876 61.7551C33.0187 63.8239 31.8564 66.6299 31.8564 69.5557V74.0001ZM59.9 33.7564C60.1935 32.6099 61.3609 31.9185 62.5074 32.212C64.8804 32.8196 66.9836 34.1997 68.4856 36.1347C69.9876 38.0696 70.8028 40.4495 70.8028 42.899C70.8028 45.3485 69.9876 47.7284 68.4856 49.6634C66.9836 51.5984 64.8804 52.9784 62.5074 53.586C61.3609 53.8796 60.1935 53.1881 59.9 52.0416C59.6065 50.8952 60.2979 49.7278 61.4444 49.4342C62.8955 49.0627 64.1816 48.2188 65.1001 47.0355C66.0186 45.8522 66.5171 44.3969 66.5171 42.899C66.5171 41.4011 66.0186 39.9458 65.1001 38.7625C64.1816 37.5793 62.8955 36.7353 61.4444 36.3638C60.2979 36.0703 59.6065 34.9029 59.9 33.7564ZM66.9574 58.9245C65.8115 58.6287 64.6427 59.3178 64.3469 60.4637C64.051 61.6095 64.7401 62.7783 65.886 63.0742C67.3277 63.4464 68.6057 64.2851 69.5209 65.4596C70.4349 66.6325 70.9357 68.0746 70.9455 69.5615V73.9993C70.9455 75.1828 71.9049 76.1422 73.0884 76.1422C74.2718 76.1422 75.2312 75.1828 75.2312 73.9993L75.2313 69.5549L75.2312 69.5426C75.2172 67.1077 74.3981 64.746 72.9015 62.8253C71.4049 60.9047 69.3149 59.5332 66.9574 58.9245Z" fill="url(#paint1_linear_4817_101494)"/>
<path d="M59.5777 61.7551L59.4009 61.9318L59.4009 61.9318L59.5777 61.7551ZM35.0876 61.7551L35.2643 61.9318L35.2643 61.9318L35.0876 61.7551ZM62.5074 32.212L62.4454 32.4542L62.4454 32.4542L62.5074 32.212ZM59.9 33.7564L59.6578 33.6944L59.6578 33.6944L59.9 33.7564ZM68.4856 49.6634L68.2881 49.5101L68.2881 49.5101L68.4856 49.6634ZM62.5074 53.586L62.4454 53.3438L62.4454 53.3438L62.5074 53.586ZM59.9 52.0416L59.6578 52.1036L59.6578 52.1036L59.9 52.0416ZM61.4444 49.4342L61.3824 49.192L61.3824 49.192L61.4444 49.4342ZM65.1001 47.0355L64.9026 46.8822L64.9026 46.8822L65.1001 47.0355ZM65.1001 38.7625L64.9026 38.9158L64.9026 38.9158L65.1001 38.7625ZM61.4444 36.3638L61.5064 36.1216L61.5064 36.1216L61.4444 36.3638ZM64.3469 60.4637L64.1048 60.4012L64.1048 60.4012L64.3469 60.4637ZM66.9574 58.9245L67.0199 58.6824L67.0199 58.6824L66.9574 58.9245ZM65.886 63.0742L65.9485 62.8321L65.9485 62.8321L65.886 63.0742ZM69.5209 65.4596L69.3237 65.6132L69.3237 65.6132L69.5209 65.4596ZM70.9455 69.5615H71.1955L71.1955 69.5598L70.9455 69.5615ZM75.2312 73.9993L74.9812 73.9993V73.9993H75.2312ZM75.2313 69.5549L75.4813 69.5549L75.4813 69.5535L75.2313 69.5549ZM75.2312 69.5426L75.4812 69.5412L75.4812 69.5411L75.2312 69.5426ZM72.9015 62.8253L72.7043 62.979L72.7043 62.979L72.9015 62.8253ZM36.5498 42.8882C36.5498 36.9336 41.377 32.1064 47.3315 32.1064V31.6064C41.1008 31.6064 36.0498 36.6575 36.0498 42.8882H36.5498ZM47.3315 53.6699C41.377 53.6699 36.5498 48.8428 36.5498 42.8882H36.0498C36.0498 49.1189 41.1008 54.1699 47.3315 54.1699V53.6699ZM58.1133 42.8882C58.1133 48.8428 53.2861 53.6699 47.3315 53.6699V54.1699C53.5623 54.1699 58.6133 49.1189 58.6133 42.8882H58.1133ZM47.3315 32.1064C53.2861 32.1064 58.1133 36.9336 58.1133 42.8882H58.6133C58.6133 36.6575 53.5623 31.6064 47.3315 31.6064V32.1064ZM33.9993 75.893C32.9539 75.893 32.1064 75.0455 32.1064 74.0001H31.6064C31.6064 75.3217 32.6778 76.393 33.9993 76.393V75.893ZM60.666 75.893H33.9993V76.393H60.666V75.893ZM62.5588 74.0001C62.5588 75.0455 61.7114 75.893 60.666 75.893V76.393C61.9875 76.393 63.0588 75.3217 63.0588 74.0001H62.5588ZM62.5588 69.5557V74.0001H63.0588V69.5557H62.5588ZM59.4009 61.9318C61.4229 63.9538 62.5588 66.6962 62.5588 69.5557H63.0588C63.0588 66.5636 61.8702 63.694 59.7545 61.5783L59.4009 61.9318ZM51.7771 58.7739C54.6366 58.7739 57.379 59.9099 59.4009 61.9318L59.7545 61.5783C57.6387 59.4625 54.7692 58.2739 51.7771 58.2739V58.7739ZM42.8882 58.7739H51.7771V58.2739H42.8882V58.7739ZM35.2643 61.9318C37.2863 59.9099 40.0287 58.7739 42.8882 58.7739V58.2739C39.8961 58.2739 37.0265 59.4625 34.9108 61.5783L35.2643 61.9318ZM32.1064 69.5557C32.1064 66.6962 33.2424 63.9538 35.2643 61.9318L34.9108 61.5783C32.7951 63.694 31.6064 66.5636 31.6064 69.5557H32.1064ZM32.1064 74.0001V69.5557H31.6064V74.0001H32.1064ZM62.5694 31.9698C61.2892 31.642 59.9856 32.4141 59.6578 33.6944L60.1422 33.8184C60.4015 32.8057 61.4327 32.1949 62.4454 32.4542L62.5694 31.9698ZM68.6831 35.9814C67.1471 34.0025 64.9962 32.5912 62.5694 31.9698L62.4454 32.4542C64.7646 33.048 66.8202 34.3968 68.2881 36.2879L68.6831 35.9814ZM71.0528 42.899C71.0528 40.394 70.2191 37.9602 68.6831 35.9814L68.2881 36.2879C69.7561 38.1791 70.5528 40.505 70.5528 42.899H71.0528ZM68.6831 49.8167C70.2191 47.8378 71.0528 45.404 71.0528 42.899H70.5528C70.5528 45.293 69.7561 47.6189 68.2881 49.5101L68.6831 49.8167ZM62.5694 53.8282C64.9962 53.2069 67.1471 51.7955 68.6831 49.8167L68.2881 49.5101C66.8202 51.4012 64.7646 52.75 62.4454 53.3438L62.5694 53.8282ZM59.6578 52.1036C59.9856 53.3839 61.2892 54.156 62.5694 53.8282L62.4454 53.3438C61.4327 53.6031 60.4015 52.9924 60.1422 51.9796L59.6578 52.1036ZM61.3824 49.192C60.1021 49.5198 59.33 50.8234 59.6578 52.1036L60.1422 51.9796C59.8829 50.9669 60.4937 49.9357 61.5064 49.6764L61.3824 49.192ZM64.9026 46.8822C64.0182 48.0216 62.7797 48.8343 61.3824 49.192L61.5064 49.6764C63.0113 49.2911 64.3451 48.4159 65.2976 47.1888L64.9026 46.8822ZM66.2671 42.899C66.2671 44.3414 65.7871 45.7428 64.9026 46.8822L65.2976 47.1888C66.2501 45.9617 66.7671 44.4524 66.7671 42.899H66.2671ZM64.9026 38.9158C65.7871 40.0552 66.2671 41.4566 66.2671 42.899H66.7671C66.7671 41.3456 66.2501 39.8364 65.2976 38.6092L64.9026 38.9158ZM61.3824 36.606C62.7797 36.9638 64.0182 37.7764 64.9026 38.9158L65.2976 38.6092C64.3451 37.3821 63.0113 36.5069 61.5064 36.1216L61.3824 36.606ZM59.6578 33.6944C59.33 34.9746 60.1021 36.2782 61.3824 36.606L61.5064 36.1216C60.4937 35.8623 59.8829 34.8311 60.1422 33.8184L59.6578 33.6944ZM64.5889 60.5261C64.8503 59.5139 65.8827 58.9052 66.8949 59.1666L67.0199 58.6824C65.7403 58.3521 64.4352 59.1216 64.1048 60.4012L64.5889 60.5261ZM65.9485 62.8321C64.9363 62.5708 64.3276 61.5384 64.5889 60.5261L64.1048 60.4012C63.7745 61.6807 64.5439 62.9859 65.8235 63.3162L65.9485 62.8321ZM69.7181 65.3059C68.769 64.0879 67.4436 63.2181 65.9485 62.8321L65.8235 63.3162C67.2118 63.6746 68.4424 64.4823 69.3237 65.6132L69.7181 65.3059ZM71.1955 69.5598C71.1853 68.0178 70.666 66.5223 69.7181 65.3059L69.3237 65.6132C70.2038 66.7427 70.6861 68.1313 70.6955 69.5631L71.1955 69.5598ZM71.1955 73.9993V69.5615H70.6955V73.9993H71.1955ZM73.0884 75.8922C72.043 75.8922 71.1955 75.0447 71.1955 73.9993H70.6955C70.6955 75.3209 71.7668 76.3922 73.0884 76.3922V75.8922ZM74.9812 73.9993C74.9812 75.0447 74.1338 75.8922 73.0884 75.8922V76.3922C74.4099 76.3922 75.4812 75.3209 75.4812 73.9993H74.9812ZM74.9813 69.5549L74.9812 73.9993L75.4812 73.9993L75.4813 69.5549L74.9813 69.5549ZM74.9812 69.544L74.9813 69.5563L75.4813 69.5535L75.4812 69.5412L74.9812 69.544ZM72.7043 62.979C74.1669 64.8561 74.9675 67.1644 74.9812 69.544L75.4812 69.5411C75.4669 67.0511 74.6292 64.6358 73.0987 62.6717L72.7043 62.979ZM66.8949 59.1666C69.199 59.7615 71.2416 61.1019 72.7043 62.979L73.0987 62.6717C71.5682 60.7075 69.4309 59.3049 67.0199 58.6824L66.8949 59.1666Z" fill="url(#paint2_linear_4817_101494)"/>
<defs>
<linearGradient id="paint0_linear_4817_101494" x1="-29.8723" y1="108" x2="-7.6906" y2="-21.9115" gradientUnits="userSpaceOnUse">
<stop stop-color="#32CB08"/>
<stop offset="1" stop-color="#72FA4C"/>
</linearGradient>
<linearGradient id="paint1_linear_4817_101494" x1="19.8592" y1="76.143" x2="29.135" y2="22.9354" gradientUnits="userSpaceOnUse">
<stop stop-color="#32CB08"/>
<stop offset="1" stop-color="#72FA4C"/>
</linearGradient>
<linearGradient id="paint2_linear_4817_101494" x1="19.8592" y1="76.143" x2="29.135" y2="22.9354" gradientUnits="userSpaceOnUse">
<stop stop-color="#32CB08"/>
<stop offset="1" stop-color="#72FA4C"/>
</linearGradient>
</defs>
</svg>
