<svg width="108" height="108" viewBox="0 0 108 108" fill="none" xmlns="http://www.w3.org/2000/svg">
<rect width="108" height="108" rx="54" fill="url(#paint0_linear_4817_95463)" fill-opacity="0.2"/>
<g clip-path="url(#clip0_4817_95463)">
<path fill-rule="evenodd" clip-rule="evenodd" d="M48.4001 29C43.9819 29 40.4001 32.5793 40.4001 36.9945V38.4118H46.8001V36.9945C46.8001 36.1114 47.5165 35.3956 48.4001 35.3956H59.6001C60.4838 35.3956 61.2001 36.1114 61.2001 36.9945V46.0581H61.064H38.8752C37.5834 46.0619 36.3456 46.5764 35.4321 47.4892C34.5187 48.4021 34.0038 49.639 34 50.9299V75.2939C34.0034 76.5854 34.5183 77.823 35.4321 78.7362C36.346 79.6495 37.5844 80.164 38.8768 80.1674H68.1328C69.4252 80.164 70.6636 79.6495 71.5775 78.7362C72.4913 77.823 73.0062 76.5854 73.0096 75.2939V50.9299C73.0058 49.6387 72.4907 48.4015 71.5769 47.4887C70.6631 46.5758 69.4249 46.0615 68.1328 46.0581H67.6001V36.9945C67.6001 32.5793 64.0184 29 59.6001 29H48.4001ZM50.0609 66.7973C50.9744 67.7101 52.2122 68.2246 53.504 68.2284C54.7961 68.225 56.0343 67.7107 56.9481 66.7978C57.8619 65.885 58.377 64.6478 58.3808 63.3566C58.3774 62.0651 57.8625 60.8275 56.9487 59.9143C56.0348 59.001 54.7964 58.4865 53.504 58.4831C52.2119 58.4869 50.9738 59.0017 50.0603 59.9148C49.1468 60.828 48.6322 62.0654 48.6288 63.3566C48.6326 64.6475 49.1475 65.8845 50.0609 66.7973Z" fill="url(#paint1_linear_4817_95463)"/>
</g>
<defs>
<linearGradient id="paint0_linear_4817_95463" x1="2.01674e-05" y1="130.691" x2="-10.679" y2="10.5489" gradientUnits="userSpaceOnUse">
<stop stop-color="#7031BC"/>
<stop offset="1" stop-color="#B39CF4"/>
</linearGradient>
<linearGradient id="paint1_linear_4817_95463" x1="34" y1="90.918" x2="27.4011" y2="34.3174" gradientUnits="userSpaceOnUse">
<stop stop-color="#7031BC"/>
<stop offset="1" stop-color="#B39CF4"/>
</linearGradient>
<clipPath id="clip0_4817_95463">
<rect width="40" height="51.1647" fill="white" transform="translate(34 29)"/>
</clipPath>
</defs>
</svg>
