<svg width="328" height="115" viewBox="0 0 328 115" fill="none" xmlns="http://www.w3.org/2000/svg">
<rect x="0.5" y="0.5" width="327" height="114" rx="10.5" fill="#FAFAFA"/>
<rect x="0.5" y="0.5" width="327" height="114" rx="10.5" stroke="#E0E0E0" stroke-dasharray="2 2"/>
<path d="M76 48V94" stroke="#E0E0E0" stroke-dasharray="2 2"/>
<path d="M120.2 48V94" stroke="#E0E0E0" stroke-dasharray="2 2"/>
<path d="M164.4 48V94" stroke="#E0E0E0" stroke-dasharray="2 2"/>
<path d="M208.6 48V94" stroke="#E0E0E0" stroke-dasharray="2 2"/>
<path d="M252.8 48V94" stroke="#E0E0E0" stroke-dasharray="2 2"/>
<path d="M297 48V94" stroke="#E0E0E0" stroke-dasharray="2 2"/>
<path d="M25 60H24V53H29.09V53.92H25V56.14H28.22V57.05H25V60ZM35.8981 60H31.1281V53H32.1281V59.06H35.8981V60ZM40.5145 60.14C38.4945 60.14 36.9945 58.68 36.9945 56.5C36.9945 54.33 38.5045 52.86 40.5145 52.86C42.5245 52.86 44.0045 54.33 44.0045 56.5C44.0045 58.68 42.5245 60.14 40.5145 60.14ZM40.5045 59.23C42.0345 59.23 42.9445 58.06 42.9445 56.5C42.9445 54.94 42.0345 53.77 40.5045 53.77C38.9745 53.77 38.0645 54.94 38.0645 56.5C38.0645 58.06 38.9745 59.23 40.5045 59.23ZM48.6423 60H47.3423L45.6623 53H46.7223L47.6123 56.94C47.9023 58.27 47.9723 58.57 48.0423 58.84C48.1123 58.57 48.2023 58.26 48.5323 57.07L49.6823 53H50.9023L52.0823 57.45C52.3123 58.31 52.3823 58.56 52.4623 58.84C52.5323 58.56 52.5923 58.32 52.9323 56.9L53.8723 53H54.9123L53.1023 60H51.8223L50.6923 55.78C50.4223 54.77 50.3423 54.48 50.2823 54.24C50.2123 54.48 50.1323 54.79 49.8523 55.77L48.6423 60ZM62.3377 60H61.3477V55.28V54.3C60.9677 54.94 60.2377 55.47 59.4677 55.58V54.54C60.2977 54.34 61.0777 53.84 61.5277 53H62.3377V60Z" fill="#C7C7C7"/>
<path d="M25 89H24V82H29.09V82.92H25V85.14H28.22V86.05H25V89ZM35.8981 89H31.1281V82H32.1281V88.06H35.8981V89ZM40.5145 89.14C38.4945 89.14 36.9945 87.68 36.9945 85.5C36.9945 83.33 38.5045 81.86 40.5145 81.86C42.5245 81.86 44.0045 83.33 44.0045 85.5C44.0045 87.68 42.5245 89.14 40.5145 89.14ZM40.5045 88.23C42.0345 88.23 42.9445 87.06 42.9445 85.5C42.9445 83.94 42.0345 82.77 40.5045 82.77C38.9745 82.77 38.0645 83.94 38.0645 85.5C38.0645 87.06 38.9745 88.23 40.5045 88.23ZM48.6423 89H47.3423L45.6623 82H46.7223L47.6123 85.94C47.9023 87.27 47.9723 87.57 48.0423 87.84C48.1123 87.57 48.2023 87.26 48.5323 86.07L49.6823 82H50.9023L52.0823 86.45C52.3123 87.31 52.3823 87.56 52.4623 87.84C52.5323 87.56 52.5923 87.32 52.9323 85.9L53.8723 82H54.9123L53.1023 89H51.8223L50.6923 84.78C50.4223 83.77 50.3423 83.48 50.2823 83.24C50.2123 83.48 50.1323 83.79 49.8523 84.77L48.6423 89ZM64.4677 89H59.7777V87.9C61.7277 86.7 63.3377 85.54 63.3377 84.14C63.3377 83.23 62.7577 82.76 62.0677 82.76C61.3077 82.76 60.7277 83.31 60.7277 84.3L59.7177 84.16C59.7277 82.83 60.6177 81.86 62.0777 81.86C63.5277 81.86 64.3877 82.78 64.3877 84.03C64.3877 84.78 64.1277 85.42 63.6477 85.98C63.0477 86.67 62.1177 87.33 60.8777 88.08H62.5077H64.4677V89Z" fill="#C7C7C7"/>
<path d="M25.586 28.21C22.52 28.21 20.63 25.984 20.63 23.058C20.63 20.188 22.646 17.99 25.6 17.99C28.022 17.99 29.562 19.376 30.024 20.958L28.33 21.602C27.966 20.552 27.182 19.544 25.586 19.544C23.724 19.544 22.548 20.846 22.548 23.044C22.548 25.256 23.71 26.642 25.586 26.642C27.168 26.642 27.98 25.718 28.372 24.542L30.038 25.2C29.422 26.964 27.966 28.21 25.586 28.21ZM34.099 28.21C32.069 28.21 30.571 26.642 30.571 24.514C30.571 22.33 32.055 20.818 34.099 20.818C36.143 20.818 37.613 22.33 37.613 24.514C37.613 26.726 36.129 28.21 34.099 28.21ZM34.099 26.824C35.121 26.824 35.835 26.082 35.835 24.542C35.835 22.988 35.121 22.204 34.099 22.204C33.063 22.204 32.349 22.988 32.349 24.542C32.349 26.082 33.063 26.824 34.099 26.824ZM40.4841 28H38.7901V21.028H40.4421V22.134C40.6661 21.714 41.3381 20.818 42.6961 20.818C44.3621 20.818 45.0481 21.84 45.0481 23.366V28H43.3401V23.744C43.3401 22.694 42.8501 22.246 42.0801 22.246C40.5121 22.246 40.4841 23.982 40.4841 24.822V28ZM50.3255 28H48.2675L45.7055 21.028H47.4975L48.5615 24.29C48.9815 25.536 49.1915 26.194 49.3035 26.516C49.4155 26.18 49.6255 25.508 50.0035 24.29L51.0255 21.028H52.7615L50.3255 28ZM56.4617 28.21C54.4037 28.21 53.0597 26.824 53.0597 24.514C53.0597 22.288 54.5017 20.818 56.4337 20.818C58.6737 20.818 59.9057 22.624 59.6817 24.934H54.7677C54.8237 26.348 55.5937 26.866 56.4897 26.866C57.4697 26.866 57.9317 26.194 58.1837 25.606L59.7237 26.18C59.2757 27.272 58.3097 28.21 56.4617 28.21ZM54.8097 23.674H57.9877C57.9317 22.652 57.3157 22.092 56.4337 22.092C55.5937 22.092 54.9357 22.652 54.8097 23.674ZM62.6167 28H60.9227V21.028H62.5887V22.568C62.8267 22.008 63.4707 20.902 65.0247 20.902C65.2207 20.902 65.3607 20.916 65.4867 20.944V22.68C65.2347 22.652 64.9827 22.638 64.7307 22.638C63.2607 22.638 62.6167 23.352 62.6167 25.06V28ZM68.8615 28.196C67.2935 28.196 65.9635 27.468 65.6695 26.194L67.2375 25.69C67.3355 26.082 67.6715 26.936 68.9315 26.936C69.7435 26.936 70.1775 26.6 70.1775 26.124C70.1775 25.732 69.9675 25.41 69.1555 25.256L68.2175 25.074C66.8735 24.808 65.9495 24.332 65.9495 22.988C65.9495 21.686 67.1115 20.818 68.8055 20.818C70.5415 20.818 71.4095 21.714 71.7035 22.498L70.2615 23.114C70.0655 22.582 69.6035 22.05 68.7355 22.05C67.9515 22.05 67.6015 22.414 67.6015 22.834C67.6015 23.24 67.8115 23.45 68.6515 23.604L69.5615 23.772C70.6535 23.996 71.9415 24.528 71.9415 25.956C71.9415 27.314 70.8075 28.196 68.8615 28.196ZM74.7933 19.936H72.9733V18.186H74.7933V19.936ZM74.7513 28H73.0433V21.028H74.7513V28ZM79.3934 28.21C77.3634 28.21 75.8654 26.642 75.8654 24.514C75.8654 22.33 77.3494 20.818 79.3934 20.818C81.4374 20.818 82.9074 22.33 82.9074 24.514C82.9074 26.726 81.4234 28.21 79.3934 28.21ZM79.3934 26.824C80.4154 26.824 81.1294 26.082 81.1294 24.542C81.1294 22.988 80.4154 22.204 79.3934 22.204C78.3574 22.204 77.6434 22.988 77.6434 24.542C77.6434 26.082 78.3574 26.824 79.3934 26.824ZM85.7785 28H84.0845V21.028H85.7365V22.134C85.9605 21.714 86.6325 20.818 87.9905 20.818C89.6565 20.818 90.3425 21.84 90.3425 23.366V28H88.6345V23.744C88.6345 22.694 88.1445 22.246 87.3745 22.246C85.8065 22.246 85.7785 23.982 85.7785 24.822V28ZM103.454 28H101.424L100.584 25.578H96.4684L95.6144 28H93.6544L97.3784 18.2H99.7864L103.454 28ZM97.8544 21.658L97.0284 24.01H100.038L99.2264 21.644C98.8484 20.538 98.6804 20.062 98.5404 19.67C98.4144 20.048 98.2464 20.566 97.8544 21.658ZM105.915 28H104.221V21.028H105.873V22.134C106.097 21.714 106.769 20.818 108.127 20.818C109.793 20.818 110.479 21.84 110.479 23.366V28H108.771V23.744C108.771 22.694 108.281 22.246 107.511 22.246C105.943 22.246 105.915 23.982 105.915 24.822V28ZM113.864 28.21C112.562 28.21 111.638 27.44 111.638 26.208C111.638 24.262 113.738 23.66 116.02 23.45V23.212C116.02 22.526 115.642 22.106 114.746 22.106C113.71 22.106 113.276 22.666 113.094 23.282L111.54 22.876C111.694 21.84 112.786 20.818 114.746 20.818C116.664 20.818 117.714 21.714 117.714 23.422V26.236C117.714 26.572 117.77 26.656 118.134 26.656H118.778V28H117.476C116.594 28 116.286 27.58 116.202 26.964C115.782 27.622 115.04 28.21 113.864 28.21ZM114.424 26.922C115.236 26.922 116.02 26.376 116.02 25.13V24.57C114.592 24.724 113.374 25.046 113.374 26.054C113.374 26.586 113.724 26.922 114.424 26.922ZM121.194 28H119.5V18.2H121.194V28ZM126.34 24.01L127.32 21.028H129.098L126.256 29.05C125.85 30.226 125.29 30.73 124.072 30.73H122.252V29.316H123.89C124.394 29.316 124.618 29.148 124.828 28.574L125.038 27.944L121.79 21.028H123.638L124.912 24.024C125.43 25.242 125.598 25.592 125.724 25.886L126.34 24.01ZM134.489 28H132.417C131.283 28 130.653 27.328 130.653 26.222V22.358H129.141V21.028H130.653V18.844H132.361V21.028H134.209V22.358H132.361V25.956C132.361 26.404 132.557 26.614 133.005 26.614H134.489V28ZM137.175 19.936H135.355V18.186H137.175V19.936ZM137.133 28H135.425V21.028H137.133V28ZM141.845 28.21C139.745 28.21 138.261 26.754 138.261 24.5C138.261 22.288 139.815 20.818 141.859 20.818C143.497 20.818 144.603 21.742 145.009 22.89L143.427 23.464C143.175 22.708 142.629 22.204 141.803 22.204C140.809 22.204 139.997 22.96 139.997 24.5C139.997 26.068 140.823 26.824 141.817 26.824C142.755 26.824 143.259 26.264 143.539 25.424L145.149 25.984C144.645 27.314 143.469 28.21 141.845 28.21ZM148.659 28.196C147.091 28.196 145.761 27.468 145.467 26.194L147.035 25.69C147.133 26.082 147.469 26.936 148.729 26.936C149.541 26.936 149.975 26.6 149.975 26.124C149.975 25.732 149.765 25.41 148.953 25.256L148.015 25.074C146.671 24.808 145.747 24.332 145.747 22.988C145.747 21.686 146.909 20.818 148.603 20.818C150.339 20.818 151.207 21.714 151.501 22.498L150.059 23.114C149.863 22.582 149.401 22.05 148.533 22.05C147.749 22.05 147.399 22.414 147.399 22.834C147.399 23.24 147.609 23.45 148.449 23.604L149.359 23.772C150.451 23.996 151.739 24.528 151.739 25.956C151.739 27.314 150.605 28.196 148.659 28.196Z" fill="#5C5C5C"/>
<path d="M158.133 21.4664L155.599 24L155 23.401L157.534 20.8675H156.542H155.874V20H159V23.1256H158.133V22.4578V21.4664Z" fill="#5C5C5C"/>
<defs>
<linearGradient id="paint0_linear_2834_33961" x1="30.2979" y1="67.1915" x2="30.4583" y2="47.1784" gradientUnits="userSpaceOnUse">
<stop stop-color="#1C6DF2"/>
<stop offset="1" stop-color="#98CCFB"/>
</linearGradient>
<linearGradient id="paint1_linear_2834_33961" x1="52.8723" y1="94" x2="53.548" y2="74.2158" gradientUnits="userSpaceOnUse">
<stop stop-color="#32CB08"/>
<stop offset="1" stop-color="#72FA4C"/>
</linearGradient>
</defs>
</svg>
