<svg width="148" height="32" viewBox="0 0 148 32" fill="none" xmlns="http://www.w3.org/2000/svg">
<g clip-path="url(#clip0_2886_52426)">
<path fill-rule="evenodd" clip-rule="evenodd" d="M156.306 -0.754883C156.723 -0.754883 157.061 -0.416812 157.061 0.000219166V32.4696C157.061 32.8866 156.723 33.2247 156.306 33.2247C155.889 33.2247 155.551 32.8866 155.551 32.4696V0.000219226C155.551 -0.416812 155.889 -0.754883 156.306 -0.754883ZM11.3265 1.13282C11.7436 1.13282 12.0816 1.47089 12.0816 1.88792L12.0816 30.5818C12.0816 30.9988 11.7436 31.3369 11.3265 31.3369C10.9095 31.3369 10.5714 30.9988 10.5714 30.5818L10.5714 1.88792C10.5714 1.47089 10.9095 1.13282 11.3265 1.13282ZM6.04082 5.66343C6.04082 5.2464 5.70275 4.90833 5.28571 4.90833C4.86868 4.90833 4.53061 5.2464 4.53061 5.66343L4.53061 26.8063C4.53061 27.2233 4.86868 27.5614 5.28572 27.5614C5.70275 27.5614 6.04082 27.2233 6.04082 26.8063L6.04082 5.66343ZM0 10.194C0 9.77702 -0.338071 9.43894 -0.755102 9.43894C-1.17213 9.43894 -1.5102 9.77702 -1.5102 10.194L-1.5102 22.2757C-1.5102 22.6927 -1.17213 23.0308 -0.755101 23.0308C-0.33807 23.0308 5.96046e-07 22.6927 5.96046e-07 22.2757L0 10.194ZM18.1224 9.43894C18.1224 9.02191 17.7844 8.68384 17.3673 8.68384C16.9503 8.68384 16.6122 9.02191 16.6122 9.43894V23.0308C16.6122 23.4478 16.9503 23.7859 17.3673 23.7859C17.7844 23.7859 18.1224 23.4478 18.1224 23.0308V9.43894ZM23.4082 4.90833C23.8252 4.90833 24.1633 5.2464 24.1633 5.66343V26.8063C24.1633 27.2233 23.8252 27.5614 23.4082 27.5614C22.9911 27.5614 22.6531 27.2233 22.6531 26.8063L22.6531 5.66343C22.6531 5.2464 22.9911 4.90833 23.4082 4.90833ZM30.2041 5.66343C30.2041 5.2464 29.866 4.90833 29.449 4.90833C29.0319 4.90833 28.6939 5.2464 28.6939 5.66343L28.6939 26.8063C28.6939 27.2233 29.0319 27.5614 29.449 27.5614C29.866 27.5614 30.2041 27.2233 30.2041 26.8063V5.66343ZM35.4898 8.30629C35.9068 8.30629 36.2449 8.64436 36.2449 9.06139V23.4083C36.2449 23.8254 35.9068 24.1634 35.4898 24.1634C35.0728 24.1634 34.7347 23.8254 34.7347 23.4083V9.06139C34.7347 8.64436 35.0728 8.30629 35.4898 8.30629ZM42.2857 1.88792C42.2857 1.47089 41.9476 1.13282 41.5306 1.13282C41.1136 1.13282 40.7755 1.47089 40.7755 1.88792V30.5818C40.7755 30.9988 41.1136 31.3369 41.5306 31.3369C41.9476 31.3369 42.2857 30.9988 42.2857 30.5818V1.88792ZM47.5714 3.39813C47.9885 3.39813 48.3265 3.7362 48.3265 4.15323V28.3165C48.3265 28.7335 47.9885 29.0716 47.5714 29.0716C47.1544 29.0716 46.8163 28.7335 46.8163 28.3165V4.15323C46.8163 3.7362 47.1544 3.39813 47.5714 3.39813ZM54.3673 5.66343C54.3673 5.2464 54.0293 4.90833 53.6122 4.90833C53.1952 4.90833 52.8571 5.2464 52.8571 5.66343V26.8063C52.8571 27.2233 53.1952 27.5614 53.6122 27.5614C54.0293 27.5614 54.3673 27.2233 54.3673 26.8063V5.66343ZM59.6531 3.39813C60.0701 3.39813 60.4082 3.7362 60.4082 4.15323V28.3165C60.4082 28.7335 60.0701 29.0716 59.6531 29.0716C59.236 29.0716 58.898 28.7335 58.898 28.3165V4.15323C58.898 3.7362 59.236 3.39813 59.6531 3.39813ZM66.449 10.194C66.449 9.77702 66.1109 9.43894 65.6939 9.43894C65.2768 9.43894 64.9388 9.77702 64.9388 10.194V22.2757C64.9388 22.6927 65.2768 23.0308 65.6939 23.0308C66.1109 23.0308 66.449 22.6927 66.449 22.2757L66.449 10.194ZM71.7347 7.55119C72.1517 7.55119 72.4898 7.88926 72.4898 8.30629L72.4898 24.1634C72.4898 24.5805 72.1517 24.9185 71.7347 24.9185C71.3177 24.9185 70.9796 24.5805 70.9796 24.1634V8.30629C70.9796 7.88926 71.3177 7.55119 71.7347 7.55119ZM78.5306 4.90833C78.5306 4.4913 78.1925 4.15323 77.7755 4.15323C77.3585 4.15323 77.0204 4.4913 77.0204 4.90833V27.5614C77.0204 27.9784 77.3585 28.3165 77.7755 28.3165C78.1925 28.3165 78.5306 27.9784 78.5306 27.5614L78.5306 4.90833ZM83.8163 8.68384C84.2334 8.68384 84.5714 9.02191 84.5714 9.43894L84.5714 23.0308C84.5714 23.4478 84.2334 23.7859 83.8163 23.7859C83.3993 23.7859 83.0612 23.4478 83.0612 23.0308V9.43894C83.0612 9.02191 83.3993 8.68384 83.8163 8.68384ZM90.6122 6.41854C90.6122 6.0015 90.2742 5.66343 89.8571 5.66343C89.4401 5.66343 89.102 6.00151 89.102 6.41854V26.0512C89.102 26.4682 89.4401 26.8063 89.8571 26.8063C90.2742 26.8063 90.6123 26.4682 90.6123 26.0512L90.6122 6.41854ZM95.898 7.55119C96.315 7.55119 96.6531 7.88926 96.6531 8.30629L96.6531 24.1634C96.6531 24.5805 96.315 24.9185 95.898 24.9185C95.4809 24.9185 95.1429 24.5805 95.1429 24.1634V8.30629C95.1429 7.88926 95.4809 7.55119 95.898 7.55119ZM102.694 11.3267C102.694 10.9097 102.356 10.5716 101.939 10.5716C101.522 10.5716 101.184 10.9097 101.184 11.3267V21.143C101.184 21.5601 101.522 21.8981 101.939 21.8981C102.356 21.8981 102.694 21.5601 102.694 21.143L102.694 11.3267ZM107.98 9.06139C108.397 9.06139 108.735 9.39946 108.735 9.8165L108.735 22.6532C108.735 23.0703 108.397 23.4083 107.98 23.4083C107.563 23.4083 107.224 23.0703 107.224 22.6532V9.8165C107.224 9.39946 107.563 9.06139 107.98 9.06139ZM114.776 10.194C114.776 9.77702 114.437 9.43894 114.02 9.43894C113.603 9.43894 113.265 9.77702 113.265 10.194V22.2757C113.265 22.6927 113.603 23.0308 114.02 23.0308C114.437 23.0308 114.776 22.6927 114.776 22.2757L114.776 10.194ZM120.061 9.43894C120.478 9.43894 120.816 9.77702 120.816 10.194L120.816 22.2757C120.816 22.6927 120.478 23.0308 120.061 23.0308C119.644 23.0308 119.306 22.6927 119.306 22.2757V10.194C119.306 9.77702 119.644 9.43894 120.061 9.43894ZM126.857 7.55119C126.857 7.13416 126.519 6.79609 126.102 6.79609C125.685 6.79609 125.347 7.13416 125.347 7.55119V24.9185C125.347 25.3356 125.685 25.6736 126.102 25.6736C126.519 25.6736 126.857 25.3356 126.857 24.9185V7.55119ZM132.143 9.43894C132.56 9.43894 132.898 9.77702 132.898 10.194V22.2757C132.898 22.6927 132.56 23.0308 132.143 23.0308C131.726 23.0308 131.388 22.6927 131.388 22.2757V10.194C131.388 9.77702 131.726 9.43894 132.143 9.43894ZM138.939 5.66343C138.939 5.2464 138.601 4.90833 138.184 4.90833C137.767 4.90833 137.429 5.2464 137.429 5.66343V26.8063C137.429 27.2233 137.767 27.5614 138.184 27.5614C138.601 27.5614 138.939 27.2233 138.939 26.8063V5.66343ZM144.224 3.39813C144.642 3.39813 144.98 3.7362 144.98 4.15323V28.3165C144.98 28.7335 144.642 29.0716 144.224 29.0716C143.807 29.0716 143.469 28.7335 143.469 28.3165V4.15323C143.469 3.7362 143.807 3.39813 144.224 3.39813ZM151.02 2.26548C151.02 1.84844 150.682 1.51037 150.265 1.51037C149.848 1.51037 149.51 1.84844 149.51 2.26548V30.2043C149.51 30.6213 149.848 30.9594 150.265 30.9594C150.682 30.9594 151.02 30.6213 151.02 30.2043V2.26548ZM163.102 5.28588C163.102 4.86885 162.764 4.53078 162.347 4.53078C161.93 4.53078 161.592 4.86885 161.592 5.28588V27.1838C161.592 27.6009 161.93 27.9389 162.347 27.9389C162.764 27.9389 163.102 27.6009 163.102 27.1838V5.28588ZM168.388 6.41854C168.805 6.41854 169.143 6.75661 169.143 7.17364V25.2961C169.143 25.7131 168.805 26.0512 168.388 26.0512C167.971 26.0512 167.633 25.7131 167.633 25.2961V7.17364C167.633 6.75661 167.971 6.41854 168.388 6.41854ZM175.184 9.06139C175.184 8.64436 174.846 8.30629 174.429 8.30629C174.012 8.30629 173.673 8.64436 173.673 9.06139V23.4083C173.673 23.8254 174.012 24.1634 174.429 24.1634C174.846 24.1634 175.184 23.8254 175.184 23.4083V9.06139Z" fill="url(#paint0_linear_2886_52426)"/>
</g>
<defs>
<linearGradient id="paint0_linear_2886_52426" x1="-1.51025" y1="12.0819" x2="108.057" y2="-18.2764" gradientUnits="userSpaceOnUse">
<stop stop-color="#30E91D"/>
<stop offset="1" stop-color="#55D2FF"/>
</linearGradient>
<clipPath id="clip0_2886_52426">
<rect width="164" height="32" fill="white" transform="translate(-8)"/>
</clipPath>
</defs>
</svg>
