<svg width="34" height="34" viewBox="0 0 34 34" fill="none" xmlns="http://www.w3.org/2000/svg">
<g filter="url(#filter0_ii_2886_52459)">
<g clip-path="url(#clip0_2886_52459)">
<rect width="34" height="34" rx="17" fill="#37EB05"/>
<path d="M15.0717 17.7811C13.189 15.8984 13.0878 14.5536 13.8129 13.8285L14.8909 12.7066C15.1725 12.4136 15.1678 11.9492 14.8805 11.6618L12.4964 9.2777C12.2049 8.98628 11.7324 8.98625 11.441 9.2777L10.8389 9.87973C10.5114 10.2073 10.1825 10.7255 9.99366 11.1485C9.46436 12.334 10.1728 14.6545 10.9606 16.0915C11.832 17.6811 13.2312 19.2312 13.6796 19.6796C14.1281 20.1281 15.4574 21.3013 17.2678 22.3988C18.7049 23.1865 21.0253 23.895 22.2108 23.3657C22.6338 23.1768 23.152 22.848 23.4796 22.5204L24.0816 21.9184C24.3731 21.6269 24.3731 21.1544 24.0816 20.863L21.6975 18.4788C21.4102 18.1915 20.9458 18.1869 20.6528 18.4684L19.5308 19.5464C18.8058 20.2715 17.4609 20.1703 15.5783 18.2877L15.0717 17.7811Z" fill="white"/>
<g filter="url(#filter1_f_2886_52459)">
<ellipse cx="17.25" cy="4" rx="27.75" ry="16" fill="url(#paint0_linear_2886_52459)" fill-opacity="0.25"/>
</g>
</g>
<rect x="0.125" y="0.125" width="33.75" height="33.75" rx="16.875" stroke="url(#paint1_linear_2886_52459)" stroke-width="0.25"/>
</g>
<defs>
<filter id="filter0_ii_2886_52459" x="0" y="-0.5" width="34" height="35.25" filterUnits="userSpaceOnUse" color-interpolation-filters="sRGB">
<feFlood flood-opacity="0" result="BackgroundImageFix"/>
<feBlend mode="normal" in="SourceGraphic" in2="BackgroundImageFix" result="shape"/>
<feColorMatrix in="SourceAlpha" type="matrix" values="0 0 0 0 0 0 0 0 0 0 0 0 0 0 0 0 0 0 127 0" result="hardAlpha"/>
<feOffset dy="-1"/>
<feGaussianBlur stdDeviation="0.25"/>
<feComposite in2="hardAlpha" operator="arithmetic" k2="-1" k3="1"/>
<feColorMatrix type="matrix" values="0 0 0 0 0.0916078 0 0 0 0 0.478431 0 0 0 0 0.0470588 0 0 0 0.16 0"/>
<feBlend mode="normal" in2="shape" result="effect1_innerShadow_2886_52459"/>
<feColorMatrix in="SourceAlpha" type="matrix" values="0 0 0 0 0 0 0 0 0 0 0 0 0 0 0 0 0 0 127 0" result="hardAlpha"/>
<feOffset dy="1"/>
<feGaussianBlur stdDeviation="0.375"/>
<feComposite in2="hardAlpha" operator="arithmetic" k2="-1" k3="1"/>
<feColorMatrix type="matrix" values="0 0 0 0 0.846356 0 0 0 0 0.978892 0 0 0 0 0.809324 0 0 0 0.75 0"/>
<feBlend mode="normal" in2="effect1_innerShadow_2886_52459" result="effect2_innerShadow_2886_52459"/>
</filter>
<filter id="filter1_f_2886_52459" x="-16" y="-17.5" width="66.5" height="43" filterUnits="userSpaceOnUse" color-interpolation-filters="sRGB">
<feFlood flood-opacity="0" result="BackgroundImageFix"/>
<feBlend mode="normal" in="SourceGraphic" in2="BackgroundImageFix" result="shape"/>
<feGaussianBlur stdDeviation="2.75" result="effect1_foregroundBlur_2886_52459"/>
</filter>
<linearGradient id="paint0_linear_2886_52459" x1="23.4904" y1="14.0513" x2="16.7188" y2="-15.6345" gradientUnits="userSpaceOnUse">
<stop stop-color="#ECFBE8"/>
<stop offset="1" stop-color="white"/>
</linearGradient>
<linearGradient id="paint1_linear_2886_52459" x1="19.8936" y1="42.1383" x2="48.3631" y2="-44.366" gradientUnits="userSpaceOnUse">
<stop offset="0.0341113" stop-color="white"/>
<stop offset="1" stop-color="#E5E5E5"/>
</linearGradient>
<clipPath id="clip0_2886_52459">
<rect width="34" height="34" rx="17" fill="white"/>
</clipPath>
</defs>
</svg>
