<svg viewBox="0 0 16 16" fill="none" xmlns="http://www.w3.org/2000/svg">
  <path fill-rule="evenodd" clip-rule="evenodd"
    d="M10.8276 1.33325H5.17255C4.63591 1.33324 4.193 1.33324 3.83221 1.36205C3.45748 1.39198 3.11301 1.45622 2.78946 1.61737C2.28769 1.86729 1.87975 2.26607 1.62409 2.75656C1.45923 3.07285 1.39352 3.40958 1.3629 3.77589C1.33342 4.12858 1.33343 4.56154 1.33344 5.08613L1.33341 9.24317C1.33312 9.76151 1.33291 10.1464 1.4243 10.4799C1.67088 11.3794 2.38967 12.0821 3.30991 12.3231C3.51489 12.3768 3.73889 12.3982 4.00009 12.4066L4.00009 13.3054C4.00006 13.4587 4.00003 13.615 4.01193 13.743C4.02331 13.8655 4.05344 14.0967 4.21855 14.2989C4.40854 14.5316 4.69663 14.6669 5.00117 14.6666C5.26582 14.6663 5.46931 14.5449 5.57427 14.4771C5.684 14.4061 5.80882 14.3085 5.93127 14.2127L7.54001 12.9546C7.88574 12.6842 7.98838 12.6079 8.09503 12.5546C8.20201 12.5012 8.31589 12.4622 8.43358 12.4386C8.5509 12.415 8.67983 12.4119 9.12257 12.4119H10.8276C11.3642 12.412 11.8071 12.412 12.1679 12.3831C12.5427 12.3532 12.8871 12.289 13.2107 12.1278C13.7125 11.8779 14.1204 11.4791 14.3761 10.9886C14.5409 10.6724 14.6066 10.3356 14.6372 9.96931C14.6667 9.61662 14.6667 9.18367 14.6667 8.65909V5.08611C14.6667 4.56153 14.6667 4.12858 14.6372 3.77589C14.6066 3.40958 14.5409 3.07285 14.3761 2.75656C14.1204 2.26607 13.7125 1.86729 13.2107 1.61737C12.8871 1.45622 12.5427 1.39198 12.1679 1.36205C11.8071 1.33324 11.3642 1.33324 10.8276 1.33325ZM8.66667 6.8726C8.66667 6.51268 8.3682 6.22091 8.00001 6.22091C7.63182 6.22091 7.33335 6.51268 7.33335 6.8726V9.15351C7.33335 9.51343 7.63182 9.8052 8.00001 9.8052C8.3682 9.8052 8.66667 9.51343 8.66667 9.15351V6.8726ZM8.00001 3.94C7.63182 3.94 7.33335 4.23177 7.33335 4.59169C7.33335 4.95161 7.63182 5.24338 8.00001 5.24338C8.3682 5.24338 8.67334 4.95161 8.67334 4.59169C8.67334 4.23177 8.3682 3.94 8.00001 3.94Z"
    fill="#32CB08" />
</svg>