<svg width="12" height="12" viewBox="0 0 12 12" fill="none" xmlns="http://www.w3.org/2000/svg">
<path fill-rule="evenodd" clip-rule="evenodd" d="M1.71375 1.71375C2.01068 1.41681 2.41341 1.25 2.83333 1.25H9.16667C9.58659 1.25 9.98932 1.41681 10.2863 1.71375C10.5832 2.01068 10.75 2.41341 10.75 2.83333V9.16667C10.75 9.58659 10.5832 9.98932 10.2863 10.2863C9.98932 10.5832 9.58659 10.75 9.16667 10.75H2.83333C2.41341 10.75 2.01068 10.5832 1.71375 10.2863C1.41681 9.98932 1.25 9.58659 1.25 9.16667V2.83333C1.25 2.41341 1.41681 2.01068 1.71375 1.71375ZM2.83333 2.30556C2.69336 2.30556 2.55912 2.36116 2.46014 2.46014C2.36116 2.55912 2.30556 2.69336 2.30556 2.83333V9.16667C2.30556 9.30664 2.36116 9.44088 2.46014 9.53986C2.55912 9.63884 2.69336 9.69444 2.83333 9.69444H9.16667C9.30664 9.69444 9.44088 9.63884 9.53986 9.53986C9.63884 9.44088 9.69444 9.30664 9.69444 9.16667V2.83333C9.69444 2.69336 9.63884 2.55912 9.53986 2.46014C9.44088 2.36116 9.30664 2.30556 9.16667 2.30556H2.83333ZM8.11111 3.36111C8.4026 3.36111 8.63889 3.59741 8.63889 3.88889V8.11111C8.63889 8.4026 8.4026 8.63889 8.11111 8.63889C7.81963 8.63889 7.58333 8.4026 7.58333 8.11111V3.88889C7.58333 3.59741 7.81963 3.36111 8.11111 3.36111ZM6 4.94444C6.29148 4.94444 6.52778 5.18074 6.52778 5.47222V8.11111C6.52778 8.4026 6.29148 8.63889 6 8.63889C5.70852 8.63889 5.47222 8.4026 5.47222 8.11111V5.47222C5.47222 5.18074 5.70852 4.94444 6 4.94444ZM3.88889 6.52778C4.18037 6.52778 4.41667 6.76407 4.41667 7.05556V8.11111C4.41667 8.4026 4.18037 8.63889 3.88889 8.63889C3.59741 8.63889 3.36111 8.4026 3.36111 8.11111V7.05556C3.36111 6.76407 3.59741 6.52778 3.88889 6.52778Z" fill="#32CB08"/>
</svg>
