<svg viewBox="0 0 20 20" fill="none" xmlns="http://www.w3.org/2000/svg">
  <path
    d="M3.30361 16.6963C3.8289 17.2223 4.57995 17.5 5.47625 17.5C6.78721 17.5 8.37736 16.9145 10.0006 15.8993C11.6231 16.9153 13.2141 17.5 14.525 17.5C15.4206 17.5 16.1716 17.2223 16.6977 16.6963C17.6526 15.7413 17.7595 14.1278 16.9994 12.1516C16.73 11.4502 16.3567 10.7255 15.9029 10C16.3363 9.31946 16.7035 8.59898 16.9994 7.84843C17.7595 5.87222 17.6519 4.25798 16.6977 3.30373C16.1724 2.77769 15.4213 2.5 14.525 2.5C13.2141 2.5 11.6239 3.08549 10.0006 4.10069C8.37811 3.08474 6.78721 2.5 5.47625 2.5C4.5807 2.5 3.82965 2.77769 3.30361 3.30373C2.34861 4.25873 2.241 5.87222 3.00108 7.84843C3.27125 8.54982 3.64377 9.27453 4.09756 10C3.66422 10.6805 3.29705 11.401 3.00108 12.1516C2.241 14.1278 2.34861 15.7413 3.30361 16.6963ZM15.5936 12.6919C16.1122 14.039 16.1265 15.1385 15.6328 15.6321C15.392 15.873 15.0194 15.9949 14.5243 15.9949C13.646 15.9949 12.533 15.6163 11.3575 14.9564C12.7056 13.9143 13.9152 12.7044 14.957 11.3561C15.2098 11.8084 15.4258 12.2562 15.5936 12.6919ZM9.99988 14.0766C9.21423 13.5149 8.47577 12.89 7.79187 12.208C7.10655 11.5236 6.47739 10.7853 5.91047 10C7.04354 8.42838 8.42471 7.05153 9.99988 5.92339C10.7855 6.4851 11.524 7.11005 12.2079 7.79199C12.8932 8.47636 13.5224 9.21474 14.0893 10C12.9562 11.5716 11.575 12.9485 9.99988 14.0766ZM14.5243 4.00512C15.0187 4.00512 15.3912 4.12703 15.6328 4.36785C16.1265 4.86153 16.1129 5.96102 15.5936 7.3081C15.4258 7.74383 15.2098 8.1916 14.957 8.64389C13.9162 7.29468 12.7065 6.0847 11.3575 5.04365C12.533 4.38441 13.646 4.00512 14.5243 4.00512ZM4.40611 7.3081C3.8876 5.96102 3.8733 4.86153 4.36698 4.36785C4.60779 4.12703 4.98031 4.00512 5.4755 4.00512C6.35373 4.00512 7.46677 4.38365 8.64226 5.04365C7.29327 6.0847 6.08355 7.29468 5.04277 8.64389C4.79936 8.21417 4.58661 7.7678 4.40611 7.3081ZM4.40611 12.6919C4.57393 12.2562 4.78991 11.8084 5.04277 11.3561C6.08355 12.7053 7.29327 13.9153 8.64226 14.9564C7.46601 15.6163 6.35373 15.9949 5.4755 15.9949C4.98106 15.9949 4.60855 15.873 4.36698 15.6321C3.8733 15.1385 3.8876 14.039 4.40611 12.6919Z"
    fill="#C7C7C7" />
  <path
    d="M10.0006 11.9369C11.0704 11.9369 11.9376 11.0697 11.9376 9.99983C11.9376 8.93001 11.0704 8.06274 10.0006 8.06274C8.93074 8.06274 8.06348 8.93001 8.06348 9.99983C8.06348 11.0697 8.93074 11.9369 10.0006 11.9369Z"
    fill="#C7C7C7" />
</svg>