<svg viewBox="0 0 19 19" fill="none" xmlns="http://www.w3.org/2000/svg">
  <rect x="0.875" y="0.875" width="17.25" height="17.25" rx="4.125" fill="black" fill-opacity="0.08" />
  <rect x="0.875" y="0.875" width="17.25" height="17.25" rx="4.125" stroke="black"
    stroke-width="0.75" />
  <path fill-rule="evenodd" clip-rule="evenodd"
    d="M5.45 8.15C5.69853 8.15 5.9 8.35147 5.9 8.6V10.4C5.9 10.6485 5.69853 10.85 5.45 10.85C5.20147 10.85 5 10.6485 5 10.4L5 8.6C5 8.35147 5.20147 8.15 5.45 8.15Z"
    fill="black" />
  <path fill-rule="evenodd" clip-rule="evenodd"
    d="M7.475 8.6C7.72353 8.6 7.925 8.80147 7.925 9.05V9.95C7.925 10.1985 7.72353 10.4 7.475 10.4C7.22647 10.4 7.025 10.1985 7.025 9.95V9.05C7.025 8.80147 7.22647 8.6 7.475 8.6Z"
    fill="black" />
  <path fill-rule="evenodd" clip-rule="evenodd"
    d="M9.5 6.35C9.74853 6.35 9.95 6.55147 9.95 6.8V12.2C9.95 12.4485 9.74853 12.65 9.5 12.65C9.25147 12.65 9.05 12.4485 9.05 12.2V6.8C9.05 6.55147 9.25147 6.35 9.5 6.35Z"
    fill="black" />
  <path fill-rule="evenodd" clip-rule="evenodd"
    d="M11.525 5C11.7735 5 11.975 5.20147 11.975 5.45V13.55C11.975 13.7985 11.7735 14 11.525 14C11.2765 14 11.075 13.7985 11.075 13.55V5.45C11.075 5.20147 11.2765 5 11.525 5Z"
    fill="black" />
  <path fill-rule="evenodd" clip-rule="evenodd"
    d="M13.55 8.15C13.7985 8.15 14 8.35147 14 8.6V10.4C14 10.6485 13.7985 10.85 13.55 10.85C13.3015 10.85 13.1 10.6485 13.1 10.4V8.6C13.1 8.35147 13.3015 8.15 13.55 8.15Z"
    fill="black" />
</svg>