<svg width="16" height="16" viewBox="0 0 16 16" fill="none" xmlns="http://www.w3.org/2000/svg">
<path fill-rule="evenodd" clip-rule="evenodd" d="M12.9275 2.46125C11.2729 0.957252 8.7462 0.957252 7.09161 2.46125C7.01497 2.53091 6.93129 2.6146 6.79648 2.74941L3.66444 5.88146L3.64203 5.90379C3.55859 5.98679 3.45351 6.0913 3.37515 6.21919C3.30719 6.33008 3.25711 6.45099 3.22674 6.57746C3.19173 6.7233 3.19213 6.8715 3.19244 6.9892L3.1925 7.02082L3.1925 11.2159C3.19248 11.3723 3.19246 11.5246 3.203 11.6536C3.20886 11.7254 3.21876 11.8036 3.23822 11.8853C2.78931 12.3342 0.748627 13.7188 1.51485 14.4851C2.28107 15.2513 3.66574 13.2106 4.11465 12.7617C4.19629 12.7812 4.27456 12.7911 4.3463 12.7969C4.47527 12.8075 4.62758 12.8075 4.78395 12.8074L8.9791 12.8074L9.01073 12.8075C9.12842 12.8078 9.27662 12.8082 9.42247 12.7732C9.54894 12.7428 9.66984 12.6927 9.78074 12.6248C9.90863 12.5464 10.0131 12.4413 10.0961 12.3579L10.1185 12.3355L11.2791 11.1748C11.5446 10.9093 11.6774 10.7766 11.6863 10.6626C11.6941 10.5638 11.6541 10.4671 11.5787 10.4027C11.4917 10.3285 11.304 10.3285 10.9286 10.3285L7.53066 10.3285C7.18839 10.3285 6.91092 10.051 6.91092 9.70872C6.91092 9.36645 7.18839 9.08899 7.53066 9.08899L13.1139 9.08899C13.2745 9.08899 13.4307 9.02711 13.5387 8.90832C14.0292 8.36869 14.3597 7.73631 14.5303 7.07166C14.6593 6.56886 14.4682 6.66659 14 6.66659C14 6.66659 11.2791 6.66659 10 6.66659C9.63181 6.66659 9.33333 6.36811 9.33333 5.99992C9.33333 5.63173 9.63181 5.33325 10 5.33325C11.3333 5.33325 14 5.33325 14 5.33325C14.483 5.33325 14.5943 5.15874 14.5303 4.90908C14.3597 4.24443 14.0292 3.61205 13.5387 3.07242C13.469 2.99579 13.3853 2.9121 13.2505 2.7773L13.2226 2.74941C13.0878 2.61461 13.0041 2.5309 12.9275 2.46125Z" fill="#32CB08"/>
</svg>
