<svg width="20" height="20" viewBox="0 0 20 20" fill="none" xmlns="http://www.w3.org/2000/svg">
<path fill-rule="evenodd" clip-rule="evenodd" d="M5.52834 6.2959C5.52834 5.05399 6.53511 4.04722 7.77702 4.04722C9.01893 4.04722 10.0257 5.05399 10.0257 6.2959C10.0257 7.53781 9.01893 8.54458 7.77702 8.54458C6.53511 8.54458 5.52834 7.53781 5.52834 6.2959ZM7.77702 2.61865C5.74613 2.61865 4.09977 4.26501 4.09977 6.2959C4.09977 8.32679 5.74613 9.97315 7.77702 9.97315C9.80791 9.97315 11.4543 8.32679 11.4543 6.2959C11.4543 4.26501 9.80791 2.61865 7.77702 2.61865ZM4.70585 13.595C5.12755 13.1733 5.69952 12.9364 6.2959 12.9364H9.25886C9.85525 12.9364 10.4272 13.1733 10.8489 13.595C11.2706 14.0167 11.5075 14.5887 11.5075 15.1851V16.6665C11.5075 17.061 11.8273 17.3808 12.2218 17.3808C12.6163 17.3808 12.9361 17.061 12.9361 16.6665V15.1851C12.9361 14.2098 12.5487 13.2745 11.8591 12.5849C11.1695 11.8952 10.2341 11.5078 9.25886 11.5078H6.2959C5.32063 11.5078 4.38531 11.8952 3.69569 12.5849C3.00608 13.2745 2.61865 14.2098 2.61865 15.1851V16.6665C2.61865 17.061 2.93845 17.3808 3.33294 17.3808C3.72743 17.3808 4.04722 17.061 4.04722 16.6665V15.1851C4.04722 14.5887 4.28414 14.0167 4.70585 13.595ZM11.9665 3.25197C12.0644 2.86981 12.4535 2.63933 12.8356 2.73717C13.6266 2.9397 14.3277 3.39972 14.8284 4.04472C15.329 4.68972 15.6008 5.483 15.6008 6.29951C15.6008 7.11601 15.329 7.9093 14.8284 8.5543C14.3277 9.19929 13.6266 9.65932 12.8356 9.86184C12.4535 9.95969 12.0644 9.72921 11.9665 9.34705C11.8687 8.96489 12.0991 8.57576 12.4813 8.47792C12.965 8.35407 13.3937 8.07276 13.6999 7.67834C14.006 7.28391 14.1722 6.79881 14.1722 6.29951C14.1722 5.80021 14.006 5.31511 13.6999 4.92068C13.3937 4.52626 12.965 4.24495 12.4813 4.1211C12.0991 4.02325 11.8687 3.63413 11.9665 3.25197ZM14.319 11.6413C13.937 11.5427 13.5474 11.7724 13.4488 12.1544C13.3502 12.5364 13.5799 12.9259 13.9618 13.0246C14.4424 13.1486 14.8684 13.4282 15.1735 13.8197C15.4781 14.2107 15.6451 14.6914 15.6483 15.187V16.6663C15.6483 17.0608 15.9681 17.3806 16.3626 17.3806C16.7571 17.3806 17.0769 17.0608 17.0769 16.6663L17.0769 15.1848L17.0769 15.1807C17.0722 14.3691 16.7992 13.5818 16.3003 12.9416C15.8015 12.3014 15.1048 11.8442 14.319 11.6413Z" fill="#C7C7C7"/>
<path d="M4.70585 13.595L4.64692 13.5361L4.64692 13.5361L4.70585 13.595ZM3.69569 12.5849L3.63677 12.5259L3.63677 12.5259L3.69569 12.5849ZM12.8356 2.73717L12.815 2.8179L12.815 2.8179L12.8356 2.73717ZM11.9665 3.25197L12.0472 3.27264L11.9665 3.25197ZM14.8284 4.04472L14.7625 4.09582L14.7625 4.09582L14.8284 4.04472ZM14.8284 8.5543L14.7625 8.5032L14.7625 8.5032L14.8284 8.5543ZM12.8356 9.86184L12.815 9.78111L12.815 9.78111L12.8356 9.86184ZM11.9665 9.34705L12.0472 9.32638L12.0472 9.32638L11.9665 9.34705ZM12.4813 8.47792L12.502 8.55864L12.502 8.55864L12.4813 8.47792ZM13.6999 7.67834L13.634 7.62724L13.634 7.62724L13.6999 7.67834ZM13.6999 4.92068L13.634 4.97178L13.634 4.97178L13.6999 4.92068ZM12.4813 4.1211L12.4606 4.20183L12.4606 4.20183L12.4813 4.1211ZM13.4488 12.1544L13.3681 12.1336L13.3681 12.1336L13.4488 12.1544ZM14.319 11.6413L14.3398 11.5607L14.3398 11.5607L14.319 11.6413ZM13.9618 13.0246L13.941 13.1052L13.941 13.1052L13.9618 13.0246ZM15.1735 13.8197L15.1077 13.8709L15.1077 13.8709L15.1735 13.8197ZM15.6483 15.187H15.7317L15.7317 15.1864L15.6483 15.187ZM17.0769 16.6663L16.9936 16.6663V16.6663H17.0769ZM17.0769 15.1848L17.1603 15.1848L17.1603 15.1843L17.0769 15.1848ZM17.0769 15.1807L16.9936 15.1812L16.9936 15.1812L17.0769 15.1807ZM7.77702 3.96389C6.48909 3.96389 5.44501 5.00797 5.44501 6.2959H5.61168C5.61168 5.10001 6.58113 4.13056 7.77702 4.13056V3.96389ZM10.109 6.2959C10.109 5.00797 9.06495 3.96389 7.77702 3.96389V4.13056C8.97291 4.13056 9.94236 5.10001 9.94236 6.2959H10.109ZM7.77702 8.62791C9.06495 8.62791 10.109 7.58383 10.109 6.2959H9.94236C9.94236 7.49179 8.97291 8.46124 7.77702 8.46124V8.62791ZM5.44501 6.2959C5.44501 7.58383 6.48909 8.62791 7.77702 8.62791V8.46124C6.58113 8.46124 5.61168 7.49179 5.61168 6.2959H5.44501ZM4.18311 6.2959C4.18311 4.31104 5.79216 2.70199 7.77702 2.70199V2.53532C5.70011 2.53532 4.01644 4.21899 4.01644 6.2959H4.18311ZM7.77702 9.88982C5.79216 9.88982 4.18311 8.28076 4.18311 6.2959H4.01644C4.01644 8.37281 5.70011 10.0565 7.77702 10.0565V9.88982ZM11.3709 6.2959C11.3709 8.28076 9.76188 9.88982 7.77702 9.88982V10.0565C9.85393 10.0565 11.5376 8.37281 11.5376 6.2959H11.3709ZM7.77702 2.70199C9.76188 2.70199 11.3709 4.31104 11.3709 6.2959H11.5376C11.5376 4.21899 9.85393 2.53532 7.77702 2.53532V2.70199ZM6.2959 12.8531C5.67741 12.8531 5.08426 13.0987 4.64692 13.5361L4.76477 13.6539C5.17085 13.2479 5.72162 13.0197 6.2959 13.0197V12.8531ZM9.25886 12.8531H6.2959V13.0197H9.25886V12.8531ZM10.9078 13.5361C10.4705 13.0987 9.87735 12.8531 9.25886 12.8531V13.0197C9.83315 13.0197 10.3839 13.2479 10.79 13.6539L10.9078 13.5361ZM11.5909 15.1851C11.5909 14.5666 11.3452 13.9734 10.9078 13.5361L10.79 13.6539C11.1961 14.06 11.4242 14.6108 11.4242 15.1851H11.5909ZM11.5909 16.6665V15.1851H11.4242V16.6665H11.5909ZM12.2218 17.2975C11.8734 17.2975 11.5909 17.015 11.5909 16.6665H11.4242C11.4242 17.1071 11.7813 17.4642 12.2218 17.4642V17.2975ZM12.8528 16.6665C12.8528 17.015 12.5703 17.2975 12.2218 17.2975V17.4642C12.6623 17.4642 13.0194 17.1071 13.0194 16.6665H12.8528ZM12.8528 15.1851V16.6665H13.0194V15.1851H12.8528ZM11.8001 12.6438C12.4741 13.3178 12.8528 14.2319 12.8528 15.1851H13.0194C13.0194 14.1877 12.6232 13.2312 11.918 12.5259L11.8001 12.6438ZM9.25886 11.5911C10.212 11.5911 11.1262 11.9698 11.8001 12.6438L11.918 12.5259C11.2128 11.8207 10.2562 11.4245 9.25886 11.4245V11.5911ZM6.2959 11.5911H9.25886V11.4245H6.2959V11.5911ZM3.75462 12.6438C4.42861 11.9698 5.34274 11.5911 6.2959 11.5911V11.4245C5.29853 11.4245 4.34201 11.8207 3.63677 12.5259L3.75462 12.6438ZM2.70199 15.1851C2.70199 14.2319 3.08063 13.3178 3.75462 12.6438L3.63677 12.5259C2.93152 13.2312 2.53532 14.1877 2.53532 15.1851H2.70199ZM2.70199 16.6665V15.1851H2.53532V16.6665H2.70199ZM3.33294 17.2975C2.98447 17.2975 2.70199 17.015 2.70199 16.6665H2.53532C2.53532 17.1071 2.89243 17.4642 3.33294 17.4642V17.2975ZM3.96389 16.6665C3.96389 17.015 3.6814 17.2975 3.33294 17.2975V17.4642C3.77345 17.4642 4.13056 17.1071 4.13056 16.6665H3.96389ZM3.96389 15.1851V16.6665H4.13056V15.1851H3.96389ZM4.64692 13.5361C4.20958 13.9734 3.96389 14.5666 3.96389 15.1851H4.13056C4.13056 14.6108 4.35869 14.06 4.76477 13.6539L4.64692 13.5361ZM12.8563 2.65645C12.4296 2.54718 11.995 2.80455 11.8858 3.2313L12.0472 3.27264C12.1337 2.93506 12.4774 2.73147 12.815 2.8179L12.8563 2.65645ZM14.8942 3.99362C14.3822 3.33401 13.6652 2.86356 12.8563 2.65645L12.815 2.8179C13.588 3.01584 14.2732 3.46544 14.7625 4.09582L14.8942 3.99362ZM15.6841 6.29951C15.6841 5.4645 15.4062 4.65324 14.8942 3.99362L14.7625 4.09582C15.2519 4.7262 15.5175 5.50151 15.5175 6.29951H15.6841ZM14.8942 8.60539C15.4062 7.94578 15.6841 7.13452 15.6841 6.29951H15.5175C15.5175 7.09751 15.2519 7.87282 14.7625 8.5032L14.8942 8.60539ZM12.8563 9.94257C13.6652 9.73546 14.3822 9.26501 14.8942 8.60539L14.7625 8.5032C14.2732 9.13358 13.588 9.58318 12.815 9.78111L12.8563 9.94257ZM11.8858 9.36772C11.995 9.79447 12.4296 10.0518 12.8563 9.94257L12.815 9.78111C12.4774 9.86755 12.1337 9.66396 12.0472 9.32638L11.8858 9.36772ZM12.4606 8.39719C12.0339 8.50645 11.7765 8.94097 11.8858 9.36772L12.0472 9.32638C11.9608 8.9888 12.1644 8.64508 12.502 8.55864L12.4606 8.39719ZM13.634 7.62724C13.3392 8.00704 12.9264 8.27793 12.4606 8.39719L12.502 8.55864C13.0036 8.43021 13.4482 8.13847 13.7657 7.72943L13.634 7.62724ZM14.0889 6.29951C14.0889 6.78031 13.9289 7.24743 13.634 7.62724L13.7657 7.72943C14.0832 7.32039 14.2555 6.81731 14.2555 6.29951H14.0889ZM13.634 4.97178C13.9289 5.35159 14.0889 5.81871 14.0889 6.29951H14.2555C14.2555 5.7817 14.0832 5.27862 13.7657 4.86958L13.634 4.97178ZM12.4606 4.20183C12.9264 4.32109 13.3392 4.59197 13.634 4.97178L13.7657 4.86958C13.4482 4.46054 13.0036 4.16881 12.502 4.04037L12.4606 4.20183ZM11.8858 3.2313C11.7765 3.65804 12.0339 4.09257 12.4606 4.20183L12.502 4.04037C12.1644 3.95394 11.9608 3.61021 12.0472 3.27264L11.8858 3.2313ZM13.5295 12.1752C13.6166 11.8378 13.9607 11.6349 14.2981 11.722L14.3398 11.5607C13.9133 11.4505 13.4782 11.707 13.3681 12.1336L13.5295 12.1752ZM13.9827 12.9439C13.6453 12.8568 13.4424 12.5126 13.5295 12.1752L13.3681 12.1336C13.258 12.5601 13.5145 12.9951 13.941 13.1052L13.9827 12.9439ZM15.2392 13.7685C14.9228 13.3625 14.481 13.0725 13.9827 12.9439L13.941 13.1052C14.4038 13.2247 14.814 13.4939 15.1077 13.8709L15.2392 13.7685ZM15.7317 15.1864C15.7283 14.6724 15.5552 14.1739 15.2392 13.7685L15.1077 13.8709C15.4011 14.2474 15.5619 14.7103 15.565 15.1875L15.7317 15.1864ZM15.7317 16.6663V15.187H15.565V16.6663H15.7317ZM16.3626 17.2972C16.0142 17.2972 15.7317 17.0147 15.7317 16.6663H15.565C15.565 17.1068 15.9221 17.4639 16.3626 17.4639V17.2972ZM16.9936 16.6663C16.9936 17.0147 16.7111 17.2972 16.3626 17.2972V17.4639C16.8031 17.4639 17.1602 17.1068 17.1602 16.6663H16.9936ZM16.9936 15.1848L16.9936 16.6663L17.1602 16.6663L17.1603 15.1848L16.9936 15.1848ZM16.9936 15.1812L16.9936 15.1853L17.1603 15.1843L17.1602 15.1802L16.9936 15.1812ZM16.2346 12.9928C16.7222 13.6185 16.989 14.388 16.9936 15.1812L17.1602 15.1802C17.1555 14.3502 16.8762 13.5451 16.3661 12.8904L16.2346 12.9928ZM14.2981 11.722C15.0662 11.9203 15.747 12.3671 16.2346 12.9928L16.3661 12.8904C15.8559 12.2357 15.1435 11.7681 14.3398 11.5607L14.2981 11.722Z" fill="#C7C7C7"/>
</svg>
