<svg width="16" height="16" viewBox="0 0 16 16" fill="none" xmlns="http://www.w3.org/2000/svg">
<path d="M12.559 2.66666L3.44094 2.66666C3.08953 2.66665 2.78631 2.66664 2.53661 2.68704C2.27305 2.70857 2.0109 2.75612 1.75865 2.88465C1.38232 3.07639 1.07636 3.38235 0.884616 3.75868C0.756086 4.01093 0.708542 4.27308 0.687008 4.53664C0.666607 4.78634 0.666616 5.08951 0.666626 5.44091C0.666626 5.74967 0.916927 5.99999 1.22569 5.99999H14.7743C15.083 5.99999 15.3333 5.7497 15.3333 5.44095C15.3333 5.08952 15.3333 4.78635 15.3129 4.53664C15.2914 4.27308 15.2438 4.01093 15.1153 3.75868C14.9236 3.38235 14.6176 3.07639 14.2413 2.88465C13.989 2.75612 13.7269 2.70857 13.4633 2.68704C13.2136 2.66664 12.9104 2.66665 12.559 2.66666Z" fill="#32CB08"/>
<path fill-rule="evenodd" clip-rule="evenodd" d="M1.03063 7.40599C1.17324 7.33332 1.35993 7.33332 1.73329 7.33332H14.2666C14.64 7.33332 14.8267 7.33332 14.9693 7.40599C15.0947 7.4699 15.1967 7.57189 15.2606 7.69733C15.3333 7.83994 15.3333 8.02662 15.3333 8.39999V10.559C15.3333 10.9105 15.3333 11.2136 15.3129 11.4633C15.2914 11.7269 15.2438 11.9891 15.1153 12.2413C14.9236 12.6176 14.6176 12.9236 14.2413 13.1153C13.989 13.2439 13.7269 13.2914 13.4633 13.3129C13.2136 13.3333 12.9104 13.3333 12.5591 13.3333L3.44082 13.3333C3.08945 13.3333 2.78629 13.3333 2.53661 13.3129C2.27305 13.2914 2.0109 13.2439 1.75865 13.1153C1.38232 12.9236 1.07636 12.6176 0.884616 12.2413C0.756086 11.9891 0.708542 11.7269 0.687008 11.4633C0.666607 11.2136 0.666616 10.9104 0.666626 10.559V8.39999C0.666626 8.02662 0.666626 7.83994 0.739289 7.69733C0.803205 7.57189 0.905192 7.4699 1.03063 7.40599ZM3.99996 9.33332C3.63177 9.33332 3.33329 9.6318 3.33329 9.99999C3.33329 10.3682 3.63177 10.6667 3.99996 10.6667H7.33329C7.70148 10.6667 7.99996 10.3682 7.99996 9.99999C7.99996 9.6318 7.70148 9.33332 7.33329 9.33332H3.99996Z" fill="#32CB08"/>
</svg>
