<svg viewBox="0 0 16 16" fill="none" xmlns="http://www.w3.org/2000/svg">
  <path fill-rule="evenodd" clip-rule="evenodd"
    d="M7.91672 1.33328H8.08348C8.56553 1.33302 8.92351 1.33283 9.2336 1.41509C10.0702 1.63701 10.7236 2.28392 10.9478 3.11214C10.9977 3.29661 11.0176 3.49819 11.0254 3.73325H12.1446C12.4641 3.73324 12.7397 3.73323 12.9667 3.75159C13.2063 3.77098 13.4446 3.81376 13.674 3.92944C14.0161 4.10201 14.2942 4.37738 14.4685 4.71607C14.5854 4.9431 14.6286 5.17903 14.6482 5.41624C14.6667 5.64098 14.6667 5.91383 14.6667 6.23011V10.8364C14.6667 11.1527 14.6667 11.4255 14.6482 11.6503C14.6286 11.8875 14.5854 12.1234 14.4685 12.3504C14.2942 12.6891 14.0161 12.9645 13.674 13.1371C13.4446 13.2527 13.2063 13.2955 12.9667 13.3149C12.7397 13.3333 12.4641 13.3333 12.1447 13.3333H3.85548C3.53602 13.3333 3.26036 13.3333 3.03336 13.3149C2.79376 13.2955 2.55544 13.2527 2.32612 13.1371C1.98401 12.9645 1.70586 12.6891 1.53155 12.3504C1.4147 12.1234 1.37148 11.8875 1.3519 11.6503C1.33336 11.4255 1.33336 11.1527 1.33337 10.8364V6.23013C1.33336 5.91385 1.33336 5.64097 1.3519 5.41624C1.37148 5.17903 1.4147 4.9431 1.53155 4.71607C1.70586 4.37738 1.98401 4.10201 2.32612 3.92944C2.55544 3.81376 2.79376 3.77098 3.03336 3.75159C3.26037 3.73323 3.53598 3.73324 3.85547 3.73325H4.97478C4.98262 3.49819 5.00247 3.29661 5.0524 3.11214C5.27656 2.28392 5.93001 1.63701 6.7666 1.41509C7.07669 1.33283 7.43467 1.33302 7.91672 1.33328ZM9.54961 5.884C9.47215 6.16434 9.43342 6.30451 9.35262 6.40863C9.2813 6.50053 9.18718 6.57217 9.07961 6.61643C8.95773 6.66659 8.81231 6.66659 8.52146 6.66659H7.47867C7.18781 6.66659 7.04238 6.66659 6.92049 6.61643C6.81291 6.57216 6.71879 6.50051 6.64748 6.40861C6.56668 6.30448 6.52796 6.1643 6.45051 5.88393L6.33714 5.47352C6.28642 5.28991 6.26106 5.19811 6.28212 5.12556C6.30058 5.06201 6.34201 5.00758 6.39836 4.97287C6.46267 4.93325 6.55792 4.93325 6.7484 4.93325H9.25176C9.44226 4.93325 9.53751 4.93325 9.60182 4.97287C9.65818 5.00759 9.6996 5.06201 9.71806 5.12557C9.73912 5.19812 9.71375 5.28993 9.66302 5.47355L9.54961 5.884ZM6.22322 3.42273C6.20393 3.49399 6.19346 3.57875 6.1879 3.73325L6.78792 3.73325L9.21216 3.73325H9.8123C9.80674 3.57875 9.79627 3.49399 9.77698 3.42273C9.6649 3.00862 9.33817 2.68516 8.91988 2.5742C8.78517 2.53846 8.60274 2.53331 8.0001 2.53331C7.39746 2.53331 7.21503 2.53846 7.08032 2.5742C6.66203 2.68516 6.3353 3.00862 6.22322 3.42273ZM6.7528 12.3504C6.561 12.3504 6.4651 12.3504 6.40059 12.3105C6.34409 12.2755 6.30268 12.2207 6.28448 12.1568C6.26371 12.0838 6.28994 11.9916 6.34241 11.8071L6.44636 11.4415C6.52533 11.1638 6.56482 11.0249 6.64569 10.9218C6.71707 10.8308 6.81089 10.7599 6.91793 10.7162C7.03921 10.6666 7.18359 10.6666 7.47235 10.6666H8.52779C8.81653 10.6666 8.9609 10.6666 9.08217 10.7162C9.18921 10.7599 9.28303 10.8308 9.35441 10.9218C9.43527 11.0248 9.47477 11.1637 9.55376 11.4414L9.65775 11.807C9.71022 11.9915 9.73646 12.0838 9.71569 12.1568C9.6975 12.2207 9.6561 12.2755 9.59959 12.3105C9.53508 12.3504 9.43917 12.3504 9.24736 12.3504H6.7528Z"
    fill="#32CB08" />
</svg>