<svg width="12" height="12" viewBox="0 0 12 12" fill="none" xmlns="http://www.w3.org/2000/svg">
<path d="M5.6875 1H8.11133C8.35938 1 8.59766 1.09961 8.77344 1.27539L10.0996 2.60156C10.2754 2.77734 10.375 3.01562 10.375 3.26367V7.5625C10.375 8.08008 9.95508 8.5 9.4375 8.5H5.6875C5.16992 8.5 4.75 8.08008 4.75 7.5625V1.9375C4.75 1.41992 5.16992 1 5.6875 1ZM2.5625 3.5H4.125V4.75H2.875V9.75H6.625V9.125H7.875V10.0625C7.875 10.5801 7.45508 11 6.9375 11H2.5625C2.04492 11 1.625 10.5801 1.625 10.0625V4.4375C1.625 3.91992 2.04492 3.5 2.5625 3.5Z" fill="#32CB08"/>
</svg>
