<svg viewBox="0 0 19 19" fill="none" xmlns="http://www.w3.org/2000/svg">
  <rect x="0.875" y="0.875" width="17.25" height="17.25" rx="4.125" fill="black" fill-opacity="0.08" />
  <rect x="0.875" y="0.875" width="17.25" height="17.25" rx="4.125" stroke="black"
    stroke-width="0.75" />
  <path opacity="0.2" d="M13.25 7.625H10.625V5L13.25 7.625Z" fill="black" />
  <path
    d="M5.75 11.9375C5.75 12.4531 6.08656 12.875 6.5 12.875C6.59049 12.873 6.67962 12.8526 6.76198 12.815C6.84433 12.7775 6.91819 12.7235 6.97906 12.6566C7.04815 12.5862 7.14218 12.5459 7.24079 12.5443C7.33939 12.5428 7.43463 12.5801 7.50589 12.6483C7.57714 12.7165 7.61868 12.81 7.62149 12.9086C7.62431 13.0071 7.58818 13.1029 7.52094 13.175C7.39036 13.3156 7.23246 13.428 7.05691 13.5054C6.88135 13.5827 6.69184 13.6234 6.5 13.625C5.67266 13.625 5 12.868 5 11.9375C5 11.007 5.67266 10.25 6.5 10.25C6.69184 10.2516 6.88135 10.2923 7.05691 10.3696C7.23246 10.447 7.39036 10.5594 7.52094 10.7C7.58818 10.7721 7.62431 10.8678 7.62149 10.9664C7.61868 11.065 7.57714 11.1585 7.50589 11.2267C7.43463 11.2948 7.33939 11.3322 7.24079 11.3307C7.14218 11.3291 7.04815 11.2888 6.97906 11.2184C6.91819 11.1514 6.84433 11.0975 6.76198 11.06C6.67962 11.0224 6.59049 11.002 6.5 11C6.08656 11 5.75 11.4219 5.75 11.9375ZM9.48125 11.5302C9.29375 11.4758 9.09969 11.42 8.99141 11.3502C8.93281 11.3122 8.93375 11.3033 8.93891 11.2611C8.93972 11.227 8.94866 11.1937 8.96496 11.1637C8.98127 11.1338 9.00447 11.1082 9.03266 11.0891C9.24828 10.9428 9.75172 11.008 9.96219 11.0628C10.0584 11.0885 10.1609 11.075 10.2472 11.0252C10.3334 10.9753 10.3963 10.8933 10.422 10.797C10.4478 10.7008 10.4342 10.5983 10.3844 10.5121C10.3345 10.4258 10.2525 10.3629 10.1562 10.3372C10.0569 10.3114 9.17188 10.0925 8.61688 10.4666C8.49951 10.5453 8.40089 10.6489 8.32799 10.77C8.25509 10.8911 8.20969 11.0268 8.195 11.1673C8.10125 11.9117 8.83484 12.1241 9.27313 12.2506C9.83844 12.4142 9.88812 12.4812 9.87219 12.6064C9.85766 12.7194 9.81313 12.763 9.77188 12.7906C9.55625 12.9341 9.06078 12.8637 8.85547 12.8075C8.75949 12.7807 8.65681 12.7931 8.57 12.8421C8.48319 12.891 8.41937 12.9724 8.39258 13.0684C8.36579 13.1643 8.37822 13.267 8.42714 13.3538C8.47606 13.4406 8.55746 13.5045 8.65344 13.5312C8.88593 13.5921 9.12514 13.6236 9.36547 13.625C9.63828 13.625 9.94203 13.5781 10.1853 13.4159C10.3054 13.3361 10.4063 13.2307 10.4808 13.1073C10.5553 12.9839 10.6015 12.8455 10.6161 12.702C10.7188 11.8906 9.94484 11.6642 9.48125 11.5302ZM13.3761 10.272C13.3297 10.2554 13.2805 10.2481 13.2313 10.2505C13.1821 10.253 13.1339 10.265 13.0893 10.2861C13.0448 10.3072 13.0048 10.3368 12.9718 10.3733C12.9387 10.4098 12.9131 10.4525 12.8966 10.4989L12.3125 12.1348L11.728 10.4989C11.6945 10.4052 11.6252 10.3287 11.5354 10.2861C11.4455 10.2435 11.3423 10.2384 11.2487 10.2718C11.155 10.3052 11.0784 10.3745 11.0359 10.4644C10.9933 10.5543 10.9881 10.6574 11.0216 10.7511L11.9591 13.3761C11.9851 13.449 12.033 13.512 12.0962 13.5566C12.1594 13.6012 12.2349 13.6251 12.3123 13.6251C12.3896 13.6251 12.4651 13.6012 12.5283 13.5566C12.5916 13.512 12.6395 13.449 12.6655 13.3761L13.603 10.7511C13.6364 10.6575 13.6312 10.5544 13.5887 10.4646C13.5461 10.3748 13.4697 10.3055 13.3761 10.272ZM13.625 7.625V8.75C13.625 8.84946 13.5855 8.94484 13.5152 9.01516C13.4448 9.08549 13.3495 9.125 13.25 9.125C13.1505 9.125 13.0552 9.08549 12.9848 9.01516C12.9145 8.94484 12.875 8.84946 12.875 8.75V8H10.625C10.5255 8 10.4302 7.96049 10.3598 7.89016C10.2895 7.81984 10.25 7.72446 10.25 7.625V5.375H6.125V8.75C6.125 8.84946 6.08549 8.94484 6.01516 9.01516C5.94484 9.08549 5.84946 9.125 5.75 9.125C5.65054 9.125 5.55516 9.08549 5.48484 9.01516C5.41451 8.94484 5.375 8.84946 5.375 8.75V5.375C5.375 5.17609 5.45402 4.98532 5.59467 4.84467C5.73532 4.70402 5.92609 4.625 6.125 4.625H10.625C10.6743 4.62496 10.723 4.63463 10.7686 4.65345C10.8141 4.67227 10.8555 4.69987 10.8903 4.73469L13.5153 7.35969C13.5501 7.39454 13.5777 7.43591 13.5966 7.48143C13.6154 7.52695 13.625 7.57574 13.625 7.625ZM12.3448 7.25L11 5.90516V7.25H12.3448Z"
    fill="black" />
</svg>