<svg width="12" height="12" viewBox="0 0 12 12" fill="none" xmlns="http://www.w3.org/2000/svg">
<path fill-rule="evenodd" clip-rule="evenodd" d="M4.66643 1.57153C3.4479 1.57153 2.46008 2.55935 2.46008 3.77788C2.46008 4.99642 3.4479 5.98423 4.66643 5.98423C5.88496 5.98423 6.87278 4.99642 6.87278 3.77788C6.87278 2.55935 5.88496 1.57153 4.66643 1.57153ZM1.57141 10.0001C1.57141 10.2368 1.76329 10.4286 1.99998 10.4286H7.33332C7.57001 10.4286 7.76189 10.2368 7.76189 10.0001V9.11117C7.76189 8.52601 7.52943 7.96482 7.11566 7.55104C6.70189 7.13727 6.1407 6.90482 5.55554 6.90482H3.77776C3.1926 6.90482 2.63141 7.13727 2.21764 7.55104C1.80387 7.96482 1.57141 8.52601 1.57141 9.11117V10.0001ZM7.18033 1.95152C7.23904 1.72223 7.47252 1.58394 7.70181 1.64265C8.17641 1.76416 8.59706 2.04018 8.89745 2.42717C9.19785 2.81417 9.3609 3.29014 9.3609 3.78005C9.3609 4.26995 9.19785 4.74592 8.89745 5.13292C8.59706 5.51992 8.17641 5.79593 7.70181 5.91745C7.47252 5.97616 7.23904 5.83787 7.18033 5.60857C7.12162 5.37928 7.25991 5.1458 7.48921 5.08709C7.77943 5.01278 8.03666 4.844 8.22036 4.60734C8.40405 4.37069 8.50376 4.07963 8.50376 3.78005C8.50376 3.48047 8.40405 3.18941 8.22036 2.95275C8.03666 2.7161 7.77943 2.54731 7.48921 2.473C7.25991 2.41429 7.12162 2.18082 7.18033 1.95152ZM8.5916 6.98522C8.36242 6.92605 8.12867 7.06387 8.0695 7.29304C8.01033 7.52222 8.14815 7.75598 8.37733 7.81514C8.66566 7.88959 8.92127 8.05733 9.1043 8.29222C9.2871 8.52682 9.38726 8.81523 9.38922 9.11261V10.0002C9.38922 10.2369 9.5811 10.4288 9.81779 10.4288C10.0545 10.4288 10.2464 10.2369 10.2464 10.0002L10.2464 9.11129L10.2464 9.10883C10.2436 8.62186 10.0797 8.14951 9.78042 7.76538C9.4811 7.38126 9.06311 7.10695 8.5916 6.98522Z" fill="#32CB08"/>
<path d="M7.11566 7.55104L7.08031 7.5864L7.08031 7.5864L7.11566 7.55104ZM2.21764 7.55104L2.25299 7.5864L2.21764 7.55104ZM7.70181 1.64265L7.68941 1.69108L7.70181 1.64265ZM8.89745 2.42717L8.85796 2.45783L8.89745 2.42717ZM8.89745 5.13292L8.85796 5.10226L8.89745 5.13292ZM7.70181 5.91745L7.68941 5.86901L7.70181 5.91745ZM7.48921 5.08709L7.50161 5.13553L7.48921 5.08709ZM8.22036 4.60734L8.25985 4.638L8.22036 4.60734ZM8.22036 2.95275L8.18086 2.98341L8.22036 2.95275ZM7.48921 2.473L7.47681 2.52144L7.48921 2.473ZM8.0695 7.29304L8.11791 7.30554L8.0695 7.29304ZM8.5916 6.98522L8.5791 7.03363L8.5916 6.98522ZM8.37733 7.81514L8.38982 7.76673L8.37733 7.81514ZM9.1043 8.29222L9.06486 8.32296L9.1043 8.29222ZM9.38922 9.11261H9.43922L9.43922 9.11228L9.38922 9.11261ZM10.2464 10.0002H10.1964H10.2464ZM10.2464 9.11129L10.2964 9.11129L10.2964 9.111L10.2464 9.11129ZM10.2464 9.10883L10.1964 9.10911V9.10912L10.2464 9.10883ZM2.51008 3.77788C2.51008 2.58696 3.47551 1.62153 4.66643 1.62153V1.52153C3.42028 1.52153 2.41008 2.53173 2.41008 3.77788H2.51008ZM4.66643 5.93423C3.47551 5.93423 2.51008 4.9688 2.51008 3.77788H2.41008C2.41008 5.02403 3.42028 6.03423 4.66643 6.03423V5.93423ZM6.82278 3.77788C6.82278 4.9688 5.85735 5.93423 4.66643 5.93423V6.03423C5.91258 6.03423 6.92278 5.02403 6.92278 3.77788H6.82278ZM4.66643 1.62153C5.85735 1.62153 6.82278 2.58696 6.82278 3.77788H6.92278C6.92278 2.53173 5.91258 1.52153 4.66643 1.52153V1.62153ZM1.99998 10.3786C1.7909 10.3786 1.62141 10.2091 1.62141 10.0001H1.52141C1.52141 10.2644 1.73567 10.4786 1.99998 10.4786V10.3786ZM7.33332 10.3786H1.99998V10.4786H7.33332V10.3786ZM7.71189 10.0001C7.71189 10.2091 7.5424 10.3786 7.33332 10.3786V10.4786C7.59762 10.4786 7.81189 10.2644 7.81189 10.0001H7.71189ZM7.71189 9.11117V10.0001H7.81189V9.11117H7.71189ZM7.08031 7.5864C7.4847 7.99079 7.71189 8.53927 7.71189 9.11117H7.81189C7.81189 8.51275 7.57417 7.93884 7.15102 7.51569L7.08031 7.5864ZM5.55554 6.95482C6.12744 6.95482 6.67591 7.18201 7.08031 7.5864L7.15102 7.51569C6.72787 7.09254 6.15396 6.85482 5.55554 6.85482V6.95482ZM3.77776 6.95482H5.55554V6.85482H3.77776V6.95482ZM2.25299 7.5864C2.65738 7.18201 3.20586 6.95482 3.77776 6.95482V6.85482C3.17934 6.85482 2.60543 7.09254 2.18228 7.51569L2.25299 7.5864ZM1.62141 9.11117C1.62141 8.53927 1.8486 7.99079 2.25299 7.5864L2.18228 7.51569C1.75913 7.93884 1.52141 8.51275 1.52141 9.11117H1.62141ZM1.62141 10.0001V9.11117H1.52141V10.0001H1.62141ZM7.71421 1.59421C7.45817 1.52865 7.19745 1.68307 7.13189 1.93912L7.22877 1.96392C7.28063 1.76138 7.48687 1.63922 7.68941 1.69108L7.71421 1.59421ZM8.93695 2.39652C8.62975 2.00075 8.19956 1.71848 7.71421 1.59421L7.68941 1.69108C8.15325 1.80985 8.56437 2.0796 8.85796 2.45783L8.93695 2.39652ZM9.4109 3.78005C9.4109 3.27904 9.24415 2.79228 8.93695 2.39652L8.85796 2.45783C9.15154 2.83606 9.3109 3.30125 9.3109 3.78005H9.4109ZM8.93695 5.16358C9.24415 4.76781 9.4109 4.28105 9.4109 3.78005H9.3109C9.3109 4.25885 9.15154 4.72403 8.85796 5.10226L8.93695 5.16358ZM7.71421 5.96589C8.19956 5.84162 8.62975 5.55935 8.93695 5.16358L8.85796 5.10226C8.56437 5.48049 8.15325 5.75025 7.68941 5.86901L7.71421 5.96589ZM7.13189 5.62097C7.19745 5.87702 7.45817 6.03144 7.71421 5.96589L7.68941 5.86901C7.48687 5.92087 7.28063 5.79872 7.22877 5.59617L7.13189 5.62097ZM7.47681 5.03865C7.22076 5.10421 7.06634 5.36493 7.13189 5.62097L7.22877 5.59617C7.17691 5.39362 7.29906 5.18739 7.50161 5.13553L7.47681 5.03865ZM8.18086 4.57668C8.00397 4.80457 7.75627 4.9671 7.47681 5.03865L7.50161 5.13553C7.80258 5.05847 8.06935 4.88343 8.25985 4.638L8.18086 4.57668ZM8.45376 3.78005C8.45376 4.06853 8.35775 4.3488 8.18086 4.57668L8.25985 4.638C8.45036 4.39258 8.55376 4.09073 8.55376 3.78005H8.45376ZM8.18086 2.98341C8.35775 3.21129 8.45376 3.49157 8.45376 3.78005H8.55376C8.55376 3.46936 8.45036 3.16752 8.25985 2.92209L8.18086 2.98341ZM7.47681 2.52144C7.75627 2.593 8.00397 2.75553 8.18086 2.98341L8.25985 2.92209C8.06935 2.67667 7.80258 2.50163 7.50161 2.42457L7.47681 2.52144ZM7.13189 1.93912C7.06634 2.19517 7.22076 2.45588 7.47681 2.52144L7.50161 2.42457C7.29906 2.37271 7.17691 2.16647 7.22877 1.96392L7.13189 1.93912ZM8.11791 7.30554C8.17018 7.1031 8.37666 6.98136 8.5791 7.03363L8.6041 6.9368C8.34818 6.87073 8.08716 7.02463 8.02108 7.28055L8.11791 7.30554ZM8.38982 7.76673C8.18738 7.71447 8.06564 7.50798 8.11791 7.30554L8.02108 7.28055C7.95501 7.53646 8.10891 7.79748 8.36483 7.86356L8.38982 7.76673ZM9.14374 8.26149C8.95392 8.01789 8.68884 7.84393 8.38982 7.76673L8.36483 7.86356C8.64248 7.93524 8.88861 8.09677 9.06486 8.32296L9.14374 8.26149ZM9.43922 9.11228C9.43719 8.80388 9.33332 8.50478 9.14374 8.26149L9.06486 8.32296C9.24089 8.54886 9.33733 8.82658 9.33922 9.11294L9.43922 9.11228ZM9.43922 10.0002V9.11261H9.33922V10.0002H9.43922ZM9.81779 10.3788C9.60872 10.3788 9.43922 10.2093 9.43922 10.0002H9.33922C9.33922 10.2645 9.55349 10.4788 9.81779 10.4788V10.3788ZM10.1964 10.0002C10.1964 10.2093 10.0269 10.3788 9.81779 10.3788V10.4788C10.0821 10.4788 10.2964 10.2645 10.2964 10.0002H10.1964ZM10.1964 9.11129L10.1964 10.0002H10.2964L10.2964 9.11129L10.1964 9.11129ZM10.1964 9.10912L10.1964 9.11158L10.2964 9.111L10.2964 9.10854L10.1964 9.10912ZM9.74098 7.79611C10.0335 8.17153 10.1936 8.63319 10.1964 9.10911L10.2964 9.10854C10.2935 8.61054 10.126 8.12748 9.81986 7.73465L9.74098 7.79611ZM8.5791 7.03363C9.03992 7.1526 9.44844 7.4207 9.74098 7.79611L9.81986 7.73465C9.51376 7.34182 9.08629 7.0613 8.6041 6.9368L8.5791 7.03363Z" fill="#32CB08"/>
</svg>
