<svg viewBox="0 0 12 12" fill="none" xmlns="http://www.w3.org/2000/svg">
  <path fill-rule="evenodd" clip-rule="evenodd"
    d="M3.30039 1.5C2.80333 1.5 2.40039 1.90294 2.40039 2.4V9.6C2.40039 10.0971 2.80333 10.5 3.30039 10.5H8.70039C9.19745 10.5 9.60039 10.0971 9.60039 9.6V4.17154C9.60039 3.90444 9.48175 3.65113 9.27656 3.48014L7.15071 1.7086C6.98897 1.57381 6.78509 1.5 6.57455 1.5H3.30039ZM3.3004 4.60781C3.3004 4.38258 3.48298 4.2 3.70821 4.2H5.74727C5.9725 4.2 6.15508 4.38258 6.15508 4.60781C6.15508 4.83304 5.9725 5.01563 5.74727 5.01563H3.70821C3.48298 5.01563 3.3004 4.83304 3.3004 4.60781ZM3.70821 6C3.48298 6 3.3004 6.18258 3.3004 6.40781C3.3004 6.63304 3.48298 6.81563 3.70821 6.81563H8.2504C8.47563 6.81563 8.65821 6.63304 8.65821 6.40781C8.65821 6.18258 8.47563 6 8.2504 6H3.70821ZM3.3004 8.20781C3.3004 7.98258 3.48298 7.8 3.70821 7.8H8.2504C8.47563 7.8 8.65821 7.98258 8.65821 8.20781C8.65821 8.43304 8.47563 8.61562 8.2504 8.61562H3.70821C3.48298 8.61562 3.3004 8.43304 3.3004 8.20781Z"
    fill="#AEADAD" />
</svg>