<svg viewBox="0 0 12 12" fill="none" xmlns="http://www.w3.org/2000/svg">
<path d="M6 3C3.49323 3 1.92905 4.69665 1.30745 5.53808C1.10215 5.81598 1.10215 6.18402 1.30745 6.46192C1.92905 7.30335 3.49323 9 6 9C8.50677 9 10.071 7.30335 10.6926 6.46192C10.8978 6.18402 10.8978 5.81598 10.6926 5.53808C10.071 4.69665 8.50677 3 6 3Z" stroke="#32CB08"/>
<path fill-rule="evenodd" clip-rule="evenodd" d="M6 4.86362C6.35637 4.86362 6.64526 4.57473 6.64526 4.21836C6.64526 4.13812 6.72436 4.06689 6.79611 4.10283C7.37938 4.39503 7.77979 4.99829 7.77979 5.69507C7.77979 6.67802 6.98295 7.47486 6 7.47486C5.01705 7.47486 4.22021 6.67802 4.22021 5.69507C4.22021 4.99829 4.62062 4.39503 5.20389 4.10283C5.27564 4.06689 5.35474 4.13812 5.35474 4.21836C5.35474 4.57473 5.64363 4.86362 6 4.86362Z" fill="#32CB08"/>
</svg>
