<svg viewBox="0 0 16 16" fill="none" xmlns="http://www.w3.org/2000/svg">
  <path fill-rule="evenodd" clip-rule="evenodd"
    d="M12.4126 3.08764C10.9436 1.75236 8.70031 1.75236 7.23132 3.08764C7.16329 3.14949 7.08899 3.22379 6.96931 3.34348L4.18861 6.12418L4.16872 6.144C4.09464 6.21769 4.00135 6.31048 3.93177 6.42402C3.87144 6.52247 3.82698 6.62982 3.80002 6.7421C3.76893 6.87158 3.76928 7.00316 3.76956 7.10765L3.76961 7.13573L3.76961 10.8602C3.7696 10.9991 3.76958 11.1343 3.77894 11.2488C3.78414 11.3125 3.79293 11.382 3.81021 11.4545C3.41165 11.853 1.59989 13.0824 2.28016 13.7626C2.96043 14.4429 4.18976 12.6312 4.58832 12.2326C4.6608 12.2499 4.73029 12.2587 4.79398 12.2639C4.90849 12.2732 5.04371 12.2732 5.18254 12.2732L8.90708 12.2732L8.93516 12.2733C9.03965 12.2735 9.17123 12.2739 9.30071 12.2428C9.413 12.2158 9.52034 12.1714 9.61879 12.111C9.73233 12.0415 9.82512 11.9482 9.89881 11.8741L9.91863 11.8542L10.9491 10.8237C11.1848 10.588 11.3026 10.4702 11.3106 10.369C11.3175 10.2812 11.282 10.1954 11.215 10.1382C11.1378 10.0723 10.9712 10.0723 10.6379 10.0723L7.62112 10.0723C7.31725 10.0723 7.07091 9.82598 7.07091 9.5221C7.07091 9.21823 7.31725 8.97189 7.62112 8.97189L12.5781 8.97189C12.7206 8.97189 12.8593 8.91695 12.9552 8.81149C13.3906 8.3324 13.6841 7.77095 13.8355 7.18086C13.9501 6.73446 13.7805 6.82123 13.3647 6.82123C13.3647 6.82123 10.9491 6.82123 9.81346 6.82123C9.48657 6.82123 9.22158 6.55623 9.22158 6.22935C9.22158 5.90246 9.48657 5.63747 9.81346 5.63747C10.9972 5.63747 13.3647 5.63747 13.3647 5.63747C13.7936 5.63747 13.8924 5.48253 13.8355 5.26088C13.6841 4.67079 13.3906 4.10934 12.9552 3.63025C12.8933 3.56222 12.819 3.48792 12.6993 3.36824L12.6746 3.34347C12.5549 3.2238 12.4806 3.14948 12.4126 3.08764Z"
    fill="#C7C7C7" />
</svg>