<svg viewBox="0 0 16 16" fill="none" xmlns="http://www.w3.org/2000/svg">
  <path fill-rule="evenodd" clip-rule="evenodd"
    d="M12.9274 2.46133C11.2728 0.957328 8.74608 0.957328 7.09148 2.46133C7.01485 2.53098 6.93116 2.61468 6.79636 2.74949L3.66432 5.88154L3.64191 5.90386C3.55847 5.98686 3.45339 6.09138 3.37502 6.21926C3.30707 6.33016 3.25699 6.45106 3.22662 6.57753C3.19161 6.72338 3.192 6.87158 3.19232 6.98927L3.19238 7.0209L3.19237 11.216C3.19236 11.3724 3.19234 11.5247 3.20288 11.6537C3.20874 11.7254 3.21863 11.8037 3.2381 11.8853C2.78918 12.3343 0.748505 13.7189 1.51473 14.4851C2.28095 15.2514 3.66561 13.2107 4.11453 12.7618C4.19617 12.7812 4.27444 12.7911 4.34618 12.797C4.47515 12.8075 4.62745 12.8075 4.78383 12.8075L8.97898 12.8075L9.0106 12.8076C9.1283 12.8079 9.2765 12.8083 9.42235 12.7733C9.54881 12.7429 9.66972 12.6928 9.78062 12.6249C9.9085 12.5465 10.013 12.4414 10.096 12.358L10.1183 12.3356L11.279 11.1749C11.5445 10.9094 11.6772 10.7767 11.6862 10.6627C11.694 10.5638 11.654 10.4672 11.5785 10.4028C11.4916 10.3285 11.3039 10.3285 10.9284 10.3285L7.53054 10.3285C7.18827 10.3285 6.9108 10.0511 6.9108 9.7088C6.9108 9.36653 7.18827 9.08907 7.53054 9.08907L13.1138 9.08907C13.2743 9.08907 13.4306 9.02718 13.5385 8.9084C14.0291 8.36877 14.3596 7.73638 14.5302 7.07174C14.6592 6.56893 14.4681 6.66666 13.9999 6.66666C13.9999 6.66666 11.279 6.66666 9.99988 6.66666C9.63169 6.66666 9.33321 6.36818 9.33321 6C9.33321 5.63181 9.63169 5.33333 9.99988 5.33333C11.3332 5.33333 13.9999 5.33333 13.9999 5.33333C14.4829 5.33333 14.5942 5.15881 14.5302 4.90916C14.3596 4.24451 14.0291 3.61212 13.5385 3.0725C13.4689 2.99587 13.3852 2.91218 13.2504 2.77737L13.2225 2.74948C13.0877 2.61469 13.004 2.53098 12.9274 2.46133Z"
    fill="#32CB08" />
</svg>