<svg width="61" height="60" viewBox="0 0 61 60" fill="none" xmlns="http://www.w3.org/2000/svg">
<g id="Icons">
<path id="Subtract" fill-rule="evenodd" clip-rule="evenodd" d="M10 26.144V13C10 10.2386 12.2386 8 15 8H28.144C29.4701 8 30.7419 8.52678 31.6796 9.46447L52.5361 30.321C54.4887 32.2736 54.4887 35.4395 52.5361 37.3921L39.3921 50.5361C37.4395 52.4887 34.2736 52.4887 32.321 50.5361L11.4645 29.6796C10.5268 28.7419 10 27.4701 10 26.144ZM19.2461 20.4922C21.1079 20.4922 22.6172 18.9829 22.6172 17.1211C22.6172 15.2593 21.1079 13.75 19.2461 13.75C17.3843 13.75 15.875 15.2593 15.875 17.1211C15.875 18.9829 17.3843 20.4922 19.2461 20.4922Z" fill="#32CB08"/>
</g>
</svg>
