<svg width="12" height="12" viewBox="0 0 12 12" fill="none" xmlns="http://www.w3.org/2000/svg">
<g clip-path="url(#clip0_38_197)">
<path d="M1.98192 10.0178C2.29709 10.3334 2.74773 10.5 3.2855 10.5C4.07208 10.5 5.02617 10.1487 6.00013 9.53959C6.97364 10.1492 7.92819 10.5 8.71476 10.5C9.25209 10.5 9.70272 10.3334 10.0183 10.0178C10.5913 9.44476 10.6555 8.47667 10.1994 7.29094C10.0378 6.87011 9.8138 6.43528 9.54152 6C9.80153 5.59167 10.0218 5.15939 10.1994 4.70906C10.6555 3.52333 10.5909 2.55479 10.0183 1.98224C9.70317 1.66662 9.25254 1.5 8.71476 1.5C7.92819 1.5 6.9741 1.85129 6.00013 2.46042C5.02662 1.85084 4.07208 1.5 3.2855 1.5C2.74818 1.5 2.29755 1.66662 1.98192 1.98224C1.40892 2.55524 1.34435 3.52333 1.80041 4.70906C1.96251 5.12989 2.18602 5.56472 2.45829 6C2.19829 6.40833 1.97799 6.84061 1.80041 7.29094C1.34435 8.47667 1.40892 9.44476 1.98192 10.0178ZM9.35594 7.61514C9.66705 8.42339 9.67563 9.08308 9.37942 9.37929C9.23493 9.52378 9.01142 9.59693 8.71431 9.59693C8.18737 9.59693 7.51955 9.36981 6.81425 8.97381C7.62311 8.34857 8.34888 7.62266 8.97395 6.81367C9.12566 7.08504 9.25525 7.3537 9.35594 7.61514ZM5.99968 8.44597C5.52829 8.10894 5.08522 7.73397 4.67488 7.3248C4.26368 6.91419 3.88619 6.47116 3.54604 6C4.22588 5.05703 5.05458 4.23092 5.99968 3.55403C6.47107 3.89106 6.91415 4.26603 7.32449 4.6752C7.73568 5.08581 8.11318 5.52884 8.45333 6C7.77348 6.94297 6.94478 7.76908 5.99968 8.44597ZM8.71431 2.40307C9.01097 2.40307 9.23448 2.47622 9.37942 2.62071C9.67563 2.91692 9.6675 3.57661 9.35594 4.38486C9.25525 4.6463 9.12566 4.91496 8.97395 5.18633C8.34948 4.37681 7.62365 3.65082 6.81425 3.02619C7.51955 2.63064 8.18737 2.40307 8.71431 2.40307ZM2.64342 4.38486C2.33231 3.57661 2.32373 2.91692 2.61994 2.62071C2.76443 2.47622 2.98794 2.40307 3.28505 2.40307C3.81199 2.40307 4.47982 2.63019 5.18511 3.02619C4.37572 3.65082 3.64988 4.37681 3.02542 5.18633C2.87937 4.9285 2.75172 4.66068 2.64342 4.38486ZM2.64342 7.61514C2.74411 7.3537 2.8737 7.08504 3.02542 6.81367C3.64988 7.62319 4.37572 8.34918 5.18511 8.97381C4.47936 9.36981 3.81199 9.59693 3.28505 9.59693C2.98839 9.59693 2.76488 9.52378 2.61994 9.37929C2.32373 9.08308 2.33231 8.42339 2.64342 7.61514Z" fill="#32CB08"/>
<path d="M6.00002 7.16215C6.64191 7.16215 7.16227 6.64179 7.16227 5.9999C7.16227 5.358 6.64191 4.83765 6.00002 4.83765C5.35813 4.83765 4.83777 5.358 4.83777 5.9999C4.83777 6.64179 5.35813 7.16215 6.00002 7.16215Z" fill="#32CB08"/>
</g>
<defs>
<clipPath id="clip0_38_197">
<rect width="10" height="10" fill="white" transform="translate(1 1)"/>
</clipPath>
</defs>
</svg>
