<svg viewBox="0 0 16 16" fill="none" xmlns="http://www.w3.org/2000/svg">
  <path fill-rule="evenodd" clip-rule="evenodd"
    d="M7.99574 3.03984C6.57762 1.80277 4.48036 1.54962 2.85169 2.93866C1.08999 4.44115 0.834035 6.97157 2.22714 8.76095C2.75595 9.44018 3.78807 10.4606 4.77996 11.3951C5.78346 12.3406 6.78464 13.234 7.27838 13.6705C7.28146 13.6732 7.28461 13.676 7.28781 13.6788C7.33422 13.7199 7.392 13.771 7.44739 13.8126C7.51372 13.8625 7.60894 13.9244 7.73609 13.9622C7.90513 14.0126 8.08683 14.0126 8.25587 13.9622C8.38302 13.9244 8.47824 13.8625 8.54457 13.8126C8.59996 13.771 8.65774 13.7199 8.70415 13.6788C8.70735 13.676 8.7105 13.6732 8.71358 13.6705C9.20732 13.234 10.2085 12.3406 11.212 11.3951C12.2039 10.4606 13.236 9.44018 13.7648 8.76095C15.1526 6.97845 14.9361 4.42851 13.134 2.93335C11.4871 1.5671 9.41227 1.8023 7.99574 3.03984Z"
    fill="#32CB08" />
</svg>