<svg viewBox="0 0 12 12" fill="none" xmlns="http://www.w3.org/2000/svg">
<path d="M6.00001 1.79346C4.85761 1.79346 4.71436 1.7983 4.26569 1.81877C3.81797 1.83919 3.51219 1.91031 3.24463 2.01428C2.96802 2.12177 2.73343 2.26561 2.49959 2.49946C2.26574 2.7333 2.1219 2.96791 2.01441 3.24452C1.91042 3.51207 1.83933 3.81785 1.81888 4.26557C1.79841 4.71424 1.79358 4.85749 1.79358 5.99989C1.79358 7.14227 1.79841 7.28552 1.81888 7.73418C1.83933 8.18191 1.91042 8.48768 2.01441 8.75524C2.12191 9.03185 2.26575 9.26643 2.49959 9.5003C2.73345 9.73414 2.96802 9.87798 3.24463 9.98548C3.51219 10.0894 3.81797 10.1606 4.26569 10.181C4.71436 10.2015 4.85761 10.2063 6.00001 10.2063C7.14239 10.2063 7.28564 10.2015 7.73431 10.181C8.18203 10.1606 8.48781 10.0894 8.75536 9.98548C9.03197 9.87798 9.26655 9.73414 9.50042 9.5003C9.73426 9.26643 9.8781 9.03185 9.9856 8.75524C10.0896 8.48768 10.1607 8.18191 10.1811 7.73418C10.2016 7.28552 10.2064 7.14227 10.2064 5.99989C10.2064 4.85749 10.2016 4.71424 10.1811 4.26557C10.1607 3.81785 10.0896 3.51207 9.9856 3.24452C9.8781 2.96791 9.73426 2.7333 9.50042 2.49946C9.26655 2.26561 9.03197 2.12177 8.75536 2.01428C8.48781 1.91031 8.18203 1.83919 7.73431 1.81877C7.28564 1.7983 7.14239 1.79346 6.00001 1.79346ZM6.00001 2.55137C7.12316 2.55137 7.2562 2.55566 7.69975 2.5759C8.10988 2.59459 8.33261 2.66312 8.48082 2.72073C8.67718 2.79704 8.8173 2.88819 8.96448 3.03538C9.11169 3.18258 9.20283 3.32271 9.27915 3.51905C9.33676 3.66727 9.40528 3.89001 9.42398 4.30012C9.44422 4.74368 9.44851 4.87672 9.44851 5.99988C9.44851 7.12303 9.44422 7.25608 9.42398 7.69963C9.40528 8.10976 9.33676 8.33249 9.27915 8.4807C9.20283 8.67706 9.11169 8.81718 8.96448 8.96436C8.8173 9.11157 8.67717 9.20271 8.48083 9.27903C8.33261 9.33663 8.10987 9.40516 7.69975 9.42386C7.25628 9.44409 7.12324 9.44839 6 9.44839C4.87676 9.44839 4.74375 9.4441 4.30024 9.42385C3.89011 9.40516 3.66739 9.33663 3.51918 9.27903C3.32282 9.20271 3.1827 9.11157 3.03552 8.96436C2.88832 8.81718 2.79716 8.67704 2.72085 8.48071C2.66324 8.33249 2.59473 8.10975 2.57602 7.69963C2.55578 7.25608 2.55149 7.12303 2.55149 5.99988C2.55149 4.87672 2.55578 4.74368 2.57602 4.30012C2.59473 3.88999 2.66324 3.66727 2.72085 3.51906C2.79716 3.3227 2.88832 3.18258 3.0355 3.03539C3.1827 2.88819 3.32283 2.79704 3.51917 2.72073C3.66739 2.66312 3.89013 2.59459 4.30024 2.5759C4.7438 2.55566 4.87684 2.55137 6 2.55137" fill="#32CB08"/>
<path d="M6.00003 7.40183C5.22563 7.40183 4.59787 6.77408 4.59787 5.9997C4.59787 5.2253 5.22563 4.59754 6.00003 4.59754C6.77441 4.59754 7.40216 5.2253 7.40216 5.9997C7.40216 6.77408 6.77441 7.40183 6.00003 7.40183ZM6.00003 3.83964C4.80705 3.83964 3.83997 4.80672 3.83997 5.9997C3.83997 7.19266 4.80705 8.15974 6.00003 8.15974C7.19299 8.15974 8.16007 7.19266 8.16007 5.9997C8.16007 4.80672 7.19299 3.83964 6.00003 3.83964ZM8.75019 3.75429C8.75019 4.03308 8.52419 4.25906 8.24541 4.25906C7.96665 4.25906 7.74065 4.03308 7.74065 3.75429C7.74065 3.47552 7.96665 3.24951 8.24541 3.24951C8.52419 3.24951 8.75019 3.47552 8.75019 3.75429Z" fill="#32CB08"/>
</svg>
