<svg viewBox="0 0 12 12" fill="none" xmlns="http://www.w3.org/2000/svg">
  <path
    d="M4.125 1C3.7793 1 3.5 1.2793 3.5 1.625V3.5H4.75V1.625C4.75 1.2793 4.4707 1 4.125 1ZM7.875 1C7.5293 1 7.25 1.2793 7.25 1.625V3.5H8.5V1.625C8.5 1.2793 8.2207 1 7.875 1ZM2.875 4.125C2.5293 4.125 2.25 4.4043 2.25 4.75C2.25 5.0957 2.5293 5.375 2.875 5.375V6C2.875 7.51172 3.94922 8.77344 5.375 9.0625V10.375C5.375 10.7207 5.6543 11 6 11C6.3457 11 6.625 10.7207 6.625 10.375V9.0625C8.05078 8.77344 9.125 7.51172 9.125 6V5.375C9.4707 5.375 9.75 5.0957 9.75 4.75C9.75 4.4043 9.4707 4.125 9.125 4.125H2.875Z"
    fill="#32CB08" />
</svg>