<svg viewBox="0 0 12 12" fill="none" xmlns="http://www.w3.org/2000/svg">
  <g clip-path="url(#clip0_8_861)">
    <path
      d="M8.82656 4.41162H8.3392H7.4128H2.97504C2.71668 4.41238 2.46911 4.51528 2.28642 4.69785C2.10373 4.88041 2.00076 5.1278 2 5.38599L2 10.2588C2.00068 10.5171 2.10365 10.7646 2.28642 10.9472C2.46919 11.1299 2.71689 11.2328 2.97536 11.2335H8.82656C9.08503 11.2328 9.33273 11.1299 9.5155 10.9472C9.69827 10.7646 9.80124 10.5171 9.80192 10.2588V5.38599C9.80116 5.12775 9.69815 4.88031 9.51539 4.69773C9.33262 4.51516 9.08498 4.4123 8.82656 4.41162ZM5.9008 8.84568C5.64244 8.84492 5.39487 8.74202 5.21218 8.55946C5.02949 8.37689 4.92652 8.1295 4.92576 7.87131C4.92644 7.61307 5.02937 7.3656 5.21207 7.18296C5.39477 7.00033 5.64238 6.89739 5.9008 6.89663C6.15927 6.8973 6.40697 7.00021 6.58974 7.18285C6.77251 7.3655 6.87548 7.61302 6.87616 7.87131C6.8754 8.12955 6.77239 8.377 6.58962 8.55957C6.40686 8.74214 6.15922 8.84501 5.9008 8.84568Z"
      fill="#32CB08" />
    <path fill-rule="evenodd" clip-rule="evenodd"
      d="M3.28003 2.59914C3.28003 1.71609 3.99637 1.00024 4.88003 1.00024H7.12003C8.00368 1.00024 8.72003 1.71609 8.72003 2.59914V5.79694H7.44003V2.59914C7.44003 2.42253 7.29676 2.27936 7.12003 2.27936H4.88003C4.7033 2.27936 4.56003 2.42253 4.56003 2.59914V2.8826H3.28003V2.59914Z"
      fill="#32CB08" />
  </g>
  <defs>
    <clipPath id="clip0_8_861">
      <rect width="8" height="10.2329" fill="white" transform="translate(2 1)" />
    </clipPath>
  </defs>
</svg>