<svg viewBox="0 0 12 12" fill="none" xmlns="http://www.w3.org/2000/svg">
<path d="M7.3474 10.2832L6.12573 5.7239C6.06862 5.51077 6.2955 5.33355 6.48846 5.44057L10.4579 7.64198C10.6545 7.75101 10.6185 8.0439 10.4014 8.10209L9.62849 8.30918C9.44942 8.35716 9.38304 8.57651 9.50545 8.71574L10.7094 10.0851C10.8003 10.1885 10.7905 10.3459 10.6875 10.4372L10.3195 10.7635C10.2159 10.8555 10.0572 10.8456 9.9658 10.7415L8.70061 9.30063C8.5828 9.16647 8.36639 9.19548 8.28808 9.35593L7.81355 10.3282C7.71214 10.536 7.40724 10.5066 7.3474 10.2832Z" fill="#32CB08"/>
<path fill-rule="evenodd" clip-rule="evenodd" d="M1.12212 3.41314C1.12212 2.30857 2.01755 1.41314 3.12212 1.41314H7.66899C8.77356 1.41314 9.66899 2.30857 9.66899 3.41314V6.3275L6.34001 4.50672C5.76391 4.19162 5.0897 4.71657 5.25395 5.35234L6.08448 8.56695H3.12212C2.01755 8.56695 1.12212 7.67152 1.12212 6.56695V3.41314ZM2.94693 3.37665C3.15404 3.37665 3.32193 3.20876 3.32193 3.00165C3.32193 2.79454 3.15404 2.62665 2.94693 2.62665C2.73982 2.62665 2.57193 2.79454 2.57193 3.00165C2.57193 3.20876 2.73982 3.37665 2.94693 3.37665ZM4.40036 3.00165C4.40036 3.20876 4.23247 3.37665 4.02536 3.37665C3.81825 3.37665 3.65036 3.20876 3.65036 3.00165C3.65036 2.79454 3.81825 2.62665 4.02536 2.62665C4.23247 2.62665 4.40036 2.79454 4.40036 3.00165ZM5.10379 3.37665C5.3109 3.37665 5.47879 3.20876 5.47879 3.00165C5.47879 2.79454 5.3109 2.62665 5.10379 2.62665C4.89668 2.62665 4.72879 2.79454 4.72879 3.00165C4.72879 3.20876 4.89668 3.37665 5.10379 3.37665Z" fill="#32CB08"/>
</svg>
