<svg viewBox="0 0 12 12" fill="none" xmlns="http://www.w3.org/2000/svg">
<path d="M5.94037 9.78532L4.45174 4.22971C4.39463 4.01657 4.62151 3.83936 4.81447 3.94637L9.65107 6.6287C9.84767 6.73773 9.81168 7.03062 9.59453 7.08881L8.5181 7.37723C8.33903 7.42522 8.27265 7.64457 8.39506 7.78379L9.88101 9.47383C9.97191 9.57721 9.96213 9.73463 9.85913 9.82596L9.36303 10.2659C9.25937 10.3578 9.10072 10.3479 9.00931 10.2438L7.45446 8.47308C7.33665 8.33892 7.12025 8.36793 7.04193 8.52838L6.40652 9.83027C6.3051 10.0381 6.00021 10.0087 5.94037 9.78532Z" fill="#32CB08"/>
<path d="M2.58832 1.65169L3.93467 3.27085" stroke="#32CB08" stroke-width="0.75" stroke-linecap="round"/>
<path d="M3.3169 4.66347L2.01736 5.02363" stroke="#32CB08" stroke-width="0.75" stroke-linecap="round"/>
<path d="M5.6803 3.27077L6.31969 1.65177" stroke="#32CB08" stroke-width="0.75" stroke-linecap="round"/>
</svg>
