<svg viewBox="0 0 16 16" fill="none" xmlns="http://www.w3.org/2000/svg">
  <path fill-rule="evenodd" clip-rule="evenodd"
    d="M11.9689 1.33325C12.8718 1.34261 13.5539 2.087 13.9761 2.95391C14.4142 3.8535 14.6667 5.05048 14.6667 6.33608C14.6667 7.62169 14.4142 8.81867 13.9761 9.71826C13.553 10.587 12.8689 11.3327 11.9632 11.339C10.5152 11.3679 7.03868 10.0041 5.61661 9.71826C5.61661 9.71826 5.61661 12.0061 5.61661 13.3403C5.61661 14.0219 5.20259 14.6153 4.58766 14.6639C3.87459 14.7203 3.49434 13.8675 3.44379 13.0838L3.21739 9.57939C3.04205 9.5306 2.8861 9.47344 2.7426 9.3955C2.12892 9.06222 1.6719 8.45678 1.4851 7.72962C1.28333 6.94422 1.28227 5.73198 1.4851 4.94246C1.6719 4.21529 2.12892 3.60986 2.7426 3.27658C3.04595 3.11183 3.40487 3.03991 3.88505 2.9437C6.54042 2.40993 11.0467 1.33319 11.9689 1.33325ZM11.9956 10.0027L11.7109 9.9455C11.4906 9.84064 11.2329 9.58497 10.9897 9.08575C10.6636 8.41607 10.4433 7.44511 10.4433 6.33608C10.4433 5.22706 10.6636 4.2561 10.9897 3.58642C11.191 3.17309 11.4023 2.92671 11.5941 2.79466C11.6688 2.74318 11.7549 2.71771 11.8416 2.70029C11.9436 2.67978 12.0497 2.66864 12.1474 2.70704C12.3771 2.79733 12.6537 3.05267 12.9137 3.58642C13.2398 4.2561 13.46 5.22706 13.46 6.33608C13.46 7.44511 13.2398 8.41607 12.9137 9.08575C12.5933 9.74349 12.2477 9.97845 11.9956 10.0027Z"
    fill="#32CB08" />
</svg>