<svg width="12" height="12" viewBox="0 0 12 12" fill="none" xmlns="http://www.w3.org/2000/svg">
<g clip-path="url(#clip0_8_849)">
<path d="M2.99963 10C2.99963 9.73478 2.89428 9.48043 2.70674 9.29289C2.5192 9.10536 2.26485 9 1.99963 9C1.73442 9 1.48006 9.10536 1.29253 9.29289C1.10499 9.48043 0.999634 9.73478 0.999634 10C0.999634 10.2652 1.10499 10.5196 1.29253 10.7071C1.48006 10.8946 1.73442 11 1.99963 11C2.26485 11 2.5192 10.8946 2.70674 10.7071C2.89428 10.5196 2.99963 10.2652 2.99963 10Z" stroke="#32CB08" stroke-linecap="round" stroke-linejoin="round"/>
<path d="M8 1.99951C8 1.7343 7.89464 1.47994 7.70711 1.2924C7.51957 1.10487 7.26522 0.999512 7 0.999512C6.73478 0.999512 6.48043 1.10487 6.29289 1.2924C6.10536 1.47994 6 1.7343 6 1.99951C6 2.26473 6.10536 2.51908 6.29289 2.70662C6.48043 2.89415 6.73478 2.99951 7 2.99951C7.26522 2.99951 7.51957 2.89415 7.70711 2.70662C7.89464 2.51908 8 2.26473 8 1.99951Z" stroke="#32CB08" stroke-linecap="round" stroke-linejoin="round"/>
<path d="M8 10C8 9.73478 7.89464 9.48043 7.70711 9.29289C7.51957 9.10536 7.26522 9 7 9C6.73478 9 6.48043 9.10536 6.29289 9.29289C6.10536 9.48043 6 9.73478 6 10C6 10.2652 6.10536 10.5196 6.29289 10.7071C6.48043 10.8946 6.73478 11 7 11C7.26522 11 7.51957 10.8946 7.70711 10.7071C7.89464 10.5196 8 10.2652 8 10Z" stroke="#32CB08" stroke-linecap="round" stroke-linejoin="round"/>
<path d="M5.50037 6.00049C5.50037 5.73527 5.39501 5.48092 5.20747 5.29338C5.01994 5.10585 4.76558 5.00049 4.50037 5.00049C4.23515 5.00049 3.9808 5.10585 3.79326 5.29338C3.60572 5.48092 3.50037 5.73527 3.50037 6.00049C3.50037 6.2657 3.60572 6.52006 3.79326 6.70759C3.9808 6.89513 4.23515 7.00049 4.50037 7.00049C4.76558 7.00049 5.01994 6.89513 5.20747 6.70759C5.39501 6.52006 5.50037 6.2657 5.50037 6.00049Z" stroke="#32CB08" stroke-linecap="round" stroke-linejoin="round"/>
<path d="M10.4996 6.00049C10.4996 5.73527 10.3943 5.48092 10.2067 5.29338C10.0192 5.10585 9.76485 5.00049 9.49963 5.00049C9.23442 5.00049 8.98006 5.10585 8.79253 5.29338C8.60499 5.48092 8.49963 5.73527 8.49963 6.00049C8.49963 6.2657 8.60499 6.52006 8.79253 6.70759C8.98006 6.89513 9.23442 7.00049 9.49963 7.00049C9.76485 7.00049 10.0192 6.89513 10.2067 6.70759C10.3943 6.52006 10.4996 6.2657 10.4996 6.00049Z" stroke="#32CB08" stroke-linecap="round" stroke-linejoin="round"/>
<path d="M2.52893 9.15261L3.96893 6.84961" stroke="#32CB08" stroke-linecap="round" stroke-linejoin="round"/>
<path d="M5.02966 5.1521L6.46816 2.8501" stroke="#32CB08" stroke-linecap="round" stroke-linejoin="round"/>
<path d="M5.0332 6.85303L6.4712 9.15303" stroke="#32CB08" stroke-linecap="round" stroke-linejoin="round"/>
<path d="M7.53162 2.8501L8.97212 5.1551" stroke="#32CB08" stroke-linecap="round" stroke-linejoin="round"/>
</g>
<defs>
<clipPath id="clip0_8_849">
<rect width="12" height="12" fill="white"/>
</clipPath>
</defs>
</svg>
