<svg viewBox="0 0 19 19" fill="none" xmlns="http://www.w3.org/2000/svg">
  <rect x="0.875" y="0.875" width="17.25" height="17.25" rx="4.125" fill="black" fill-opacity="0.08" />
  <rect x="0.875" y="0.875" width="17.25" height="17.25" rx="4.125" stroke="black"
    stroke-width="0.75" />
  <path opacity="0.2" d="M13.25 7.625H10.625V5L13.25 7.625Z" fill="black" />
  <path
    d="M14 10.625C14 10.7245 13.9605 10.8198 13.8902 10.8902C13.8198 10.9605 13.7245 11 13.625 11H12.5V11.75H13.25C13.3495 11.75 13.4448 11.7895 13.5152 11.8598C13.5855 11.9302 13.625 12.0255 13.625 12.125C13.625 12.2245 13.5855 12.3198 13.5152 12.3902C13.4448 12.4605 13.3495 12.5 13.25 12.5H12.5V13.25C12.5 13.3495 12.4605 13.4448 12.3902 13.5152C12.3198 13.5855 12.2245 13.625 12.125 13.625C12.0255 13.625 11.9302 13.5855 11.8598 13.5152C11.7895 13.4448 11.75 13.3495 11.75 13.25V10.625C11.75 10.5255 11.7895 10.4302 11.8598 10.3598C11.9302 10.2895 12.0255 10.25 12.125 10.25H13.625C13.7245 10.25 13.8198 10.2895 13.8902 10.3598C13.9605 10.4302 14 10.5255 14 10.625ZM7.8125 11.5625C7.8125 11.9106 7.67422 12.2444 7.42808 12.4906C7.18194 12.7367 6.8481 12.875 6.5 12.875H6.125V13.25C6.125 13.3495 6.08549 13.4448 6.01516 13.5152C5.94484 13.5855 5.84946 13.625 5.75 13.625C5.65054 13.625 5.55516 13.5855 5.48484 13.5152C5.41451 13.4448 5.375 13.3495 5.375 13.25V10.625C5.375 10.5255 5.41451 10.4302 5.48484 10.3598C5.55516 10.2895 5.65054 10.25 5.75 10.25H6.5C6.8481 10.25 7.18194 10.3883 7.42808 10.6344C7.67422 10.8806 7.8125 11.2144 7.8125 11.5625ZM7.0625 11.5625C7.0625 11.4133 7.00324 11.2702 6.89775 11.1648C6.79226 11.0593 6.64918 11 6.5 11H6.125V12.125H6.5C6.64918 12.125 6.79226 12.0657 6.89775 11.9602C7.00324 11.8548 7.0625 11.7117 7.0625 11.5625ZM11.1875 11.9375C11.1875 12.3851 11.0097 12.8143 10.6932 13.1307C10.3768 13.4472 9.94755 13.625 9.5 13.625H8.75C8.65054 13.625 8.55516 13.5855 8.48484 13.5152C8.41451 13.4448 8.375 13.3495 8.375 13.25V10.625C8.375 10.5255 8.41451 10.4302 8.48484 10.3598C8.55516 10.2895 8.65054 10.25 8.75 10.25H9.5C9.94755 10.25 10.3768 10.4278 10.6932 10.7443C11.0097 11.0607 11.1875 11.4899 11.1875 11.9375ZM10.4375 11.9375C10.4375 11.6889 10.3387 11.4504 10.1629 11.2746C9.9871 11.0988 9.74864 11 9.5 11H9.125V12.875H9.5C9.74864 12.875 9.9871 12.7762 10.1629 12.6004C10.3387 12.4246 10.4375 12.1861 10.4375 11.9375ZM5.375 8.75V5.375C5.375 5.17609 5.45402 4.98532 5.59467 4.84467C5.73532 4.70402 5.92609 4.625 6.125 4.625H10.625C10.6743 4.62496 10.723 4.63463 10.7686 4.65345C10.8141 4.67227 10.8555 4.69987 10.8903 4.73469L13.5153 7.35969C13.5501 7.39454 13.5777 7.43591 13.5966 7.48143C13.6154 7.52695 13.625 7.57574 13.625 7.625V8.75C13.625 8.84946 13.5855 8.94484 13.5152 9.01516C13.4448 9.08549 13.3495 9.125 13.25 9.125C13.1505 9.125 13.0552 9.08549 12.9848 9.01516C12.9145 8.94484 12.875 8.84946 12.875 8.75V8H10.625C10.5255 8 10.4302 7.96049 10.3598 7.89016C10.2895 7.81984 10.25 7.72446 10.25 7.625V5.375H6.125V8.75C6.125 8.84946 6.08549 8.94484 6.01516 9.01516C5.94484 9.08549 5.84946 9.125 5.75 9.125C5.65054 9.125 5.55516 9.08549 5.48484 9.01516C5.41451 8.94484 5.375 8.84946 5.375 8.75ZM11 7.25H12.3448L11 5.90516V7.25Z"
    fill="black" />
</svg>