<svg width="12" height="12" viewBox="0 0 12 12" fill="none" xmlns="http://www.w3.org/2000/svg">
<path d="M4.71444 6.5207C3.45934 5.2656 3.39187 4.36906 3.87526 3.88567L4.59395 3.13771C4.78165 2.94239 4.77856 2.63278 4.58699 2.44121L2.99758 0.851798C2.8033 0.657519 2.48828 0.657502 2.29398 0.851798L1.89263 1.25315C1.67426 1.47152 1.455 1.817 1.32911 2.09901C0.976243 2.88935 1.44855 4.43631 1.97371 5.39433C2.55464 6.45408 3.48747 7.48747 3.78643 7.78643C4.08538 8.08538 4.97159 8.86751 6.17856 9.59918C7.13658 10.1243 8.68354 10.5966 9.47388 10.2438C9.75589 10.1179 10.1014 9.89863 10.3197 9.68026L10.7211 9.27891C10.9154 9.08461 10.9154 8.76959 10.7211 8.57531L9.13168 6.9859C8.94011 6.79433 8.63051 6.79124 8.43518 6.97894L7.68722 7.69763C7.20383 8.18102 6.30729 8.11355 5.05219 6.85845L4.71444 6.5207Z" fill="#32CB08"/>
</svg>
