<svg width="16" height="16" viewBox="0 0 16 16" fill="none" xmlns="http://www.w3.org/2000/svg">
<path d="M6.28588 8.69427C4.61241 7.0208 4.52246 5.82541 5.16698 5.18089L6.12522 4.18362C6.37549 3.92318 6.37137 3.51037 6.11595 3.25495L3.99673 1.13573C3.73769 0.876692 3.31767 0.876669 3.0586 1.13573L2.52346 1.67087C2.2323 1.96203 1.93996 2.42267 1.7721 2.79867C1.30162 3.85247 1.93136 5.91508 2.63158 7.19244C3.40615 8.60544 4.64992 9.9833 5.04853 10.3819C5.44714 10.7805 6.62875 11.8233 8.23804 12.7989C9.5154 13.4991 11.578 14.1289 12.6318 13.6584C13.0078 13.4905 13.4684 13.1982 13.7596 12.907L14.2947 12.3719C14.5538 12.1128 14.5538 11.6928 14.2947 11.4337L12.1755 9.31453C11.9201 9.05911 11.5073 9.05499 11.2469 9.30526L10.2496 10.2635C9.60507 10.908 8.40968 10.8181 6.73621 9.1446L6.28588 8.69427Z" fill="#32CB08"/>
<path fill-rule="evenodd" clip-rule="evenodd" d="M8.24468 4.24495C8.30137 3.9544 8.58285 3.76482 8.8734 3.82151C9.50163 3.94408 10.079 4.25133 10.5316 4.70393C10.9842 5.15654 11.2915 5.73391 11.414 6.36214C11.4707 6.65269 11.2811 6.93417 10.9906 6.99086C10.7 7.04755 10.4186 6.85797 10.3619 6.56742C10.2802 6.1486 10.0753 5.76369 9.77359 5.46195C9.47185 5.16021 9.08694 4.95538 8.66812 4.87367C8.37757 4.81698 8.18799 4.53549 8.24468 4.24495Z" fill="#32CB08"/>
<path fill-rule="evenodd" clip-rule="evenodd" d="M8.23804 2.14441C8.27072 1.8502 8.53573 1.63819 8.82994 1.67087C10.0385 1.80513 11.1655 2.34633 12.0258 3.20562C12.8862 4.0649 13.4288 5.1912 13.5646 6.39957C13.5976 6.69374 13.386 6.95901 13.0918 6.99207C12.7976 7.02512 12.5324 6.81345 12.4993 6.51927C12.3907 5.55257 11.9566 4.65154 11.2683 3.96411C10.58 3.27668 9.67841 2.84372 8.71158 2.73631C8.41737 2.70363 8.20535 2.43863 8.23804 2.14441Z" fill="#32CB08"/>
</svg>
