<svg viewBox="0 0 16 16" fill="none" xmlns="http://www.w3.org/2000/svg">
  <path
    d="M4.10763 2H11.8924C12.2438 1.99999 12.547 1.99998 12.7967 2.02038C13.0602 2.04192 13.3224 2.08946 13.5746 2.21799C13.951 2.40974 14.2569 2.7157 14.4487 3.09202C14.5772 3.34427 14.6247 3.60642 14.6463 3.86998C14.6667 4.11969 14.6667 4.42287 14.6667 4.77429V8.9333C14.6667 9.30667 14.6667 9.49335 14.594 9.63596C14.5301 9.7614 14.4281 9.86339 14.3027 9.9273C14.16 9.99997 13.9734 9.99997 13.6 9.99997H10.4418L10.4078 9.9999C10.2812 9.99957 10.1218 9.99914 9.96487 10.0368C9.82882 10.0695 9.69876 10.1233 9.57947 10.1964C9.4419 10.2807 9.32947 10.3938 9.24018 10.4835C9.12237 10.6015 8.96085 10.665 8.79413 10.665H7.20585C7.03913 10.665 6.8776 10.6015 6.7598 10.4835C6.67051 10.3938 6.55808 10.2807 6.42051 10.1964C6.30121 10.1233 6.17115 10.0695 6.03511 10.0368C5.87822 9.99914 5.71879 9.99957 5.59219 9.9999L5.55816 9.99997H2.39999C2.02662 9.99997 1.83994 9.99997 1.69733 9.9273C1.57189 9.86339 1.4699 9.7614 1.40599 9.63596C1.33332 9.49335 1.33332 9.30667 1.33332 8.9333L1.33332 4.7743C1.33331 4.42287 1.3333 4.1197 1.3537 3.86998C1.37524 3.60642 1.42278 3.34427 1.55131 3.09202C1.74306 2.7157 2.04902 2.40974 2.42534 2.21799C2.6776 2.08946 2.93974 2.04192 3.20331 2.02038C3.45301 1.99998 3.75622 1.99999 4.10763 2Z"
    fill="#32CB08" />
  <path
    d="M1.68929 11.3336C1.32799 11.3335 1.14734 11.3335 0.994295 11.4202C0.87515 11.4877 0.749961 11.633 0.700802 11.7609C0.637657 11.9251 0.659108 12.0681 0.70201 12.3542C0.710951 12.4138 0.721746 12.4692 0.734744 12.5177C0.919679 13.2079 1.45877 13.7469 2.14896 13.9319C2.40598 14.0007 2.698 14.0004 3.03648 14.0001H12.9634C13.3019 14.0004 13.5939 14.0007 13.8509 13.9319C14.5411 13.7469 15.0802 13.2079 15.2651 12.5177C15.278 12.4694 15.2888 12.4141 15.2976 12.3544C15.3401 12.0677 15.3614 11.9243 15.2981 11.7603C15.2487 11.6325 15.1237 11.4876 15.0044 11.4202C14.8515 11.3336 14.6706 11.3337 14.309 11.334L10.5309 11.3365C10.3663 11.3366 10.2094 11.3999 10.0931 11.5164C10.0038 11.6061 9.89142 11.7192 9.75384 11.8035C9.63455 11.8766 9.50449 11.9305 9.36844 11.9631C9.21156 12.0008 9.05214 12.0004 8.92553 12L8.89149 12H7.10848L7.07446 12C6.94785 12.0004 6.78842 12.0008 6.63154 11.9631C6.49549 11.9305 6.36543 11.8766 6.24613 11.8035C6.10857 11.7192 5.99614 11.6062 5.90685 11.5164C5.78917 11.3983 5.62752 11.3349 5.4608 11.3348L1.68929 11.3336Z"
    fill="#32CB08" />
</svg>