<svg viewBox="0 0 24 24" fill="none" xmlns="http://www.w3.org/2000/svg">
  <path fill-rule="evenodd" clip-rule="evenodd"
    d="M8.9681 5.19075C8.97695 5.19665 8.98584 5.20257 8.99475 5.20851L16.81 10.4148C17.0361 10.5654 17.2458 10.7051 17.4068 10.8348C17.5748 10.9703 17.773 11.1581 17.887 11.4328C18.0377 11.7959 18.0377 12.2041 17.887 12.5672C17.773 12.8419 17.5748 13.0297 17.4068 13.1652C17.2458 13.2949 17.0361 13.4346 16.81 13.5852L8.96812 18.8092C8.69172 18.9934 8.44317 19.159 8.23227 19.2732C8.02122 19.3875 7.73154 19.5181 7.39342 19.4979C6.96094 19.4721 6.56142 19.2585 6.30004 18.9132C6.09569 18.6433 6.04375 18.33 6.02185 18.0911C5.99996 17.8524 5.99998 17.5539 6 17.2219L6 6.81007C6 6.79937 6 6.78869 6 6.77806C5.99998 6.4461 5.99996 6.1476 6.02185 5.90891C6.04375 5.67004 6.09569 5.35674 6.30004 5.08681C6.56142 4.74154 6.96094 4.52788 7.39342 4.50208C7.73154 4.4819 8.02122 4.6125 8.23227 4.7268C8.44316 4.841 8.6917 5.0066 8.9681 5.19075Z"
    fill="#37EB05" />
</svg>