<svg viewBox="0 0 12 12" fill="none" xmlns="http://www.w3.org/2000/svg">
<path d="M2.59341 4.83765V5.35654C2.59341 7.23795 4.1186 8.76313 6.00001 8.76313V8.76313C7.88142 8.76313 9.4066 7.23795 9.4066 5.35654V4.83765" stroke="#32CB08" stroke-linecap="round"/>
<path d="M6 8.69483V10.6948" stroke="#32CB08"/>
<path d="M3.65793 10.6948L8.34199 10.6948" stroke="#32CB08" stroke-linecap="round"/>
<path fill-rule="evenodd" clip-rule="evenodd" d="M6.03296 0.40123C4.72128 0.40123 3.65796 1.46455 3.65796 2.77623V5.36126C3.65796 6.67294 4.72128 7.73626 6.03296 7.73626C7.34464 7.73626 8.40796 6.67294 8.40796 5.36126V2.77623C8.40796 1.46455 7.34464 0.40123 6.03296 0.40123ZM6.29826 2.17761C6.29826 2.03875 6.1857 1.92618 6.04684 1.92618C5.90798 1.92618 5.79541 2.03875 5.79541 2.17761V5.97144C5.79541 6.1103 5.90798 6.22286 6.04684 6.22286C6.1857 6.22286 6.29826 6.1103 6.29826 5.97144L6.29826 2.17761ZM4.82968 1.92622C4.96854 1.92622 5.0811 2.03879 5.0811 2.17765L5.0811 5.97147C5.0811 6.11033 4.96854 6.2229 4.82968 6.2229C4.69082 6.2229 4.57825 6.11033 4.57825 5.97147L4.57825 2.17765C4.57825 2.03879 4.69082 1.92622 4.82968 1.92622ZM7.51548 2.17761C7.51548 2.03875 7.40291 1.92618 7.26405 1.92618C7.12519 1.92618 7.01262 2.03875 7.01262 2.17761L7.01262 5.97144C7.01262 6.1103 7.12519 6.22286 7.26405 6.22286C7.40291 6.22286 7.51548 6.1103 7.51548 5.97144V2.17761Z" fill="#32CB08"/>
</svg>
