<svg width="20" height="20" viewBox="0 0 20 20" fill="none" xmlns="http://www.w3.org/2000/svg">
<path fill-rule="evenodd" clip-rule="evenodd" d="M11.3094 3.12266C10.0138 3.12266 8.96348 4.17296 8.96348 5.46856C8.96348 6.76417 10.0138 7.81447 11.3094 7.81447C12.605 7.81447 13.6553 6.76417 13.6553 5.46856C13.6553 4.17296 12.605 3.12266 11.3094 3.12266ZM7.47314 5.46856C7.47314 3.34987 9.19069 1.63232 11.3094 1.63232C13.4281 1.63232 15.1456 3.34987 15.1456 5.46856C15.1456 7.58726 13.4281 9.3048 11.3094 9.3048C9.19069 9.3048 7.47314 7.58726 7.47314 5.46856Z" fill="#C7C7C7"/>
<path d="M8.09217 13.0832C8.53211 12.6433 9.1288 12.3961 9.75098 12.3961H12.842C13.4642 12.3961 14.0609 12.6433 14.5008 13.0832C14.9408 13.5231 15.1879 14.1198 15.1879 14.742V16.5466C15.1879 16.9581 15.5216 17.2917 15.9331 17.2917C16.3447 17.2917 16.6783 16.9581 16.6783 16.5466V14.742C16.6783 13.7246 16.2741 12.7488 15.5547 12.0294C14.8352 11.3099 13.8595 10.9058 12.842 10.9058H9.75098C8.73354 10.9058 7.75778 11.3099 7.03834 12.0294C6.78722 12.2805 6.57451 12.5629 6.40399 12.8673C6.37962 12.9108 6.37727 12.9631 6.39636 13.0092L6.67102 13.6719C6.7144 13.7766 6.79856 13.8591 6.90408 13.9004L7.31373 14.0607C7.40609 14.0968 7.50895 14.0446 7.54238 13.9512C7.65817 13.6278 7.84466 13.3307 8.09217 13.0832Z" fill="#C7C7C7"/>
<path d="M5.01316 11.9517L5.91707 14.3944L8.35982 15.2983L5.91707 16.2022L5.01316 18.645L4.10926 16.2022L1.6665 15.2983L4.10926 14.3944L5.01316 11.9517Z" fill="#C7C7C7"/>
</svg>
