<svg width="20" height="20" viewBox="0 0 20 20" fill="none" xmlns="http://www.w3.org/2000/svg">
<g clip-path="url(#clip0_58_2055)">
<path d="M5.83344 12.0829C5.25705 12.0829 4.73622 12.319 4.36122 12.694C3.54178 13.5134 3.05566 16.944 3.05566 16.944C3.05566 16.944 6.48622 16.4579 7.30566 15.6384C7.59802 15.3476 7.79735 14.9765 7.87835 14.5721C7.95935 14.1678 7.91837 13.7485 7.76062 13.3675C7.60286 12.9865 7.33543 12.661 6.9923 12.4322C6.64917 12.2035 6.24581 12.0819 5.83344 12.0829ZM6.3265 14.6593C6.13205 14.8537 4.81955 15.1871 4.81955 15.1871C4.81955 15.1871 5.14594 13.8815 5.34733 13.6801C5.46539 13.5482 5.639 13.4718 5.83344 13.4718C5.97093 13.472 6.10529 13.5129 6.21958 13.5893C6.33387 13.6657 6.423 13.7742 6.47572 13.9012C6.52844 14.0282 6.5424 14.1679 6.51585 14.3028C6.4893 14.4377 6.42341 14.5618 6.3265 14.6593ZM13.764 11.1454C18.1807 6.72872 16.7084 3.29122 16.7084 3.29122C16.7084 3.29122 13.2709 1.819 8.85428 6.23566L7.12511 5.88844C6.90033 5.84528 6.66842 5.85751 6.44943 5.92405C6.23043 5.9906 6.03093 6.10947 5.86816 6.27039L3.05566 9.08983L6.52789 10.5759L9.42372 13.4718L10.9098 16.944L13.7223 14.1315C14.0487 13.8051 14.1946 13.3329 14.1043 12.8746L13.764 11.1454ZM6.81261 9.18705L5.48622 8.61761L6.85428 7.24955L7.85428 7.45094C7.45844 8.02733 7.10428 8.6315 6.81261 9.18705ZM11.3821 14.5134L10.8126 13.1871C11.3682 12.8954 11.9723 12.5412 12.5418 12.1454L12.7432 13.1454L11.3821 14.5134ZM12.7779 10.1662C11.8612 11.0829 10.4307 11.8329 9.97233 12.0621L7.93761 10.0273C8.15983 9.57594 8.90983 8.14539 9.83344 7.22178C13.0834 3.97178 15.5487 4.45094 15.5487 4.45094C15.5487 4.45094 16.0279 6.91622 12.7779 10.1662ZM12.0834 9.30511C12.8473 9.30511 13.4723 8.68011 13.4723 7.91622C13.4723 7.15233 12.8473 6.52733 12.0834 6.52733C11.3196 6.52733 10.6946 7.15233 10.6946 7.91622C10.6946 8.68011 11.3196 9.30511 12.0834 9.30511Z" fill="#C7C7C7"/>
</g>
<defs>
<clipPath id="clip0_58_2055">
<rect width="16.6667" height="16.6667" fill="white" transform="translate(1.6665 1.6665)"/>
</clipPath>
</defs>
</svg>
