<svg width="13" height="12" viewBox="0 0 13 12" fill="none" xmlns="http://www.w3.org/2000/svg">
<path d="M2.98876 6.96702C1.92118 5.89943 1.86379 5.13684 2.27496 4.72567L2.88627 4.08946C3.04593 3.92332 3.0433 3.65996 2.88036 3.49702L1.52841 2.14507C1.36316 1.97982 1.0952 1.9798 0.929932 2.14507L0.588541 2.48646C0.402795 2.67221 0.216297 2.96607 0.109212 3.20594C-0.190932 3.8782 0.210811 5.19404 0.657513 6.00893C1.15165 6.91035 1.94511 7.78935 2.1994 8.04364C2.45369 8.29793 3.2075 8.9632 4.23414 9.58555C5.04903 10.0323 6.36486 10.434 7.03713 10.1339C7.277 10.0268 7.57086 9.84027 7.75661 9.65453L8.098 9.31314C8.26327 9.14787 8.26325 8.87991 8.098 8.71466L6.74605 7.36271C6.5831 7.19977 6.31975 7.19714 6.15361 7.35679L5.5174 7.96811C5.10623 8.37927 4.34363 8.32189 3.27605 7.2543L2.98876 6.96702Z" fill="#32CB08"/>
<path d="M6.9231 3.80765C6.73192 3.80765 6.57694 3.96263 6.57694 4.15381C6.57694 4.34498 6.73192 4.49996 6.9231 4.49996V3.80765ZM12.014 4.39858C12.1492 4.26339 12.1492 4.04422 12.014 3.90904L9.81111 1.70613C9.67593 1.57095 9.45675 1.57095 9.32157 1.70613C9.18639 1.84131 9.18639 2.06049 9.32157 2.19567L11.2797 4.15381L9.32157 6.11195C9.18639 6.24713 9.18639 6.4663 9.32157 6.60149C9.45675 6.73667 9.67593 6.73667 9.81111 6.60149L12.014 4.39858ZM6.9231 4.49996H11.7692V3.80765H6.9231V4.49996Z" fill="#32CB08"/>
</svg>
