<svg viewBox="0 0 12 12" fill="none" xmlns="http://www.w3.org/2000/svg">
<path d="M6.00002 3.75002C5.55501 3.75002 5.12 3.88198 4.74999 4.12922C4.37998 4.37645 4.09159 4.72785 3.92129 5.13898C3.751 5.55012 3.70644 6.00252 3.79325 6.43897C3.88007 6.87543 4.09436 7.27634 4.40903 7.59101C4.7237 7.90568 5.12461 8.11997 5.56107 8.20679C5.99753 8.29361 6.44993 8.24905 6.86106 8.07875C7.27219 7.90845 7.6236 7.62007 7.87083 7.25006C8.11806 6.88004 8.25002 6.44503 8.25002 6.00002C8.2494 5.40348 8.01215 4.83154 7.59033 4.40972C7.1685 3.98789 6.59657 3.75064 6.00002 3.75002ZM6.00002 7.50002C5.70335 7.50002 5.41334 7.41205 5.16667 7.24723C4.91999 7.0824 4.72773 6.84814 4.6142 6.57405C4.50067 6.29996 4.47097 5.99836 4.52884 5.70739C4.58672 5.41641 4.72958 5.14914 4.93936 4.93936C5.14914 4.72958 5.41641 4.58672 5.70739 4.52884C5.99836 4.47097 6.29996 4.50067 6.57405 4.6142C6.84814 4.72773 7.0824 4.91999 7.24723 5.16667C7.41205 5.41334 7.50002 5.70335 7.50002 6.00002C7.50002 6.39785 7.34199 6.77938 7.06068 7.06068C6.77938 7.34199 6.39785 7.50002 6.00002 7.50002ZM10.125 6.10127C10.1269 6.03377 10.1269 5.96627 10.125 5.89877L10.8244 5.02502C10.8611 4.97915 10.8865 4.9253 10.8985 4.86782C10.9106 4.81033 10.9089 4.75083 10.8938 4.69408C10.7791 4.26312 10.6076 3.84933 10.3838 3.46362C10.3545 3.41314 10.3138 3.3702 10.2649 3.33822C10.2161 3.30624 10.1605 3.2861 10.1025 3.2794L8.99065 3.15565C8.9444 3.1069 8.89752 3.06002 8.85002 3.01502L8.71877 1.90033C8.71202 1.84231 8.69181 1.78666 8.65974 1.73783C8.62768 1.689 8.58465 1.64834 8.53408 1.61908C8.14823 1.39565 7.73447 1.22432 7.30362 1.10955C7.24684 1.09446 7.18731 1.09291 7.12983 1.10505C7.07234 1.11718 7.01851 1.14265 6.97268 1.1794L6.10127 1.87502C6.03377 1.87502 5.96627 1.87502 5.89877 1.87502L5.02502 1.17705C4.97915 1.14038 4.9253 1.115 4.86782 1.10295C4.81033 1.0909 4.75083 1.09252 4.69408 1.10768C4.26319 1.22253 3.84942 1.39403 3.46362 1.61768C3.41314 1.64699 3.3702 1.68767 3.33822 1.7365C3.30624 1.78533 3.2861 1.84095 3.2794 1.89893L3.15565 3.01268C3.1069 3.05924 3.06002 3.10612 3.01502 3.1533L1.90033 3.28127C1.84231 3.28802 1.78666 3.30824 1.73783 3.3403C1.689 3.37237 1.64834 3.4154 1.61908 3.46596C1.39565 3.85182 1.22432 4.26557 1.10955 4.69643C1.09446 4.75321 1.09291 4.81273 1.10505 4.87022C1.11718 4.9277 1.14265 4.98153 1.1794 5.02737L1.87502 5.89877C1.87502 5.96627 1.87502 6.03377 1.87502 6.10127L1.17705 6.97502C1.14038 7.0209 1.115 7.07475 1.10295 7.13223C1.0909 7.18971 1.09252 7.24922 1.10768 7.30596C1.22233 7.73693 1.39384 8.15072 1.61768 8.53643C1.64699 8.5869 1.68767 8.62984 1.7365 8.66182C1.78533 8.6938 1.84095 8.71395 1.89893 8.72065L3.0108 8.8444C3.05737 8.89315 3.10424 8.94002 3.15143 8.98502L3.28127 10.0997C3.28802 10.1577 3.30824 10.2134 3.3403 10.2622C3.37237 10.311 3.4154 10.3517 3.46596 10.381C3.85182 10.6044 4.26557 10.7757 4.69643 10.8905C4.75321 10.9056 4.81273 10.9071 4.87022 10.895C4.9277 10.8829 4.98153 10.8574 5.02737 10.8206L5.89877 10.125C5.96627 10.1269 6.03377 10.1269 6.10127 10.125L6.97502 10.8244C7.0209 10.8611 7.07475 10.8865 7.13223 10.8985C7.18971 10.9106 7.24922 10.9089 7.30596 10.8938C7.73693 10.7791 8.15072 10.6076 8.53643 10.3838C8.5869 10.3545 8.62984 10.3138 8.66182 10.2649C8.6938 10.2161 8.71395 10.1605 8.72065 10.1025L8.8444 8.99065C8.89315 8.9444 8.94002 8.89752 8.98502 8.85002L10.0997 8.71877C10.1577 8.71202 10.2134 8.69181 10.2622 8.65974C10.311 8.62768 10.3517 8.58465 10.381 8.53408C10.6044 8.14823 10.7757 7.73447 10.8905 7.30362C10.9056 7.24684 10.9071 7.18731 10.895 7.12983C10.8829 7.07234 10.8574 7.01851 10.8206 6.97268L10.125 6.10127ZM9.37033 5.79658C9.3783 5.93209 9.3783 6.06795 9.37033 6.20346C9.36475 6.29623 9.39382 6.38778 9.4519 6.46033L10.1171 7.29143C10.0407 7.53399 9.943 7.76929 9.82502 7.99455L8.76565 8.11455C8.67339 8.12479 8.58821 8.16889 8.52658 8.2383C8.43635 8.33978 8.34025 8.43589 8.23877 8.52612C8.16936 8.58774 8.12526 8.67292 8.11502 8.76518L7.99737 9.82362C7.77213 9.94165 7.53682 10.0394 7.29424 10.1156L6.46268 9.45049C6.39614 9.39732 6.31348 9.36839 6.2283 9.36846H6.2058C6.0703 9.37643 5.93444 9.37643 5.79893 9.36846C5.70615 9.36287 5.61461 9.39194 5.54205 9.45002L4.70862 10.1156C4.46605 10.0393 4.23075 9.9416 4.00549 9.82362L3.88549 8.76565C3.87525 8.67339 3.83116 8.58821 3.76174 8.52658C3.66026 8.43635 3.56416 8.34025 3.47393 8.23877C3.4123 8.16936 3.32712 8.12526 3.23487 8.11502L2.17643 7.9969C2.05839 7.77166 1.96066 7.53636 1.8844 7.29377L2.54955 6.46221C2.60763 6.38965 2.6367 6.29811 2.63112 6.20533C2.62315 6.06983 2.62315 5.93397 2.63112 5.79846C2.6367 5.70569 2.60763 5.61414 2.54955 5.54158L1.8844 4.70862C1.96072 4.46605 2.05845 4.23075 2.17643 4.00549L3.2344 3.88549C3.32665 3.87525 3.41183 3.83116 3.47346 3.76174C3.56369 3.66026 3.65979 3.56416 3.76127 3.47393C3.83096 3.41226 3.87524 3.32689 3.88549 3.2344L4.00315 2.17643C4.22838 2.05839 4.46369 1.96066 4.70627 1.8844L5.53783 2.54955C5.61039 2.60763 5.70194 2.6367 5.79471 2.63112C5.93022 2.62315 6.06608 2.62315 6.20158 2.63112C6.29436 2.6367 6.3859 2.60763 6.45846 2.54955L7.29143 1.8844C7.53399 1.96072 7.76929 2.05845 7.99455 2.17643L8.11455 3.2344C8.12479 3.32665 8.16889 3.41183 8.2383 3.47346C8.33978 3.56369 8.43589 3.65979 8.52612 3.76127C8.58774 3.83069 8.67292 3.87478 8.76518 3.88502L9.82362 4.00268C9.94165 4.22791 10.0394 4.46322 10.1156 4.7058L9.45049 5.53737C9.39185 5.61054 9.36275 5.70302 9.36893 5.79658H9.37033Z" fill="#32CB08"/>
</svg>
