<svg viewBox="0 0 16 16" fill="none" xmlns="http://www.w3.org/2000/svg">
  <g clip-path="url(#clip0_2869_8535)">
    <path
      d="M15.5372 11.119C15.821 11.4028 15.821 11.8628 15.5372 12.1466L13.1153 14.5679C12.6609 15.0223 11.875 14.7039 11.875 14.0542V12.8437H10.0954C10.0456 12.8437 9.99628 12.8335 9.95059 12.8136C9.9049 12.7938 9.86378 12.7648 9.82979 12.7283L7.69381 10.4398L9.30839 8.70988L10.9062 10.4219H11.875V9.21151C11.875 8.56251 12.6604 8.24282 13.1153 8.69774L15.5372 11.119ZM0.613281 5.57812H3.15625L4.75411 7.29012L6.36869 5.5602L4.23271 3.27165C4.19872 3.23523 4.1576 3.20619 4.11192 3.18634C4.06623 3.16649 4.01694 3.15624 3.96712 3.15625H0.613281C0.412659 3.15625 0.25 3.31891 0.25 3.51953V5.21484C0.25 5.41546 0.412659 5.57812 0.613281 5.57812ZM11.875 5.57812V6.78858C11.875 7.43824 12.6609 7.75672 13.1153 7.30235L15.5372 4.88096C15.821 4.5972 15.821 4.13717 15.5372 3.85345L13.1153 1.43215C12.6604 0.977197 11.875 1.29691 11.875 1.94589V3.15625H10.0954C10.0456 3.15625 9.99628 3.1665 9.95059 3.18635C9.9049 3.20621 9.86378 3.23524 9.82979 3.27165L3.15625 10.4219H0.613281C0.412659 10.4219 0.25 10.5845 0.25 10.7852V12.4805C0.25 12.6811 0.412659 12.8437 0.613281 12.8437H3.96712C4.06781 12.8437 4.16399 12.8019 4.23271 12.7283L10.9062 5.57812H11.875Z"
      fill="#EED70B" />
  </g>
  <defs>
    <clipPath id="clip0_2869_8535">
      <rect width="15.5" height="15.5" fill="white" transform="translate(0.25 0.25)" />
    </clipPath>
  </defs>
</svg>