<svg viewBox="0 0 16 16" fill="none" xmlns="http://www.w3.org/2000/svg">
  <path
    d="M8.00059 3.00001C8.00056 2.8829 7.96627 2.76836 7.90193 2.67051C7.83759 2.57266 7.74603 2.49578 7.63852 2.44934C7.53101 2.4029 7.41227 2.38894 7.29692 2.40917C7.18157 2.4294 7.07467 2.48295 6.98939 2.56321L3.76299 5.60001H2.53419C2.41298 5.59996 2.29461 5.63663 2.19464 5.70517C2.09468 5.77372 2.01782 5.87093 1.97419 5.98401C1.72638 6.62722 1.59972 7.31072 1.60059 8.00001C1.60059 8.70961 1.73259 9.38961 1.97499 10.016C2.06379 10.248 2.28699 10.4 2.53499 10.4H3.76299L6.98939 13.4368C7.07467 13.5171 7.18157 13.5706 7.29692 13.5908C7.41227 13.6111 7.53101 13.5971 7.63852 13.5507C7.74603 13.5042 7.83759 13.4274 7.90193 13.3295C7.96627 13.2317 8.00056 13.1171 8.00059 13V3.00001ZM12.7606 4.04001C12.6474 3.93077 12.4958 3.87036 12.3385 3.8718C12.1812 3.87324 12.0307 3.93641 11.9195 4.04771C11.8083 4.15901 11.7453 4.30953 11.744 4.46685C11.7427 4.62417 11.8032 4.7757 11.9126 4.88881C12.7377 5.71396 13.2013 6.83309 13.2013 8.00001C13.2013 9.16693 12.7377 10.2861 11.9126 11.1112C11.8066 11.2249 11.7489 11.3754 11.7517 11.5308C11.7544 11.6863 11.8174 11.8346 11.9273 11.9445C12.0372 12.0544 12.1855 12.1174 12.341 12.1202C12.4964 12.1229 12.6469 12.0652 12.7606 11.9592C13.8107 10.909 14.4006 9.48473 14.4006 7.99961C14.4006 6.51449 13.8107 5.0902 12.7606 4.04001Z"
    fill="#C7C7C7" />
  <path
    d="M11.0629 5.73772C10.9498 5.62837 10.7983 5.56782 10.641 5.56911C10.4836 5.5704 10.3331 5.63343 10.2218 5.74463C10.1105 5.85582 10.0474 6.00628 10.0459 6.1636C10.0445 6.32092 10.1049 6.47251 10.2141 6.58572C10.3999 6.77144 10.5473 6.99194 10.6478 7.23463C10.7484 7.47732 10.8001 7.73743 10.8001 8.00012C10.8001 8.26281 10.7484 8.52292 10.6478 8.76561C10.5473 9.00829 10.3999 9.22879 10.2141 9.41452C10.1081 9.52826 10.0504 9.6787 10.0532 9.83414C10.0559 9.98958 10.1189 10.1379 10.2288 10.2478C10.3388 10.3577 10.4871 10.4207 10.6425 10.4235C10.798 10.4262 10.9484 10.3685 11.0621 10.2625C11.662 9.66243 11.999 8.84864 11.999 8.00012C11.999 7.15159 11.662 6.33781 11.0621 5.73772H11.0629Z"
    fill="#C7C7C7" />
</svg>