<svg width="20" height="20" viewBox="0 0 20 20" fill="none" xmlns="http://www.w3.org/2000/svg">
<path d="M2.29199 7.68267C2.29199 5.13102 4.35516 3.0625 6.9175 3.0625H13.0831C15.6377 3.0625 17.7087 5.13973 17.7087 7.68267V16.9375H6.9175C4.36291 16.9375 2.29199 14.8603 2.29199 12.3174V7.68267ZM16.167 15.3958V7.68267C16.167 5.98811 14.7833 4.60417 13.0831 4.60417H6.9175C5.20927 4.60417 3.83366 5.97978 3.83366 7.68267V12.3174C3.83366 14.0119 5.2174 15.3958 6.9175 15.3958H16.167ZM11.542 9.22917H13.0837V10.7708H11.542V9.22917ZM6.91699 9.22917H8.45866V10.7708H6.91699V9.22917Z" fill="#0085E5"/>
</svg>
