<svg viewBox="0 0 12 12" fill="none" xmlns="http://www.w3.org/2000/svg">
  <path
    d="M2.15375 2.54335C2.15375 2.36668 2.27875 2.23068 2.44719 2.23068H4.07687V1.00002H2.47125C1.66563 1.00002 1 1.68468 1 2.54335V4.28202H2.15375V2.54335ZM9.54813 1.00002H7.92312V2.23068H9.53875C9.70438 2.23068 9.84625 2.36402 9.84625 2.54368V4.28202H11V2.54368C11.0003 2.34046 10.9629 2.13918 10.89 1.95143C10.8171 1.76367 10.7101 1.59316 10.5751 1.44969C10.4402 1.30622 10.28 1.19263 10.1037 1.11545C9.92747 1.03828 9.73865 0.99905 9.54813 1.00002ZM9.84625 9.27668C9.84625 9.45402 9.72125 9.59002 9.55281 9.59002H7.92312V10.846H9.55281C10.3581 10.846 11 10.136 11 9.27702V7.56402H9.84625V9.27668ZM2.44719 9.59002C2.28125 9.59002 2.15375 9.45668 2.15375 9.27668V7.56402H1V9.27702C1 10.136 1.66563 10.846 2.47125 10.846H4.07687V9.59002H2.44719Z"
    fill="#32CB08" />
</svg>