<svg viewBox="0 0 12 12" fill="none" xmlns="http://www.w3.org/2000/svg">
  <g clip-path="url(#clip0_8_843)">
    <path
      d="M9.15625 2.5625H7.04688L6.88164 2.23379C6.84664 2.16352 6.79272 2.1044 6.72595 2.0631C6.65919 2.0218 6.58222 1.99995 6.50371 2H4.49453C4.4162 1.9997 4.33937 2.02147 4.27284 2.06282C4.20631 2.10417 4.15277 2.16342 4.11836 2.23379L3.95312 2.5625H1.84375C1.76916 2.5625 1.69762 2.59213 1.64488 2.64488C1.59213 2.69762 1.5625 2.76916 1.5625 2.84375V3.40625C1.5625 3.48085 1.59213 3.55238 1.64488 3.60513C1.69762 3.65787 1.76916 3.6875 1.84375 3.6875H9.15625C9.23084 3.6875 9.30238 3.65787 9.35512 3.60513C9.40787 3.55238 9.4375 3.48085 9.4375 3.40625V2.84375C9.4375 2.76916 9.40787 2.69762 9.35512 2.64488C9.30238 2.59213 9.23084 2.5625 9.15625 2.5625ZM2.49766 10.209C2.51107 10.4232 2.60561 10.6242 2.76204 10.7712C2.91847 10.9182 3.12502 11 3.33965 11H7.66035C7.87498 11 8.08153 10.9182 8.23796 10.7712C8.39439 10.6242 8.48893 10.4232 8.50234 10.209L8.875 4.25H2.125L2.49766 10.209Z"
      fill="#32CB08" />
  </g>
  <defs>
    <clipPath id="clip0_8_843">
      <rect width="9" height="9" fill="white" transform="translate(1 2)" />
    </clipPath>
  </defs>
</svg>