<svg width="12" height="12" viewBox="0 0 12 12" fill="none" xmlns="http://www.w3.org/2000/svg">
<circle cx="3.53423" cy="2.937" r="2.16552" fill="#32CB08"/>
<path fill-rule="evenodd" clip-rule="evenodd" d="M6.31847 9.71798C5.46004 9.06494 4.90587 8.03255 4.90587 6.87073C4.90587 6.59661 4.93672 6.3297 4.99513 6.07327C4.57046 5.81101 4.07002 5.65967 3.53424 5.65967C1.99655 5.65967 0.75 6.90621 0.75 8.4439V10.3083C0.75 10.6162 0.999554 10.8657 1.30739 10.8657H5.76108C6.06892 10.8657 6.31847 10.6162 6.31847 10.3083V9.71798Z" fill="#32CB08"/>
<path fill-rule="evenodd" clip-rule="evenodd" d="M8.48115 9.63955C10.0104 9.63955 11.25 8.39988 11.25 6.87068C11.25 5.34147 10.0104 4.10181 8.48115 4.10181C6.95195 4.10181 5.71228 5.34147 5.71228 6.87068C5.71228 8.39988 6.95195 9.63955 8.48115 9.63955ZM7.77509 8.27838L10.3439 5.8701L9.96272 5.46346L7.77509 7.51434L6.99959 6.78727L6.61835 7.19391L7.77509 8.27838Z" fill="#32CB08"/>
</svg>
