<svg viewBox="0 0 12 12" fill="none" xmlns="http://www.w3.org/2000/svg">
<path d="M3.25585 1.68628C1.96579 1.68628 0.919987 2.73208 0.919987 4.02214C0.919987 5.3122 1.96579 6.358 3.25585 6.358C4.5459 6.358 5.5917 5.3122 5.5917 4.02214C5.5917 2.73208 4.5459 1.68628 3.25585 1.68628Z" fill="#32CB08"/>
<path d="M2.33586 7.2075C1.71635 7.2075 1.12222 7.4536 0.684157 7.89166C0.246099 8.32972 0 8.92385 0 9.54336V10.4636C0 10.7372 0.221814 10.959 0.495435 10.959H6.01671C6.29033 10.959 6.51214 10.7372 6.51214 10.4636V9.54336C6.51214 8.92385 6.26604 8.32972 5.82798 7.89166C5.38993 7.4536 4.79579 7.2075 4.17628 7.2075H2.33586Z" fill="#32CB08"/>
<path fill-rule="evenodd" clip-rule="evenodd" d="M6.75 1.25C6.75 0.559644 7.30964 0 8 0H10.5C11.1904 0 11.75 0.559644 11.75 1.25V2.5C11.75 3.19036 11.1904 3.75 10.5 3.75H9.24992L7.99999 4.99992V3.75C7.30964 3.75 6.75 3.19035 6.75 2.5V1.25ZM8.12496 2.16606C8.29755 2.16606 8.43746 2.02615 8.43746 1.85356C8.43746 1.68097 8.29755 1.54106 8.12496 1.54106C7.95237 1.54106 7.81246 1.68097 7.81246 1.85356C7.81246 2.02615 7.95237 2.16606 8.12496 2.16606ZM9.24999 2.16606C9.42258 2.16606 9.56249 2.02615 9.56249 1.85356C9.56249 1.68097 9.42258 1.54106 9.24999 1.54106C9.0774 1.54106 8.93749 1.68097 8.93749 1.85356C8.93749 2.02615 9.0774 2.16606 9.24999 2.16606ZM10.6874 1.85356C10.6874 2.02615 10.5475 2.16606 10.3749 2.16606C10.2024 2.16606 10.0624 2.02615 10.0624 1.85356C10.0624 1.68097 10.2024 1.54106 10.3749 1.54106C10.5475 1.54106 10.6874 1.68097 10.6874 1.85356Z" fill="#32CB08"/>
</svg>
