<svg viewBox="0 0 12 12" fill="none" xmlns="http://www.w3.org/2000/svg">
<path fill-rule="evenodd" clip-rule="evenodd" d="M5.23385 4.5869C5.50149 4.80572 5.8945 4.76629 6.11332 4.49865L7.43595 3.12279C7.47948 3.07751 7.50124 3.05487 7.52689 3.03866C7.54963 3.0243 7.57453 3.01369 7.60065 3.00726C7.63011 3 7.66151 3 7.72432 3H10.6C10.74 3 10.81 3 10.8635 3.02725C10.9105 3.05122 10.9488 3.08946 10.9728 3.1365C11 3.18998 11 3.25999 11 3.4V4.225C11 4.36403 11 4.43354 10.9789 4.4816C10.9577 4.52993 10.9356 4.55664 10.8922 4.58667C10.849 4.61653 10.7669 4.63243 10.6025 4.66423C9.27589 4.92093 8.05647 6.37031 7.96313 7.00988C7.71628 8.70121 6.25981 10 4.5 10C2.567 10 1 8.433 1 6.5C1 4.567 2.567 3 4.5 3C4.52937 3 4.55866 3.00036 4.58785 3.00108C4.60014 3.00036 4.61253 3 4.62501 3H5.26204C5.43951 3 5.52824 3 5.57014 3.03536C5.60652 3.06606 5.62617 3.1122 5.62309 3.1597C5.61954 3.21442 5.55805 3.27839 5.43506 3.40633L5.1456 3.70744C4.92678 3.97507 4.96622 4.36808 5.23385 4.5869Z" fill="#32CB08"/>
</svg>
