<svg width="140" height="48" viewBox="0 0 140 48" fill="none" xmlns="http://www.w3.org/2000/svg">
<path fill-rule="evenodd" clip-rule="evenodd" d="M32.8333 36.8334C39.921 36.8334 45.6667 31.0877 45.6667 24.0001C45.6667 16.9124 39.921 11.1667 32.8333 11.1667C25.7457 11.1667 20 16.9124 20 24.0001C20 31.0877 25.7457 36.8334 32.8333 36.8334ZM36.8369 17.1451C37.0318 16.4528 36.36 16.0435 35.7465 16.4806L27.1822 22.5817C26.5169 23.0557 26.6216 24.0001 27.3395 24.0001H29.5947V23.9826H33.9899L30.4086 25.2463L28.8298 30.8551C28.6349 31.5474 29.3066 31.9567 29.9202 31.5196L38.4844 25.4185C39.1498 24.9445 39.0451 24.0001 38.3272 24.0001H34.9073L36.8369 17.1451Z" fill="#C7C7C7"/>
<path d="M52.3052 29.7804V27.7504H53.9152V19.5604H52.3052V17.5304H58.6052C59.3518 17.5304 59.9993 17.6587 60.5477 17.9154C61.1077 18.1604 61.5393 18.5162 61.8427 18.9829C62.1577 19.4379 62.3152 19.9862 62.3152 20.6279V20.8029C62.3152 21.3629 62.2102 21.8237 62.0002 22.1854C61.7902 22.5354 61.5393 22.8096 61.2477 23.0079C60.9677 23.1946 60.6993 23.3287 60.4427 23.4104V23.7254C60.6993 23.7954 60.9793 23.9296 61.2827 24.1279C61.586 24.3146 61.8427 24.5887 62.0527 24.9504C62.2743 25.3121 62.3852 25.7846 62.3852 26.3679V26.5429C62.3852 27.2196 62.2277 27.8029 61.9127 28.2929C61.5977 28.7712 61.1602 29.1387 60.6002 29.3954C60.0518 29.6521 59.4102 29.7804 58.6752 29.7804H52.3052ZM56.2252 27.6804H58.3952C58.8968 27.6804 59.2993 27.5579 59.6027 27.3129C59.9177 27.0679 60.0752 26.7179 60.0752 26.2629V26.0879C60.0752 25.6329 59.9235 25.2829 59.6202 25.0379C59.3168 24.7929 58.9085 24.6704 58.3952 24.6704H56.2252V27.6804ZM56.2252 22.5704H58.3602C58.8385 22.5704 59.2293 22.4479 59.5327 22.2029C59.8477 21.9579 60.0052 21.6196 60.0052 21.1879V21.0129C60.0052 20.5696 59.8535 20.2312 59.5502 19.9979C59.2468 19.7529 58.8502 19.6304 58.3602 19.6304H56.2252V22.5704Z" fill="#C7C7C7"/>
<path d="M67.6013 30.0254C66.7379 30.0254 65.9621 29.8504 65.2738 29.5004C64.5854 29.1504 64.0429 28.6429 63.6463 27.9779C63.2496 27.3129 63.0513 26.5137 63.0513 25.5804V25.3004C63.0513 24.3671 63.2496 23.5679 63.6463 22.9029C64.0429 22.2379 64.5854 21.7304 65.2738 21.3804C65.9621 21.0304 66.7379 20.8554 67.6013 20.8554C68.4646 20.8554 69.2404 21.0304 69.9288 21.3804C70.6171 21.7304 71.1596 22.2379 71.5563 22.9029C71.9529 23.5679 72.1513 24.3671 72.1513 25.3004V25.5804C72.1513 26.5137 71.9529 27.3129 71.5563 27.9779C71.1596 28.6429 70.6171 29.1504 69.9288 29.5004C69.2404 29.8504 68.4646 30.0254 67.6013 30.0254ZM67.6013 28.0654C68.2779 28.0654 68.8379 27.8496 69.2813 27.4179C69.7246 26.9746 69.9463 26.3446 69.9463 25.5279V25.3529C69.9463 24.5362 69.7246 23.9121 69.2813 23.4804C68.8496 23.0371 68.2896 22.8154 67.6013 22.8154C66.9246 22.8154 66.3646 23.0371 65.9213 23.4804C65.4779 23.9121 65.2563 24.5362 65.2563 25.3529V25.5279C65.2563 26.3446 65.4779 26.9746 65.9213 27.4179C66.3646 27.8496 66.9246 28.0654 67.6013 28.0654Z" fill="#C7C7C7"/>
<path d="M73.3116 29.7804V17.5304H75.5166V29.7804H73.3116Z" fill="#C7C7C7"/>
<path d="M80.41 29.7804C79.8384 29.7804 79.3717 29.6054 79.01 29.2554C78.66 28.8937 78.485 28.4154 78.485 27.8204V22.9204H76.315V21.1004H78.485V18.4054H80.69V21.1004H83.07V22.9204H80.69V27.4354C80.69 27.7854 80.8534 27.9604 81.18 27.9604H82.86V29.7804H80.41Z" fill="#C7C7C7"/>
<path d="M87.796 30.0254C86.6643 30.0254 85.7368 29.7804 85.0135 29.2904C84.2902 28.8004 83.8527 28.1004 83.701 27.1904L85.731 26.6654C85.8127 27.0737 85.9468 27.3946 86.1335 27.6279C86.3318 27.8612 86.571 28.0304 86.851 28.1354C87.1427 28.2287 87.4577 28.2754 87.796 28.2754C88.3093 28.2754 88.6885 28.1879 88.9335 28.0129C89.1785 27.8262 89.301 27.5987 89.301 27.3304C89.301 27.0621 89.1843 26.8579 88.951 26.7179C88.7177 26.5662 88.3443 26.4437 87.831 26.3504L87.341 26.2629C86.7343 26.1462 86.1802 25.9887 85.6785 25.7904C85.1768 25.5804 84.7743 25.2946 84.471 24.9329C84.1677 24.5712 84.016 24.1046 84.016 23.5329C84.016 22.6696 84.331 22.0104 84.961 21.5554C85.591 21.0887 86.4193 20.8554 87.446 20.8554C88.4143 20.8554 89.2193 21.0712 89.861 21.5029C90.5027 21.9346 90.9227 22.5004 91.121 23.2004L89.0735 23.8304C88.9802 23.3871 88.7877 23.0721 88.496 22.8854C88.216 22.6987 87.866 22.6054 87.446 22.6054C87.026 22.6054 86.7052 22.6812 86.4835 22.8329C86.2618 22.9729 86.151 23.1712 86.151 23.4279C86.151 23.7079 86.2677 23.9179 86.501 24.0579C86.7343 24.1862 87.0493 24.2854 87.446 24.3554L87.936 24.4429C88.5893 24.5596 89.1785 24.7171 89.7035 24.9154C90.2402 25.1021 90.6602 25.3762 90.9635 25.7379C91.2785 26.0879 91.436 26.5662 91.436 27.1729C91.436 28.0829 91.1035 28.7887 90.4385 29.2904C89.7852 29.7804 88.9043 30.0254 87.796 30.0254Z" fill="#C7C7C7"/>
<path d="M92.4932 29.7804V17.5304H94.6982V22.1679H95.0132C95.1066 21.9812 95.2524 21.7946 95.4507 21.6079C95.6491 21.4212 95.9116 21.2696 96.2382 21.1529C96.5766 21.0246 97.0024 20.9604 97.5157 20.9604C98.1924 20.9604 98.7816 21.1179 99.2832 21.4329C99.7966 21.7362 100.193 22.1621 100.473 22.7104C100.753 23.2471 100.893 23.8771 100.893 24.6004V29.7804H98.6882V24.7754C98.6882 24.1221 98.5249 23.6321 98.1982 23.3054C97.8832 22.9787 97.4282 22.8154 96.8332 22.8154C96.1566 22.8154 95.6316 23.0429 95.2582 23.4979C94.8849 23.9412 94.6982 24.5654 94.6982 25.3704V29.7804H92.4932Z" fill="#C7C7C7"/>
<path d="M102.402 29.7804V21.1004H104.607V29.7804H102.402ZM103.504 20.0854C103.108 20.0854 102.769 19.9571 102.489 19.7004C102.221 19.4437 102.087 19.1054 102.087 18.6854C102.087 18.2654 102.221 17.9271 102.489 17.6704C102.769 17.4137 103.108 17.2854 103.504 17.2854C103.913 17.2854 104.251 17.4137 104.519 17.6704C104.788 17.9271 104.922 18.2654 104.922 18.6854C104.922 19.1054 104.788 19.4437 104.519 19.7004C104.251 19.9571 103.913 20.0854 103.504 20.0854Z" fill="#C7C7C7"/>
<path d="M107.61 29.7804V22.9204H105.405V21.1004H107.61V19.4904C107.61 18.8954 107.785 18.4229 108.135 18.0729C108.497 17.7112 108.964 17.5304 109.535 17.5304H111.81V19.3504H110.305C109.979 19.3504 109.815 19.5254 109.815 19.8754V21.1004H112.09V22.9204H109.815V29.7804H107.61Z" fill="#C7C7C7"/>
<path d="M116.077 29.7804C115.505 29.7804 115.038 29.6054 114.677 29.2554C114.327 28.8937 114.152 28.4154 114.152 27.8204V22.9204H111.982V21.1004H114.152V18.4054H116.357V21.1004H118.737V22.9204H116.357V27.4354C116.357 27.7854 116.52 27.9604 116.847 27.9604H118.527V29.7804H116.077Z" fill="#C7C7C7"/>
</svg>
