<svg width="140" height="48" viewBox="0 0 140 48" fill="none" xmlns="http://www.w3.org/2000/svg">
<path opacity="0.8" d="M33.1788 16.5119C32.9267 16.2598 32.6745 16.0076 32.4224 15.7555C31.666 14.9487 30.8592 14.1419 29.8507 13.6376C28.6909 13.0325 27.4303 13.1838 26.1696 13.1838C24.2534 13.1838 19.463 13.1838 16.6392 13.1838L18.5553 15.7555C22.0347 15.7555 27.4807 15.7555 30.002 15.7555C31.0609 15.7555 31.9686 15.9572 32.8258 16.5119C32.9771 16.5623 33.1284 16.5623 33.1788 16.5119Z" fill="#C7C7C7"/>
<path opacity="0.9" d="M35.2966 20.6469C35.0445 20.3948 34.7923 20.1426 34.5402 19.8905C33.7838 19.0837 32.977 18.2769 31.9685 17.7726C30.8087 17.1675 29.5481 17.3188 28.2874 17.3188C26.6234 17.3188 22.6398 17.3188 19.8159 17.3188L21.7321 19.8905C25.161 19.8905 29.8506 19.8905 32.1702 19.8905C33.2291 19.8905 34.1368 20.0922 34.9941 20.6469C35.0949 20.6973 35.1957 20.6973 35.2966 20.6469Z" fill="#C7C7C7"/>
<path d="M37.6668 24.6808C37.4147 24.4287 37.1626 24.1766 36.9104 23.9245C36.154 23.1176 35.3472 22.3108 34.3387 21.8066C33.1789 21.2015 31.9183 21.3527 30.6576 21.3527C29.0944 21.3527 25.6655 21.3527 22.8921 21.3527L24.8083 23.9245C28.1364 23.9245 32.3721 23.9245 34.49 23.9245C35.5489 23.9245 36.4566 24.1262 37.3138 24.6808C37.4651 24.7313 37.566 24.7817 37.6668 24.6808Z" fill="#C7C7C7"/>
<path opacity="0.8" d="M16.4375 31.4883C16.6896 31.7404 16.9418 31.9925 17.1939 32.2446C17.9503 33.0515 18.7571 33.8583 19.7656 34.3625C20.9254 34.9676 22.186 34.8163 23.4467 34.8163H32.9771L31.0609 32.2446C27.5816 32.2446 22.1356 32.2446 19.6143 32.2446C18.5554 32.2446 17.6477 32.0429 16.7905 31.4883C16.6392 31.4378 16.5384 31.4378 16.4375 31.4883Z" fill="#C7C7C7"/>
<path opacity="0.9" d="M14.3198 27.3535C14.572 27.6056 14.8241 27.8577 15.0762 28.1099C15.8326 28.9167 16.6394 29.7235 17.6479 30.2278C18.8077 30.8329 20.0683 30.6816 21.329 30.6816H29.8005L27.8843 28.1099C24.4554 28.1099 19.7658 28.1099 17.4462 28.1099C16.3873 28.1099 15.4796 27.9082 14.6224 27.3535C14.5215 27.3031 14.4207 27.3031 14.3198 27.3535Z" fill="#C7C7C7"/>
<path d="M12 23.2688C12.2521 23.5209 12.5043 23.773 12.7564 24.0252C13.5128 24.832 14.3196 25.6388 15.3281 26.143C16.4879 26.7482 17.7485 26.5969 19.0092 26.5969H26.7747L24.8585 24.0252C21.5305 24.0252 17.2947 24.0252 15.1768 24.0252C14.1179 24.0252 13.2102 23.8235 12.353 23.2688C12.2017 23.2184 12.1009 23.2184 12 23.2688Z" fill="#C7C7C7"/>
<path d="M43.46 18.1714V29.8334H46.0243V25.0151H50.908V23.0224H46.0243V20.3274H51.6593V18.1714H43.46Z" fill="#C7C7C7"/>
<path d="M58.0909 24.7047H54.3179C54.3288 24.5414 54.3615 24.3563 54.4159 24.1494C54.4813 23.9425 54.5847 23.7465 54.7263 23.5614C54.8787 23.3763 55.0747 23.2238 55.3143 23.1041C55.5647 22.9734 55.875 22.9081 56.2453 22.9081C56.8115 22.9081 57.2307 23.0605 57.5029 23.3654C57.786 23.6703 57.982 24.1167 58.0909 24.7047ZM54.3179 26.1747H60.4103C60.4538 25.5214 60.3994 24.8953 60.2469 24.2964C60.0945 23.6975 59.844 23.1639 59.4956 22.6957C59.158 22.2275 58.7225 21.8573 58.1889 21.5851C57.6554 21.3019 57.0293 21.1604 56.3106 21.1604C55.6682 21.1604 55.0802 21.2747 54.5466 21.5034C54.0239 21.7321 53.572 22.0478 53.1909 22.4507C52.8098 22.8427 52.5158 23.3109 52.3089 23.8554C52.102 24.3998 51.9986 24.9878 51.9986 25.6194C51.9986 26.2727 52.0966 26.8716 52.2926 27.4161C52.4995 27.9605 52.788 28.4287 53.1583 28.8207C53.5285 29.2127 53.9804 29.5176 54.5139 29.7354C55.0475 29.9423 55.6464 30.0457 56.3106 30.0457C57.2688 30.0457 58.0855 29.8279 58.7606 29.3924C59.4357 28.9568 59.9366 28.2327 60.2633 27.2201H58.2216C58.1454 27.4814 57.9385 27.7318 57.6009 27.9714C57.2634 28.2001 56.8605 28.3144 56.3923 28.3144C55.7389 28.3144 55.238 28.1456 54.8896 27.8081C54.5412 27.4705 54.3506 26.9261 54.3179 26.1747Z" fill="#C7C7C7"/>
<path d="M61.1978 23.9861C61.2305 23.4416 61.3666 22.9897 61.6062 22.6304C61.8457 22.2711 62.1506 21.9825 62.5208 21.7647C62.8911 21.5469 63.3048 21.3945 63.7622 21.3074C64.2304 21.2094 64.6986 21.1604 65.1668 21.1604C65.5915 21.1604 66.0216 21.1931 66.4572 21.2584C66.8927 21.3128 67.2902 21.4272 67.6495 21.6014C68.0088 21.7756 68.3028 22.0206 68.5315 22.3364C68.7602 22.6413 68.8745 23.0496 68.8745 23.5614V27.9551C68.8745 28.3362 68.8963 28.7009 68.9398 29.0494C68.9834 29.3978 69.0596 29.6592 69.1685 29.8334H66.8165C66.7729 29.7027 66.7348 29.5721 66.7022 29.4414C66.6804 29.2998 66.6641 29.1583 66.6532 29.0167C66.2829 29.3978 65.8474 29.6646 65.3465 29.8171C64.8456 29.9695 64.3338 30.0457 63.8112 30.0457C63.4083 30.0457 63.0326 29.9967 62.6842 29.8987C62.3357 29.8007 62.0308 29.6483 61.7695 29.4414C61.5082 29.2345 61.3013 28.9732 61.1488 28.6574C61.0073 28.3416 60.9365 27.9659 60.9365 27.5304C60.9365 27.0513 61.0182 26.6593 61.1815 26.3544C61.3557 26.0386 61.5735 25.7882 61.8348 25.6031C62.1071 25.4179 62.4119 25.2818 62.7495 25.1947C63.0979 25.0967 63.4464 25.0205 63.7948 24.9661C64.1433 24.9116 64.4863 24.8681 64.8238 24.8354C65.1614 24.8027 65.4608 24.7537 65.7222 24.6884C65.9835 24.6231 66.1904 24.5305 66.3428 24.4107C66.4953 24.2801 66.5661 24.0949 66.5552 23.8554C66.5552 23.6049 66.5116 23.4089 66.4245 23.2674C66.3483 23.1149 66.2394 23.0006 66.0978 22.9244C65.9672 22.8373 65.8093 22.7828 65.6242 22.7611C65.4499 22.7284 65.2594 22.7121 65.0525 22.7121C64.5952 22.7121 64.2358 22.8101 63.9745 23.0061C63.7132 23.2021 63.5607 23.5287 63.5172 23.9861H61.1978ZM66.5552 25.7011C66.4572 25.7882 66.3319 25.8589 66.1795 25.9134C66.0379 25.9569 65.8801 25.9951 65.7058 26.0277C65.5425 26.0604 65.3683 26.0876 65.1832 26.1094C64.9981 26.1312 64.8129 26.1584 64.6278 26.1911C64.4536 26.2237 64.2794 26.2673 64.1052 26.3217C63.9418 26.3762 63.7948 26.4524 63.6642 26.5504C63.5444 26.6375 63.4464 26.7518 63.3702 26.8934C63.2939 27.0349 63.2558 27.2146 63.2558 27.4324C63.2558 27.6393 63.2939 27.8135 63.3702 27.9551C63.4464 28.0966 63.5498 28.2109 63.6805 28.2981C63.8112 28.3743 63.9636 28.4287 64.1378 28.4614C64.3121 28.4941 64.4917 28.5104 64.6768 28.5104C65.1342 28.5104 65.4881 28.4342 65.7385 28.2817C65.9889 28.1293 66.1741 27.9496 66.2938 27.7427C66.4136 27.5249 66.4844 27.3072 66.5062 27.0894C66.5388 26.8716 66.5552 26.6974 66.5552 26.5667V25.7011Z" fill="#C7C7C7"/>
<path d="M73.1247 21.3891V18.8574H70.8054V21.3891H69.4007V22.9407H70.8054V27.9224C70.8054 28.3471 70.8762 28.6901 71.0177 28.9514C71.1593 29.2127 71.3499 29.4142 71.5894 29.5557C71.8399 29.6973 72.123 29.7898 72.4387 29.8334C72.7654 29.8878 73.1084 29.9151 73.4677 29.9151C73.6964 29.9151 73.9305 29.9096 74.1701 29.8987C74.4096 29.8878 74.6274 29.8661 74.8234 29.8334V28.0367C74.7145 28.0585 74.6002 28.0748 74.4804 28.0857C74.3606 28.0966 74.2354 28.1021 74.1047 28.1021C73.7127 28.1021 73.4514 28.0367 73.3207 27.9061C73.1901 27.7754 73.1247 27.5141 73.1247 27.1221V22.9407H74.8234V21.3891H73.1247Z" fill="#C7C7C7"/>
<path d="M75.4369 18.1714V29.8334H77.7563V25.4071C77.7563 24.5468 77.8978 23.9316 78.1809 23.5614C78.464 23.1803 78.9214 22.9897 79.5529 22.9897C80.1083 22.9897 80.4948 23.1639 80.7126 23.5124C80.9304 23.8499 81.0393 24.3672 81.0393 25.0641V29.8334H83.3586V24.6394C83.3586 24.1167 83.3096 23.6431 83.2116 23.2184C83.1245 22.7828 82.9666 22.4181 82.7379 22.1241C82.5093 21.8192 82.1935 21.5851 81.7906 21.4217C81.3986 21.2475 80.8923 21.1604 80.2716 21.1604C79.836 21.1604 79.3896 21.2747 78.9323 21.5034C78.4749 21.7212 78.0993 22.0751 77.8053 22.5651H77.7563V18.1714H75.4369Z" fill="#C7C7C7"/>
<path d="M90.3129 24.7047H86.5399C86.5508 24.5414 86.5835 24.3563 86.6379 24.1494C86.7032 23.9425 86.8067 23.7465 86.9482 23.5614C87.1007 23.3763 87.2967 23.2238 87.5362 23.1041C87.7867 22.9734 88.097 22.9081 88.4672 22.9081C89.0335 22.9081 89.4527 23.0605 89.7249 23.3654C90.008 23.6703 90.204 24.1167 90.3129 24.7047ZM86.5399 26.1747H92.6322C92.6758 25.5214 92.6213 24.8953 92.4689 24.2964C92.3165 23.6975 92.066 23.1639 91.7176 22.6957C91.38 22.2275 90.9445 21.8573 90.4109 21.5851C89.8773 21.3019 89.2512 21.1604 88.5326 21.1604C87.8901 21.1604 87.3021 21.2747 86.7686 21.5034C86.2459 21.7321 85.794 22.0478 85.4129 22.4507C85.0318 22.8427 84.7378 23.3109 84.5309 23.8554C84.324 24.3998 84.2206 24.9878 84.2206 25.6194C84.2206 26.2727 84.3186 26.8716 84.5146 27.4161C84.7215 27.9605 85.01 28.4287 85.3802 28.8207C85.7505 29.2127 86.2023 29.5176 86.7359 29.7354C87.2695 29.9423 87.8683 30.0457 88.5326 30.0457C89.4908 30.0457 90.3075 29.8279 90.9826 29.3924C91.6577 28.9568 92.1586 28.2327 92.4852 27.2201H90.4436C90.3674 27.4814 90.1605 27.7318 89.8229 27.9714C89.4853 28.2001 89.0825 28.3144 88.6142 28.3144C87.9609 28.3144 87.46 28.1456 87.1116 27.8081C86.7631 27.4705 86.5726 26.9261 86.5399 26.1747Z" fill="#C7C7C7"/>
<path d="M93.5178 21.3891V29.8334H95.8371V26.0277C95.8371 25.6466 95.8753 25.2927 95.9515 24.9661C96.0277 24.6394 96.1529 24.3563 96.3271 24.1167C96.5123 23.8663 96.7518 23.6703 97.0458 23.5287C97.3398 23.3872 97.6991 23.3164 98.1238 23.3164C98.2654 23.3164 98.4124 23.3273 98.5648 23.3491C98.7173 23.3599 98.8479 23.3763 98.9568 23.3981V21.2421C98.7717 21.1876 98.6029 21.1604 98.4505 21.1604C98.1565 21.1604 97.8734 21.2039 97.6011 21.2911C97.3289 21.3782 97.073 21.5034 96.8335 21.6667C96.5939 21.8192 96.3816 22.0097 96.1965 22.2384C96.0114 22.4562 95.8644 22.6957 95.7555 22.9571H95.7228V21.3891H93.5178Z" fill="#C7C7C7"/>
<path d="M102.185 27.6774V20.3274H104.015C104.646 20.3274 105.174 20.4199 105.599 20.6051C106.035 20.7793 106.383 21.0352 106.644 21.3727C106.906 21.7103 107.091 22.1186 107.2 22.5977C107.32 23.0659 107.379 23.5941 107.379 24.1821C107.379 24.8245 107.298 25.3689 107.134 25.8154C106.971 26.2618 106.753 26.6266 106.481 26.9097C106.209 27.1819 105.899 27.3779 105.55 27.4977C105.202 27.6175 104.842 27.6774 104.472 27.6774H102.185ZM99.6211 18.1714V29.8334H104.652C105.545 29.8334 106.318 29.6864 106.971 29.3924C107.635 29.0875 108.185 28.6737 108.621 28.1511C109.067 27.6284 109.399 27.0077 109.617 26.2891C109.835 25.5704 109.944 24.7864 109.944 23.9371C109.944 22.9679 109.808 22.1241 109.535 21.4054C109.274 20.6867 108.904 20.0878 108.425 19.6087C107.957 19.1296 107.396 18.7703 106.742 18.5307C106.1 18.2912 105.403 18.1714 104.652 18.1714H99.6211Z" fill="#C7C7C7"/>
<path d="M116.677 24.7047H112.904C112.914 24.5414 112.947 24.3563 113.002 24.1494C113.067 23.9425 113.17 23.7465 113.312 23.5614C113.464 23.3763 113.66 23.2238 113.9 23.1041C114.15 22.9734 114.461 22.9081 114.831 22.9081C115.397 22.9081 115.816 23.0605 116.089 23.3654C116.372 23.6703 116.568 24.1167 116.677 24.7047ZM112.904 26.1747H118.996C119.039 25.5214 118.985 24.8953 118.833 24.2964C118.68 23.6975 118.43 23.1639 118.081 22.6957C117.744 22.2275 117.308 21.8573 116.775 21.5851C116.241 21.3019 115.615 21.1604 114.896 21.1604C114.254 21.1604 113.666 21.2747 113.132 21.5034C112.61 21.7321 112.158 22.0478 111.777 22.4507C111.395 22.8427 111.101 23.3109 110.895 23.8554C110.688 24.3998 110.584 24.9878 110.584 25.6194C110.584 26.2727 110.682 26.8716 110.878 27.4161C111.085 27.9605 111.374 28.4287 111.744 28.8207C112.114 29.2127 112.566 29.5176 113.1 29.7354C113.633 29.9423 114.232 30.0457 114.896 30.0457C115.854 30.0457 116.671 29.8279 117.346 29.3924C118.021 28.9568 118.522 28.2327 118.849 27.2201H116.807C116.731 27.4814 116.524 27.7318 116.187 27.9714C115.849 28.2001 115.446 28.3144 114.978 28.3144C114.325 28.3144 113.824 28.1456 113.475 27.8081C113.127 27.4705 112.936 26.9261 112.904 26.1747Z" fill="#C7C7C7"/>
<path d="M124.553 29.8334L127.411 21.3891H125.108L123.328 27.1547H123.295L121.515 21.3891H119.081L121.972 29.8334H124.553Z" fill="#C7C7C7"/>
</svg>
