<svg width="140" height="48" viewBox="0 0 140 48" fill="none" xmlns="http://www.w3.org/2000/svg">
<path d="M30.7502 11.1667H20.9165L13 19.0832V28.9169L20.9165 36.8334H30.7502L38.6667 28.9169V19.0832L30.7502 11.1667ZM22.2771 29.0406L17.2056 23.9691L22.2771 18.8977C24.1944 16.9804 27.3486 16.9804 29.2659 18.8977L34.3374 23.9691L29.2659 29.0406C27.3486 30.9579 24.2562 30.9579 22.2771 29.0406Z" fill="#C7C7C7"/>
<path d="M49.9482 29.9734C51.5232 29.9734 52.8182 29.1684 53.2207 27.9609V29.8334H55.5482V25.1084C55.5482 24.0409 54.7082 23.1309 53.5707 23.1309H50.2457V25.1084H52.6082C52.9057 25.1084 53.0982 25.3009 53.0982 25.5984C53.0982 26.7359 51.5932 27.8384 50.0707 27.8384C48.0407 27.8384 46.4307 26.2459 46.4307 23.7084C46.4307 21.1709 48.0407 19.7009 50.1232 19.7009C51.6982 19.7009 52.7832 20.5584 52.9757 21.8709H55.5832C55.4257 19.2459 53.2207 17.4434 50.1407 17.4434C46.9032 17.4434 43.9282 19.5259 43.9282 23.7084C43.9282 27.8909 46.8157 29.9734 49.9482 29.9734Z" fill="#C7C7C7"/>
<path d="M56.5474 29.8334H58.9799V17.1809H56.5474V29.8334Z" fill="#C7C7C7"/>
<path d="M64.227 29.9734C66.9395 29.9734 68.882 28.0484 68.882 25.4234C68.882 22.7984 66.9395 20.8734 64.227 20.8734C61.5145 20.8734 59.572 22.7984 59.572 25.4234C59.572 28.0484 61.5145 29.9734 64.227 29.9734ZM64.227 27.8734C62.9145 27.8734 62.022 26.8759 62.022 25.4234C62.022 23.9534 62.9145 22.9559 64.227 22.9559C65.5395 22.9559 66.432 23.9534 66.432 25.4234C66.432 26.8759 65.5395 27.8734 64.227 27.8734Z" fill="#C7C7C7"/>
<path d="M74.325 29.9734C76.9325 29.9734 78.49 28.1709 78.49 25.4234C78.49 22.6759 76.9325 20.8734 74.36 20.8734C73.2575 20.8734 72.4 21.2934 71.91 21.9409V17.1809H69.4775V29.8334H71.91V28.8709C72.4 29.5534 73.31 29.9734 74.325 29.9734ZM73.94 27.8734C72.6275 27.8734 71.77 26.8934 71.77 25.4234C71.77 23.9359 72.6275 22.9559 73.94 22.9559C75.2175 22.9559 76.0925 23.9359 76.0925 25.4234C76.0925 26.8934 75.2175 27.8734 73.94 27.8734Z" fill="#C7C7C7"/>
<path d="M82.5619 20.8734C80.1469 20.8734 78.7119 22.2909 78.6069 24.0584H80.7769C80.8119 23.3234 81.3544 22.6584 82.4219 22.6584C83.4194 22.6584 83.9969 23.1659 83.9969 23.9009C83.9969 24.2684 83.7694 24.5484 83.3319 24.5484H81.8444C79.9194 24.5484 78.6244 25.5984 78.6244 27.3309C78.6244 28.8359 79.7969 29.9734 81.5119 29.9734C82.7194 29.9734 83.6994 29.4309 83.9969 28.6084V29.8334H86.4119V24.1634C86.4119 22.1684 84.7844 20.8734 82.5619 20.8734ZM82.1244 28.2059C81.4419 28.2059 80.9519 27.8034 80.9519 27.2259C80.9519 26.5434 81.4769 26.0884 82.2119 26.0884H83.9969V26.2109C83.9969 27.3309 83.3144 28.2059 82.1244 28.2059Z" fill="#C7C7C7"/>
<path d="M87.3467 29.8334H89.7792V17.1809H87.3467V29.8334Z" fill="#C7C7C7"/>
<path d="M91.0713 29.8334H96.0763C98.6663 29.8334 100.451 28.5034 100.451 26.1759C100.451 24.5659 99.5063 23.5859 98.3863 23.1484C99.1038 22.7634 99.8213 21.8884 99.8213 20.7334C99.8213 18.6859 98.1588 17.5834 95.9363 17.5834H91.0713V29.8334ZM93.6613 22.2559V19.6659H95.6913C96.8638 19.6659 97.3888 20.1384 97.3888 20.9609C97.3888 21.7834 96.8638 22.2559 95.7438 22.2559H93.6613ZM93.6613 27.5584V24.4784H95.8488C97.3013 24.4784 97.9488 25.0384 97.9488 26.0359C97.9488 27.0334 97.3013 27.5584 95.8488 27.5584H93.6613Z" fill="#C7C7C7"/>
<path d="M104.683 20.8734C102.268 20.8734 100.833 22.2909 100.728 24.0584H102.898C102.933 23.3234 103.476 22.6584 104.543 22.6584C105.541 22.6584 106.118 23.1659 106.118 23.9009C106.118 24.2684 105.891 24.5484 105.453 24.5484H103.966C102.041 24.5484 100.746 25.5984 100.746 27.3309C100.746 28.8359 101.918 29.9734 103.633 29.9734C104.841 29.9734 105.821 29.4309 106.118 28.6084V29.8334H108.533V24.1634C108.533 22.1684 106.906 20.8734 104.683 20.8734ZM104.246 28.2059C103.563 28.2059 103.073 27.8034 103.073 27.2259C103.073 26.5434 103.598 26.0884 104.333 26.0884H106.118V26.2109C106.118 27.3309 105.436 28.2059 104.246 28.2059Z" fill="#C7C7C7"/>
<path d="M109.328 29.8334H111.778V25.0034C111.778 23.8659 112.53 23.0434 113.598 23.0434C114.613 23.0434 115.295 23.8134 115.295 24.8809V29.8334H117.745V24.3384C117.745 22.3084 116.45 20.8734 114.455 20.8734C113.248 20.8734 112.268 21.3809 111.778 22.2384V21.0134H109.328V29.8334Z" fill="#C7C7C7"/>
<path d="M124.728 29.8334H127.668L123.87 24.4784L127.388 21.0134H124.308L121.245 24.0234V17.1809H118.795V29.8334H121.245V27.0684L122.225 26.1059L124.728 29.8334Z" fill="#C7C7C7"/>
</svg>
