<svg width="140" height="48" viewBox="0 0 140 48" fill="none" xmlns="http://www.w3.org/2000/svg">
<path fill-rule="evenodd" clip-rule="evenodd" d="M32.5299 12.0115C32.2353 11.9509 31.9314 11.9509 31.6368 12.0115C31.2963 12.0815 30.9919 12.252 30.7499 12.3876L30.6839 12.4244L22.4826 16.9807C22.4599 16.9933 22.4365 17.0062 22.4126 17.0194C22.1564 17.1605 21.8343 17.3379 21.587 17.6063C21.3731 17.8383 21.2113 18.1134 21.1123 18.413C20.9978 18.7596 20.9991 19.1273 21.0002 19.4197C21.0003 19.4471 21.0004 19.4737 21.0004 19.4997V28.4958C21.0004 28.5217 21.0003 28.5484 21.0002 28.5757C20.9991 28.8682 20.9978 29.2359 21.1123 29.5825C21.2113 29.8821 21.3731 30.1571 21.587 30.3892C21.8343 30.6576 22.1564 30.835 22.4126 30.9761C22.4365 30.9893 22.4599 31.0021 22.4826 31.0147L30.6839 35.571L30.7499 35.6079C30.9919 35.7434 31.2963 35.9139 31.6368 35.984C31.9314 36.0445 32.2353 36.0445 32.5299 35.984C32.8704 35.9139 33.1748 35.7434 33.4168 35.6079L33.4827 35.571L41.6841 31.0147C41.6941 31.0092 41.7043 31.0035 41.7146 30.9979C41.7276 30.9907 41.7407 30.9834 41.7541 30.9761C42.0102 30.835 42.3323 30.6576 42.5797 30.3892C42.7935 30.1571 42.9554 29.8821 43.0544 29.5825C43.1689 29.2359 43.1675 28.8682 43.1665 28.5757C43.1664 28.5484 43.1663 28.5217 43.1663 28.4958V19.4997C43.1663 19.4737 43.1664 19.4471 43.1665 19.4197C43.1675 19.1273 43.1689 18.7596 43.0544 18.413C42.9554 18.1134 42.7935 17.8383 42.5797 17.6063C42.3323 17.3379 42.0102 17.1605 41.7541 17.0194L41.7532 17.0189C41.7296 17.0059 41.7065 16.9932 41.6841 16.9807L33.4827 12.4244L33.4168 12.3876C33.1748 12.252 32.8704 12.0815 32.5299 12.0115ZM31.7604 14.3621C31.9283 14.2688 32.0141 14.2216 32.078 14.1908L32.0833 14.1882L32.0886 14.1908C32.1526 14.2216 32.2383 14.2688 32.4063 14.3621L39.7758 18.4562L32.0833 22.7299L24.3908 18.4563L31.7604 14.3621ZM23.217 20.3398L30.975 24.6498L30.975 33.1971L23.559 29.0771C23.3818 28.9786 23.2912 28.9278 23.2277 28.8873L23.2224 28.8839L23.222 28.8775C23.2175 28.8024 23.217 28.6986 23.217 28.4958V20.3398Z" fill="#C7C7C7"/>
<path d="M53.2533 27.7015H56.7813V29.7805H50.5601V18.724H53.2533V27.7015Z" fill="#C7C7C7"/>
<path d="M59.2629 20.0785C58.7904 20.0785 58.4019 19.942 58.0974 19.669C57.8034 19.3855 57.6564 19.039 57.6564 18.6295C57.6564 18.2095 57.8034 17.863 58.0974 17.59C58.4019 17.3065 58.7904 17.1648 59.2629 17.1648C59.7249 17.1648 60.1029 17.3065 60.3969 17.59C60.7014 17.863 60.8537 18.2095 60.8537 18.6295C60.8537 19.039 60.7014 19.3855 60.3969 19.669C60.1029 19.942 59.7249 20.0785 59.2629 20.0785ZM60.6017 20.992V29.7805H57.9084V20.992H60.6017Z" fill="#C7C7C7"/>
<path d="M65.7349 20.866C66.3544 20.866 66.8952 20.992 67.3572 21.244C67.8297 21.496 68.1919 21.8268 68.4439 22.2363V20.992H71.1372V29.7648C71.1372 30.5733 70.9744 31.303 70.6489 31.954C70.3339 32.6155 69.8457 33.1405 69.1842 33.5291C68.5332 33.9176 67.7194 34.1118 66.7429 34.1118C65.4409 34.1118 64.3857 33.802 63.5772 33.1826C62.7687 32.5736 62.3067 31.744 62.1912 30.694H64.8529C64.9369 31.03 65.1364 31.2925 65.4514 31.4815C65.7664 31.681 66.1549 31.7808 66.6169 31.7808C67.1734 31.7808 67.6144 31.618 67.9399 31.2926C68.2759 30.9775 68.4439 30.4683 68.4439 29.7648V28.5205C68.1814 28.93 67.8192 29.266 67.3572 29.5285C66.8952 29.7805 66.3544 29.9065 65.7349 29.9065C65.0104 29.9065 64.3542 29.7228 63.7662 29.3553C63.1782 28.9773 62.7109 28.447 62.3644 27.7645C62.0284 27.0715 61.8604 26.2735 61.8604 25.3705C61.8604 24.4675 62.0284 23.6748 62.3644 22.9923C62.7109 22.3098 63.1782 21.7848 63.7662 21.4173C64.3542 21.0498 65.0104 20.866 65.7349 20.866ZM68.4439 25.3863C68.4439 24.7143 68.2549 24.184 67.8769 23.7955C67.5094 23.407 67.0579 23.2128 66.5224 23.2128C65.9869 23.2128 65.5302 23.407 65.1522 23.7955C64.7847 24.1735 64.6009 24.6985 64.6009 25.3705C64.6009 26.0425 64.7847 26.578 65.1522 26.977C65.5302 27.3655 65.9869 27.5598 66.5224 27.5598C67.0579 27.5598 67.5094 27.3655 67.8769 26.977C68.2549 26.5885 68.4439 26.0583 68.4439 25.3863Z" fill="#C7C7C7"/>
<path d="M78.3304 20.8975C79.3384 20.8975 80.1469 21.2335 80.7559 21.9055C81.3649 22.567 81.6694 23.4805 81.6694 24.646V29.7805H78.9919V25.0083C78.9919 24.4203 78.8396 23.9635 78.5351 23.638C78.2306 23.3125 77.8211 23.1498 77.3066 23.1498C76.7921 23.1498 76.3826 23.3125 76.0781 23.638C75.7736 23.9635 75.6214 24.4203 75.6214 25.0083V29.7805H72.9281V18.1255H75.6214V22.1733C75.8944 21.7848 76.2671 21.475 76.7396 21.244C77.2121 21.013 77.7424 20.8975 78.3304 20.8975Z" fill="#C7C7C7"/>
<path d="M88.2817 27.4968V29.7805H86.9114C85.9349 29.7805 85.1737 29.5443 84.6277 29.0718C84.0817 28.5888 83.8087 27.8065 83.8087 26.725V23.2285H82.7377V20.992H83.8087V18.85H86.5019V20.992H88.2659V23.2285H86.5019V26.7565C86.5019 27.019 86.5649 27.208 86.6909 27.3235C86.8169 27.439 87.0269 27.4968 87.3209 27.4968H88.2817Z" fill="#C7C7C7"/>
<path d="M92.3176 22.2363C92.5696 21.8268 92.9319 21.496 93.4044 21.244C93.8769 20.992 94.4176 20.866 95.0266 20.866C95.7511 20.866 96.4074 21.0498 96.9954 21.4173C97.5834 21.7848 98.0454 22.3098 98.3814 22.9923C98.7279 23.6748 98.9011 24.4675 98.9011 25.3705C98.9011 26.2735 98.7279 27.0715 98.3814 27.7645C98.0454 28.447 97.5834 28.9773 96.9954 29.3553C96.4074 29.7228 95.7511 29.9065 95.0266 29.9065C94.4071 29.9065 93.8664 29.7858 93.4044 29.5443C92.9424 29.2923 92.5801 28.9615 92.3176 28.552V29.7805H89.6244V18.1255H92.3176V22.2363ZM96.1606 25.3705C96.1606 24.6985 95.9716 24.1735 95.5936 23.7955C95.2261 23.407 94.7694 23.2128 94.2234 23.2128C93.6879 23.2128 93.2311 23.407 92.8531 23.7955C92.4856 24.184 92.3019 24.7143 92.3019 25.3863C92.3019 26.0583 92.4856 26.5885 92.8531 26.977C93.2311 27.3655 93.6879 27.5598 94.2234 27.5598C94.7589 27.5598 95.2156 27.3655 95.5936 26.977C95.9716 26.578 96.1606 26.0425 96.1606 25.3705Z" fill="#C7C7C7"/>
<path d="M104.157 29.9065C103.296 29.9065 102.519 29.7228 101.826 29.3553C101.144 28.9878 100.603 28.4628 100.204 27.7803C99.8153 27.0978 99.6211 26.2998 99.6211 25.3863C99.6211 24.4833 99.8206 23.6905 100.22 23.008C100.619 22.315 101.165 21.7848 101.858 21.4173C102.551 21.0498 103.328 20.866 104.189 20.866C105.05 20.866 105.827 21.0498 106.52 21.4173C107.213 21.7848 107.759 22.315 108.158 23.008C108.557 23.6905 108.756 24.4833 108.756 25.3863C108.756 26.2893 108.551 27.0873 108.142 27.7803C107.743 28.4628 107.192 28.9878 106.488 29.3553C105.795 29.7228 105.018 29.9065 104.157 29.9065ZM104.157 27.5755C104.672 27.5755 105.107 27.3865 105.464 27.0085C105.832 26.6305 106.016 26.0898 106.016 25.3863C106.016 24.6828 105.837 24.142 105.48 23.764C105.134 23.386 104.703 23.197 104.189 23.197C103.664 23.197 103.228 23.386 102.881 23.764C102.535 24.1315 102.362 24.6723 102.362 25.3863C102.362 26.0898 102.53 26.6305 102.866 27.0085C103.212 27.3865 103.643 27.5755 104.157 27.5755Z" fill="#C7C7C7"/>
<path d="M115.225 29.7805L113.54 27.3393L112.122 29.7805H109.208L112.106 25.2918L109.13 20.992H112.154L113.839 23.4175L115.256 20.992H118.17L115.225 25.4178L118.249 29.7805H115.225Z" fill="#C7C7C7"/>
</svg>
