<svg width="148" height="46" viewBox="0 0 148 46" fill="none" xmlns="http://www.w3.org/2000/svg">
<path d="M24.2448 31.6495H21.0757V8.05005H24.2448V17.7258C24.5482 16.9167 25.9979 14.4556 29.8075 14.4556C33.6171 14.4556 35.4039 16.9841 35.4039 20.6926V31.6495H32.2349V21.4343C32.2349 18.4338 30.8526 17.2201 28.6949 17.2201C24.3122 17.2201 24.2448 22.0749 24.2448 24.4348V31.6495Z" fill="#1B1F1C"/>
<path d="M90.6352 31.6495H87.4662V8.05005H90.6352V17.7258C90.9387 16.9167 92.3883 14.4556 96.198 14.4556C100.008 14.4556 101.794 16.9841 101.794 20.6926V31.6495H98.6253V21.4343C98.6253 18.4338 97.2431 17.2201 95.0854 17.2201C90.7027 17.2201 90.6352 22.0749 90.6352 24.4348V31.6495Z" fill="#1B1F1C"/>
<path d="M114.337 31.6497H110.224C107.459 31.6497 106.01 30.3011 106.01 27.5366V17.5574H102.2V14.9278H106.01V9.70216H109.179V14.9278H113.696V17.5574H109.179V27.2669C109.179 28.4132 109.684 28.9189 110.831 28.9189H114.337V31.6497Z" fill="#1B1F1C"/>
<path fill-rule="evenodd" clip-rule="evenodd" d="M73.0438 38.2242H80.8317C83.731 38.2242 86.1584 36.6733 86.1584 33.538C86.1584 30.7398 84.0345 28.8518 80.7642 28.8518H73.5158C72.3696 28.8518 72.0324 28.3124 72.0324 27.773C72.0324 27.1661 72.6056 26.5593 73.5158 26.1884C74.4598 26.6941 75.5386 26.829 76.6849 26.829C80.4271 26.829 83.023 24.4016 83.3265 20.6257L83.3939 19.8166C83.5288 17.8949 84.0682 17.5578 85.4841 17.5578H86.8664V14.9281H85.147C83.4276 14.9281 82.6859 15.9733 82.3825 17.4229C81.6071 16.1081 79.7528 14.4561 76.6512 14.4561C72.7404 14.4561 69.9085 17.1532 69.9085 20.6931C69.9085 22.6822 70.785 24.1993 71.7627 25.0759C70.6165 25.8176 69.2679 26.9639 69.2679 28.6158C69.2679 29.9644 69.8073 30.7735 70.7513 31.3466C69.7736 31.9535 68.5937 33.1671 68.5937 34.8528C68.5937 36.8082 69.7736 38.2242 73.0438 38.2242ZM80.4126 20.6594C80.4126 22.74 78.8763 24.3342 76.6849 24.3342C74.4935 24.3342 73.0102 22.7064 73.0102 20.6594C73.0102 18.6125 74.4935 16.9509 76.6849 16.9509C78.8763 16.9509 80.4126 18.5789 80.4126 20.6594ZM80.4271 35.5271H73.9204C72.3021 35.5271 71.3919 35.1225 71.3919 33.774C71.3919 32.7289 72.0661 31.9872 72.6056 31.65H80.4271C81.7757 31.65 82.9556 31.9872 82.9556 33.5717C82.9556 35.1562 81.7757 35.5271 80.4271 35.5271Z" fill="#1B1F1C"/>
<path d="M59.3295 32.1221C55.5199 32.1221 53.8342 29.5936 53.8342 25.8851V14.9282H57.0033V25.1434C57.0033 28.1439 58.3518 29.3576 60.4421 29.3576C64.6225 29.3576 64.8248 24.8063 64.8248 22.2103V14.9282H67.9939V31.6501H64.8923V28.7845C64.3528 29.7622 62.7683 32.1221 59.3295 32.1221Z" fill="#1B1F1C"/>
<path fill-rule="evenodd" clip-rule="evenodd" d="M36.6859 23.3228C36.6859 28.3461 40.1247 32.122 44.6423 32.122C49.1262 32.122 52.565 28.4135 52.565 23.3228C52.565 18.2321 49.2611 14.4561 44.6423 14.4561C40.0236 14.4561 36.6859 18.2321 36.6859 23.3228ZM49.2611 23.3565C49.2611 27.4359 47.3731 29.3912 44.6423 29.3912C41.8778 29.3912 39.9898 27.4359 39.9898 23.3565C39.9898 19.2435 41.8778 17.1869 44.6423 17.1869C47.3731 17.1869 49.2611 19.2435 49.2611 23.3565Z" fill="#1B1F1C"/>
<path d="M16.0738 31.6497H20.1868V28.9189H16.6806C15.5344 28.9189 15.0287 28.4132 15.0287 27.2669V17.5574H19.5463V14.9278H15.0287V9.70216H11.8596V14.9278H8.04999V17.5574H11.8596V27.5366C11.8596 30.3011 13.3093 31.6497 16.0738 31.6497Z" fill="#1B1F1C"/>
<path d="M138.428 31.1167C137.944 31.1167 137.657 30.7938 137.657 30.2583C137.657 29.7779 137.991 29.455 138.444 29.455C138.787 29.455 139.027 29.6361 139.117 29.9275L138.85 29.9944C138.779 29.7975 138.645 29.6873 138.428 29.6873C138.149 29.6873 137.952 29.9196 137.952 30.2858C137.952 30.6481 138.137 30.8646 138.424 30.8646C138.641 30.8646 138.814 30.719 138.869 30.4984L139.141 30.5811C139.058 30.908 138.787 31.1167 138.428 31.1167Z" fill="#1B1F1C"/>
<path fill-rule="evenodd" clip-rule="evenodd" d="M138.42 31.8057C137.558 31.8057 136.885 31.1285 136.885 30.2898C136.885 29.451 137.558 28.7659 138.42 28.7659C139.279 28.7659 139.956 29.451 139.956 30.2898C139.956 31.1285 139.279 31.8057 138.42 31.8057ZM138.42 31.534C139.129 31.534 139.661 30.971 139.661 30.2898C139.661 29.6046 139.129 29.0415 138.42 29.0415C137.712 29.0415 137.176 29.6046 137.176 30.2898C137.176 30.971 137.712 31.534 138.42 31.534Z" fill="#1B1F1C"/>
<path d="M115.377 27.5437C115.377 30.3237 117.19 31.9722 119.372 31.9722C121.217 31.9722 122.762 30.304 123.118 28.212L125.175 17.6679C125.236 17.309 125.555 17.0428 125.889 17.0428C126.329 17.0428 126.542 17.3941 126.617 17.6176L131.162 31.1276L130.203 33.855C129.731 35.1361 129.056 35.4058 127.91 35.4058H124.539V38.2378H128.011C130.944 38.2378 132.192 37.1927 133.271 34.0236L139.873 14.9027H136.454L133.642 23.6061C133.347 24.4635 133.035 25.4024 132.807 26.0915C132.741 26.289 132.682 26.4659 132.633 26.6146L129.386 16.9425C128.757 14.8667 127.282 14.1059 125.798 14.1059C124.314 14.1059 122.911 15.1979 122.553 17.0428C122.553 17.0428 120.646 27.1892 120.519 27.7861C120.393 28.383 120.211 29.0554 119.565 29.0554C118.962 29.0554 118.546 28.7217 118.546 27.9911V8.05005H115.377V27.5437Z" fill="#1B1F1C"/>
</svg>
