<svg width="138" height="46" viewBox="0 0 138 46" fill="none" xmlns="http://www.w3.org/2000/svg">
<path fill-rule="evenodd" clip-rule="evenodd" d="M22.3549 31.409H19.2181V8.05005H22.3549V14.1901V17.6272C22.6552 16.8264 24.0901 14.3903 27.8609 14.3903C31.6317 14.3903 33.4003 16.8931 33.4003 20.5638V31.409H30.2636V21.2979C30.2636 18.328 28.8954 17.1267 26.7597 17.1267C22.4216 17.1267 22.3549 21.932 22.3549 24.2679V31.409ZM88.6815 31.409H85.5447V8.05005H88.6815V14.1901V17.6272C88.9818 16.8264 90.4167 14.3903 94.1875 14.3903C97.9583 14.3903 99.7269 16.8931 99.7269 20.5638V31.409H96.5901V21.2979C96.5901 18.328 95.222 17.1267 93.0863 17.1267C88.7482 17.1267 88.6815 21.932 88.6815 24.2679V31.409ZM116.158 31.409H113.022V8.05005H116.158V31.409ZM126.231 23.4338L129.067 14.8577H132.371L125.864 33.7451C124.796 36.8819 123.561 37.9163 120.658 37.9163H117.221V35.1133H120.558C121.692 35.1133 122.36 34.8463 122.827 33.5782L123.661 31.209L116.353 14.8577H119.857L123.261 23.1001C124.362 25.6695 124.662 26.4037 124.963 27.2046C125.034 26.9911 125.099 26.7926 125.168 26.5842L125.169 26.5827L125.169 26.5825L125.169 26.5814C125.39 25.911 125.646 25.1374 126.231 23.4338ZM108.071 31.4091H112.142V28.7061H108.671C107.537 28.7061 107.036 28.2055 107.036 27.071V17.4604H111.508V14.8576H107.036V9.68521H103.899V14.8576H100.129V17.4604H103.899V27.3379C103.899 30.0743 105.334 31.4091 108.071 31.4091ZM71.2693 37.9163H78.9778C81.8476 37.9163 84.2503 36.3813 84.2503 33.2779C84.2503 30.5082 82.1479 28.6395 78.9111 28.6395H71.7365C70.6019 28.6395 70.2682 28.1056 70.2682 27.5716C70.2682 26.971 70.8355 26.3703 71.7365 26.0032C72.6709 26.5038 73.7387 26.6373 74.8733 26.6373C78.5774 26.6373 81.1468 24.2346 81.4472 20.4972L81.5139 19.6963C81.6474 17.7942 82.1813 17.4605 83.5829 17.4605H84.951V14.8577H83.2492C81.5473 14.8577 80.8131 15.8921 80.5128 17.327C79.7453 16.0256 77.91 14.3905 74.8399 14.3905C70.969 14.3905 68.1659 17.0601 68.1659 20.5639C68.1659 22.5328 69.0335 24.0344 70.0013 24.902C68.8667 25.6362 67.5319 26.7708 67.5319 28.4059C67.5319 29.7407 68.0658 30.5416 69.0002 31.1089C68.0324 31.7095 66.8645 32.9108 66.8645 34.5793C66.8645 36.5148 68.0324 37.9163 71.2693 37.9163ZM78.4439 20.5306C78.4439 22.733 77.0423 24.1679 74.8733 24.1679C72.7042 24.1679 71.3027 22.733 71.3027 20.5306C71.3027 18.3615 72.7042 16.8599 74.8733 16.8599C77.0423 16.8599 78.4439 18.3615 78.4439 20.5306ZM78.5774 35.2467H72.1369C70.5352 35.2467 69.6342 34.8463 69.6342 33.5115C69.6342 32.477 70.3016 31.7429 70.8355 31.4092H78.5774C79.9122 31.4092 81.0801 31.7429 81.0801 33.3113C81.0801 34.8797 79.9122 35.2467 78.5774 35.2467ZM57.082 31.8764C53.3112 31.8764 51.6427 29.3736 51.6427 25.7029V14.8577H54.7795V24.9688C54.7795 27.9387 56.1143 29.14 58.1832 29.14C62.3211 29.14 62.5213 24.6351 62.5213 22.0656V14.8577H65.6581V31.4092H62.5881V28.5728C62.0541 29.5405 60.4858 31.8764 57.082 31.8764ZM34.6695 23.1668C34.6695 28.1389 38.0733 31.8764 42.5448 31.8764C46.983 31.8764 50.3868 28.2057 50.3868 23.1668C50.3868 18.1279 47.1165 14.3905 42.5448 14.3905C37.9732 14.3905 34.6695 18.1279 34.6695 23.1668ZM47.1165 23.2002C47.1165 27.2379 45.2478 29.1734 42.5448 29.1734C39.8085 29.1734 37.9398 27.2379 37.9398 23.2002C37.9398 19.129 39.8085 17.0935 42.5448 17.0935C45.2478 17.0935 47.1165 19.129 47.1165 23.2002ZM14.267 31.4091H18.3381V28.7061H14.8677C13.7331 28.7061 13.2325 28.2055 13.2325 27.071V17.4604H17.7041V14.8576H13.2325V9.68521H10.0958V14.8576H6.32495V17.4604H10.0958V27.3379C10.0958 30.0743 11.5307 31.4091 14.267 31.4091Z" fill="#1B1F1C"/>
</svg>
