<svg width="140" height="48" viewBox="0 0 140 48" fill="none" xmlns="http://www.w3.org/2000/svg">
<path d="M46.7917 24.1458C46.7917 30.7502 41.4377 36.1042 34.8333 36.1042C28.2289 36.1042 22.875 30.7502 22.875 24.1458C22.875 17.5414 28.2289 12.1875 34.8333 12.1875C41.4377 12.1875 46.7917 17.5414 46.7917 24.1458Z" stroke="#C7C7C7" stroke-width="1.75"/>
<path d="M39.5766 28.8895C37.162 31.3042 34.4264 32.8804 31.9902 33.5069C29.532 34.139 27.5506 33.7751 26.3773 32.6018C25.204 31.4285 24.8401 29.4471 25.4722 26.9889C26.0987 24.5527 27.6749 21.8171 30.0896 19.4025C32.5042 16.9878 35.2398 15.4115 37.676 14.7851C40.1342 14.153 42.1156 14.5169 43.2889 15.6902C44.4622 16.8635 44.8261 18.8449 44.194 21.3031C43.5675 23.7393 41.9913 26.4749 39.5766 28.8895Z" stroke="#C7C7C7" stroke-width="1.75"/>
<path d="M39.5768 19.4024C41.9914 21.817 43.5677 24.5526 44.1942 26.9888C44.8263 29.447 44.4624 31.4284 43.2891 32.6017C42.1157 33.775 40.1344 34.1389 37.6762 33.5068C35.2399 32.8804 32.5044 31.3041 30.0897 28.8894C27.6751 26.4748 26.0988 23.7392 25.4723 21.303C24.8402 18.8448 25.2041 16.8634 26.3774 15.6901C27.5508 14.5168 29.5321 14.1529 31.9903 14.785C34.4266 15.4115 37.1621 16.9877 39.5768 19.4024Z" stroke="#C7C7C7" stroke-width="1.75"/>
<path d="M58.6624 29.9734C61.4099 29.9734 63.2649 28.5384 63.2649 26.2459C63.2649 21.3984 56.8249 23.4634 56.8249 20.9084C56.8249 20.1909 57.4724 19.7009 58.5049 19.7009C59.6774 19.7009 60.4124 20.3309 60.4999 21.2934H63.0024C62.9324 18.9659 61.1474 17.4434 58.5049 17.4434C56.0199 17.4434 54.2699 18.8784 54.2699 20.9084C54.2699 25.7209 60.6224 23.8834 60.6224 26.2809C60.6224 27.2084 59.8349 27.6984 58.6624 27.6984C57.3674 27.6984 56.5449 26.9109 56.4399 25.6684H53.9199C54.0249 28.2759 55.8799 29.9734 58.6624 29.9734Z" fill="#C7C7C7"/>
<path d="M63.8601 33.4034H66.2926V29.0459C66.7651 29.6409 67.6226 29.9734 68.6201 29.9734C71.1576 29.9734 72.8726 28.1709 72.8726 25.4234C72.8726 22.6759 71.2976 20.8734 68.8301 20.8734C67.6926 20.8734 66.8176 21.2934 66.2926 21.9759V21.0134H63.8601V33.4034ZM68.3226 27.8734C67.0101 27.8734 66.1526 26.8934 66.1526 25.4234C66.1526 23.9359 67.0101 22.9559 68.3226 22.9559C69.6001 22.9559 70.4751 23.9359 70.4751 25.4234C70.4751 26.8934 69.6001 27.8734 68.3226 27.8734Z" fill="#C7C7C7"/>
<path d="M73.4611 29.8334H75.8936V25.0034C75.8936 23.8659 76.6461 23.0434 77.7136 23.0434C78.7286 23.0434 79.4286 23.8134 79.4286 24.8809V29.8334H81.8611V24.3384C81.8611 22.3084 80.5661 20.8734 78.5886 20.8734C77.3636 20.8734 76.4011 21.3809 75.8936 22.2384V17.1809H73.4611V29.8334Z" fill="#C7C7C7"/>
<path d="M88.6659 26.8409C88.4734 27.5934 87.8259 27.9784 86.8459 27.9784C85.6209 27.9784 84.8334 27.2084 84.6584 25.9659H90.9934C91.0109 25.7734 91.0284 25.5109 91.0284 25.1784C91.0284 23.1659 89.7859 20.8734 86.6709 20.8734C83.6784 20.8734 82.3134 23.1659 82.3134 25.4059C82.3134 27.6284 83.8534 29.9734 86.8459 29.9734C89.0159 29.9734 90.6959 28.7484 91.0459 26.8409H88.6659ZM86.6709 22.6584C87.8434 22.6584 88.5259 23.4459 88.5959 24.4259H84.6934C84.9034 23.2009 85.5684 22.6584 86.6709 22.6584Z" fill="#C7C7C7"/>
<path d="M97.408 23.0434V21.0134H96.1529C95.0854 21.0134 94.4204 21.3809 93.9479 22.4834V21.0134H91.4979V29.8334H93.9479V25.5459C93.9479 24.0409 94.4904 23.0434 95.6979 23.0434H97.408Z" fill="#C7C7C7"/>
<path d="M105.808 21.0134H103.358V25.8434C103.358 26.9634 102.605 27.8034 101.538 27.8034C100.54 27.8034 99.8405 27.0334 99.8405 25.9659V21.0134H97.408V26.5084C97.408 28.5209 98.703 29.9734 100.68 29.9734C101.888 29.9734 102.868 29.4484 103.358 28.6084V29.8334H105.808V21.0134Z" fill="#C7C7C7"/>
<path d="M106.858 29.8334H109.291V17.1809H106.858V29.8334Z" fill="#C7C7C7"/>
<path d="M116.235 26.8409C116.043 27.5934 115.395 27.9784 114.415 27.9784C113.19 27.9784 112.403 27.2084 112.228 25.9659H118.563C118.58 25.7734 118.598 25.5109 118.598 25.1784C118.598 23.1659 117.355 20.8734 114.24 20.8734C111.248 20.8734 109.883 23.1659 109.883 25.4059C109.883 27.6284 111.423 29.9734 114.415 29.9734C116.585 29.9734 118.265 28.7484 118.615 26.8409H116.235ZM114.24 22.6584C115.413 22.6584 116.095 23.4459 116.165 24.4259H112.263C112.473 23.2009 113.138 22.6584 114.24 22.6584Z" fill="#C7C7C7"/>
</svg>
