<svg width="375" height="237" viewBox="0 0 375 237" fill="none" xmlns="http://www.w3.org/2000/svg">
<g clip-path="url(#clip0_2828_31864)">
<path d="M-186.346 150.79C-62.8485 150.79 -86.6148 139.218 -18.257 132.089C14.8797 128.633 77.1956 144.04 139.036 140.853C204.766 137.465 217.694 107.096 279.227 107.096C340.761 107.096 386.623 120.507 439.262 115.587C493.259 110.541 549.542 85.5414 585.209 68.2842" stroke="#E8E8E8" stroke-width="2.5" stroke-dasharray="5 5"/>
<path d="M-11.4215 95.9975C-80.3023 103.131 -61.9036 150.977 -186.346 150.977C-103.44 150.977 -43.2867 215.212 -11.4215 212.136C20.4438 209.059 109.867 185.979 146.272 185.978C182.678 185.978 237.914 182.074 265.531 176.946C293.149 171.818 360.939 191.266 443.792 193.318C510.075 194.958 576.502 187.315 601.429 168.854V-113.229C509.071 21.9155 447.988 -4.67107 393.578 0.378265C340.536 5.30059 327.536 36.274 265.531 36.2737C203.527 36.2734 183.33 92.6081 117.097 95.9975C54.783 99.1863 21.9688 92.5397 -11.4215 95.9975Z" fill="url(#paint0_linear_2828_31864)"/>
<path d="M-186.346 150.79C-61.9036 150.79 -80.3023 102.978 -11.4215 95.8495C21.9688 92.3941 54.783 99.036 117.097 95.8495C183.33 92.4625 203.527 36.1677 265.532 36.168C327.536 36.1683 340.536 5.21675 393.578 0.297909C447.988 -4.74785 509.071 21.82 601.429 -113.229" stroke="url(#paint1_linear_2828_31864)" stroke-width="2.5"/>
</g>
<defs>
<linearGradient id="paint0_linear_2828_31864" x1="159.01" y1="-52.6049" x2="191.8" y2="153.482" gradientUnits="userSpaceOnUse">
<stop stop-color="#ACF6A5"/>
<stop offset="1" stop-color="#E8FBE7" stop-opacity="0"/>
</linearGradient>
<linearGradient id="paint1_linear_2828_31864" x1="424.421" y1="-131.65" x2="-75.3093" y2="237.042" gradientUnits="userSpaceOnUse">
<stop stop-color="#32E825"/>
<stop offset="1" stop-color="#53D5EC"/>
</linearGradient>
<clipPath id="clip0_2828_31864">
<rect width="375" height="237" fill="white"/>
</clipPath>
</defs>
</svg>
