<svg width="1024" height="449" viewBox="0 0 1024 449" fill="none" xmlns="http://www.w3.org/2000/svg">
<g clip-path="url(#clip0_2767_83208)">
<path d="M-152.691 325.58C94.3029 325.58 46.7704 302.435 183.486 288.177C249.759 281.266 374.391 312.08 498.072 305.706C629.532 298.931 655.387 238.191 778.454 238.192C901.521 238.192 993.246 265.014 1098.52 255.175C1206.52 245.082 1319.08 195.083 1390.42 160.568" stroke="#E8E8E8" stroke-width="5" stroke-dasharray="10 10"/>
<path d="M197.157 215.995C59.3954 230.261 96.1928 325.954 -152.691 325.954C13.1198 325.954 133.427 454.425 197.157 448.271C260.888 442.118 439.734 395.957 512.545 395.957C585.356 395.957 695.827 388.147 751.063 377.892C806.299 367.636 941.877 406.533 1107.58 410.635C1240.15 413.917 1373 398.629 1422.86 361.708V-202.457C1238.14 67.8311 1115.98 14.6579 1007.16 24.7565C901.073 34.6012 875.072 96.548 751.063 96.5474C627.054 96.5469 586.659 209.216 454.193 215.995C329.566 222.373 263.938 209.079 197.157 215.995Z" fill="url(#paint0_linear_2767_83208)"/>
<path d="M-152.691 325.58C96.1928 325.58 59.3954 229.955 197.157 215.699C263.938 208.788 329.566 222.072 454.193 215.699C586.66 208.925 627.054 96.3354 751.063 96.3359C875.072 96.3365 901.073 34.4335 1007.16 24.5958C1115.98 14.5043 1238.14 67.6399 1422.86 -202.457" stroke="url(#paint1_linear_2767_83208)" stroke-width="5"/>
</g>
<defs>
<linearGradient id="paint0_linear_2767_83208" x1="538.02" y1="-81.2098" x2="603.601" y2="330.963" gradientUnits="userSpaceOnUse">
<stop stop-color="#ACF6A5"/>
<stop offset="1" stop-color="#E8FBE7" stop-opacity="0"/>
</linearGradient>
<linearGradient id="paint1_linear_2767_83208" x1="1068.84" y1="-239.3" x2="69.3814" y2="498.083" gradientUnits="userSpaceOnUse">
<stop stop-color="#32E825"/>
<stop offset="1" stop-color="#53D5EC"/>
</linearGradient>
<clipPath id="clip0_2767_83208">
<rect width="1024" height="449" fill="white"/>
</clipPath>
</defs>
</svg>
