<svg xmlns="http://www.w3.org/2000/svg" viewBox="0 0 91 91" fill="none">

    <circle class="processing-circle 1" cx="20.548" cy="3.91376" r="3.91376" fill="#E0E0E0" />
    <circle
        class="processing-circle 2" cx="37.1794" cy="3.91376" r="3.91376" fill="#E0E0E0" />
    <circle
        class="processing-circle 3" cx="53.8132" cy="3.91376" r="3.91376" fill="#E0E0E0" />
    <circle
        class="processing-circle 4" cx="70.4474" cy="3.91376" r="3.91376" fill="#E0E0E0" />
    <circle
        class="processing-circle 5" cx="3.91376" cy="20.5451" r="3.91376" fill="#E0E0E0" />
    <circle
        class="processing-circle 6" cx="20.548" cy="20.5451" r="3.91376" fill="#E0E0E0" />
    <circle
        class="processing-circle 7" cx="37.1794" cy="20.5451" r="3.91376" fill="#E0E0E0" />
    <circle
        class="processing-circle 8" cx="53.8132" cy="20.5451" r="3.91376" fill="#E0E0E0" />
    <circle
        class="processing-circle 9" cx="70.4474" cy="20.5451" r="3.91376" fill="#E0E0E0" />
    <circle
        class="processing-circle 10" cx="87.0861" cy="20.5451" r="3.91376" fill="#E0E0E0" />
    <circle
        class="processing-circle 11" cx="3.91376" cy="37.1765" r="3.91376" fill="#E0E0E0" />
    <circle
        class="processing-circle 12" cx="20.548" cy="37.1765" r="3.91376" fill="#E0E0E0" />
    <circle
        class="processing-circle 13" cx="37.1794" cy="37.1765" r="3.91376" fill="#E0E0E0" />
    <circle
        class="processing-circle 14" cx="53.8132" cy="37.1765" r="3.91376" fill="#E0E0E0" />
    <circle
        class="processing-circle 15" cx="70.4474" cy="37.1765" r="3.91376" fill="#E0E0E0" />
    <circle
        class="processing-circle 16" cx="87.0861" cy="37.1765" r="3.91376" fill="#E0E0E0" />
    <circle
        class="processing-circle 17" cx="3.91376" cy="53.8076" r="3.91376" fill="#E0E0E0" />
    <circle
        class="processing-circle 18" cx="20.548" cy="53.8076" r="3.91376" fill="#E0E0E0" />
    <circle
        class="processing-circle 19" cx="37.1794" cy="53.8076" r="3.91376" fill="#E0E0E0" />
    <circle
        class="processing-circle 20" cx="53.8132" cy="53.8076" r="3.91376" fill="#E0E0E0" />
    <circle
        class="processing-circle 21" cx="70.4474" cy="53.8076" r="3.91376" fill="#E0E0E0" />
    <circle
        class="processing-circle 22" cx="87.0861" cy="53.8076" r="3.91376" fill="#E0E0E0" />
    <circle
        class="processing-circle 23" cx="3.91376" cy="70.4404" r="3.91376" fill="#E0E0E0" />
    <circle
        class="processing-circle 24" cx="20.548" cy="70.4404" r="3.91376" fill="#E0E0E0" />
    <circle
        class="processing-circle 25" cx="37.1794" cy="70.4404" r="3.91376" fill="#E0E0E0" />
    <circle
        class="processing-circle 26" cx="53.8132" cy="70.4404" r="3.91376" fill="#E0E0E0" />
    <circle
        class="processing-circle 27" cx="70.4474" cy="70.4404" r="3.91376" fill="#E0E0E0" />
    <circle
        class="processing-circle 28" cx="87.0861" cy="70.4404" r="3.91376" fill="#E0E0E0" />
    <circle
        class="processing-circle 29" cx="20.548" cy="87.0915" r="3.91376" fill="#E0E0E0" />
    <circle
        class="processing-circle 30" cx="37.1794" cy="87.0915" r="3.91376" fill="#E0E0E0" />
    <circle
        class="processing-circle 31" cx="53.8132" cy="87.0915" r="3.91376" fill="#E0E0E0" />
    <circle
        class="processing-circle 32" cx="70.4474" cy="87.0915" r="3.91376" fill="#E0E0E0" />
</svg>