<svg width="310" height="191" viewBox="0 0 310 191" fill="none" xmlns="http://www.w3.org/2000/svg">
<path d="M7.66696 187.924C7.73196 187.676 9.52096 178.009 11.643 166.445L15.501 145.417H20.598C23.402 145.417 25.696 145.485 25.696 145.573C25.696 145.661 25.018 149.378 24.189 153.832C23.359 158.284 22.68 162.003 22.68 162.093C22.68 162.182 26.149 162.227 30.388 162.189L38.094 162.121L39.626 153.833L41.157 145.541L46.239 145.473C49.035 145.435 51.322 145.5 51.322 145.619C51.322 145.819 43.946 186.192 43.636 187.686L43.493 188.375H38.358H33.223L33.356 187.81C33.614 186.72 36.498 170.926 36.498 170.61C36.498 170.355 34.894 170.29 28.841 170.29H21.183L21.056 170.855C20.807 171.97 17.907 187.875 17.907 188.122C17.907 188.286 16.053 188.376 12.728 188.376C7.87296 188.374 7.55596 188.345 7.66696 187.924Z" fill="#010202"/>
<path d="M7.93819 188.289C7.62719 188.238 7.58919 188.185 7.64619 187.894C7.68319 187.709 9.45219 178.075 11.5802 166.486L15.4492 145.417H20.6172H25.7842L25.6702 146.011C24.7862 150.63 22.7232 162.074 22.7682 162.12C22.8712 162.231 32.0462 162.257 35.1122 162.154L38.0582 162.059L39.5962 153.768C40.4412 149.208 41.1362 145.463 41.1382 145.444C41.1432 145.427 43.4632 145.417 46.2972 145.417H51.4502L51.3832 145.697C51.3472 145.852 49.5942 155.391 47.4892 166.895C45.3842 178.396 43.6312 187.935 43.5942 188.09L43.5262 188.373H38.3792C35.5472 188.373 33.2312 188.359 33.2312 188.34C33.2312 188.322 33.9652 184.327 34.8632 179.457C35.9822 173.374 36.4522 170.569 36.3632 170.478C36.1942 170.308 21.1732 170.219 21.1732 170.385C21.1732 170.452 20.6672 173.239 20.0482 176.58C19.4302 179.923 18.6972 183.892 18.4222 185.403C18.1452 186.917 17.8832 188.188 17.8412 188.233C17.7462 188.323 8.47119 188.378 7.93819 188.289Z" fill="#010202"/>
<path d="M60.6731 188.997C56.6411 188.47 53.4481 186.066 52.4161 182.783C52.0571 181.636 52.0351 179.313 52.3741 178.075C53.2771 174.784 56.0761 172.161 60.2591 170.686C63.3981 169.576 68.7671 168.705 74.0241 168.448C75.1841 168.393 75.8581 168.31 75.9411 168.21C76.0121 168.127 76.1891 167.586 76.3341 167.009C77.1771 163.675 75.4441 161.616 71.8031 161.621C69.0061 161.627 67.0231 162.638 65.6521 164.758C65.3761 165.182 65.0881 165.723 65.0091 165.963C64.9261 166.218 64.7841 166.394 64.6641 166.394C64.2251 166.394 55.7781 165.491 55.7251 165.436C55.6951 165.408 55.9891 164.748 56.3821 163.97C58.6871 159.408 62.6911 156.841 68.7741 156.021C70.5481 155.782 74.3931 155.752 76.1311 155.965C81.2901 156.591 84.8661 158.924 86.0041 162.393C86.2691 163.202 86.3041 163.543 86.2961 165.136C86.2881 167.176 86.1451 168.143 84.6161 176.371C83.3501 183.184 83.2931 183.594 83.2921 186.081L83.2911 188.25H78.4961L73.7011 188.252L73.6101 187.402C73.5481 186.835 73.5871 186.008 73.7281 184.921C74.0151 182.668 74.0111 182.652 73.4001 183.667C72.7481 184.744 70.7411 186.777 69.7631 187.35C67.3291 188.773 63.8251 189.411 60.6731 188.997ZM68.7531 182.96C69.7861 182.606 70.5011 182.144 71.4601 181.224C72.4991 180.226 73.2671 179.101 73.8671 177.697C74.3031 176.682 74.9591 174.404 75.1251 173.334L75.2081 172.799L74.4741 172.803C72.4891 172.809 69.4431 173.291 67.6241 173.891C64.6921 174.857 63.1441 176.318 62.7421 178.498C62.4281 180.2 63.1081 181.895 64.4341 182.717C65.4981 183.372 67.2651 183.471 68.7531 182.96Z" fill="#010202"/>
<path d="M91.1129 187.715C91.1709 187.421 92.4659 180.366 93.9869 172.045C95.5089 163.719 96.7819 156.779 96.8179 156.625L96.8819 156.342H101.715C105.862 156.342 106.549 156.369 106.549 156.525C106.549 156.626 106.266 158.247 105.921 160.122C105.575 162.005 105.294 163.575 105.294 163.615C105.294 163.659 105.662 163.023 106.111 162.205C107.093 160.419 107.882 159.29 108.81 158.347C110.422 156.703 111.833 156.149 115.001 155.915L115.855 155.849L115.788 156.253C115.752 156.476 115.521 158.438 115.277 160.612C115.034 162.789 114.808 164.69 114.776 164.836C114.723 165.078 114.608 165.107 113.428 165.174C110.346 165.346 108.186 166.552 106.454 169.064C104.788 171.481 104.285 173.152 102.844 181.026C102.39 183.514 101.907 186.131 101.771 186.841C101.635 187.554 101.524 188.162 101.524 188.194C101.524 188.224 99.1559 188.253 96.2629 188.253H91.0029L91.1129 187.715Z" fill="#010202"/>
<path d="M125.639 188.82C123.573 188.481 121.983 187.706 120.531 186.325C117.953 183.876 116.728 180.468 116.727 175.746C116.726 171.732 117.544 168.21 119.311 164.648C122.56 158.091 127.073 155.206 133.266 155.73C135.426 155.912 137.063 156.602 138.326 157.863C139.043 158.583 139.88 159.989 140.221 161.052C140.357 161.479 140.395 161.515 140.479 161.305C140.533 161.165 141.217 157.535 141.999 153.233L143.419 145.417H148.471H153.524L153.442 145.822C153.398 146.05 151.629 155.671 149.51 167.21L145.66 188.186L140.928 188.218C138.326 188.239 136.195 188.236 136.195 188.212C136.195 188.187 136.391 187.103 136.631 185.798C136.87 184.494 137.048 183.407 137.027 183.387C137.005 183.364 136.842 183.56 136.667 183.82C135.049 186.215 132.604 188.068 130.229 188.694C129.167 188.972 126.942 189.035 125.639 188.82ZM132.736 182.277C133.713 182.023 134.586 181.541 135.397 180.796C136.955 179.378 137.795 177.168 138.569 172.478C139.153 168.927 139.261 167.734 139.094 166.64C138.811 164.803 137.873 163.394 136.415 162.618C135.757 162.266 135.464 162.191 134.613 162.146C132.769 162.049 131.34 162.752 130.227 164.315C128.376 166.907 127.022 172.609 127.176 177.171C127.225 178.637 127.28 179.004 127.549 179.663C127.915 180.56 128.255 181.01 129.013 181.595C130.08 182.416 131.328 182.643 132.736 182.277Z" fill="#010202"/>
<path d="M160.976 188.142C160.976 188.039 156.027 157.404 155.896 156.689L155.833 156.342H161.028C165.87 156.342 166.224 156.358 166.28 156.563C166.307 156.685 166.924 161.15 167.64 166.486C168.362 171.825 168.977 176.19 169.016 176.19C169.055 176.19 170.954 171.738 173.237 166.298L177.383 156.405L182.051 156.374L186.719 156.342L186.781 156.625C186.814 156.779 187.27 161.12 187.792 166.267C188.316 171.413 188.774 175.76 188.812 175.926C188.847 176.09 188.919 176.176 188.975 176.114C189.025 176.051 191.184 171.58 193.772 166.175L198.473 156.348H202.329L206.183 156.342L204.634 159.514C203.781 161.259 200.223 168.437 196.726 175.466L190.368 188.251H185.848H181.33L181.267 187.967C181.198 187.651 178.811 168.005 178.811 167.755C178.811 167.658 178.77 167.644 178.701 167.715C178.639 167.782 176.627 172.43 174.228 178.041L169.871 188.251H165.424C162.978 188.251 160.976 188.201 160.976 188.142Z" fill="#010202"/>
<path d="M213.672 189.051C210.691 188.595 208.776 187.702 207.05 185.958C205.485 184.375 204.73 182.288 204.857 179.895C205.113 175.076 208.744 171.651 215.367 169.973C218.355 169.215 224.765 168.402 227.757 168.402C228.496 168.402 228.563 168.376 228.723 168.053C229.274 166.952 229.414 165 229.018 163.979C228.68 163.102 227.635 162.198 226.592 161.873C225.582 161.56 223.723 161.531 222.539 161.81C220.51 162.291 218.975 163.497 218.064 165.323C217.789 165.878 217.554 166.35 217.543 166.372L208.475 165.445C208.367 165.334 209.216 163.595 209.879 162.58C211.819 159.606 214.795 157.541 218.531 156.589C222.849 155.482 228.567 155.52 232.22 156.669C235.878 157.822 238.243 160.138 238.935 163.237C239.329 165.012 239.118 166.7 237.18 177.258C236.07 183.31 235.934 184.38 235.99 186.59L236.029 188.251H231.238C226.986 188.251 226.441 188.225 226.372 188.05C226.234 187.69 226.291 185.891 226.492 184.473C226.596 183.704 226.666 183.016 226.641 182.945C226.619 182.872 226.374 183.206 226.103 183.68C225.443 184.826 223.607 186.673 222.456 187.351C221.391 187.978 219.913 188.534 218.564 188.812C217.595 189.011 214.433 189.166 213.672 189.051ZM221.306 183.016C223.197 182.46 225.092 180.706 226.23 178.455C226.89 177.148 227.562 175.012 227.86 173.267L227.941 172.798H227.257C225.291 172.798 221.933 173.333 220.196 173.923C217.952 174.689 216.551 175.769 215.832 177.289C215.472 178.047 215.433 178.252 215.433 179.269C215.438 180.539 215.663 181.205 216.363 181.998C217.458 183.249 219.252 183.618 221.306 183.016Z" fill="#010202"/>
<path d="M243.812 187.78C243.861 187.518 245.179 180.353 246.743 171.858L249.58 156.406L254.442 156.375C257.119 156.356 259.31 156.375 259.31 156.414C259.31 156.458 259.029 158.034 258.68 159.923C258.333 161.81 258.054 163.431 258.056 163.527C258.056 163.616 258.359 163.122 258.728 162.422C259.721 160.534 260.51 159.413 261.634 158.291C262.741 157.186 263.697 156.606 264.928 156.287C265.683 156.094 268.359 155.817 268.474 155.925C268.527 155.971 267.677 163.804 267.521 164.708L267.455 165.101L266.111 165.178C264.596 165.265 263.608 165.497 262.514 166.022C260.466 167.001 258.441 169.561 257.473 172.405C256.829 174.285 256.394 176.407 254.442 187.153L254.242 188.254H248.982H243.723L243.812 187.78Z" fill="#010202"/>
<path d="M282.859 189.051C280.483 188.789 278.63 188.254 276.769 187.29C271.934 184.783 269.23 180.148 269.23 174.366C269.23 169.087 271.374 164.175 275.342 160.353C278.629 157.188 282.565 155.708 287.697 155.696C292.642 155.686 296.076 156.974 298.807 159.872C300.872 162.059 302.111 164.722 302.533 167.879C302.672 168.932 302.621 171.96 302.437 173.333L302.361 173.928H290.958H279.556L279.461 175.023C279.342 176.471 279.461 177.973 279.77 178.859C280.627 181.334 283.124 182.795 286.069 182.55C288.699 182.326 290.647 180.972 291.964 178.443L292.458 177.493L296.669 178.137C298.983 178.487 300.901 178.803 300.935 178.835C301.052 178.953 300.103 180.801 299.326 181.961C298.82 182.72 298.066 183.61 297.271 184.381C294.779 186.797 292.011 188.194 288.453 188.826C287.396 189.011 283.836 189.155 282.859 189.051ZM293.146 168.371C293.296 167.811 293.224 165.562 293.041 164.935C292.42 162.849 290.371 161.493 287.836 161.493C285.918 161.493 284.443 162.038 283.172 163.215C281.956 164.342 281.145 165.79 280.494 167.994L280.302 168.655H286.686H293.07L293.146 168.371Z" fill="#010202"/>
<path d="M108.704 76.1751C108.661 78.9741 107.599 83.8711 109.517 92.8541C109.517 92.8541 115.365 136.125 159.426 136.979C172.098 136.112 177.446 133.701 183.968 130.509C208.447 118.529 212.518 91.6861 212.518 91.6861H189.491C176.169 121.756 150.287 111.665 150.287 111.665L164.85 43.2481C192.827 44.0141 193.87 70.3711 193.87 70.3711H217.28C217.28 70.3711 218.926 42.6821 191.94 26.2561C186.41 22.8931 177.294 20.5261 168.371 20.3171C168.371 20.3161 118.537 17.1901 108.704 76.1751Z" fill="#E73137"/>
<path d="M308.118 27.7429L303.556 49.0599H264.347L259.779 70.3759H299.079L294.609 91.6919H255.308L250.835 113.006H290.138L285.57 134.226H206.396L228.947 27.7429H308.118Z" fill="#E73137"/>
<path d="M59.045 134.413L46.295 66.468L1 134.413H59.045Z" fill="#E73137"/>
<path d="M114.526 134.413H71.2279L56.0039 51.812L89.8799 1L114.526 134.413Z" fill="#E73137"/>
<path d="M289.644 128.889C289.644 125.738 292.199 123.411 295.224 123.411C298.21 123.411 300.765 125.737 300.765 128.889C300.765 132.069 298.21 134.391 295.224 134.391C292.198 134.391 289.644 132.069 289.644 128.889ZM295.224 133.475C297.703 133.475 299.663 131.531 299.663 128.889C299.663 126.285 297.703 124.327 295.224 124.327C292.707 124.327 290.747 126.285 290.747 128.889C290.747 131.531 292.707 133.475 295.224 133.475ZM294.058 132.069H293.099V125.738H295.507C297.009 125.738 297.747 126.286 297.747 127.54C297.747 128.672 297.033 129.161 296.107 129.277L297.906 132.069H296.831L295.162 129.328H294.058V132.069ZM295.206 128.509C296.019 128.509 296.745 128.454 296.745 127.475C296.745 126.695 296.032 126.55 295.364 126.55H294.057V128.509H295.206Z" fill="#E73137"/>
</svg>
