<svg width="140" height="48" viewBox="0 0 140 48" fill="none" xmlns="http://www.w3.org/2000/svg">
<g clip-path="url(#clip0_4691_12983)">
<path d="M59.2039 29.5476C58.7981 29.9432 58.3833 30.3539 57.8624 30.5864C54.8918 31.9122 51.9636 29.611 51.9969 26.5004C52.0362 22.7073 56.3605 20.4001 59.1706 23.4714C59.318 23.6304 59.3917 23.6023 59.3917 23.3868L59.3856 16.2869C59.3856 16.2486 59.4048 16.2295 59.4431 16.2295L60.6968 16.2325C60.7331 16.2325 60.7513 16.2506 60.7513 16.2869L60.7483 30.668C60.7483 30.7525 60.7059 30.7948 60.6211 30.7948H59.5219C59.5033 30.7948 59.4849 30.7912 59.4678 30.7842C59.4507 30.7772 59.4353 30.7669 59.4223 30.7539C59.4093 30.741 59.3991 30.7257 59.3923 30.7088C59.3855 30.692 59.3822 30.674 59.3826 30.6559L59.3947 29.6291C59.3967 29.4459 59.3331 29.4187 59.2039 29.5476ZM56.3822 29.623C57.1805 29.6174 57.9437 29.2853 58.5042 28.6998C59.0646 28.1142 59.3761 27.3232 59.3704 26.5006C59.3646 25.6781 59.042 24.8914 58.4734 24.3137C57.9049 23.736 57.137 23.4146 56.3387 23.4201C55.5405 23.4257 54.7772 23.7578 54.2168 24.3433C53.6564 24.9289 53.3448 25.72 53.3505 26.5425C53.3563 27.3651 53.6789 28.1517 54.2475 28.7294C54.816 29.3071 55.5839 29.6285 56.3822 29.623Z" fill="#AEADAD"/>
<path d="M16.7641 21.3725C16.7636 21.3886 16.7676 21.4044 16.7755 21.4183C16.7835 21.4323 16.7951 21.4438 16.8092 21.4516C16.8233 21.4593 16.8392 21.4631 16.8553 21.4625C16.8713 21.4619 16.8869 21.4569 16.9003 21.448C18.6627 20.3548 21.3851 20.4001 23.0778 21.6473C27.8048 25.1354 24.816 32.4166 18.9262 31.4804C16.4643 31.0878 14.4506 28.85 14.4294 26.3132C14.4112 23.8519 12.028 22.2332 9.79626 23.3959C7.3071 24.6915 7.70682 28.2822 10.3565 29.1006C11.6667 29.5073 12.8365 29.1177 13.8661 27.9319C13.9368 27.8514 13.9903 27.8614 14.0266 27.9621C14.279 28.6647 14.6201 29.2909 15.0501 29.8405C15.0773 29.8754 15.0905 29.9192 15.0872 29.9633C15.0838 30.0074 15.0641 30.0487 15.032 30.0791C12.8335 32.1629 9.39048 32.03 7.29196 29.8798C6.05647 28.6114 5.75365 27.349 5.74759 25.4525C5.74154 23.0708 5.74659 20.5853 5.76274 17.9962C5.77182 16.4198 8.0914 16.3231 8.13379 18.0838C8.15802 19.1428 8.16004 20.238 8.13985 21.3695C8.13951 21.3859 8.14361 21.402 8.15173 21.4162C8.15986 21.4305 8.17169 21.4422 8.18597 21.4503C8.20026 21.4583 8.21647 21.4624 8.23287 21.462C8.24927 21.4616 8.26527 21.4568 8.27914 21.448C10.1324 20.2612 12.994 20.4665 14.6837 21.8376C16.1857 23.0577 16.7247 24.4469 16.7762 26.2709C16.864 29.457 21.3941 30.4143 22.7356 27.4668C24.3254 23.9848 19.4925 21.2427 17.3576 24.3683C17.3472 24.3841 17.3327 24.3965 17.3155 24.4043C17.2983 24.4121 17.2793 24.4149 17.2606 24.4124C17.2419 24.4099 17.2244 24.4021 17.2099 24.3901C17.1954 24.378 17.1847 24.3621 17.1789 24.3442C16.7126 22.9489 15.8445 21.8235 14.5747 20.9678C14.5283 20.9374 14.4901 20.8958 14.4637 20.8467C14.4373 20.7977 14.4234 20.7428 14.4233 20.687L14.4294 17.966C14.4314 17.368 14.7211 16.9905 15.2984 16.8335C15.4095 16.8033 15.5205 16.7922 15.6315 16.8003C16.3845 16.8587 16.7621 17.2643 16.7641 18.0173V21.3725Z" fill="#AEADAD"/>
<path d="M37.2648 23.5801C38.5366 24.0935 39.2765 24.9985 39.4845 26.2951C39.9205 29.0281 37.9673 30.7073 35.348 30.7737C33.8803 30.8119 32.4672 30.818 31.1085 30.7918C31.0553 30.791 31.0044 30.7694 30.967 30.7315C30.9296 30.6936 30.9087 30.6426 30.9087 30.5895V17.7969C30.9087 17.666 30.9743 17.5975 31.1055 17.5915C32.8921 17.513 34.4315 17.5522 35.7235 17.7093C38.7092 18.0717 39.6419 21.7349 37.2406 23.3748C37.1215 23.4573 37.1296 23.5258 37.2648 23.5801ZM32.2956 19.0592L32.2895 22.8342C32.2895 22.8758 32.3061 22.9158 32.3357 22.9452C32.3652 22.9747 32.4052 22.9912 32.447 22.9912L35.0482 22.9942C35.3326 22.9947 35.6143 22.9466 35.8771 22.8526C36.14 22.7586 36.3789 22.6205 36.5803 22.4464C36.7816 22.2722 36.9414 22.0654 37.0506 21.8376C37.1597 21.6098 37.216 21.3656 37.2164 21.1188V20.7866C37.217 20.2885 36.9896 19.8105 36.5841 19.4577C36.1787 19.1049 35.6284 18.9061 35.0543 18.9052L32.4531 18.9022C32.4324 18.9022 32.4119 18.9062 32.3928 18.9141C32.3737 18.922 32.3563 18.9336 32.3417 18.9482C32.3271 18.9628 32.3155 18.9801 32.3076 18.9991C32.2997 19.0182 32.2956 19.0386 32.2956 19.0592ZM32.2895 24.5133L32.2835 29.3271C32.2835 29.3688 32.3001 29.4087 32.3296 29.4382C32.3591 29.4676 32.3992 29.4842 32.4409 29.4842L35.4449 29.4902C36.1704 29.4911 36.8666 29.2283 37.3805 28.7594C37.8943 28.2906 38.1838 27.654 38.1854 26.9897V26.8749C38.1861 26.5455 38.116 26.2192 37.979 25.9146C37.8419 25.6101 37.6407 25.3332 37.3867 25.0998C37.1328 24.8665 36.8311 24.6812 36.4989 24.5547C36.1668 24.4281 35.8107 24.3627 35.4509 24.3623L32.447 24.3562C32.4052 24.3562 32.3652 24.3728 32.3357 24.4022C32.3061 24.4317 32.2895 24.4716 32.2895 24.5133Z" fill="#AEADAD"/>
<path d="M90.5667 23.5863C91.8204 24.0856 92.5572 24.9846 92.7773 26.2831C93.2164 28.8833 91.3934 30.65 88.8467 30.7527C87.4457 30.8091 85.9649 30.8191 84.4044 30.7829C84.2772 30.7809 84.2136 30.7155 84.2136 30.5866L84.2167 17.7517C84.2167 17.7291 84.2211 17.7067 84.2298 17.6858C84.2385 17.665 84.2512 17.646 84.2672 17.63C84.2832 17.614 84.3023 17.6013 84.3232 17.5927C84.3441 17.584 84.3666 17.5796 84.3893 17.5796C86.0093 17.5886 88.4561 17.3591 89.9308 17.948C92.2928 18.8903 92.5472 22.0159 90.5425 23.3719C90.4153 23.4585 90.4234 23.5299 90.5667 23.5863ZM85.5793 18.9537L85.5672 22.9219C85.5672 22.9395 85.5742 22.9564 85.5867 22.9689C85.5992 22.9814 85.6162 22.9884 85.6338 22.9884L88.3138 22.9974C88.8957 22.9993 89.4544 22.8032 89.8672 22.4521C90.28 22.101 90.5131 21.6237 90.5153 21.125V20.7868C90.5163 20.5396 90.4605 20.2945 90.3511 20.0657C90.2416 19.8368 90.0806 19.6287 89.8773 19.4531C89.674 19.2775 89.4323 19.138 89.1661 19.0424C88.8999 18.9469 88.6144 18.8972 88.3259 18.8963L85.646 18.8872C85.6372 18.8872 85.6285 18.889 85.6205 18.8923C85.6124 18.8956 85.605 18.9005 85.5988 18.9067C85.5927 18.9129 85.5878 18.9202 85.5844 18.9282C85.5811 18.9363 85.5793 18.9449 85.5793 18.9537ZM85.5793 24.4712L85.5733 29.3696C85.5733 29.3854 85.5764 29.4011 85.5825 29.4158C85.5886 29.4304 85.5975 29.4438 85.6088 29.455C85.62 29.4662 85.6334 29.4751 85.648 29.4812C85.6627 29.4872 85.6785 29.4904 85.6944 29.4904L88.7347 29.4964C89.4618 29.4973 90.1596 29.2342 90.6746 28.7647C91.1896 28.2953 91.4797 27.658 91.4812 26.9928V26.872C91.482 26.5423 91.4117 26.2156 91.2743 25.9106C91.137 25.6057 90.9353 25.3285 90.6808 25.0948C90.4263 24.8612 90.1239 24.6757 89.791 24.549C89.4582 24.4223 89.1013 24.3569 88.7407 24.3564L85.7005 24.3504C85.6845 24.3504 85.6688 24.3535 85.6541 24.3596C85.6394 24.3656 85.6261 24.3745 85.6148 24.3857C85.6036 24.397 85.5946 24.4103 85.5886 24.4249C85.5825 24.4396 85.5793 24.4553 85.5793 24.4712Z" fill="#AEADAD"/>
<path d="M113.865 28.6053L116.309 22.3086C116.317 22.2906 116.329 22.2752 116.345 22.2644C116.361 22.2537 116.381 22.248 116.4 22.2482L117.711 22.2392C117.728 22.2388 117.744 22.2425 117.758 22.25C117.773 22.2575 117.785 22.2686 117.794 22.2822C117.803 22.2957 117.809 22.3114 117.81 22.3276C117.811 22.3438 117.809 22.3602 117.802 22.3751L113.869 31.6705C113.861 31.6881 113.849 31.7031 113.833 31.7136C113.817 31.7241 113.798 31.7297 113.779 31.7297C113.76 31.7297 113.741 31.7241 113.726 31.7136C113.71 31.7031 113.697 31.6881 113.69 31.6705L111.095 25.2018C111.088 25.1834 111.075 25.1676 111.058 25.1566C111.042 25.1456 111.023 25.1399 111.003 25.1402C110.983 25.1406 110.964 25.1469 110.948 25.1585C110.932 25.17 110.92 25.1862 110.913 25.2048L108.333 31.6766C108.326 31.6941 108.313 31.7091 108.297 31.7196C108.281 31.7302 108.263 31.7358 108.244 31.7358C108.225 31.7358 108.206 31.7302 108.19 31.7196C108.174 31.7091 108.162 31.6941 108.154 31.6766L104.197 22.3841C104.191 22.3694 104.188 22.3534 104.19 22.3376C104.192 22.3217 104.197 22.3066 104.206 22.2934C104.215 22.2803 104.227 22.2696 104.242 22.2622C104.256 22.2548 104.271 22.2511 104.287 22.2512L105.605 22.2663C105.624 22.2661 105.643 22.2718 105.659 22.2826C105.676 22.2933 105.688 22.3087 105.695 22.3267L108.148 28.6113C108.155 28.6298 108.168 28.6458 108.184 28.657C108.2 28.6683 108.219 28.6743 108.239 28.6743C108.259 28.6743 108.278 28.6683 108.294 28.657C108.311 28.6458 108.323 28.6298 108.33 28.6113L110.91 22.0308C110.917 22.0123 110.929 21.9963 110.945 21.9851C110.962 21.9738 110.981 21.9678 111.001 21.9678C111.021 21.9678 111.04 21.9738 111.056 21.9851C111.072 21.9963 111.085 22.0123 111.092 22.0308L113.684 28.6053C113.691 28.6238 113.703 28.6397 113.719 28.651C113.736 28.6622 113.755 28.6683 113.775 28.6683C113.794 28.6683 113.814 28.6622 113.83 28.651C113.846 28.6397 113.859 28.6238 113.865 28.6053Z" fill="#AEADAD"/>
<path d="M48.0541 29.5658C44.7292 33.1445 39.9265 29.4963 41.0439 25.2261C41.8979 21.9615 45.8224 20.983 48.0905 23.5228C48.2136 23.6597 48.2732 23.6356 48.2691 23.4504L48.254 22.3964C48.252 22.2957 48.3014 22.2454 48.4024 22.2454L49.4592 22.2514C49.5682 22.2514 49.6227 22.3048 49.6227 22.4115L49.6197 30.6228C49.6197 30.7396 49.5622 30.798 49.4471 30.798L48.3963 30.801C48.3775 30.8014 48.3588 30.798 48.3414 30.791C48.3239 30.784 48.3081 30.7736 48.2948 30.7603C48.2815 30.7471 48.271 30.7312 48.264 30.7138C48.257 30.6964 48.2536 30.6778 48.254 30.659L48.2691 29.6534C48.2732 29.438 48.2015 29.4088 48.0541 29.5658ZM48.2934 26.5217C48.2934 26.1207 48.2142 25.7237 48.0603 25.3533C47.9065 24.9828 47.681 24.6463 47.3967 24.3627C47.1124 24.0792 46.7749 23.8543 46.4035 23.7009C46.032 23.5474 45.6339 23.4685 45.2319 23.4685C44.4199 23.4685 43.6412 23.7902 43.0671 24.3627C42.493 24.9353 42.1704 25.7119 42.1704 26.5217C42.1704 27.3314 42.493 28.108 43.0671 28.6806C43.6412 29.2532 44.4199 29.5749 45.2319 29.5749C45.6339 29.5749 46.032 29.4959 46.4035 29.3425C46.7749 29.189 47.1124 28.9641 47.3967 28.6806C47.681 28.3971 47.9065 28.0605 48.0603 27.6901C48.2142 27.3196 48.2934 26.9226 48.2934 26.5217Z" fill="#AEADAD"/>
<path d="M103.015 26.4823C103.015 27.6637 102.545 28.7967 101.707 29.6321C100.87 30.4674 99.7334 30.9368 98.5488 30.9368C97.3642 30.9368 96.2281 30.4674 95.3905 29.6321C94.5529 28.7967 94.0823 27.6637 94.0823 26.4823C94.0823 25.3009 94.5529 24.1679 95.3905 23.3325C96.2281 22.4971 97.3642 22.0278 98.5488 22.0278C99.7334 22.0278 100.87 22.4971 101.707 23.3325C102.545 24.1679 103.015 25.3009 103.015 26.4823ZM101.653 26.4793C101.653 25.6591 101.326 24.8725 100.744 24.2926C100.163 23.7126 99.3742 23.3868 98.5518 23.3868C97.7295 23.3868 96.9407 23.7126 96.3592 24.2926C95.7777 24.8725 95.451 25.6591 95.451 26.4793C95.451 26.8854 95.5312 27.2875 95.687 27.6627C95.8429 28.0379 96.0713 28.3788 96.3592 28.666C96.6472 28.9531 96.989 29.1809 97.3652 29.3363C97.7414 29.4917 98.1446 29.5717 98.5518 29.5717C98.9591 29.5717 99.3623 29.4917 99.7385 29.3363C100.115 29.1809 100.457 28.9531 100.744 28.666C101.032 28.3788 101.261 28.0379 101.417 27.6627C101.572 27.2875 101.653 26.8854 101.653 26.4793Z" fill="#AEADAD"/>
<path d="M120.542 27.2798C121.344 29.7954 124.48 30.4811 125.837 28.3508C125.908 28.2763 125.994 28.239 126.095 28.239L127.4 28.2854C127.558 28.2854 127.597 28.3529 127.519 28.4878C126.38 30.4367 124.591 31.2108 122.465 30.8101C119.525 30.2545 118.181 26.8981 119.543 24.3492C121.821 20.0963 127.804 21.6577 128.034 26.7399C128.042 26.9065 127.907 27.0442 127.74 27.0442C126.436 27.0443 121.308 27.0445 120.714 27.0442C120.549 27.0442 120.491 27.1227 120.542 27.2798ZM123.414 23.2341C121.342 23.2341 120.675 25.1118 120.516 25.7027C120.492 25.7937 120.561 25.8785 120.655 25.8785H126.29C126.387 25.8785 126.457 25.7893 126.428 25.6968C126.238 25.0994 125.479 23.2341 123.414 23.2341Z" fill="#AEADAD"/>
<path d="M64.5401 27.2798C65.3426 29.7954 68.4782 30.4811 69.8359 28.3508C69.9066 28.2763 69.9924 28.239 70.0933 28.239L71.399 28.2854C71.5564 28.2854 71.5958 28.3529 71.5171 28.4878C70.3785 30.4367 68.5897 31.2108 66.4639 30.8101C63.5236 30.2545 62.1791 26.8981 63.5417 24.3492C65.8195 20.0963 71.8025 21.6577 72.0327 26.7399C72.0403 26.9065 71.9056 27.0442 71.7389 27.0442C70.4346 27.0443 65.3061 27.0445 64.7127 27.0442C64.5472 27.0442 64.4896 27.1227 64.5401 27.2798ZM67.4121 23.2341C65.3402 23.2341 64.6732 25.1118 64.5146 25.7027C64.4902 25.7937 64.5598 25.8785 64.654 25.8785H70.2886C70.3856 25.8785 70.4558 25.7893 70.4263 25.6968C70.2362 25.0994 69.4772 23.2341 67.4121 23.2341Z" fill="#AEADAD"/>
<path d="M75.653 23.4836C75.653 23.4994 75.658 23.5148 75.6673 23.5277C75.6766 23.5406 75.6897 23.5502 75.7048 23.5552C75.7198 23.5602 75.7361 23.5603 75.7513 23.5556C75.7665 23.5509 75.7797 23.5415 75.7893 23.5289C77.5608 21.0585 81.4913 21.8649 81.5549 25.1325C81.5852 26.7371 81.5933 28.5893 81.5791 30.6892C81.5791 30.7617 81.5428 30.7979 81.4701 30.7979L80.3194 30.7889C80.2488 30.7889 80.2134 30.7536 80.2134 30.6832C80.2154 28.9678 80.2165 27.2938 80.2165 25.661C80.2165 24.8184 79.9712 23.7161 79.0203 23.5138C76.9188 23.0668 75.7257 24.8607 75.6803 26.8116C75.652 28.1041 75.6459 29.3977 75.6621 30.6922C75.6641 30.7627 75.6298 30.7979 75.5591 30.7979L74.3963 30.7919C74.3297 30.7919 74.2964 30.7597 74.2964 30.6953V22.3933C74.2964 22.2947 74.3458 22.2454 74.4448 22.2454H75.4925C75.5154 22.2454 75.5381 22.25 75.5593 22.259C75.5804 22.268 75.5996 22.2811 75.6156 22.2977C75.6317 22.3143 75.6444 22.334 75.6529 22.3556C75.6614 22.3772 75.6655 22.4003 75.6651 22.4235L75.653 23.4836Z" fill="#AEADAD"/>
<path d="M131.662 23.4987C132.222 22.4115 133.122 21.8558 134.381 22.1759C134.5 22.2061 134.561 22.2826 134.563 22.4054L134.575 23.8429C134.575 23.8572 134.572 23.8712 134.565 23.8837C134.558 23.8961 134.548 23.9065 134.535 23.9139C134.523 23.9212 134.509 23.9252 134.495 23.9255C134.481 23.9258 134.466 23.9223 134.454 23.9154C132.652 22.8735 131.607 24.8577 131.556 26.3314C131.514 27.6481 131.51 29.0937 131.544 30.6681C131.544 30.6842 131.541 30.7002 131.536 30.7152C131.53 30.7302 131.521 30.7439 131.509 30.7555C131.498 30.767 131.485 30.7762 131.47 30.7824C131.455 30.7887 131.439 30.7919 131.423 30.7919L130.308 30.7979C130.29 30.7979 130.272 30.7943 130.255 30.7874C130.238 30.7804 130.223 30.7702 130.21 30.7573C130.197 30.7444 130.187 30.729 130.18 30.7122C130.173 30.6953 130.169 30.6773 130.169 30.659L130.166 22.4326C130.166 22.3078 130.228 22.2464 130.351 22.2484H131.368C131.485 22.2484 131.543 22.3078 131.541 22.4266L131.523 23.4624C131.519 23.6779 131.565 23.6899 131.662 23.4987Z" fill="#AEADAD"/>
</g>
<defs>
<clipPath id="clip0_4691_12983">
<rect width="129" height="16.0059" fill="white" transform="translate(5.68408 15.9971)"/>
</clipPath>
</defs>
</svg>
