<svg width="140" height="48" viewBox="0 0 140 48" fill="none" xmlns="http://www.w3.org/2000/svg">
<g clip-path="url(#clip0_358_2916)">
<path d="M59.2038 29.5476C58.7981 29.9432 58.3832 30.3539 57.8624 30.5864C54.8917 31.9122 51.9635 29.611 51.9968 26.5004C52.0362 22.7073 56.3604 20.4001 59.1705 23.4714C59.3179 23.6304 59.3916 23.6023 59.3916 23.3868L59.3855 16.2869C59.3855 16.2486 59.4047 16.2295 59.4431 16.2295L60.6967 16.2325C60.7331 16.2325 60.7512 16.2506 60.7512 16.2869L60.7482 30.668C60.7482 30.7525 60.7058 30.7948 60.621 30.7948H59.5218C59.5032 30.7948 59.4849 30.7912 59.4678 30.7842C59.4507 30.7772 59.4352 30.7669 59.4222 30.7539C59.4092 30.741 59.399 30.7257 59.3922 30.7088C59.3854 30.692 59.3821 30.674 59.3825 30.6559L59.3946 29.6291C59.3966 29.4459 59.333 29.4187 59.2038 29.5476ZM56.3821 29.623C57.1804 29.6174 57.9437 29.2853 58.5041 28.6998C59.0645 28.1142 59.3761 27.3232 59.3703 26.5006C59.3646 25.6781 59.0419 24.8914 58.4734 24.3137C57.9048 23.736 57.137 23.4146 56.3387 23.4201C55.5404 23.4257 54.7771 23.7578 54.2167 24.3433C53.6563 24.9289 53.3447 25.72 53.3505 26.5425C53.3562 27.3651 53.6789 28.1517 54.2474 28.7294C54.8159 29.3071 55.5838 29.6285 56.3821 29.623Z" fill="black"/>
<path d="M16.764 21.3725C16.7635 21.3886 16.7675 21.4044 16.7754 21.4183C16.7834 21.4323 16.795 21.4438 16.8091 21.4516C16.8231 21.4593 16.8391 21.4631 16.8552 21.4625C16.8712 21.4619 16.8868 21.4569 16.9002 21.448C18.6626 20.3548 21.3849 20.4001 23.0777 21.6473C27.8047 25.1354 24.8159 32.4166 18.9261 31.4804C16.4642 31.0878 14.4504 28.85 14.4292 26.3132C14.4111 23.8519 12.0279 22.2332 9.79614 23.3959C7.30698 24.6915 7.7067 28.2822 10.3563 29.1006C11.6665 29.5073 12.8364 29.1177 13.866 27.9319C13.9367 27.8514 13.9901 27.8614 14.0265 27.9621C14.2788 28.6647 14.62 29.2909 15.05 29.8405C15.0772 29.8754 15.0904 29.9192 15.0871 29.9633C15.0837 30.0074 15.064 30.0487 15.0318 30.0791C12.8334 32.1629 9.39036 32.03 7.29184 29.8798C6.05635 28.6114 5.75353 27.349 5.74747 25.4525C5.74142 23.0708 5.74646 20.5853 5.76261 17.9962C5.7717 16.4198 8.09128 16.3231 8.13367 18.0838C8.1579 19.1428 8.15991 20.238 8.13973 21.3695C8.13938 21.3859 8.14349 21.402 8.15161 21.4162C8.15973 21.4305 8.17157 21.4422 8.18585 21.4503C8.20014 21.4583 8.21634 21.4624 8.23275 21.462C8.24915 21.4616 8.26514 21.4567 8.27902 21.448C10.1323 20.2612 12.9939 20.4665 14.6836 21.8376C16.1856 23.0577 16.7246 24.4469 16.7761 26.2709C16.8639 29.457 21.394 30.4143 22.7355 27.4668C24.3253 23.9848 19.4923 21.2427 17.3575 24.3683C17.3471 24.3841 17.3325 24.3965 17.3154 24.4043C17.2982 24.4121 17.2792 24.4149 17.2605 24.4124C17.2418 24.4099 17.2242 24.4021 17.2098 24.3901C17.1953 24.378 17.1846 24.3621 17.1788 24.3442C16.7125 22.9489 15.8444 21.8235 14.5746 20.9678C14.5282 20.9374 14.49 20.8958 14.4636 20.8467C14.4372 20.7977 14.4233 20.7428 14.4232 20.687L14.4292 17.966C14.4313 17.368 14.7209 16.9905 15.2983 16.8335C15.4094 16.8033 15.5204 16.7922 15.6314 16.8003C16.3844 16.8587 16.7619 17.2643 16.764 18.0173V21.3725Z" fill="#151618"/>
<path d="M37.2648 23.5804C38.5366 24.0938 39.2765 24.9987 39.4845 26.2953C39.9205 29.0284 37.9673 30.7075 35.348 30.7739C33.8803 30.8122 32.4672 30.8182 31.1085 30.7921C31.0553 30.7913 31.0044 30.7696 30.967 30.7317C30.9296 30.6939 30.9087 30.6429 30.9087 30.5897V17.7971C30.9087 17.6662 30.9743 17.5978 31.1055 17.5917C32.8921 17.5132 34.4315 17.5525 35.7235 17.7095C38.7092 18.0719 39.6419 21.7352 37.2406 23.375C37.1215 23.4575 37.1296 23.526 37.2648 23.5804ZM32.2956 19.0595L32.2895 22.8344C32.2895 22.8761 32.3061 22.916 32.3357 22.9455C32.3652 22.9749 32.4052 22.9915 32.447 22.9915L35.0482 22.9945C35.3326 22.9949 35.6143 22.9468 35.8771 22.8528C36.14 22.7588 36.3789 22.6208 36.5803 22.4466C36.7816 22.2725 36.9414 22.0656 37.0506 21.8378C37.1597 21.61 37.216 21.3658 37.2164 21.1191V20.7869C37.217 20.2888 36.9896 19.8108 36.5841 19.4579C36.1787 19.1051 35.6284 18.9064 35.0543 18.9054L32.4531 18.9024C32.4324 18.9024 32.4119 18.9065 32.3928 18.9144C32.3737 18.9223 32.3563 18.9338 32.3417 18.9484C32.3271 18.963 32.3155 18.9803 32.3076 18.9994C32.2997 19.0184 32.2956 19.0388 32.2956 19.0595ZM32.2895 24.5135L32.2835 29.3274C32.2835 29.369 32.3001 29.409 32.3296 29.4384C32.3591 29.4679 32.3992 29.4844 32.4409 29.4844L35.4449 29.4904C36.1704 29.4914 36.8666 29.2285 37.3805 28.7597C37.8943 28.2908 38.1838 27.6543 38.1854 26.9899V26.8751C38.1861 26.5458 38.116 26.2195 37.979 25.9149C37.8419 25.6103 37.6407 25.3334 37.3867 25.1001C37.1328 24.8667 36.8311 24.6815 36.4989 24.5549C36.1668 24.4284 35.8107 24.363 35.4509 24.3625L32.447 24.3565C32.4052 24.3565 32.3652 24.373 32.3357 24.4025C32.3061 24.4319 32.2895 24.4719 32.2895 24.5135Z" fill="black"/>
<path d="M90.5667 23.5863C91.8203 24.0856 92.5572 24.9846 92.7772 26.2831C93.2163 28.8833 91.3934 30.65 88.8467 30.7527C87.4456 30.8091 85.9649 30.8191 84.4043 30.7829C84.2772 30.7809 84.2136 30.7155 84.2136 30.5866L84.2166 17.7517C84.2166 17.7291 84.2211 17.7067 84.2297 17.6858C84.2384 17.665 84.2511 17.646 84.2672 17.63C84.2832 17.614 84.3022 17.6013 84.3231 17.5927C84.3441 17.584 84.3665 17.5796 84.3892 17.5796C86.0093 17.5886 88.456 17.3591 89.9307 17.948C92.2927 18.8903 92.5471 22.0159 90.5424 23.3719C90.4153 23.4585 90.4233 23.5299 90.5667 23.5863ZM85.5793 18.9537L85.5672 22.9219C85.5672 22.9395 85.5742 22.9564 85.5867 22.9689C85.5992 22.9814 85.6161 22.9884 85.6338 22.9884L88.3137 22.9974C88.8956 22.9993 89.4543 22.8032 89.8671 22.4521C90.2799 22.101 90.513 21.6237 90.5152 21.125V20.7868C90.5163 20.5396 90.4605 20.2945 90.351 20.0657C90.2416 19.8368 90.0806 19.6287 89.8772 19.4531C89.6739 19.2775 89.4322 19.138 89.166 19.0424C88.8998 18.9469 88.6143 18.8972 88.3258 18.8963L85.6459 18.8872C85.6371 18.8872 85.6285 18.889 85.6204 18.8923C85.6123 18.8956 85.605 18.9005 85.5988 18.9067C85.5926 18.9129 85.5877 18.9202 85.5843 18.9282C85.581 18.9363 85.5793 18.9449 85.5793 18.9537ZM85.5793 24.4712L85.5732 29.3696C85.5732 29.3854 85.5763 29.4011 85.5824 29.4158C85.5885 29.4304 85.5974 29.4438 85.6087 29.455C85.6199 29.4662 85.6333 29.4751 85.648 29.4812C85.6627 29.4872 85.6784 29.4904 85.6943 29.4904L88.7346 29.4964C89.4618 29.4973 90.1595 29.2342 90.6745 28.7647C91.1895 28.2953 91.4796 27.658 91.4812 26.9928V26.872C91.4819 26.5423 91.4116 26.2156 91.2743 25.9106C91.1369 25.6057 90.9352 25.3285 90.6807 25.0948C90.4262 24.8612 90.1239 24.6757 89.791 24.549C89.4581 24.4223 89.1012 24.3569 88.7407 24.3564L85.7004 24.3504C85.6845 24.3504 85.6687 24.3535 85.654 24.3596C85.6393 24.3656 85.626 24.3745 85.6147 24.3857C85.6035 24.397 85.5946 24.4103 85.5885 24.4249C85.5824 24.4396 85.5793 24.4553 85.5793 24.4712Z" fill="black"/>
<path d="M113.865 28.6055L116.309 22.3089C116.316 22.2909 116.329 22.2755 116.345 22.2647C116.361 22.2539 116.38 22.2483 116.4 22.2485L117.711 22.2394C117.727 22.239 117.744 22.2428 117.758 22.2503C117.773 22.2578 117.785 22.2688 117.794 22.2824C117.803 22.296 117.809 22.3116 117.81 22.3278C117.811 22.3441 117.809 22.3604 117.802 22.3753L113.868 31.6708C113.861 31.6883 113.849 31.7033 113.833 31.7138C113.817 31.7244 113.798 31.73 113.779 31.73C113.76 31.73 113.741 31.7244 113.725 31.7138C113.71 31.7033 113.697 31.6883 113.69 31.6708L111.095 25.202C111.087 25.1836 111.075 25.1679 111.058 25.1569C111.042 25.1459 111.022 25.1401 111.003 25.1405C110.983 25.1408 110.964 25.1472 110.948 25.1587C110.932 25.1702 110.919 25.1864 110.913 25.205L108.333 31.6768C108.325 31.6944 108.313 31.7093 108.297 31.7199C108.281 31.7304 108.263 31.736 108.244 31.736C108.224 31.736 108.206 31.7304 108.19 31.7199C108.174 31.7093 108.162 31.6944 108.154 31.6768L104.196 22.3844C104.19 22.3696 104.188 22.3536 104.19 22.3378C104.192 22.322 104.197 22.3068 104.206 22.2937C104.215 22.2805 104.227 22.2698 104.241 22.2624C104.256 22.2551 104.271 22.2513 104.287 22.2515L105.605 22.2666C105.624 22.2664 105.643 22.272 105.659 22.2828C105.675 22.2936 105.688 22.309 105.695 22.327L108.148 28.6115C108.155 28.63 108.167 28.646 108.184 28.6573C108.2 28.6685 108.219 28.6746 108.239 28.6746C108.259 28.6746 108.278 28.6685 108.294 28.6573C108.311 28.646 108.323 28.63 108.33 28.6115L110.91 22.031C110.917 22.0125 110.929 21.9966 110.945 21.9853C110.962 21.9741 110.981 21.968 111.001 21.968C111.02 21.968 111.04 21.9741 111.056 21.9853C111.072 21.9966 111.085 22.0125 111.092 22.031L113.684 28.6055C113.691 28.624 113.703 28.64 113.719 28.6512C113.735 28.6625 113.755 28.6685 113.775 28.6685C113.794 28.6685 113.814 28.6625 113.83 28.6512C113.846 28.64 113.858 28.624 113.865 28.6055Z" fill="black"/>
<path d="M48.0542 29.5658C44.7293 33.1445 39.9266 29.4963 41.044 25.2261C41.8979 21.9615 45.8224 20.983 48.0905 23.5228C48.2137 23.6597 48.2732 23.6356 48.2692 23.4504L48.2541 22.3964C48.252 22.2957 48.3015 22.2454 48.4024 22.2454L49.4593 22.2514C49.5683 22.2514 49.6228 22.3048 49.6228 22.4115L49.6198 30.6228C49.6198 30.7396 49.5622 30.798 49.4472 30.798L48.3964 30.801C48.3776 30.8014 48.3589 30.798 48.3414 30.791C48.324 30.784 48.3081 30.7736 48.2948 30.7603C48.2815 30.7471 48.2711 30.7312 48.264 30.7138C48.257 30.6964 48.2536 30.6778 48.2541 30.659L48.2692 29.6534C48.2732 29.438 48.2016 29.4088 48.0542 29.5658ZM48.2934 26.5217C48.2934 26.1207 48.2142 25.7237 48.0604 25.3533C47.9065 24.9828 47.681 24.6463 47.3967 24.3627C47.1125 24.0792 46.775 23.8543 46.4035 23.7009C46.0321 23.5474 45.634 23.4685 45.2319 23.4685C44.42 23.4685 43.6413 23.7902 43.0672 24.3627C42.493 24.9353 42.1705 25.7119 42.1705 26.5217C42.1705 27.3314 42.493 28.108 43.0672 28.6806C43.6413 29.2532 44.42 29.5749 45.2319 29.5749C45.634 29.5749 46.0321 29.4959 46.4035 29.3425C46.775 29.189 47.1125 28.9641 47.3967 28.6806C47.681 28.3971 47.9065 28.0605 48.0604 27.6901C48.2142 27.3196 48.2934 26.9226 48.2934 26.5217Z" fill="black"/>
<path d="M103.015 26.4823C103.015 27.6637 102.545 28.7967 101.707 29.6321C100.87 30.4674 99.7335 30.9368 98.5489 30.9368C97.3643 30.9368 96.2282 30.4674 95.3906 29.6321C94.5529 28.7967 94.0823 27.6637 94.0823 26.4823C94.0823 25.3009 94.5529 24.1679 95.3906 23.3325C96.2282 22.4971 97.3643 22.0278 98.5489 22.0278C99.7335 22.0278 100.87 22.4971 101.707 23.3325C102.545 24.1679 103.015 25.3009 103.015 26.4823ZM101.653 26.4793C101.653 25.6591 101.326 24.8725 100.745 24.2926C100.163 23.7126 99.3743 23.3868 98.5519 23.3868C97.7295 23.3868 96.9408 23.7126 96.3593 24.2926C95.7778 24.8725 95.4511 25.6591 95.4511 26.4793C95.4511 26.8854 95.5313 27.2875 95.6871 27.6627C95.8429 28.0379 96.0713 28.3788 96.3593 28.666C96.6472 28.9531 96.9891 29.1809 97.3653 29.3363C97.7415 29.4917 98.1447 29.5717 98.5519 29.5717C98.9591 29.5717 99.3623 29.4917 99.7385 29.3363C100.115 29.1809 100.457 28.9531 100.745 28.666C101.032 28.3788 101.261 28.0379 101.417 27.6627C101.573 27.2875 101.653 26.8854 101.653 26.4793Z" fill="black"/>
<path d="M120.541 27.2798C121.344 29.7954 124.48 30.4811 125.837 28.3508C125.908 28.2763 125.994 28.239 126.095 28.239L127.4 28.2854C127.558 28.2854 127.597 28.3529 127.518 28.4878C126.38 30.4367 124.591 31.2108 122.465 30.8101C119.525 30.2545 118.18 26.8981 119.543 24.3492C121.821 20.0963 127.804 21.6577 128.034 26.7399C128.042 26.9065 127.907 27.0442 127.74 27.0442C126.436 27.0443 121.308 27.0445 120.714 27.0442C120.549 27.0442 120.491 27.1227 120.541 27.2798ZM123.414 23.2341C121.342 23.2341 120.675 25.1118 120.516 25.7027C120.492 25.7937 120.561 25.8785 120.655 25.8785H126.29C126.387 25.8785 126.457 25.7893 126.428 25.6968C126.238 25.0994 125.479 23.2341 123.414 23.2341Z" fill="black"/>
<path d="M64.54 27.2798C65.3424 29.7954 68.4781 30.4811 69.8358 28.3508C69.9065 28.2763 69.9923 28.239 70.0932 28.239L71.3988 28.2854C71.5563 28.2854 71.5957 28.3529 71.5169 28.4878C70.3784 30.4367 68.5896 31.2108 66.4638 30.8101C63.5234 30.2545 62.1789 26.8981 63.5416 24.3492C65.8194 20.0963 71.8024 21.6577 72.0326 26.7399C72.0401 26.9065 71.9055 27.0442 71.7387 27.0442C70.4345 27.0443 65.306 27.0445 64.7126 27.0442C64.547 27.0442 64.4895 27.1227 64.54 27.2798ZM67.412 23.2341C65.34 23.2341 64.6731 25.1118 64.5145 25.7027C64.49 25.7937 64.5597 25.8785 64.6538 25.8785H70.2884C70.3855 25.8785 70.4556 25.7893 70.4262 25.6968C70.2361 25.0994 69.4771 23.2341 67.412 23.2341Z" fill="black"/>
<path d="M75.6529 23.4838C75.6529 23.4996 75.6579 23.5151 75.6672 23.5279C75.6765 23.5408 75.6896 23.5504 75.7047 23.5554C75.7198 23.5604 75.7361 23.5606 75.7512 23.5559C75.7664 23.5511 75.7797 23.5418 75.7892 23.5291C77.5607 21.0588 81.4913 21.8651 81.5548 25.1327C81.5851 26.7373 81.5932 28.5896 81.5791 30.6895C81.5791 30.7619 81.5427 30.7982 81.4701 30.7982L80.3194 30.7891C80.2487 30.7891 80.2134 30.7539 80.2134 30.6834C80.2154 28.9681 80.2164 27.294 80.2164 25.6612C80.2164 24.8186 79.9711 23.7163 79.0203 23.514C76.9187 23.067 75.7256 24.8609 75.6802 26.8118C75.6519 28.1044 75.6459 29.3979 75.662 30.6925C75.664 30.7629 75.6297 30.7982 75.5591 30.7982L74.3963 30.7921C74.3296 30.7921 74.2963 30.7599 74.2963 30.6955V22.3936C74.2963 22.2949 74.3458 22.2456 74.4447 22.2456H75.4925C75.5154 22.2456 75.5381 22.2502 75.5592 22.2592C75.5804 22.2682 75.5995 22.2814 75.6156 22.298C75.6316 22.3145 75.6443 22.3342 75.6528 22.3558C75.6613 22.3774 75.6655 22.4005 75.6651 22.4238L75.6529 23.4838Z" fill="black"/>
<path d="M131.662 23.4987C132.222 22.4115 133.122 21.8558 134.381 22.1759C134.5 22.2061 134.561 22.2826 134.563 22.4054L134.575 23.8429C134.575 23.8572 134.572 23.8712 134.565 23.8837C134.558 23.8961 134.548 23.9065 134.535 23.9139C134.523 23.9212 134.509 23.9252 134.495 23.9255C134.481 23.9258 134.466 23.9223 134.454 23.9154C132.652 22.8735 131.607 24.8577 131.556 26.3314C131.514 27.6481 131.51 29.0937 131.544 30.6681C131.544 30.6842 131.541 30.7002 131.536 30.7152C131.53 30.7302 131.521 30.7439 131.509 30.7555C131.498 30.767 131.485 30.7762 131.47 30.7824C131.455 30.7887 131.439 30.7919 131.423 30.7919L130.308 30.7979C130.29 30.7979 130.272 30.7943 130.255 30.7874C130.238 30.7804 130.223 30.7702 130.21 30.7573C130.197 30.7444 130.187 30.729 130.18 30.7122C130.173 30.6953 130.169 30.6773 130.169 30.659L130.166 22.4326C130.166 22.3078 130.228 22.2464 130.351 22.2484H131.368C131.485 22.2484 131.543 22.3078 131.541 22.4266L131.523 23.4624C131.519 23.6779 131.565 23.6899 131.662 23.4987Z" fill="black"/>
</g>
<defs>
<clipPath id="clip0_358_2916">
<rect width="129" height="16.0059" fill="white" transform="translate(5.68402 15.9971)"/>
</clipPath>
</defs>
</svg>
