<svg width="140" height="48" viewBox="0 0 140 48" fill="none" xmlns="http://www.w3.org/2000/svg">
<path d="M24.0729 25.8747C23.6215 25.9657 23.2721 25.669 23.0245 24.9848C23.0156 24.9602 22.9999 24.9382 22.9792 24.9211C22.9584 24.904 22.9332 24.8924 22.9062 24.8874C22.4242 24.803 22.0243 24.5853 21.7067 24.2346C21.6322 24.1501 21.538 24.1079 21.424 24.1079C21.1085 24.1079 20.8029 24.1112 20.5071 24.1177C20.2464 24.1241 20.1084 24.2508 20.0931 24.4977C20.0865 24.6016 20.0438 24.686 19.9649 24.751L19.8104 24.8777" stroke="#E0E0E0" stroke-width="0.649573"/>
<path d="M19.8104 24.8779C19.9178 25.2092 20.1084 25.3933 20.3823 25.4301C20.5137 25.4474 20.5531 25.3965 20.5006 25.2774C20.4502 25.1648 20.356 25.0663 20.2179 24.9819" stroke="#AEADAD" stroke-width="0.649573"/>
<path d="M21.917 29.7594C22.296 29.649 22.5841 29.4454 22.7813 29.1488C22.8558 29.034 22.8492 28.9236 22.7616 28.8175C22.6192 28.6421 22.4658 28.5068 22.3015 28.4115C22.1635 28.3314 22.0824 28.3704 22.0583 28.5284L22.032 28.6908C22.0101 28.8337 22.066 28.9333 22.1996 28.9896C22.2566 29.0156 22.3059 29.0535 22.3475 29.1033C22.4527 29.2311 22.422 29.2906 22.2555 29.2819C21.8217 29.2603 21.4985 29.1282 21.286 28.8857C21.2247 28.8143 21.1721 28.8207 21.1283 28.9052C21.0428 29.0827 20.9968 29.2646 20.9903 29.4508C20.9892 29.4793 20.9783 29.5066 20.9592 29.5284C20.9401 29.5502 20.914 29.5652 20.8851 29.571L20.4644 29.6457C20.3417 29.6674 20.2935 29.6186 20.3198 29.4995L20.3724 29.269C20.414 29.0849 20.3505 29.0373 20.1818 29.126C20.0087 29.2213 19.9561 29.361 20.0241 29.545C20.0394 29.5853 20.046 29.6283 20.0436 29.6712C20.0411 29.7141 20.0295 29.7559 20.0097 29.7939C19.9898 29.8319 19.9621 29.8653 19.9283 29.8918C19.8946 29.9183 19.8555 29.9374 19.8137 29.9478C19.5771 30.0084 19.3712 30.1145 19.1959 30.266C19.0995 30.3483 18.9921 30.3678 18.8738 30.3245C18.7621 30.2855 18.7007 30.2054 18.6898 30.0842C18.681 29.9911 18.6339 29.9651 18.5485 30.0062C18.4937 30.03 18.4597 30.0712 18.4466 30.1296C18.4356 30.1903 18.4499 30.2444 18.4893 30.292C18.7939 30.6536 19.1192 30.7013 19.4654 30.4349C19.5245 30.3895 19.5935 30.3678 19.6724 30.37C19.6878 30.37 19.6976 30.3754 19.702 30.3862C19.7721 30.5205 19.8619 30.5194 19.9715 30.383C20.1884 30.108 20.5192 29.9521 20.964 29.9153" stroke="#AEADAD" stroke-width="0.649573"/>
<path d="M20.964 29.915L21.0001 30.1716C21.0176 30.2842 20.9684 30.3438 20.8522 30.3503C20.5762 30.3654 20.4491 30.4823 20.471 30.701" stroke="#E0E0E0" stroke-width="0.649573"/>
<path d="M22.5217 27.0442L23.0508 26.6414C23.1385 26.5743 23.1275 26.5332 23.018 26.518C22.8186 26.492 22.6357 26.5895 22.4691 26.8103" stroke="#E0E0E0" stroke-width="0.649573"/>
<path d="M20.2187 24.9821C20.098 24.878 19.9619 24.8433 19.8104 24.878" stroke="#5C5C5C" stroke-width="0.649573"/>
<path d="M22.4691 26.8105L22.5211 27.0444" stroke="#5C5C5C" stroke-width="0.649573"/>
<path d="M21.917 29.7597C21.435 29.6969 21.1173 29.7488 20.964 29.9156" stroke="#5C5C5C" stroke-width="0.649573"/>
<path d="M13.2305 22.666C13.1893 22.7483 13.172 22.81 13.1785 22.8511" stroke="#E0E0E0" stroke-width="0.649573"/>
<path d="M14.687 15.1343C14.5665 15.0217 14.4285 14.9827 14.2729 15.0174C14.113 15.052 14.0976 15.1191 14.2269 15.2187C14.5731 15.4872 14.9488 15.6799 15.3541 15.7968C15.5382 15.851 15.5787 15.7979 15.4757 15.6377C15.3465 15.4385 15.1526 15.3075 14.894 15.2447C14.8152 15.2252 14.7461 15.1884 14.687 15.1343Z" stroke="#E0E0E0" stroke-width="0.649573"/>
<path d="M19.6494 17.9533C19.4895 17.8601 19.3449 17.8796 19.2156 18.0117C19.1904 18.0376 19.173 18.0699 19.1652 18.105C19.1574 18.1401 19.1596 18.1766 19.1715 18.2105C19.1834 18.2445 19.2045 18.2745 19.2326 18.2973C19.2607 18.3201 19.2946 18.3348 19.3306 18.3397C19.6658 18.3895 19.9781 18.5205 20.2673 18.7327C20.3834 18.8172 20.5083 18.8302 20.6419 18.7717C20.9136 18.6526 21.2072 18.5823 21.5227 18.5606C21.5547 18.5575 21.585 18.5448 21.6095 18.5242C21.6341 18.5036 21.6516 18.476 21.6598 18.4453C21.6681 18.4145 21.6666 18.382 21.6556 18.3521C21.6446 18.3222 21.6245 18.2964 21.5982 18.278L21.2302 18.0409C21.1666 17.9976 21.1086 18.0031 21.056 18.0572C21.0187 18.094 20.9914 18.1362 20.9738 18.1838C20.9617 18.2132 20.9432 18.2392 20.9198 18.2601C20.8965 18.2809 20.8688 18.2959 20.8391 18.304C20.6945 18.343 20.6167 18.3008 20.6058 18.1774C20.6033 18.1357 20.585 18.0965 20.5545 18.0676C20.524 18.0387 20.4837 18.0222 20.4414 18.0215L19.7973 17.9987C19.7456 17.9966 19.6946 17.981 19.6494 17.9533Z" stroke="#AEADAD" stroke-width="0.649573"/>
<path d="M22.2095 19.2654C22.2511 19.1745 22.2785 19.0749 22.2917 18.9666C22.307 18.8086 22.2347 18.736 22.0748 18.749C21.9433 18.7599 21.8447 18.8194 21.779 18.9277C21.63 19.1658 21.6804 19.3694 21.9302 19.5383C21.9557 19.5557 21.9858 19.5652 22.0168 19.5658C22.0477 19.5664 22.0782 19.5579 22.1043 19.5415C22.2073 19.4766 22.2424 19.3845 22.2095 19.2654Z" stroke="#E0E0E0" stroke-width="0.649573"/>
<path d="M14.0363 22.2765C14.1984 22.1249 14.3857 22.1487 14.5983 22.3479C14.6749 22.4194 14.7253 22.4042 14.7494 22.3024C14.9247 21.5966 14.7472 21.1224 14.217 20.8799" stroke="#E0E0E0" stroke-width="0.649573"/>
<path d="M14.217 20.8799C14.0176 20.4815 13.7996 20.0777 13.563 19.6685C13.5367 19.6209 13.4951 19.5938 13.4381 19.5873C13.3373 19.5721 13.3012 19.6133 13.3297 19.7107L14.0362 22.2765" stroke="#AEADAD" stroke-width="0.649573"/>
<path d="M14.217 20.8799L14.0363 22.2765" stroke="#5C5C5C" stroke-width="0.649573"/>
<path d="M16.5372 20.7986C16.4496 20.9675 16.4463 21.1353 16.5273 21.302C16.5358 21.3197 16.5485 21.3351 16.5645 21.3466C16.5805 21.3582 16.5991 21.3656 16.6188 21.3682C16.6384 21.3708 16.6583 21.3684 16.6768 21.3614C16.6953 21.3544 16.7117 21.3429 16.7245 21.328C16.8779 21.157 16.9031 20.9794 16.8001 20.7954C16.7874 20.7717 16.7683 20.7519 16.7449 20.7382C16.7215 20.7245 16.6948 20.7174 16.6676 20.7178C16.6405 20.7181 16.6139 20.7258 16.5909 20.7401C16.5679 20.7544 16.5493 20.7746 16.5372 20.7986Z" stroke="#AEADAD" stroke-width="0.649573"/>
<path d="M17.4312 21.2209C17.3829 21.2947 17.3774 21.3739 17.4147 21.4585C17.4652 21.5713 17.5355 21.5843 17.6255 21.4976C17.7023 21.4216 17.7462 21.3327 17.7572 21.2307C17.7594 21.212 17.7574 21.193 17.7511 21.1753C17.7448 21.1576 17.7346 21.1416 17.7211 21.1286C17.7077 21.1156 17.6914 21.106 17.6737 21.1006C17.6559 21.0952 17.6371 21.094 17.6189 21.0973C17.5377 21.1103 17.4751 21.1515 17.4312 21.2209Z" stroke="#AEADAD" stroke-width="0.649573"/>
<path d="M16.5865 24.501C16.5055 24.5032 16.431 24.527 16.363 24.5724C16.3313 24.5955 16.2933 24.6084 16.254 24.6096C16.2146 24.6108 16.1759 24.6001 16.1429 24.5789C16.0048 24.4945 15.9281 24.3732 15.9128 24.2152C15.9019 24.1069 15.8613 24.0106 15.7912 23.9261C15.7189 23.8395 15.6236 23.7897 15.5053 23.7767C15.2577 23.7486 15.2238 23.82 15.4034 23.9911C15.6181 24.1924 15.7879 24.4176 15.9128 24.6666C15.972 24.7879 16.0673 24.8301 16.1987 24.7933C16.3455 24.75 16.4846 24.7034 16.6161 24.6536C16.8965 24.5497 16.8867 24.4988 16.5865 24.501Z" stroke="#959393" stroke-width="0.649573"/>
<path d="M19.8499 24.3063C19.9682 24.2652 20.0186 24.1829 20.0011 24.0595C19.9964 24.026 19.9832 23.9942 19.9626 23.9672C19.942 23.9401 19.9148 23.9188 19.8835 23.9051C19.8522 23.8914 19.8179 23.8859 19.7838 23.889C19.7498 23.8922 19.7171 23.9039 19.6889 23.9231C19.4479 24.0854 19.3087 24.2868 19.2715 24.5272C19.2474 24.6852 19.3164 24.7567 19.4785 24.7415C19.6078 24.7285 19.6768 24.656 19.6856 24.5239C19.6876 24.4759 19.7043 24.4294 19.7336 24.3906C19.7629 24.3518 19.8034 24.3225 19.8499 24.3063Z" stroke="#AEADAD" stroke-width="0.649573"/>
<path d="M15.0452 27.2845C15.0474 27.3408 15.0715 27.3863 15.1175 27.4209C15.1299 27.4292 15.1444 27.434 15.1594 27.4347C15.1743 27.4355 15.1892 27.4322 15.2024 27.4251C15.2156 27.4181 15.2266 27.4077 15.2343 27.3949C15.2419 27.3821 15.2458 27.3675 15.2456 27.3527C15.2434 27.2878 15.2128 27.2412 15.1536 27.2131C15.1418 27.2074 15.1286 27.2049 15.1155 27.2057C15.1023 27.2066 15.0897 27.2109 15.0787 27.2181C15.0677 27.2253 15.0589 27.2353 15.053 27.2469C15.0471 27.2585 15.0444 27.2715 15.0452 27.2845Z" stroke="#AEADAD" stroke-width="0.649573"/>
<path d="M16.8171 27.7269C16.883 27.703 16.9093 27.665 16.8961 27.613C16.8852 27.5674 16.8566 27.5533 16.8105 27.5707C16.6898 27.6162 16.6042 27.6954 16.5537 27.8082C16.5229 27.8755 16.5449 27.9037 16.6195 27.8928C16.6678 27.8863 16.7029 27.8592 16.7249 27.8115C16.7447 27.7703 16.7754 27.7421 16.8171 27.7269Z" stroke="#AEADAD" stroke-width="0.649573"/>
<path d="M19.0151 29.925C19.2802 29.9077 19.4895 29.7572 19.6428 29.4735C19.748 29.283 19.6998 29.2321 19.4982 29.3209C19.2923 29.4097 19.1028 29.5537 18.9297 29.7529C18.818 29.8784 18.8464 29.9358 19.0151 29.925Z" stroke="#AEADAD" stroke-width="0.649573"/>
<path d="M15.0288 30.7211C15.0086 30.7212 14.9889 30.7269 14.9719 30.7375C14.9548 30.7481 14.9411 30.7632 14.9322 30.781C14.9234 30.7989 14.9197 30.8189 14.9217 30.8387C14.9236 30.8585 14.9311 30.8774 14.9433 30.8932C14.9872 30.9495 15.0419 30.9701 15.1077 30.9549C15.1953 30.9333 15.2172 30.8835 15.1734 30.8055C15.1405 30.747 15.0923 30.7189 15.0288 30.7211Z" stroke="#959393" stroke-width="0.649573"/>
<path d="M10.0039 32.2602L10.1518 32.4908C10.1558 32.4975 10.1612 32.5033 10.1675 32.5079C10.1739 32.5125 10.1811 32.5158 10.1887 32.5176C10.1964 32.5194 10.2043 32.5197 10.2121 32.5184C10.2199 32.5172 10.2273 32.5144 10.234 32.5103L10.441 32.3771C10.861 32.1147 11.2543 31.848 11.5346 31.6355C11.8149 31.423 11.9594 31.2821 11.9363 31.2436L11.9067 31.2014C11.8818 31.1641 11.6913 31.2323 11.3771 31.3913C11.0629 31.5502 10.6506 31.7867 10.2307 32.0491L10.0236 32.179C10.0169 32.183 10.011 32.1883 10.0063 32.1945C10.0017 32.2008 9.99834 32.2079 9.99651 32.2155C9.99467 32.2231 9.99438 32.2309 9.99565 32.2386C9.99692 32.2463 9.99973 32.2536 10.0039 32.2602Z" stroke="#959393" stroke-width="0.649573"/>
<path d="M14.0173 31.6333C13.8834 31.668 13.7703 31.7418 13.6781 31.8546C13.5969 31.9544 13.621 31.9978 13.7506 31.9848C13.913 31.9653 14.0327 31.8861 14.1095 31.7472C14.1688 31.6388 14.138 31.6008 14.0173 31.6333Z" stroke="#AEADAD" stroke-width="0.649573"/>
<path d="M13.0899 32.3425C13.0218 32.4553 13.0503 32.4868 13.1755 32.4369C13.3247 32.3783 13.4356 32.2796 13.508 32.1407C13.5893 31.9867 13.5541 31.953 13.4027 32.0398C13.271 32.1136 13.1667 32.2145 13.0899 32.3425Z" stroke="#AEADAD" stroke-width="0.649573"/>
<path d="M12.2584 32.4066L12.288 32.1825C12.2888 32.1729 12.2872 32.1632 12.2831 32.1544C12.279 32.1456 12.2726 32.1381 12.2646 32.1325C12.2566 32.1269 12.2473 32.1235 12.2375 32.1226C12.2278 32.1217 12.218 32.1233 12.2091 32.1273C11.543 32.4521 11.2035 32.7931 11.1903 33.1504C11.1815 33.4081 11.2725 33.4492 11.4631 33.2738L11.8772 32.8906C11.9225 32.8493 11.9794 32.8226 12.0404 32.8139C12.1014 32.8052 12.1636 32.815 12.2189 32.8418C12.3679 32.9133 12.4895 32.8787 12.5837 32.7379C12.5914 32.7262 12.5957 32.7126 12.5962 32.6987C12.5968 32.6847 12.5935 32.6709 12.5868 32.6586C12.5801 32.6463 12.5702 32.6361 12.5581 32.6289C12.546 32.6217 12.5321 32.6178 12.518 32.6177C12.4808 32.6177 12.4446 32.6145 12.4096 32.608C12.2934 32.5885 12.243 32.5214 12.2584 32.4066Z" stroke="#1B1F1C" stroke-width="0.649573"/>
<path d="M24.0729 25.8752C23.6216 25.9661 23.2721 25.6695 23.0246 24.9853C23.0156 24.9606 23 24.9386 22.9792 24.9215C22.9585 24.9044 22.9333 24.8928 22.9062 24.8878C22.4242 24.8034 22.0244 24.5858 21.7067 24.235C21.6322 24.1505 21.538 24.1083 21.4241 24.1083C21.1086 24.1083 20.803 24.1116 20.5072 24.1181C20.2465 24.1246 20.1084 24.2512 20.0931 24.4981C20.0865 24.602 20.0438 24.6864 19.9649 24.7514L19.8105 24.8781C19.9178 25.2094 20.1084 25.3934 20.3823 25.4302C20.5138 25.4475 20.5532 25.3966 20.5006 25.2776C20.4502 25.165 20.356 25.0664 20.218 24.982C20.2509 24.8066 20.3089 24.6875 20.3922 24.6247C20.4951 24.5446 20.5948 24.55 20.6912 24.641C20.9059 24.8445 21.1765 24.8716 21.503 24.7222C21.5468 24.7021 21.5949 24.6925 21.6435 24.6942C21.692 24.6959 21.7395 24.7088 21.7823 24.7319C21.9247 24.8099 21.9937 24.9116 21.9893 25.0372C21.985 25.1498 21.9346 25.2375 21.8382 25.3003C21.7067 25.3847 21.5632 25.4475 21.4077 25.4887C21.3836 25.4952 21.366 25.5092 21.3551 25.5309C21.3376 25.572 21.3397 25.611 21.3617 25.6478C21.4142 25.7323 21.4898 25.7669 21.5884 25.7517L22.6828 25.5861C22.766 25.5731 22.8219 25.6045 22.8504 25.6803C23.0344 26.1545 23.4759 26.2617 24.1748 26.0018C24.269 25.9888 24.3523 26.0018 24.4246 26.0408C24.4399 26.0487 24.4533 26.06 24.4637 26.0738C24.4741 26.0876 24.4813 26.1036 24.4847 26.1206C24.4882 26.1377 24.4878 26.1553 24.4836 26.1724C24.4795 26.1895 24.4717 26.2056 24.4607 26.2194C24.0948 26.6936 23.6764 27.0801 23.2053 27.3789C23.1803 27.3952 23.1602 27.4179 23.147 27.4445C23.1339 27.4711 23.1282 27.5007 23.1305 27.5302C23.1329 27.5597 23.1432 27.588 23.1604 27.6123C23.1776 27.6365 23.201 27.6557 23.2283 27.668C23.6534 27.852 24.1058 27.9949 24.5856 28.0967C24.6898 28.1183 24.7849 28.1702 24.859 28.2457C24.933 28.3213 24.9825 28.417 25.0011 28.5209C25.0198 28.6247 25.0068 28.7318 24.9639 28.8286C24.9209 28.9255 24.8498 29.0076 24.7598 29.0646L22.6105 30.4189C22.295 30.3172 21.9455 30.3074 21.5621 30.3897C21.4438 30.4135 21.4219 30.3789 21.4964 30.2858L21.917 29.7596C22.2961 29.6492 22.5842 29.4457 22.7814 29.149C22.8559 29.0343 22.8493 28.9238 22.7616 28.8177C22.6192 28.6423 22.4659 28.507 22.3016 28.4117C22.1635 28.3316 22.0825 28.3706 22.0584 28.5287L22.0321 28.6911C22.0102 28.834 22.066 28.9336 22.1997 28.9899C22.2566 29.0159 22.3059 29.0537 22.3476 29.1035C22.4527 29.2313 22.4221 29.2908 22.2555 29.2822C21.8217 29.2605 21.4986 29.1284 21.2861 28.8859C21.2247 28.8145 21.1721 28.821 21.1283 28.9054C21.0429 29.083 20.9969 29.2649 20.9903 29.4511C20.9893 29.4795 20.9783 29.5068 20.9593 29.5286C20.9402 29.5504 20.9141 29.5655 20.8851 29.5712L20.4645 29.6459C20.3418 29.6676 20.2936 29.6189 20.3199 29.4998L20.3725 29.2692C20.4141 29.0851 20.3505 29.0375 20.1818 29.1263C20.0088 29.2215 19.9562 29.3612 20.0241 29.5453C20.0394 29.5855 20.0461 29.6285 20.0436 29.6714C20.0411 29.7143 20.0296 29.7561 20.0097 29.7941C19.9899 29.8322 19.9621 29.8655 19.9284 29.892C19.8946 29.9186 19.8555 29.9376 19.8138 29.948C19.5771 30.0086 19.3712 30.1147 19.1959 30.2663C19.0995 30.3486 18.9922 30.368 18.8739 30.3247C18.7621 30.2858 18.7008 30.2057 18.6898 30.0844C18.6811 29.9913 18.634 29.9653 18.5485 30.0065C18.4937 30.0303 18.4598 30.0714 18.4466 30.1299C18.4357 30.1905 18.4499 30.2446 18.4894 30.2923C18.7939 30.6539 19.1192 30.7015 19.4654 30.4352C19.5246 30.3897 19.5936 30.368 19.6725 30.3702C19.6878 30.3702 19.6976 30.3756 19.702 30.3864C19.7721 30.5207 19.862 30.5196 19.9715 30.3832C20.1884 30.1082 20.5192 29.9523 20.964 29.9155L21.0001 30.1721C21.0177 30.2847 20.9684 30.3442 20.8523 30.3507C20.5762 30.3659 20.4491 30.4828 20.471 30.7015L19.0743 30.9873C18.9648 31.0111 18.8585 31.0003 18.7556 30.9548L18.003 30.6268C17.9738 30.6139 17.9476 30.5953 17.9258 30.5722C17.904 30.5491 17.8871 30.5219 17.876 30.4923C17.865 30.4626 17.8601 30.4311 17.8616 30.3995C17.8631 30.368 17.8709 30.337 17.8847 30.3085C18.2856 29.4706 18.841 29.0808 19.6856 28.7268C19.9945 28.5969 20.1512 28.4356 20.1556 28.2429C20.0701 28.2342 20.0482 28.1887 20.0898 28.1064C20.1227 28.0437 20.1041 28.009 20.034 28.0025C19.9879 27.9982 19.9386 28.0112 19.8861 28.0415C20.103 28.0155 20.2925 27.9516 20.4546 27.8499C20.5466 27.7914 20.6474 27.7622 20.757 27.7622C21.5566 27.7535 22.1449 27.5143 22.5217 27.0444L23.0508 26.6417C23.1385 26.5745 23.1275 26.5334 23.018 26.5182C22.8186 26.4923 22.6357 26.5897 22.4692 26.8106C22.1405 26.8625 21.8634 26.7759 21.6377 26.5507C21.5654 26.4771 21.4767 26.436 21.3715 26.4273L20.7767 26.3883C20.6102 26.1307 20.3987 26.017 20.1424 26.0473C20.0394 26.0603 19.9792 26.1177 19.9617 26.2194C19.9507 26.2801 19.9156 26.3223 19.8565 26.3461C19.7185 26.3981 19.6582 26.3515 19.6757 26.2064C19.7174 25.8838 19.5585 25.6987 19.1992 25.6511C18.657 25.5796 18.1673 25.3685 17.6875 25.1217C17.5845 25.0697 17.5341 24.9863 17.5363 24.8716C17.5407 24.694 17.6338 24.5706 17.8156 24.5013C18.0807 24.3996 18.2955 24.4623 18.4598 24.6897C18.5803 24.8543 18.7325 24.9549 18.9166 24.9917C19.0721 25.0221 19.0864 24.9896 18.9593 24.8943L18.772 24.7547C18.6822 24.6875 18.6526 24.5998 18.6833 24.4916C18.7074 24.4093 18.6986 24.3292 18.657 24.2512C18.611 24.1646 18.5474 24.1484 18.4664 24.2025L18.3612 24.2707C18.2714 24.3292 18.1903 24.3184 18.118 24.2382C17.9361 24.0325 17.682 23.9102 17.3556 23.8712C17.1518 23.8474 17.1135 23.9145 17.2405 24.0726C17.2515 24.0856 17.2668 24.0921 17.2865 24.0921C17.4772 24.0769 17.5516 24.1614 17.51 24.3454C17.407 24.8131 17.154 25.1249 16.7509 25.2808C16.6378 25.3251 16.5423 25.404 16.4783 25.5058C16.4144 25.6076 16.3855 25.7269 16.3959 25.8459C16.4398 26.305 16.4003 26.7348 16.2776 27.1353C16.2448 27.2393 16.2842 27.2869 16.3959 27.2782C16.6194 27.2609 16.7224 27.1332 16.7049 26.895C16.7023 26.8616 16.7091 26.8282 16.7246 26.7985C16.74 26.7687 16.7635 26.7437 16.7923 26.7262C16.8212 26.7088 16.8544 26.6995 16.8882 26.6995C16.9221 26.6995 16.9553 26.7087 16.9842 26.7261C17.0718 26.7781 17.1255 26.8549 17.1452 26.9567C17.1737 27.1018 17.257 27.1494 17.395 27.0996C17.6426 27.013 17.8441 26.9968 17.9997 27.0509C18.2473 27.2847 18.0731 27.5792 17.4772 27.9343C17.4509 27.9863 17.3698 28.0469 17.234 28.1162C17.0433 28.2851 16.8297 28.3858 16.5931 28.4182C16.3894 28.4464 16.2984 28.5611 16.3203 28.7625L16.3861 29.3731C16.4014 29.5268 16.4847 29.5821 16.6358 29.5388C16.7191 29.5149 16.775 29.4608 16.8034 29.3764C16.8626 29.1988 16.948 29.1847 17.0598 29.3341C17.1036 29.3948 17.1222 29.4641 17.1157 29.542C17.0959 29.7661 16.9711 29.9025 16.925 30.1071C16.8944 30.2457 16.9491 30.3096 17.0894 30.2988C17.28 30.2858 17.3906 30.1851 17.4213 29.9967C17.4454 29.8365 17.5188 29.8105 17.6415 29.9188C17.7576 30.0227 17.7861 30.1472 17.7269 30.2923C17.6897 30.3854 17.7094 30.4655 17.7861 30.5326C17.8934 30.63 17.9197 30.7426 17.8649 30.8704C17.8124 30.9895 17.7236 31.0295 17.5987 30.9906L17.4344 30.9418C17.2504 30.8855 17.1715 30.9516 17.1978 31.14C17.2263 31.3435 17.2975 31.5297 17.4114 31.6986C17.5034 31.8328 17.4761 31.8653 17.3293 31.796L16.7772 31.5329C16.7588 31.5247 16.7386 31.5216 16.7186 31.524C16.6986 31.5265 16.6797 31.5344 16.664 31.5469C16.6483 31.5593 16.6364 31.5759 16.6297 31.5947C16.623 31.6134 16.6217 31.6337 16.626 31.6531C16.8933 32.896 17.3643 33.9808 18.0391 34.9075C18.1771 35.1002 18.1311 35.1673 17.9011 35.1088C17.3818 34.9757 16.925 34.5924 16.787 34.05C16.5745 33.2208 16.3499 32.4315 16.1133 31.6824C16.1007 31.6425 16.0759 31.6074 16.0423 31.5821C16.0087 31.5568 15.968 31.5424 15.9257 31.5409C15.8835 31.5395 15.8418 31.5511 15.8065 31.5741C15.7713 31.5971 15.7441 31.6304 15.7288 31.6694C15.6368 31.8924 15.4845 32.0829 15.272 32.241C15.2534 32.2545 15.2315 32.2626 15.2088 32.2643C15.1861 32.266 15.1636 32.2613 15.1438 32.2507L14.9959 32.1663C14.9105 32.1208 14.9094 32.0721 14.9927 32.0201C15.1504 31.9249 15.2205 31.7928 15.203 31.6239C15.1983 31.5856 15.1819 31.5496 15.1558 31.5209C15.1298 31.4921 15.0955 31.4719 15.0575 31.4631C15.0195 31.4542 14.9797 31.4571 14.9434 31.4713C14.9071 31.4856 14.8761 31.5105 14.8546 31.5427C14.6443 31.861 14.4833 32.2118 14.1415 32.4164C12.6889 33.2825 11.29 33.8465 9.94478 34.1085C9.67091 34.1605 9.42224 34.1215 9.19877 33.9916C9.78155 33.9634 10.2877 33.7155 10.7171 33.2478C10.7324 33.2305 10.7401 33.211 10.7401 33.1894C10.7423 33.1525 10.7236 33.1266 10.6842 33.1114C10.6404 33.0963 10.5999 33.1038 10.5626 33.1341C10.315 33.3377 10.0357 33.4394 9.72459 33.4394C9.60628 33.4394 9.50111 33.4773 9.4091 33.5531C9.24478 33.6895 9.17467 33.8357 9.19877 33.9916C9.05417 34.0089 8.94024 34.0046 8.85698 33.9786C8.77373 33.9526 8.72882 33.8985 8.72224 33.8162C8.68062 33.3745 8.8044 33.0183 9.0936 32.7476C9.46496 32.4001 9.626 31.835 10.0467 31.5784C10.7236 31.1627 11.6997 30.3442 12.4819 30.4059C12.9332 30.4406 13.4086 30.4958 13.9081 30.5716C13.9558 30.5785 14.0006 30.5982 14.0377 30.6285C14.0748 30.6589 14.1027 30.6987 14.1185 30.7437C14.1601 30.8585 14.2357 30.8931 14.3452 30.8476C14.4635 30.7978 14.4646 30.7437 14.3485 30.6853C14.2609 30.6398 14.2247 30.5759 14.2401 30.4936C14.262 30.3551 14.3409 30.2652 14.4767 30.2241C14.5775 30.1937 14.6443 30.1342 14.6772 30.0454C14.721 29.922 14.802 29.8311 14.9204 29.7726C14.9773 29.7423 15.0288 29.7401 15.0748 29.7661C15.261 29.8722 15.3761 29.8202 15.4199 29.6102C15.4615 29.4153 15.5853 29.3309 15.7912 29.3569C15.8312 29.3621 15.8718 29.3579 15.9099 29.3447C15.9479 29.3315 15.9822 29.3096 16.0101 29.2808C16.0379 29.252 16.0585 29.2171 16.0702 29.179C16.0818 29.1409 16.0842 29.1005 16.0772 29.0613L15.9063 28.1194C15.869 27.9159 15.7496 27.8401 15.548 27.8921C14.9631 28.0447 14.572 28.428 13.987 28.5839C12.5388 28.9715 11.2297 28.9812 10.0598 28.6131C9.92396 28.5698 9.81661 28.6066 9.73773 28.7235C9.4814 29.0938 9.36966 29.6817 9.10018 29.987C9.08046 30.0108 9.05745 30.0324 9.03116 30.0519C8.9019 30.1623 8.84274 30.1331 8.8537 29.9642L8.97529 28.2981C9.16152 28.3349 9.30284 28.2721 9.39924 28.1097C9.53507 28.2613 9.69501 28.2374 9.87905 28.0382C10.0127 28.0491 10.0949 28.0805 10.1255 28.1324L12.965 28.048C13.241 28.0393 13.2695 27.9516 13.0504 27.7849L12.8499 27.6323C12.8784 27.4634 12.9551 27.3584 13.08 27.3172C13.1873 27.2804 13.1884 27.2404 13.0833 27.197C13.0394 27.1776 12.9726 27.1689 12.8828 27.1711C13.0274 27.1689 13.057 27.0866 12.9715 26.9242C12.9567 26.8948 12.9322 26.8718 12.9025 26.8593C12.6834 26.7618 12.4753 26.6492 12.2781 26.5215C11.7632 26.188 11.8125 25.9986 12.426 25.9531C13.3133 25.886 14.159 26.1653 14.9631 26.7911C15.0398 26.8517 15.1263 26.869 15.2227 26.843C15.3454 26.8084 15.4714 26.8095 15.6006 26.8463C15.658 26.8628 15.7091 26.8958 15.7471 26.941C15.7852 26.9861 15.8086 27.0414 15.8142 27.0996L15.8372 27.3172C15.8384 27.3298 15.8422 27.3421 15.8484 27.3531C15.8546 27.3642 15.8631 27.3738 15.8733 27.3815C15.8835 27.3891 15.8952 27.3946 15.9077 27.3975C15.9202 27.4004 15.9331 27.4007 15.9457 27.3984L16.0377 27.3822C16.0442 27.3811 16.0504 27.3786 16.0558 27.375C16.0612 27.3714 16.0658 27.3666 16.0692 27.3611C16.0727 27.3555 16.0748 27.3493 16.0756 27.3429C16.0764 27.3364 16.0758 27.3299 16.0739 27.3237C15.8986 26.7932 15.8438 26.2476 15.9095 25.6868C15.9227 25.5785 15.903 25.4768 15.8504 25.3815C15.5393 24.8229 15.1362 24.3909 14.641 24.0856C14.4701 23.5876 14.1009 23.0809 13.5335 22.5656C13.0274 21.4451 12.6659 20.7046 11.8312 19.9641C11.726 19.8688 11.6373 19.8818 11.565 20.003C11.5387 20.0463 11.5025 20.0615 11.4565 20.0485C11.3338 20.016 11.2495 19.9424 11.2035 19.8276C11.1443 19.6826 11.0556 19.5646 10.9373 19.4736C10.8321 19.3935 10.7445 19.4097 10.6744 19.5223C10.1157 20.4209 9.65557 21.3303 9.29407 22.2505C9.23054 22.4108 9.18891 22.4054 9.16919 22.2343C9.12537 21.8121 9.22615 21.3953 9.47154 20.9839L10.7861 18.2882C11.3974 18.024 11.9528 18.0456 12.4523 18.3531L12.6692 18.9897C12.7086 19.1023 12.6714 19.1781 12.5574 19.217C12.4895 19.2409 12.4172 19.2484 12.3405 19.2398C12.3077 19.2361 12.2744 19.2408 12.2439 19.2534C12.2134 19.266 12.1866 19.2862 12.1662 19.3119C12.1458 19.3376 12.1324 19.368 12.1272 19.4003C12.1221 19.4326 12.1254 19.4657 12.1368 19.4964C12.1894 19.6328 12.2912 19.7367 12.4424 19.8082C12.6287 19.8948 12.7448 19.8396 12.7908 19.6425C12.8236 19.5039 12.8927 19.3881 12.9978 19.295C13.1161 19.1889 13.1183 19.0785 13.0044 18.9637C12.8379 18.797 12.8083 18.6422 12.9157 18.4993C13.8621 19.1532 14.5435 19.9954 14.9598 21.0261C14.9992 21.1235 15.0704 21.1852 15.1734 21.2112L15.8471 21.3834C16.064 21.4375 16.0903 21.3888 15.926 21.2372C15.8252 21.1463 15.7124 21.0607 15.5875 20.9806C15.4582 20.8962 15.4692 20.8366 15.6203 20.802L16.1297 20.6786C16.1783 20.6673 16.224 20.6458 16.2636 20.6155C16.3033 20.5853 16.3361 20.547 16.3598 20.5032C16.4562 20.3235 16.5953 20.1968 16.7772 20.1232C16.867 20.0864 16.9393 20.0268 16.9941 19.9446C17.5067 19.1781 17.4092 18.5361 16.7016 18.0186C16.5219 17.4361 16.1549 17.0096 15.6006 16.7389C15.5064 16.6913 15.4286 16.6231 15.3673 16.5343C15.1723 16.2507 14.8941 16.1272 14.5326 16.1641C14.483 16.1691 14.4326 16.1633 14.385 16.147C14.3373 16.1308 14.2935 16.1045 14.2565 16.0699C13.8775 15.7083 13.4579 15.4441 12.9978 15.2774C12.7437 15.1843 12.6988 15.2449 12.8631 15.4593C13.1194 15.7927 13.4908 16.0082 13.9772 16.1056C14.1283 16.1381 14.1656 16.2203 14.0889 16.3524C14.0779 16.3719 14.0779 16.3925 14.0889 16.4141C14.1371 16.5072 14.2149 16.5754 14.3222 16.6188C14.8919 16.8526 15.2731 17.2348 15.4659 17.7652C14.8875 17.5401 14.3639 17.2976 13.895 17.0377C12.9485 16.5181 12.426 15.417 11.3908 15.1247C10.8825 14.9797 10.4027 14.7686 9.95135 14.4914C9.83085 14.4178 9.8418 14.3756 9.98421 14.3647L10.9011 14.29L11.7884 14.4882C11.9024 14.512 12.0163 14.5174 12.1302 14.5044C12.4808 14.4676 12.8039 14.5195 13.0997 14.6603C13.1917 14.7048 13.2685 14.7761 13.3199 14.8649C13.4426 15.0749 13.6146 15.1431 13.8358 15.0695C13.9147 15.0435 13.975 14.9937 14.0166 14.9201C14.1042 14.7577 14.251 14.6419 14.457 14.5726C16.1484 15.1204 17.1124 16.1814 17.349 17.7555C17.3709 17.9006 17.4421 17.9309 17.5626 17.8464C18.1969 17.4015 18.4203 16.5538 18.6537 15.849C18.6909 15.7342 18.6657 15.6357 18.5781 15.5535C18.2527 15.2384 18.003 14.8649 17.5692 14.6798C17.1441 14.4957 16.8034 14.2088 16.5471 13.8191C16.4682 13.7022 16.3664 13.6112 16.2415 13.5463C15.7792 13.3059 15.4286 12.9433 15.1898 12.4582C15.137 12.354 15.0465 12.2738 14.9368 12.2341C14.6235 12.1194 14.2927 12.088 13.9443 12.1399C13.8457 12.1529 13.7898 12.1096 13.7767 12.01L13.7668 11.9256C13.765 11.9125 13.7659 11.8992 13.7694 11.8865C13.7729 11.8738 13.779 11.8619 13.7873 11.8516C13.7956 11.8413 13.8059 11.8327 13.8176 11.8265C13.8294 11.8202 13.8423 11.8164 13.8556 11.8152C15.1373 11.7026 16.2601 12.0382 17.2241 12.822C17.3089 12.8913 17.3651 12.9895 17.3818 13.0981C17.4235 13.3969 17.5648 13.6285 17.8058 13.7931C18.2681 14.1092 18.5562 14.5748 18.6701 15.1897C18.703 15.3672 18.7775 15.3867 18.8936 15.2482C20.2673 13.5982 22.0649 12.5383 24.2865 12.0685C24.5231 12.0187 24.5593 12.0815 24.395 12.2569C24.0422 12.6271 23.7048 13.0277 23.3828 13.4586C22.8602 14.1569 22.157 14.4622 21.4701 14.9461C20.8063 15.4138 20.103 15.3521 19.3471 15.534C19.2708 15.5518 19.2004 15.589 19.1428 15.6419C19.0852 15.6948 19.0424 15.7617 19.0185 15.836C18.8541 16.3557 18.6372 16.8699 18.3678 17.3788C18.1596 17.775 18.2615 17.8789 18.6734 17.6905C19.7678 17.1936 21.641 17.7198 22.6203 18.2037C22.7145 18.2513 22.7879 18.3206 22.8405 18.4116C22.9544 18.6086 23.133 18.7223 23.3762 18.7526C23.5186 18.7721 23.5372 18.7331 23.4321 18.6357L23.0739 18.3076C22.9336 18.1799 22.9577 18.1333 23.1462 18.168C24.4936 18.4235 25.1235 19.1196 25.0358 20.2564C25.0227 20.4188 24.9767 20.4285 24.8978 20.2856C24.8255 20.1578 24.7729 20.0225 24.74 19.8796C24.705 19.7302 24.613 19.6761 24.464 19.7172L24.2569 19.7757C24.1058 19.8168 24.0565 19.911 24.1091 20.0582C24.3391 20.7176 24.8748 20.776 24.9175 21.6854C24.9263 21.8781 24.8737 21.8965 24.7598 21.7406L24.2241 20.9969C24.1706 20.9251 24.0956 20.8726 24.0105 20.8475L22.2227 20.3148C22.0956 20.278 21.9751 20.2932 21.8612 20.3603C21.3638 20.6548 20.8314 20.8583 20.264 20.9709C20.161 20.9925 20.0723 21.0402 19.9978 21.1138C19.1105 21.9907 17.0499 21.6432 16.7246 23.1502C16.6961 23.2866 16.7487 23.3765 16.8823 23.4198C17.7072 23.6861 18.6274 23.7803 19.4851 23.5464C20.5598 23.2476 21.9762 23.7283 23.0443 24.0856C23.1757 24.1311 23.2831 24.209 23.3663 24.3194C23.7498 24.8239 24.2077 25.1444 24.74 25.2808C24.8825 25.3176 24.9109 25.3945 24.8255 25.5114C24.6853 25.7106 24.4344 25.8319 24.0729 25.8752ZM23.0808 13.0544C23.0543 13.0213 22.9694 13.0358 22.8447 13.0948C22.7199 13.1539 22.5656 13.2526 22.4156 13.3692C22.3413 13.427 22.2703 13.4874 22.2067 13.5471C22.1431 13.6067 22.0881 13.6644 22.0448 13.7169C22.0015 13.7694 21.9709 13.8155 21.9545 13.8528C21.9382 13.8901 21.9365 13.9177 21.9496 13.9342C21.976 13.9673 22.0609 13.9528 22.1856 13.8938C22.3104 13.8347 22.4647 13.736 22.6147 13.6194C22.689 13.5616 22.76 13.5012 22.8236 13.4415C22.8872 13.3819 22.9422 13.3242 22.9855 13.2717C23.0288 13.2193 23.0595 13.1731 23.0758 13.1358C23.0922 13.0985 23.0938 13.0709 23.0808 13.0544ZM20.3659 15.1377C20.4163 15.1832 20.471 15.1908 20.5302 15.1605C20.6397 15.1042 20.6463 15.037 20.5499 14.9591L20.1063 14.6083C19.8499 14.4026 19.7261 14.4633 19.7349 14.7902C19.7415 15.0825 19.9003 15.1854 20.2114 15.0988C20.238 15.0909 20.2664 15.0903 20.2936 15.0972C20.3208 15.104 20.3458 15.118 20.3659 15.1377ZM14.687 15.1345C14.5665 15.0219 14.4285 14.9829 14.2729 15.0176C14.113 15.0522 14.0977 15.1193 14.2269 15.2189C14.5731 15.4874 14.9488 15.6801 15.3542 15.797C15.5382 15.8512 15.5787 15.7981 15.4757 15.6379C15.3465 15.4387 15.1526 15.3077 14.8941 15.2449C14.8152 15.2254 14.7462 15.1886 14.687 15.1345ZM19.6494 17.9536C19.4895 17.8605 19.3449 17.88 19.2156 18.0121C19.1905 18.038 19.173 18.0703 19.1652 18.1054C19.1574 18.1404 19.1596 18.177 19.1715 18.2109C19.1834 18.2449 19.2046 18.2749 19.2327 18.2977C19.2608 18.3205 19.2947 18.3352 19.3307 18.3401C19.6659 18.3899 19.9781 18.5209 20.2673 18.7331C20.3834 18.8176 20.5083 18.8305 20.6419 18.7721C20.9136 18.653 21.2072 18.5826 21.5227 18.561C21.5547 18.5579 21.585 18.5452 21.6096 18.5246C21.6341 18.504 21.6516 18.4764 21.6599 18.4457C21.6681 18.4149 21.6666 18.3824 21.6556 18.3525C21.6446 18.3226 21.6246 18.2967 21.5983 18.2784L21.2302 18.0413C21.1667 17.998 21.1086 18.0034 21.056 18.0576C21.0188 18.0944 20.9914 18.1366 20.9739 18.1842C20.9617 18.2135 20.9432 18.2396 20.9199 18.2605C20.8965 18.2813 20.8689 18.2963 20.8391 18.3044C20.6945 18.3434 20.6167 18.3011 20.6058 18.1777C20.6033 18.1361 20.585 18.0969 20.5545 18.068C20.5241 18.039 20.4837 18.0226 20.4415 18.0218L19.7973 17.9991C19.7456 17.997 19.6946 17.9813 19.6494 17.9536ZM19.9748 20.0128L20.0602 20.0193C20.1501 20.0258 20.1786 20.0712 20.1457 20.1557L20.0438 20.4155C19.9868 20.5627 20.0383 20.6266 20.1983 20.6071C20.7 20.5378 21.1656 20.3614 21.595 20.0777C21.744 19.9781 21.7308 19.9088 21.5555 19.8699C21.4109 19.8374 21.274 19.8601 21.1447 19.9381C20.8523 20.1232 20.4579 20.0452 20.2016 19.8374C20.3133 19.727 20.3659 19.61 20.3593 19.4866C20.3572 19.4342 20.34 19.3834 20.3097 19.3402C20.2795 19.2971 20.2374 19.2634 20.1884 19.243C19.7108 19.0417 19.2748 18.7992 18.8804 18.5155C18.8224 18.4733 18.7562 18.4432 18.686 18.427C18.6158 18.4108 18.543 18.4089 18.472 18.4213C18.401 18.4338 18.3333 18.4603 18.273 18.4994C18.2127 18.5385 18.1611 18.5893 18.1213 18.6487C17.8321 19.086 17.5955 19.5407 17.4114 20.0128C17.3742 20.1145 17.3731 20.2185 17.4081 20.3246C17.4892 20.5757 17.7247 20.6331 18.1147 20.4967C18.2483 20.4498 18.3671 20.3704 18.4598 20.2661C18.738 19.9543 19.0897 19.7118 19.5147 19.5386C19.5344 19.5299 19.5498 19.5321 19.5607 19.5451L19.6199 19.6165C19.6768 19.6815 19.6648 19.728 19.5837 19.7562C19.2858 19.8601 18.9966 20.0258 18.7161 20.2531C18.7074 20.2618 18.7052 20.2715 18.7095 20.2823L18.7556 20.37C18.7797 20.4155 18.8158 20.4296 18.864 20.4123L19.9748 20.0128ZM22.2095 19.2658C22.2512 19.1748 22.2786 19.0752 22.2917 18.967C22.307 18.8089 22.2347 18.7364 22.0748 18.7494C21.9433 18.7602 21.8447 18.8197 21.779 18.928C21.63 19.1662 21.6804 19.3697 21.9302 19.5386C21.9557 19.556 21.9858 19.5655 22.0168 19.5661C22.0478 19.5667 22.0782 19.5583 22.1044 19.5418C22.2073 19.4769 22.2424 19.3848 22.2095 19.2658ZM14.0363 22.2765C14.1984 22.125 14.3858 22.1488 14.5983 22.348C14.675 22.4194 14.7254 22.4043 14.7495 22.3025C14.9247 21.5966 14.7473 21.1225 14.2171 20.8799C14.0177 20.4815 13.7997 20.0777 13.5631 19.6685C13.5368 19.6209 13.4952 19.5938 13.4382 19.5873C13.3374 19.5721 13.3013 19.6133 13.3297 19.7107L14.0363 22.2765ZM19.7185 20.5552C19.5673 20.6364 19.403 20.6364 19.2715 20.763C19.1444 20.8886 19.1707 20.9579 19.3504 20.9709C19.5388 20.986 19.7174 20.9644 19.8861 20.9059C19.9247 20.8933 19.9584 20.8689 19.9822 20.8362C20.0061 20.8036 20.0189 20.7643 20.0189 20.7241C20.0189 20.6838 20.0061 20.6445 19.9822 20.6119C19.9584 20.5792 19.9247 20.5548 19.8861 20.5422C19.8291 20.5227 19.7732 20.527 19.7185 20.5552ZM16.5372 20.7988C16.4496 20.9676 16.4463 21.1354 16.5274 21.3022C16.5358 21.3199 16.5486 21.3352 16.5646 21.3468C16.5805 21.3583 16.5992 21.3657 16.6188 21.3683C16.6384 21.3709 16.6584 21.3686 16.6769 21.3616C16.6953 21.3545 16.7117 21.3431 16.7246 21.3282C16.8779 21.1571 16.9031 20.9796 16.8002 20.7955C16.7874 20.7718 16.7683 20.752 16.745 20.7383C16.7216 20.7246 16.6949 20.7176 16.6677 20.7179C16.6405 20.7183 16.614 20.726 16.591 20.7402C16.568 20.7545 16.5494 20.7747 16.5372 20.7988ZM17.4311 21.221C17.3829 21.2946 17.3775 21.3736 17.4147 21.4581C17.4651 21.5707 17.5352 21.5837 17.625 21.497C17.7017 21.4213 17.7455 21.3325 17.7565 21.2307C17.7588 21.2121 17.7567 21.1931 17.7504 21.1754C17.7442 21.1577 17.7339 21.1418 17.7205 21.1288C17.7071 21.1159 17.6909 21.1063 17.6731 21.1009C17.6554 21.0954 17.6367 21.0943 17.6185 21.0976C17.5374 21.1105 17.475 21.1517 17.4311 21.221ZM15.995 23.6179C16.0285 23.6352 16.0658 23.6436 16.1036 23.6425C16.1413 23.6414 16.1781 23.6307 16.2104 23.6114C16.2428 23.5922 16.2696 23.565 16.2882 23.5326C16.3069 23.5002 16.3168 23.4636 16.3171 23.4263L16.3269 22.4811C16.327 22.4407 16.3156 22.4011 16.2941 22.3666C16.2727 22.3322 16.2419 22.3044 16.2053 22.2863L15.4626 21.9095C15.4293 21.893 15.3922 21.8852 15.355 21.8867C15.3177 21.8882 15.2814 21.899 15.2496 21.9182C15.2177 21.9373 15.1913 21.9642 15.1728 21.9962C15.1543 22.0282 15.1443 22.0643 15.1438 22.1011L15.1307 23.043C15.1303 23.0831 15.1412 23.1226 15.162 23.1569C15.1829 23.1913 15.213 23.2193 15.249 23.2379L15.995 23.6179ZM16.5865 24.5013C16.5055 24.5035 16.431 24.5273 16.3631 24.5728C16.3314 24.5958 16.2933 24.6088 16.254 24.6099C16.2147 24.6111 16.1759 24.6004 16.1429 24.5793C16.0049 24.4948 15.9282 24.3736 15.9128 24.2155C15.9019 24.1072 15.8613 24.0109 15.7912 23.9264C15.7189 23.8398 15.6236 23.79 15.5053 23.777C15.2578 23.7489 15.2238 23.8204 15.4034 23.9914C15.6182 24.1928 15.788 24.418 15.9128 24.667C15.972 24.7882 16.0673 24.8304 16.1988 24.7936C16.3455 24.7503 16.4847 24.7038 16.6161 24.654C16.8966 24.55 16.8867 24.4992 16.5865 24.5013ZM19.8499 24.3064C19.9682 24.2653 20.0186 24.183 20.0011 24.0596C19.9965 24.0261 19.9832 23.9943 19.9626 23.9673C19.9421 23.9403 19.9148 23.9189 19.8835 23.9052C19.8522 23.8916 19.8179 23.886 19.7838 23.8892C19.7498 23.8923 19.7171 23.904 19.6889 23.9232C19.4479 24.0856 19.3088 24.287 19.2715 24.5273C19.2474 24.6854 19.3164 24.7568 19.4786 24.7417C19.6078 24.7287 19.6768 24.6561 19.6856 24.5241C19.6876 24.476 19.7043 24.4296 19.7336 24.3908C19.7629 24.352 19.8034 24.3226 19.8499 24.3064ZM14.0386 26.4356C14.0279 26.4243 14.0108 26.4197 13.9911 26.423C13.9714 26.4262 13.9506 26.4369 13.9335 26.4528C13.9163 26.4687 13.9041 26.4885 13.8995 26.5077C13.8949 26.5269 13.8984 26.5441 13.9091 26.5554C13.9198 26.5667 13.9369 26.5713 13.9567 26.5681C13.9764 26.5648 13.9971 26.5541 14.0143 26.5382C14.0315 26.5223 14.0437 26.5026 14.0483 26.4833C14.0528 26.4641 14.0494 26.4469 14.0386 26.4356ZM15.0452 27.2847C15.0474 27.341 15.0715 27.3865 15.1175 27.4211C15.13 27.4295 15.1444 27.4342 15.1594 27.435C15.1744 27.4357 15.1893 27.4324 15.2025 27.4254C15.2157 27.4183 15.2267 27.4079 15.2343 27.3951C15.2419 27.3823 15.2459 27.3678 15.2457 27.3529C15.2435 27.288 15.2128 27.2414 15.1537 27.2133C15.1418 27.2076 15.1287 27.2051 15.1155 27.206C15.1024 27.2069 15.0897 27.2111 15.0788 27.2183C15.0678 27.2256 15.059 27.2355 15.0531 27.2471C15.0472 27.2588 15.0445 27.2717 15.0452 27.2847ZM14.8218 27.6323C14.8042 27.5067 14.7506 27.4904 14.6607 27.5835C14.5731 27.6766 14.5326 27.7979 14.5391 27.9473C14.5457 28.0686 14.5972 28.0902 14.6936 28.0123C14.8031 27.9213 14.8459 27.7947 14.8218 27.6323ZM16.8166 27.7264C16.8823 27.7026 16.9086 27.6647 16.8955 27.6128C16.8845 27.5673 16.856 27.5532 16.81 27.5706C16.6895 27.616 16.6041 27.6951 16.5537 27.8076C16.523 27.8748 16.5449 27.9029 16.6194 27.8921C16.6676 27.8856 16.7027 27.8585 16.7246 27.8109C16.7443 27.7698 16.775 27.7416 16.8166 27.7264ZM19.0152 29.9253C19.2803 29.9079 19.4895 29.7574 19.6429 29.4738C19.748 29.2833 19.6998 29.2324 19.4983 29.3212C19.2923 29.4099 19.1028 29.5539 18.9297 29.7531C18.818 29.8787 18.8465 29.9361 19.0152 29.9253ZM16.2197 30.2562C16.2581 30.2198 16.2663 30.1555 16.2427 30.0775C16.2191 29.9995 16.1655 29.9141 16.0937 29.8401C16.0581 29.8035 16.0192 29.7707 15.9791 29.7438C15.939 29.7168 15.8985 29.6962 15.8599 29.683C15.8213 29.6698 15.7854 29.6644 15.7543 29.667C15.7231 29.6696 15.6973 29.6802 15.6783 29.6983C15.6399 29.7346 15.6316 29.7989 15.6553 29.8769C15.6789 29.955 15.7325 30.0404 15.8043 30.1143C15.8398 30.151 15.8788 30.1837 15.9189 30.2107C15.959 30.2376 15.9995 30.2583 16.0381 30.2714C16.0767 30.2846 16.1126 30.2901 16.1437 30.2874C16.1749 30.2848 16.2007 30.2742 16.2197 30.2562ZM15.1262 30.0466C15.1006 30.0015 15.0516 29.9719 14.99 29.9641C14.9283 29.9564 14.8591 29.9713 14.7976 30.0054C14.736 30.0396 14.6871 30.0902 14.6617 30.1462C14.6362 30.2022 14.6363 30.259 14.6619 30.3041C14.6875 30.3492 14.7365 30.3788 14.7981 30.3865C14.8598 30.3943 14.929 30.3794 14.9905 30.3453C15.0521 30.3111 15.101 30.2605 15.1264 30.2045C15.1519 30.1485 15.1518 30.0917 15.1262 30.0466ZM15.0288 30.721C15.0087 30.7211 14.989 30.7268 14.9719 30.7374C14.9549 30.748 14.9411 30.7631 14.9323 30.781C14.9234 30.7988 14.9197 30.8188 14.9217 30.8386C14.9236 30.8584 14.9311 30.8773 14.9434 30.8931C14.9872 30.9494 15.0419 30.97 15.1077 30.9548C15.1953 30.9332 15.2172 30.8834 15.1734 30.8054C15.1405 30.747 15.0923 30.7188 15.0288 30.721ZM16.4419 31.127C16.4697 31.1083 16.4901 31.0809 16.4997 31.0495C16.5093 31.0181 16.5075 30.9846 16.4945 30.9548C16.4485 30.8444 16.3718 30.7589 16.2645 30.6982C16.1506 30.6333 16.0454 30.6387 15.949 30.7145C15.8175 30.8163 15.766 30.9559 15.7945 31.1335C15.8142 31.2655 15.8909 31.3197 16.0246 31.2959C16.1714 31.2677 16.3105 31.2114 16.4419 31.127ZM10.0039 32.2605L10.1518 32.4911C10.1559 32.4977 10.1612 32.5035 10.1676 32.5081C10.1739 32.5127 10.1811 32.5161 10.1888 32.5179C10.1964 32.5197 10.2043 32.52 10.2121 32.5187C10.2199 32.5175 10.2273 32.5147 10.234 32.5106L10.441 32.3774C10.861 32.115 11.2543 31.8483 11.5346 31.6358C11.815 31.4233 11.9594 31.2824 11.9363 31.2439L11.9067 31.2017C11.8818 31.1643 11.6914 31.2326 11.3772 31.3915C11.063 31.5504 10.6507 31.787 10.2307 32.0494L10.0236 32.1793C10.0169 32.1833 10.011 32.1886 10.0064 32.1948C10.0017 32.2011 9.99837 32.2082 9.99653 32.2158C9.9947 32.2233 9.9944 32.2312 9.99567 32.2389C9.99694 32.2465 9.99975 32.2539 10.0039 32.2605ZM14.0166 31.6336C13.883 31.6683 13.7701 31.7419 13.6781 31.8545C13.597 31.9541 13.6211 31.9974 13.7504 31.9844C13.9125 31.9649 14.0319 31.8859 14.1086 31.7473C14.1678 31.639 14.1371 31.6012 14.0166 31.6336ZM13.0898 32.3417C13.0219 32.4543 13.0504 32.4857 13.1753 32.4359C13.3243 32.3774 13.4349 32.2789 13.5072 32.1403C13.5883 31.9866 13.5532 31.953 13.402 32.0396C13.2706 32.1132 13.1665 32.2139 13.0898 32.3417ZM12.2584 32.4066L12.288 32.1825C12.2888 32.1729 12.2872 32.1632 12.2831 32.1544C12.279 32.1456 12.2726 32.1381 12.2646 32.1325C12.2566 32.1269 12.2473 32.1235 12.2376 32.1225C12.2278 32.1216 12.218 32.1233 12.2091 32.1273C11.543 32.4521 11.2035 32.7931 11.1903 33.1504C11.1815 33.408 11.2725 33.4492 11.4631 33.2738L11.8772 32.8906C11.9225 32.8493 11.9794 32.8226 12.0404 32.8139C12.1014 32.8052 12.1637 32.815 12.2189 32.8418C12.3679 32.9133 12.4895 32.8786 12.5837 32.7379C12.5914 32.7262 12.5957 32.7126 12.5963 32.6987C12.5968 32.6847 12.5935 32.6709 12.5868 32.6586C12.5801 32.6463 12.5702 32.6361 12.5581 32.6289C12.546 32.6217 12.5321 32.6178 12.518 32.6177C12.4808 32.6177 12.4446 32.6145 12.4096 32.608C12.2934 32.5885 12.243 32.5214 12.2584 32.4066Z" fill="#C7C7C7"/>
<path d="M14.457 14.5725C14.251 14.6418 14.1042 14.7576 14.0166 14.92C13.975 14.9937 13.9147 15.0435 13.8358 15.0694C13.6145 15.1431 13.4426 15.0749 13.3199 14.8648C13.2684 14.776 13.1917 14.7047 13.0997 14.6602C12.8039 14.5195 12.4807 14.4675 12.1302 14.5043C12.0163 14.5173 11.9023 14.5119 11.7884 14.4881L10.9011 14.29C12.2069 14.0972 13.3922 14.1914 14.457 14.5725Z" fill="#959393"/>
<path d="M20.2114 15.0988C19.9003 15.1854 19.7414 15.0826 19.7349 14.7903C19.7261 14.4633 19.8499 14.4027 20.1062 14.6084L20.5499 14.9592C20.6463 15.0371 20.6397 15.1043 20.5302 15.1605C20.471 15.1909 20.4162 15.1833 20.3659 15.1378C20.3457 15.1181 20.3208 15.1041 20.2936 15.0973C20.2664 15.0904 20.238 15.0909 20.2114 15.0988Z" fill="#1B1F1C"/>
<path d="M14.894 15.2452C15.1525 15.308 15.3464 15.439 15.4757 15.6382C15.5787 15.7984 15.5381 15.8515 15.3541 15.7973C14.9488 15.6804 14.573 15.4877 14.2269 15.2192C14.0976 15.1196 14.1129 15.0525 14.2729 15.0178C14.4284 14.9832 14.5665 15.0222 14.687 15.1348C14.7461 15.1889 14.8151 15.2257 14.894 15.2452Z" fill="#959393"/>
<path d="M16.7015 18.0186C16.1406 18.0078 15.7287 17.9233 15.4658 17.7653C15.273 17.2348 14.8918 16.8526 14.3222 16.6188C14.2148 16.5755 14.137 16.5073 14.0888 16.4142C14.0779 16.3925 14.0779 16.3719 14.0888 16.3524C14.1655 16.2204 14.1283 16.1381 13.9771 16.1056C13.4907 16.0082 13.1194 15.7927 12.863 15.4593C12.6987 15.2449 12.7436 15.1843 12.9978 15.2774C13.4579 15.4441 13.8774 15.7083 14.2564 16.0699C14.2934 16.1045 14.3373 16.1308 14.3849 16.1471C14.4326 16.1633 14.4829 16.1691 14.5325 16.1641C14.894 16.1273 15.1722 16.2507 15.3672 16.5343C15.4286 16.6231 15.5064 16.6913 15.6006 16.7389C16.1549 17.0096 16.5219 17.4361 16.7015 18.0186Z" fill="#1B1F1C"/>
<path d="M19.7973 17.9992L20.4414 18.0219C20.4837 18.0227 20.524 18.0392 20.5545 18.0681C20.585 18.097 20.6033 18.1362 20.6058 18.1778C20.6167 18.3013 20.6945 18.3435 20.8391 18.3045C20.8688 18.2964 20.8965 18.2814 20.9198 18.2606C20.9432 18.2397 20.9617 18.2137 20.9738 18.1843C20.9914 18.1367 21.0187 18.0945 21.056 18.0577C21.1086 18.0035 21.1666 17.9981 21.2302 18.0414L21.5982 18.2785C21.6245 18.2969 21.6446 18.3227 21.6556 18.3526C21.6666 18.3825 21.6681 18.415 21.6598 18.4458C21.6516 18.4765 21.6341 18.5041 21.6095 18.5247C21.585 18.5453 21.5547 18.558 21.5227 18.5611C21.2072 18.5827 20.9136 18.6531 20.6419 18.7722C20.5083 18.8307 20.3834 18.8177 20.2673 18.7332C19.9781 18.521 19.6658 18.39 19.3306 18.3402C19.2946 18.3353 19.2607 18.3206 19.2326 18.2978C19.2045 18.275 19.1834 18.245 19.1715 18.211C19.1596 18.1771 19.1574 18.1406 19.1652 18.1055C19.173 18.0704 19.1904 18.0381 19.2156 18.0122C19.3449 17.8801 19.4895 17.8606 19.6494 17.9537C19.6946 17.9814 19.7456 17.9971 19.7973 17.9992Z" fill="#1B1F1C"/>
<path d="M10.786 18.2886L9.47146 20.9843C9.36301 19.893 9.57334 18.6946 10.786 18.2886Z" fill="#1B1F1C"/>
<path d="M12.9156 18.4994C12.8083 18.6423 12.8378 18.7971 13.0043 18.9639C13.1183 19.0786 13.1161 19.1891 12.9978 19.2952C12.8926 19.3883 12.8236 19.5041 12.7907 19.6427C12.7447 19.8397 12.6286 19.8949 12.4424 19.8083C12.2912 19.7369 12.1893 19.6329 12.1367 19.4965C12.1253 19.4658 12.122 19.4328 12.1272 19.4005C12.1323 19.3682 12.1458 19.3378 12.1662 19.312C12.1866 19.2863 12.2133 19.2662 12.2439 19.2536C12.2744 19.241 12.3076 19.2363 12.3405 19.2399C12.4172 19.2486 12.4895 19.241 12.5574 19.2172C12.6713 19.1782 12.7086 19.1024 12.6691 18.9899L12.4522 18.3533L12.9156 18.4994Z" fill="#959393"/>
<path d="M22.2094 19.2657C22.2423 19.3848 22.2073 19.4768 22.1043 19.5418C22.0781 19.5582 22.0477 19.5666 22.0167 19.5661C21.9857 19.5655 21.9556 19.5559 21.9301 19.5385C21.6803 19.3696 21.6299 19.1661 21.7789 18.9279C21.8447 18.8197 21.9432 18.7601 22.0747 18.7493C22.2346 18.7363 22.3069 18.8088 22.2916 18.9669C22.2785 19.0752 22.2511 19.1748 22.2094 19.2657Z" fill="#959393"/>
<path d="M14.217 20.8802L14.0362 22.2768L13.3297 19.711C13.3012 19.6135 13.3373 19.5724 13.4381 19.5875C13.4951 19.594 13.5367 19.6211 13.563 19.6687C13.7996 20.078 14.0176 20.4818 14.217 20.8802Z" fill="#1B1F1C"/>
<path d="M20.2015 19.8376C20.4579 20.0455 20.8522 20.1235 21.1447 19.9383C21.274 19.8604 21.4109 19.8376 21.5555 19.8701C21.7308 19.9091 21.7439 19.9784 21.5949 20.078C21.1655 20.3616 20.7 20.5381 20.1982 20.6074C20.0383 20.6269 19.9868 20.563 20.0438 20.4158L20.1457 20.1559C20.1785 20.0715 20.15 20.026 20.0602 20.0195L19.9748 20.013C20.0449 19.9351 20.1205 19.8766 20.2015 19.8376Z" fill="#1B1F1C"/>
<path d="M19.7184 20.5552C19.7732 20.5271 19.829 20.5227 19.886 20.5422C19.9247 20.5549 19.9583 20.5793 19.9822 20.612C20.006 20.6446 20.0188 20.6838 20.0188 20.7241C20.0188 20.7644 20.006 20.8036 19.9822 20.8363C19.9583 20.8689 19.9247 20.8933 19.886 20.906C19.7173 20.9645 19.5387 20.9861 19.3503 20.971C19.1707 20.958 19.1444 20.8887 19.2714 20.7631C19.4029 20.6364 19.5672 20.6364 19.7184 20.5552Z" fill="#1B1F1C"/>
<path d="M13.2311 22.6665C13.1895 22.7487 13.1719 22.8104 13.1785 22.8516L12.002 23.0952C11.8968 23.1168 11.8103 23.1688 11.7424 23.2511C11.2954 23.7902 11.2001 24.167 10.4147 24.495C10.3446 24.2482 10.4136 24.0663 10.6217 23.9494C11.1311 23.6603 11.5288 23.2283 11.8607 22.7606C11.9242 22.6697 12.0129 22.6177 12.1269 22.6047C12.2145 22.5961 12.2989 22.569 12.3799 22.5235C12.5399 22.4326 12.5508 22.3265 12.4128 22.2053C12.3273 22.1273 12.2342 22.1046 12.1334 22.1371C12.0721 22.1587 12.0162 22.1912 11.9658 22.2345C11.1223 22.9858 10.3325 23.761 9.59636 24.56C9.51968 24.6444 9.53721 24.7007 9.64894 24.7288L10.1189 24.8458C9.65004 25.3849 9.34879 25.9316 9.21514 26.4859C9.21295 26.4989 9.20528 26.5087 9.19214 26.5152C9.15708 26.5368 9.12641 26.5422 9.10012 26.5314C9.06945 26.5206 9.05411 26.4989 9.05411 26.4665C9.04315 25.9273 9.13736 25.4206 9.33674 24.9465C9.37327 24.8594 9.38464 24.7627 9.3696 24.6671C9.33674 24.456 9.42876 24.1605 9.59308 24.0078C10.0072 23.6376 10.3544 23.2327 10.6349 22.7931L11.371 21.7148C11.4389 21.6131 11.417 21.5384 11.3053 21.4907L11.0062 21.3673L11.5419 20.7859C11.5737 20.7516 11.613 20.7249 11.6568 20.7079C11.7006 20.6909 11.7478 20.684 11.7947 20.6878C11.8417 20.6915 11.8871 20.7058 11.9276 20.7296C11.9681 20.7534 12.0025 20.786 12.0283 20.8249L13.2311 22.6665Z" fill="#C7C7C7"/>
<path d="M16.5372 20.7989C16.5493 20.7749 16.5679 20.7546 16.5909 20.7403C16.6139 20.7261 16.6405 20.7184 16.6676 20.718C16.6948 20.7177 16.7215 20.7248 16.7449 20.7384C16.7683 20.7521 16.7874 20.7719 16.8001 20.7956C16.9031 20.9797 16.8779 21.1572 16.7245 21.3283C16.7117 21.3432 16.6953 21.3547 16.6768 21.3617C16.6583 21.3687 16.6384 21.371 16.6188 21.3684C16.5991 21.3658 16.5805 21.3584 16.5645 21.3469C16.5485 21.3353 16.5358 21.32 16.5273 21.3023C16.4463 21.1356 16.4496 20.9678 16.5372 20.7989Z" fill="#1B1F1C"/>
<path d="M14.0363 22.2767L14.217 20.8801C14.7472 21.1226 14.9247 21.5968 14.7494 22.3027C14.7253 22.4045 14.6749 22.4196 14.5982 22.3482C14.3857 22.149 14.1984 22.1251 14.0363 22.2767Z" fill="#959393"/>
<path d="M17.4312 21.2214C17.4751 21.152 17.5376 21.1108 17.6188 21.0978C17.6371 21.0945 17.6559 21.0956 17.6736 21.1011C17.6914 21.1065 17.7076 21.1161 17.7211 21.1291C17.7345 21.1421 17.7448 21.1581 17.7511 21.1758C17.7573 21.1935 17.7594 21.2125 17.7571 21.2312C17.7462 21.3332 17.7023 21.4221 17.6254 21.498C17.5354 21.5848 17.4652 21.5718 17.4147 21.459C17.3774 21.3744 17.3829 21.2952 17.4312 21.2214Z" fill="#1B1F1C"/>
<path d="M11.0062 21.3672L11.3053 21.4906C11.417 21.5382 11.4389 21.6129 11.371 21.7147L10.6349 22.793C10.6195 22.544 10.5461 22.348 10.4147 22.2051C10.3402 22.125 10.3413 22.046 10.418 21.968L11.0062 21.3672Z" fill="#1B1F1C"/>
<path d="M10.4147 24.4951L10.1189 24.8458L9.64898 24.7289C9.53725 24.7008 9.51972 24.6445 9.5964 24.56C10.3326 23.7611 11.1224 22.9859 11.9659 22.2346C12.0163 22.1913 12.0721 22.1588 12.1335 22.1371C12.2343 22.1047 12.3274 22.1274 12.4128 22.2053C12.5509 22.3266 12.5399 22.4327 12.38 22.5236C12.2989 22.5691 12.2145 22.5962 12.1269 22.6048C12.013 22.6178 11.9243 22.6698 11.8607 22.7607C11.5288 23.2284 11.1311 23.6604 10.6218 23.9494C10.4136 24.0664 10.3446 24.2482 10.4147 24.4951Z" fill="#959393"/>
<path d="M14.641 24.0859C13.8457 23.8391 13.7044 23.2512 13.1786 22.8517C13.172 22.8106 13.1895 22.7489 13.2311 22.6666C13.5313 22.7121 13.6321 22.6785 13.5335 22.5659C14.1009 23.0812 14.4701 23.5879 14.641 24.0859Z" fill="#959393"/>
<path d="M19.6855 24.5242C19.6768 24.6562 19.6078 24.7288 19.4785 24.7418C19.3164 24.7569 19.2474 24.6855 19.2715 24.5274C19.3087 24.2871 19.4478 24.0857 19.6888 23.9233C19.717 23.9041 19.7497 23.8924 19.7838 23.8893C19.8179 23.8861 19.8522 23.8917 19.8835 23.9053C19.9148 23.919 19.942 23.9404 19.9626 23.9674C19.9832 23.9944 19.9964 24.0262 20.001 24.0597C20.0186 24.1831 19.9682 24.2654 19.8499 24.3065C19.8034 24.3227 19.7629 24.3521 19.7336 24.3909C19.7043 24.4297 19.6876 24.4761 19.6855 24.5242Z" fill="#1B1F1C"/>
<path d="M24.0729 25.8752C24.0729 25.8904 24.0685 25.9077 24.0597 25.9272C24.0466 25.951 24.0531 25.9651 24.0794 25.9694C24.1079 25.9738 24.1397 25.9846 24.1747 26.0019C23.4758 26.2617 23.0344 26.1546 22.8503 25.6804C22.8218 25.6046 22.766 25.5732 22.6827 25.5862L21.5884 25.7518C21.4898 25.767 21.4142 25.7323 21.3616 25.6479C21.3397 25.6111 21.3375 25.5721 21.355 25.531C21.366 25.5093 21.3835 25.4952 21.4076 25.4887C21.5632 25.4476 21.7067 25.3848 21.8381 25.3004C21.9345 25.2376 21.9849 25.1499 21.9893 25.0373C21.9937 24.9117 21.9247 24.8099 21.7823 24.732C21.7395 24.7089 21.6919 24.696 21.6434 24.6943C21.5949 24.6926 21.5468 24.7022 21.5029 24.7222C21.1765 24.8716 20.9059 24.8446 20.6912 24.641C20.5948 24.5501 20.4951 24.5447 20.3921 24.6248C20.3089 24.6876 20.2508 24.8067 20.2179 24.9821C20.0974 24.8781 19.9616 24.8435 19.8104 24.8781L19.9649 24.7515C20.0438 24.6865 20.0865 24.6021 20.0931 24.4981C20.1084 24.2513 20.2464 24.1246 20.5071 24.1181C20.8029 24.1116 21.1085 24.1084 21.424 24.1084C21.538 24.1084 21.6322 24.1506 21.7067 24.2351C22.0243 24.5858 22.4242 24.8034 22.9062 24.8879C22.9332 24.8929 22.9584 24.9045 22.9792 24.9216C22.9999 24.9387 23.0156 24.9606 23.0245 24.9853C23.2721 25.6695 23.6215 25.9662 24.0729 25.8752Z" fill="#959393"/>
<path d="M20.2179 24.9824C20.356 25.0668 20.4502 25.1654 20.5006 25.278C20.5531 25.397 20.5137 25.4479 20.3823 25.4306C20.1084 25.3938 19.9178 25.2098 19.8104 24.8785C19.9616 24.8438 20.0974 24.8785 20.2179 24.9824Z" fill="#1B1F1C"/>
<path d="M12.8828 27.1713C12.9726 27.1692 13.0394 27.1778 13.0833 27.1973C13.1884 27.2406 13.1873 27.2807 13.08 27.3175C12.9551 27.3586 12.8784 27.4636 12.8499 27.6325L10.1978 27.9313C10.1343 27.9378 10.1069 27.9736 10.1157 28.0385C10.1178 28.0645 10.1211 28.0959 10.1255 28.1327C10.0948 28.0807 10.0127 28.0493 9.87903 28.0385C10.1419 27.6401 10.5221 27.4063 11.0194 27.337C11.0384 27.3344 11.0566 27.3279 11.0728 27.3178C11.0891 27.3077 11.1031 27.2943 11.1139 27.2784C11.1247 27.2625 11.1322 27.2445 11.1357 27.2255C11.1392 27.2065 11.1388 27.187 11.1344 27.1681C11.095 26.9992 10.9405 26.9212 10.6711 26.9342C10.5555 26.9406 10.4444 26.9813 10.3523 27.0512C9.99077 27.3261 9.67309 27.6791 9.39922 28.11C9.30282 28.2724 9.16151 28.3352 8.97528 28.2983C9.41566 27.4236 10.0488 26.7643 10.8748 26.3204C10.9603 26.2749 11.0391 26.2836 11.1114 26.3464C11.1509 26.3789 11.1607 26.4157 11.141 26.4568C11.0731 26.5889 11.1114 26.6528 11.256 26.6484L11.6307 26.6354C11.738 26.6311 11.8399 26.6528 11.9363 26.7004L12.8828 27.1713Z" fill="#1B1F1C"/>
<path d="M20.7766 26.3883L21.3714 26.4273C21.4766 26.436 21.5653 26.4771 21.6376 26.5507C21.8633 26.7759 22.1405 26.8625 22.4691 26.8105L22.5217 27.0444C22.1448 27.5142 21.5566 27.7535 20.7569 27.7622C20.6473 27.7622 20.5466 27.7914 20.4545 27.8499C20.2924 27.9516 20.1029 28.0155 19.886 28.0415C19.4456 28.1346 18.9779 28.1086 18.4827 27.9635C18.3797 27.9332 18.2757 27.9289 18.1705 27.9505C17.9295 27.9982 17.6984 27.9928 17.4771 27.9343C18.073 27.5792 18.2472 27.2847 17.9996 27.0509C18.2078 26.9968 18.4203 27.0227 18.6372 27.1288C18.7467 27.183 18.853 27.1786 18.956 27.1158C19.2714 26.9253 19.6045 26.7911 19.955 26.7131C20.0646 26.6871 20.1621 26.6373 20.2475 26.5637C20.4096 26.4208 20.586 26.3623 20.7766 26.3883ZM21.5011 27.0013C21.5163 26.95 21.4849 26.8876 21.414 26.8278C21.3431 26.7679 21.2384 26.7156 21.123 26.6822C21.0658 26.6657 21.0077 26.6543 20.9521 26.6488C20.8964 26.6432 20.8442 26.6436 20.7984 26.6499C20.7527 26.6562 20.7143 26.6682 20.6855 26.6853C20.6567 26.7024 20.638 26.7243 20.6305 26.7497C20.6154 26.801 20.6467 26.8634 20.7176 26.9232C20.7885 26.9831 20.8932 27.0354 21.0086 27.0688C21.0658 27.0853 21.1239 27.0967 21.1796 27.1022C21.2352 27.1078 21.2874 27.1074 21.3332 27.1011C21.3789 27.0949 21.4173 27.0828 21.4461 27.0657C21.4749 27.0486 21.4936 27.0267 21.5011 27.0013Z" fill="#959393"/>
<path d="M22.5217 27.0447L22.4691 26.8108C22.6356 26.59 22.8186 26.4925 23.0179 26.5185C23.1275 26.5337 23.1384 26.5748 23.0508 26.6419L22.5217 27.0447Z" fill="#959393"/>
<path d="M14.8223 27.6328C14.8464 27.7955 14.8036 27.9224 14.6938 28.0136C14.5973 28.0917 14.5457 28.07 14.5391 27.9485C14.5325 27.7988 14.5731 27.6773 14.6609 27.584C14.7509 27.4907 14.8047 27.507 14.8223 27.6328Z" fill="#959393"/>
<path d="M16.7249 27.812C16.7029 27.8597 16.6678 27.8868 16.6195 27.8933C16.5449 27.9042 16.5229 27.876 16.5536 27.8087C16.6041 27.6959 16.6897 27.6167 16.8105 27.5711C16.8566 27.5538 16.8851 27.5679 16.8961 27.6135C16.9093 27.6655 16.8829 27.7035 16.8171 27.7274C16.7754 27.7425 16.7446 27.7707 16.7249 27.812Z" fill="#1B1F1C"/>
<path d="M19.886 28.0417C19.9386 28.0114 19.9879 27.9984 20.0339 28.0028C20.104 28.0093 20.1226 28.0439 20.0898 28.1067C20.0482 28.189 20.0701 28.2345 20.1555 28.2431C19.7524 28.3427 19.4697 28.3871 19.3076 28.3763C19.0184 28.359 18.3272 28.2723 17.2339 28.1165C17.3698 28.0472 17.4508 27.9865 17.4771 27.9346C17.6984 27.993 17.9295 27.9984 18.1705 27.9508C18.2757 27.9292 18.3798 27.9335 18.4827 27.9638C18.9779 28.1089 19.4456 28.1349 19.886 28.0417Z" fill="#959393"/>
<path d="M21.917 29.7596C21.435 29.6968 21.1173 29.7488 20.964 29.9155C20.5192 29.9523 20.1884 30.1082 19.9715 30.3832C19.8619 30.5196 19.7721 30.5207 19.702 30.3865C19.6976 30.3756 19.6878 30.3702 19.6724 30.3702C19.5935 30.3681 19.5245 30.3897 19.4654 30.4352C19.1192 30.7015 18.7939 30.6539 18.4893 30.2923C18.4499 30.2446 18.4356 30.1905 18.4466 30.1299C18.4597 30.0714 18.4937 30.0303 18.5485 30.0065C18.6339 29.9653 18.681 29.9913 18.6898 30.0844C18.7007 30.2057 18.7621 30.2858 18.8738 30.3248C18.9921 30.3681 19.0995 30.3486 19.1959 30.2663C19.3712 30.1147 19.5771 30.0086 19.8137 29.948C19.8555 29.9376 19.8946 29.9186 19.9283 29.8921C19.9621 29.8655 19.9898 29.8322 20.0097 29.7942C20.0295 29.7561 20.0411 29.7143 20.0436 29.6714C20.046 29.6285 20.0394 29.5855 20.0241 29.5453C19.9561 29.3612 20.0087 29.2216 20.1818 29.1263C20.3505 29.0375 20.414 29.0851 20.3724 29.2692L20.3198 29.4998C20.2935 29.6189 20.3417 29.6676 20.4644 29.6459L20.8851 29.5712C20.914 29.5655 20.9401 29.5505 20.9592 29.5287C20.9783 29.5069 20.9892 29.4795 20.9903 29.4511C20.9968 29.2649 21.0428 29.083 21.1283 28.9054C21.1721 28.821 21.2247 28.8145 21.286 28.8859C21.4985 29.1285 21.8217 29.2605 22.2555 29.2822C22.422 29.2908 22.4527 29.2313 22.3475 29.1036C22.3059 29.0538 22.2566 29.0159 22.1996 28.9899C22.066 28.9336 22.0101 28.834 22.032 28.6911L22.0583 28.5287C22.0824 28.3706 22.1635 28.3316 22.3015 28.4118C22.4658 28.507 22.6192 28.6424 22.7616 28.8177C22.8492 28.9238 22.8558 29.0343 22.7813 29.149C22.5841 29.4457 22.296 29.6492 21.917 29.7596Z" fill="#959393"/>
<path d="M18.9297 29.7531C19.1027 29.5539 19.2923 29.4099 19.4982 29.3211C19.6998 29.2324 19.748 29.2832 19.6428 29.4738C19.4894 29.7574 19.2802 29.9079 19.0151 29.9252C18.8464 29.9361 18.8179 29.8787 18.9297 29.7531Z" fill="#1B1F1C"/>
<path d="M21.917 29.7597L21.4964 30.2858C21.4219 30.3789 21.4438 30.4136 21.5621 30.3897C21.9455 30.3075 22.295 30.3172 22.6104 30.419C21.9817 30.7416 21.2685 30.8358 20.471 30.7015C20.4491 30.4828 20.5762 30.3659 20.8522 30.3508C20.9684 30.3443 21.0176 30.2847 21.0001 30.1721L20.964 29.9156C21.1173 29.7488 21.435 29.6969 21.917 29.7597Z" fill="#1B1F1C"/>
<path d="M14.0173 31.6333C14.1381 31.6008 14.1688 31.6388 14.1095 31.7472C14.0327 31.8861 13.913 31.9653 13.7506 31.9848C13.6211 31.9978 13.5969 31.9544 13.6782 31.8546C13.7704 31.7418 13.8834 31.668 14.0173 31.6333Z" fill="#1B1F1C"/>
<path d="M13.0899 32.3427C13.1667 32.2147 13.271 32.1138 13.4027 32.0401C13.5541 31.9533 13.5893 31.9869 13.508 32.141C13.4356 32.2798 13.3247 32.3785 13.1755 32.4371C13.0503 32.487 13.0218 32.4555 13.0899 32.3427Z" fill="#1B1F1C"/>
<path d="M55.3362 23.3065C54.6953 24.3393 55.1554 26.0509 56.3648 26.5933C57.32 27.022 58.261 26.8088 59.1878 25.9535C59.2316 25.9123 59.2743 25.9145 59.316 25.96L60.2789 26.9668C60.2951 26.9842 60.3038 27.0072 60.3032 27.0308C60.3026 27.0545 60.2927 27.0769 60.2756 27.0935C59.1626 28.1783 57.7922 28.5323 56.1643 28.1555C54.3864 27.7431 53.1672 25.9827 53.3413 24.2126C53.693 20.6887 57.5742 19.474 60.177 21.6793C60.2383 21.7291 60.2427 21.7832 60.1901 21.8417L59.2667 22.868C59.2564 22.8788 59.2428 22.8857 59.2283 22.8875C59.2138 22.8893 59.1994 22.8858 59.1878 22.8778C57.5315 21.6847 56.2476 21.8276 55.3362 23.3065Z" fill="#1B1F1C"/>
<path d="M88.6667 24.1224C88.75 25.145 88.4049 26.1595 87.7076 26.9427C87.0102 27.7259 86.0176 28.2137 84.9481 28.2988C83.8787 28.3838 82.8199 28.0591 82.0048 27.3962C81.1897 26.7332 80.685 25.7863 80.6017 24.7637C80.5185 23.7411 80.8635 22.7266 81.5609 21.9433C82.2582 21.1601 83.2508 20.6723 84.3203 20.5873C85.3898 20.5023 86.4486 20.8269 87.2637 21.4899C88.0788 22.1528 88.5835 23.0998 88.6667 24.1224ZM84.8083 26.8047C85.1088 26.7834 85.4019 26.7014 85.6709 26.5634C85.9399 26.4253 86.1796 26.234 86.3762 26.0002C86.5728 25.7665 86.7225 25.4949 86.8167 25.201C86.911 24.9072 86.948 24.5967 86.9255 24.2874C86.8802 23.6628 86.5957 23.0808 86.1346 22.6696C85.6735 22.2583 85.0735 22.0514 84.4667 22.0944C84.1662 22.1157 83.8731 22.1977 83.6041 22.3357C83.3351 22.4737 83.0954 22.6651 82.8988 22.8988C82.7023 23.1325 82.5525 23.4041 82.4583 23.698C82.364 23.9919 82.3271 24.3023 82.3495 24.6116C82.3948 25.2362 82.6793 25.8182 83.1404 26.2295C83.6016 26.6408 84.2015 26.8477 84.8083 26.8047Z" fill="#1B1F1C"/>
<path d="M41.116 26.5867L40.4818 28.1002C40.4721 28.1224 40.4561 28.1414 40.4356 28.1546C40.4152 28.1679 40.3912 28.175 40.3668 28.1749L38.9175 28.1847C38.8968 28.1847 38.8764 28.1797 38.8581 28.17C38.8399 28.1603 38.8244 28.1463 38.813 28.1292C38.8016 28.1122 38.7946 28.0926 38.7928 28.0722C38.791 28.0518 38.7943 28.0313 38.8024 28.0125L41.9574 20.7373C41.967 20.7151 41.9831 20.6962 42.0035 20.6829C42.024 20.6696 42.0479 20.6625 42.0724 20.6626L43.4428 20.6658C43.4673 20.6658 43.4912 20.6728 43.5117 20.6861C43.5321 20.6994 43.5482 20.7183 43.5578 20.7405L46.6996 28.0223C46.7071 28.0409 46.7098 28.0611 46.7077 28.081C46.7055 28.1009 46.6984 28.12 46.6871 28.1366C46.6758 28.1533 46.6605 28.1669 46.6427 28.1764C46.6248 28.1859 46.6049 28.191 46.5846 28.1911L45.132 28.1782C45.1075 28.1782 45.0836 28.1712 45.0631 28.1579C45.0427 28.1446 45.0266 28.1257 45.017 28.1035L44.386 26.59C44.3763 26.5677 44.3603 26.5488 44.3398 26.5355C44.3194 26.5222 44.2954 26.5152 44.271 26.5153L41.2311 26.512C41.2066 26.5119 41.1827 26.519 41.1622 26.5323C41.1418 26.5456 41.1257 26.5645 41.116 26.5867ZM41.8062 24.8783C41.7981 24.898 41.7951 24.9194 41.7973 24.9405C41.7995 24.9617 41.807 24.9819 41.819 24.9996C41.831 25.0172 41.8472 25.0316 41.8661 25.0417C41.8851 25.0517 41.9063 25.0569 41.9278 25.057H43.5513C43.5728 25.0569 43.5939 25.0517 43.6129 25.0417C43.6319 25.0316 43.6481 25.0172 43.6601 24.9996C43.6721 24.9819 43.6795 24.9617 43.6817 24.9405C43.684 24.9194 43.6809 24.898 43.6729 24.8783L42.8611 22.9036C42.8512 22.8798 42.8344 22.8594 42.8127 22.8451C42.7911 22.8307 42.7656 22.8231 42.7395 22.8231C42.7135 22.8231 42.688 22.8307 42.6663 22.8451C42.6447 22.8594 42.6278 22.8798 42.6179 22.9036L41.8062 24.8783Z" fill="#1B1F1C"/>
<path d="M94.5427 26.5152L91.4962 26.5119C91.4708 26.5115 91.4459 26.5187 91.4247 26.5326C91.4036 26.5466 91.3872 26.5665 91.3779 26.5899L90.7601 28.0969C90.7509 28.1197 90.7351 28.1393 90.7146 28.1532C90.6941 28.1671 90.6699 28.1746 90.645 28.1748L89.1826 28.1846C89.1619 28.1846 89.1415 28.1796 89.1233 28.1699C89.105 28.1602 89.0895 28.1462 89.0781 28.1292C89.0667 28.1121 89.0598 28.0925 89.0579 28.0721C89.0561 28.0517 89.0594 28.0312 89.0676 28.0124L92.2225 20.7405C92.2321 20.7183 92.2482 20.6993 92.2686 20.686C92.2891 20.6728 92.313 20.6657 92.3375 20.6658H93.7014C93.7258 20.6657 93.7498 20.6728 93.7702 20.686C93.7907 20.6993 93.8067 20.7183 93.8164 20.7405L96.968 28.0157C96.9762 28.0345 96.9795 28.055 96.9777 28.0754C96.9758 28.0957 96.9689 28.1154 96.9575 28.1324C96.9461 28.1495 96.9306 28.1635 96.9123 28.1732C96.8941 28.1828 96.8737 28.1879 96.853 28.1878L95.3906 28.1781C95.3657 28.1779 95.3415 28.1703 95.321 28.1565C95.3005 28.1426 95.2847 28.123 95.2755 28.1001L94.661 26.5931C94.6516 26.5698 94.6353 26.5498 94.6141 26.5359C94.593 26.522 94.5681 26.5147 94.5427 26.5152ZM92.0549 24.901C92.0479 24.9181 92.0453 24.9366 92.0473 24.955C92.0492 24.9733 92.0556 24.9909 92.066 25.0063C92.0763 25.0216 92.0903 25.0342 92.1067 25.0431C92.1231 25.0519 92.1414 25.0566 92.16 25.0569L93.8394 25.0601C93.858 25.0599 93.8764 25.0551 93.8928 25.0463C93.9091 25.0375 93.9231 25.0249 93.9335 25.0095C93.9438 24.9942 93.9502 24.9766 93.9522 24.9582C93.9541 24.9399 93.9515 24.9214 93.9445 24.9042L93.1098 22.8906C93.1013 22.8695 93.0865 22.8514 93.0675 22.8386C93.0485 22.8259 93.026 22.8191 93.003 22.8191C92.98 22.8191 92.9575 22.8259 92.9385 22.8386C92.9195 22.8514 92.9047 22.8695 92.8962 22.8906L92.0549 24.901Z" fill="#1B1F1C"/>
<path d="M101.638 25.6125C100.379 25.0116 98.4041 25.0376 97.9671 23.5079C97.7436 22.7305 97.8948 22.0442 98.4206 21.4487C99.607 20.1009 101.999 20.5718 103.288 21.4974C103.338 21.5342 103.345 21.5775 103.307 21.6274L102.529 22.7446C102.496 22.7923 102.456 22.7987 102.41 22.7641C101.809 22.3159 100.291 21.6566 99.699 22.3516C99.6282 22.4345 99.5799 22.5338 99.5586 22.6401C99.5373 22.7465 99.5437 22.8565 99.5772 22.9598C99.6107 23.063 99.6703 23.1562 99.7502 23.2305C99.8301 23.3047 99.9279 23.3577 100.034 23.3844C101.612 23.7839 103.869 24.1737 103.547 26.3303C103.385 27.4021 102.699 28.0311 101.49 28.2173C100.125 28.4251 98.8686 28.0928 97.7206 27.2202C97.6132 27.1379 97.6045 27.0459 97.6943 26.9441L98.4863 26.0412C98.5586 25.9589 98.6353 25.9535 98.7164 26.025C99.4098 26.6291 100.991 27.2819 101.789 26.4927C101.851 26.4307 101.898 26.355 101.924 26.2717C101.951 26.1885 101.957 26.1002 101.942 26.0142C101.928 25.9281 101.892 25.8468 101.839 25.7769C101.786 25.707 101.717 25.6507 101.638 25.6125Z" fill="#1B1F1C"/>
<path d="M129.063 25.2876L127.936 25.3104C127.754 25.3147 127.663 25.227 127.663 25.0473L127.653 24.2288C127.651 24.0036 127.766 23.891 127.998 23.891L130.673 23.8943C130.866 23.8943 130.962 23.9896 130.962 24.1801L130.966 26.9083C130.966 26.97 130.951 27.0309 130.924 27.0866C130.897 27.1423 130.857 27.1913 130.808 27.2298C128.754 28.8603 125.408 28.7271 124.153 26.2392C123.64 25.2216 123.589 24.1758 123.998 23.1018C125.017 20.4191 128.258 19.9351 130.499 21.4357C130.644 21.5331 130.66 21.6478 130.548 21.7799L129.825 22.6439C129.698 22.7933 129.558 22.8062 129.405 22.6828C128.218 21.7215 126.634 21.9521 125.845 23.1863C125.136 24.2938 125.477 25.9339 126.7 26.5543C127.438 26.9267 128.242 26.9159 129.112 26.5218C129.183 26.4907 129.243 26.4402 129.286 26.3763C129.328 26.3124 129.351 26.2378 129.352 26.1613L129.359 25.5799C129.361 25.3829 129.262 25.2855 129.063 25.2876Z" fill="#1B1F1C"/>
<path d="M36.8306 24.3877C37.593 24.6887 37.9907 25.2354 38.0235 26.0279C38.0827 27.3628 36.9324 28.113 35.6935 28.152C34.4205 28.191 33.1213 28.1986 31.7958 28.1747C31.6578 28.1726 31.5888 28.1022 31.5888 27.9636L31.5822 20.9515C31.5822 20.8021 31.6567 20.7252 31.8057 20.7209C33.0655 20.6884 34.322 20.6982 35.5752 20.7501C36.1503 20.7761 36.8634 21.0846 37.2019 21.5491C37.8745 22.4672 37.7387 23.3473 36.7944 24.1896C36.7794 24.2036 36.768 24.2211 36.7615 24.2404C36.755 24.2597 36.7534 24.2803 36.7571 24.3001C36.7607 24.3199 36.7693 24.3384 36.7822 24.3537C36.7951 24.369 36.8117 24.3807 36.8306 24.3877ZM33.2188 22.3968L33.2123 23.4751C33.2123 23.5405 33.2386 23.6033 33.2854 23.6496C33.3323 23.6959 33.3958 23.7219 33.462 23.7219L34.9442 23.7252C35.0759 23.7257 35.2064 23.7075 35.3282 23.6717C35.4501 23.6359 35.5609 23.5832 35.6543 23.5165C35.7477 23.4499 35.8218 23.3706 35.8726 23.2832C35.9233 23.1959 35.9495 23.1021 35.9498 23.0074V22.8775C35.9504 22.6864 35.8455 22.5027 35.6582 22.3669C35.4709 22.2311 35.2164 22.1543 34.9508 22.1532L33.4686 22.1499C33.4358 22.1499 33.4033 22.1563 33.373 22.1687C33.3427 22.1811 33.3152 22.1993 33.292 22.2222C33.2688 22.2452 33.2504 22.2724 33.2378 22.3023C33.2253 22.3323 33.2188 22.3644 33.2188 22.3968ZM33.2123 25.3101L33.2057 26.5118C33.2053 26.5415 33.2108 26.571 33.222 26.5986C33.2332 26.6262 33.2498 26.6512 33.2709 26.6724C33.292 26.6936 33.3172 26.7104 33.3449 26.7218C33.3726 26.7333 33.4024 26.7392 33.4324 26.7392L35.2465 26.7489C35.5434 26.7503 35.8286 26.6718 36.0393 26.5305C36.25 26.3892 36.3691 26.1968 36.3705 25.9954V25.8655C36.3711 25.7656 36.3427 25.6665 36.2869 25.5739C36.2311 25.4813 36.149 25.397 36.0452 25.3258C35.9414 25.2546 35.818 25.1979 35.6821 25.159C35.5462 25.1201 35.4004 25.0997 35.2531 25.099L33.439 25.0893C33.3794 25.0893 33.3223 25.1124 33.2798 25.1538C33.2374 25.1951 33.2131 25.2512 33.2123 25.3101Z" fill="#1B1F1C"/>
<path d="M46.4301 22.1079V20.8575C46.4301 20.8205 46.445 20.7849 46.4715 20.7588C46.498 20.7326 46.5339 20.7178 46.5714 20.7178L52.5658 20.7146C52.6032 20.7146 52.6392 20.7293 52.6657 20.7555C52.6922 20.7817 52.7071 20.8172 52.7071 20.8543V22.1079C52.7071 22.145 52.6922 22.1805 52.6657 22.2067C52.6392 22.2329 52.6032 22.2476 52.5658 22.2476L50.5413 22.2281C50.5039 22.2281 50.4679 22.2428 50.4414 22.269C50.4149 22.2952 50.4 22.3307 50.4 22.3678V28.0418C50.4 28.0788 50.3851 28.1143 50.3586 28.1405C50.3321 28.1667 50.2962 28.1814 50.2587 28.1814H48.8817C48.8632 28.1814 48.8448 28.1778 48.8276 28.1708C48.8105 28.1638 48.7949 28.1535 48.7818 28.1405C48.7687 28.1276 48.7583 28.1122 48.7512 28.0952C48.7441 28.0783 48.7404 28.0601 48.7404 28.0418L48.7371 22.3678C48.7371 22.3307 48.7222 22.2952 48.6957 22.269C48.6692 22.2428 48.6333 22.2281 48.5958 22.2281L46.5714 22.2476C46.5339 22.2476 46.498 22.2329 46.4715 22.2067C46.445 22.1805 46.4301 22.145 46.4301 22.1079Z" fill="#1B1F1C"/>
<path d="M63.3089 25.3557L63.3352 28.0059C63.3352 28.049 63.3179 28.0903 63.2871 28.1208C63.2563 28.1512 63.2145 28.1683 63.1709 28.1683L61.8136 28.1781C61.77 28.1781 61.7282 28.161 61.6974 28.1305C61.6666 28.1001 61.6493 28.0588 61.6493 28.0157V20.8606C61.6493 20.8176 61.6666 20.7763 61.6974 20.7458C61.7282 20.7154 61.77 20.6982 61.8136 20.6982L63.1709 20.708C63.2145 20.708 63.2563 20.7251 63.2871 20.7555C63.3179 20.786 63.3352 20.8273 63.3352 20.8704L63.3089 23.5206C63.3089 23.5637 63.3262 23.605 63.357 23.6355C63.3879 23.6659 63.4297 23.683 63.4732 23.683H66.2437C66.2872 23.683 66.329 23.6659 66.3598 23.6355C66.3907 23.605 66.408 23.5637 66.408 23.5206L66.3817 20.8704C66.3817 20.8273 66.399 20.786 66.4298 20.7555C66.4606 20.7251 66.5024 20.708 66.546 20.708L67.9033 20.6982C67.9468 20.6982 67.9886 20.7154 68.0195 20.7458C68.0503 20.7763 68.0676 20.8176 68.0676 20.8606L68.0643 28.0157C68.0643 28.0588 68.047 28.1001 68.0162 28.1305C67.9854 28.161 67.9436 28.1781 67.9 28.1781L66.546 28.1683C66.5024 28.1683 66.4606 28.1512 66.4298 28.1208C66.399 28.0903 66.3817 28.049 66.3817 28.0059L66.408 25.3557C66.408 25.3126 66.3907 25.2713 66.3598 25.2409C66.329 25.2104 66.2872 25.1933 66.2437 25.1933H63.4732C63.4297 25.1933 63.3879 25.2104 63.357 25.2409C63.3262 25.2713 63.3089 25.3126 63.3089 25.3557Z" fill="#1B1F1C"/>
<path d="M77.9826 25.4567C77.9618 25.4659 77.9434 25.4796 77.9286 25.4968C77.9138 25.5139 77.9031 25.5341 77.8971 25.5558C77.8911 25.5775 77.8901 25.6003 77.8941 25.6224C77.8981 25.6446 77.907 25.6656 77.9201 25.684L79.5009 27.9185C79.6323 28.1048 79.583 28.1968 79.353 28.1946L78.0549 28.1849C77.9517 28.1839 77.8504 28.1582 77.76 28.1101C77.6695 28.062 77.5925 27.9929 77.5356 27.9088L76.2079 25.9438C76.1782 25.9004 76.1389 25.8646 76.0932 25.8392C76.0475 25.8138 75.9968 25.7996 75.945 25.7977L75.0216 25.7717C74.8638 25.7652 74.7849 25.841 74.7849 25.9991L74.7915 27.9673C74.7937 28.1015 74.7269 28.1697 74.591 28.1719L73.3652 28.1979C73.1965 28.2022 73.1122 28.121 73.1122 27.9543L73.1089 20.8999C73.1089 20.7657 73.1768 20.7007 73.3126 20.705C74.3424 20.7289 75.3601 20.7299 76.3657 20.7083C77.1917 20.6888 77.8643 20.8414 78.3835 21.1662C79.9906 22.1666 79.7605 24.6382 77.9826 25.4567ZM74.7817 22.3614V24.1867C74.7817 24.2298 74.799 24.2711 74.8298 24.3016C74.8606 24.332 74.9024 24.3491 74.946 24.3491H76.6023C76.9091 24.3491 77.2033 24.2414 77.4203 24.0495C77.6372 23.8576 77.7591 23.5974 77.7591 23.3261V23.2221C77.7591 22.9508 77.6372 22.6906 77.4203 22.4987C77.2033 22.3068 76.9091 22.1991 76.6023 22.1991H74.946C74.9024 22.1991 74.8606 22.2162 74.8298 22.2466C74.799 22.2771 74.7817 22.3184 74.7817 22.3614Z" fill="#1B1F1C"/>
<path d="M106.499 22.2249L104.454 22.2541C104.421 22.2541 104.39 22.2411 104.366 22.2179C104.343 22.1948 104.33 22.1634 104.33 22.1307L104.313 20.8413C104.313 20.8251 104.316 20.809 104.323 20.794C104.329 20.7791 104.338 20.7655 104.35 20.754C104.361 20.7425 104.375 20.7334 104.39 20.7272C104.405 20.721 104.422 20.7178 104.438 20.7178L110.485 20.7146C110.518 20.7146 110.55 20.7276 110.573 20.7507C110.597 20.7739 110.61 20.8053 110.61 20.838L110.597 22.1274C110.597 22.1436 110.593 22.1597 110.587 22.1747C110.581 22.1896 110.572 22.2032 110.56 22.2147C110.548 22.2262 110.535 22.2352 110.52 22.2414C110.504 22.2476 110.488 22.2508 110.472 22.2508L108.424 22.2249C108.391 22.2249 108.359 22.2379 108.336 22.261C108.313 22.2842 108.299 22.3155 108.299 22.3483L108.303 28.0613C108.303 28.0775 108.3 28.0935 108.293 28.1085C108.287 28.1235 108.278 28.1371 108.266 28.1485C108.255 28.16 108.241 28.1691 108.226 28.1753C108.211 28.1815 108.194 28.1847 108.178 28.1847L106.755 28.1814C106.722 28.1814 106.69 28.1684 106.667 28.1453C106.643 28.1221 106.63 28.0908 106.63 28.058L106.623 22.3483C106.623 22.3155 106.61 22.2842 106.587 22.261C106.563 22.2379 106.532 22.2249 106.499 22.2249Z" fill="#1B1F1C"/>
<path d="M113.508 20.7241H112.082C112.013 20.7241 111.957 20.7794 111.957 20.8475V28.0643C111.957 28.1325 112.013 28.1877 112.082 28.1877H113.508C113.577 28.1877 113.633 28.1325 113.633 28.0643V20.8475C113.633 20.7794 113.577 20.7241 113.508 20.7241Z" fill="#1B1F1C"/>
<path d="M120.643 25.0114L120.62 20.8703C120.62 20.8475 120.624 20.8247 120.632 20.8035C120.641 20.7822 120.654 20.7628 120.67 20.7465C120.686 20.7302 120.705 20.7172 120.727 20.7084C120.748 20.6995 120.771 20.6949 120.794 20.6949L122.079 20.6917C122.208 20.6917 122.273 20.7556 122.273 20.8833L122.267 27.8987C122.267 28.007 122.216 28.0784 122.115 28.1131C121.37 28.3686 120.773 28.1954 120.324 27.5934C119.306 26.225 118.324 24.9464 117.38 23.7577C117.235 23.5758 117.164 23.6007 117.166 23.8324L117.189 28.0059C117.189 28.112 117.135 28.165 117.028 28.165L115.717 28.1683C115.669 28.1683 115.623 28.1495 115.589 28.116C115.555 28.0825 115.536 28.037 115.536 27.9897L115.539 20.8996C115.539 20.7588 115.612 20.6895 115.756 20.6917L116.857 20.7047C116.971 20.7069 117.063 20.7523 117.133 20.8411L120.406 25.0926C120.566 25.3004 120.645 25.2734 120.643 25.0114Z" fill="#1B1F1C"/>
</svg>
