<svg width="140" height="34" viewBox="0 0 140 34" fill="none" xmlns="http://www.w3.org/2000/svg">
  <path
    d="M24.0729 18.8747C23.6215 18.9657 23.2721 18.669 23.0245 17.9848C23.0156 17.9602 22.9999 17.9382 22.9792 17.9211C22.9584 17.904 22.9332 17.8924 22.9062 17.8874C22.4242 17.803 22.0243 17.5853 21.7067 17.2346C21.6322 17.1501 21.538 17.1079 21.424 17.1079C21.1085 17.1079 20.8029 17.1112 20.5071 17.1177C20.2464 17.1241 20.1084 17.2508 20.0931 17.4977C20.0865 17.6016 20.0438 17.686 19.9649 17.751L19.8104 17.8777"
    stroke="#E0E0E0" stroke-width="0.649573" />
  <path
    d="M19.8104 17.8779C19.9178 18.2092 20.1084 18.3933 20.3823 18.4301C20.5137 18.4474 20.5531 18.3965 20.5006 18.2774C20.4502 18.1648 20.356 18.0663 20.2179 17.9819"
    stroke="#AEADAD" stroke-width="0.649573" />
  <path
    d="M21.917 22.7594C22.296 22.649 22.5841 22.4454 22.7813 22.1488C22.8558 22.034 22.8492 21.9236 22.7616 21.8175C22.6192 21.6421 22.4658 21.5068 22.3015 21.4115C22.1635 21.3314 22.0824 21.3704 22.0583 21.5284L22.032 21.6908C22.0101 21.8337 22.066 21.9333 22.1996 21.9896C22.2566 22.0156 22.3059 22.0535 22.3475 22.1033C22.4527 22.2311 22.422 22.2906 22.2555 22.2819C21.8217 22.2603 21.4985 22.1282 21.286 21.8857C21.2247 21.8143 21.1721 21.8207 21.1283 21.9052C21.0428 22.0827 20.9968 22.2646 20.9903 22.4508C20.9892 22.4793 20.9783 22.5066 20.9592 22.5284C20.9401 22.5502 20.914 22.5652 20.8851 22.571L20.4644 22.6457C20.3417 22.6674 20.2935 22.6186 20.3198 22.4995L20.3724 22.269C20.414 22.0849 20.3505 22.0373 20.1818 22.126C20.0087 22.2213 19.9561 22.361 20.0241 22.545C20.0394 22.5853 20.046 22.6283 20.0436 22.6712C20.0411 22.7141 20.0295 22.7559 20.0097 22.7939C19.9898 22.8319 19.9621 22.8653 19.9283 22.8918C19.8946 22.9183 19.8555 22.9374 19.8137 22.9478C19.5771 23.0084 19.3712 23.1145 19.1959 23.266C19.0995 23.3483 18.9921 23.3678 18.8738 23.3245C18.7621 23.2855 18.7007 23.2054 18.6898 23.0842C18.681 22.9911 18.6339 22.9651 18.5485 23.0062C18.4937 23.03 18.4597 23.0712 18.4466 23.1296C18.4356 23.1903 18.4499 23.2444 18.4893 23.292C18.7939 23.6536 19.1192 23.7013 19.4654 23.4349C19.5245 23.3895 19.5935 23.3678 19.6724 23.37C19.6878 23.37 19.6976 23.3754 19.702 23.3862C19.7721 23.5205 19.8619 23.5194 19.9715 23.383C20.1884 23.108 20.5192 22.9521 20.964 22.9153"
    stroke="#AEADAD" stroke-width="0.649573" />
  <path
    d="M20.964 22.915L21.0001 23.1716C21.0176 23.2842 20.9684 23.3438 20.8522 23.3503C20.5762 23.3654 20.4491 23.4823 20.471 23.701"
    stroke="#E0E0E0" stroke-width="0.649573" />
  <path
    d="M22.5217 20.0442L23.0508 19.6414C23.1385 19.5743 23.1275 19.5332 23.018 19.518C22.8186 19.492 22.6357 19.5895 22.4691 19.8103"
    stroke="#E0E0E0" stroke-width="0.649573" />
  <path d="M20.2187 17.9821C20.098 17.878 19.9619 17.8433 19.8104 17.878" stroke="#5C5C5C"
    stroke-width="0.649573" />
  <path d="M22.4691 19.8105L22.5211 20.0444" stroke="#5C5C5C" stroke-width="0.649573" />
  <path d="M21.917 22.7597C21.435 22.6969 21.1173 22.7488 20.964 22.9156" stroke="#5C5C5C"
    stroke-width="0.649573" />
  <path d="M13.2305 15.666C13.1893 15.7483 13.172 15.81 13.1785 15.8511" stroke="#E0E0E0"
    stroke-width="0.649573" />
  <path
    d="M14.687 8.13428C14.5665 8.02168 14.4285 7.98271 14.2729 8.01735C14.113 8.052 14.0976 8.11912 14.2269 8.21872C14.5731 8.48721 14.9488 8.67992 15.3541 8.79684C15.5382 8.85097 15.5787 8.79792 15.4757 8.6377C15.3465 8.43849 15.1526 8.3075 14.894 8.2447C14.8152 8.22522 14.7461 8.18841 14.687 8.13428Z"
    stroke="#E0E0E0" stroke-width="0.649573" />
  <path
    d="M19.6494 10.9533C19.4895 10.8601 19.3449 10.8796 19.2156 11.0117C19.1904 11.0376 19.173 11.0699 19.1652 11.105C19.1574 11.1401 19.1596 11.1766 19.1715 11.2105C19.1834 11.2445 19.2045 11.2745 19.2326 11.2973C19.2607 11.3201 19.2946 11.3348 19.3306 11.3397C19.6658 11.3895 19.9781 11.5205 20.2673 11.7327C20.3834 11.8172 20.5083 11.8302 20.6419 11.7717C20.9136 11.6526 21.2072 11.5823 21.5227 11.5606C21.5547 11.5575 21.585 11.5448 21.6095 11.5242C21.6341 11.5036 21.6516 11.476 21.6598 11.4453C21.6681 11.4145 21.6666 11.382 21.6556 11.3521C21.6446 11.3222 21.6245 11.2964 21.5982 11.278L21.2302 11.0409C21.1666 10.9976 21.1086 11.0031 21.056 11.0572C21.0187 11.094 20.9914 11.1362 20.9738 11.1838C20.9617 11.2132 20.9432 11.2392 20.9198 11.2601C20.8965 11.2809 20.8688 11.2959 20.8391 11.304C20.6945 11.343 20.6167 11.3008 20.6058 11.1774C20.6033 11.1357 20.585 11.0965 20.5545 11.0676C20.524 11.0387 20.4837 11.0222 20.4414 11.0215L19.7973 10.9987C19.7456 10.9966 19.6946 10.981 19.6494 10.9533Z"
    stroke="#AEADAD" stroke-width="0.649573" />
  <path
    d="M22.2095 12.2654C22.2511 12.1745 22.2785 12.0749 22.2917 11.9666C22.307 11.8086 22.2347 11.736 22.0748 11.749C21.9433 11.7599 21.8447 11.8194 21.779 11.9277C21.63 12.1658 21.6804 12.3694 21.9302 12.5383C21.9557 12.5557 21.9858 12.5652 22.0168 12.5658C22.0477 12.5664 22.0782 12.5579 22.1043 12.5415C22.2073 12.4766 22.2424 12.3845 22.2095 12.2654Z"
    stroke="#E0E0E0" stroke-width="0.649573" />
  <path
    d="M14.0363 15.2765C14.1984 15.1249 14.3857 15.1487 14.5983 15.3479C14.6749 15.4194 14.7253 15.4042 14.7494 15.3024C14.9247 14.5966 14.7472 14.1224 14.217 13.8799"
    stroke="#E0E0E0" stroke-width="0.649573" />
  <path
    d="M14.217 13.8799C14.0176 13.4815 13.7996 13.0777 13.563 12.6685C13.5367 12.6209 13.4951 12.5938 13.4381 12.5873C13.3373 12.5721 13.3012 12.6133 13.3297 12.7107L14.0362 15.2765"
    stroke="#AEADAD" stroke-width="0.649573" />
  <path d="M14.217 13.8799L14.0363 15.2765" stroke="#5C5C5C" stroke-width="0.649573" />
  <path
    d="M16.5372 13.7986C16.4496 13.9675 16.4463 14.1353 16.5273 14.302C16.5358 14.3197 16.5485 14.3351 16.5645 14.3466C16.5805 14.3582 16.5991 14.3656 16.6188 14.3682C16.6384 14.3708 16.6583 14.3684 16.6768 14.3614C16.6953 14.3544 16.7117 14.3429 16.7245 14.328C16.8779 14.157 16.9031 13.9794 16.8001 13.7954C16.7874 13.7717 16.7683 13.7519 16.7449 13.7382C16.7215 13.7245 16.6948 13.7174 16.6676 13.7178C16.6405 13.7181 16.6139 13.7258 16.5909 13.7401C16.5679 13.7544 16.5493 13.7746 16.5372 13.7986Z"
    stroke="#AEADAD" stroke-width="0.649573" />
  <path
    d="M17.4312 14.2209C17.3829 14.2947 17.3774 14.3739 17.4147 14.4585C17.4652 14.5713 17.5355 14.5843 17.6255 14.4976C17.7023 14.4216 17.7462 14.3327 17.7572 14.2307C17.7594 14.212 17.7574 14.193 17.7511 14.1753C17.7448 14.1576 17.7346 14.1416 17.7211 14.1286C17.7077 14.1156 17.6914 14.106 17.6737 14.1006C17.6559 14.0952 17.6371 14.094 17.6189 14.0973C17.5377 14.1103 17.4751 14.1515 17.4312 14.2209Z"
    stroke="#AEADAD" stroke-width="0.649573" />
  <path
    d="M16.5865 17.501C16.5055 17.5032 16.431 17.527 16.363 17.5724C16.3313 17.5955 16.2933 17.6084 16.254 17.6096C16.2146 17.6108 16.1759 17.6001 16.1429 17.5789C16.0048 17.4945 15.9281 17.3732 15.9128 17.2152C15.9019 17.1069 15.8613 17.0106 15.7912 16.9261C15.7189 16.8395 15.6236 16.7897 15.5053 16.7767C15.2577 16.7486 15.2238 16.82 15.4034 16.9911C15.6181 17.1924 15.7879 17.4176 15.9128 17.6666C15.972 17.7879 16.0673 17.8301 16.1987 17.7933C16.3455 17.75 16.4846 17.7034 16.6161 17.6536C16.8965 17.5497 16.8867 17.4988 16.5865 17.501Z"
    stroke="#959393" stroke-width="0.649573" />
  <path
    d="M19.8499 17.3063C19.9682 17.2652 20.0186 17.1829 20.0011 17.0595C19.9964 17.026 19.9832 16.9942 19.9626 16.9672C19.942 16.9401 19.9148 16.9188 19.8835 16.9051C19.8522 16.8914 19.8179 16.8859 19.7838 16.889C19.7498 16.8922 19.7171 16.9039 19.6889 16.9231C19.4479 17.0854 19.3087 17.2868 19.2715 17.5272C19.2474 17.6852 19.3164 17.7567 19.4785 17.7415C19.6078 17.7285 19.6768 17.656 19.6856 17.5239C19.6876 17.4759 19.7043 17.4294 19.7336 17.3906C19.7629 17.3518 19.8034 17.3225 19.8499 17.3063Z"
    stroke="#AEADAD" stroke-width="0.649573" />
  <path
    d="M15.0452 20.2845C15.0474 20.3408 15.0715 20.3863 15.1175 20.4209C15.1299 20.4292 15.1444 20.434 15.1594 20.4347C15.1743 20.4355 15.1892 20.4322 15.2024 20.4251C15.2156 20.4181 15.2266 20.4077 15.2343 20.3949C15.2419 20.3821 15.2458 20.3675 15.2456 20.3527C15.2434 20.2878 15.2128 20.2412 15.1536 20.2131C15.1418 20.2074 15.1286 20.2049 15.1155 20.2057C15.1023 20.2066 15.0897 20.2109 15.0787 20.2181C15.0677 20.2253 15.0589 20.2353 15.053 20.2469C15.0471 20.2585 15.0444 20.2715 15.0452 20.2845Z"
    stroke="#AEADAD" stroke-width="0.649573" />
  <path
    d="M16.8171 20.7269C16.883 20.703 16.9093 20.665 16.8961 20.613C16.8852 20.5674 16.8566 20.5533 16.8105 20.5707C16.6898 20.6162 16.6042 20.6954 16.5537 20.8082C16.5229 20.8755 16.5449 20.9037 16.6195 20.8928C16.6678 20.8863 16.7029 20.8592 16.7249 20.8115C16.7447 20.7703 16.7754 20.7421 16.8171 20.7269Z"
    stroke="#AEADAD" stroke-width="0.649573" />
  <path
    d="M19.0151 22.925C19.2802 22.9077 19.4895 22.7572 19.6428 22.4735C19.748 22.283 19.6998 22.2321 19.4982 22.3209C19.2923 22.4097 19.1028 22.5537 18.9297 22.7529C18.818 22.8784 18.8464 22.9358 19.0151 22.925Z"
    stroke="#AEADAD" stroke-width="0.649573" />
  <path
    d="M15.0288 23.7211C15.0086 23.7212 14.9889 23.7269 14.9719 23.7375C14.9548 23.7481 14.9411 23.7632 14.9322 23.781C14.9234 23.7989 14.9197 23.8189 14.9217 23.8387C14.9236 23.8585 14.9311 23.8774 14.9433 23.8932C14.9872 23.9495 15.0419 23.9701 15.1077 23.9549C15.1953 23.9333 15.2172 23.8835 15.1734 23.8055C15.1405 23.747 15.0923 23.7189 15.0288 23.7211Z"
    stroke="#959393" stroke-width="0.649573" />
  <path
    d="M10.0039 25.2602L10.1518 25.4908C10.1558 25.4975 10.1612 25.5033 10.1675 25.5079C10.1739 25.5125 10.1811 25.5158 10.1887 25.5176C10.1964 25.5194 10.2043 25.5197 10.2121 25.5184C10.2199 25.5172 10.2273 25.5144 10.234 25.5103L10.441 25.3771C10.861 25.1147 11.2543 24.848 11.5346 24.6355C11.8149 24.423 11.9594 24.2821 11.9363 24.2436L11.9067 24.2014C11.8818 24.1641 11.6913 24.2323 11.3771 24.3913C11.0629 24.5502 10.6506 24.7867 10.2307 25.0491L10.0236 25.179C10.0169 25.183 10.011 25.1883 10.0063 25.1945C10.0017 25.2008 9.99834 25.2079 9.99651 25.2155C9.99467 25.2231 9.99438 25.2309 9.99565 25.2386C9.99692 25.2463 9.99973 25.2536 10.0039 25.2602Z"
    stroke="#959393" stroke-width="0.649573" />
  <path
    d="M14.0173 24.6333C13.8834 24.668 13.7703 24.7418 13.6781 24.8546C13.5969 24.9544 13.621 24.9978 13.7506 24.9848C13.913 24.9653 14.0327 24.8861 14.1095 24.7472C14.1688 24.6388 14.138 24.6008 14.0173 24.6333Z"
    stroke="#AEADAD" stroke-width="0.649573" />
  <path
    d="M13.0899 25.3425C13.0218 25.4553 13.0503 25.4868 13.1755 25.4369C13.3247 25.3783 13.4356 25.2796 13.508 25.1407C13.5893 24.9867 13.5541 24.953 13.4027 25.0398C13.271 25.1136 13.1667 25.2145 13.0899 25.3425Z"
    stroke="#AEADAD" stroke-width="0.649573" />
  <path
    d="M12.2584 25.4066L12.288 25.1825C12.2888 25.1729 12.2872 25.1632 12.2831 25.1544C12.279 25.1456 12.2726 25.1381 12.2646 25.1325C12.2566 25.1269 12.2473 25.1235 12.2375 25.1226C12.2278 25.1217 12.218 25.1233 12.2091 25.1273C11.543 25.4521 11.2035 25.7931 11.1903 26.1504C11.1815 26.4081 11.2725 26.4492 11.4631 26.2738L11.8772 25.8906C11.9225 25.8493 11.9794 25.8226 12.0404 25.8139C12.1014 25.8052 12.1636 25.815 12.2189 25.8418C12.3679 25.9133 12.4895 25.8787 12.5837 25.7379C12.5914 25.7262 12.5957 25.7126 12.5962 25.6987C12.5968 25.6847 12.5935 25.6709 12.5868 25.6586C12.5801 25.6463 12.5702 25.6361 12.5581 25.6289C12.546 25.6217 12.5321 25.6178 12.518 25.6177C12.4808 25.6177 12.4446 25.6145 12.4096 25.608C12.2934 25.5885 12.243 25.5214 12.2584 25.4066Z"
    stroke="#1B1F1C" stroke-width="0.649573" />
  <path
    d="M24.0729 18.8752C23.6216 18.9661 23.2721 18.6695 23.0246 17.9853C23.0156 17.9606 23 17.9386 22.9792 17.9215C22.9585 17.9044 22.9333 17.8928 22.9062 17.8878C22.4242 17.8034 22.0244 17.5858 21.7067 17.235C21.6322 17.1505 21.538 17.1083 21.4241 17.1083C21.1086 17.1083 20.803 17.1116 20.5072 17.1181C20.2465 17.1246 20.1084 17.2512 20.0931 17.4981C20.0865 17.602 20.0438 17.6864 19.9649 17.7514L19.8105 17.8781C19.9178 18.2094 20.1084 18.3934 20.3823 18.4302C20.5138 18.4475 20.5532 18.3966 20.5006 18.2776C20.4502 18.165 20.356 18.0664 20.218 17.982C20.2509 17.8066 20.3089 17.6875 20.3922 17.6247C20.4951 17.5446 20.5948 17.55 20.6912 17.641C20.9059 17.8445 21.1765 17.8716 21.503 17.7222C21.5468 17.7021 21.5949 17.6925 21.6435 17.6942C21.692 17.6959 21.7395 17.7088 21.7823 17.7319C21.9247 17.8099 21.9937 17.9116 21.9893 18.0372C21.985 18.1498 21.9346 18.2375 21.8382 18.3003C21.7067 18.3847 21.5632 18.4475 21.4077 18.4887C21.3836 18.4952 21.366 18.5092 21.3551 18.5309C21.3376 18.572 21.3397 18.611 21.3617 18.6478C21.4142 18.7323 21.4898 18.7669 21.5884 18.7517L22.6828 18.5861C22.766 18.5731 22.8219 18.6045 22.8504 18.6803C23.0344 19.1545 23.4759 19.2617 24.1748 19.0018C24.269 18.9888 24.3523 19.0018 24.4246 19.0408C24.4399 19.0487 24.4533 19.06 24.4637 19.0738C24.4741 19.0876 24.4813 19.1036 24.4847 19.1206C24.4882 19.1377 24.4878 19.1553 24.4836 19.1724C24.4795 19.1895 24.4717 19.2056 24.4607 19.2194C24.0948 19.6936 23.6764 20.0801 23.2053 20.3789C23.1803 20.3952 23.1602 20.4179 23.147 20.4445C23.1339 20.4711 23.1282 20.5007 23.1305 20.5302C23.1329 20.5597 23.1432 20.588 23.1604 20.6123C23.1776 20.6365 23.201 20.6557 23.2283 20.668C23.6534 20.852 24.1058 20.9949 24.5856 21.0967C24.6898 21.1183 24.7849 21.1702 24.859 21.2457C24.933 21.3213 24.9825 21.417 25.0011 21.5209C25.0198 21.6247 25.0068 21.7318 24.9639 21.8286C24.9209 21.9255 24.8498 22.0076 24.7598 22.0646L22.6105 23.4189C22.295 23.3172 21.9455 23.3074 21.5621 23.3897C21.4438 23.4135 21.4219 23.3789 21.4964 23.2858L21.917 22.7596C22.2961 22.6492 22.5842 22.4457 22.7814 22.149C22.8559 22.0343 22.8493 21.9238 22.7616 21.8177C22.6192 21.6423 22.4659 21.507 22.3016 21.4117C22.1635 21.3316 22.0825 21.3706 22.0584 21.5287L22.0321 21.6911C22.0102 21.834 22.066 21.9336 22.1997 21.9899C22.2566 22.0159 22.3059 22.0537 22.3476 22.1035C22.4527 22.2313 22.4221 22.2908 22.2555 22.2822C21.8217 22.2605 21.4986 22.1284 21.2861 21.8859C21.2247 21.8145 21.1721 21.821 21.1283 21.9054C21.0429 22.083 20.9969 22.2649 20.9903 22.4511C20.9893 22.4795 20.9783 22.5068 20.9593 22.5286C20.9402 22.5504 20.9141 22.5655 20.8851 22.5712L20.4645 22.6459C20.3418 22.6676 20.2936 22.6189 20.3199 22.4998L20.3725 22.2692C20.4141 22.0851 20.3505 22.0375 20.1818 22.1263C20.0088 22.2215 19.9562 22.3612 20.0241 22.5453C20.0394 22.5855 20.0461 22.6285 20.0436 22.6714C20.0411 22.7143 20.0296 22.7561 20.0097 22.7941C19.9899 22.8322 19.9621 22.8655 19.9284 22.892C19.8946 22.9186 19.8555 22.9376 19.8138 22.948C19.5771 23.0086 19.3712 23.1147 19.1959 23.2663C19.0995 23.3486 18.9922 23.368 18.8739 23.3247C18.7621 23.2858 18.7008 23.2057 18.6898 23.0844C18.6811 22.9913 18.634 22.9653 18.5485 23.0065C18.4937 23.0303 18.4598 23.0714 18.4466 23.1299C18.4357 23.1905 18.4499 23.2446 18.4894 23.2923C18.7939 23.6539 19.1192 23.7015 19.4654 23.4352C19.5246 23.3897 19.5936 23.368 19.6725 23.3702C19.6878 23.3702 19.6976 23.3756 19.702 23.3864C19.7721 23.5207 19.862 23.5196 19.9715 23.3832C20.1884 23.1082 20.5192 22.9523 20.964 22.9155L21.0001 23.1721C21.0177 23.2847 20.9684 23.3442 20.8523 23.3507C20.5762 23.3659 20.4491 23.4828 20.471 23.7015L19.0743 23.9873C18.9648 24.0111 18.8585 24.0003 18.7556 23.9548L18.003 23.6268C17.9738 23.6139 17.9476 23.5953 17.9258 23.5722C17.904 23.5491 17.8871 23.5219 17.876 23.4923C17.865 23.4626 17.8601 23.4311 17.8616 23.3995C17.8631 23.368 17.8709 23.337 17.8847 23.3085C18.2856 22.4706 18.841 22.0808 19.6856 21.7268C19.9945 21.5969 20.1512 21.4356 20.1556 21.2429C20.0701 21.2342 20.0482 21.1887 20.0898 21.1064C20.1227 21.0437 20.1041 21.009 20.034 21.0025C19.9879 20.9982 19.9386 21.0112 19.8861 21.0415C20.103 21.0155 20.2925 20.9516 20.4546 20.8499C20.5466 20.7914 20.6474 20.7622 20.757 20.7622C21.5566 20.7535 22.1449 20.5143 22.5217 20.0444L23.0508 19.6417C23.1385 19.5745 23.1275 19.5334 23.018 19.5182C22.8186 19.4923 22.6357 19.5897 22.4692 19.8106C22.1405 19.8625 21.8634 19.7759 21.6377 19.5507C21.5654 19.4771 21.4767 19.436 21.3715 19.4273L20.7767 19.3883C20.6102 19.1307 20.3987 19.017 20.1424 19.0473C20.0394 19.0603 19.9792 19.1177 19.9617 19.2194C19.9507 19.2801 19.9156 19.3223 19.8565 19.3461C19.7185 19.3981 19.6582 19.3515 19.6757 19.2064C19.7174 18.8838 19.5585 18.6987 19.1992 18.6511C18.657 18.5796 18.1673 18.3685 17.6875 18.1217C17.5845 18.0697 17.5341 17.9863 17.5363 17.8716C17.5407 17.694 17.6338 17.5706 17.8156 17.5013C18.0807 17.3996 18.2955 17.4623 18.4598 17.6897C18.5803 17.8543 18.7325 17.9549 18.9166 17.9917C19.0721 18.0221 19.0864 17.9896 18.9593 17.8943L18.772 17.7547C18.6822 17.6875 18.6526 17.5998 18.6833 17.4916C18.7074 17.4093 18.6986 17.3292 18.657 17.2512C18.611 17.1646 18.5474 17.1484 18.4664 17.2025L18.3612 17.2707C18.2714 17.3292 18.1903 17.3184 18.118 17.2382C17.9361 17.0325 17.682 16.9102 17.3556 16.8712C17.1518 16.8474 17.1135 16.9145 17.2405 17.0726C17.2515 17.0856 17.2668 17.0921 17.2865 17.0921C17.4772 17.0769 17.5516 17.1614 17.51 17.3454C17.407 17.8131 17.154 18.1249 16.7509 18.2808C16.6378 18.3251 16.5423 18.404 16.4783 18.5058C16.4144 18.6076 16.3855 18.7269 16.3959 18.8459C16.4398 19.305 16.4003 19.7348 16.2776 20.1353C16.2448 20.2393 16.2842 20.2869 16.3959 20.2782C16.6194 20.2609 16.7224 20.1332 16.7049 19.895C16.7023 19.8616 16.7091 19.8282 16.7246 19.7985C16.74 19.7687 16.7635 19.7437 16.7923 19.7262C16.8212 19.7088 16.8544 19.6995 16.8882 19.6995C16.9221 19.6995 16.9553 19.7087 16.9842 19.7261C17.0718 19.7781 17.1255 19.8549 17.1452 19.9567C17.1737 20.1018 17.257 20.1494 17.395 20.0996C17.6426 20.013 17.8441 19.9968 17.9997 20.0509C18.2473 20.2847 18.0731 20.5792 17.4772 20.9343C17.4509 20.9863 17.3698 21.0469 17.234 21.1162C17.0433 21.2851 16.8297 21.3858 16.5931 21.4182C16.3894 21.4464 16.2984 21.5611 16.3203 21.7625L16.3861 22.3731C16.4014 22.5268 16.4847 22.5821 16.6358 22.5388C16.7191 22.5149 16.775 22.4608 16.8034 22.3764C16.8626 22.1988 16.948 22.1847 17.0598 22.3341C17.1036 22.3948 17.1222 22.4641 17.1157 22.542C17.0959 22.7661 16.9711 22.9025 16.925 23.1071C16.8944 23.2457 16.9491 23.3096 17.0894 23.2988C17.28 23.2858 17.3906 23.1851 17.4213 22.9967C17.4454 22.8365 17.5188 22.8105 17.6415 22.9188C17.7576 23.0227 17.7861 23.1472 17.7269 23.2923C17.6897 23.3854 17.7094 23.4655 17.7861 23.5326C17.8934 23.63 17.9197 23.7426 17.8649 23.8704C17.8124 23.9895 17.7236 24.0295 17.5987 23.9906L17.4344 23.9418C17.2504 23.8855 17.1715 23.9516 17.1978 24.14C17.2263 24.3435 17.2975 24.5297 17.4114 24.6986C17.5034 24.8328 17.4761 24.8653 17.3293 24.796L16.7772 24.5329C16.7588 24.5247 16.7386 24.5216 16.7186 24.524C16.6986 24.5265 16.6797 24.5344 16.664 24.5469C16.6483 24.5593 16.6364 24.5759 16.6297 24.5947C16.623 24.6134 16.6217 24.6337 16.626 24.6531C16.8933 25.896 17.3643 26.9808 18.0391 27.9075C18.1771 28.1002 18.1311 28.1673 17.9011 28.1088C17.3818 27.9757 16.925 27.5924 16.787 27.05C16.5745 26.2208 16.3499 25.4315 16.1133 24.6824C16.1007 24.6425 16.0759 24.6074 16.0423 24.5821C16.0087 24.5568 15.968 24.5424 15.9257 24.5409C15.8835 24.5395 15.8418 24.5511 15.8065 24.5741C15.7713 24.5971 15.7441 24.6304 15.7288 24.6694C15.6368 24.8924 15.4845 25.0829 15.272 25.241C15.2534 25.2545 15.2315 25.2626 15.2088 25.2643C15.1861 25.266 15.1636 25.2613 15.1438 25.2507L14.9959 25.1663C14.9105 25.1208 14.9094 25.0721 14.9927 25.0201C15.1504 24.9249 15.2205 24.7928 15.203 24.6239C15.1983 24.5856 15.1819 24.5496 15.1558 24.5209C15.1298 24.4921 15.0955 24.4719 15.0575 24.4631C15.0195 24.4542 14.9797 24.4571 14.9434 24.4713C14.9071 24.4856 14.8761 24.5105 14.8546 24.5427C14.6443 24.861 14.4833 25.2118 14.1415 25.4164C12.6889 26.2825 11.29 26.8465 9.94478 27.1085C9.67091 27.1605 9.42224 27.1215 9.19877 26.9916C9.78155 26.9634 10.2877 26.7155 10.7171 26.2478C10.7324 26.2305 10.7401 26.211 10.7401 26.1894C10.7423 26.1525 10.7236 26.1266 10.6842 26.1114C10.6404 26.0963 10.5999 26.1038 10.5626 26.1341C10.315 26.3377 10.0357 26.4394 9.72459 26.4394C9.60628 26.4394 9.50111 26.4773 9.4091 26.5531C9.24478 26.6895 9.17467 26.8357 9.19877 26.9916C9.05417 27.0089 8.94024 27.0046 8.85698 26.9786C8.77373 26.9526 8.72882 26.8985 8.72224 26.8162C8.68062 26.3745 8.8044 26.0183 9.0936 25.7476C9.46496 25.4001 9.626 24.835 10.0467 24.5784C10.7236 24.1627 11.6997 23.3442 12.4819 23.4059C12.9332 23.4406 13.4086 23.4958 13.9081 23.5716C13.9558 23.5785 14.0006 23.5982 14.0377 23.6285C14.0748 23.6589 14.1027 23.6987 14.1185 23.7437C14.1601 23.8585 14.2357 23.8931 14.3452 23.8476C14.4635 23.7978 14.4646 23.7437 14.3485 23.6853C14.2609 23.6398 14.2247 23.5759 14.2401 23.4936C14.262 23.3551 14.3409 23.2652 14.4767 23.2241C14.5775 23.1937 14.6443 23.1342 14.6772 23.0454C14.721 22.922 14.802 22.8311 14.9204 22.7726C14.9773 22.7423 15.0288 22.7401 15.0748 22.7661C15.261 22.8722 15.3761 22.8202 15.4199 22.6102C15.4615 22.4153 15.5853 22.3309 15.7912 22.3569C15.8312 22.3621 15.8718 22.3579 15.9099 22.3447C15.9479 22.3315 15.9822 22.3096 16.0101 22.2808C16.0379 22.252 16.0585 22.2171 16.0702 22.179C16.0818 22.1409 16.0842 22.1005 16.0772 22.0613L15.9063 21.1194C15.869 20.9159 15.7496 20.8401 15.548 20.8921C14.9631 21.0447 14.572 21.428 13.987 21.5839C12.5388 21.9715 11.2297 21.9812 10.0598 21.6131C9.92396 21.5698 9.81661 21.6066 9.73773 21.7235C9.4814 22.0938 9.36966 22.6817 9.10018 22.987C9.08046 23.0108 9.05745 23.0324 9.03116 23.0519C8.9019 23.1623 8.84274 23.1331 8.8537 22.9642L8.97529 21.2981C9.16152 21.3349 9.30284 21.2721 9.39924 21.1097C9.53507 21.2613 9.69501 21.2374 9.87905 21.0382C10.0127 21.0491 10.0949 21.0805 10.1255 21.1324L12.965 21.048C13.241 21.0393 13.2695 20.9516 13.0504 20.7849L12.8499 20.6323C12.8784 20.4634 12.9551 20.3584 13.08 20.3172C13.1873 20.2804 13.1884 20.2404 13.0833 20.197C13.0394 20.1776 12.9726 20.1689 12.8828 20.1711C13.0274 20.1689 13.057 20.0866 12.9715 19.9242C12.9567 19.8948 12.9322 19.8718 12.9025 19.8593C12.6834 19.7618 12.4753 19.6492 12.2781 19.5215C11.7632 19.188 11.8125 18.9986 12.426 18.9531C13.3133 18.886 14.159 19.1653 14.9631 19.7911C15.0398 19.8517 15.1263 19.869 15.2227 19.843C15.3454 19.8084 15.4714 19.8095 15.6006 19.8463C15.658 19.8628 15.7091 19.8958 15.7471 19.941C15.7852 19.9861 15.8086 20.0414 15.8142 20.0996L15.8372 20.3172C15.8384 20.3298 15.8422 20.3421 15.8484 20.3531C15.8546 20.3642 15.8631 20.3738 15.8733 20.3815C15.8835 20.3891 15.8952 20.3946 15.9077 20.3975C15.9202 20.4004 15.9331 20.4007 15.9457 20.3984L16.0377 20.3822C16.0442 20.3811 16.0504 20.3786 16.0558 20.375C16.0612 20.3714 16.0658 20.3666 16.0692 20.3611C16.0727 20.3555 16.0748 20.3493 16.0756 20.3429C16.0764 20.3364 16.0758 20.3299 16.0739 20.3237C15.8986 19.7932 15.8438 19.2476 15.9095 18.6868C15.9227 18.5785 15.903 18.4768 15.8504 18.3815C15.5393 17.8229 15.1362 17.3909 14.641 17.0856C14.4701 16.5876 14.1009 16.0809 13.5335 15.5656C13.0274 14.4451 12.6659 13.7046 11.8312 12.9641C11.726 12.8688 11.6373 12.8818 11.565 13.003C11.5387 13.0463 11.5025 13.0615 11.4565 13.0485C11.3338 13.016 11.2495 12.9424 11.2035 12.8276C11.1443 12.6826 11.0556 12.5646 10.9373 12.4736C10.8321 12.3935 10.7445 12.4097 10.6744 12.5223C10.1157 13.4209 9.65557 14.3303 9.29407 15.2505C9.23054 15.4108 9.18891 15.4054 9.16919 15.2343C9.12537 14.8121 9.22615 14.3953 9.47154 13.9839L10.7861 11.2882C11.3974 11.024 11.9528 11.0456 12.4523 11.3531L12.6692 11.9897C12.7086 12.1023 12.6714 12.1781 12.5574 12.217C12.4895 12.2409 12.4172 12.2484 12.3405 12.2398C12.3077 12.2361 12.2744 12.2408 12.2439 12.2534C12.2134 12.266 12.1866 12.2862 12.1662 12.3119C12.1458 12.3376 12.1324 12.368 12.1272 12.4003C12.1221 12.4326 12.1254 12.4657 12.1368 12.4964C12.1894 12.6328 12.2912 12.7367 12.4424 12.8082C12.6287 12.8948 12.7448 12.8396 12.7908 12.6425C12.8236 12.5039 12.8927 12.3881 12.9978 12.295C13.1161 12.1889 13.1183 12.0785 13.0044 11.9637C12.8379 11.797 12.8083 11.6422 12.9157 11.4993C13.8621 12.1532 14.5435 12.9954 14.9598 14.0261C14.9992 14.1235 15.0704 14.1852 15.1734 14.2112L15.8471 14.3834C16.064 14.4375 16.0903 14.3888 15.926 14.2372C15.8252 14.1463 15.7124 14.0607 15.5875 13.9806C15.4582 13.8962 15.4692 13.8366 15.6203 13.802L16.1297 13.6786C16.1783 13.6673 16.224 13.6458 16.2636 13.6155C16.3033 13.5853 16.3361 13.547 16.3598 13.5032C16.4562 13.3235 16.5953 13.1968 16.7772 13.1232C16.867 13.0864 16.9393 13.0268 16.9941 12.9446C17.5067 12.1781 17.4092 11.5361 16.7016 11.0186C16.5219 10.4361 16.1549 10.0096 15.6006 9.73892C15.5064 9.69129 15.4286 9.62308 15.3673 9.53431C15.1723 9.25066 14.8941 9.12724 14.5326 9.16405C14.483 9.1691 14.4326 9.16329 14.385 9.14704C14.3373 9.13078 14.2935 9.10446 14.2565 9.06986C13.8775 8.70827 13.4579 8.44411 12.9978 8.27738C12.7437 8.18428 12.6988 8.2449 12.8631 8.45926C13.1194 8.79271 13.4908 9.00815 13.9772 9.10559C14.1283 9.13807 14.1656 9.22035 14.0889 9.35243C14.0779 9.37191 14.0779 9.39248 14.0889 9.41413C14.1371 9.50724 14.2149 9.57545 14.3222 9.61875C14.8919 9.8526 15.2731 10.2348 15.4659 10.7652C14.8875 10.5401 14.3639 10.2976 13.895 10.0377C12.9485 9.51807 12.426 8.41704 11.3908 8.12473C10.8825 7.97966 10.4027 7.76855 9.95135 7.4914C9.83085 7.41778 9.8418 7.37556 9.98421 7.36473L10.9011 7.29003L11.7884 7.48815C11.9024 7.51197 12.0163 7.51738 12.1302 7.50439C12.4808 7.46758 12.8039 7.51955 13.0997 7.66029C13.1917 7.70477 13.2685 7.77606 13.3199 7.8649C13.4426 8.07493 13.6146 8.14314 13.8358 8.06952C13.9147 8.04354 13.975 7.99374 14.0166 7.92012C14.1042 7.75772 14.251 7.64188 14.457 7.5726C16.1484 8.1204 17.1124 9.18137 17.349 10.7555C17.3709 10.9006 17.4421 10.9309 17.5626 10.8464C18.1969 10.4015 18.4203 9.55379 18.6537 8.84901C18.6909 8.73425 18.6657 8.63573 18.5781 8.55345C18.2527 8.23841 18.003 7.8649 17.5692 7.67978C17.1441 7.49573 16.8034 7.20884 16.5471 6.81909C16.4682 6.70217 16.3664 6.61123 16.2415 6.54627C15.7792 6.30593 15.4286 5.94325 15.1898 5.45824C15.137 5.35396 15.0465 5.27378 14.9368 5.23413C14.6235 5.11938 14.2927 5.08798 13.9443 5.13994C13.8457 5.15294 13.7898 5.10963 13.7767 5.01003L13.7668 4.92559C13.765 4.91253 13.7659 4.89924 13.7694 4.88652C13.7729 4.8738 13.779 4.86192 13.7873 4.8516C13.7956 4.84128 13.8059 4.83272 13.8176 4.82646C13.8294 4.8202 13.8423 4.81635 13.8556 4.81516C15.1373 4.70257 16.2601 5.03818 17.2241 5.822C17.3089 5.89127 17.3651 5.98953 17.3818 6.09807C17.4235 6.39687 17.5648 6.62855 17.8058 6.79311C18.2681 7.10923 18.5562 7.57476 18.6701 8.18969C18.703 8.36724 18.7775 8.38673 18.8936 8.24815C20.2673 6.59824 22.0649 5.53835 24.2865 5.06849C24.5231 5.01869 24.5593 5.08148 24.395 5.25687C24.0422 5.62712 23.7048 6.02769 23.3828 6.45858C22.8602 7.15687 22.157 7.46217 21.4701 7.9461C20.8063 8.41379 20.103 8.35208 19.3471 8.53396C19.2708 8.55177 19.2004 8.58896 19.1428 8.64189C19.0852 8.69483 19.0424 8.76171 19.0185 8.83602C18.8541 9.35567 18.6372 9.86992 18.3678 10.3788C18.1596 10.775 18.2615 10.8789 18.6734 10.6905C19.7678 10.1936 21.641 10.7198 22.6203 11.2037C22.7145 11.2513 22.7879 11.3206 22.8405 11.4116C22.9544 11.6086 23.133 11.7223 23.3762 11.7526C23.5186 11.7721 23.5372 11.7331 23.4321 11.6357L23.0739 11.3076C22.9336 11.1799 22.9577 11.1333 23.1462 11.168C24.4936 11.4235 25.1235 12.1196 25.0358 13.2564C25.0227 13.4188 24.9767 13.4285 24.8978 13.2856C24.8255 13.1578 24.7729 13.0225 24.74 12.8796C24.705 12.7302 24.613 12.6761 24.464 12.7172L24.2569 12.7757C24.1058 12.8168 24.0565 12.911 24.1091 13.0582C24.3391 13.7176 24.8748 13.776 24.9175 14.6854C24.9263 14.8781 24.8737 14.8965 24.7598 14.7406L24.2241 13.9969C24.1706 13.9251 24.0956 13.8726 24.0105 13.8475L22.2227 13.3148C22.0956 13.278 21.9751 13.2932 21.8612 13.3603C21.3638 13.6548 20.8314 13.8583 20.264 13.9709C20.161 13.9925 20.0723 14.0402 19.9978 14.1138C19.1105 14.9907 17.0499 14.6432 16.7246 16.1502C16.6961 16.2866 16.7487 16.3765 16.8823 16.4198C17.7072 16.6861 18.6274 16.7803 19.4851 16.5464C20.5598 16.2476 21.9762 16.7283 23.0443 17.0856C23.1757 17.1311 23.2831 17.209 23.3663 17.3194C23.7498 17.8239 24.2077 18.1444 24.74 18.2808C24.8825 18.3176 24.9109 18.3945 24.8255 18.5114C24.6853 18.7106 24.4344 18.8319 24.0729 18.8752ZM23.0808 6.05445C23.0543 6.02128 22.9694 6.0358 22.8447 6.09484C22.7199 6.15387 22.5656 6.25257 22.4156 6.36923C22.3413 6.42699 22.2703 6.48743 22.2067 6.54708C22.1431 6.60673 22.0881 6.66444 22.0448 6.7169C22.0015 6.76936 21.9709 6.81554 21.9545 6.85282C21.9382 6.8901 21.9365 6.91774 21.9496 6.93416C21.976 6.96733 22.0609 6.9528 22.1856 6.89377C22.3104 6.83474 22.4647 6.73604 22.6147 6.61938C22.689 6.56161 22.76 6.50118 22.8236 6.44153C22.8872 6.38187 22.9422 6.32417 22.9855 6.27171C23.0288 6.21925 23.0595 6.17306 23.0758 6.13579C23.0922 6.09851 23.0938 6.07087 23.0808 6.05445ZM20.3659 8.13772C20.4163 8.18319 20.471 8.19077 20.5302 8.16046C20.6397 8.10416 20.6463 8.03704 20.5499 7.95909L20.1063 7.60832C19.8499 7.40262 19.7261 7.46325 19.7349 7.7902C19.7415 8.08251 19.9003 8.18536 20.2114 8.09875C20.238 8.09085 20.2664 8.09031 20.2936 8.09716C20.3208 8.10402 20.3458 8.11803 20.3659 8.13772ZM14.687 8.13448C14.5665 8.02188 14.4285 7.98291 14.2729 8.01755C14.113 8.0522 14.0977 8.11932 14.2269 8.21892C14.5731 8.48741 14.9488 8.68012 15.3542 8.79704C15.5382 8.85117 15.5787 8.79812 15.4757 8.6379C15.3465 8.43869 15.1526 8.3077 14.8941 8.2449C14.8152 8.22542 14.7462 8.18861 14.687 8.13448ZM19.6494 10.9536C19.4895 10.8605 19.3449 10.88 19.2156 11.0121C19.1905 11.038 19.173 11.0703 19.1652 11.1054C19.1574 11.1404 19.1596 11.177 19.1715 11.2109C19.1834 11.2449 19.2046 11.2749 19.2327 11.2977C19.2608 11.3205 19.2947 11.3352 19.3307 11.3401C19.6659 11.3899 19.9781 11.5209 20.2673 11.7331C20.3834 11.8176 20.5083 11.8305 20.6419 11.7721C20.9136 11.653 21.2072 11.5826 21.5227 11.561C21.5547 11.5579 21.585 11.5452 21.6096 11.5246C21.6341 11.504 21.6516 11.4764 21.6599 11.4457C21.6681 11.4149 21.6666 11.3824 21.6556 11.3525C21.6446 11.3226 21.6246 11.2967 21.5983 11.2784L21.2302 11.0413C21.1667 10.998 21.1086 11.0034 21.056 11.0576C21.0188 11.0944 20.9914 11.1366 20.9739 11.1842C20.9617 11.2135 20.9432 11.2396 20.9199 11.2605C20.8965 11.2813 20.8689 11.2963 20.8391 11.3044C20.6945 11.3434 20.6167 11.3011 20.6058 11.1777C20.6033 11.1361 20.585 11.0969 20.5545 11.068C20.5241 11.039 20.4837 11.0226 20.4415 11.0218L19.7973 10.9991C19.7456 10.997 19.6946 10.9813 19.6494 10.9536ZM19.9748 13.0128L20.0602 13.0193C20.1501 13.0258 20.1786 13.0712 20.1457 13.1557L20.0438 13.4155C19.9868 13.5627 20.0383 13.6266 20.1983 13.6071C20.7 13.5378 21.1656 13.3614 21.595 13.0777C21.744 12.9781 21.7308 12.9088 21.5555 12.8699C21.4109 12.8374 21.274 12.8601 21.1447 12.9381C20.8523 13.1232 20.4579 13.0452 20.2016 12.8374C20.3133 12.727 20.3659 12.61 20.3593 12.4866C20.3572 12.4342 20.34 12.3834 20.3097 12.3402C20.2795 12.2971 20.2374 12.2634 20.1884 12.243C19.7108 12.0417 19.2748 11.7992 18.8804 11.5155C18.8224 11.4733 18.7562 11.4432 18.686 11.427C18.6158 11.4108 18.543 11.4089 18.472 11.4213C18.401 11.4338 18.3333 11.4603 18.273 11.4994C18.2127 11.5385 18.1611 11.5893 18.1213 11.6487C17.8321 12.086 17.5955 12.5407 17.4114 13.0128C17.3742 13.1145 17.3731 13.2185 17.4081 13.3246C17.4892 13.5757 17.7247 13.6331 18.1147 13.4967C18.2483 13.4498 18.3671 13.3704 18.4598 13.2661C18.738 12.9543 19.0897 12.7118 19.5147 12.5386C19.5344 12.5299 19.5498 12.5321 19.5607 12.5451L19.6199 12.6165C19.6768 12.6815 19.6648 12.728 19.5837 12.7562C19.2858 12.8601 18.9966 13.0258 18.7161 13.2531C18.7074 13.2618 18.7052 13.2715 18.7095 13.2823L18.7556 13.37C18.7797 13.4155 18.8158 13.4296 18.864 13.4123L19.9748 13.0128ZM22.2095 12.2658C22.2512 12.1748 22.2786 12.0752 22.2917 11.967C22.307 11.8089 22.2347 11.7364 22.0748 11.7494C21.9433 11.7602 21.8447 11.8197 21.779 11.928C21.63 12.1662 21.6804 12.3697 21.9302 12.5386C21.9557 12.556 21.9858 12.5655 22.0168 12.5661C22.0478 12.5667 22.0782 12.5583 22.1044 12.5418C22.2073 12.4769 22.2424 12.3848 22.2095 12.2658ZM14.0363 15.2765C14.1984 15.125 14.3858 15.1488 14.5983 15.348C14.675 15.4194 14.7254 15.4043 14.7495 15.3025C14.9247 14.5966 14.7473 14.1225 14.2171 13.8799C14.0177 13.4815 13.7997 13.0777 13.5631 12.6685C13.5368 12.6209 13.4952 12.5938 13.4382 12.5873C13.3374 12.5721 13.3013 12.6133 13.3297 12.7107L14.0363 15.2765ZM19.7185 13.5552C19.5673 13.6364 19.403 13.6364 19.2715 13.763C19.1444 13.8886 19.1707 13.9579 19.3504 13.9709C19.5388 13.986 19.7174 13.9644 19.8861 13.9059C19.9247 13.8933 19.9584 13.8689 19.9822 13.8362C20.0061 13.8036 20.0189 13.7643 20.0189 13.7241C20.0189 13.6838 20.0061 13.6445 19.9822 13.6119C19.9584 13.5792 19.9247 13.5548 19.8861 13.5422C19.8291 13.5227 19.7732 13.527 19.7185 13.5552ZM16.5372 13.7988C16.4496 13.9676 16.4463 14.1354 16.5274 14.3022C16.5358 14.3199 16.5486 14.3352 16.5646 14.3468C16.5805 14.3583 16.5992 14.3657 16.6188 14.3683C16.6384 14.3709 16.6584 14.3686 16.6769 14.3616C16.6953 14.3545 16.7117 14.3431 16.7246 14.3282C16.8779 14.1571 16.9031 13.9796 16.8002 13.7955C16.7874 13.7718 16.7683 13.752 16.745 13.7383C16.7216 13.7246 16.6949 13.7176 16.6677 13.7179C16.6405 13.7183 16.614 13.726 16.591 13.7402C16.568 13.7545 16.5494 13.7747 16.5372 13.7988ZM17.4311 14.221C17.3829 14.2946 17.3775 14.3736 17.4147 14.4581C17.4651 14.5707 17.5352 14.5837 17.625 14.497C17.7017 14.4213 17.7455 14.3325 17.7565 14.2307C17.7588 14.2121 17.7567 14.1931 17.7504 14.1754C17.7442 14.1577 17.7339 14.1418 17.7205 14.1288C17.7071 14.1159 17.6909 14.1063 17.6731 14.1009C17.6554 14.0954 17.6367 14.0943 17.6185 14.0976C17.5374 14.1105 17.475 14.1517 17.4311 14.221ZM15.995 16.6179C16.0285 16.6352 16.0658 16.6436 16.1036 16.6425C16.1413 16.6414 16.1781 16.6307 16.2104 16.6114C16.2428 16.5922 16.2696 16.565 16.2882 16.5326C16.3069 16.5002 16.3168 16.4636 16.3171 16.4263L16.3269 15.4811C16.327 15.4407 16.3156 15.4011 16.2941 15.3666C16.2727 15.3322 16.2419 15.3044 16.2053 15.2863L15.4626 14.9095C15.4293 14.893 15.3922 14.8852 15.355 14.8867C15.3177 14.8882 15.2814 14.899 15.2496 14.9182C15.2177 14.9373 15.1913 14.9642 15.1728 14.9962C15.1543 15.0282 15.1443 15.0643 15.1438 15.1011L15.1307 16.043C15.1303 16.0831 15.1412 16.1226 15.162 16.1569C15.1829 16.1913 15.213 16.2193 15.249 16.2379L15.995 16.6179ZM16.5865 17.5013C16.5055 17.5035 16.431 17.5273 16.3631 17.5728C16.3314 17.5958 16.2933 17.6088 16.254 17.6099C16.2147 17.6111 16.1759 17.6004 16.1429 17.5793C16.0049 17.4948 15.9282 17.3736 15.9128 17.2155C15.9019 17.1072 15.8613 17.0109 15.7912 16.9264C15.7189 16.8398 15.6236 16.79 15.5053 16.777C15.2578 16.7489 15.2238 16.8204 15.4034 16.9914C15.6182 17.1928 15.788 17.418 15.9128 17.667C15.972 17.7882 16.0673 17.8304 16.1988 17.7936C16.3455 17.7503 16.4847 17.7038 16.6161 17.654C16.8966 17.55 16.8867 17.4992 16.5865 17.5013ZM19.8499 17.3064C19.9682 17.2653 20.0186 17.183 20.0011 17.0596C19.9965 17.0261 19.9832 16.9943 19.9626 16.9673C19.9421 16.9403 19.9148 16.9189 19.8835 16.9052C19.8522 16.8916 19.8179 16.886 19.7838 16.8892C19.7498 16.8923 19.7171 16.904 19.6889 16.9232C19.4479 17.0856 19.3088 17.287 19.2715 17.5273C19.2474 17.6854 19.3164 17.7568 19.4786 17.7417C19.6078 17.7287 19.6768 17.6561 19.6856 17.5241C19.6876 17.476 19.7043 17.4296 19.7336 17.3908C19.7629 17.352 19.8034 17.3226 19.8499 17.3064ZM14.0386 19.4356C14.0279 19.4243 14.0108 19.4197 13.9911 19.423C13.9714 19.4262 13.9506 19.4369 13.9335 19.4528C13.9163 19.4687 13.9041 19.4885 13.8995 19.5077C13.8949 19.5269 13.8984 19.5441 13.9091 19.5554C13.9198 19.5667 13.9369 19.5713 13.9567 19.5681C13.9764 19.5648 13.9971 19.5541 14.0143 19.5382C14.0315 19.5223 14.0437 19.5026 14.0483 19.4833C14.0528 19.4641 14.0494 19.4469 14.0386 19.4356ZM15.0452 20.2847C15.0474 20.341 15.0715 20.3865 15.1175 20.4211C15.13 20.4295 15.1444 20.4342 15.1594 20.435C15.1744 20.4357 15.1893 20.4324 15.2025 20.4254C15.2157 20.4183 15.2267 20.4079 15.2343 20.3951C15.2419 20.3823 15.2459 20.3678 15.2457 20.3529C15.2435 20.288 15.2128 20.2414 15.1537 20.2133C15.1418 20.2076 15.1287 20.2051 15.1155 20.206C15.1024 20.2069 15.0897 20.2111 15.0788 20.2183C15.0678 20.2256 15.059 20.2355 15.0531 20.2471C15.0472 20.2588 15.0445 20.2717 15.0452 20.2847ZM14.8218 20.6323C14.8042 20.5067 14.7506 20.4904 14.6607 20.5835C14.5731 20.6766 14.5326 20.7979 14.5391 20.9473C14.5457 21.0686 14.5972 21.0902 14.6936 21.0123C14.8031 20.9213 14.8459 20.7947 14.8218 20.6323ZM16.8166 20.7264C16.8823 20.7026 16.9086 20.6647 16.8955 20.6128C16.8845 20.5673 16.856 20.5532 16.81 20.5706C16.6895 20.616 16.6041 20.6951 16.5537 20.8076C16.523 20.8748 16.5449 20.9029 16.6194 20.8921C16.6676 20.8856 16.7027 20.8585 16.7246 20.8109C16.7443 20.7698 16.775 20.7416 16.8166 20.7264ZM19.0152 22.9253C19.2803 22.9079 19.4895 22.7574 19.6429 22.4738C19.748 22.2833 19.6998 22.2324 19.4983 22.3212C19.2923 22.4099 19.1028 22.5539 18.9297 22.7531C18.818 22.8787 18.8465 22.9361 19.0152 22.9253ZM16.2197 23.2562C16.2581 23.2198 16.2663 23.1555 16.2427 23.0775C16.2191 22.9995 16.1655 22.9141 16.0937 22.8401C16.0581 22.8035 16.0192 22.7707 15.9791 22.7438C15.939 22.7168 15.8985 22.6962 15.8599 22.683C15.8213 22.6698 15.7854 22.6644 15.7543 22.667C15.7231 22.6696 15.6973 22.6802 15.6783 22.6983C15.6399 22.7346 15.6316 22.7989 15.6553 22.8769C15.6789 22.955 15.7325 23.0404 15.8043 23.1143C15.8398 23.151 15.8788 23.1837 15.9189 23.2107C15.959 23.2376 15.9995 23.2583 16.0381 23.2714C16.0767 23.2846 16.1126 23.2901 16.1437 23.2874C16.1749 23.2848 16.2007 23.2742 16.2197 23.2562ZM15.1262 23.0466C15.1006 23.0015 15.0516 22.9719 14.99 22.9641C14.9283 22.9564 14.8591 22.9713 14.7976 23.0054C14.736 23.0396 14.6871 23.0902 14.6617 23.1462C14.6362 23.2022 14.6363 23.259 14.6619 23.3041C14.6875 23.3492 14.7365 23.3788 14.7981 23.3865C14.8598 23.3943 14.929 23.3794 14.9905 23.3453C15.0521 23.3111 15.101 23.2605 15.1264 23.2045C15.1519 23.1485 15.1518 23.0917 15.1262 23.0466ZM15.0288 23.721C15.0087 23.7211 14.989 23.7268 14.9719 23.7374C14.9549 23.748 14.9411 23.7631 14.9323 23.781C14.9234 23.7988 14.9197 23.8188 14.9217 23.8386C14.9236 23.8584 14.9311 23.8773 14.9434 23.8931C14.9872 23.9494 15.0419 23.97 15.1077 23.9548C15.1953 23.9332 15.2172 23.8834 15.1734 23.8054C15.1405 23.747 15.0923 23.7188 15.0288 23.721ZM16.4419 24.127C16.4697 24.1083 16.4901 24.0809 16.4997 24.0495C16.5093 24.0181 16.5075 23.9846 16.4945 23.9548C16.4485 23.8444 16.3718 23.7589 16.2645 23.6982C16.1506 23.6333 16.0454 23.6387 15.949 23.7145C15.8175 23.8163 15.766 23.9559 15.7945 24.1335C15.8142 24.2655 15.8909 24.3197 16.0246 24.2959C16.1714 24.2677 16.3105 24.2114 16.4419 24.127ZM10.0039 25.2605L10.1518 25.4911C10.1559 25.4977 10.1612 25.5035 10.1676 25.5081C10.1739 25.5127 10.1811 25.5161 10.1888 25.5179C10.1964 25.5197 10.2043 25.52 10.2121 25.5187C10.2199 25.5175 10.2273 25.5147 10.234 25.5106L10.441 25.3774C10.861 25.115 11.2543 24.8483 11.5346 24.6358C11.815 24.4233 11.9594 24.2824 11.9363 24.2439L11.9067 24.2017C11.8818 24.1643 11.6914 24.2326 11.3772 24.3915C11.063 24.5504 10.6507 24.787 10.2307 25.0494L10.0236 25.1793C10.0169 25.1833 10.011 25.1886 10.0064 25.1948C10.0017 25.2011 9.99837 25.2082 9.99653 25.2158C9.9947 25.2233 9.9944 25.2312 9.99567 25.2389C9.99694 25.2465 9.99975 25.2539 10.0039 25.2605ZM14.0166 24.6336C13.883 24.6683 13.7701 24.7419 13.6781 24.8545C13.597 24.9541 13.6211 24.9974 13.7504 24.9844C13.9125 24.9649 14.0319 24.8859 14.1086 24.7473C14.1678 24.639 14.1371 24.6012 14.0166 24.6336ZM13.0898 25.3417C13.0219 25.4543 13.0504 25.4857 13.1753 25.4359C13.3243 25.3774 13.4349 25.2789 13.5072 25.1403C13.5883 24.9866 13.5532 24.953 13.402 25.0396C13.2706 25.1132 13.1665 25.2139 13.0898 25.3417ZM12.2584 25.4066L12.288 25.1825C12.2888 25.1729 12.2872 25.1632 12.2831 25.1544C12.279 25.1456 12.2726 25.1381 12.2646 25.1325C12.2566 25.1269 12.2473 25.1235 12.2376 25.1225C12.2278 25.1216 12.218 25.1233 12.2091 25.1273C11.543 25.4521 11.2035 25.7931 11.1903 26.1504C11.1815 26.408 11.2725 26.4492 11.4631 26.2738L11.8772 25.8906C11.9225 25.8493 11.9794 25.8226 12.0404 25.8139C12.1014 25.8052 12.1637 25.815 12.2189 25.8418C12.3679 25.9133 12.4895 25.8786 12.5837 25.7379C12.5914 25.7262 12.5957 25.7126 12.5963 25.6987C12.5968 25.6847 12.5935 25.6709 12.5868 25.6586C12.5801 25.6463 12.5702 25.6361 12.5581 25.6289C12.546 25.6217 12.5321 25.6178 12.518 25.6177C12.4808 25.6177 12.4446 25.6145 12.4096 25.608C12.2934 25.5885 12.243 25.5214 12.2584 25.4066Z"
    fill="#C7C7C7" />
  <path
    d="M14.457 7.57252C14.251 7.6418 14.1042 7.75764 14.0166 7.92004C13.975 7.99366 13.9147 8.04346 13.8358 8.06944C13.6145 8.14306 13.4426 8.07485 13.3199 7.86482C13.2684 7.77598 13.1917 7.70469 13.0997 7.66021C12.8039 7.51947 12.4807 7.4675 12.1302 7.50431C12.0163 7.5173 11.9023 7.51189 11.7884 7.48807L10.9011 7.28995C12.2069 7.09724 13.3922 7.19143 14.457 7.57252Z"
    fill="#959393" />
  <path
    d="M20.2114 8.09884C19.9003 8.18545 19.7414 8.0826 19.7349 7.79029C19.7261 7.46334 19.8499 7.40271 20.1062 7.60841L20.5499 7.95918C20.6463 8.03713 20.6397 8.10425 20.5302 8.16055C20.471 8.19086 20.4162 8.18328 20.3659 8.13781C20.3457 8.11812 20.3208 8.10411 20.2936 8.09725C20.2664 8.0904 20.238 8.09094 20.2114 8.09884Z"
    fill="#1B1F1C" />
  <path
    d="M14.894 8.24519C15.1525 8.30799 15.3464 8.43898 15.4757 8.63818C15.5787 8.79841 15.5381 8.85146 15.3541 8.79733C14.9488 8.68041 14.573 8.4877 14.2269 8.21921C14.0976 8.11961 14.1129 8.05249 14.2729 8.01784C14.4284 7.9832 14.5665 8.02217 14.687 8.13477C14.7461 8.1889 14.8151 8.22571 14.894 8.24519Z"
    fill="#959393" />
  <path
    d="M16.7015 11.0186C16.1406 11.0078 15.7287 10.9233 15.4658 10.7653C15.273 10.2348 14.8918 9.85261 14.3222 9.61877C14.2148 9.57546 14.137 9.50726 14.0888 9.41415C14.0779 9.3925 14.0779 9.37193 14.0888 9.35244C14.1655 9.22036 14.1283 9.13808 13.9771 9.1056C13.4907 9.00817 13.1194 8.79273 12.863 8.45928C12.6987 8.24492 12.7436 8.18429 12.9978 8.2774C13.4579 8.44412 13.8774 8.70828 14.2564 9.06988C14.2934 9.10447 14.3373 9.1308 14.3849 9.14705C14.4326 9.16331 14.4829 9.16911 14.5325 9.16407C14.894 9.12726 15.1722 9.25068 15.3672 9.53432C15.4286 9.6231 15.5064 9.6913 15.6006 9.73894C16.1549 10.0096 16.5219 10.4361 16.7015 11.0186Z"
    fill="#1B1F1C" />
  <path
    d="M19.7973 10.9992L20.4414 11.0219C20.4837 11.0227 20.524 11.0392 20.5545 11.0681C20.585 11.097 20.6033 11.1362 20.6058 11.1778C20.6167 11.3013 20.6945 11.3435 20.8391 11.3045C20.8688 11.2964 20.8965 11.2814 20.9198 11.2606C20.9432 11.2397 20.9617 11.2137 20.9738 11.1843C20.9914 11.1367 21.0187 11.0945 21.056 11.0577C21.1086 11.0035 21.1666 10.9981 21.2302 11.0414L21.5982 11.2785C21.6245 11.2969 21.6446 11.3227 21.6556 11.3526C21.6666 11.3825 21.6681 11.415 21.6598 11.4458C21.6516 11.4765 21.6341 11.5041 21.6095 11.5247C21.585 11.5453 21.5547 11.558 21.5227 11.5611C21.2072 11.5827 20.9136 11.6531 20.6419 11.7722C20.5083 11.8307 20.3834 11.8177 20.2673 11.7332C19.9781 11.521 19.6658 11.39 19.3306 11.3402C19.2946 11.3353 19.2607 11.3206 19.2326 11.2978C19.2045 11.275 19.1834 11.245 19.1715 11.211C19.1596 11.1771 19.1574 11.1406 19.1652 11.1055C19.173 11.0704 19.1904 11.0381 19.2156 11.0122C19.3449 10.8801 19.4895 10.8606 19.6494 10.9537C19.6946 10.9814 19.7456 10.9971 19.7973 10.9992Z"
    fill="#1B1F1C" />
  <path d="M10.786 11.2886L9.47146 13.9843C9.36301 12.893 9.57334 11.6946 10.786 11.2886Z"
    fill="#1B1F1C" />
  <path
    d="M12.9156 11.4994C12.8083 11.6423 12.8378 11.7971 13.0043 11.9639C13.1183 12.0786 13.1161 12.1891 12.9978 12.2952C12.8926 12.3883 12.8236 12.5041 12.7907 12.6427C12.7447 12.8397 12.6286 12.8949 12.4424 12.8083C12.2912 12.7369 12.1893 12.6329 12.1367 12.4965C12.1253 12.4658 12.122 12.4328 12.1272 12.4005C12.1323 12.3682 12.1458 12.3378 12.1662 12.312C12.1866 12.2863 12.2133 12.2662 12.2439 12.2536C12.2744 12.241 12.3076 12.2363 12.3405 12.2399C12.4172 12.2486 12.4895 12.241 12.5574 12.2172C12.6713 12.1782 12.7086 12.1024 12.6691 11.9899L12.4522 11.3533L12.9156 11.4994Z"
    fill="#959393" />
  <path
    d="M22.2094 12.2657C22.2423 12.3848 22.2073 12.4768 22.1043 12.5418C22.0781 12.5582 22.0477 12.5666 22.0167 12.5661C21.9857 12.5655 21.9556 12.5559 21.9301 12.5385C21.6803 12.3696 21.6299 12.1661 21.7789 11.9279C21.8447 11.8197 21.9432 11.7601 22.0747 11.7493C22.2346 11.7363 22.3069 11.8088 22.2916 11.9669C22.2785 12.0752 22.2511 12.1748 22.2094 12.2657Z"
    fill="#959393" />
  <path
    d="M14.217 13.8802L14.0362 15.2768L13.3297 12.711C13.3012 12.6135 13.3373 12.5724 13.4381 12.5875C13.4951 12.594 13.5367 12.6211 13.563 12.6687C13.7996 13.078 14.0176 13.4818 14.217 13.8802Z"
    fill="#1B1F1C" />
  <path
    d="M20.2015 12.8376C20.4579 13.0455 20.8522 13.1235 21.1447 12.9383C21.274 12.8604 21.4109 12.8376 21.5555 12.8701C21.7308 12.9091 21.7439 12.9784 21.5949 13.078C21.1655 13.3616 20.7 13.5381 20.1982 13.6074C20.0383 13.6269 19.9868 13.563 20.0438 13.4158L20.1457 13.1559C20.1785 13.0715 20.15 13.026 20.0602 13.0195L19.9748 13.013C20.0449 12.9351 20.1205 12.8766 20.2015 12.8376Z"
    fill="#1B1F1C" />
  <path
    d="M19.7184 13.5552C19.7732 13.5271 19.829 13.5227 19.886 13.5422C19.9247 13.5549 19.9583 13.5793 19.9822 13.612C20.006 13.6446 20.0188 13.6838 20.0188 13.7241C20.0188 13.7644 20.006 13.8036 19.9822 13.8363C19.9583 13.8689 19.9247 13.8933 19.886 13.906C19.7173 13.9645 19.5387 13.9861 19.3503 13.971C19.1707 13.958 19.1444 13.8887 19.2714 13.7631C19.4029 13.6364 19.5672 13.6364 19.7184 13.5552Z"
    fill="#1B1F1C" />
  <path
    d="M13.2311 15.6665C13.1895 15.7487 13.1719 15.8104 13.1785 15.8516L12.002 16.0952C11.8968 16.1168 11.8103 16.1688 11.7424 16.2511C11.2954 16.7902 11.2001 17.167 10.4147 17.495C10.3446 17.2482 10.4136 17.0663 10.6217 16.9494C11.1311 16.6603 11.5288 16.2283 11.8607 15.7606C11.9242 15.6697 12.0129 15.6177 12.1269 15.6047C12.2145 15.5961 12.2989 15.569 12.3799 15.5235C12.5399 15.4326 12.5508 15.3265 12.4128 15.2053C12.3273 15.1273 12.2342 15.1046 12.1334 15.1371C12.0721 15.1587 12.0162 15.1912 11.9658 15.2345C11.1223 15.9858 10.3325 16.761 9.59636 17.56C9.51968 17.6444 9.53721 17.7007 9.64894 17.7288L10.1189 17.8458C9.65004 18.3849 9.34879 18.9316 9.21514 19.4859C9.21295 19.4989 9.20528 19.5087 9.19214 19.5152C9.15708 19.5368 9.12641 19.5422 9.10012 19.5314C9.06945 19.5206 9.05411 19.4989 9.05411 19.4665C9.04315 18.9273 9.13736 18.4206 9.33674 17.9465C9.37327 17.8594 9.38464 17.7627 9.3696 17.6671C9.33674 17.456 9.42876 17.1605 9.59308 17.0078C10.0072 16.6376 10.3544 16.2327 10.6349 15.7931L11.371 14.7148C11.4389 14.6131 11.417 14.5384 11.3053 14.4907L11.0062 14.3673L11.5419 13.7859C11.5737 13.7516 11.613 13.7249 11.6568 13.7079C11.7006 13.6909 11.7478 13.684 11.7947 13.6878C11.8417 13.6915 11.8871 13.7058 11.9276 13.7296C11.9681 13.7534 12.0025 13.786 12.0283 13.8249L13.2311 15.6665Z"
    fill="#C7C7C7" />
  <path
    d="M16.5372 13.7989C16.5493 13.7749 16.5679 13.7546 16.5909 13.7403C16.6139 13.7261 16.6405 13.7184 16.6676 13.718C16.6948 13.7177 16.7215 13.7248 16.7449 13.7384C16.7683 13.7521 16.7874 13.7719 16.8001 13.7956C16.9031 13.9797 16.8779 14.1572 16.7245 14.3283C16.7117 14.3432 16.6953 14.3547 16.6768 14.3617C16.6583 14.3687 16.6384 14.371 16.6188 14.3684C16.5991 14.3658 16.5805 14.3584 16.5645 14.3469C16.5485 14.3353 16.5358 14.32 16.5273 14.3023C16.4463 14.1356 16.4496 13.9678 16.5372 13.7989Z"
    fill="#1B1F1C" />
  <path
    d="M14.0363 15.2767L14.217 13.8801C14.7472 14.1226 14.9247 14.5968 14.7494 15.3027C14.7253 15.4045 14.6749 15.4196 14.5982 15.3482C14.3857 15.149 14.1984 15.1251 14.0363 15.2767Z"
    fill="#959393" />
  <path
    d="M17.4312 14.2214C17.4751 14.152 17.5376 14.1108 17.6188 14.0978C17.6371 14.0945 17.6559 14.0956 17.6736 14.1011C17.6914 14.1065 17.7076 14.1161 17.7211 14.1291C17.7345 14.1421 17.7448 14.1581 17.7511 14.1758C17.7573 14.1935 17.7594 14.2125 17.7571 14.2312C17.7462 14.3332 17.7023 14.4221 17.6254 14.498C17.5354 14.5848 17.4652 14.5718 17.4147 14.459C17.3774 14.3744 17.3829 14.2952 17.4312 14.2214Z"
    fill="#1B1F1C" />
  <path
    d="M11.0062 14.3672L11.3053 14.4906C11.417 14.5382 11.4389 14.6129 11.371 14.7147L10.6349 15.793C10.6195 15.544 10.5461 15.348 10.4147 15.2051C10.3402 15.125 10.3413 15.046 10.418 14.968L11.0062 14.3672Z"
    fill="#1B1F1C" />
  <path
    d="M10.4147 17.4951L10.1189 17.8458L9.64898 17.7289C9.53725 17.7008 9.51972 17.6445 9.5964 17.56C10.3326 16.7611 11.1224 15.9859 11.9659 15.2346C12.0163 15.1913 12.0721 15.1588 12.1335 15.1371C12.2343 15.1047 12.3274 15.1274 12.4128 15.2053C12.5509 15.3266 12.5399 15.4327 12.38 15.5236C12.2989 15.5691 12.2145 15.5962 12.1269 15.6048C12.013 15.6178 11.9243 15.6698 11.8607 15.7607C11.5288 16.2284 11.1311 16.6604 10.6218 16.9494C10.4136 17.0664 10.3446 17.2482 10.4147 17.4951Z"
    fill="#959393" />
  <path
    d="M14.641 17.0859C13.8457 16.8391 13.7044 16.2512 13.1786 15.8517C13.172 15.8106 13.1895 15.7489 13.2311 15.6666C13.5313 15.7121 13.6321 15.6785 13.5335 15.5659C14.1009 16.0812 14.4701 16.5879 14.641 17.0859Z"
    fill="#959393" />
  <path
    d="M19.6855 17.5242C19.6768 17.6562 19.6078 17.7288 19.4785 17.7418C19.3164 17.7569 19.2474 17.6855 19.2715 17.5274C19.3087 17.2871 19.4478 17.0857 19.6888 16.9233C19.717 16.9041 19.7497 16.8924 19.7838 16.8893C19.8179 16.8861 19.8522 16.8917 19.8835 16.9053C19.9148 16.919 19.942 16.9404 19.9626 16.9674C19.9832 16.9944 19.9964 17.0262 20.001 17.0597C20.0186 17.1831 19.9682 17.2654 19.8499 17.3065C19.8034 17.3227 19.7629 17.3521 19.7336 17.3909C19.7043 17.4297 19.6876 17.4761 19.6855 17.5242Z"
    fill="#1B1F1C" />
  <path
    d="M24.0729 18.8752C24.0729 18.8904 24.0685 18.9077 24.0597 18.9272C24.0466 18.951 24.0531 18.9651 24.0794 18.9694C24.1079 18.9738 24.1397 18.9846 24.1747 19.0019C23.4758 19.2617 23.0344 19.1546 22.8503 18.6804C22.8218 18.6046 22.766 18.5732 22.6827 18.5862L21.5884 18.7518C21.4898 18.767 21.4142 18.7323 21.3616 18.6479C21.3397 18.6111 21.3375 18.5721 21.355 18.531C21.366 18.5093 21.3835 18.4952 21.4076 18.4887C21.5632 18.4476 21.7067 18.3848 21.8381 18.3004C21.9345 18.2376 21.9849 18.1499 21.9893 18.0373C21.9937 17.9117 21.9247 17.8099 21.7823 17.732C21.7395 17.7089 21.6919 17.696 21.6434 17.6943C21.5949 17.6926 21.5468 17.7022 21.5029 17.7222C21.1765 17.8716 20.9059 17.8446 20.6912 17.641C20.5948 17.5501 20.4951 17.5447 20.3921 17.6248C20.3089 17.6876 20.2508 17.8067 20.2179 17.9821C20.0974 17.8781 19.9616 17.8435 19.8104 17.8781L19.9649 17.7515C20.0438 17.6865 20.0865 17.6021 20.0931 17.4981C20.1084 17.2513 20.2464 17.1246 20.5071 17.1181C20.8029 17.1116 21.1085 17.1084 21.424 17.1084C21.538 17.1084 21.6322 17.1506 21.7067 17.2351C22.0243 17.5858 22.4242 17.8034 22.9062 17.8879C22.9332 17.8929 22.9584 17.9045 22.9792 17.9216C22.9999 17.9387 23.0156 17.9606 23.0245 17.9853C23.2721 18.6695 23.6215 18.9662 24.0729 18.8752Z"
    fill="#959393" />
  <path
    d="M20.2179 17.9824C20.356 18.0668 20.4502 18.1654 20.5006 18.278C20.5531 18.397 20.5137 18.4479 20.3823 18.4306C20.1084 18.3938 19.9178 18.2098 19.8104 17.8785C19.9616 17.8438 20.0974 17.8785 20.2179 17.9824Z"
    fill="#1B1F1C" />
  <path
    d="M12.8828 20.1713C12.9726 20.1692 13.0394 20.1778 13.0833 20.1973C13.1884 20.2406 13.1873 20.2807 13.08 20.3175C12.9551 20.3586 12.8784 20.4636 12.8499 20.6325L10.1978 20.9313C10.1343 20.9378 10.1069 20.9736 10.1157 21.0385C10.1178 21.0645 10.1211 21.0959 10.1255 21.1327C10.0948 21.0807 10.0127 21.0493 9.87903 21.0385C10.1419 20.6401 10.5221 20.4063 11.0194 20.337C11.0384 20.3344 11.0566 20.3279 11.0728 20.3178C11.0891 20.3077 11.1031 20.2943 11.1139 20.2784C11.1247 20.2625 11.1322 20.2445 11.1357 20.2255C11.1392 20.2065 11.1388 20.187 11.1344 20.1681C11.095 19.9992 10.9405 19.9212 10.6711 19.9342C10.5555 19.9406 10.4444 19.9813 10.3523 20.0512C9.99077 20.3261 9.67309 20.6791 9.39922 21.11C9.30282 21.2724 9.16151 21.3352 8.97528 21.2983C9.41566 20.4236 10.0488 19.7643 10.8748 19.3204C10.9603 19.2749 11.0391 19.2836 11.1114 19.3464C11.1509 19.3789 11.1607 19.4157 11.141 19.4568C11.0731 19.5889 11.1114 19.6528 11.256 19.6484L11.6307 19.6354C11.738 19.6311 11.8399 19.6528 11.9363 19.7004L12.8828 20.1713Z"
    fill="#1B1F1C" />
  <path
    d="M20.7766 19.3883L21.3714 19.4273C21.4766 19.436 21.5653 19.4771 21.6376 19.5507C21.8633 19.7759 22.1405 19.8625 22.4691 19.8105L22.5217 20.0444C22.1448 20.5142 21.5566 20.7535 20.7569 20.7622C20.6473 20.7622 20.5466 20.7914 20.4545 20.8499C20.2924 20.9516 20.1029 21.0155 19.886 21.0415C19.4456 21.1346 18.9779 21.1086 18.4827 20.9635C18.3797 20.9332 18.2757 20.9289 18.1705 20.9505C17.9295 20.9982 17.6984 20.9928 17.4771 20.9343C18.073 20.5792 18.2472 20.2847 17.9996 20.0509C18.2078 19.9968 18.4203 20.0227 18.6372 20.1288C18.7467 20.183 18.853 20.1786 18.956 20.1158C19.2714 19.9253 19.6045 19.7911 19.955 19.7131C20.0646 19.6871 20.1621 19.6373 20.2475 19.5637C20.4096 19.4208 20.586 19.3623 20.7766 19.3883ZM21.5011 20.0013C21.5163 19.95 21.4849 19.8876 21.414 19.8278C21.3431 19.7679 21.2384 19.7156 21.123 19.6822C21.0658 19.6657 21.0077 19.6543 20.9521 19.6488C20.8964 19.6432 20.8442 19.6436 20.7984 19.6499C20.7527 19.6562 20.7143 19.6682 20.6855 19.6853C20.6567 19.7024 20.638 19.7243 20.6305 19.7497C20.6154 19.801 20.6467 19.8634 20.7176 19.9232C20.7885 19.9831 20.8932 20.0354 21.0086 20.0688C21.0658 20.0853 21.1239 20.0967 21.1796 20.1022C21.2352 20.1078 21.2874 20.1074 21.3332 20.1011C21.3789 20.0949 21.4173 20.0828 21.4461 20.0657C21.4749 20.0486 21.4936 20.0267 21.5011 20.0013Z"
    fill="#959393" />
  <path
    d="M22.5217 20.0447L22.4691 19.8108C22.6356 19.59 22.8186 19.4925 23.0179 19.5185C23.1275 19.5337 23.1384 19.5748 23.0508 19.6419L22.5217 20.0447Z"
    fill="#959393" />
  <path
    d="M14.8223 20.6328C14.8464 20.7955 14.8036 20.9224 14.6938 21.0136C14.5973 21.0917 14.5457 21.07 14.5391 20.9485C14.5325 20.7988 14.5731 20.6773 14.6609 20.584C14.7509 20.4907 14.8047 20.507 14.8223 20.6328Z"
    fill="#959393" />
  <path
    d="M16.7249 20.812C16.7029 20.8597 16.6678 20.8868 16.6195 20.8933C16.5449 20.9042 16.5229 20.876 16.5536 20.8087C16.6041 20.6959 16.6897 20.6167 16.8105 20.5711C16.8566 20.5538 16.8851 20.5679 16.8961 20.6135C16.9093 20.6655 16.8829 20.7035 16.8171 20.7274C16.7754 20.7425 16.7446 20.7707 16.7249 20.812Z"
    fill="#1B1F1C" />
  <path
    d="M19.886 21.0417C19.9386 21.0114 19.9879 20.9984 20.0339 21.0028C20.104 21.0093 20.1226 21.0439 20.0898 21.1067C20.0482 21.189 20.0701 21.2345 20.1555 21.2431C19.7524 21.3427 19.4697 21.3871 19.3076 21.3763C19.0184 21.359 18.3272 21.2723 17.2339 21.1165C17.3698 21.0472 17.4508 20.9865 17.4771 20.9346C17.6984 20.993 17.9295 20.9984 18.1705 20.9508C18.2757 20.9292 18.3798 20.9335 18.4827 20.9638C18.9779 21.1089 19.4456 21.1349 19.886 21.0417Z"
    fill="#959393" />
  <path
    d="M21.917 22.7596C21.435 22.6968 21.1173 22.7488 20.964 22.9155C20.5192 22.9523 20.1884 23.1082 19.9715 23.3832C19.8619 23.5196 19.7721 23.5207 19.702 23.3865C19.6976 23.3756 19.6878 23.3702 19.6724 23.3702C19.5935 23.3681 19.5245 23.3897 19.4654 23.4352C19.1192 23.7015 18.7939 23.6539 18.4893 23.2923C18.4499 23.2446 18.4356 23.1905 18.4466 23.1299C18.4597 23.0714 18.4937 23.0303 18.5485 23.0065C18.6339 22.9653 18.681 22.9913 18.6898 23.0844C18.7007 23.2057 18.7621 23.2858 18.8738 23.3248C18.9921 23.3681 19.0995 23.3486 19.1959 23.2663C19.3712 23.1147 19.5771 23.0086 19.8137 22.948C19.8555 22.9376 19.8946 22.9186 19.9283 22.8921C19.9621 22.8655 19.9898 22.8322 20.0097 22.7942C20.0295 22.7561 20.0411 22.7143 20.0436 22.6714C20.046 22.6285 20.0394 22.5855 20.0241 22.5453C19.9561 22.3612 20.0087 22.2216 20.1818 22.1263C20.3505 22.0375 20.414 22.0851 20.3724 22.2692L20.3198 22.4998C20.2935 22.6189 20.3417 22.6676 20.4644 22.6459L20.8851 22.5712C20.914 22.5655 20.9401 22.5505 20.9592 22.5287C20.9783 22.5069 20.9892 22.4795 20.9903 22.4511C20.9968 22.2649 21.0428 22.083 21.1283 21.9054C21.1721 21.821 21.2247 21.8145 21.286 21.8859C21.4985 22.1285 21.8217 22.2605 22.2555 22.2822C22.422 22.2908 22.4527 22.2313 22.3475 22.1036C22.3059 22.0538 22.2566 22.0159 22.1996 21.9899C22.066 21.9336 22.0101 21.834 22.032 21.6911L22.0583 21.5287C22.0824 21.3706 22.1635 21.3316 22.3015 21.4118C22.4658 21.507 22.6192 21.6424 22.7616 21.8177C22.8492 21.9238 22.8558 22.0343 22.7813 22.149C22.5841 22.4457 22.296 22.6492 21.917 22.7596Z"
    fill="#959393" />
  <path
    d="M18.9297 22.7531C19.1027 22.5539 19.2923 22.4099 19.4982 22.3211C19.6998 22.2324 19.748 22.2832 19.6428 22.4738C19.4894 22.7574 19.2802 22.9079 19.0151 22.9252C18.8464 22.9361 18.8179 22.8787 18.9297 22.7531Z"
    fill="#1B1F1C" />
  <path
    d="M21.917 22.7597L21.4964 23.2858C21.4219 23.3789 21.4438 23.4136 21.5621 23.3897C21.9455 23.3075 22.295 23.3172 22.6104 23.419C21.9817 23.7416 21.2685 23.8358 20.471 23.7015C20.4491 23.4828 20.5762 23.3659 20.8522 23.3508C20.9684 23.3443 21.0176 23.2847 21.0001 23.1721L20.964 22.9156C21.1173 22.7488 21.435 22.6969 21.917 22.7597Z"
    fill="#1B1F1C" />
  <path
    d="M14.0173 24.6333C14.1381 24.6008 14.1688 24.6388 14.1095 24.7472C14.0327 24.8861 13.913 24.9653 13.7506 24.9848C13.6211 24.9978 13.5969 24.9544 13.6782 24.8546C13.7704 24.7418 13.8834 24.668 14.0173 24.6333Z"
    fill="#1B1F1C" />
  <path
    d="M13.0899 25.3427C13.1667 25.2147 13.271 25.1138 13.4027 25.0401C13.5541 24.9533 13.5893 24.9869 13.508 25.141C13.4356 25.2798 13.3247 25.3785 13.1755 25.4371C13.0503 25.487 13.0218 25.4555 13.0899 25.3427Z"
    fill="#1B1F1C" />
  <path
    d="M55.3362 16.3065C54.6953 17.3393 55.1554 19.0509 56.3648 19.5933C57.32 20.022 58.261 19.8088 59.1878 18.9535C59.2316 18.9123 59.2743 18.9145 59.316 18.96L60.2789 19.9668C60.2951 19.9842 60.3038 20.0072 60.3032 20.0308C60.3026 20.0545 60.2927 20.0769 60.2756 20.0935C59.1626 21.1783 57.7922 21.5323 56.1643 21.1555C54.3864 20.7431 53.1672 18.9827 53.3413 17.2126C53.693 13.6887 57.5742 12.474 60.177 14.6793C60.2383 14.7291 60.2427 14.7832 60.1901 14.8417L59.2667 15.868C59.2564 15.8788 59.2428 15.8857 59.2283 15.8875C59.2138 15.8893 59.1994 15.8858 59.1878 15.8778C57.5315 14.6847 56.2476 14.8276 55.3362 16.3065Z"
    fill="#1B1F1C" />
  <path
    d="M88.6667 17.1224C88.75 18.145 88.4049 19.1595 87.7076 19.9427C87.0102 20.7259 86.0176 21.2137 84.9481 21.2988C83.8787 21.3838 82.8199 21.0591 82.0048 20.3962C81.1897 19.7332 80.685 18.7863 80.6017 17.7637C80.5185 16.7411 80.8635 15.7266 81.5609 14.9433C82.2582 14.1601 83.2508 13.6723 84.3203 13.5873C85.3898 13.5023 86.4486 13.8269 87.2637 14.4899C88.0788 15.1528 88.5835 16.0998 88.6667 17.1224ZM84.8083 19.8047C85.1088 19.7834 85.4019 19.7014 85.6709 19.5634C85.9399 19.4253 86.1796 19.234 86.3762 19.0002C86.5728 18.7665 86.7225 18.4949 86.8167 18.201C86.911 17.9072 86.948 17.5967 86.9255 17.2874C86.8802 16.6628 86.5957 16.0808 86.1346 15.6696C85.6735 15.2583 85.0735 15.0514 84.4667 15.0944C84.1662 15.1157 83.8731 15.1977 83.6041 15.3357C83.3351 15.4737 83.0954 15.6651 82.8988 15.8988C82.7023 16.1325 82.5525 16.4041 82.4583 16.698C82.364 16.9919 82.3271 17.3023 82.3495 17.6116C82.3948 18.2362 82.6793 18.8182 83.1404 19.2295C83.6016 19.6408 84.2015 19.8477 84.8083 19.8047Z"
    fill="#1B1F1C" />
  <path
    d="M41.116 19.5867L40.4818 21.1002C40.4721 21.1224 40.4561 21.1414 40.4356 21.1546C40.4152 21.1679 40.3912 21.175 40.3668 21.1749L38.9175 21.1847C38.8968 21.1847 38.8764 21.1797 38.8581 21.17C38.8399 21.1603 38.8244 21.1463 38.813 21.1292C38.8016 21.1122 38.7946 21.0926 38.7928 21.0722C38.791 21.0518 38.7943 21.0313 38.8024 21.0125L41.9574 13.7373C41.967 13.7151 41.9831 13.6962 42.0035 13.6829C42.024 13.6696 42.0479 13.6625 42.0724 13.6626L43.4428 13.6658C43.4673 13.6658 43.4912 13.6728 43.5117 13.6861C43.5321 13.6994 43.5482 13.7183 43.5578 13.7405L46.6996 21.0223C46.7071 21.0409 46.7098 21.0611 46.7077 21.081C46.7055 21.1009 46.6984 21.12 46.6871 21.1366C46.6758 21.1533 46.6605 21.1669 46.6427 21.1764C46.6248 21.1859 46.6049 21.191 46.5846 21.1911L45.132 21.1782C45.1075 21.1782 45.0836 21.1712 45.0631 21.1579C45.0427 21.1446 45.0266 21.1257 45.017 21.1035L44.386 19.59C44.3763 19.5677 44.3603 19.5488 44.3398 19.5355C44.3194 19.5222 44.2954 19.5152 44.271 19.5153L41.2311 19.512C41.2066 19.5119 41.1827 19.519 41.1622 19.5323C41.1418 19.5456 41.1257 19.5645 41.116 19.5867ZM41.8062 17.8783C41.7981 17.898 41.7951 17.9194 41.7973 17.9405C41.7995 17.9617 41.807 17.9819 41.819 17.9996C41.831 18.0172 41.8472 18.0316 41.8661 18.0417C41.8851 18.0517 41.9063 18.0569 41.9278 18.057H43.5513C43.5728 18.0569 43.5939 18.0517 43.6129 18.0417C43.6319 18.0316 43.6481 18.0172 43.6601 17.9996C43.6721 17.9819 43.6795 17.9617 43.6817 17.9405C43.684 17.9194 43.6809 17.898 43.6729 17.8783L42.8611 15.9036C42.8512 15.8798 42.8344 15.8594 42.8127 15.8451C42.7911 15.8307 42.7656 15.8231 42.7395 15.8231C42.7135 15.8231 42.688 15.8307 42.6663 15.8451C42.6447 15.8594 42.6278 15.8798 42.6179 15.9036L41.8062 17.8783Z"
    fill="#1B1F1C" />
  <path
    d="M94.5427 19.5152L91.4962 19.5119C91.4708 19.5115 91.4459 19.5187 91.4247 19.5326C91.4036 19.5466 91.3872 19.5665 91.3779 19.5899L90.7601 21.0969C90.7509 21.1197 90.7351 21.1393 90.7146 21.1532C90.6941 21.1671 90.6699 21.1746 90.645 21.1748L89.1826 21.1846C89.1619 21.1846 89.1415 21.1796 89.1233 21.1699C89.105 21.1602 89.0895 21.1462 89.0781 21.1292C89.0667 21.1121 89.0598 21.0925 89.0579 21.0721C89.0561 21.0517 89.0594 21.0312 89.0676 21.0124L92.2225 13.7405C92.2321 13.7183 92.2482 13.6993 92.2686 13.686C92.2891 13.6728 92.313 13.6657 92.3375 13.6658H93.7014C93.7258 13.6657 93.7498 13.6728 93.7702 13.686C93.7907 13.6993 93.8067 13.7183 93.8164 13.7405L96.968 21.0157C96.9762 21.0345 96.9795 21.055 96.9777 21.0754C96.9758 21.0957 96.9689 21.1154 96.9575 21.1324C96.9461 21.1495 96.9306 21.1635 96.9123 21.1732C96.8941 21.1828 96.8737 21.1879 96.853 21.1878L95.3906 21.1781C95.3657 21.1779 95.3415 21.1703 95.321 21.1565C95.3005 21.1426 95.2847 21.123 95.2755 21.1001L94.661 19.5931C94.6516 19.5698 94.6353 19.5498 94.6141 19.5359C94.593 19.522 94.5681 19.5147 94.5427 19.5152ZM92.0549 17.901C92.0479 17.9181 92.0453 17.9366 92.0473 17.955C92.0492 17.9733 92.0556 17.9909 92.066 18.0063C92.0763 18.0216 92.0903 18.0342 92.1067 18.0431C92.1231 18.0519 92.1414 18.0566 92.16 18.0569L93.8394 18.0601C93.858 18.0599 93.8764 18.0551 93.8928 18.0463C93.9091 18.0375 93.9231 18.0249 93.9335 18.0095C93.9438 17.9942 93.9502 17.9766 93.9522 17.9582C93.9541 17.9399 93.9515 17.9214 93.9445 17.9042L93.1098 15.8906C93.1013 15.8695 93.0865 15.8514 93.0675 15.8386C93.0485 15.8259 93.026 15.8191 93.003 15.8191C92.98 15.8191 92.9575 15.8259 92.9385 15.8386C92.9195 15.8514 92.9047 15.8695 92.8962 15.8906L92.0549 17.901Z"
    fill="#1B1F1C" />
  <path
    d="M101.638 18.6125C100.379 18.0116 98.4041 18.0376 97.9671 16.5079C97.7436 15.7305 97.8948 15.0442 98.4206 14.4487C99.607 13.1009 101.999 13.5718 103.288 14.4974C103.338 14.5342 103.345 14.5775 103.307 14.6274L102.529 15.7446C102.496 15.7923 102.456 15.7987 102.41 15.7641C101.809 15.3159 100.291 14.6566 99.699 15.3516C99.6282 15.4345 99.5799 15.5338 99.5586 15.6401C99.5373 15.7465 99.5437 15.8565 99.5772 15.9598C99.6107 16.063 99.6703 16.1562 99.7502 16.2305C99.8301 16.3047 99.9279 16.3577 100.034 16.3844C101.612 16.7839 103.869 17.1737 103.547 19.3303C103.385 20.4021 102.699 21.0311 101.49 21.2173C100.125 21.4251 98.8686 21.0928 97.7206 20.2202C97.6132 20.1379 97.6045 20.0459 97.6943 19.9441L98.4863 19.0412C98.5586 18.9589 98.6353 18.9535 98.7164 19.025C99.4098 19.6291 100.991 20.2819 101.789 19.4927C101.851 19.4307 101.898 19.355 101.924 19.2717C101.951 19.1885 101.957 19.1002 101.942 19.0142C101.928 18.9281 101.892 18.8468 101.839 18.7769C101.786 18.707 101.717 18.6507 101.638 18.6125Z"
    fill="#1B1F1C" />
  <path
    d="M129.063 18.2876L127.936 18.3104C127.754 18.3147 127.663 18.227 127.663 18.0473L127.653 17.2288C127.651 17.0036 127.766 16.891 127.998 16.891L130.673 16.8943C130.866 16.8943 130.962 16.9896 130.962 17.1801L130.966 19.9083C130.966 19.97 130.951 20.0309 130.924 20.0866C130.897 20.1423 130.857 20.1913 130.808 20.2298C128.754 21.8603 125.408 21.7271 124.153 19.2392C123.64 18.2216 123.589 17.1758 123.998 16.1018C125.017 13.4191 128.258 12.9351 130.499 14.4357C130.644 14.5331 130.66 14.6478 130.548 14.7799L129.825 15.6439C129.698 15.7933 129.558 15.8062 129.405 15.6828C128.218 14.7215 126.634 14.9521 125.845 16.1863C125.136 17.2938 125.477 18.9339 126.7 19.5543C127.438 19.9267 128.242 19.9159 129.112 19.5218C129.183 19.4907 129.243 19.4402 129.286 19.3763C129.328 19.3124 129.351 19.2378 129.352 19.1613L129.359 18.5799C129.361 18.3829 129.262 18.2855 129.063 18.2876Z"
    fill="#1B1F1C" />
  <path
    d="M36.8306 17.3877C37.593 17.6887 37.9907 18.2354 38.0235 19.0279C38.0827 20.3628 36.9324 21.113 35.6935 21.152C34.4205 21.191 33.1213 21.1986 31.7958 21.1747C31.6578 21.1726 31.5888 21.1022 31.5888 20.9636L31.5822 13.9515C31.5822 13.8021 31.6567 13.7252 31.8057 13.7209C33.0655 13.6884 34.322 13.6982 35.5752 13.7501C36.1503 13.7761 36.8634 14.0846 37.2019 14.5491C37.8745 15.4672 37.7387 16.3473 36.7944 17.1896C36.7794 17.2036 36.768 17.2211 36.7615 17.2404C36.755 17.2597 36.7534 17.2803 36.7571 17.3001C36.7607 17.3199 36.7693 17.3384 36.7822 17.3537C36.7951 17.369 36.8117 17.3807 36.8306 17.3877ZM33.2188 15.3968L33.2123 16.4751C33.2123 16.5405 33.2386 16.6033 33.2854 16.6496C33.3323 16.6959 33.3958 16.7219 33.462 16.7219L34.9442 16.7252C35.0759 16.7257 35.2064 16.7075 35.3282 16.6717C35.4501 16.6359 35.5609 16.5832 35.6543 16.5165C35.7477 16.4499 35.8218 16.3706 35.8726 16.2832C35.9233 16.1959 35.9495 16.1021 35.9498 16.0074V15.8775C35.9504 15.6864 35.8455 15.5027 35.6582 15.3669C35.4709 15.2311 35.2164 15.1543 34.9508 15.1532L33.4686 15.1499C33.4358 15.1499 33.4033 15.1563 33.373 15.1687C33.3427 15.1811 33.3152 15.1993 33.292 15.2222C33.2688 15.2452 33.2504 15.2724 33.2378 15.3023C33.2253 15.3323 33.2188 15.3644 33.2188 15.3968ZM33.2123 18.3101L33.2057 19.5118C33.2053 19.5415 33.2108 19.571 33.222 19.5986C33.2332 19.6262 33.2498 19.6512 33.2709 19.6724C33.292 19.6936 33.3172 19.7104 33.3449 19.7218C33.3726 19.7333 33.4024 19.7392 33.4324 19.7392L35.2465 19.7489C35.5434 19.7503 35.8286 19.6718 36.0393 19.5305C36.25 19.3892 36.3691 19.1968 36.3705 18.9954V18.8655C36.3711 18.7656 36.3427 18.6665 36.2869 18.5739C36.2311 18.4813 36.149 18.397 36.0452 18.3258C35.9414 18.2546 35.818 18.1979 35.6821 18.159C35.5462 18.1201 35.4004 18.0997 35.2531 18.099L33.439 18.0893C33.3794 18.0893 33.3223 18.1124 33.2798 18.1538C33.2374 18.1951 33.2131 18.2512 33.2123 18.3101Z"
    fill="#1B1F1C" />
  <path
    d="M46.4301 15.1079V13.8575C46.4301 13.8205 46.445 13.7849 46.4715 13.7588C46.498 13.7326 46.5339 13.7178 46.5714 13.7178L52.5658 13.7146C52.6032 13.7146 52.6392 13.7293 52.6657 13.7555C52.6922 13.7817 52.7071 13.8172 52.7071 13.8543V15.1079C52.7071 15.145 52.6922 15.1805 52.6657 15.2067C52.6392 15.2329 52.6032 15.2476 52.5658 15.2476L50.5413 15.2281C50.5039 15.2281 50.4679 15.2428 50.4414 15.269C50.4149 15.2952 50.4 15.3307 50.4 15.3678V21.0418C50.4 21.0788 50.3851 21.1143 50.3586 21.1405C50.3321 21.1667 50.2962 21.1814 50.2587 21.1814H48.8817C48.8632 21.1814 48.8448 21.1778 48.8276 21.1708C48.8105 21.1638 48.7949 21.1535 48.7818 21.1405C48.7687 21.1276 48.7583 21.1122 48.7512 21.0952C48.7441 21.0783 48.7404 21.0601 48.7404 21.0418L48.7371 15.3678C48.7371 15.3307 48.7222 15.2952 48.6957 15.269C48.6692 15.2428 48.6333 15.2281 48.5958 15.2281L46.5714 15.2476C46.5339 15.2476 46.498 15.2329 46.4715 15.2067C46.445 15.1805 46.4301 15.145 46.4301 15.1079Z"
    fill="#1B1F1C" />
  <path
    d="M63.3089 18.3557L63.3352 21.0059C63.3352 21.049 63.3179 21.0903 63.2871 21.1208C63.2563 21.1512 63.2145 21.1683 63.1709 21.1683L61.8136 21.1781C61.77 21.1781 61.7282 21.161 61.6974 21.1305C61.6666 21.1001 61.6493 21.0588 61.6493 21.0157V13.8606C61.6493 13.8176 61.6666 13.7763 61.6974 13.7458C61.7282 13.7154 61.77 13.6982 61.8136 13.6982L63.1709 13.708C63.2145 13.708 63.2563 13.7251 63.2871 13.7555C63.3179 13.786 63.3352 13.8273 63.3352 13.8704L63.3089 16.5206C63.3089 16.5637 63.3262 16.605 63.357 16.6355C63.3879 16.6659 63.4297 16.683 63.4732 16.683H66.2437C66.2872 16.683 66.329 16.6659 66.3598 16.6355C66.3907 16.605 66.408 16.5637 66.408 16.5206L66.3817 13.8704C66.3817 13.8273 66.399 13.786 66.4298 13.7555C66.4606 13.7251 66.5024 13.708 66.546 13.708L67.9033 13.6982C67.9468 13.6982 67.9886 13.7154 68.0195 13.7458C68.0503 13.7763 68.0676 13.8176 68.0676 13.8606L68.0643 21.0157C68.0643 21.0588 68.047 21.1001 68.0162 21.1305C67.9854 21.161 67.9436 21.1781 67.9 21.1781L66.546 21.1683C66.5024 21.1683 66.4606 21.1512 66.4298 21.1208C66.399 21.0903 66.3817 21.049 66.3817 21.0059L66.408 18.3557C66.408 18.3126 66.3907 18.2713 66.3598 18.2409C66.329 18.2104 66.2872 18.1933 66.2437 18.1933H63.4732C63.4297 18.1933 63.3879 18.2104 63.357 18.2409C63.3262 18.2713 63.3089 18.3126 63.3089 18.3557Z"
    fill="#1B1F1C" />
  <path
    d="M77.9826 18.4567C77.9618 18.4659 77.9434 18.4796 77.9286 18.4968C77.9138 18.5139 77.9031 18.5341 77.8971 18.5558C77.8911 18.5775 77.8901 18.6003 77.8941 18.6224C77.8981 18.6446 77.907 18.6656 77.9201 18.684L79.5009 20.9185C79.6323 21.1048 79.583 21.1968 79.353 21.1946L78.0549 21.1849C77.9517 21.1839 77.8504 21.1582 77.76 21.1101C77.6695 21.062 77.5925 20.9929 77.5356 20.9088L76.2079 18.9438C76.1782 18.9004 76.1389 18.8646 76.0932 18.8392C76.0475 18.8138 75.9968 18.7996 75.945 18.7977L75.0216 18.7717C74.8638 18.7652 74.7849 18.841 74.7849 18.9991L74.7915 20.9673C74.7937 21.1015 74.7269 21.1697 74.591 21.1719L73.3652 21.1979C73.1965 21.2022 73.1122 21.121 73.1122 20.9543L73.1089 13.8999C73.1089 13.7657 73.1768 13.7007 73.3126 13.705C74.3424 13.7289 75.3601 13.7299 76.3657 13.7083C77.1917 13.6888 77.8643 13.8414 78.3835 14.1662C79.9906 15.1666 79.7605 17.6382 77.9826 18.4567ZM74.7817 15.3614V17.1867C74.7817 17.2298 74.799 17.2711 74.8298 17.3016C74.8606 17.332 74.9024 17.3491 74.946 17.3491H76.6023C76.9091 17.3491 77.2033 17.2414 77.4203 17.0495C77.6372 16.8576 77.7591 16.5974 77.7591 16.3261V16.2221C77.7591 15.9508 77.6372 15.6906 77.4203 15.4987C77.2033 15.3068 76.9091 15.1991 76.6023 15.1991H74.946C74.9024 15.1991 74.8606 15.2162 74.8298 15.2466C74.799 15.2771 74.7817 15.3184 74.7817 15.3614Z"
    fill="#1B1F1C" />
  <path
    d="M106.499 15.2249L104.454 15.2541C104.421 15.2541 104.39 15.2411 104.366 15.2179C104.343 15.1948 104.33 15.1634 104.33 15.1307L104.313 13.8413C104.313 13.8251 104.316 13.809 104.323 13.794C104.329 13.7791 104.338 13.7655 104.35 13.754C104.361 13.7425 104.375 13.7334 104.39 13.7272C104.405 13.721 104.422 13.7178 104.438 13.7178L110.485 13.7146C110.518 13.7146 110.55 13.7276 110.573 13.7507C110.597 13.7739 110.61 13.8053 110.61 13.838L110.597 15.1274C110.597 15.1436 110.593 15.1597 110.587 15.1747C110.581 15.1896 110.572 15.2032 110.56 15.2147C110.548 15.2262 110.535 15.2352 110.52 15.2414C110.504 15.2476 110.488 15.2508 110.472 15.2508L108.424 15.2249C108.391 15.2249 108.359 15.2379 108.336 15.261C108.313 15.2842 108.299 15.3155 108.299 15.3483L108.303 21.0613C108.303 21.0775 108.3 21.0935 108.293 21.1085C108.287 21.1235 108.278 21.1371 108.266 21.1485C108.255 21.16 108.241 21.1691 108.226 21.1753C108.211 21.1815 108.194 21.1847 108.178 21.1847L106.755 21.1814C106.722 21.1814 106.69 21.1684 106.667 21.1453C106.643 21.1221 106.63 21.0908 106.63 21.058L106.623 15.3483C106.623 15.3155 106.61 15.2842 106.587 15.261C106.563 15.2379 106.532 15.2249 106.499 15.2249Z"
    fill="#1B1F1C" />
  <path
    d="M113.508 13.7241H112.082C112.013 13.7241 111.957 13.7794 111.957 13.8475V21.0643C111.957 21.1325 112.013 21.1877 112.082 21.1877H113.508C113.577 21.1877 113.633 21.1325 113.633 21.0643V13.8475C113.633 13.7794 113.577 13.7241 113.508 13.7241Z"
    fill="#1B1F1C" />
  <path
    d="M120.643 18.0114L120.62 13.8703C120.62 13.8475 120.624 13.8247 120.632 13.8035C120.641 13.7822 120.654 13.7628 120.67 13.7465C120.686 13.7302 120.705 13.7172 120.727 13.7084C120.748 13.6995 120.771 13.6949 120.794 13.6949L122.079 13.6917C122.208 13.6917 122.273 13.7556 122.273 13.8833L122.267 20.8987C122.267 21.007 122.216 21.0784 122.115 21.1131C121.37 21.3686 120.773 21.1954 120.324 20.5934C119.306 19.225 118.324 17.9464 117.38 16.7577C117.235 16.5758 117.164 16.6007 117.166 16.8324L117.189 21.0059C117.189 21.112 117.135 21.165 117.028 21.165L115.717 21.1683C115.669 21.1683 115.623 21.1495 115.589 21.116C115.555 21.0825 115.536 21.037 115.536 20.9897L115.539 13.8996C115.539 13.7588 115.612 13.6895 115.756 13.6917L116.857 13.7047C116.971 13.7069 117.063 13.7523 117.133 13.8411L120.406 18.0926C120.566 18.3004 120.645 18.2734 120.643 18.0114Z"
    fill="#1B1F1C" />
</svg>