<svg width="100" height="32" viewBox="0 0 100 32" fill="none" xmlns="http://www.w3.org/2000/svg">
<mask id="mask0_3913_1180" style="mask-type:luminance" maskUnits="userSpaceOnUse" x="0" y="0" width="100" height="32">
<path d="M100 0H0V31.5H100V0Z" fill="white"/>
</mask>
<g mask="url(#mask0_3913_1180)">
<path d="M4.93915 17.4988C3.36755 15.9213 1.83095 14.3751 0.329346 12.86C0.174546 12.7042 0.00454629 12.4436 0.0905463 12.2202C0.158846 12.0419 0.281946 11.8886 0.419146 11.7514C4.29085 7.87986 8.09415 4.07316 11.8288 0.330999C11.8558 0.303889 11.9087 0.266989 11.9875 0.220279C12.2843 0.0448992 12.5568 0.193829 12.7736 0.411829C14.6665 2.31326 16.5602 4.21386 18.4547 6.11366C18.7355 6.39536 18.8214 6.77066 18.5133 7.08166C18.1015 7.49746 17.6956 7.90586 17.2956 8.30696C17.2404 8.36226 17.195 8.42446 17.1452 8.48376C17.1328 8.49876 17.1172 8.50366 17.0983 8.49846C17.0265 8.47986 16.963 8.44066 16.8918 8.41466C16.341 8.21646 15.7679 8.05966 15.1725 7.94436C14.1712 7.75036 13.1584 7.75036 12.1339 7.94436C11.2804 8.10636 10.4988 8.36486 9.78925 8.71986C9.45525 8.88676 9.16365 9.04906 8.91425 9.20686C8.53955 9.44326 8.15925 9.74666 7.77315 10.1171C7.40405 10.4715 7.11105 10.7803 6.89425 11.0435C6.16835 11.9253 5.64425 12.8953 5.32195 13.9534C5.21995 14.2895 5.12035 14.6589 5.06805 14.9974C5.02415 15.285 4.96745 15.5686 4.94695 15.8694C4.90795 16.4501 4.91685 16.9875 4.97385 17.4816C4.97835 17.5212 4.96685 17.5269 4.93915 17.4988Z" fill="#10884B"/>
<path d="M34.771 10.468C34.7651 10.5728 34.7868 10.5788 34.836 10.4861C35.0306 10.1167 35.3599 9.92828 35.8237 9.92078C36.7857 9.90558 37.1021 10.635 37.1026 11.4752C37.1026 12.4203 37.1026 13.3382 37.1026 14.2289C37.1024 14.2342 37.1003 14.2393 37.0965 14.2431C37.0928 14.2468 37.0878 14.2489 37.0825 14.2489L36.1699 14.2485C36.1605 14.2485 36.1514 14.2447 36.1447 14.238C36.138 14.2313 36.1343 14.2222 36.1343 14.2127C36.1356 13.3433 36.1354 12.492 36.1338 11.6589C36.1328 11.2866 36.0122 10.8398 35.5532 10.8452C35.2095 10.8494 34.9891 11.039 34.8921 11.4139C34.8413 11.6102 34.8148 11.7956 34.8125 11.97C34.8034 12.6917 34.8021 13.437 34.8086 14.2058C34.8087 14.2113 34.8076 14.2168 34.8056 14.2219C34.8035 14.227 34.8005 14.2317 34.7966 14.2356C34.7928 14.2395 34.7882 14.2426 34.7831 14.2447C34.778 14.2469 34.7726 14.248 34.7671 14.248L33.8511 14.2465C33.8475 14.2465 33.844 14.245 33.8414 14.2425C33.8389 14.2399 33.8374 14.2364 33.8374 14.2328L33.8369 8.34818C33.8369 8.33608 33.843 8.33008 33.855 8.33008L34.7691 8.33348C34.7776 8.33348 34.7859 8.33688 34.792 8.34288C34.7981 8.34898 34.8016 8.35718 34.8018 8.36578C34.8167 9.11638 34.8065 9.81708 34.771 10.468Z" fill="#10884B"/>
<path d="M57.6481 10.4965C57.6875 10.5592 57.7026 10.5538 57.6935 10.4803C57.6642 10.2505 57.633 10.0173 57.632 9.78806C57.6297 9.31086 57.6287 8.83406 57.629 8.35756C57.629 8.35056 57.6318 8.34386 57.6368 8.33886C57.6417 8.33386 57.6484 8.33105 57.6554 8.33105L58.568 8.33206C58.5885 8.33206 58.5988 8.34236 58.5988 8.36296V14.2187C58.5988 14.2263 58.5957 14.2337 58.5903 14.2391C58.5849 14.2445 58.5776 14.2476 58.57 14.2476L57.8976 14.2466C57.8703 14.2466 57.8524 14.2337 57.8439 14.2079L57.6818 13.7234C57.6795 13.7167 57.6753 13.7109 57.6698 13.7066C57.6642 13.7023 57.6576 13.6997 57.6506 13.6991C57.6436 13.6985 57.6366 13.7 57.6304 13.7034C57.6243 13.7067 57.6192 13.7118 57.6159 13.718C57.4064 14.103 57.0695 14.324 56.6242 14.3201C55.8234 14.3122 55.4396 13.5465 55.3405 12.8244C55.2786 12.3757 55.2772 11.9193 55.3361 11.4552C55.4323 10.6973 55.8424 9.86546 56.7418 9.91836C57.1398 9.94136 57.4342 10.157 57.6481 10.4965ZM57.7008 12.068C57.6915 11.6555 57.6388 10.9379 57.0919 10.8712C56.5744 10.808 56.3707 11.1877 56.3107 11.6306C56.2409 12.1498 56.1823 13.4324 57.0231 13.3956C57.6603 13.3677 57.712 12.5702 57.7008 12.068Z" fill="#10884B"/>
<path d="M81.1631 8.33594L81.0391 8.33614C80.7851 8.33654 80.5791 8.54374 80.5791 8.79894L80.5801 9.00274C80.5801 9.25784 80.7871 9.46434 81.0411 9.46384L81.1651 9.46364C81.4191 9.46324 81.6251 9.25604 81.6251 9.00084L81.6241 8.79704C81.6241 8.54194 81.4171 8.33544 81.1631 8.33594Z" fill="#10884B"/>
<path d="M90.3212 8.33497L90.1992 8.33587C89.9442 8.33767 89.7402 8.54587 89.7412 8.80107L89.7432 9.00577C89.7452 9.26097 89.9522 9.46627 90.2072 9.46457L90.3292 9.46367C90.5832 9.46187 90.7882 9.25367 90.7862 8.99847L90.7842 8.79377C90.7832 8.53857 90.5752 8.33327 90.3212 8.33497Z" fill="#10884B"/>
<path d="M46.0122 9.59666C44.8291 9.68046 44.8633 11.5916 45.0351 12.3685C45.1538 12.9045 45.4707 13.3258 46.0669 13.3356C46.4814 13.3419 46.8725 13.2214 47.2519 13.0563C47.2553 13.0549 47.259 13.0543 47.2627 13.0546C47.2664 13.055 47.2699 13.0562 47.273 13.0582C47.2761 13.0603 47.2787 13.063 47.2804 13.0663C47.2822 13.0696 47.2831 13.0732 47.2832 13.0769L47.2841 13.9866C47.2841 14.0226 47.2679 14.0479 47.2353 14.0626C46.6969 14.3062 46.139 14.3782 45.5615 14.2786C44.7998 14.1473 44.2959 13.533 44.105 12.806C43.8261 11.7449 43.8383 10.4354 44.4331 9.50166C45.1137 8.43366 46.4145 8.41116 47.4277 8.98526C47.4357 8.98986 47.4418 8.99696 47.4451 9.00556C47.4484 9.01416 47.4487 9.02356 47.4458 9.03236L47.1513 9.92976C47.1502 9.93346 47.1482 9.93686 47.1456 9.93966C47.143 9.94246 47.1398 9.94456 47.1362 9.94596C47.1326 9.94736 47.1287 9.94796 47.1248 9.94776C47.1209 9.94746 47.1172 9.94636 47.1137 9.94446C46.7719 9.75446 46.4126 9.56776 46.0122 9.59666Z" fill="#10884B"/>
<path d="M64.1567 12.9227L62.5087 12.9237C62.5037 12.9237 62.4988 12.9253 62.4948 12.9285C62.4908 12.9316 62.488 12.9359 62.4868 12.9409L62.1611 14.2298C62.1599 14.2347 62.157 14.239 62.1531 14.2422C62.1491 14.2453 62.1442 14.2469 62.1391 14.2469L61.1284 14.2489C61.1248 14.2489 61.1213 14.2482 61.1182 14.2466C61.115 14.2451 61.1122 14.2428 61.1101 14.24C61.1079 14.2372 61.1065 14.2339 61.1058 14.2304C61.1052 14.2269 61.1054 14.2234 61.1064 14.22L62.726 8.68076C62.7274 8.67606 62.7302 8.67196 62.7341 8.66906C62.738 8.66616 62.7427 8.66456 62.7475 8.66456L63.914 8.66406C63.9188 8.66406 63.9235 8.66566 63.9274 8.66856C63.9313 8.67146 63.9341 8.67556 63.9355 8.68026L65.5605 14.218C65.5615 14.2214 65.5617 14.225 65.561 14.2285C65.5604 14.2319 65.5589 14.2352 65.5568 14.238C65.5547 14.2409 65.5519 14.2431 65.5487 14.2447C65.5455 14.2462 65.542 14.247 65.5385 14.2469L64.5278 14.2459C64.5227 14.246 64.5178 14.2443 64.5138 14.2412C64.5098 14.2381 64.507 14.2337 64.5058 14.2288L64.1787 12.9399C64.1774 12.935 64.1746 12.9306 64.1706 12.9275C64.1666 12.9244 64.1617 12.9227 64.1567 12.9227ZM63.9316 11.9091L63.3388 9.58706C63.3365 9.57756 63.3343 9.57756 63.332 9.58706L62.7495 11.9082C62.7449 11.9261 62.7519 11.9351 62.7705 11.9351L63.9135 11.9327C63.9163 11.9327 63.9191 11.932 63.9216 11.9308C63.9242 11.9296 63.9264 11.9277 63.9281 11.9255C63.9299 11.9232 63.9311 11.9206 63.9317 11.9177C63.9323 11.9149 63.9322 11.912 63.9316 11.9091Z" fill="#10884B"/>
<path d="M31.7915 9.69421V14.2203C31.7915 14.2266 31.789 14.2327 31.7845 14.2373C31.78 14.2418 31.7739 14.2443 31.7676 14.2443H30.8306C30.8242 14.2443 30.8181 14.2418 30.8136 14.2373C30.8092 14.2327 30.8066 14.2266 30.8066 14.2203L30.8057 9.69421C30.8057 9.68781 30.8031 9.68171 30.7987 9.67721C30.7942 9.67271 30.7881 9.67021 30.7817 9.67021L29.5767 9.67071C29.5735 9.67071 29.5704 9.67001 29.5675 9.66881C29.5646 9.66761 29.562 9.66591 29.5597 9.66361C29.5575 9.66141 29.5558 9.65881 29.5546 9.65581C29.5534 9.65291 29.5527 9.64981 29.5527 9.64671L29.5537 8.71151C29.5537 8.70511 29.5562 8.69901 29.5607 8.69451C29.5652 8.69001 29.5713 8.68741 29.5776 8.68741L33.0195 8.68701C33.0259 8.68701 33.032 8.68951 33.0365 8.69401C33.0409 8.69851 33.0435 8.70461 33.0435 8.71101L33.0444 9.64671C33.0444 9.64981 33.0438 9.65291 33.0426 9.65581C33.0414 9.65881 33.0396 9.66141 33.0374 9.66361C33.0352 9.66591 33.0326 9.66761 33.0297 9.66881C33.0268 9.67001 33.0237 9.67071 33.0205 9.67071L31.8154 9.67021C31.8091 9.67021 31.803 9.67271 31.7985 9.67721C31.794 9.68171 31.7915 9.68781 31.7915 9.69421Z" fill="#10884B"/>
<path d="M15.9965 9.13989C16.1142 9.19129 16.204 9.20649 16.3139 9.22909C16.3181 9.22989 16.322 9.23179 16.3252 9.23459C16.3284 9.23739 16.3309 9.241 16.3324 9.245C16.3339 9.249 16.3344 9.25329 16.3338 9.25749C16.3332 9.26179 16.3316 9.26579 16.329 9.26919C16.2543 9.37159 16.1567 9.45389 16.0663 9.54499C13.0774 12.5399 10.0714 15.5578 7.04826 18.5987C6.97926 18.6683 6.89276 18.7311 6.78896 18.7873C6.55116 18.9166 6.21616 18.8628 6.14636 18.559C6.03736 18.0829 5.96486 17.6842 5.92906 17.3632C5.88936 17.0026 5.88206 16.5784 5.90716 16.0905C5.92276 15.789 5.96326 15.4686 6.02866 15.1293C6.35646 13.4281 7.16166 11.9835 8.44426 10.7957C8.68116 10.5759 8.93736 10.3729 9.21276 10.1868C9.70236 9.85559 10.1873 9.58499 10.6674 9.37499C11.1892 9.14639 11.7257 8.9879 12.2768 8.8994C12.5585 8.8543 12.8549 8.79989 13.1445 8.78619C13.4876 8.76989 13.832 8.77049 14.1777 8.78809C14.3141 8.79499 14.4459 8.8094 14.5732 8.8313C14.7597 8.8631 14.9462 8.87439 15.1352 8.91599C15.3875 8.97189 15.6257 9.02929 15.85 9.08849C15.8992 9.10149 15.948 9.11869 15.9965 9.13989Z" fill="#10884B"/>
<path d="M87.9285 10.8672C87.9245 10.8672 87.9205 10.8688 87.9175 10.8719C87.9145 10.8749 87.9125 10.879 87.9125 10.8833C87.9095 11.6273 87.9095 12.3239 87.9135 12.9732C87.9155 13.2515 88.1175 13.4151 88.3935 13.3925C88.5655 13.3785 88.7345 13.3385 88.9015 13.2725C88.9055 13.2709 88.9095 13.2704 88.9145 13.2709C88.9185 13.2714 88.9225 13.273 88.9265 13.2755C88.9305 13.278 88.9335 13.2814 88.9355 13.2853C88.9375 13.2892 88.9385 13.2936 88.9385 13.298V14.0985C88.9385 14.1184 88.9295 14.1326 88.9115 14.1411C88.6865 14.2502 88.4255 14.3095 88.1285 14.3189C87.1925 14.3493 86.9445 13.7154 86.9445 12.9272C86.9455 12.2504 86.9455 11.571 86.9445 10.8887C86.9445 10.8833 86.9425 10.878 86.9385 10.8742C86.9355 10.8703 86.9305 10.8681 86.9245 10.8681H86.4995C86.4965 10.8681 86.4945 10.8677 86.4925 10.8668C86.4905 10.8659 86.4885 10.8646 86.4865 10.863C86.4845 10.8613 86.4835 10.8594 86.4825 10.8573C86.4815 10.8551 86.4815 10.8528 86.4815 10.8505L86.4805 10.4179C86.4805 10.4049 86.4835 10.392 86.4895 10.3803C86.4955 10.3686 86.5045 10.3585 86.5145 10.3508L86.9575 10.0285C86.9935 10.002 87.0205 9.96464 87.0345 9.92174L87.2845 9.11334C87.2895 9.09774 87.2995 9.08984 87.3155 9.08984H87.8895C87.8955 9.08984 87.9005 9.09204 87.9045 9.09594C87.9085 9.09974 87.9105 9.10505 87.9105 9.11045L87.9125 9.96234C87.9125 9.97094 87.9155 9.97914 87.9215 9.98524C87.9275 9.99134 87.9365 9.99474 87.9445 9.99474L88.8715 9.99224C88.8785 9.99224 88.8865 9.99524 88.8915 10.0006C88.8975 10.0061 88.9005 10.0134 88.9005 10.0211V10.8485C88.9005 10.854 88.8985 10.8592 88.8945 10.8631C88.8905 10.8669 88.8855 10.8691 88.8795 10.8691L87.9285 10.8672Z" fill="#10884B"/>
<path d="M50.3719 13.6812C50.0741 14.1094 49.7645 14.3416 49.1918 14.3195C48.6374 14.2986 48.2946 14.0101 48.1634 13.4539C48.0648 13.0365 48.0834 12.4697 48.37 12.117C48.7875 11.6031 49.6771 11.6002 50.2753 11.6051C50.2838 11.6051 50.2919 11.6017 50.2981 11.5958C50.3042 11.5898 50.3077 11.5817 50.308 11.5732C50.3109 11.3934 50.3094 11.1671 50.2167 11.0045C49.9491 10.5371 49.1517 10.8761 48.8041 11.0525C48.7984 11.0554 48.7922 11.0571 48.7859 11.0575C48.7795 11.0579 48.7731 11.0569 48.7672 11.0547C48.7612 11.0525 48.7558 11.0491 48.7512 11.0446C48.7466 11.0402 48.743 11.0349 48.7406 11.0289L48.453 10.322C48.4497 10.3137 48.4495 10.3044 48.4524 10.296C48.4552 10.2876 48.461 10.2805 48.4686 10.276C48.7909 10.082 49.1416 9.9641 49.5209 9.9223C50.1219 9.8561 50.8519 9.9943 51.1136 10.6101C51.2126 10.8429 51.2626 11.068 51.2635 11.2852C51.2671 12.2581 51.2684 13.2339 51.2674 14.2127C51.2674 14.2359 51.2557 14.2475 51.2323 14.2475L50.6244 14.2466C50.6147 14.2465 50.6054 14.2435 50.5976 14.2378C50.5899 14.2322 50.5842 14.2243 50.5814 14.2152L50.411 13.6866C50.4019 13.6585 50.3889 13.6567 50.3719 13.6812ZM49.6971 12.3071C49.2938 12.357 49.0604 12.6907 49.1097 13.0943C49.1371 13.321 49.2722 13.4431 49.515 13.4608C49.8571 13.4859 50.0912 13.3507 50.2171 13.0551C50.3104 12.8366 50.3041 12.5574 50.3182 12.3198C50.3184 12.3166 50.318 12.3134 50.3169 12.3103C50.3159 12.3073 50.3143 12.3045 50.3121 12.302C50.31 12.2996 50.3074 12.2977 50.3045 12.2963C50.3016 12.2949 50.2985 12.294 50.2953 12.2938C50.0817 12.2795 49.8824 12.2839 49.6971 12.3071Z" fill="#10884B"/>
<path d="M84.7948 13.6848C84.6118 13.9533 84.3998 14.1835 84.0858 14.2658C83.8658 14.3233 83.6538 14.3362 83.4488 14.3045C82.7278 14.1928 82.5188 13.533 82.5428 12.8789C82.5878 11.64 83.7818 11.6003 84.7038 11.6042C84.7118 11.6043 84.7188 11.6014 84.7238 11.5963C84.7298 11.5912 84.7328 11.5842 84.7328 11.5768C84.7558 11.1898 84.6878 10.7954 84.2288 10.7744C83.8798 10.7582 83.5408 10.889 83.2328 11.0551C83.2268 11.058 83.2208 11.0598 83.2148 11.0603C83.2088 11.0607 83.2018 11.0598 83.1958 11.0577C83.1908 11.0556 83.1848 11.0523 83.1808 11.0479C83.1758 11.0436 83.1728 11.0383 83.1698 11.0325L82.8788 10.3173C82.8758 10.3098 82.8758 10.3015 82.8788 10.2939C82.8808 10.2862 82.8868 10.2798 82.8938 10.2757C83.3848 9.98556 83.9108 9.86706 84.4698 9.91996C85.3318 10.0018 85.6978 10.5946 85.6968 11.4147C85.6968 12.3504 85.6958 13.2811 85.6958 14.207C85.6958 14.2177 85.6918 14.2279 85.6838 14.2354C85.6768 14.243 85.6658 14.2472 85.6558 14.2472H85.0598C85.0478 14.2472 85.0368 14.2434 85.0268 14.2364C85.0178 14.2294 85.0108 14.2194 85.0068 14.208L84.8398 13.6917C84.8298 13.659 84.8148 13.6567 84.7948 13.6848ZM83.9948 12.344C83.6358 12.4297 83.4948 12.7589 83.5408 13.1043C83.5988 13.5246 84.0738 13.5374 84.3628 13.3742C84.7528 13.1533 84.7508 12.6943 84.7338 12.293C84.7338 12.2865 84.7298 12.2832 84.7238 12.2832C84.4348 12.2767 84.1918 12.297 83.9948 12.344Z" fill="#10884B"/>
<path d="M39.0137 12.4311C39.0273 12.8544 39.1973 13.2977 39.6226 13.4173C40.0742 13.5437 40.6616 13.3663 41.0601 13.1351C41.0632 13.1333 41.0668 13.1324 41.0705 13.1324C41.0741 13.1324 41.0777 13.1334 41.0808 13.1352C41.084 13.1371 41.0866 13.1397 41.0884 13.1428C41.0903 13.146 41.0913 13.1496 41.0913 13.1532L41.0928 13.9968C41.0931 14.0128 41.0864 14.0246 41.0727 14.0321C40.8533 14.1565 40.6333 14.2375 40.4126 14.2751C39.7143 14.3946 38.9404 14.3089 38.4756 13.7073C37.9995 13.091 37.9619 12.1837 38.0918 11.4313C38.1958 10.8311 38.5039 10.2732 39.0762 10.0346C39.4429 9.88224 39.9077 9.87544 40.2803 10.0111C41.2803 10.375 41.3218 11.5091 41.2871 12.3944C41.287 12.3987 41.2851 12.4028 41.2819 12.4058C41.2787 12.4089 41.2745 12.4106 41.27 12.4105L39.0327 12.411C39.0194 12.411 39.013 12.4177 39.0137 12.4311ZM39.0654 11.636H40.3613C40.3669 11.636 40.3722 11.6338 40.3762 11.6299C40.3801 11.6259 40.3823 11.6205 40.3823 11.615V11.5665C40.3823 11.4584 40.3661 11.3514 40.3346 11.2515C40.3031 11.1517 40.2569 11.0609 40.1987 10.9845C40.1405 10.9081 40.0714 10.8475 39.9953 10.8061C39.9192 10.7647 39.8377 10.7434 39.7554 10.7434H39.6714C39.589 10.7434 39.5075 10.7647 39.4315 10.8061C39.3554 10.8475 39.2863 10.9081 39.2281 10.9845C39.1698 11.0609 39.1237 11.1517 39.0922 11.2515C39.0606 11.3514 39.0444 11.4584 39.0444 11.5665V11.615C39.0444 11.6205 39.0466 11.6259 39.0506 11.6299C39.0545 11.6338 39.0599 11.636 39.0654 11.636Z" fill="#10884B"/>
<path d="M53.3052 10.7069C53.3136 10.7069 53.3211 10.7046 53.3276 10.7C53.3379 10.6932 53.3463 10.684 53.3521 10.6731C53.6294 10.1293 54.0645 9.82306 54.6821 9.94356C54.7017 9.94746 54.7108 9.95946 54.7095 9.97936L54.6421 11.0101C54.6418 11.0135 54.6408 11.0168 54.6392 11.0198C54.6375 11.0227 54.6353 11.0253 54.6325 11.0273C54.6298 11.0293 54.6267 11.0307 54.6233 11.0314C54.62 11.032 54.6166 11.032 54.6133 11.0312C53.9214 10.8734 53.3848 11.2991 53.3809 12.0085C53.377 12.713 53.3763 13.4486 53.3789 14.2155C53.379 14.2196 53.3782 14.2238 53.3767 14.2276C53.3751 14.2315 53.3728 14.235 53.3699 14.238C53.367 14.2409 53.3636 14.2433 53.3597 14.2449C53.3559 14.2465 53.3518 14.2473 53.3477 14.2473L52.4282 14.2468C52.4238 14.2468 52.4196 14.2451 52.4165 14.2419C52.4134 14.2388 52.4116 14.2346 52.4116 14.2302L52.4111 10.021C52.4111 10.0021 52.4204 9.99256 52.439 9.99256L53.0981 9.99056C53.1114 9.99056 53.1242 9.99516 53.1344 10.0036C53.1447 10.012 53.1517 10.0237 53.1543 10.0367L53.2827 10.6882C53.2836 10.6935 53.2864 10.6982 53.2905 10.7016C53.2946 10.705 53.2998 10.7068 53.3052 10.7069Z" fill="#10884B"/>
<path d="M67.1673 10.8091C66.9519 10.8699 66.9309 11.1036 67.0623 11.2628C67.1189 11.331 67.2234 11.4037 67.3757 11.4808C67.6222 11.6052 67.8596 11.7337 68.0882 11.8663C68.4075 12.0515 68.6306 12.3332 68.6819 12.7084C68.7444 13.1621 68.6687 13.6598 68.3225 13.9733C67.7776 14.4676 66.6741 14.3804 66.0716 14.0978C66.0577 14.0913 66.046 14.0811 66.0378 14.0682C66.0296 14.0554 66.0252 14.0405 66.0252 14.0253L66.0242 13.1542C66.0242 13.1497 66.0253 13.1453 66.0275 13.1414C66.0297 13.1375 66.0329 13.1342 66.0367 13.1319C66.0406 13.1295 66.0449 13.1283 66.0494 13.1281C66.0539 13.128 66.0583 13.1291 66.0623 13.1312C66.4044 13.3092 66.7403 13.4189 67.0701 13.4604C67.3445 13.4947 67.801 13.4594 67.7424 13.0479C67.7161 12.8647 67.5418 12.7471 67.3958 12.6653C67.1705 12.5393 66.9417 12.4135 66.7092 12.2881C66.1835 12.0046 65.9566 11.5497 66.0286 10.9233C66.0777 10.4971 66.3002 10.2039 66.6961 10.0439C67.2996 9.80004 68.0657 9.91314 68.6389 10.2404C68.6454 10.2441 68.6503 10.2499 68.6529 10.2569C68.6555 10.2639 68.6556 10.2716 68.6531 10.2786L68.3841 11.057C68.3827 11.0611 68.3804 11.0648 68.3774 11.0679C68.3745 11.0711 68.3708 11.0735 68.3668 11.0751C68.3628 11.0767 68.3584 11.0774 68.3541 11.0771C68.3497 11.0769 68.3454 11.0757 68.3416 11.0737C67.9973 10.8929 67.5647 10.6969 67.1673 10.8091Z" fill="#10884B"/>
<path d="M70.5789 10.7982C70.3269 10.8438 70.2913 11.1319 70.4568 11.2823C70.5532 11.3695 70.6738 11.4478 70.8186 11.5174C71.0807 11.6431 71.3191 11.7743 71.534 11.9108C72.0359 12.2292 72.156 12.7833 72.0452 13.332C71.8587 14.2525 70.9627 14.3892 70.1658 14.3005C69.9164 14.2724 69.6707 14.2009 69.4285 14.0859C69.4116 14.0777 69.4031 14.0642 69.4031 14.0452L69.4036 13.1409C69.4035 13.138 69.4043 13.1352 69.4057 13.1327C69.4071 13.1302 69.4092 13.1281 69.4117 13.1266C69.4142 13.1251 69.4171 13.1243 69.42 13.1242C69.4229 13.1242 69.4259 13.1249 69.4285 13.1262C69.8333 13.3378 70.3133 13.5034 70.7478 13.4623C71.01 13.4378 71.1946 13.2492 71.0999 12.9748C71.068 12.8831 70.9868 12.7975 70.8562 12.7181C70.655 12.596 70.4327 12.4724 70.1892 12.3473C69.5872 12.0372 69.3245 11.5953 69.409 10.9046C69.5095 10.083 70.304 9.86211 71.0276 9.92581C71.3639 9.95551 71.6931 10.0595 72.0154 10.2378C72.022 10.2415 72.0271 10.2474 72.0299 10.2545C72.0326 10.2615 72.0329 10.2693 72.0305 10.2765L71.762 11.0559C71.7606 11.0601 71.7583 11.0638 71.7553 11.067C71.7523 11.0701 71.7487 11.0726 71.7446 11.0742C71.7406 11.0759 71.7363 11.0766 71.7319 11.0764C71.7276 11.0762 71.7234 11.0751 71.7195 11.0731C71.3611 10.8869 70.9876 10.7243 70.5789 10.7982Z" fill="#10884B"/>
<path d="M73.8512 10.0304C74.5299 9.77805 75.3151 9.92945 75.7594 10.5345C75.96 10.8079 76.0905 11.134 76.151 11.5128C76.2721 12.2741 76.2091 13.1784 75.7067 13.7835C75.3146 14.2562 74.675 14.4071 74.0861 14.2748C73.4626 14.1342 73.0617 13.638 72.8903 13.029C72.6237 12.0806 72.7326 10.4468 73.8512 10.0304ZM73.796 12.6298C73.8463 12.9991 74.0153 13.3675 74.4445 13.3842C74.8221 13.3989 75.0563 13.1964 75.1471 12.7767C75.2259 12.4129 75.2347 12.0181 75.1735 11.5922C75.1212 11.2277 74.9557 10.8755 74.5358 10.8539C74.0817 10.8304 73.8732 11.1405 73.8058 11.5368C73.7472 11.8833 73.744 12.2476 73.796 12.6298Z" fill="#10884B"/>
<path d="M78.8068 10.8645C77.9635 10.7396 77.8971 11.6919 77.922 12.293C77.9445 12.8388 78.1042 13.4428 78.8 13.3767C79.0998 13.3483 79.3768 13.2327 79.631 13.0298C79.6334 13.0279 79.6363 13.0267 79.6394 13.0264C79.6425 13.026 79.6456 13.0266 79.6484 13.0279C79.6512 13.0292 79.6535 13.0313 79.6552 13.0339C79.6569 13.0365 79.6578 13.0395 79.6579 13.0426V13.9827C79.6579 14.0003 79.6505 14.0144 79.6359 14.0248C79.2746 14.2776 78.9074 14.3374 78.4748 14.3178C77.6305 14.2791 77.1481 13.751 77.0016 12.9451C76.8166 11.9261 76.8991 10.2673 78.1984 9.97104C78.7342 9.84884 79.2505 9.92154 79.7472 10.189C79.7537 10.1924 79.7588 10.198 79.7615 10.2048C79.7643 10.2116 79.7646 10.2192 79.7624 10.2262L79.4948 11.0713C79.4933 11.0758 79.4909 11.0799 79.4877 11.0834C79.4845 11.0868 79.4805 11.0896 79.4762 11.0913C79.4718 11.0931 79.4671 11.0939 79.4624 11.0937C79.4576 11.0934 79.453 11.0921 79.4489 11.0899C79.2204 10.969 79.0063 10.8939 78.8068 10.8645Z" fill="#10884B"/>
<path d="M93.5864 14.3114C92.6314 14.3804 91.9904 13.7818 91.8034 12.8814C91.5984 11.8967 91.7194 10.4001 92.8614 10.0081C93.4384 9.80965 94.1274 9.91645 94.5654 10.3667C95.0654 10.8806 95.1834 11.6635 95.1434 12.3841C95.0894 13.3482 94.6274 14.2359 93.5864 14.3114ZM92.7084 12.124C92.7124 12.561 92.7494 13.3139 93.3374 13.3781C93.8844 13.4374 94.0834 13.0278 94.1354 12.5668C94.1924 12.0613 94.2404 10.9174 93.5144 10.8561C92.7834 10.7944 92.7054 11.5689 92.7084 12.124Z" fill="#10884B"/>
<path d="M96.9787 10.5354C96.9827 10.5376 96.9857 10.539 96.9907 10.5396C96.9947 10.5403 96.9987 10.5401 97.0027 10.5391C97.0067 10.538 97.0107 10.5361 97.0137 10.5335C97.0167 10.531 97.0197 10.5278 97.0217 10.5242C97.3407 9.94615 98.0597 9.77465 98.6387 10.0191C99.1667 10.242 99.3537 10.8054 99.3567 11.3267C99.3647 12.2924 99.3647 13.2557 99.3577 14.2166C99.3577 14.2355 99.3487 14.2449 99.3297 14.2449L98.4257 14.2444C98.4027 14.2444 98.3917 14.2331 98.3917 14.2106C98.3937 13.4754 98.3937 12.7333 98.3917 11.9841C98.3917 11.6397 98.4237 10.9612 97.9687 10.8628C97.6947 10.8035 97.3827 10.894 97.2517 11.1537C97.1387 11.3784 97.0787 11.6515 97.0717 11.9729C97.0607 12.5588 97.0587 13.3043 97.0667 14.2096C97.0667 14.2328 97.0557 14.2444 97.0317 14.2444L96.1267 14.2449C96.1057 14.2449 96.0957 14.2346 96.0957 14.214L96.0967 10.0177C96.0967 10.0113 96.0987 10.0052 96.1037 10.0007C96.1077 9.99615 96.1137 9.99365 96.1197 9.99365L96.8127 9.99315C96.8187 9.99315 96.8237 9.99505 96.8287 9.99845C96.8327 10.0017 96.8357 10.0064 96.8367 10.0117C96.8777 10.1714 96.9167 10.334 96.9527 10.4993C96.9567 10.5153 96.9647 10.5273 96.9787 10.5354Z" fill="#10884B"/>
<path d="M90.7134 9.98975H89.8104C89.7914 9.98975 89.7764 10.0051 89.7764 10.024V14.2126C89.7764 14.2315 89.7914 14.2469 89.8104 14.2469H90.7134C90.7324 14.2469 90.7484 14.2315 90.7484 14.2126V10.024C90.7484 10.0051 90.7324 9.98975 90.7134 9.98975Z" fill="#10884B"/>
<path d="M81.5552 9.9917H80.6462C80.6302 9.9917 80.6172 10.0051 80.6172 10.0216V14.216C80.6172 14.2325 80.6302 14.2459 80.6462 14.2459H81.5552C81.5712 14.2459 81.5842 14.2325 81.5842 14.216V10.0216C81.5842 10.0051 81.5712 9.9917 81.5552 9.9917Z" fill="#10884B"/>
<path d="M12.7268 31.0219C12.6291 31.1202 12.5282 31.2098 12.424 31.2908C12.0617 31.573 11.7692 31.3501 11.4914 31.0699C9.8713 29.4356 8.2478 27.8062 6.6208 26.1817C6.601 26.1621 6.6049 26.1551 6.6325 26.1607C6.9231 26.2209 7.22091 26.2827 7.52121 26.2988C8.02901 26.3266 8.48341 26.3222 8.88451 26.2856C9.62671 26.218 10.4543 26.0377 11.177 25.7639C12.0305 25.44 12.8816 24.9967 13.5803 24.4C14.1892 23.8807 14.7756 23.2929 15.2463 22.6472C15.8101 21.8741 16.2313 21.0122 16.51 20.0615C16.6148 19.7042 16.6952 19.3602 16.7512 19.0293C16.9576 17.8079 16.9089 16.5846 16.6052 15.3596C16.5061 14.9603 16.3391 14.5111 16.1984 14.0912C16.1936 14.0765 16.1967 14.0636 16.2077 14.0525C16.5824 13.6717 16.9514 13.3018 17.3147 12.9429C17.4475 12.8113 17.6001 12.7323 17.7727 12.7058C17.9641 12.6764 18.2028 12.8567 18.3298 12.9841C20.2484 14.9097 22.1276 16.7959 23.9675 18.6428C24.0638 18.7398 24.1465 18.85 24.2155 18.9735C24.3542 19.2223 24.2214 19.4766 24.0393 19.6593C20.2818 23.4321 16.5109 27.2197 12.7268 31.0219Z" fill="#10884B"/>
<path d="M15.4041 14.8542C15.4816 15.0152 15.5413 15.1796 15.5833 15.3475C15.6419 15.5807 15.7254 15.8276 15.7615 16.0529C15.8673 16.7176 15.9186 17.2084 15.9153 17.5256C15.8978 19.1288 15.4503 20.5862 14.5731 21.8978C14.2303 22.4107 13.7674 22.9545 13.2918 23.3871C12.2391 24.3437 10.9817 24.9556 9.51977 25.2227C9.38797 25.2469 9.24747 25.2689 9.09837 25.2889C8.95227 25.3084 8.81117 25.3218 8.67507 25.329C8.17347 25.3555 7.76087 25.3514 7.43727 25.3168C6.93407 25.2626 6.41187 25.1599 5.87087 25.0086C5.80057 24.989 5.72687 24.9557 5.64967 24.9087C5.63537 24.8999 5.62967 24.8871 5.63257 24.8705C5.66257 24.7105 5.73547 24.5723 5.85137 24.456C8.98867 21.3087 12.1277 18.1541 15.2684 14.9923C15.3107 14.9499 15.3478 14.9033 15.3797 14.8527C15.3811 14.8506 15.383 14.8488 15.3853 14.8477C15.3876 14.8465 15.3901 14.846 15.3926 14.8462C15.3951 14.8463 15.3975 14.8471 15.3995 14.8485C15.4015 14.85 15.4031 14.8519 15.4041 14.8542Z" fill="#10884B"/>
<path d="M51.9038 19.3941C51.8963 19.5123 51.9217 19.52 51.98 19.4171C52.2515 18.9385 52.7617 18.7793 53.2808 18.889C54.0195 19.0458 54.2402 19.7023 54.2397 20.4033C54.2391 21.3125 54.2389 22.2345 54.2393 23.1692C54.2393 23.1816 54.2331 23.1878 54.2207 23.1878L53.2944 23.1873C53.2874 23.1873 53.2807 23.1846 53.2758 23.1796C53.2708 23.1746 53.2681 23.1679 53.2681 23.1609C53.2707 22.2471 53.2699 21.3818 53.2656 20.565C53.2642 20.2505 53.1528 19.8331 52.7842 19.7949C51.9673 19.7106 51.9414 20.6482 51.9414 21.1989C51.9411 21.8354 51.9414 22.4927 51.9424 23.1707C51.9424 23.1818 51.9368 23.1873 51.9258 23.1873L51.001 23.1878C50.9821 23.1882 50.9727 23.1787 50.9727 23.1594V17.2974C50.9727 17.291 50.9752 17.2849 50.9797 17.2804C50.9841 17.2759 50.9902 17.2734 50.9966 17.2734L51.9048 17.2749C51.9129 17.2749 51.9207 17.2781 51.9265 17.2838C51.9324 17.2896 51.9358 17.2974 51.936 17.3057C51.9536 18.0722 51.9429 18.7684 51.9038 19.3941Z" fill="#10884B"/>
<path d="M83.8496 17.2759L83.7286 17.2763C83.4736 17.2772 83.2676 17.4852 83.2686 17.7409L83.2696 17.9447C83.2706 18.2003 83.4776 18.4069 83.7326 18.406L83.8536 18.4056C84.1086 18.4047 84.3146 18.1967 84.3136 17.941L84.3126 17.7372C84.3116 17.4815 84.1046 17.275 83.8496 17.2759Z" fill="#10884B"/>
<path d="M69.9351 18.5429C69.4517 18.5948 69.3413 19.2106 69.6436 19.507C69.7817 19.6422 69.9565 19.7499 70.1255 19.845C70.6836 20.16 71.2954 20.5186 71.4331 21.1976C71.4855 21.4553 71.4928 21.7064 71.4551 21.951C71.229 23.4231 69.542 23.5152 68.4873 22.9435C68.4801 22.9397 68.474 22.9339 68.4698 22.9269C68.4656 22.9198 68.4634 22.9117 68.4634 22.9034L68.4629 21.8717C68.4629 21.8446 68.4749 21.8372 68.499 21.8496C68.7402 21.9741 68.9738 22.0794 69.1997 22.1656C69.5078 22.2832 70.0225 22.3728 70.3086 22.1656C70.5483 21.9917 70.5693 21.5929 70.4175 21.3749C70.3413 21.2655 70.2406 21.1714 70.1152 21.0927C69.901 20.9579 69.6838 20.8256 69.4634 20.6959C68.791 20.3011 68.4727 19.7558 68.5234 18.9671C68.5747 18.1818 69.0513 17.6468 69.8633 17.5621C70.4219 17.5038 70.9292 17.6674 71.4229 17.9236C71.4321 17.9283 71.4394 17.9363 71.4433 17.9461C71.4471 17.956 71.4473 17.9669 71.4439 17.977L71.1455 18.8427C71.1448 18.845 71.1435 18.8472 71.1418 18.849C71.1401 18.8508 71.138 18.8522 71.1357 18.8531C71.1334 18.8541 71.1309 18.8545 71.1284 18.8544C71.1258 18.8542 71.1234 18.8536 71.1211 18.8525C70.7544 18.6688 70.3438 18.4993 69.9351 18.5429Z" fill="#10884B"/>
<path d="M35.0615 18.8336C35.055 18.8336 35.0508 18.8364 35.0488 18.8419C35.0475 18.8452 35.0469 18.8486 35.0469 18.8522C35.0659 19.3945 35.1001 19.9643 35.1021 20.4968C35.1056 21.3489 35.1069 22.2347 35.106 23.1544C35.106 23.1766 35.0951 23.1877 35.0732 23.1877L34.2529 23.1873C34.2341 23.1873 34.2246 23.1778 34.2246 23.1588V17.6471C34.2246 17.6449 34.225 17.6427 34.2259 17.6407C34.2267 17.6387 34.2279 17.6368 34.2295 17.6353C34.231 17.6337 34.2328 17.6325 34.2349 17.6317C34.2369 17.6308 34.239 17.6304 34.2412 17.6304L35.5488 17.6299C35.5527 17.6299 35.5565 17.6312 35.5596 17.6336C35.5627 17.636 35.5649 17.6394 35.5659 17.6432L36.6406 21.819C36.6563 21.8791 36.6722 21.8792 36.6885 21.8195L37.8291 17.6436C37.8314 17.6345 37.8371 17.6299 37.8462 17.6299H39.1494C39.1618 17.6299 39.168 17.6363 39.168 17.649L39.1694 23.1564C39.1694 23.177 39.1592 23.1873 39.1387 23.1873L38.2905 23.1877C38.269 23.1877 38.2583 23.1771 38.2583 23.1559C38.2378 21.6088 38.2498 20.177 38.2944 18.8605C38.2954 18.8315 38.2881 18.8292 38.2725 18.8537C38.2673 18.8618 38.2633 18.8708 38.2607 18.8806C37.8701 20.3121 37.4795 21.74 37.0889 23.1642C37.0869 23.171 37.0828 23.177 37.0772 23.1812C37.0717 23.1855 37.065 23.1878 37.0581 23.1877H36.2085C36.1912 23.1877 36.1805 23.1794 36.1763 23.1628L35.0737 18.8429C35.0731 18.8402 35.0715 18.8379 35.0693 18.8362C35.0671 18.8345 35.0644 18.8336 35.0615 18.8336Z" fill="#10884B"/>
<path d="M64.9258 19.8449C64.929 20.4354 64.9287 21.0732 64.9248 21.7584C64.9242 21.874 64.9346 21.9726 64.9561 22.0543C65.0713 22.4967 65.6523 22.311 65.9365 22.2125C65.9391 22.2117 65.9418 22.2114 65.9445 22.2118C65.9471 22.2123 65.9497 22.2133 65.9519 22.2149C65.954 22.2164 65.9558 22.2185 65.9571 22.2209C65.9583 22.2233 65.959 22.226 65.959 22.2287L65.9565 23.0399C65.9565 23.0499 65.9536 23.0596 65.9481 23.068C65.9427 23.0763 65.9349 23.0829 65.9258 23.087C65.6367 23.215 65.3322 23.273 65.0122 23.2609C64.1987 23.23 63.9609 22.6314 63.9605 21.9039C63.9598 21.1815 63.9601 20.4946 63.9614 19.8434C63.9614 19.8202 63.9499 19.8086 63.9268 19.8086L63.5327 19.8076C63.5103 19.8076 63.499 19.7965 63.499 19.7743L63.5 19.3496C63.5003 19.3264 63.5098 19.308 63.5283 19.2942C63.6716 19.1904 63.8149 19.0865 63.9585 18.9827C64.0077 18.9467 64.0415 18.8982 64.0601 18.8372C64.1437 18.5609 64.2235 18.3022 64.2993 18.0612C64.3058 18.0409 64.3197 18.0308 64.3408 18.0308L64.8911 18.0313C64.9146 18.0313 64.9264 18.0431 64.9268 18.0666L64.9287 18.8984C64.929 18.9239 64.9419 18.9366 64.9673 18.9366H65.8936C65.9085 18.9366 65.916 18.944 65.916 18.9587V19.7827C65.916 19.8003 65.9072 19.8091 65.8897 19.8091L64.9619 19.8081C64.9378 19.8081 64.9258 19.8204 64.9258 19.8449Z" fill="#10884B"/>
<path d="M57.4416 22.6151C57.4407 22.6122 57.439 22.6096 57.4367 22.6076C57.4343 22.6057 57.4315 22.6044 57.4285 22.604C57.4255 22.6036 57.4224 22.604 57.4196 22.6053C57.4169 22.6066 57.4145 22.6086 57.4128 22.6112C57.218 22.9134 56.9778 23.1544 56.6121 23.2284C55.7424 23.4033 55.1975 22.9364 55.1511 22.0649C55.0745 20.6197 56.2312 20.5453 57.3147 20.5448C57.3211 20.5448 57.3272 20.5424 57.3318 20.538C57.3364 20.5336 57.3392 20.5276 57.3396 20.5213C57.366 20.1049 57.2859 19.7081 56.7761 19.712C56.4446 19.7144 56.1164 19.8477 55.8264 20.003C55.8226 20.005 55.8184 20.0062 55.8141 20.0065C55.8098 20.0068 55.8055 20.0062 55.8014 20.0047C55.7974 20.0033 55.7937 20.0009 55.7906 19.9979C55.7875 19.9949 55.7851 19.9913 55.7834 19.9873L55.489 19.2632C55.4854 19.2542 55.4851 19.2442 55.4882 19.235C55.4914 19.2259 55.4977 19.2181 55.5061 19.2133C55.9146 18.9768 56.3442 18.8556 56.7947 18.8498C57.7581 18.8375 58.3015 19.3475 58.303 20.3204C58.304 21.2813 58.3046 22.2268 58.3049 23.1569C58.3049 23.1771 58.2948 23.1873 58.2747 23.1873L57.655 23.1878C57.6467 23.1878 57.6385 23.1851 57.6318 23.1802C57.625 23.1752 57.62 23.1683 57.6174 23.1603L57.4416 22.6151ZM57.3157 21.2169C56.8625 21.2537 56.2234 21.1772 56.1482 21.8185C56.1223 22.037 56.157 22.2854 56.3914 22.3716C56.8474 22.5391 57.2776 22.2006 57.3274 21.7333C57.3453 21.5647 57.3492 21.3995 57.3391 21.2375C57.339 21.2346 57.3383 21.2317 57.337 21.2291C57.3358 21.2264 57.334 21.2241 57.3318 21.2222C57.3296 21.2202 57.327 21.2188 57.3243 21.2179C57.3215 21.217 57.3186 21.2167 57.3157 21.2169Z" fill="#10884B"/>
<path d="M41.1689 21.3769C41.1904 21.8967 41.435 22.3822 42.0127 22.3954C42.4477 22.4057 42.8486 22.2891 43.2178 22.0775C43.221 22.0756 43.2247 22.0746 43.2285 22.0746C43.2322 22.0746 43.236 22.0756 43.2392 22.0775C43.2425 22.0793 43.2452 22.0821 43.2471 22.0853C43.249 22.0886 43.25 22.0923 43.25 22.0961L43.249 22.9387C43.249 22.947 43.2468 22.9552 43.2426 22.9623C43.2384 22.9695 43.2323 22.9753 43.2251 22.9794C42.6992 23.2772 41.9575 23.3502 41.3965 23.1729C40.7016 22.9534 40.3257 22.3454 40.229 21.6424C40.0644 20.4525 40.3603 18.8574 41.8818 18.8599C42.9341 18.8613 43.4219 19.6995 43.4448 20.6529C43.4503 20.8795 43.4512 21.1067 43.4472 21.3343C43.4472 21.3395 43.4452 21.3445 43.4415 21.3482C43.4379 21.3518 43.4329 21.3539 43.4277 21.3539L41.1919 21.3534C41.1888 21.3534 41.1857 21.354 41.1829 21.3552C41.18 21.3564 41.1774 21.3582 41.1753 21.3604C41.1731 21.3626 41.1715 21.3652 41.1704 21.368C41.1693 21.3709 41.1688 21.3739 41.1689 21.3769ZM41.2158 20.576L42.5263 20.5809C42.5293 20.5809 42.5322 20.5797 42.5343 20.5776C42.5364 20.5754 42.5376 20.5726 42.5376 20.5696V20.4956C42.538 20.3897 42.5222 20.2848 42.4912 20.1868C42.4602 20.0889 42.4145 19.9998 42.3568 19.9247C42.299 19.8496 42.2304 19.7899 42.1548 19.7491C42.0792 19.7083 41.998 19.6871 41.916 19.6868H41.832C41.6664 19.6862 41.5072 19.7705 41.3896 19.9213C41.2719 20.072 41.2054 20.2769 41.2046 20.4907V20.5647C41.2046 20.5677 41.2058 20.5705 41.2079 20.5727C41.21 20.5748 41.2128 20.576 41.2158 20.576Z" fill="#10884B"/>
<path d="M45.2437 19.6178C45.2547 19.6756 45.2746 19.6789 45.3032 19.6276C45.6035 19.0892 46.0108 18.7536 46.6372 18.8849C46.6482 18.8872 46.658 18.8935 46.6647 18.9025C46.6714 18.9115 46.6747 18.9227 46.6738 18.9339L46.6055 19.9416C46.6039 19.9651 46.5916 19.9746 46.5689 19.97C46.325 19.921 46.0998 19.9395 45.8931 20.0254C45.4693 20.2008 45.3428 20.6083 45.3438 21.039C45.3451 21.7238 45.3449 22.4301 45.3433 23.1577C45.3429 23.1777 45.3329 23.1876 45.313 23.1876H44.3882C44.3847 23.1876 44.3813 23.1862 44.3789 23.1837C44.3764 23.1813 44.375 23.1779 44.375 23.1744L44.3755 18.9706C44.3755 18.9478 44.3869 18.9363 44.4097 18.9363L45.0762 18.9368C45.0856 18.9369 45.0947 18.9401 45.102 18.9461C45.1093 18.9521 45.1143 18.9604 45.1162 18.9697L45.2437 19.6178Z" fill="#10884B"/>
<path d="M48.3447 20.4015C48.2266 20.9066 48.1475 22.2426 48.9477 22.316C49.3252 22.3508 49.6792 22.2107 49.98 21.977C50.0028 21.9594 50.0142 21.9651 50.0142 21.9942V22.926C50.0141 22.9332 50.0124 22.9404 50.0091 22.9469C50.0058 22.9533 50.001 22.9589 49.9951 22.9632C49.5903 23.2645 49.0122 23.3237 48.5215 23.2218C47.3262 22.973 47.2178 21.5817 47.3125 20.6039C47.376 19.945 47.6455 19.2988 48.2544 19.0176C48.8203 18.756 49.5605 18.8207 50.102 19.1352C50.1084 19.1389 50.1134 19.1447 50.116 19.1518C50.1187 19.1588 50.1189 19.1666 50.1167 19.1739L49.8511 20.0111C49.8496 20.0157 49.8472 20.0199 49.844 20.0235C49.8408 20.0271 49.8369 20.0299 49.8325 20.0317C49.8281 20.0336 49.8234 20.0345 49.8187 20.0343C49.814 20.0341 49.8094 20.0329 49.8052 20.0307C49.2563 19.7505 48.5366 19.582 48.3447 20.4015Z" fill="#10884B"/>
<path d="M60.3027 19.4334C60.3193 19.5049 60.3459 19.5088 60.3823 19.4451C60.666 18.9494 61.2451 18.7691 61.7774 18.8935C62.4966 19.0616 62.7119 19.6911 62.7119 20.3848C62.7116 21.2947 62.7118 22.2192 62.7124 23.1585C62.7124 23.1781 62.7025 23.1879 62.6826 23.1879H61.7793C61.7572 23.1879 61.7461 23.1768 61.7461 23.1546C61.7468 22.4439 61.7468 21.7094 61.7461 20.9511C61.7456 20.5499 61.7886 19.7979 61.1865 19.7886C60.8229 19.7827 60.596 19.9684 60.5059 20.3456C60.447 20.5931 60.4172 20.833 60.4165 21.0652C60.4155 21.7236 60.4154 22.4253 60.416 23.1703C60.416 23.182 60.4102 23.1879 60.3984 23.1879H59.4614C59.4513 23.1879 59.4463 23.1827 59.4463 23.1722V18.9734C59.4463 18.9492 59.4585 18.9371 59.4829 18.9371H60.1553C60.1777 18.9371 60.1914 18.9481 60.1963 18.97L60.3027 19.4334Z" fill="#10884B"/>
<path d="M73.1575 21.3771C73.1926 21.9566 73.4505 22.4117 74.093 22.3965C74.5042 22.3862 74.8508 22.274 75.2014 22.083C75.2255 22.0699 75.2376 22.0773 75.2376 22.105V22.9369C75.2376 22.945 75.2354 22.9531 75.2313 22.9601C75.2272 22.9672 75.2212 22.973 75.2141 22.977C74.7849 23.2225 74.2903 23.2911 73.8049 23.2553C72.888 23.1872 72.3372 22.5165 72.2171 21.6382C72.1096 20.8514 72.1878 19.7026 72.8894 19.1691C73.2361 18.9056 73.6531 18.8094 74.1404 18.8806C74.742 18.9687 75.1502 19.3832 75.3259 19.9652C75.4602 20.41 75.4417 20.8627 75.4392 21.3261C75.4391 21.3334 75.4361 21.3404 75.4309 21.3455C75.4257 21.3507 75.4187 21.3535 75.4114 21.3535L73.1804 21.3526C73.1773 21.3526 73.1742 21.3532 73.1713 21.3544C73.1684 21.3557 73.1658 21.3575 73.1637 21.3598C73.1615 21.3621 73.1598 21.3648 73.1588 21.3678C73.1577 21.3708 73.1573 21.3739 73.1575 21.3771ZM73.2024 20.5776L74.5169 20.5795C74.5197 20.5795 74.5224 20.5784 74.5245 20.5764C74.5265 20.5743 74.5276 20.5716 74.5276 20.5687L74.5281 20.506C74.5284 20.2891 74.4632 20.0809 74.3466 19.9273C74.23 19.7737 74.0717 19.6872 73.9065 19.6869H73.8167C73.7348 19.6868 73.6538 19.7078 73.5781 19.7488C73.5024 19.7898 73.4336 19.8499 73.3756 19.9258C73.3176 20.0017 73.2716 20.0918 73.2401 20.191C73.2086 20.2902 73.1923 20.3966 73.1921 20.5041L73.1917 20.5668C73.1917 20.5696 73.1928 20.5724 73.1948 20.5744C73.1968 20.5764 73.1996 20.5776 73.2024 20.5776Z" fill="#10884B"/>
<path d="M77.2261 19.5906C77.2433 19.6787 77.272 19.6827 77.312 19.6023C77.5718 19.084 78.0356 18.7524 78.6313 18.8861C78.6412 18.8883 78.6499 18.894 78.6559 18.9021C78.6619 18.9101 78.6648 18.9201 78.6641 18.9302L78.5937 19.9452C78.5921 19.9665 78.5811 19.975 78.5605 19.9707C77.8423 19.8189 77.3369 20.2553 77.3345 20.973C77.3325 21.6426 77.332 22.3753 77.333 23.1712C77.333 23.1755 77.3313 23.1796 77.3283 23.1826C77.3253 23.1856 77.3212 23.1873 77.3169 23.1873L76.3916 23.1883C76.3727 23.1883 76.3633 23.1787 76.3633 23.1594L76.3638 18.9615C76.3638 18.9449 76.3721 18.9366 76.3887 18.9366L77.0718 18.937C77.0793 18.937 77.0866 18.9397 77.0924 18.9445C77.0982 18.9493 77.1021 18.9561 77.1035 18.9635L77.2261 19.5906Z" fill="#10884B"/>
<path d="M87.0577 19.8008C86.1907 19.7053 86.1747 20.7855 86.2157 21.3562C86.2577 21.9461 86.4957 22.4129 87.1777 22.3071C87.4677 22.262 87.6737 22.1415 87.9137 21.9804C87.9347 21.966 87.9447 21.9717 87.9447 21.9975L87.9457 22.9175C87.9457 22.9348 87.9387 22.9487 87.9257 22.9592C87.7497 23.0967 87.5497 23.1853 87.3257 23.2252C86.7077 23.3349 86.0287 23.2379 85.6377 22.723C85.2167 22.168 85.1787 21.3386 85.2397 20.6336C85.2987 19.9507 85.5787 19.2791 86.2187 19.0028C86.7747 18.7623 87.4957 18.8215 88.0307 19.1351C88.0377 19.1391 88.0427 19.1453 88.0457 19.1526C88.0487 19.1599 88.0487 19.1679 88.0457 19.1752L87.7847 20.0032C87.7827 20.009 87.7797 20.0145 87.7757 20.019C87.7717 20.0236 87.7667 20.0272 87.7607 20.0296C87.7557 20.032 87.7497 20.0331 87.7437 20.0328C87.7367 20.0326 87.7317 20.031 87.7257 20.0281C87.4777 19.8985 87.2557 19.8227 87.0577 19.8008Z" fill="#10884B"/>
<path d="M89.6987 21.3887C89.7337 21.9271 89.9787 22.3876 90.5587 22.3964C91.0027 22.4028 91.3617 22.2832 91.7427 22.0824C91.7677 22.0696 91.7797 22.077 91.7797 22.1044V22.9387C91.7797 22.9567 91.7717 22.9702 91.7557 22.9794C91.4047 23.1799 90.9857 23.2748 90.5007 23.264C89.0847 23.2326 88.6527 22.0427 88.7267 20.8155C88.7887 19.7921 89.2507 18.8643 90.4027 18.8594C91.1217 18.8565 91.6417 19.2601 91.8557 19.9249C92.0017 20.3766 91.9857 20.8591 91.9767 21.3333C91.9767 21.3388 91.9737 21.3441 91.9697 21.3479C91.9667 21.3518 91.9607 21.3539 91.9557 21.3539L89.7317 21.3534C89.7087 21.3534 89.6967 21.3652 89.6987 21.3887ZM89.7477 20.5774L91.0557 20.5794C91.0597 20.5794 91.0627 20.578 91.0657 20.5755C91.0677 20.573 91.0687 20.5697 91.0687 20.5662L91.0697 20.503C91.0697 20.2868 91.0047 20.0794 90.8877 19.9263C90.7697 19.7733 90.6107 19.6871 90.4447 19.6868H90.3617C90.2797 19.6867 90.1987 19.7076 90.1227 19.7484C90.0467 19.7893 89.9777 19.8492 89.9187 19.9248C89.8607 20.0004 89.8147 20.0902 89.7827 20.1891C89.7507 20.288 89.7347 20.394 89.7347 20.501L89.7337 20.5642C89.7337 20.5677 89.7357 20.5711 89.7377 20.5736C89.7407 20.576 89.7437 20.5774 89.7477 20.5774Z" fill="#10884B"/>
<path d="M93.6871 19.8618C93.5691 20.0818 93.7541 20.2645 93.9411 20.365C94.1391 20.4714 94.3371 20.5753 94.5341 20.6765C94.9141 20.871 95.2531 21.1253 95.3381 21.5662C95.4021 21.9006 95.3811 22.2102 95.2771 22.495C94.9211 23.464 93.4611 23.3734 92.7251 23.0314C92.7161 23.0276 92.7101 23.0215 92.7051 23.0138C92.7001 23.006 92.6971 22.997 92.6971 22.9878L92.6961 22.0938C92.6961 22.0895 92.6981 22.0853 92.7001 22.0815C92.7021 22.0778 92.7051 22.0746 92.7081 22.0724C92.7121 22.0701 92.7161 22.0688 92.7211 22.0686C92.7251 22.0685 92.7291 22.0693 92.7331 22.0713C93.1651 22.2961 93.6751 22.4632 94.1001 22.3951C94.4391 22.3407 94.5321 21.9615 94.2711 21.7469C94.1881 21.6793 94.1031 21.6227 94.0161 21.577C93.7751 21.4506 93.5431 21.3219 93.3201 21.1909C93.0091 21.0077 92.8171 20.7734 92.7451 20.4879C92.5311 19.6438 92.9081 18.9781 93.7991 18.8752C94.3351 18.8138 94.8411 18.9164 95.3161 19.1829C95.3221 19.1858 95.3261 19.1905 95.3281 19.1961C95.3301 19.2018 95.3301 19.208 95.3281 19.2137L95.0531 20.0059C95.0521 20.009 95.0501 20.0119 95.0481 20.0143C95.0451 20.0167 95.0431 20.0186 95.0391 20.0198C95.0361 20.021 95.0331 20.0215 95.0301 20.0213C95.0271 20.0211 95.0231 20.0202 95.0211 20.0186C94.8221 19.9131 94.6321 19.8316 94.4511 19.7742C94.2801 19.7203 93.8001 19.6517 93.6871 19.8618Z" fill="#10884B"/>
<path d="M80.8044 22.1977C80.8464 21.8964 80.8754 21.6093 80.9594 21.3134C81.1784 20.5358 81.3994 19.7518 81.6214 18.9615C81.6224 18.9544 81.6274 18.9482 81.6324 18.9438C81.6384 18.9394 81.6454 18.937 81.6534 18.937L82.6174 18.9365C82.6194 18.9365 82.6224 18.9372 82.6244 18.9384C82.6274 18.9396 82.6294 18.9413 82.6304 18.9435C82.6324 18.9456 82.6334 18.9481 82.6334 18.9507C82.6344 18.9533 82.6344 18.956 82.6334 18.9585L81.3004 23.1598C81.2984 23.1681 81.2924 23.1753 81.2864 23.1804C81.2794 23.1855 81.2714 23.1883 81.2624 23.1882L80.3334 23.1877C80.3124 23.1877 80.2984 23.1776 80.2924 23.1574L78.9618 18.9595C78.9609 18.9568 78.9608 18.9539 78.9612 18.9511C78.9617 18.9484 78.9628 18.9457 78.9644 18.9434C78.9661 18.9411 78.9683 18.9393 78.9708 18.938C78.9733 18.9367 78.9761 18.936 78.9789 18.936L79.931 18.9365C79.9548 18.9368 79.9699 18.9484 79.9764 18.9713C80.1844 19.7165 80.3994 20.4809 80.6204 21.2644C80.7114 21.5873 80.7534 21.8699 80.7864 22.1972C80.7914 22.2445 80.7974 22.2447 80.8044 22.1977Z" fill="#10884B"/>
<path d="M84.2546 18.9351H83.3256C83.3146 18.9351 83.3066 18.9437 83.3066 18.9542V23.1673C83.3066 23.1778 83.3146 23.1864 83.3256 23.1864H84.2546C84.2656 23.1864 84.2736 23.1778 84.2736 23.1673V18.9542C84.2736 18.9437 84.2656 18.9351 84.2546 18.9351Z" fill="#10884B"/>
</g>
</svg>
