<svg width="140" height="48" viewBox="0 0 140 48" fill="none" xmlns="http://www.w3.org/2000/svg">
<g clip-path="url(#clip0_575_2296)">
<path d="M24.9389 25.499C23.3673 23.9215 21.8307 22.3753 20.3291 20.8602C20.1743 20.7044 20.0043 20.4438 20.0903 20.2204C20.1586 20.0421 20.2817 19.8888 20.4189 19.7516C24.2906 15.8801 28.0939 12.0734 31.8286 8.33124C31.8556 8.30413 31.9085 8.26723 31.9873 8.22052C32.2841 8.04514 32.5566 8.19407 32.7734 8.41207C34.6663 10.3135 36.56 12.2141 38.4545 14.1139C38.7353 14.3956 38.8212 14.7709 38.5131 15.0819C38.1013 15.4977 37.6954 15.9061 37.2954 16.3072C37.2402 16.3625 37.1948 16.4247 37.145 16.484C37.1326 16.499 37.117 16.5039 37.0981 16.4987C37.0263 16.4801 36.9628 16.4409 36.8916 16.4149C36.3408 16.2167 35.7677 16.0599 35.1723 15.9446C34.171 15.7506 33.1582 15.7506 32.1337 15.9446C31.2802 16.1066 30.4986 16.3651 29.789 16.7201C29.455 16.887 29.1634 17.0493 28.914 17.2071C28.5393 17.4435 28.159 17.7469 27.7729 18.1173C27.4038 18.4717 27.1108 18.7805 26.894 19.0437C26.1681 19.9255 25.644 20.8955 25.3217 21.9536C25.2197 22.2897 25.1201 22.6591 25.0678 22.9976C25.0239 23.2852 24.9672 23.5688 24.9467 23.8696C24.9077 24.4503 24.9166 24.9877 24.9736 25.4818C24.9781 25.5214 24.9666 25.5271 24.9389 25.499Z" fill="#10884B"/>
<path d="M54.7705 18.468C54.7646 18.5728 54.7863 18.5788 54.8355 18.4861C55.0301 18.1167 55.3594 17.9283 55.8232 17.9208C56.7852 17.9056 57.1016 18.635 57.1021 19.4752C57.1021 20.4203 57.1021 21.3382 57.1021 22.2289C57.1019 22.2342 57.0998 22.2393 57.096 22.2431C57.0923 22.2468 57.0873 22.2489 57.082 22.2489L56.1694 22.2485C56.16 22.2485 56.1509 22.2447 56.1442 22.238C56.1375 22.2313 56.1338 22.2222 56.1338 22.2127C56.1351 21.3433 56.1349 20.492 56.1333 19.6589C56.1323 19.2866 56.0117 18.8398 55.5527 18.8452C55.209 18.8494 54.9886 19.039 54.8916 19.4139C54.8408 19.6102 54.8143 19.7956 54.812 19.97C54.8029 20.6917 54.8016 21.437 54.8081 22.2058C54.8082 22.2113 54.8071 22.2168 54.8051 22.2219C54.803 22.227 54.8 22.2317 54.7961 22.2356C54.7923 22.2395 54.7877 22.2426 54.7826 22.2447C54.7775 22.2469 54.7721 22.248 54.7666 22.248L53.8506 22.2465C53.847 22.2465 53.8435 22.245 53.8409 22.2425C53.8384 22.2399 53.8369 22.2364 53.8369 22.2328L53.8364 16.3482C53.8364 16.3361 53.8425 16.3301 53.8545 16.3301L54.7686 16.3335C54.7771 16.3335 54.7854 16.3369 54.7915 16.3429C54.7976 16.349 54.8011 16.3572 54.8013 16.3658C54.8162 17.1164 54.806 17.8171 54.7705 18.468Z" fill="#10884B"/>
<path d="M77.6475 18.4969C77.6869 18.5596 77.702 18.5542 77.6929 18.4807C77.6636 18.2509 77.6324 18.0177 77.6314 17.7885C77.6291 17.3113 77.6281 16.8345 77.6284 16.358C77.6284 16.351 77.6312 16.3443 77.6362 16.3393C77.6411 16.3343 77.6478 16.3315 77.6548 16.3315L78.5674 16.3325C78.5879 16.3325 78.5982 16.3428 78.5982 16.3634V22.2191C78.5982 22.2267 78.5951 22.2341 78.5897 22.2395C78.5843 22.2449 78.577 22.248 78.5694 22.248L77.897 22.247C77.8697 22.247 77.8518 22.2341 77.8433 22.2083L77.6812 21.7238C77.6789 21.7171 77.6747 21.7113 77.6692 21.707C77.6636 21.7027 77.657 21.7001 77.65 21.6995C77.643 21.6989 77.636 21.7004 77.6298 21.7038C77.6237 21.7071 77.6186 21.7122 77.6153 21.7184C77.4058 22.1034 77.0689 22.3244 76.6236 22.3205C75.8228 22.3126 75.439 21.5469 75.3399 20.8248C75.278 20.3761 75.2766 19.9197 75.3355 19.4556C75.4317 18.6977 75.8418 17.8659 76.7412 17.9188C77.1392 17.9418 77.4336 18.1574 77.6475 18.4969ZM77.7002 20.0684C77.6909 19.6559 77.6382 18.9383 77.0913 18.8716C76.5738 18.8084 76.3701 19.1881 76.3101 19.631C76.2403 20.1502 76.1817 21.4328 77.0225 21.396C77.6597 21.3681 77.7114 20.5706 77.7002 20.0684Z" fill="#10884B"/>
<path d="M101.163 16.3364L101.039 16.3366C100.785 16.337 100.579 16.5442 100.579 16.7994L100.58 17.0032C100.58 17.2583 100.787 17.4648 101.041 17.4643L101.165 17.4641C101.419 17.4637 101.625 17.2565 101.625 17.0013L101.624 16.7975C101.624 16.5424 101.417 16.3359 101.163 16.3364Z" fill="#10884B"/>
<path d="M110.321 16.335L110.199 16.3359C109.944 16.3377 109.74 16.5459 109.741 16.8011L109.743 17.0058C109.745 17.261 109.952 17.4663 110.207 17.4646L110.329 17.4637C110.583 17.4619 110.788 17.2537 110.786 16.9985L110.784 16.7938C110.783 16.5386 110.575 16.3333 110.321 16.335Z" fill="#10884B"/>
<path d="M66.0117 17.5969C64.8286 17.6807 64.8628 19.5918 65.0346 20.3687C65.1533 20.9047 65.4702 21.326 66.0664 21.3358C66.4809 21.3421 66.872 21.2216 67.2514 21.0565C67.2548 21.0551 67.2585 21.0545 67.2622 21.0548C67.2659 21.0552 67.2694 21.0564 67.2725 21.0584C67.2756 21.0605 67.2782 21.0632 67.2799 21.0665C67.2817 21.0698 67.2826 21.0734 67.2827 21.0771L67.2836 21.9868C67.2836 22.0228 67.2674 22.0481 67.2348 22.0628C66.6964 22.3064 66.1385 22.3784 65.561 22.2788C64.7993 22.1475 64.2954 21.5332 64.1045 20.8062C63.8256 19.7451 63.8378 18.4356 64.4326 17.5019C65.1132 16.4339 66.414 16.4114 67.4272 16.9855C67.4352 16.9901 67.4413 16.9972 67.4446 17.0058C67.4479 17.0144 67.4482 17.0238 67.4453 17.0326L67.1508 17.93C67.1497 17.9337 67.1477 17.9371 67.1451 17.9399C67.1425 17.9427 67.1393 17.9448 67.1357 17.9462C67.1321 17.9476 67.1282 17.9482 67.1243 17.948C67.1204 17.9477 67.1167 17.9466 67.1132 17.9447C66.7714 17.7547 66.4121 17.568 66.0117 17.5969Z" fill="#10884B"/>
<path d="M84.1567 20.9229L82.5087 20.9239C82.5037 20.9239 82.4988 20.9255 82.4948 20.9287C82.4908 20.9318 82.488 20.9361 82.4868 20.9411L82.1611 22.23C82.1599 22.2349 82.157 22.2392 82.1531 22.2424C82.1491 22.2455 82.1442 22.2471 82.1391 22.2471L81.1284 22.2491C81.1248 22.2491 81.1213 22.2484 81.1182 22.2468C81.115 22.2453 81.1122 22.243 81.1101 22.2402C81.1079 22.2374 81.1065 22.2341 81.1058 22.2306C81.1052 22.2271 81.1054 22.2236 81.1064 22.2202L82.726 16.681C82.7274 16.6763 82.7302 16.6722 82.7341 16.6693C82.738 16.6664 82.7427 16.6648 82.7475 16.6648L83.914 16.6643C83.9188 16.6643 83.9235 16.6659 83.9274 16.6688C83.9313 16.6717 83.9341 16.6758 83.9355 16.6805L85.5605 22.2182C85.5615 22.2216 85.5617 22.2252 85.561 22.2287C85.5604 22.2321 85.5589 22.2354 85.5568 22.2382C85.5547 22.2411 85.5519 22.2433 85.5487 22.2449C85.5455 22.2464 85.542 22.2472 85.5385 22.2471L84.5278 22.2461C84.5227 22.2462 84.5178 22.2445 84.5138 22.2414C84.5098 22.2383 84.507 22.2339 84.5058 22.229L84.1787 20.9401C84.1774 20.9352 84.1746 20.9308 84.1706 20.9277C84.1666 20.9246 84.1617 20.9229 84.1567 20.9229ZM83.9316 19.9093L83.3388 17.5873C83.3365 17.5778 83.3343 17.5778 83.332 17.5873L82.7495 19.9084C82.7449 19.9263 82.7519 19.9353 82.7705 19.9353L83.9135 19.9329C83.9163 19.9329 83.9191 19.9322 83.9216 19.931C83.9242 19.9298 83.9264 19.9279 83.9281 19.9257C83.9299 19.9234 83.9311 19.9208 83.9317 19.9179C83.9323 19.9151 83.9322 19.9122 83.9316 19.9093Z" fill="#10884B"/>
<path d="M51.7915 17.6945V22.2206C51.7915 22.2269 51.789 22.233 51.7845 22.2376C51.78 22.2421 51.7739 22.2446 51.7676 22.2446H50.8306C50.8242 22.2446 50.8181 22.2421 50.8136 22.2376C50.8092 22.233 50.8066 22.2269 50.8066 22.2206L50.8057 17.6945C50.8057 17.6881 50.8031 17.682 50.7987 17.6775C50.7942 17.673 50.7881 17.6705 50.7817 17.6705L49.5767 17.671C49.5735 17.671 49.5704 17.6703 49.5675 17.6691C49.5646 17.6679 49.562 17.6662 49.5597 17.6639C49.5575 17.6617 49.5558 17.6591 49.5546 17.6561C49.5534 17.6532 49.5527 17.6501 49.5527 17.647L49.5537 16.7118C49.5537 16.7054 49.5562 16.6993 49.5607 16.6948C49.5652 16.6903 49.5713 16.6877 49.5776 16.6877L53.0195 16.6873C53.0259 16.6873 53.032 16.6898 53.0365 16.6943C53.0409 16.6988 53.0435 16.7049 53.0435 16.7113L53.0444 17.647C53.0444 17.6501 53.0438 17.6532 53.0426 17.6561C53.0414 17.6591 53.0396 17.6617 53.0374 17.6639C53.0352 17.6662 53.0326 17.6679 53.0297 17.6691C53.0268 17.6703 53.0237 17.671 53.0205 17.671L51.8154 17.6705C51.8091 17.6705 51.803 17.673 51.7985 17.6775C51.794 17.682 51.7915 17.6881 51.7915 17.6945Z" fill="#10884B"/>
<path d="M35.9961 17.1399C36.1138 17.1913 36.2036 17.2065 36.3135 17.2291C36.3177 17.2299 36.3216 17.2318 36.3248 17.2346C36.328 17.2374 36.3305 17.241 36.332 17.245C36.3335 17.249 36.334 17.2533 36.3334 17.2575C36.3328 17.2618 36.3312 17.2658 36.3286 17.2692C36.2539 17.3716 36.1563 17.4539 36.0659 17.545C33.077 20.5399 30.071 23.5578 27.0479 26.5987C26.9789 26.6683 26.8924 26.7311 26.7886 26.7873C26.5508 26.9166 26.2158 26.8628 26.146 26.559C26.037 26.0829 25.9645 25.6842 25.9287 25.3632C25.889 25.0026 25.8817 24.5784 25.9068 24.0905C25.9224 23.789 25.9629 23.4686 26.0283 23.1293C26.3561 21.4281 27.1613 19.9835 28.4439 18.7957C28.6808 18.5759 28.937 18.3729 29.2124 18.1868C29.702 17.8556 30.1869 17.585 30.667 17.375C31.1888 17.1464 31.7253 16.9879 32.2764 16.8994C32.5581 16.8543 32.8545 16.7999 33.1441 16.7862C33.4872 16.7699 33.8316 16.7705 34.1773 16.7881C34.3137 16.795 34.4455 16.8094 34.5728 16.8313C34.7593 16.8631 34.9458 16.8744 35.1348 16.916C35.3871 16.9719 35.6253 17.0293 35.8496 17.0885C35.8988 17.1015 35.9476 17.1187 35.9961 17.1399Z" fill="#10884B"/>
<path d="M107.928 18.8677C107.924 18.8677 107.92 18.8693 107.917 18.8724C107.914 18.8754 107.912 18.8795 107.912 18.8838C107.909 19.6278 107.909 20.3244 107.913 20.9737C107.915 21.252 108.117 21.4156 108.393 21.393C108.565 21.379 108.734 21.339 108.901 21.273C108.905 21.2714 108.909 21.2709 108.914 21.2714C108.918 21.2719 108.922 21.2735 108.926 21.276C108.93 21.2785 108.933 21.2819 108.935 21.2858C108.937 21.2897 108.938 21.2941 108.938 21.2985V22.099C108.938 22.1189 108.929 22.1331 108.911 22.1416C108.686 22.2507 108.425 22.31 108.128 22.3194C107.192 22.3498 106.944 21.7159 106.944 20.9277C106.945 20.2509 106.945 19.5715 106.944 18.8892C106.944 18.8838 106.942 18.8785 106.938 18.8747C106.935 18.8708 106.93 18.8686 106.924 18.8686H106.499C106.496 18.8686 106.494 18.8682 106.492 18.8673C106.49 18.8664 106.488 18.8651 106.486 18.8635C106.484 18.8618 106.483 18.8599 106.482 18.8578C106.481 18.8556 106.481 18.8533 106.481 18.851L106.48 18.4184C106.48 18.4054 106.483 18.3925 106.489 18.3808C106.495 18.3691 106.504 18.359 106.514 18.3513L106.957 18.029C106.993 18.0025 107.02 17.9651 107.034 17.9222L107.284 17.1138C107.289 17.0982 107.299 17.0903 107.315 17.0903H107.889C107.895 17.0903 107.9 17.0925 107.904 17.0964C107.908 17.1002 107.91 17.1055 107.91 17.1109L107.912 17.9628C107.912 17.9714 107.915 17.9796 107.921 17.9857C107.927 17.9918 107.936 17.9952 107.944 17.9952L108.871 17.9927C108.878 17.9927 108.886 17.9957 108.891 18.0011C108.897 18.0066 108.9 18.0139 108.9 18.0216L108.9 18.849C108.9 18.8545 108.898 18.8597 108.894 18.8636C108.89 18.8674 108.885 18.8696 108.879 18.8696L107.928 18.8677Z" fill="#10884B"/>
<path d="M70.372 21.6812C70.0742 22.1094 69.7646 22.3416 69.1919 22.3195C68.6375 22.2986 68.2947 22.0101 68.1635 21.4539C68.0649 21.0365 68.0835 20.4697 68.3701 20.117C68.7876 19.6031 69.6772 19.6002 70.2754 19.6051C70.2839 19.6051 70.292 19.6017 70.2982 19.5958C70.3043 19.5898 70.3078 19.5817 70.3081 19.5732C70.311 19.3934 70.3095 19.1671 70.2168 19.0045C69.9492 18.5371 69.1518 18.8761 68.8042 19.0525C68.7985 19.0554 68.7923 19.0571 68.786 19.0575C68.7796 19.0579 68.7732 19.0569 68.7673 19.0547C68.7613 19.0525 68.7559 19.0491 68.7513 19.0446C68.7467 19.0402 68.7431 19.0349 68.7407 19.0289L68.4531 18.322C68.4498 18.3137 68.4496 18.3044 68.4525 18.296C68.4553 18.2876 68.4611 18.2805 68.4687 18.276C68.791 18.082 69.1417 17.9641 69.521 17.9223C70.122 17.8561 70.852 17.9943 71.1137 18.6101C71.2127 18.8429 71.2627 19.068 71.2636 19.2852C71.2672 20.2581 71.2685 21.2339 71.2675 22.2127C71.2675 22.2359 71.2558 22.2475 71.2324 22.2475L70.6245 22.2466C70.6148 22.2465 70.6055 22.2435 70.5977 22.2378C70.59 22.2322 70.5843 22.2243 70.5815 22.2152L70.4111 21.6866C70.402 21.6585 70.389 21.6567 70.372 21.6812ZM69.6972 20.3071C69.2939 20.357 69.0605 20.6907 69.1098 21.0943C69.1372 21.321 69.2723 21.4431 69.5151 21.4608C69.8572 21.4859 70.0913 21.3507 70.2172 21.0551C70.3105 20.8366 70.3042 20.5574 70.3183 20.3198C70.3185 20.3166 70.3181 20.3134 70.317 20.3103C70.316 20.3073 70.3144 20.3045 70.3122 20.302C70.3101 20.2996 70.3075 20.2977 70.3046 20.2963C70.3017 20.2949 70.2986 20.294 70.2954 20.2938C70.0818 20.2795 69.8825 20.2839 69.6972 20.3071Z" fill="#10884B"/>
<path d="M104.795 21.685C104.612 21.9535 104.4 22.1837 104.086 22.266C103.866 22.3235 103.654 22.3364 103.449 22.3047C102.728 22.193 102.519 21.5332 102.543 20.8791C102.588 19.6402 103.782 19.6005 104.704 19.6044C104.712 19.6045 104.719 19.6016 104.724 19.5965C104.73 19.5914 104.733 19.5844 104.733 19.577C104.756 19.19 104.688 18.7956 104.229 18.7746C103.88 18.7584 103.541 18.8892 103.233 19.0553C103.227 19.0582 103.221 19.06 103.215 19.0605C103.209 19.0609 103.202 19.06 103.196 19.0579C103.191 19.0558 103.185 19.0525 103.181 19.0481C103.176 19.0438 103.173 19.0385 103.17 19.0327L102.879 18.3175C102.876 18.31 102.876 18.3017 102.879 18.2941C102.881 18.2864 102.887 18.28 102.894 18.2759C103.385 17.9858 103.911 17.8673 104.47 17.9202C105.332 18.002 105.698 18.5948 105.697 19.4149C105.697 20.3506 105.696 21.2813 105.696 22.2072C105.696 22.2179 105.692 22.2281 105.684 22.2356C105.677 22.2432 105.666 22.2474 105.656 22.2474H105.06C105.048 22.2474 105.037 22.2436 105.027 22.2366C105.018 22.2296 105.011 22.2196 105.007 22.2082L104.84 21.6919C104.83 21.6592 104.815 21.6569 104.795 21.685ZM103.995 20.3442C103.636 20.4299 103.495 20.7591 103.541 21.1045C103.599 21.5248 104.074 21.5376 104.363 21.3744C104.753 21.1535 104.751 20.6945 104.734 20.2932C104.734 20.2867 104.73 20.2834 104.724 20.2834C104.435 20.2769 104.192 20.2972 103.995 20.3442Z" fill="#10884B"/>
<path d="M59.0132 20.4314C59.0268 20.8547 59.1968 21.298 59.6221 21.4176C60.0737 21.544 60.6611 21.3666 61.0596 21.1354C61.0627 21.1336 61.0663 21.1327 61.07 21.1327C61.0736 21.1327 61.0772 21.1337 61.0803 21.1355C61.0835 21.1374 61.0861 21.14 61.0879 21.1431C61.0898 21.1463 61.0908 21.1499 61.0908 21.1535L61.0923 21.9971C61.0926 22.0131 61.0859 22.0249 61.0722 22.0324C60.8528 22.1568 60.6328 22.2378 60.4121 22.2754C59.7138 22.3949 58.9399 22.3092 58.4751 21.7076C57.999 21.0913 57.9614 20.184 58.0913 19.4316C58.1953 18.8314 58.5034 18.2735 59.0757 18.0349C59.4424 17.8825 59.9072 17.8757 60.2798 18.0114C61.2798 18.3753 61.3213 19.5094 61.2866 20.3947C61.2865 20.399 61.2846 20.4031 61.2814 20.4061C61.2782 20.4092 61.274 20.4109 61.2695 20.4108L59.0322 20.4113C59.0189 20.4113 59.0125 20.418 59.0132 20.4314ZM59.0649 19.6363H60.3608C60.3664 19.6363 60.3717 19.6341 60.3757 19.6302C60.3796 19.6262 60.3818 19.6208 60.3818 19.6153V19.5668C60.3818 19.4587 60.3656 19.3517 60.3341 19.2518C60.3026 19.152 60.2564 19.0612 60.1982 18.9848C60.14 18.9084 60.0709 18.8478 59.9948 18.8064C59.9187 18.765 59.8372 18.7437 59.7549 18.7437H59.6709C59.5885 18.7437 59.507 18.765 59.431 18.8064C59.3549 18.8478 59.2858 18.9084 59.2276 18.9848C59.1693 19.0612 59.1232 19.152 59.0917 19.2518C59.0601 19.3517 59.0439 19.4587 59.0439 19.5668V19.6153C59.0439 19.6208 59.0461 19.6262 59.0501 19.6302C59.054 19.6341 59.0594 19.6363 59.0649 19.6363Z" fill="#10884B"/>
<path d="M73.3052 18.7071C73.3136 18.7071 73.3211 18.7048 73.3276 18.7002C73.3379 18.6934 73.3463 18.6842 73.3521 18.6733C73.6294 18.1295 74.0645 17.8233 74.6821 17.9438C74.7017 17.9477 74.7108 17.9597 74.7095 17.9796L74.6421 19.0103C74.6418 19.0137 74.6408 19.017 74.6392 19.02C74.6375 19.0229 74.6353 19.0255 74.6325 19.0275C74.6298 19.0295 74.6267 19.0309 74.6233 19.0316C74.62 19.0322 74.6166 19.0322 74.6133 19.0314C73.9214 18.8736 73.3848 19.2993 73.3809 20.0087C73.377 20.7132 73.3763 21.4488 73.3789 22.2157C73.379 22.2198 73.3782 22.224 73.3767 22.2278C73.3751 22.2317 73.3728 22.2352 73.3699 22.2382C73.367 22.2411 73.3636 22.2435 73.3597 22.2451C73.3559 22.2467 73.3518 22.2475 73.3477 22.2475L72.4282 22.247C72.4238 22.247 72.4196 22.2453 72.4165 22.2421C72.4134 22.239 72.4116 22.2348 72.4116 22.2304L72.4111 18.0212C72.4111 18.0023 72.4204 17.9928 72.439 17.9928L73.0981 17.9908C73.1114 17.9908 73.1242 17.9954 73.1344 18.0038C73.1447 18.0122 73.1517 18.0239 73.1543 18.0369L73.2827 18.6884C73.2836 18.6937 73.2864 18.6984 73.2905 18.7018C73.2946 18.7052 73.2998 18.707 73.3052 18.7071Z" fill="#10884B"/>
<path d="M87.1666 18.8094C86.9512 18.8702 86.9302 19.1039 87.0616 19.2631C87.1182 19.3313 87.2227 19.404 87.375 19.4811C87.6215 19.6055 87.8589 19.734 88.0875 19.8666C88.4068 20.0518 88.6299 20.3335 88.6812 20.7087C88.7437 21.1624 88.668 21.6601 88.3218 21.9736C87.7769 22.4679 86.6734 22.3807 86.0709 22.0981C86.057 22.0916 86.0453 22.0814 86.0371 22.0685C86.0289 22.0557 86.0245 22.0408 86.0245 22.0256L86.0235 21.1545C86.0235 21.15 86.0246 21.1456 86.0268 21.1417C86.029 21.1378 86.0322 21.1345 86.036 21.1322C86.0399 21.1298 86.0442 21.1286 86.0487 21.1284C86.0532 21.1283 86.0576 21.1294 86.0616 21.1315C86.4037 21.3095 86.7396 21.4192 87.0694 21.4607C87.3438 21.495 87.8003 21.4597 87.7417 21.0482C87.7154 20.865 87.5411 20.7474 87.3951 20.6656C87.1698 20.5396 86.941 20.4138 86.7085 20.2884C86.1828 20.0049 85.9559 19.55 86.0279 18.9236C86.077 18.4974 86.2995 18.2042 86.6954 18.0442C87.2989 17.8003 88.065 17.9134 88.6382 18.2407C88.6447 18.2444 88.6496 18.2502 88.6522 18.2572C88.6548 18.2642 88.6549 18.2719 88.6524 18.2789L88.3834 19.0573C88.382 19.0614 88.3797 19.0651 88.3767 19.0682C88.3738 19.0714 88.3701 19.0738 88.3661 19.0754C88.3621 19.077 88.3577 19.0777 88.3534 19.0774C88.349 19.0772 88.3447 19.076 88.3409 19.074C87.9966 18.8932 87.564 18.6972 87.1666 18.8094Z" fill="#10884B"/>
<path d="M90.5782 18.7985C90.3262 18.8441 90.2906 19.1322 90.4561 19.2826C90.5525 19.3698 90.6731 19.4481 90.8179 19.5177C91.08 19.6434 91.3184 19.7746 91.5333 19.9111C92.0352 20.2295 92.1553 20.7836 92.0445 21.3323C91.858 22.2528 90.962 22.3895 90.1651 22.3008C89.9157 22.2727 89.67 22.2012 89.4278 22.0862C89.4109 22.078 89.4024 22.0645 89.4024 22.0455L89.4029 21.1412C89.4028 21.1383 89.4036 21.1355 89.405 21.133C89.4064 21.1305 89.4085 21.1284 89.411 21.1269C89.4135 21.1254 89.4164 21.1246 89.4193 21.1245C89.4222 21.1245 89.4252 21.1252 89.4278 21.1265C89.8326 21.3381 90.3126 21.5037 90.7471 21.4626C91.0093 21.4381 91.1939 21.2495 91.0992 20.9751C91.0673 20.8834 90.9861 20.7978 90.8555 20.7184C90.6543 20.5963 90.432 20.4727 90.1885 20.3476C89.5865 20.0375 89.3238 19.5956 89.4083 18.9049C89.5088 18.0833 90.3033 17.8624 91.0269 17.9261C91.3632 17.9558 91.6924 18.0598 92.0147 18.2381C92.0213 18.2418 92.0264 18.2477 92.0292 18.2548C92.0319 18.2618 92.0322 18.2696 92.0298 18.2768L91.7613 19.0562C91.7599 19.0604 91.7576 19.0641 91.7546 19.0673C91.7516 19.0704 91.748 19.0729 91.7439 19.0745C91.7399 19.0762 91.7356 19.0769 91.7312 19.0767C91.7269 19.0765 91.7227 19.0754 91.7188 19.0734C91.3604 18.8872 90.9869 18.7246 90.5782 18.7985Z" fill="#10884B"/>
<path d="M93.8505 18.0306C94.5292 17.7783 95.3144 17.9297 95.7587 18.5347C95.9593 18.8081 96.0898 19.1342 96.1503 19.513C96.2714 20.2743 96.2084 21.1786 95.706 21.7837C95.3139 22.2564 94.6743 22.4073 94.0854 22.275C93.4619 22.1344 93.061 21.6382 92.8896 21.0292C92.623 20.0808 92.7319 18.447 93.8505 18.0306ZM93.7953 20.63C93.8456 20.9993 94.0146 21.3677 94.4438 21.3844C94.8214 21.3991 95.0556 21.1966 95.1464 20.7769C95.2252 20.4131 95.234 20.0183 95.1728 19.5924C95.1205 19.2279 94.955 18.8757 94.5351 18.8541C94.081 18.8306 93.8725 19.1407 93.8051 19.537C93.7465 19.8835 93.7433 20.2478 93.7953 20.63Z" fill="#10884B"/>
<path d="M98.8062 18.8648C97.9629 18.7399 97.8965 19.6922 97.9214 20.2933C97.9439 20.8391 98.1036 21.4431 98.7994 21.377C99.0992 21.3486 99.3762 21.233 99.6304 21.0301C99.6328 21.0282 99.6357 21.027 99.6388 21.0267C99.6419 21.0263 99.645 21.0269 99.6478 21.0282C99.6506 21.0295 99.6529 21.0316 99.6546 21.0342C99.6563 21.0368 99.6572 21.0398 99.6573 21.0429V21.983C99.6573 22.0006 99.6499 22.0147 99.6353 22.0251C99.274 22.2779 98.9068 22.3377 98.4742 22.3181C97.6299 22.2794 97.1475 21.7513 97.001 20.9454C96.816 19.9264 96.8985 18.2676 98.1978 17.9713C98.7336 17.8491 99.2499 17.9218 99.7466 18.1893C99.7531 18.1927 99.7582 18.1983 99.7609 18.2051C99.7637 18.2119 99.764 18.2195 99.7618 18.2265L99.4942 19.0716C99.4927 19.0761 99.4903 19.0802 99.4871 19.0837C99.4839 19.0871 99.4799 19.0899 99.4756 19.0916C99.4712 19.0934 99.4665 19.0942 99.4618 19.094C99.457 19.0937 99.4524 19.0924 99.4483 19.0902C99.2198 18.9693 99.0057 18.8942 98.8062 18.8648Z" fill="#10884B"/>
<path d="M113.586 22.3118C112.631 22.3808 111.99 21.7822 111.803 20.8818C111.598 19.8971 111.719 18.4005 112.861 18.0085C113.438 17.8101 114.127 17.9169 114.565 18.3671C115.065 18.881 115.183 19.6639 115.143 20.3845C115.089 21.3486 114.627 22.2363 113.586 22.3118ZM112.708 20.1244C112.712 20.5614 112.749 21.3143 113.337 21.3785C113.884 21.4378 114.083 21.0282 114.135 20.5672C114.192 20.0617 114.24 18.9178 113.514 18.8565C112.783 18.7948 112.705 19.5693 112.708 20.1244Z" fill="#10884B"/>
<path d="M116.978 18.5357C116.982 18.5379 116.985 18.5393 116.99 18.5399C116.994 18.5406 116.998 18.5403 117.002 18.5393C117.006 18.5382 117.01 18.5364 117.013 18.5338C117.016 18.5313 117.019 18.5281 117.021 18.5245C117.34 17.9464 118.059 17.7749 118.638 18.0194C119.166 18.2423 119.353 18.8056 119.356 19.3269C119.364 20.2926 119.364 21.2559 119.357 22.2168C119.357 22.2357 119.348 22.2452 119.329 22.2452L118.425 22.2447C118.402 22.2447 118.391 22.2334 118.391 22.2109C118.393 21.4757 118.393 20.7335 118.391 19.9843C118.391 19.6399 118.423 18.9614 117.968 18.863C117.694 18.8037 117.382 18.8943 117.251 19.154C117.138 19.3787 117.078 19.6517 117.071 19.9731C117.06 20.559 117.058 21.3046 117.066 22.2099C117.066 22.2331 117.055 22.2447 117.031 22.2447L116.126 22.2452C116.105 22.2452 116.095 22.2349 116.095 22.2143L116.096 18.0179C116.096 18.0115 116.098 18.0054 116.103 18.0009C116.107 17.9964 116.113 17.9939 116.119 17.9939L116.812 17.9934C116.818 17.9934 116.823 17.9953 116.828 17.9987C116.832 18.002 116.835 18.0067 116.836 18.012C116.877 18.1717 116.916 18.3342 116.952 18.4995C116.956 18.5155 116.964 18.5276 116.978 18.5357Z" fill="#10884B"/>
<path d="M110.713 17.9902H109.81C109.791 17.9902 109.776 18.0056 109.776 18.0245V22.2131C109.776 22.232 109.791 22.2474 109.81 22.2474H110.713C110.732 22.2474 110.748 22.232 110.748 22.2131V18.0245C110.748 18.0056 110.732 17.9902 110.713 17.9902Z" fill="#10884B"/>
<path d="M101.555 17.9917H100.646C100.63 17.9917 100.617 18.0051 100.617 18.0216V22.216C100.617 22.2325 100.63 22.2459 100.646 22.2459H101.555C101.571 22.2459 101.584 22.2325 101.584 22.216V18.0216C101.584 18.0051 101.571 17.9917 101.555 17.9917Z" fill="#10884B"/>
<path d="M32.7261 39.0224C32.6284 39.1207 32.5275 39.2103 32.4233 39.2913C32.061 39.5735 31.7685 39.3506 31.4907 39.0704C29.8706 37.4361 28.2471 35.8067 26.6201 34.1822C26.6003 34.1626 26.6042 34.1556 26.6318 34.1612C26.9224 34.2214 27.2202 34.2832 27.5205 34.2993C28.0283 34.3271 28.4827 34.3227 28.8838 34.2861C29.626 34.2185 30.4536 34.0382 31.1763 33.7644C32.0298 33.4405 32.8809 32.9972 33.5796 32.4005C34.1885 31.8812 34.7749 31.2934 35.2456 30.6477C35.8094 29.8746 36.2306 29.0127 36.5093 28.062C36.6141 27.7047 36.6945 27.3607 36.7505 27.0298C36.9569 25.8084 36.9082 24.5851 36.6045 23.3601C36.5054 22.9608 36.3384 22.5116 36.1977 22.0917C36.1929 22.077 36.196 22.0641 36.207 22.053C36.5817 21.6722 36.9507 21.3023 37.314 20.9434C37.4468 20.8118 37.5994 20.7328 37.772 20.7063C37.9634 20.6769 38.2021 20.8572 38.3291 20.9846C40.2477 22.9102 42.1269 24.7964 43.9668 26.6433C44.0631 26.7403 44.1458 26.8505 44.2148 26.974C44.3535 27.2228 44.2207 27.4771 44.0386 27.6598C40.2811 31.4326 36.5102 35.2202 32.7261 39.0224Z" fill="#10884B"/>
<path d="M35.4043 22.8545C35.4818 23.0155 35.5415 23.1799 35.5835 23.3478C35.6421 23.581 35.7256 23.8279 35.7617 24.0532C35.8675 24.7179 35.9188 25.2087 35.9155 25.5259C35.898 27.1291 35.4505 28.5865 34.5733 29.8981C34.2305 30.411 33.7676 30.9548 33.292 31.3874C32.2393 32.344 30.9819 32.9559 29.52 33.223C29.3882 33.2472 29.2477 33.2692 29.0986 33.2892C28.9525 33.3087 28.8114 33.3221 28.6753 33.3293C28.1737 33.3558 27.7611 33.3517 27.4375 33.3171C26.9343 33.2629 26.4121 33.1602 25.8711 33.0089C25.8008 32.9893 25.7271 32.956 25.6499 32.909C25.6356 32.9002 25.6299 32.8874 25.6328 32.8708C25.6628 32.7108 25.7357 32.5726 25.8516 32.4563C28.9889 29.309 32.1279 26.1544 35.2686 22.9926C35.3109 22.9502 35.348 22.9036 35.3799 22.853C35.3813 22.8509 35.3832 22.8491 35.3855 22.848C35.3878 22.8468 35.3903 22.8463 35.3928 22.8465C35.3953 22.8466 35.3977 22.8474 35.3997 22.8488C35.4017 22.8503 35.4033 22.8522 35.4043 22.8545Z" fill="#10884B"/>
<path d="M71.9038 27.3944C71.8963 27.5126 71.9217 27.5203 71.98 27.4174C72.2515 26.9388 72.7617 26.7796 73.2808 26.8893C74.0195 27.0461 74.2402 27.7026 74.2397 28.4036C74.2391 29.3128 74.2389 30.2348 74.2393 31.1695C74.2393 31.1819 74.2331 31.1881 74.2207 31.1881L73.2944 31.1876C73.2874 31.1876 73.2807 31.1849 73.2758 31.1799C73.2708 31.1749 73.2681 31.1682 73.2681 31.1612C73.2707 30.2474 73.2699 29.3821 73.2656 28.5653C73.2642 28.2508 73.1528 27.8334 72.7842 27.7952C71.9673 27.7109 71.9414 28.6485 71.9414 29.1992C71.9411 29.8357 71.9414 30.493 71.9424 31.171C71.9424 31.1821 71.9368 31.1876 71.9258 31.1876L71.001 31.1881C70.9821 31.1885 70.9727 31.179 70.9727 31.1597V25.2977C70.9727 25.2913 70.9752 25.2852 70.9797 25.2807C70.9841 25.2762 70.9902 25.2737 70.9966 25.2737L71.9048 25.2752C71.9129 25.2752 71.9207 25.2784 71.9265 25.2841C71.9324 25.2899 71.9358 25.2977 71.936 25.306C71.9536 26.0725 71.9429 26.7687 71.9038 27.3944Z" fill="#10884B"/>
<path d="M103.849 25.2763L103.728 25.2767C103.473 25.2776 103.267 25.4856 103.268 25.7413L103.269 25.9451C103.27 26.2007 103.477 26.4073 103.732 26.4064L103.853 26.406C104.108 26.4051 104.314 26.1971 104.313 25.9414L104.312 25.7376C104.311 25.4819 104.104 25.2754 103.849 25.2763Z" fill="#10884B"/>
<path d="M89.9351 26.5429C89.4517 26.5948 89.3413 27.2106 89.6436 27.507C89.7817 27.6422 89.9565 27.7499 90.1255 27.845C90.6836 28.16 91.2954 28.5186 91.4331 29.1976C91.4855 29.4553 91.4928 29.7064 91.4551 29.951C91.229 31.4231 89.542 31.5152 88.4873 30.9435C88.4801 30.9397 88.474 30.9339 88.4698 30.9269C88.4656 30.9198 88.4634 30.9117 88.4634 30.9034L88.4629 29.8717C88.4629 29.8446 88.4749 29.8372 88.499 29.8496C88.7402 29.9741 88.9738 30.0794 89.1997 30.1656C89.5078 30.2832 90.0225 30.3728 90.3086 30.1656C90.5483 29.9917 90.5693 29.5929 90.4175 29.3749C90.3413 29.2655 90.2406 29.1714 90.1152 29.0927C89.901 28.9579 89.6838 28.8256 89.4634 28.6959C88.791 28.3011 88.4727 27.7558 88.5234 26.9671C88.5747 26.1818 89.0513 25.6468 89.8633 25.5621C90.4219 25.5038 90.9292 25.6674 91.4229 25.9236C91.4321 25.9283 91.4394 25.9363 91.4433 25.9461C91.4471 25.956 91.4473 25.9669 91.4439 25.977L91.1455 26.8427C91.1448 26.845 91.1435 26.8472 91.1418 26.849C91.1401 26.8508 91.138 26.8522 91.1357 26.8531C91.1334 26.8541 91.1309 26.8545 91.1284 26.8544C91.1258 26.8542 91.1234 26.8536 91.1211 26.8525C90.7544 26.6688 90.3438 26.4993 89.9351 26.5429Z" fill="#10884B"/>
<path d="M55.0615 26.8338C55.055 26.8338 55.0508 26.8366 55.0488 26.8421C55.0475 26.8454 55.0469 26.8488 55.0469 26.8524C55.0659 27.3947 55.1001 27.9645 55.1021 28.497C55.1056 29.3491 55.1069 30.2349 55.106 31.1546C55.106 31.1768 55.0951 31.1879 55.0732 31.1879L54.2529 31.1875C54.2341 31.1875 54.2246 31.178 54.2246 31.159V25.6473C54.2246 25.6451 54.225 25.6429 54.2259 25.6409C54.2267 25.6389 54.2279 25.637 54.2295 25.6355C54.231 25.6339 54.2328 25.6327 54.2349 25.6319C54.2369 25.631 54.239 25.6306 54.2412 25.6306L55.5488 25.6301C55.5527 25.6301 55.5565 25.6314 55.5596 25.6338C55.5627 25.6362 55.5649 25.6396 55.5659 25.6434L56.6406 29.8192C56.6563 29.8793 56.6722 29.8794 56.6885 29.8197L57.8291 25.6438C57.8314 25.6347 57.8371 25.6301 57.8462 25.6301H59.1494C59.1618 25.6301 59.168 25.6365 59.168 25.6492L59.1694 31.1566C59.1694 31.1772 59.1592 31.1875 59.1387 31.1875L58.2905 31.1879C58.269 31.1879 58.2583 31.1773 58.2583 31.1561C58.2378 29.609 58.2498 28.1772 58.2944 26.8607C58.2954 26.8317 58.2881 26.8294 58.2725 26.8539C58.2673 26.862 58.2633 26.871 58.2607 26.8808C57.8701 28.3123 57.4795 29.7402 57.0889 31.1644C57.0869 31.1712 57.0828 31.1772 57.0772 31.1814C57.0717 31.1857 57.065 31.188 57.0581 31.1879H56.2085C56.1912 31.1879 56.1805 31.1796 56.1763 31.163L55.0737 26.8431C55.0731 26.8404 55.0715 26.8381 55.0693 26.8364C55.0671 26.8347 55.0644 26.8338 55.0615 26.8338Z" fill="#10884B"/>
<path d="M84.9258 27.8451C84.929 28.4356 84.9287 29.0734 84.9248 29.7586C84.9242 29.8742 84.9346 29.9728 84.9561 30.0545C85.0713 30.4969 85.6523 30.3112 85.9365 30.2127C85.9391 30.2119 85.9418 30.2116 85.9445 30.212C85.9471 30.2125 85.9497 30.2135 85.9519 30.2151C85.954 30.2166 85.9558 30.2187 85.9571 30.2211C85.9583 30.2235 85.959 30.2262 85.959 30.2289L85.9565 31.0401C85.9565 31.0501 85.9536 31.0598 85.9481 31.0682C85.9427 31.0765 85.9349 31.0831 85.9258 31.0872C85.6367 31.2152 85.3322 31.2732 85.0122 31.2611C84.1987 31.2302 83.9609 30.6316 83.9605 29.9041C83.9598 29.1817 83.9601 28.4948 83.9614 27.8436C83.9614 27.8204 83.9499 27.8088 83.9268 27.8088L83.5327 27.8078C83.5103 27.8078 83.499 27.7967 83.499 27.7745L83.5 27.3498C83.5003 27.3266 83.5098 27.3082 83.5283 27.2944C83.6716 27.1906 83.8149 27.0867 83.9585 26.9829C84.0077 26.9469 84.0415 26.8984 84.0601 26.8374C84.1437 26.5611 84.2235 26.3024 84.2993 26.0614C84.3058 26.0411 84.3197 26.031 84.3408 26.031L84.8911 26.0315C84.9146 26.0315 84.9264 26.0433 84.9268 26.0668L84.9287 26.8986C84.929 26.9241 84.9419 26.9368 84.9673 26.9368H85.8936C85.9085 26.9368 85.916 26.9442 85.916 26.9589V27.7829C85.916 27.8005 85.9072 27.8093 85.8897 27.8093L84.9619 27.8083C84.9378 27.8083 84.9258 27.8206 84.9258 27.8451Z" fill="#10884B"/>
<path d="M77.4418 30.6154C77.4409 30.6125 77.4392 30.6099 77.4369 30.6079C77.4345 30.606 77.4317 30.6047 77.4287 30.6043C77.4257 30.6039 77.4226 30.6043 77.4198 30.6056C77.4171 30.6069 77.4147 30.6089 77.413 30.6115C77.2182 30.9137 76.978 31.1547 76.6123 31.2287C75.7426 31.4036 75.1977 30.9367 75.1513 30.0652C75.0747 28.62 76.2314 28.5456 77.3149 28.5451C77.3213 28.5451 77.3274 28.5427 77.332 28.5383C77.3366 28.5339 77.3394 28.5279 77.3398 28.5216C77.3662 28.1052 77.2861 27.7084 76.7763 27.7123C76.4448 27.7147 76.1166 27.848 75.8266 28.0033C75.8228 28.0053 75.8186 28.0065 75.8143 28.0068C75.81 28.0071 75.8057 28.0065 75.8016 28.005C75.7976 28.0036 75.7939 28.0012 75.7908 27.9982C75.7877 27.9952 75.7853 27.9916 75.7836 27.9876L75.4892 27.2635C75.4856 27.2545 75.4853 27.2445 75.4884 27.2353C75.4916 27.2262 75.4979 27.2184 75.5063 27.2136C75.9148 26.9771 76.3444 26.8559 76.7949 26.8501C77.7583 26.8378 78.3017 27.3478 78.3032 28.3207C78.3042 29.2816 78.3048 30.2271 78.3051 31.1572C78.3051 31.1774 78.295 31.1876 78.2749 31.1876L77.6552 31.1881C77.6469 31.1881 77.6387 31.1854 77.632 31.1805C77.6252 31.1755 77.6202 31.1686 77.6176 31.1606L77.4418 30.6154ZM77.3159 29.2172C76.8627 29.254 76.2236 29.1775 76.1484 29.8188C76.1225 30.0373 76.1572 30.2857 76.3916 30.3719C76.8476 30.5394 77.2778 30.2009 77.3276 29.7336C77.3455 29.565 77.3494 29.3998 77.3393 29.2378C77.3392 29.2349 77.3385 29.232 77.3372 29.2294C77.336 29.2267 77.3342 29.2244 77.332 29.2225C77.3298 29.2205 77.3272 29.2191 77.3245 29.2182C77.3217 29.2173 77.3188 29.217 77.3159 29.2172Z" fill="#10884B"/>
<path d="M61.1684 29.3769C61.1899 29.8967 61.4345 30.3822 62.0122 30.3954C62.4472 30.4057 62.8481 30.2891 63.2173 30.0775C63.2205 30.0756 63.2242 30.0746 63.228 30.0746C63.2317 30.0746 63.2355 30.0756 63.2387 30.0775C63.242 30.0793 63.2447 30.0821 63.2466 30.0853C63.2485 30.0886 63.2495 30.0923 63.2495 30.0961L63.2485 30.9387C63.2485 30.947 63.2463 30.9552 63.2421 30.9623C63.2379 30.9695 63.2318 30.9753 63.2246 30.9794C62.6987 31.2772 61.957 31.3502 61.396 31.1729C60.7011 30.9534 60.3252 30.3454 60.2285 29.6424C60.0639 28.4525 60.3598 26.8574 61.8813 26.8599C62.9336 26.8613 63.4214 27.6995 63.4443 28.6529C63.4498 28.8795 63.4507 29.1067 63.4467 29.3343C63.4467 29.3395 63.4447 29.3445 63.441 29.3482C63.4374 29.3518 63.4324 29.3539 63.4272 29.3539L61.1914 29.3534C61.1883 29.3534 61.1852 29.354 61.1824 29.3552C61.1795 29.3564 61.1769 29.3582 61.1748 29.3604C61.1726 29.3626 61.171 29.3652 61.1699 29.368C61.1688 29.3709 61.1683 29.3739 61.1684 29.3769ZM61.2153 28.576L62.5258 28.5809C62.5288 28.5809 62.5317 28.5797 62.5338 28.5776C62.5359 28.5754 62.5371 28.5726 62.5371 28.5696V28.4956C62.5375 28.3897 62.5217 28.2848 62.4907 28.1868C62.4597 28.0889 62.414 27.9998 62.3563 27.9247C62.2985 27.8496 62.2299 27.7899 62.1543 27.7491C62.0787 27.7083 61.9975 27.6871 61.9155 27.6868H61.8315C61.6659 27.6862 61.5067 27.7705 61.3891 27.9213C61.2714 28.072 61.2049 28.2769 61.2041 28.4907V28.5647C61.2041 28.5677 61.2053 28.5705 61.2074 28.5727C61.2095 28.5748 61.2123 28.576 61.2153 28.576Z" fill="#10884B"/>
<path d="M65.2432 27.6183C65.2542 27.6761 65.2741 27.6794 65.3027 27.6281C65.603 27.0897 66.0103 26.7541 66.6367 26.8854C66.6477 26.8877 66.6575 26.894 66.6642 26.903C66.6709 26.912 66.6742 26.9232 66.6733 26.9344L66.605 27.9421C66.6034 27.9656 66.5911 27.9751 66.5684 27.9705C66.3245 27.9215 66.0993 27.94 65.8926 28.0259C65.4688 28.2013 65.3423 28.6088 65.3433 29.0395C65.3446 29.7243 65.3444 30.4306 65.3428 31.1582C65.3424 31.1782 65.3324 31.1881 65.3125 31.1881H64.3877C64.3842 31.1881 64.3808 31.1867 64.3784 31.1842C64.3759 31.1818 64.3745 31.1784 64.3745 31.1749L64.375 26.9711C64.375 26.9483 64.3864 26.9368 64.4092 26.9368L65.0757 26.9373C65.0851 26.9374 65.0942 26.9406 65.1015 26.9466C65.1088 26.9526 65.1138 26.9609 65.1157 26.9702L65.2432 27.6183Z" fill="#10884B"/>
<path d="M68.3447 28.4015C68.2266 28.9066 68.1475 30.2426 68.9477 30.316C69.3252 30.3508 69.6792 30.2107 69.98 29.977C70.0028 29.9594 70.0142 29.9651 70.0142 29.9942V30.926C70.0141 30.9332 70.0124 30.9404 70.0091 30.9469C70.0058 30.9533 70.001 30.9589 69.9951 30.9632C69.5903 31.2645 69.0122 31.3237 68.5215 31.2218C67.3262 30.973 67.2178 29.5817 67.3125 28.6039C67.376 27.945 67.6455 27.2988 68.2544 27.0176C68.8203 26.756 69.5605 26.8207 70.102 27.1352C70.1084 27.1389 70.1134 27.1447 70.116 27.1518C70.1187 27.1588 70.1189 27.1666 70.1167 27.1739L69.8511 28.0111C69.8496 28.0157 69.8472 28.0199 69.844 28.0235C69.8408 28.0271 69.8369 28.0299 69.8325 28.0317C69.8281 28.0336 69.8234 28.0345 69.8187 28.0343C69.814 28.0341 69.8094 28.0329 69.8052 28.0307C69.2563 27.7505 68.5366 27.582 68.3447 28.4015Z" fill="#10884B"/>
<path d="M80.3022 27.4336C80.3188 27.5051 80.3454 27.509 80.3818 27.4453C80.6655 26.9496 81.2446 26.7693 81.7769 26.8937C82.4961 27.0618 82.7114 27.6913 82.7114 28.385C82.7111 29.2949 82.7113 30.2194 82.7119 31.1587C82.7119 31.1783 82.702 31.1881 82.6821 31.1881H81.7788C81.7567 31.1881 81.7456 31.177 81.7456 31.1548C81.7463 30.4441 81.7463 29.7096 81.7456 28.9513C81.7451 28.5501 81.7881 27.7981 81.186 27.7888C80.8224 27.7829 80.5955 27.9686 80.5054 28.3458C80.4465 28.5933 80.4167 28.8332 80.416 29.0654C80.415 29.7238 80.4149 30.4255 80.4155 31.1705C80.4155 31.1822 80.4097 31.1881 80.3979 31.1881H79.4609C79.4508 31.1881 79.4458 31.1829 79.4458 31.1724V26.9736C79.4458 26.9494 79.458 26.9373 79.4824 26.9373H80.1548C80.1772 26.9373 80.1909 26.9483 80.1958 26.9702L80.3022 27.4336Z" fill="#10884B"/>
<path d="M93.1568 29.3774C93.1919 29.9569 93.4498 30.412 94.0923 30.3968C94.5035 30.3865 94.8501 30.2743 95.2007 30.0833C95.2248 30.0702 95.2369 30.0776 95.2369 30.1053V30.9372C95.2369 30.9453 95.2347 30.9534 95.2306 30.9604C95.2265 30.9675 95.2205 30.9733 95.2134 30.9773C94.7842 31.2228 94.2896 31.2914 93.8042 31.2556C92.8873 31.1875 92.3365 30.5168 92.2164 29.6385C92.1089 28.8517 92.1871 27.7029 92.8887 27.1694C93.2354 26.9059 93.6524 26.8097 94.1397 26.8809C94.7413 26.969 95.1495 27.3835 95.3252 27.9655C95.4595 28.4103 95.441 28.863 95.4385 29.3264C95.4384 29.3337 95.4354 29.3407 95.4302 29.3458C95.425 29.351 95.418 29.3538 95.4107 29.3538L93.1797 29.3529C93.1766 29.3529 93.1735 29.3535 93.1706 29.3547C93.1677 29.356 93.1651 29.3578 93.163 29.3601C93.1608 29.3624 93.1591 29.3651 93.1581 29.3681C93.157 29.3711 93.1566 29.3742 93.1568 29.3774ZM93.2017 28.5779L94.5162 28.5798C94.519 28.5798 94.5217 28.5787 94.5238 28.5767C94.5258 28.5746 94.5269 28.5719 94.5269 28.569L94.5274 28.5063C94.5277 28.2894 94.4625 28.0812 94.3459 27.9276C94.2293 27.774 94.071 27.6875 93.9058 27.6872H93.816C93.7341 27.6871 93.6531 27.7081 93.5774 27.7491C93.5017 27.7901 93.4329 27.8502 93.3749 27.9261C93.3169 28.002 93.2709 28.0921 93.2394 28.1913C93.2079 28.2905 93.1916 28.3969 93.1914 28.5044L93.191 28.5671C93.191 28.5699 93.1921 28.5727 93.1941 28.5747C93.1961 28.5767 93.1989 28.5779 93.2017 28.5779Z" fill="#10884B"/>
<path d="M97.2261 27.5909C97.2433 27.679 97.272 27.683 97.312 27.6026C97.5718 27.0843 98.0356 26.7527 98.6313 26.8864C98.6412 26.8886 98.6499 26.8943 98.6559 26.9024C98.6619 26.9104 98.6648 26.9204 98.6641 26.9305L98.5937 27.9455C98.5921 27.9668 98.5811 27.9753 98.5605 27.971C97.8423 27.8192 97.3369 28.2556 97.3345 28.9733C97.3325 29.6429 97.332 30.3756 97.333 31.1715C97.333 31.1758 97.3313 31.1799 97.3283 31.1829C97.3253 31.1859 97.3212 31.1876 97.3169 31.1876L96.3916 31.1886C96.3727 31.1886 96.3633 31.179 96.3633 31.1597L96.3638 26.9618C96.3638 26.9452 96.3721 26.9369 96.3887 26.9369L97.0718 26.9373C97.0793 26.9373 97.0866 26.94 97.0924 26.9448C97.0982 26.9496 97.1021 26.9564 97.1035 26.9638L97.2261 27.5909Z" fill="#10884B"/>
<path d="M107.057 27.8008C106.19 27.7053 106.174 28.7855 106.215 29.3562C106.257 29.9461 106.495 30.4129 107.177 30.3071C107.467 30.262 107.673 30.1415 107.913 29.9804C107.934 29.966 107.944 29.9717 107.944 29.9975L107.945 30.9175C107.945 30.9348 107.938 30.9487 107.925 30.9592C107.749 31.0967 107.549 31.1853 107.325 31.2252C106.707 31.3349 106.028 31.2379 105.637 30.723C105.216 30.168 105.178 29.3386 105.239 28.6336C105.298 27.9507 105.578 27.2791 106.218 27.0028C106.774 26.7623 107.495 26.8215 108.03 27.1351C108.037 27.1391 108.042 27.1453 108.045 27.1526C108.048 27.1599 108.048 27.1679 108.045 27.1752L107.784 28.0032C107.782 28.009 107.779 28.0145 107.775 28.019C107.771 28.0236 107.766 28.0272 107.76 28.0296C107.755 28.032 107.749 28.0331 107.743 28.0328C107.736 28.0326 107.731 28.031 107.725 28.0281C107.477 27.8985 107.255 27.8227 107.057 27.8008Z" fill="#10884B"/>
<path d="M109.698 29.3887C109.733 29.9271 109.978 30.3876 110.558 30.3964C111.002 30.4028 111.361 30.2832 111.742 30.0824C111.767 30.0696 111.779 30.077 111.779 30.1044L111.779 30.9387C111.779 30.9567 111.771 30.9702 111.755 30.9794C111.404 31.1799 110.985 31.2748 110.5 31.264C109.084 31.2326 108.652 30.0427 108.726 28.8155C108.788 27.7921 109.25 26.8643 110.402 26.8594C111.121 26.8565 111.641 27.2601 111.855 27.9249C112.001 28.3766 111.985 28.8591 111.976 29.3333C111.976 29.3388 111.973 29.3441 111.969 29.3479C111.966 29.3518 111.96 29.3539 111.955 29.3539L109.731 29.3534C109.708 29.3534 109.696 29.3652 109.698 29.3887ZM109.747 28.5774L111.055 28.5794C111.059 28.5794 111.062 28.578 111.065 28.5755C111.067 28.573 111.068 28.5697 111.068 28.5662L111.069 28.503C111.069 28.2868 111.004 28.0794 110.887 27.9263C110.769 27.7733 110.61 27.6871 110.444 27.6868H110.361C110.279 27.6867 110.198 27.7076 110.122 27.7484C110.046 27.7893 109.977 27.8492 109.918 27.9248C109.86 28.0004 109.814 28.0902 109.782 28.1891C109.75 28.288 109.734 28.394 109.734 28.501L109.733 28.5642C109.733 28.5677 109.735 28.5711 109.737 28.5736C109.74 28.576 109.743 28.5774 109.747 28.5774Z" fill="#10884B"/>
<path d="M113.687 27.862C113.569 28.082 113.754 28.2647 113.941 28.3652C114.139 28.4716 114.337 28.5755 114.534 28.6767C114.914 28.8712 115.253 29.1255 115.338 29.5664C115.402 29.9008 115.381 30.2104 115.277 30.4952C114.921 31.4642 113.461 31.3736 112.725 31.0316C112.716 31.0278 112.71 31.0217 112.705 31.014C112.7 31.0062 112.697 30.9972 112.697 30.988L112.696 30.094C112.696 30.0897 112.698 30.0855 112.7 30.0817C112.702 30.078 112.705 30.0748 112.708 30.0726C112.712 30.0703 112.716 30.069 112.721 30.0688C112.725 30.0687 112.729 30.0695 112.733 30.0715C113.165 30.2963 113.675 30.4634 114.1 30.3953C114.439 30.3409 114.532 29.9617 114.271 29.7471C114.188 29.6795 114.103 29.6229 114.016 29.5772C113.775 29.4508 113.543 29.3221 113.32 29.1911C113.009 29.0079 112.817 28.7736 112.745 28.4881C112.531 27.644 112.908 26.9783 113.799 26.8754C114.335 26.814 114.841 26.9166 115.316 27.1831C115.322 27.186 115.326 27.1907 115.328 27.1963C115.33 27.202 115.33 27.2082 115.328 27.2139L115.053 28.0061C115.052 28.0092 115.05 28.0121 115.048 28.0145C115.045 28.0169 115.043 28.0188 115.039 28.02C115.036 28.0212 115.033 28.0217 115.03 28.0215C115.027 28.0213 115.023 28.0204 115.021 28.0188C114.822 27.9133 114.632 27.8318 114.451 27.7744C114.28 27.7205 113.8 27.6519 113.687 27.862Z" fill="#10884B"/>
<path d="M100.804 30.198C100.846 29.8967 100.875 29.6096 100.959 29.3137C101.178 28.5361 101.399 27.7521 101.621 26.9618C101.622 26.9547 101.627 26.9485 101.632 26.9441C101.638 26.9397 101.645 26.9373 101.653 26.9373L102.617 26.9368C102.619 26.9368 102.622 26.9375 102.624 26.9387C102.627 26.9399 102.629 26.9416 102.63 26.9438C102.632 26.9459 102.633 26.9484 102.633 26.951C102.634 26.9536 102.634 26.9563 102.633 26.9588L101.3 31.1601C101.298 31.1684 101.292 31.1756 101.286 31.1807C101.279 31.1858 101.271 31.1886 101.262 31.1885L100.333 31.188C100.312 31.188 100.298 31.1779 100.292 31.1577L98.9614 26.9598C98.9605 26.9571 98.9604 26.9542 98.9608 26.9514C98.9613 26.9487 98.9624 26.946 98.964 26.9437C98.9657 26.9414 98.9679 26.9396 98.9704 26.9383C98.9729 26.937 98.9757 26.9363 98.9785 26.9363L99.9306 26.9368C99.9544 26.9371 99.9695 26.9487 99.976 26.9716C100.184 27.7168 100.399 28.4812 100.62 29.2647C100.711 29.5876 100.753 29.8702 100.786 30.1975C100.791 30.2448 100.797 30.245 100.804 30.198Z" fill="#10884B"/>
<path d="M104.254 26.9353H103.325C103.314 26.9353 103.306 26.9439 103.306 26.9544V31.1675C103.306 31.178 103.314 31.1866 103.325 31.1866H104.254C104.265 31.1866 104.273 31.178 104.273 31.1675V26.9544C104.273 26.9439 104.265 26.9353 104.254 26.9353Z" fill="#10884B"/>
</g>
<defs>
<clipPath id="clip0_575_2296">
<rect width="100" height="31.5" fill="white" transform="translate(20 8)"/>
</clipPath>
</defs>
</svg>
