<svg width="494" height="264" viewBox="0 0 494 264" fill="none" xmlns="http://www.w3.org/2000/svg">
<mask id="mask0_3914_1662" style="mask-type:luminance" maskUnits="userSpaceOnUse" x="150" y="0" width="262" height="263">
<path d="M150.971 139.391C146.831 67.0906 201.749 5.10359 273.629 0.937587C345.515 -3.22641 407.134 52.0076 411.275 124.318C415.415 196.598 360.51 258.59 288.623 262.748C216.737 266.913 155.113 211.678 150.971 139.391Z" fill="white"/>
</mask>
<g mask="url(#mask0_3914_1662)">
<path fill-rule="evenodd" clip-rule="evenodd" d="M150.731 0.617188H411.491V263.057H150.731V0.617188Z" fill="#EAB044"/>
</g>
<mask id="mask1_3914_1662" style="mask-type:luminance" maskUnits="userSpaceOnUse" x="156" y="6" width="250" height="251">
<path d="M405.167 124.663C409.114 193.559 356.779 252.638 288.265 256.606C219.765 260.568 161.025 207.926 157.078 139.031C153.131 70.1208 205.481 11.0428 273.981 7.07381C342.494 3.11381 401.221 55.7538 405.167 124.664V124.663Z" fill="white"/>
</mask>
<g mask="url(#mask1_3914_1662)">
<path fill-rule="evenodd" clip-rule="evenodd" d="M153.131 3.11328H409.113V260.568H153.133V3.11328H153.131Z" fill="#002D62"/>
</g>
<mask id="mask2_3914_1662" style="mask-type:luminance" maskUnits="userSpaceOnUse" x="166" y="16" width="230" height="232">
<path d="M395.741 125.213C397.218 150.968 390.173 175.249 377.079 195.275C367.151 166.54 334.942 134.825 307.819 108.888C283.526 86.736 273.564 68.708 271.897 54.538C317.707 53.175 362.307 75.068 394.613 114.376C395.153 117.932 395.533 121.553 395.74 125.213H395.741ZM370.556 204.265C355.972 222.475 335.946 236.208 312.791 242.862C248.739 195.602 237.338 110.787 243.881 58.302C250.203 56.782 256.544 55.716 262.879 55.107C264.221 70.867 274.201 90.457 299.405 113.417C326.991 139.797 361.025 174.677 370.555 204.257L370.556 204.265ZM303.162 245.193C298.122 246.175 292.982 246.829 287.712 247.137C253.302 249.127 221.542 235.647 199.152 212.707C187.112 188.767 184.782 151.147 192.912 126.027C197.252 112.59 209.942 94.357 213.842 80.737C215.277 75.737 216.592 71.497 217.472 67.5C223.572 64.692 229.722 62.36 235.915 60.475C228.885 114.175 239.21 198.845 303.173 245.185L303.162 245.193ZM183.662 192.943C173.791 177.05 167.631 158.518 166.501 138.493C165.733 125.135 167.256 112.176 170.727 100.003C182.859 88.293 195.621 78.976 208.721 71.89L208.591 72.375C204.381 88.523 193.741 102.058 187.633 117.158C177.833 141.348 178.127 169.382 183.661 192.943H183.662ZM171.141 98.555C171.396 97.71 171.656 96.865 171.929 96.035C171.819 96.945 171.579 97.743 171.142 98.555H171.141ZM176.064 85.177C183.064 69.277 193.546 55.197 206.594 43.987C210.494 47.777 211.001 55.307 210.369 62.157C198.735 68.067 187.256 75.707 176.064 85.177V85.177ZM213.007 38.857C222.949 31.457 234.141 25.657 246.244 21.777C242.684 28.797 239.512 39.067 237.292 51.497C231.022 53.291 224.772 55.547 218.552 58.277C218.522 52.607 217.002 46.64 213.012 38.853L213.007 38.857ZM255.014 19.368C261.317 17.894 267.827 16.944 274.514 16.552C277.314 16.384 280.094 16.325 282.861 16.357C273.264 22.467 264.611 32.697 262.991 46.637C257.071 47.197 251.141 48.137 245.201 49.467C247.527 36.257 251.031 25.747 255.014 19.357V19.368ZM296.614 17.398C340.424 23.348 376.93 54.348 390.388 96.298C357.254 63.831 315.298 44.808 271.891 46.098C273.733 31.458 285.153 22.02 296.613 17.398H296.614Z" fill="white"/>
</mask>
<g mask="url(#mask2_3914_1662)">
<path fill-rule="evenodd" clip-rule="evenodd" d="M165.726 16.334H397.219V249.128H165.726V16.334Z" fill="#860038"/>
</g>
<mask id="mask3_3914_1662" style="mask-type:luminance" maskUnits="userSpaceOnUse" x="0" y="49" width="494" height="215">
<path d="M0.611562 99.6874C26.1866 93.8434 52.1986 100.355 81.6896 107.997L114.212 116.235C156.415 91.1954 210.202 75.9694 254.429 95.3524L440.855 49.2324L433.009 72.9564L493.644 58.2764L473.422 108.986C478.852 133.266 473.33 150.956 457.575 163.536C457.548 163.756 457.541 163.976 457.515 164.206C457.118 179.786 427.775 187.056 418.978 193.726L466.968 206.696C478.273 202.806 488.455 204.311 488.5 204.481C489.992 211.744 480.473 244.191 461.376 239.471L460.036 236.215C442.261 251.775 420.794 254.275 401.276 240.262C401.028 245.737 401.054 249.732 401.516 255.206C399.614 254.896 398.521 254.649 397.016 254.356C371.306 250.176 359.749 233.136 361.336 208.016C361.356 207.686 361.39 207.436 361.461 207.253L316.131 195.313C296.973 199.23 272.244 208.293 250.901 226.399L246.643 229.679C246.643 229.679 246.636 210.186 256.453 197.049L185.773 215.687C160.003 248.012 129.51 262.912 104.877 263.66H101.003C62.8286 262.474 40.9186 225.872 77.9326 167.06L51.2816 171.307L58.6516 162.277C65.9816 153.267 75.6576 143.89 86.9916 134.917L75.5516 131.907C46.0716 124.247 20.1816 117.307 0.601562 99.7574V99.6874H0.611562Z" fill="white"/>
</mask>
<g mask="url(#mask3_3914_1662)">
<path fill-rule="evenodd" clip-rule="evenodd" d="M0.611328 49.2178H493.691V263.658H0.611328V49.2178Z" fill="#EAB044"/>
</g>
<mask id="mask4_3914_1662" style="mask-type:luminance" maskUnits="userSpaceOnUse" x="323" y="163" width="163" height="89">
<path d="M485.382 208.487C474.815 206.589 467.822 211.009 467.602 210.997C467.438 210.983 430.867 201.095 417.402 197.434L410.326 195.517C414.876 189.307 423.666 186.643 432.483 182.707C436.303 180.997 441.543 178.994 445.473 176.231C452.543 171.247 453.553 167.973 453.603 167.973C440.707 168.393 428.543 164.889 426.403 164.443C420.722 163.259 415.069 163.031 409.602 163.633C409.412 163.653 409.232 163.673 409.049 163.699C394.393 165.459 381.229 173.266 373.402 184.765C373.402 184.765 372.445 186.029 372.119 186.389C371.091 187.535 369.639 189.284 369.639 189.284L373.936 190.404C376.899 190.914 375.232 197.404 371.299 196.374L352.437 191.417C345.074 192.037 337.391 192.647 332.182 193.027C329.499 193.224 326.542 193.544 323.367 194.023L365.179 205.083C362.192 232.52 376.832 249.407 397.499 251.083C397.459 248.293 397.389 242.407 397.537 231.903C397.537 231.903 427.273 263.99 461.383 229.481C461.633 229.258 464.263 235.996 464.263 235.996C479.283 237.746 485.903 208.546 485.393 208.486L485.382 208.487Z" fill="white"/>
</mask>
<g mask="url(#mask4_3914_1662)">
<path fill-rule="evenodd" clip-rule="evenodd" d="M323.292 163.337H485.411V251.177H323.292V163.337Z" fill="#002D62"/>
</g>
<mask id="mask5_3914_1662" style="mask-type:luminance" maskUnits="userSpaceOnUse" x="370" y="168" width="73" height="77">
<path d="M423.821 169.657C406.424 166.567 390.518 172.073 379.046 188.449C381.26 189.864 382.699 193.224 382.451 197.041C382.151 201.756 379.417 205.449 376.241 205.561C376.253 205.653 376.273 205.738 376.285 205.841C376.285 205.849 376.279 205.841 376.279 205.849C376.644 212.967 379.105 219.803 382.601 223.431C383.948 211.166 390.459 194.448 408.794 184.135C390.531 200.132 386.951 223.15 388.244 238.872C379.717 237.15 372.594 222.692 370.088 215.075C372.015 228.107 380.082 243.645 392.458 244.51C389.928 219.483 399.581 193.557 415.871 184.907C422.565 181.312 431.991 178.994 442.338 172.287C431.256 171.377 427.761 170.351 423.821 169.657Z" fill="white"/>
</mask>
<g mask="url(#mask5_3914_1662)">
<path fill-rule="evenodd" clip-rule="evenodd" d="M370.087 166.567H442.337V244.51H370.087V166.567Z" fill="#EAB044"/>
</g>
<mask id="mask6_3914_1662" style="mask-type:luminance" maskUnits="userSpaceOnUse" x="9" y="55" width="477" height="204">
<path d="M181.051 146.417L91.0783 122.787C65.4063 115.647 58.7313 109.897 57.0583 108.397L109.334 121.971L194.229 143.928C190.375 144.828 184.579 145.798 181.051 146.418V146.417ZM485.115 64.8633C484.991 65.0003 443.795 74.9733 426.23 79.1983L434.071 55.4873L254.037 100.427C212.694 81.5223 161.637 94.6373 120.533 117.839L200.369 138.073C200.029 139.133 199.633 140.175 199.203 141.04L77.9583 110.367C53.3213 103.983 31.0933 97.9123 9.88135 102.123C26.4313 116.123 48.8163 121.559 73.4413 127.949L163.947 151.869C162.293 152.579 160.75 153.305 159.427 154.012L92.4573 136.352C80.2773 145.682 69.8853 155.564 62.1053 165.105L86.0323 161.968C17.6223 272.178 128.282 286.178 180.662 212.028L267.562 190.108C259.612 197.968 254.892 209.338 252.442 219.328C278.182 196.971 311.742 190.028 331.872 188.568C344.092 187.668 357.589 186.328 368.052 185.158L371.007 181.398C380.547 168.255 394.407 161.845 409.064 160.404C420.477 159.284 424.482 160.967 429.287 161.838C431.527 162.418 439.487 164.548 447.632 164.918C468.692 152.546 474.922 134.652 468.782 108.696L485.126 64.8763L485.115 64.8633Z" fill="white"/>
</mask>
<g mask="url(#mask6_3914_1662)">
<path fill-rule="evenodd" clip-rule="evenodd" d="M9.85156 55.457H485.172V258.257H9.85156V55.457Z" fill="#002D62"/>
</g>
<mask id="mask7_3914_1662" style="mask-type:luminance" maskUnits="userSpaceOnUse" x="464" y="211" width="18" height="16">
<path d="M469.579 214.612C473.239 212.858 477.294 212.065 481.291 211.54C475.727 213.65 472.931 216.878 472.621 216.753C471.365 219.85 471.391 223.143 464.333 226.693C466.567 223.177 469.828 219.123 469.581 214.613L469.579 214.612Z" fill="white"/>
</mask>
<g mask="url(#mask7_3914_1662)">
<path fill-rule="evenodd" clip-rule="evenodd" d="M464.332 211.54H481.292V226.693H464.332V211.54Z" fill="#EAB044"/>
</g>
<mask id="mask8_3914_1662" style="mask-type:luminance" maskUnits="userSpaceOnUse" x="398" y="220" width="45" height="22">
<path d="M399.262 220.57C406.868 237.38 429.038 241.347 442.412 238.492C436.44 243.712 407.317 242.605 398.572 225.427L399.262 220.571V220.57Z" fill="white"/>
</mask>
<g mask="url(#mask8_3914_1662)">
<path fill-rule="evenodd" clip-rule="evenodd" d="M398.572 220.57H442.412V243.712H398.572V220.57Z" fill="#EAB044"/>
</g>
<mask id="mask9_3914_1662" style="mask-type:luminance" maskUnits="userSpaceOnUse" x="404" y="199" width="62" height="21">
<path d="M407.442 199.17L464.931 214.14C466.806 214.618 466.018 219.91 463.571 219.274L404.438 204.148C404.778 202.726 406.926 199.511 407.442 199.17Z" fill="white"/>
</mask>
<g mask="url(#mask9_3914_1662)">
<path fill-rule="evenodd" clip-rule="evenodd" d="M404.438 199.17H466.806V219.91H404.438V199.168V199.17Z" fill="#EAB044"/>
</g>
<mask id="mask10_3914_1662" style="mask-type:luminance" maskUnits="userSpaceOnUse" x="403" y="214" width="54" height="21">
<path d="M456.474 224.754C435.712 245.354 403.13 231.191 403.32 214.492C403.736 214.48 424.538 229.867 456.474 224.754Z" fill="white"/>
</mask>
<g mask="url(#mask10_3914_1662)">
<path fill-rule="evenodd" clip-rule="evenodd" d="M403.13 214.48H456.474V239.993H403.13V214.48Z" fill="#EAB044"/>
</g>
<mask id="mask11_3914_1662" style="mask-type:luminance" maskUnits="userSpaceOnUse" x="380" y="170" width="38" height="25">
<path d="M417.857 170.882C400.949 170.142 388.077 180.312 380.745 189.82C380.705 189.865 380.667 189.91 380.628 189.963C381.546 191.201 382.178 192.871 382.398 194.75C382.458 194.685 382.523 194.62 382.588 194.547C389.743 184.668 401.066 173.828 417.858 170.878L417.857 170.882Z" fill="white"/>
</mask>
<g mask="url(#mask11_3914_1662)">
<path fill-rule="evenodd" clip-rule="evenodd" d="M380.628 170.142H417.858V194.75H380.628V170.142Z" fill="white"/>
</g>
<mask id="mask12_3914_1662" style="mask-type:luminance" maskUnits="userSpaceOnUse" x="261" y="68" width="160" height="56">
<path d="M392.186 86.2577L390.311 79.0797L385.581 93.2497L380.871 94.4097L388.004 76.0937L392.776 74.9217L394.31 81.2677L397.22 73.8347L401.92 72.6747L394.772 90.9847L389.999 92.1647L392.169 86.2567L392.186 86.2577ZM376.86 80.7307C376.768 80.6907 376.573 80.6647 376.228 80.6577C375.564 80.6377 375.128 80.7107 374.978 80.7497C374.718 80.8157 374.178 81.0047 373.311 81.3997C372.911 81.5877 372.691 81.7127 372.561 81.7977L369.691 88.8977L374.131 87.8027L376.931 80.7697L376.851 80.7297L376.86 80.7307ZM373.402 89.8067L368.968 90.8967L366.28 97.8067L361.442 98.9967L367.764 82.9467C368.07 82.1667 369.332 81.2967 371.234 80.3867C372.804 79.6267 374.326 79.0467 375.798 78.6867C377.198 78.3367 378.545 78.2267 379.861 78.3067C381.231 78.3667 382.001 78.6897 381.711 79.3907L375.411 95.5407L370.701 96.7007L373.391 89.7907L373.402 89.8067ZM352.32 84.9867L357.02 83.8267L350.666 100.117L358.396 98.2067L357.606 100.227L345.176 103.292L352.32 84.9817V84.9867ZM337.176 88.9267L347.886 86.2767L347.124 88.2567L341.114 89.7287L338.959 95.2487L344.969 93.7687L344.181 95.7787L338.171 97.2587L335.511 104.049L341.521 102.562L340.731 104.586L330.011 107.236L337.161 88.9207L337.176 88.9267ZM303.646 97.2567L314.356 94.6167L313.593 96.5797L307.583 98.0597L305.443 103.573L311.453 102.1L310.673 104.11L304.657 105.59L302.002 112.39L308.022 110.92L307.222 112.93L296.512 115.57L303.662 97.2547L303.646 97.2567ZM287.556 101.357L292.256 100.201L285.902 116.491L293.639 114.583L292.851 116.599L280.411 119.669L287.552 101.364L287.556 101.357ZM267.902 122.718C266.729 123.008 265.478 123.124 264.162 123.124C262.496 123.124 261.552 122.804 261.859 122.018L267.269 108.148C267.496 107.573 268.636 106.813 270.166 106C271.742 105.182 273.194 104.553 274.483 104.24L282.113 102.366L280.843 105.634L276.173 106.78L276.733 105.523L275.443 105.811C274.166 106.125 273.267 106.413 272.649 106.675C272.129 106.898 271.979 107.042 271.919 107.179L266.692 120.688C266.692 120.701 266.672 120.832 267.518 120.808C268.168 120.781 268.568 120.728 268.755 120.682C269.388 120.532 269.96 120.295 270.56 119.936C271.198 119.542 271.497 119.241 271.595 118.98L271.309 118.358L276.413 117.1L275.833 118.6C275.553 119.34 274.223 120.19 272.333 121.055C270.703 121.822 269.223 122.398 267.913 122.718H267.902ZM408.052 87.4077L400.364 89.3017L407.512 70.9677L415.214 69.0407C416.51 68.7277 417.741 68.7007 418.912 68.8647C420.078 69.0147 420.802 69.3097 420.574 69.8927L415.299 83.3957C415.072 83.9977 413.945 84.7777 412.382 85.6087C410.807 86.4687 409.349 87.0887 408.052 87.4087V87.4077ZM415.137 71.1377L414.571 71.0577L411.511 71.7657L405.921 86.0797L408.331 85.4967C408.441 85.4567 408.801 85.3367 409.561 84.9967L410.421 84.5467L415.701 71.2967C415.521 71.2267 415.361 71.1767 415.121 71.1267L415.137 71.1377ZM316.392 94.4027L320.189 93.5507L320.533 103.321L328.143 91.6847L333.313 90.2897L318.353 110.48L316.403 94.4027H316.392Z" fill="white"/>
</mask>
<g mask="url(#mask12_3914_1662)">
<path fill-rule="evenodd" clip-rule="evenodd" d="M261.552 68.7012H420.802V123.124H261.552V68.7012Z" fill="white"/>
</g>
<mask id="mask13_3914_1662" style="mask-type:luminance" maskUnits="userSpaceOnUse" x="178" y="139" width="65" height="65">
<path d="M217.942 145.802L225.312 150.32C221.504 161.242 204.967 184.39 195.492 191.385L212.057 147.105L199.354 150.49L178.558 203.78L205.208 196.905C205.798 196.728 229.172 178.078 242.548 139.508L217.942 145.802Z" fill="white"/>
</mask>
<g mask="url(#mask13_3914_1662)">
<path fill-rule="evenodd" clip-rule="evenodd" d="M178.558 139.508H242.548V203.78H178.558V139.508Z" fill="white"/>
</g>
<mask id="mask14_3914_1662" style="mask-type:luminance" maskUnits="userSpaceOnUse" x="128" y="152" width="62" height="65">
<path d="M165.132 183.932L154.716 186.95C154.716 186.95 163.428 169.807 172.419 167.102L165.133 183.932H165.132ZM140.497 192.587C140.367 192.607 130.777 212.457 128.83 216.53L142.02 213.06L150.934 194.468L161.6 191.318L154.243 209.968L168.273 206.348L189.872 152.527C182.624 155.007 156.996 155.454 140.502 192.597L140.497 192.587Z" fill="white"/>
</mask>
<g mask="url(#mask14_3914_1662)">
<path fill-rule="evenodd" clip-rule="evenodd" d="M128.829 152.52H189.869V216.53H128.829V152.52Z" fill="white"/>
</g>
<mask id="mask15_3914_1662" style="mask-type:luminance" maskUnits="userSpaceOnUse" x="373" y="92" width="59" height="63">
<path d="M397.2 120.578L403.312 103.518L412.845 100.951C411.485 104.613 408.932 114.493 397.2 120.577V120.578ZM407.356 125.665C406.633 124.611 406.061 122.425 406.066 122.371C406.503 122.161 406.959 121.941 407.408 121.677C415.982 116.758 425.418 102.088 425.032 92.0879C412.975 95.3379 392.765 100.61 392.654 100.754L373.344 154.112L385.897 150.87L394.191 127.924C395.131 130.066 400.661 143.281 411.441 144.374C423.891 145.638 431.171 133.261 431.171 133.261C427.891 136.091 413.031 137.158 407.351 125.665H407.356Z" fill="white"/>
</mask>
<g mask="url(#mask15_3914_1662)">
<path fill-rule="evenodd" clip-rule="evenodd" d="M373.342 92.0918H431.172V154.112H373.342V92.0918Z" fill="white"/>
</g>
<mask id="mask16_3914_1662" style="mask-type:luminance" maskUnits="userSpaceOnUse" x="224" y="128" width="62" height="64">
<path d="M260.412 159.638L249.995 162.658C249.995 162.658 258.707 145.513 267.699 142.808L260.412 159.638ZM235.776 168.302C235.646 168.315 226.198 187.816 224.246 191.882L237.573 188.45L246.213 170.174L256.882 167.018L249.59 185.432L263.504 181.896L285.129 128.344C278.759 130.197 252.274 131.154 235.775 168.302H235.776Z" fill="white"/>
</mask>
<g mask="url(#mask16_3914_1662)">
<path fill-rule="evenodd" clip-rule="evenodd" d="M224.245 128.344H285.128V191.882H224.245V128.344Z" fill="white"/>
</g>
<mask id="mask17_3914_1662" style="mask-type:luminance" maskUnits="userSpaceOnUse" x="312" y="112" width="35" height="58">
<path d="M333.229 115.515L312.439 169.148L325.663 165.793L346.373 112.168L333.231 115.516L333.229 115.515Z" fill="white"/>
</mask>
<g mask="url(#mask17_3914_1662)">
<path fill-rule="evenodd" clip-rule="evenodd" d="M312.441 112.168H346.375V169.148H312.441V112.168Z" fill="white"/>
</g>
<mask id="mask18_3914_1662" style="mask-type:luminance" maskUnits="userSpaceOnUse" x="332" y="102" width="54" height="63">
<path d="M347.377 153.915L354.012 138.285L372.202 128.395L357.602 129.478L363.982 112.418C371.95 109.898 375.962 112.345 379.359 117.388L385.388 102.378L353.368 110.584L332.797 164.13L365.401 155.598L372.407 139.011C365.157 147.006 357.077 152.265 347.367 153.915H347.377Z" fill="white"/>
</mask>
<g mask="url(#mask18_3914_1662)">
<path fill-rule="evenodd" clip-rule="evenodd" d="M332.799 102.378H385.389V164.13H332.799V102.38V102.378Z" fill="white"/>
</g>
<mask id="mask19_3914_1662" style="mask-type:luminance" maskUnits="userSpaceOnUse" x="271" y="122" width="44" height="58">
<path d="M288.761 168.976L306.123 122.541L292.251 126.078L271.753 179.76L306.923 170.645L314.693 151.609C305.343 162.729 300.427 167.039 288.759 168.979L288.761 168.976Z" fill="white"/>
</mask>
<g mask="url(#mask19_3914_1662)">
<path fill-rule="evenodd" clip-rule="evenodd" d="M271.754 122.541H314.691V179.761H271.755V122.541H271.754Z" fill="white"/>
</g>
<mask id="mask20_3914_1662" style="mask-type:luminance" maskUnits="userSpaceOnUse" x="273" y="82" width="196" height="112">
<path d="M425.391 161.007H425.397C431.211 158.937 436.887 156.52 442.39 153.672C456.57 146.352 464.75 131.328 456.92 116.45C451.18 105.54 441.32 103.27 442.71 97.0152C444.543 88.6652 458.48 90.2902 462.78 97.1922L468.02 83.7482C468.15 83.6182 464.28 83.0182 462.814 82.9182C441.464 81.5182 422.434 98.6882 433.547 113.708C436.107 117.178 437.849 117.998 441.073 121.058C458.137 146.838 409.983 158.108 365.018 164.865C324.171 171.187 287.151 179.454 273.131 193.924C305.371 178.704 343.989 176.934 380.571 171.394C388.851 164.867 398.746 161.404 409.038 160.394C417.364 159.574 421.752 160.254 425.382 161.016L425.391 161.007Z" fill="white"/>
</mask>
<g mask="url(#mask20_3914_1662)">
<path fill-rule="evenodd" clip-rule="evenodd" d="M273.131 82.8174H468.131V193.937H273.131V82.8174Z" fill="white"/>
</g>
<mask id="mask21_3914_1662" style="mask-type:luminance" maskUnits="userSpaceOnUse" x="74" y="100" width="180" height="149">
<path d="M164.527 128.99C193.899 111.055 227.749 103.352 208.313 141.565C212.473 138.415 253.173 114.225 253.323 114.893C232.882 94.7678 185.412 95.8378 134.182 121.298L164.532 128.99H164.527ZM139.129 148.66C138.939 148.853 138.753 149.046 138.569 149.24C61.3237 230.315 112.135 243.876 168.376 212.7C169.534 212.116 160.432 220.63 160.432 220.63C97.9277 282.358 29.7517 235.848 113.007 147.158C103.554 149.835 84.0597 154.348 84.0337 153.798C90.4917 148.555 97.0097 143.716 103.541 139.276L139.121 148.658L139.129 148.66Z" fill="white"/>
</mask>
<g mask="url(#mask21_3914_1662)">
<path fill-rule="evenodd" clip-rule="evenodd" d="M74.4116 100.817H253.332V248.897H74.4116V100.817Z" fill="white"/>
</g>
</svg>
