<?xml version="1.0" encoding="utf-8"?>
<!-- Generator: Adobe Illustrator 24.2.0, SVG Export Plug-In . SVG Version: 6.00 Build 0)  -->
<svg version="1.1" id="Layer_1" xmlns="http://www.w3.org/2000/svg" xmlns:xlink="http://www.w3.org/1999/xlink" x="0px" y="0px"
	 viewBox="0 0 303.4 86.62" enable-background="new 0 0 303.4 86.62" xml:space="preserve">
<g>
	<g>
		<path fill="#0065A4" d="M86.32,73.99c-1.68,0.72-4.61,1.34-8.59,1.34c-8.74,0-14.79-5.28-14.79-13.87
			c0-7.82,3.55-13.39,8.69-16.51c3.36-2.06,7.25-3.02,11.71-3.02c3.5,0,6.14,0.77,7.15,1.3l-2.16,6.62
			c-0.82-0.29-2.93-0.91-5.66-0.91c-2.54,0-4.85,0.72-6.58,2.02c-2.54,1.97-4.27,5.23-4.27,9.6c0,4.9,3.07,7.78,8.07,7.78
			c2.26,0,4.32-0.34,5.86-0.96L86.32,73.99z"/>
		<path fill="#0065A4" d="M108.88,73.46c-3.17,1.54-6.86,1.87-9.26,1.87c-6.91,0-10.71-3.65-10.71-10.22
			c0-7.2,5.18-14.45,14.11-14.45c4.9,0,8.74,2.69,8.74,7.54c0,5.9-5.38,8.3-15.12,8.02c0.1,0.53,0.38,1.15,0.86,1.58
			c0.91,0.77,2.35,1.2,4.22,1.2c2.4,0,4.66-0.48,6.72-1.44L108.88,73.46z M104.13,58.1c0-0.82-0.77-1.54-2.11-1.54
			c-2.93,0-4.37,2.21-4.61,3.75c4.99,0.05,6.72-0.67,6.72-2.16V58.1z"/>
		<path fill="#0065A4" d="M112.82,74.81l2.93-15.6c0.62-3.12,1.01-5.86,1.34-8.02h7.2l-0.34,3.6h0.1c2.26-2.98,5.04-4.13,8.02-4.13
			c4.32,0,6.1,2.69,6.1,6.43c0,1.06-0.19,2.93-0.38,4.03l-2.59,13.68h-8.21l2.4-12.82c0.14-0.82,0.24-1.68,0.24-2.5
			c0-1.34-0.38-2.3-1.78-2.3c-1.97,0-3.98,2.59-4.95,7.54l-1.87,10.08H112.82z"/>
		<path fill="#0065A4" d="M154.77,44.47l-1.25,6.72h4.8l-1.2,6.19h-4.8l-1.34,6.53c-0.14,0.77-0.34,1.97-0.34,2.64
			c0,1.06,0.43,1.87,1.92,1.87c0.58,0,1.25,0,1.92-0.1l-1.05,6.43c-1.01,0.38-2.93,0.58-4.51,0.58c-4.46,0-6.67-2.16-6.67-5.33
			c0-1.25,0.14-2.5,0.48-4.37l1.63-8.26h-2.88l1.2-6.19h2.88l0.82-4.46L154.77,44.47z"/>
		<path fill="#0065A4" d="M157.46,74.81l2.59-13.58c0.67-3.75,0.96-8.07,1.2-10.03h7.06c-0.1,1.58-0.19,3.12-0.34,4.7h0.14
			c1.73-3.07,4.37-5.23,7.63-5.23c0.48,0,0.91,0,1.39,0.05l-1.63,7.92c-0.29,0-0.67,0-1.06,0c-4.85,0-6.48,3.79-7.3,8.11l-1.49,8.06
			H157.46z"/>
		<path fill="#0065A4" d="M191.15,74.81c0.05-1.34,0.14-2.74,0.19-4.08h-0.1c-2.02,3.5-4.94,4.61-7.44,4.61
			c-4.27,0-7.3-3.26-7.3-8.4c0-7.82,4.95-16.27,17.14-16.27c3.07,0,6.29,0.62,8.4,1.3l-2.5,12.38c-0.48,2.54-1.01,7.39-0.91,10.46
			H191.15z M192.88,56.95c-0.53-0.1-1.1-0.14-1.49-0.14c-3.84,0-6.34,5.14-6.34,8.59c0,2.21,0.91,3.36,2.35,3.36
			c1.49,0,3.46-1.49,4.51-7.06L192.88,56.95z"/>
		<path fill="#0065A4" d="M229.7,73.99c-1.68,0.72-4.61,1.34-8.59,1.34c-8.74,0-14.79-5.28-14.79-13.87
			c0-7.82,3.55-13.39,8.69-16.51c3.36-2.06,7.25-3.02,11.71-3.02c3.51,0,6.14,0.77,7.15,1.3l-2.16,6.62
			c-0.81-0.29-2.93-0.91-5.66-0.91c-2.54,0-4.85,0.72-6.58,2.02c-2.54,1.97-4.27,5.23-4.27,9.6c0,4.9,3.07,7.78,8.06,7.78
			c2.26,0,4.32-0.34,5.86-0.96L229.7,73.99z"/>
		<path fill="#0065A4" d="M256,60.36c0,9.17-6.24,14.98-14.5,14.98c-6.05,0-10.37-3.7-10.37-9.79c0-8.3,5.86-14.88,14.55-14.88
			C252.02,50.66,256,54.79,256,60.36z M239.63,65.4c0,2.3,1.05,3.74,3.02,3.74c3.36,0,4.9-5.33,4.9-8.69c0-1.97-0.82-3.6-2.98-3.6
			C241.07,56.85,239.63,62.52,239.63,65.4z"/>
		<path fill="#0065A4" d="M257.25,74.81l2.88-15.6c0.58-3.12,0.96-5.86,1.25-8.02h7.01l-0.34,3.6h0.05
			c2.16-2.98,4.99-4.13,7.97-4.13c3.84,0,5.43,2.45,5.62,4.13c2.11-2.88,5.09-4.13,7.92-4.13c4.03,0,5.76,2.59,5.76,6.38
			c0,0.96-0.19,2.93-0.38,4.08l-2.54,13.68h-7.92l2.3-12.62c0.19-0.91,0.34-1.87,0.34-2.74c0-1.3-0.62-2.26-1.82-2.26
			c-2.06,0-3.84,2.98-4.71,7.54l-1.87,10.08h-7.87l2.35-12.62c0.14-0.91,0.29-1.82,0.29-2.59c0-1.44-0.48-2.4-1.68-2.4
			c-2.06,0-4.03,3.02-4.85,7.54l-1.82,10.08H257.25z"/>
	</g>
	<g>
		<path fill="#0065A4" d="M22.25,8.72C27.63,0.7,36.34-1.55,41.7,3.69c5.37,5.24,5.36,15.98-0.02,24
			C36.3,35.7,27.6,37.95,22.23,32.71C16.87,27.47,16.88,16.73,22.25,8.72L22.25,8.72z"/>
		<g>
			<path fill="#0065A4" d="M139.42,25.95c-38.12-6.1-68.69-4.8-91.34,0.42c-0.64,1.4-1.4,2.77-2.28,4.09
				C41.58,36.74,35.34,40.5,29.12,40.5c-3.57,0-6.84-1.22-9.54-3.51c-21.95,12.65-25.16,30.24-8.3,40.58
				c11.7,7.16,33.01,8.75,51.54,6.83c5.01-0.52,8.15-1.65-1.76-5.3c-11.17-4.12-21.32-10.18-21.5-19.31
				c-0.42-20.9,47.42-37.74,99.66-32.58C140.84,27.37,140.8,26.17,139.42,25.95z"/>
		</g>
	</g>
</g>
<g>
	<path fill="#0065A4" d="M299.24,68.3c1.81,0,3.22,1.41,3.22,3.16c0,1.79-1.41,3.18-3.24,3.18c-1.81,0-3.26-1.39-3.26-3.18
		c0-1.76,1.45-3.16,3.26-3.16H299.24z M299.2,68.94c-1.39,0-2.43,1.14-2.43,2.53c0,1.41,1.04,2.53,2.47,2.53
		c1.39,0.02,2.41-1.12,2.41-2.53c0-1.39-1.02-2.53-2.43-2.53H299.2z M298.72,73.11h-0.73v-3.15c0.29-0.06,0.69-0.12,1.22-0.12
		c0.6,0,0.87,0.1,1.1,0.25c0.17,0.14,0.31,0.39,0.31,0.68c0,0.37-0.27,0.64-0.66,0.75v0.04c0.31,0.1,0.48,0.35,0.58,0.77
		c0.1,0.48,0.15,0.68,0.23,0.77h-0.79c-0.1-0.12-0.15-0.39-0.25-0.75c-0.06-0.35-0.25-0.5-0.66-0.5h-0.35V73.11z M298.73,71.33h0.35
		c0.41,0,0.73-0.14,0.73-0.46c0-0.29-0.21-0.48-0.68-0.48c-0.19,0-0.33,0.02-0.41,0.04V71.33z"/>
</g>
</svg>
