<svg width="140" height="48" viewBox="0 0 140 48" fill="none" xmlns="http://www.w3.org/2000/svg">
<g clip-path="url(#clip0_626_1431)">
<path d="M44.2901 20.4766H42.722V28.0303H48.2043V26.6222H44.2901V20.4766Z" fill="black"/>
<path d="M62.6458 24.4259L60.8235 20.4863H60.6354L58.813 24.4131L57.4126 20.4863H55.7427L58.5106 27.9892L58.5284 28.0401H58.7622L60.7345 23.8286L62.6865 28.0299H62.9305L65.7491 20.4863H64.0768L62.6458 24.4259Z" fill="black"/>
<path d="M66.4354 28.0303H72.0371V26.6019H68.0036V25.0185H71.5822V23.5799H68.0036V21.8846H72.0371V20.4766H66.4354V28.0303Z" fill="black"/>
<path d="M74.8736 20.4766H73.3054V28.0303H78.7852V26.6222H74.8736V20.4766Z" fill="black"/>
<path d="M81.065 20.4766H79.4968V28.0303H84.9766V26.6222H81.065V20.4766Z" fill="black"/>
<path d="M93.1606 22.6418C93.1606 22.741 93.1428 22.8452 93.1098 22.9468C93.0767 23.0485 93.0259 23.1425 92.9598 23.2239C92.8963 23.3027 92.815 23.3687 92.7209 23.417C92.6269 23.4653 92.515 23.4907 92.388 23.4907H90.7257V21.887H92.4896C92.5786 21.887 92.6625 21.9073 92.7413 21.9505C92.8226 21.9937 92.8963 22.0496 92.9573 22.1157C93.0183 22.1843 93.0691 22.2657 93.1047 22.3572C93.1403 22.4487 93.1606 22.5453 93.1606 22.6444M93.4631 25.702C93.4631 25.8138 93.4402 25.9231 93.397 26.0324C93.3538 26.1417 93.2928 26.2459 93.2165 26.3348C93.1428 26.4238 93.0539 26.4975 92.9573 26.5483C92.8607 26.5992 92.7565 26.6246 92.6498 26.6246H90.7257V24.8988H92.4998C92.8022 24.8988 93.0412 24.9776 93.2115 25.1326C93.3817 25.2877 93.4631 25.4732 93.4631 25.702ZM94.5255 24.5481C94.3781 24.3879 94.2103 24.2583 94.0222 24.1643C93.9511 24.1287 93.8799 24.0982 93.8087 24.0728C93.8672 24.0474 93.9206 24.0194 93.9765 23.9838C94.1315 23.8821 94.2662 23.7551 94.3755 23.6051C94.4848 23.4577 94.5712 23.295 94.6348 23.1197C94.6983 22.9443 94.7313 22.774 94.7313 22.6164C94.7313 22.1894 94.6704 21.8336 94.5534 21.5566C94.434 21.2795 94.2688 21.0559 94.0654 20.8983C93.8621 20.7407 93.6207 20.6289 93.3462 20.5704C93.0793 20.5119 92.7921 20.4814 92.4922 20.4814H89.1601V28.0352H92.6523C92.9751 28.0352 93.2826 27.9971 93.5673 27.9208C93.857 27.8446 94.1137 27.7149 94.3298 27.537C94.5458 27.3591 94.7212 27.1227 94.8457 26.833C94.9703 26.5458 95.0338 26.19 95.0338 25.7782C95.0338 25.5393 94.9855 25.3105 94.8915 25.1021C94.7974 24.8937 94.6754 24.7082 94.5306 24.5481" fill="black"/>
<path d="M100.092 25.4806H98.221L99.1614 23.5032L100.092 25.4806ZM99.0445 20.4863L95.1863 28.0299H96.8968L97.4636 26.8684H100.854L101.431 28.0299H103.142L99.2834 20.4863H99.047H99.0445Z" fill="black"/>
<path d="M108.799 24.8554L104.067 20.5067L104.046 20.4863H103.787V28.0299H105.355V23.7295L110.111 28.0299H110.37V20.4863H108.799V24.8554Z" fill="black"/>
<path d="M118.201 20.4867H116.264L113.438 24.0908V20.4766H111.87V28.0303H113.438V24.7846L116.429 28.0303H118.511L115.1 24.3805L118.201 20.4867Z" fill="black"/>
<path d="M119.187 28.0303H124.789V26.6019H120.755V25.0185H124.334V23.5799H120.755V21.8846H124.789V20.4766H119.187V28.0303Z" fill="black"/>
<path d="M130.205 23.9815C130.106 24.0781 129.991 24.1492 129.864 24.1975C129.735 24.2458 129.61 24.2687 129.493 24.2687H127.625V21.8846H129.493C129.725 21.8846 129.913 21.9278 130.047 22.0142C130.185 22.1007 130.291 22.21 130.365 22.332C130.441 22.459 130.492 22.5912 130.518 22.731C130.543 22.8759 130.556 23.0004 130.556 23.1021C130.556 23.2978 130.523 23.4706 130.457 23.6155C130.39 23.7604 130.307 23.8849 130.205 23.9815ZM127.625 25.6742H128.909C129.183 26.0682 129.46 26.4596 129.732 26.8357C130.014 27.2271 130.307 27.6185 130.599 27.9998L130.622 28.0303H132.497L132.409 27.9083C131.824 27.1026 131.224 26.2944 130.624 25.5014C131.059 25.3107 131.417 25.0134 131.687 24.6118C131.974 24.1823 132.119 23.6765 132.119 23.1021C132.119 22.7234 132.053 22.3701 131.926 22.0473C131.799 21.727 131.616 21.4449 131.387 21.2136C131.158 20.9823 130.878 20.7993 130.556 20.6697C130.233 20.5426 129.875 20.4766 129.488 20.4766H126.049V28.0303H127.618V25.6742H127.625Z" fill="black"/>
<path d="M32.7206 21.5363C32.4817 21.2923 32.2123 21.0813 31.9226 20.9085C31.6328 20.7331 31.3126 20.5958 30.9745 20.5018C30.6365 20.4052 30.2807 20.3569 29.9172 20.3569C29.3835 20.3569 28.8726 20.4611 28.3999 20.667C27.9271 20.8729 27.5103 21.155 27.157 21.5058C26.8037 21.859 26.5216 22.2759 26.3183 22.7486C26.1124 23.2214 26.0082 23.7322 26.0082 24.266C26.0082 24.7997 26.1124 25.3106 26.3183 25.7833C26.5241 26.2561 26.8063 26.6729 27.157 27.0262C27.5103 27.3795 27.9271 27.6616 28.3999 27.8675C28.8726 28.0733 29.3835 28.1775 29.9172 28.1775C30.2807 28.1775 30.6365 28.1292 30.9745 28.0327C31.3126 27.9361 31.6328 27.7988 31.9226 27.626C32.2123 27.4506 32.4817 27.2397 32.7206 26.9982C32.9595 26.7542 33.1654 26.4797 33.3306 26.1773L33.3713 26.101L31.9098 25.5088L31.8743 25.5622C31.7701 25.7198 31.6455 25.8697 31.5057 26.0095C31.3659 26.1493 31.2084 26.2739 31.0406 26.3781C30.8703 26.4823 30.6899 26.5636 30.5018 26.6221C30.3137 26.6805 30.118 26.7085 29.9172 26.7085C29.5944 26.7085 29.2869 26.6424 29.0048 26.5077C28.7226 26.373 28.4736 26.1951 28.2651 25.9739C28.0567 25.7528 27.889 25.491 27.7644 25.1987C27.6399 24.9065 27.5789 24.5938 27.5789 24.2685C27.5789 23.9432 27.6424 23.6382 27.7644 23.3434C27.889 23.046 28.0567 22.7842 28.2651 22.5631C28.4736 22.3419 28.7226 22.1615 29.0048 22.0293C29.2869 21.8972 29.5944 21.8285 29.9172 21.8285C30.118 21.8285 30.3137 21.859 30.5018 21.915C30.6899 21.9734 30.8703 22.0547 31.0406 22.159C31.2109 22.2632 31.3659 22.3852 31.5083 22.5224C31.6481 22.6597 31.7726 22.8096 31.8768 22.9646L31.9124 23.018L33.3764 22.4258L33.3332 22.3496C33.168 22.0547 32.9646 21.7828 32.7257 21.5388" fill="black"/>
<path d="M40.0558 24.2533C40.0558 24.5787 39.9922 24.8913 39.8702 25.1836C39.7457 25.4759 39.5754 25.7402 39.3644 25.9638C39.1535 26.1875 38.9019 26.3705 38.6197 26.5027C38.3402 26.6348 38.0326 26.7035 37.7098 26.7035C37.3871 26.7035 37.0795 26.6374 36.7999 26.5027C36.5178 26.3705 36.2687 26.1875 36.0552 25.9638C35.8443 25.7402 35.674 25.4759 35.5495 25.1836C35.4275 24.8913 35.3639 24.5787 35.3639 24.2533C35.3639 23.928 35.4275 23.623 35.5495 23.3282C35.674 23.0308 35.8417 22.769 36.0527 22.5479C36.2637 22.3268 36.5127 22.1463 36.7974 22.0141C37.077 21.882 37.3845 21.8134 37.7073 21.8134C38.0301 21.8134 38.3376 21.8794 38.6172 22.0141C38.8993 22.1489 39.151 22.3268 39.3619 22.5479C39.5729 22.769 39.7431 23.0308 39.8651 23.3282C39.9897 23.623 40.0507 23.9356 40.0507 24.2533M40.4701 21.4855C40.1168 21.1322 39.6999 20.8501 39.2272 20.6467C38.7545 20.4409 38.241 20.3367 37.6997 20.3367C37.1583 20.3367 36.6551 20.4409 36.1823 20.6467C35.7096 20.8526 35.2928 21.1347 34.9395 21.4855C34.5862 21.8388 34.3041 22.2581 34.1007 22.7334C33.8949 23.2087 33.7906 23.7221 33.7906 24.2559C33.7906 24.7896 33.8949 25.3106 34.1007 25.7834C34.3066 26.2561 34.5887 26.673 34.9395 27.0262C35.2902 27.3795 35.7096 27.6617 36.1823 27.8675C36.6551 28.0734 37.1659 28.1776 37.6997 28.1776C38.2334 28.1776 38.7545 28.0734 39.2272 27.8675C39.6999 27.6617 40.1168 27.3795 40.4701 27.0262C40.8233 26.673 41.1055 26.2561 41.3088 25.7834C41.5147 25.3106 41.6189 24.7972 41.6189 24.2559C41.6189 23.7145 41.5147 23.2113 41.3088 22.7334C41.1029 22.2581 40.8208 21.8388 40.4701 21.4855Z" fill="black"/>
<path d="M54.1212 24.2636C54.1212 24.7618 54.0525 25.171 53.9153 25.476C53.778 25.7809 53.6052 26.0199 53.3968 26.1902C53.1884 26.3604 52.952 26.4748 52.6953 26.5333C52.4335 26.5917 52.1692 26.6222 51.9125 26.6222H50.4841V21.905H51.9125C52.1616 21.905 52.4208 21.9355 52.6851 21.9939C52.9418 22.0524 53.1808 22.1667 53.3917 22.332C53.6027 22.4997 53.778 22.7386 53.9153 23.0462C54.0525 23.3537 54.1212 23.7654 54.1212 24.2636ZM54.5659 21.4271C53.8746 20.7968 52.98 20.4766 51.9099 20.4766H48.9159V28.0303H51.9099C52.4411 28.0303 52.9368 27.9515 53.3841 27.7939C53.834 27.6363 54.2304 27.4 54.5659 27.0899C54.937 26.7544 55.2191 26.3401 55.4072 25.8623C55.5953 25.387 55.6893 24.8456 55.6893 24.2509C55.6893 23.6561 55.5953 23.1275 55.4072 22.6497C55.2191 22.1718 54.9345 21.7601 54.5659 21.422" fill="black"/>
<path d="M17.969 20.4257L19.6389 19.3125L21.3087 20.4257L20.7648 18.4941L22.3381 17.2512L20.3327 17.1724L19.6389 15.2891L18.9425 17.1724L16.9371 17.2512L18.5129 18.4941L17.969 20.4257Z" fill="black"/>
<path d="M20.9402 27.5677C20.6606 27.189 20.3098 26.8941 19.8854 26.6857C20.1929 26.4671 20.4471 26.1926 20.6428 25.8597C20.9274 25.3768 21.0698 24.8456 21.0698 24.2762C21.0698 23.923 21.0088 23.5671 20.8842 23.2189C20.7597 22.8707 20.5843 22.5556 20.3581 22.2811C20.1294 22.004 19.8498 21.7753 19.5245 21.6024C19.1915 21.4245 18.8179 21.3356 18.4112 21.3356H12.9188V26.2994C12.3749 26.3273 11.864 26.2257 11.409 25.9944C11.1752 25.8749 10.9617 25.7224 10.7609 25.5547C10.6084 25.4251 10.461 25.2904 10.3288 25.1328C10.0213 24.7719 9.77985 24.3499 9.60702 23.8797C9.43419 23.4095 9.34777 22.9063 9.34777 22.3853C9.34777 21.9176 9.42148 21.4449 9.56636 20.9823C9.70869 20.5248 9.92727 20.1054 10.2145 19.7394C10.4991 19.376 10.855 19.0811 11.2718 18.8549C11.8742 18.5322 12.6443 18.4279 13.4703 18.6059C13.7245 18.6592 13.9735 18.7507 14.215 18.8778C14.4539 19.0049 14.6776 19.1752 14.8809 19.3811C15.0817 19.5869 15.2596 19.8487 15.4045 20.1588L15.5265 20.418L17.0057 19.4598L16.9117 19.2616C16.566 18.5398 16.0297 17.945 15.3206 17.4952C14.609 17.0453 13.7499 16.8191 12.7663 16.8191C11.9402 16.8191 11.1879 16.9818 10.5322 17.3045C9.88152 17.6248 9.32236 18.0518 8.87249 18.5754C8.42262 19.0964 8.07696 19.6937 7.84567 20.3469C7.61438 21.0001 7.49747 21.666 7.49747 22.3243C7.49747 23.0232 7.62455 23.7196 7.87617 24.3932C8.12779 25.0667 8.4887 25.6767 8.9462 26.2079C9.40623 26.7391 9.95777 27.1762 10.5855 27.5041C10.644 27.5346 10.705 27.5549 10.7635 27.5829C10.8016 27.6007 10.8372 27.6159 10.8753 27.6337C10.9871 27.682 11.1015 27.7278 11.2184 27.7659C11.2947 27.7913 11.3735 27.8167 11.4522 27.8396C11.5717 27.8727 11.6912 27.9006 11.8132 27.926C11.8945 27.9413 11.9758 27.9565 12.0597 27.9667C12.2656 27.9946 12.4791 28.0099 12.6951 28.0099C12.7688 28.0099 12.8451 28.0099 12.9213 28.0048C13.2746 27.987 13.638 27.9311 14.004 27.8396C14.4463 27.7278 14.8733 27.5575 15.2723 27.3414C15.4223 27.2601 15.5671 27.1712 15.7069 27.0746C15.801 27.011 15.8899 26.9424 15.9789 26.8712C16.1111 26.7645 16.2356 26.6527 16.3551 26.5332C16.4364 26.4519 16.5126 26.368 16.5838 26.2816C16.655 26.1952 16.7236 26.1037 16.7871 26.0096C16.9142 25.8216 17.0235 25.6208 17.1125 25.4073L17.176 25.2395L17.0184 25.0972L15.8823 24.0526C15.8823 24.0526 15.7654 24.3194 15.7019 24.4414C15.6383 24.5634 15.5036 24.7795 15.4121 24.9015C15.2774 25.0794 15.1656 25.2141 15.0182 25.3615C14.9343 25.4454 14.8453 25.5166 14.7589 25.5903V22.9902H17.9537C18.1367 22.9902 18.3045 23.0258 18.4646 23.102C18.6222 23.1757 18.7594 23.2774 18.8687 23.407C18.9831 23.5417 19.0746 23.7069 19.1432 23.895C19.2118 24.0856 19.2474 24.2915 19.2474 24.5075C19.2474 24.7109 19.2118 24.9091 19.1381 25.0921C19.0644 25.2751 18.9653 25.4378 18.8433 25.5725C18.7213 25.7072 18.579 25.8114 18.4087 25.8927C18.246 25.969 18.063 26.0096 17.8648 26.0096H17.3819C17.3285 26.1062 17.27 26.2028 17.209 26.2943C17.0642 26.5078 16.899 26.7111 16.7134 26.8941C16.472 27.1356 16.2051 27.3542 15.9204 27.5448C15.8747 27.5753 15.895 27.5956 15.9204 27.5956H18.2816C18.4773 27.5956 18.6603 27.6363 18.823 27.7176C18.9907 27.8015 19.1356 27.9159 19.2576 28.0556C19.3821 28.2005 19.4813 28.3734 19.555 28.5665C19.6287 28.7597 19.6643 28.963 19.6643 29.1689C19.6643 29.3748 19.6261 29.5705 19.5499 29.7585C19.4736 29.9441 19.3669 30.1093 19.2322 30.2491C19.0949 30.3914 18.9348 30.5058 18.7544 30.5897C18.5815 30.6735 18.3884 30.7142 18.1799 30.7142H14.764V28.1319C14.5581 28.2081 14.3472 28.2768 14.1337 28.3301C13.76 28.4242 13.3737 28.4826 12.9493 28.5004C12.9416 28.5004 12.934 28.5004 12.9239 28.5004V32.3688H18.1799C18.6324 32.3688 19.0619 32.3002 19.4558 32.1629C19.8549 32.0257 20.2107 31.8249 20.5157 31.5682C20.8232 31.3089 21.0698 30.9912 21.2477 30.6252C21.4282 30.2567 21.5171 29.845 21.5171 29.4027C21.5171 28.6987 21.3239 28.076 20.9427 27.5549" fill="black"/>
<path d="M21.357 32.3994C21.1435 32.3994 20.9935 32.2393 20.9935 32.0283C20.9935 31.8046 21.1613 31.6572 21.357 31.6572C21.5527 31.6572 21.7204 31.8046 21.7204 32.0283C21.7204 32.252 21.5527 32.3994 21.357 32.3994ZM21.357 31.7233C21.1969 31.7233 21.0723 31.8478 21.0723 32.0283C21.0723 32.1961 21.1816 32.3333 21.357 32.3333C21.5146 32.3333 21.6416 32.2088 21.6416 32.0283C21.6416 31.8478 21.5171 31.7233 21.357 31.7233ZM21.2833 32.2418H21.2147V31.8326H21.3697C21.4688 31.8326 21.5196 31.8682 21.5196 31.9495C21.5196 32.0232 21.4739 32.0537 21.4129 32.0613L21.5273 32.2418H21.451L21.3443 32.0664H21.2807V32.2418H21.2833ZM21.3595 32.008C21.4104 32.008 21.4536 32.0029 21.4536 31.9444C21.4536 31.8961 21.4053 31.8885 21.3646 31.8885H21.2833V32.008H21.3595Z" fill="black"/>
</g>
<defs>
<clipPath id="clip0_626_1431">
<rect width="125" height="17.1103" fill="white" transform="translate(7.5 15.2891)"/>
</clipPath>
</defs>
</svg>
