<svg width="126" height="18" viewBox="0 0 126 18" fill="none" xmlns="http://www.w3.org/2000/svg">
<mask id="mask0_3913_1202" style="mask-type:luminance" maskUnits="userSpaceOnUse" x="0" y="0" width="126" height="18">
<path d="M125.5 0.289062H0.5V17.3994H125.5V0.289062Z" fill="white"/>
</mask>
<g mask="url(#mask0_3913_1202)">
<path d="M37.2898 5.47656H35.7217V13.0303H41.204V11.6222H37.2898V5.47656Z" fill="black"/>
<path d="M55.6453 9.42593L53.823 5.48633H53.6349L51.8125 9.41313L50.4121 5.48633H48.7422L51.5101 12.9892L51.5279 13.0401H51.7617L53.734 8.82863L55.686 13.0299H55.93L58.7486 5.48633H57.0763L55.6453 9.42593Z" fill="black"/>
<path d="M59.4346 13.0303H65.0363V11.6019H61.0028V10.0185H64.5814V8.57986H61.0028V6.88456H65.0363V5.47656H59.4346V13.0303Z" fill="black"/>
<path d="M67.8729 5.47656H66.3047V13.0303H71.7845V11.6222H67.8729V5.47656Z" fill="black"/>
<path d="M74.0643 5.47656H72.4961V13.0303H77.9759V11.6222H74.0643V5.47656Z" fill="black"/>
<path d="M86.1607 7.64185C86.1607 7.74105 86.1429 7.84525 86.1099 7.94685C86.0768 8.04855 86.026 8.14255 85.9599 8.22395C85.8964 8.30275 85.8151 8.36875 85.721 8.41705C85.627 8.46535 85.5151 8.49075 85.3881 8.49075H83.7258V6.88704H85.4897C85.5787 6.88704 85.6626 6.90735 85.7414 6.95055C85.8227 6.99375 85.8964 7.04965 85.9574 7.11575C86.0184 7.18435 86.0692 7.26575 86.1048 7.35725C86.1404 7.44875 86.1607 7.54535 86.1607 7.64445M86.4632 10.702C86.4632 10.8138 86.4403 10.9231 86.3971 11.0324C86.3539 11.1417 86.2929 11.2459 86.2166 11.3348C86.1429 11.4238 86.054 11.4975 85.9574 11.5483C85.8608 11.5992 85.7566 11.6246 85.6499 11.6246H83.7258V9.89885H85.4999C85.8023 9.89885 86.0413 9.97765 86.2116 10.1326C86.3818 10.2877 86.4632 10.4732 86.4632 10.702ZM87.5256 9.54815C87.3782 9.38795 87.2104 9.25835 87.0223 9.16435C86.9512 9.12875 86.88 9.09825 86.8088 9.07285C86.8673 9.04745 86.9207 9.01945 86.9766 8.98385C87.1316 8.88215 87.2663 8.75515 87.3756 8.60515C87.4849 8.45775 87.5713 8.29505 87.6349 8.11975C87.6984 7.94435 87.7314 7.77405 87.7314 7.61645C87.7314 7.18945 87.6705 6.83365 87.5535 6.55665C87.4341 6.27955 87.2689 6.05595 87.0655 5.89835C86.8622 5.74075 86.6208 5.62895 86.3463 5.57045C86.0794 5.51195 85.7922 5.48145 85.4923 5.48145H82.1602V13.0352H85.6524C85.9752 13.0352 86.2827 12.9971 86.5674 12.9208C86.8571 12.8446 87.1138 12.7149 87.3299 12.537C87.5459 12.3591 87.7213 12.1227 87.8458 11.833C87.9704 11.5458 88.0339 11.19 88.0339 10.7782C88.0339 10.5393 87.9856 10.3105 87.8916 10.1021C87.7975 9.89375 87.6755 9.70825 87.5307 9.54815" fill="black"/>
<path d="M93.0912 10.4806H91.2202L92.1606 8.50323L93.0912 10.4806ZM92.0437 5.48633L88.1855 13.0299H89.896L90.4628 11.8684H93.8532L94.4302 13.0299H96.1412L92.2826 5.48633H92.0462H92.0437Z" fill="black"/>
<path d="M101.798 9.85543L97.0661 5.50673L97.0451 5.48633H96.7861V13.0299H98.3541V8.72953L103.11 13.0299H103.369V5.48633H101.798V9.85543Z" fill="black"/>
<path d="M111.2 5.48666H109.263L106.437 9.09076V5.47656H104.869V13.0303H106.437V9.78456L109.428 13.0303H111.51L108.099 9.38046L111.2 5.48666Z" fill="black"/>
<path d="M112.187 13.0303H117.789V11.6019H113.755V10.0185H117.334V8.57986H113.755V6.88456H117.789V5.47656H112.187V13.0303Z" fill="black"/>
<path d="M123.205 8.98146C123.106 9.07806 122.991 9.14916 122.864 9.19746C122.735 9.24576 122.61 9.26866 122.493 9.26866H120.625V6.88456H122.493C122.725 6.88456 122.913 6.92776 123.047 7.01416C123.185 7.10066 123.291 7.20996 123.365 7.33196C123.441 7.45896 123.492 7.59116 123.518 7.73096C123.543 7.87586 123.556 8.00036 123.556 8.10206C123.556 8.29776 123.523 8.47056 123.457 8.61546C123.39 8.76036 123.307 8.88486 123.205 8.98146ZM120.625 10.6742H121.909C122.183 11.0682 122.46 11.4596 122.732 11.8357C123.014 12.2271 123.307 12.6185 123.599 12.9998L123.622 13.0303H125.497L125.409 12.9083C124.824 12.1026 124.224 11.2944 123.624 10.5014C124.059 10.3107 124.417 10.0134 124.687 9.61176C124.974 9.18226 125.119 8.67646 125.119 8.10206C125.119 7.72336 125.053 7.37006 124.926 7.04726C124.799 6.72696 124.616 6.44486 124.387 6.21356C124.158 5.98226 123.878 5.79926 123.556 5.66966C123.233 5.54256 122.875 5.47656 122.488 5.47656H119.049V13.0303H120.618V10.6742H120.625Z" fill="black"/>
<path d="M25.7202 6.53633C25.4813 6.29233 25.2119 6.08134 24.9222 5.90854C24.6324 5.73313 24.3122 5.59583 23.9741 5.50183C23.6361 5.40523 23.2803 5.35693 22.9168 5.35693C22.3831 5.35693 21.8722 5.46113 21.3995 5.66703C20.9267 5.87293 20.5099 6.15503 20.1566 6.50583C19.8033 6.85903 19.5212 7.27593 19.3179 7.74863C19.112 8.22143 19.0078 8.73224 19.0078 9.26604C19.0078 9.79974 19.112 10.3106 19.3179 10.7833C19.5237 11.2561 19.8059 11.6729 20.1566 12.0262C20.5099 12.3795 20.9267 12.6616 21.3995 12.8675C21.8722 13.0733 22.3831 13.1775 22.9168 13.1775C23.2803 13.1775 23.6361 13.1292 23.9741 13.0327C24.3122 12.9361 24.6324 12.7988 24.9222 12.626C25.2119 12.4506 25.4813 12.2397 25.7202 11.9982C25.9591 11.7542 26.165 11.4797 26.3302 11.1773L26.3709 11.101L24.9094 10.5088L24.8739 10.5622C24.7697 10.7198 24.6451 10.8697 24.5053 11.0095C24.3655 11.1493 24.208 11.2739 24.0402 11.3781C23.8699 11.4823 23.6895 11.5636 23.5014 11.6221C23.3133 11.6805 23.1176 11.7085 22.9168 11.7085C22.594 11.7085 22.2865 11.6424 22.0044 11.5077C21.7222 11.373 21.4732 11.1951 21.2647 10.9739C21.0563 10.7528 20.8886 10.491 20.764 10.1987C20.6395 9.90653 20.5785 9.59383 20.5785 9.26853C20.5785 8.94323 20.642 8.63823 20.764 8.34343C20.8886 8.04603 21.0563 7.78424 21.2647 7.56314C21.4732 7.34194 21.7222 7.16154 22.0044 7.02934C22.2865 6.89724 22.594 6.82854 22.9168 6.82854C23.1176 6.82854 23.3133 6.85904 23.5014 6.91504C23.6895 6.97344 23.8699 7.05473 24.0402 7.15903C24.2105 7.26323 24.3655 7.38523 24.5079 7.52243C24.6477 7.65973 24.7722 7.80963 24.8764 7.96463L24.912 8.01803L26.376 7.42583L26.3328 7.34963C26.1676 7.05473 25.9642 6.78283 25.7253 6.53883" fill="black"/>
<path d="M33.0552 9.25303C33.0552 9.57843 32.9916 9.89102 32.8696 10.1833C32.7451 10.4756 32.5748 10.7399 32.3638 10.9635C32.1529 11.1872 31.9013 11.3702 31.6191 11.5024C31.3396 11.6345 31.032 11.7032 30.7092 11.7032C30.3865 11.7032 30.0789 11.6371 29.7993 11.5024C29.5172 11.3702 29.2681 11.1872 29.0546 10.9635C28.8437 10.7399 28.6734 10.4756 28.5489 10.1833C28.4269 9.89102 28.3633 9.57843 28.3633 9.25303C28.3633 8.92773 28.4269 8.62272 28.5489 8.32792C28.6734 8.03052 28.8411 7.76872 29.0521 7.54762C29.2631 7.32652 29.5121 7.14602 29.7968 7.01382C30.0764 6.88172 30.3839 6.81313 30.7067 6.81313C31.0295 6.81313 31.337 6.87912 31.6166 7.01382C31.8987 7.14862 32.1504 7.32652 32.3613 7.54762C32.5723 7.76872 32.7425 8.03052 32.8645 8.32792C32.9891 8.62272 33.0501 8.93533 33.0501 9.25303M33.4695 6.48523C33.1162 6.13193 32.6993 5.84983 32.2266 5.64643C31.7539 5.44063 31.2404 5.33643 30.6991 5.33643C30.1577 5.33643 29.6545 5.44063 29.1817 5.64643C28.709 5.85233 28.2922 6.13443 27.9389 6.48523C27.5856 6.83853 27.3035 7.25783 27.1001 7.73313C26.8943 8.20843 26.79 8.72182 26.79 9.25562C26.79 9.78932 26.8943 10.3103 27.1001 10.7831C27.306 11.2558 27.5881 11.6727 27.9389 12.0259C28.2896 12.3792 28.709 12.6614 29.1817 12.8672C29.6545 13.0731 30.1653 13.1773 30.6991 13.1773C31.2328 13.1773 31.7539 13.0731 32.2266 12.8672C32.6993 12.6614 33.1162 12.3792 33.4695 12.0259C33.8227 11.6727 34.1049 11.2558 34.3082 10.7831C34.5141 10.3103 34.6183 9.79692 34.6183 9.25562C34.6183 8.71422 34.5141 8.21103 34.3082 7.73313C34.1023 7.25783 33.8202 6.83853 33.4695 6.48523Z" fill="black"/>
<path d="M47.1203 9.26356C47.1203 9.76176 47.0516 10.171 46.9144 10.476C46.7771 10.7809 46.6043 11.0199 46.3959 11.1902C46.1875 11.3604 45.9511 11.4748 45.6944 11.5333C45.4326 11.5917 45.1683 11.6222 44.9116 11.6222H43.4832V6.90496H44.9116C45.1607 6.90496 45.4199 6.93546 45.6842 6.99386C45.9409 7.05236 46.1799 7.16666 46.3908 7.33196C46.6018 7.49966 46.7771 7.73856 46.9144 8.04616C47.0516 8.35366 47.1203 8.76536 47.1203 9.26356ZM47.565 6.42706C46.8737 5.79676 45.9791 5.47656 44.909 5.47656H41.915V13.0303H44.909C45.4402 13.0303 45.9359 12.9515 46.3832 12.7939C46.8331 12.6363 47.2295 12.4 47.565 12.0899C47.9361 11.7544 48.2182 11.3401 48.4063 10.8623C48.5944 10.387 48.6884 9.84556 48.6884 9.25086C48.6884 8.65606 48.5944 8.12746 48.4063 7.64966C48.2182 7.17176 47.9336 6.76006 47.565 6.42196" fill="black"/>
<path d="M10.9684 5.42566L12.6383 4.31246L14.3081 5.42566L13.7642 3.49406L15.3375 2.25116L13.3321 2.17236L12.6383 0.289062L11.9419 2.17236L9.93652 2.25116L11.5123 3.49406L10.9684 5.42566Z" fill="black"/>
<path d="M13.9398 12.5674C13.6602 12.1887 13.3094 11.8938 12.885 11.6854C13.1925 11.4668 13.4467 11.1923 13.6424 10.8594C13.927 10.3765 14.0694 9.84535 14.0694 9.27595C14.0694 8.92275 14.0084 8.56685 13.8838 8.21865C13.7593 7.87045 13.5839 7.55535 13.3577 7.28085C13.129 7.00375 12.8494 6.77505 12.5241 6.60215C12.1911 6.42425 11.8175 6.33535 11.4108 6.33535H5.9184V11.2991C5.3745 11.327 4.8636 11.2254 4.4086 10.9941C4.1748 10.8746 3.9613 10.7221 3.7605 10.5544C3.608 10.4248 3.4606 10.2901 3.3284 10.1325C3.0209 9.77165 2.77945 9.34965 2.60662 8.87945C2.43379 8.40925 2.34737 7.90605 2.34737 7.38505C2.34737 6.91735 2.42108 6.44465 2.56596 5.98205C2.70829 5.52455 2.92687 5.10515 3.2141 4.73915C3.4987 4.37575 3.8546 4.08085 4.2714 3.85465C4.8738 3.53195 5.6439 3.42765 6.4699 3.60565C6.7241 3.65895 6.9731 3.75045 7.2146 3.87755C7.4535 4.00465 7.6772 4.17495 7.8805 4.38085C8.0813 4.58665 8.2592 4.84845 8.4041 5.15855L8.5261 5.41775L10.0053 4.45955L9.9113 4.26135C9.5656 3.53955 9.0293 2.94475 8.3202 2.49495C7.6086 2.04505 6.7495 1.81885 5.7659 1.81885C4.9398 1.81885 4.1875 1.98155 3.5318 2.30425C2.88112 2.62455 2.32196 3.05155 1.87209 3.57515C1.42222 4.09615 1.07656 4.69345 0.845271 5.34665C0.613981 5.99985 0.49707 6.66575 0.49707 7.32405C0.49707 8.02295 0.624151 8.71935 0.875771 9.39295C1.12739 10.0664 1.4883 10.6764 1.9458 11.2076C2.40583 11.7388 2.95737 12.1759 3.5851 12.5038C3.6436 12.5343 3.7046 12.5546 3.7631 12.5826C3.8012 12.6004 3.8368 12.6156 3.8749 12.6334C3.9867 12.6817 4.1011 12.7275 4.218 12.7656C4.2943 12.791 4.3731 12.8164 4.4518 12.8393C4.5713 12.8724 4.6908 12.9003 4.8128 12.9257C4.8941 12.941 4.9754 12.9562 5.0593 12.9664C5.2652 12.9943 5.4787 13.0096 5.6947 13.0096C5.7684 13.0096 5.8447 13.0096 5.9209 13.0045C6.2742 12.9867 6.6376 12.9308 7.0036 12.8393C7.4459 12.7275 7.8729 12.5572 8.2719 12.3411C8.4219 12.2598 8.5667 12.1709 8.7065 12.0743C8.8006 12.0107 8.8895 11.9421 8.9785 11.8709C9.1107 11.7642 9.2352 11.6524 9.3547 11.5329C9.436 11.4516 9.5122 11.3677 9.5834 11.2813C9.6546 11.1949 9.7232 11.1034 9.7867 11.0093C9.9138 10.8213 10.0231 10.6205 10.1121 10.407L10.1756 10.2392L10.018 10.0969L8.8819 9.05235C8.8819 9.05235 8.765 9.31915 8.7015 9.44115C8.6379 9.56315 8.5032 9.77925 8.4117 9.90125C8.277 10.0791 8.1652 10.2138 8.0178 10.3612C7.9339 10.4451 7.8449 10.5163 7.7585 10.59V7.98995H10.9533C11.1363 7.98995 11.3041 8.02555 11.4642 8.10175C11.6218 8.17545 11.759 8.27715 11.8683 8.40675C11.9827 8.54145 12.0742 8.70665 12.1428 8.89475C12.2114 9.08535 12.247 9.29125 12.247 9.50725C12.247 9.71065 12.2114 9.90885 12.1377 10.0918C12.064 10.2748 11.9649 10.4375 11.8429 10.5722C11.7209 10.7069 11.5786 10.8111 11.4083 10.8924C11.2456 10.9687 11.0626 11.0093 10.8644 11.0093H10.3815C10.3281 11.1059 10.2696 11.2025 10.2086 11.294C10.0638 11.5075 9.8986 11.7108 9.713 11.8938C9.4716 12.1353 9.2047 12.3539 8.92 12.5445C8.8743 12.575 8.8946 12.5953 8.92 12.5953H11.2812C11.4769 12.5953 11.6599 12.636 11.8226 12.7173C11.9903 12.8012 12.1352 12.9156 12.2572 13.0553C12.3817 13.2002 12.4809 13.3731 12.5546 13.5662C12.6283 13.7594 12.6639 13.9627 12.6639 14.1686C12.6639 14.3745 12.6257 14.5702 12.5495 14.7582C12.4732 14.9438 12.3665 15.109 12.2318 15.2488C12.0945 15.3911 11.9344 15.5055 11.754 15.5894C11.5811 15.6732 11.388 15.7139 11.1795 15.7139H7.7636V13.1316C7.5577 13.2078 7.3468 13.2765 7.1333 13.3298C6.7596 13.4239 6.3733 13.4823 5.9489 13.5001C5.9412 13.5001 5.9336 13.5001 5.9235 13.5001V17.3685H11.1795C11.632 17.3685 12.0615 17.2999 12.4554 17.1626C12.8545 17.0254 13.2103 16.8246 13.5153 16.5679C13.8228 16.3086 14.0694 15.9909 14.2473 15.6249C14.4278 15.2564 14.5167 14.8447 14.5167 14.4024C14.5167 13.6984 14.3235 13.0757 13.9423 12.5546" fill="black"/>
<path d="M14.3567 17.3994C14.1432 17.3994 13.9932 17.2393 13.9932 17.0283C13.9932 16.8046 14.161 16.6572 14.3567 16.6572C14.5524 16.6572 14.7201 16.8046 14.7201 17.0283C14.7201 17.252 14.5524 17.3994 14.3567 17.3994ZM14.3567 16.7233C14.1966 16.7233 14.072 16.8478 14.072 17.0283C14.072 17.1961 14.1813 17.3333 14.3567 17.3333C14.5143 17.3333 14.6413 17.2088 14.6413 17.0283C14.6413 16.8478 14.5168 16.7233 14.3567 16.7233ZM14.283 17.2418H14.2144V16.8326H14.3694C14.4685 16.8326 14.5193 16.8682 14.5193 16.9495C14.5193 17.0232 14.4736 17.0537 14.4126 17.0613L14.527 17.2418H14.4507L14.344 17.0664H14.2804V17.2418H14.283ZM14.3592 17.008C14.4101 17.008 14.4533 17.0029 14.4533 16.9444C14.4533 16.8961 14.405 16.8885 14.3643 16.8885H14.283V17.008H14.3592Z" fill="black"/>
</g>
</svg>
