<svg width="100" height="14" viewBox="0 0 100 14" fill="none" xmlns="http://www.w3.org/2000/svg">
<path d="M47.321 0.408203L40.1781 10.1019L33.0352 0.408203V13.393H34.8209V5.8421L40.1781 13.1126L45.5352 5.8421V13.393H47.321V0.408203ZM53.571 13.393H51.7852V0.893002H57.5889C58.6545 0.893002 59.6763 1.3163 60.4298 2.0698C61.1833 2.8233 61.6067 3.8452 61.6067 4.9108C61.6067 5.9764 61.1833 6.9984 60.4298 7.7519C59.6763 8.5054 58.6545 8.9287 57.5889 8.9287H53.571V13.393ZM53.571 7.143H57.5889C58.1809 7.143 58.7486 6.9078 59.1672 6.4892C59.5859 6.0706 59.821 5.5028 59.821 4.9108C59.821 4.3188 59.5859 3.7511 59.1672 3.3325C58.7486 2.9139 58.1809 2.6787 57.5889 2.6787H53.571V7.143ZM73.9844 13.393H76.0156L69.196 0.803701L62.3773 13.393H64.4084L65.8594 10.7144H72.5334L73.9844 13.393ZM66.8254 8.9287L69.196 4.5537L71.5666 8.9287H66.8254ZM86.6066 9.8974C86.6066 12.0144 84.6645 13.6117 82.0885 13.6117C81.2545 13.5954 80.4335 13.3991 79.6814 13.0362C78.9297 12.6733 78.2654 12.1524 77.7335 11.5091L78.9924 10.2814C79.3565 10.7609 79.824 11.1524 80.3596 11.4268C80.8956 11.7011 81.4865 11.8513 82.0885 11.8662C83.6955 11.8662 84.8205 11.0573 84.8205 9.9019C84.8205 8.9108 84.1456 8.2448 82.7586 7.8635L81.2495 7.518C78.0352 6.7287 78.0352 4.801 78.0352 4.1671C78.0352 2.1742 79.6425 0.834902 82.0396 0.834902C82.8126 0.832502 83.5765 0.994401 84.2815 1.31C84.9865 1.6256 85.6165 2.0876 86.1295 2.6653L84.8706 3.8957C84.1356 3.1043 83.1186 2.6325 82.0396 2.5814C80.6296 2.5814 79.821 3.1591 79.821 4.168C79.821 4.4689 79.9352 5.4733 81.4035 5.7894L82.7726 6.0974C85.2816 6.6849 86.6066 8.0001 86.6066 9.8974ZM99.1066 9.8974C99.1066 12.0144 97.1645 13.6117 94.5885 13.6117C93.7545 13.5954 92.9335 13.3991 92.1815 13.0362C91.4295 12.6733 90.7656 12.1524 90.2336 11.5091L91.4925 10.2814C91.8565 10.7609 92.3236 11.1524 92.8596 11.4268C93.3956 11.7011 93.9865 11.8513 94.5885 11.8662C96.1955 11.8662 97.3205 11.0573 97.3205 9.9019C97.3205 8.9108 96.6456 8.2448 95.2586 7.8635L93.7495 7.518C90.5355 6.7287 90.5356 4.801 90.5356 4.1671C90.5356 2.1742 92.1426 0.834902 94.5396 0.834902C95.3126 0.832502 96.0765 0.994401 96.7815 1.31C97.4865 1.6256 98.1165 2.0876 98.6295 2.6653L97.3706 3.8957C96.6356 3.1043 95.6186 2.6325 94.5396 2.5814C93.1296 2.5814 92.3205 3.1591 92.3205 4.168C92.3205 4.4689 92.4355 5.4733 93.9035 5.7894L95.2726 6.0974C97.7816 6.6849 99.1066 8.0001 99.1066 9.8974ZM11.0611 10.6117C10.3743 11.2985 9.49935 11.7663 8.54675 11.9557C7.59415 12.1452 6.60675 12.048 5.70945 11.6763C4.81215 11.3047 4.04515 10.6752 3.50555 9.8677C2.96595 9.0601 2.67795 8.1107 2.67795 7.1394C2.67795 6.1682 2.96595 5.2187 3.50555 4.4111C4.04515 3.6036 4.81215 2.9742 5.70945 2.6025C6.60675 2.2308 7.59415 2.1336 8.54675 2.3231C9.49935 2.5126 10.3743 2.9803 11.0611 3.6671L11.3772 3.9832L12.6397 2.7233L12.3209 2.4108C11.3844 1.4744 10.1912 0.836702 8.89225 0.578302C7.59335 0.320002 6.24695 0.452601 5.02335 0.959501C3.79975 1.4663 2.75395 2.3246 2.01815 3.4258C1.28235 4.527 0.889648 5.8217 0.889648 7.1461C0.889648 8.4705 1.28235 9.7652 2.01815 10.8664C2.75395 11.9676 3.79975 12.8259 5.02335 13.3328C6.24695 13.8396 7.59335 13.9722 8.89225 13.7139C10.1912 13.4556 11.3844 12.8178 12.3209 11.8814L12.637 11.5662L11.3745 10.3028L11.0611 10.6117ZM22.7673 0.446602C21.4429 0.446602 20.1482 0.839302 19.047 1.5751C17.9458 2.3109 17.0875 3.3568 16.5807 4.5804C16.0738 5.804 15.9412 7.1504 16.1996 8.4494C16.458 9.7484 17.0957 10.9416 18.0323 11.8781C18.9688 12.8146 20.162 13.4524 21.4609 13.7107C22.7599 13.9691 24.1063 13.8365 25.33 13.3297C26.5536 12.8228 27.5994 11.9645 28.3352 10.8633C29.071 9.7621 29.4638 8.4674 29.4638 7.143C29.4638 6.2636 29.2906 5.3928 28.954 4.5804C28.6175 3.7679 28.1243 3.0297 27.5024 2.4079C26.8806 1.7861 26.1424 1.2928 25.33 0.956303C24.5175 0.619803 23.6467 0.446602 22.7673 0.446602ZM22.7673 12.0537C21.7961 12.0537 20.8467 11.7657 20.0391 11.2261C19.2315 10.6865 18.6021 9.9195 18.2304 9.0222C17.8588 8.1249 17.7615 7.1375 17.951 6.1849C18.1405 5.2324 18.6082 4.3574 19.2949 3.6706C19.9817 2.9838 20.8567 2.5161 21.8093 2.3266C22.7619 2.1371 23.7493 2.2344 24.6466 2.6061C25.5439 2.9778 26.3109 3.6072 26.8505 4.4147C27.39 5.2223 27.6781 6.1717 27.6781 7.143C27.6781 8.4454 27.1607 9.6944 26.2397 10.6154C25.3188 11.5363 24.0697 12.0537 22.7673 12.0537ZM25.6307 5.5421L24.3682 4.2796L19.904 8.7439L21.1665 10.0064L25.6307 5.5421Z" fill="black"/>
</svg>
