<svg width="140" height="48" viewBox="0 0 140 48" fill="none" xmlns="http://www.w3.org/2000/svg">
<path d="M67.3214 17.408L60.1786 27.1017L53.0357 17.408V30.3928H54.8214V22.8419L60.1786 30.1124L65.5357 22.8419V30.3928H67.3214V17.408ZM73.5714 30.3928H71.7857V17.8928H77.5893C78.6549 17.8928 79.6768 18.3161 80.4303 19.0696C81.1838 19.8231 81.6071 20.845 81.6071 21.9106C81.6071 22.9762 81.1838 23.9982 80.4303 24.7517C79.6768 25.5052 78.6549 25.9285 77.5893 25.9285H73.5714V30.3928ZM73.5714 24.1428H77.5893C78.1813 24.1428 78.749 23.9076 79.1676 23.489C79.5863 23.0704 79.8214 22.5026 79.8214 21.9106C79.8214 21.3186 79.5863 20.7509 79.1676 20.3323C78.749 19.9137 78.1813 19.6785 77.5893 19.6785H73.5714V24.1428ZM93.9848 30.3928H96.0161L89.1964 17.8035L82.3777 30.3928H84.4089L85.8598 27.7142H92.5339L93.9848 30.3928ZM86.8259 25.9285L89.1964 21.5535L91.567 25.9285H86.8259ZM106.607 26.8972C106.607 29.0142 104.665 30.6115 102.089 30.6115C101.255 30.5952 100.434 30.3989 99.6819 30.036C98.9302 29.6731 98.2658 29.1522 97.7339 28.5089L98.9929 27.2812C99.357 27.7607 99.8244 28.1522 100.36 28.4266C100.896 28.7009 101.487 28.8511 102.089 28.866C103.696 28.866 104.821 28.0571 104.821 26.9017C104.821 25.9106 104.146 25.2446 102.759 24.8633L101.25 24.5178C98.0357 23.7285 98.0357 21.8008 98.0357 21.1669C98.0357 19.174 99.6429 17.8347 102.04 17.8347C102.813 17.8323 103.577 17.9942 104.282 18.3098C104.987 18.6254 105.617 19.0874 106.13 19.6651L104.871 20.8955C104.136 20.1041 103.119 19.6323 102.04 19.5812C100.63 19.5812 99.8214 20.1589 99.8214 21.1678C99.8214 21.4687 99.9357 22.4731 101.404 22.7892L102.773 23.0972C105.282 23.6847 106.607 24.9999 106.607 26.8972ZM119.107 26.8972C119.107 29.0142 117.165 30.6115 114.589 30.6115C113.755 30.5952 112.934 30.3989 112.182 30.036C111.43 29.6731 110.766 29.1522 110.234 28.5089L111.493 27.2812C111.857 27.7607 112.324 28.1522 112.86 28.4266C113.396 28.7009 113.987 28.8511 114.589 28.866C116.196 28.866 117.321 28.0571 117.321 26.9017C117.321 25.9106 116.646 25.2446 115.259 24.8633L113.75 24.5178C110.536 23.7285 110.536 21.8008 110.536 21.1669C110.536 19.174 112.143 17.8347 114.54 17.8347C115.313 17.8323 116.077 17.9942 116.782 18.3098C117.487 18.6254 118.117 19.0874 118.63 19.6651L117.371 20.8955C116.636 20.1041 115.619 19.6323 114.54 19.5812C113.13 19.5812 112.321 20.1589 112.321 21.1678C112.321 21.4687 112.436 22.4731 113.904 22.7892L115.273 23.0972C117.782 23.6847 119.107 24.9999 119.107 26.8972ZM31.0616 27.6115C30.3748 28.2983 29.4998 28.7661 28.5472 28.9555C27.5946 29.145 26.6072 29.0478 25.7099 28.6761C24.8126 28.3045 24.0456 27.675 23.506 26.8675C22.9664 26.0599 22.6784 25.1105 22.6784 24.1392C22.6784 23.168 22.9664 22.2185 23.506 21.4109C24.0456 20.6034 24.8126 19.974 25.7099 19.6023C26.6072 19.2306 27.5946 19.1334 28.5472 19.3229C29.4998 19.5124 30.3748 19.9801 31.0616 20.6669L31.3777 20.983L32.6402 19.7231L32.3214 19.4106C31.3849 18.4742 30.1917 17.8365 28.8927 17.5781C27.5938 17.3198 26.2474 17.4524 25.0238 17.9593C23.8002 18.4661 22.7544 19.3244 22.0186 20.4256C21.2828 21.5268 20.8901 22.8215 20.8901 24.1459C20.8901 25.4703 21.2828 26.765 22.0186 27.8662C22.7544 28.9674 23.8002 29.8257 25.0238 30.3326C26.2474 30.8394 27.5938 30.972 28.8927 30.7137C30.1917 30.4554 31.3849 29.8176 32.3214 28.8812L32.6375 28.566L31.375 27.3026L31.0616 27.6115ZM42.7678 17.4464C41.4434 17.4464 40.1487 17.8391 39.0475 18.5749C37.9463 19.3107 37.088 20.3566 36.5812 21.5802C36.0743 22.8038 35.9417 24.1502 36.2001 25.4492C36.4585 26.7482 37.0962 27.9414 38.0328 28.8779C38.9693 29.8144 40.1625 30.4522 41.4614 30.7105C42.7604 30.9689 44.1068 30.8363 45.3305 30.3295C46.5541 29.8226 47.5999 28.9643 48.3357 27.8631C49.0715 26.7619 49.4643 25.4672 49.4643 24.1428C49.4643 23.2634 49.2911 22.3926 48.9545 21.5802C48.618 20.7677 48.1248 20.0295 47.5029 19.4077C46.8811 18.7859 46.1429 18.2926 45.3305 17.9561C44.518 17.6196 43.6472 17.4464 42.7678 17.4464ZM42.7678 29.0535C41.7966 29.0535 40.8472 28.7655 40.0396 28.2259C39.232 27.6863 38.6026 26.9193 38.2309 26.022C37.8593 25.1247 37.762 24.1373 37.9515 23.1847C38.141 22.2322 38.6087 21.3572 39.2954 20.6704C39.9822 19.9836 40.8572 19.5159 41.8098 19.3264C42.7624 19.1369 43.7498 19.2342 44.6471 19.6059C45.5444 19.9776 46.3114 20.607 46.851 21.4145C47.3905 22.2221 47.6786 23.1715 47.6786 24.1428C47.6786 25.4452 47.1612 26.6942 46.2402 27.6152C45.3193 28.5361 44.0702 29.0535 42.7678 29.0535ZM45.6312 22.5419L44.3687 21.2794L39.9045 25.7437L41.167 27.0062L45.6312 22.5419Z" fill="black"/>
</svg>
