<svg width="98" height="28" viewBox="0 0 98 28" fill="none" xmlns="http://www.w3.org/2000/svg">
  <path
    d="M83.5084 8.94989C84.4829 8.92267 85.2532 8.19785 85.229 7.33095C85.2048 6.46405 84.3952 5.78336 83.4207 5.81058C82.4462 5.8378 81.6759 6.56262 81.7001 7.42952C81.7243 8.29642 82.5339 8.97711 83.5084 8.94989Z"
    fill="#F05B2C" />
  <path
    d="M37.5389 19.0041C37.544 18.8402 37.4878 18.8149 37.3705 18.9285C36.3527 19.9066 34.8789 20.1771 33.5735 19.8971C30.5843 19.2558 29.2695 16.556 29.9297 13.6841C30.4557 11.4006 32.4422 10.0479 34.773 10.1217C35.7732 10.1532 36.6195 10.4963 37.3119 11.1509C37.3197 11.1583 37.3294 11.1633 37.34 11.1652C37.3506 11.1671 37.3615 11.1658 37.3713 11.1616C37.3812 11.1574 37.3896 11.1503 37.3955 11.1414C37.4014 11.1324 37.4046 11.1219 37.4046 11.1112L37.4027 6.75225C37.4027 6.67405 37.4418 6.63495 37.52 6.63495L40.1081 6.63306C40.1302 6.63306 40.1514 6.64183 40.167 6.65744C40.1826 6.67305 40.1914 6.69422 40.1914 6.7163L40.1932 19.7136C40.1932 19.7968 40.1523 19.8385 40.0703 19.8385L37.6392 19.8422C37.5522 19.8435 37.5099 19.8006 37.5124 19.7136L37.5389 19.0041ZM35.0348 17.7233C35.6895 17.7199 36.316 17.4359 36.7764 16.934C37.2368 16.432 37.4934 15.7531 37.4897 15.0466C37.486 14.3402 37.2223 13.664 36.7567 13.1669C36.2911 12.6697 35.6617 12.3924 35.0069 12.3958C34.3521 12.3992 33.7256 12.6832 33.2652 13.1851C32.8048 13.6871 32.5482 14.366 32.5519 15.0725C32.5556 15.7789 32.8193 16.4551 33.2849 16.9522C33.7505 17.4494 34.38 17.7267 35.0348 17.7233Z"
    fill="#F05B2C" />
  <path
    d="M79.8795 6.63672H77.227C77.1884 6.63672 77.157 6.66806 77.157 6.70672V19.7683C77.157 19.807 77.1884 19.8383 77.227 19.8383H79.8795C79.9181 19.8383 79.9495 19.807 79.9495 19.7683V6.70672C79.9495 6.66806 79.9181 6.63672 79.8795 6.63672Z"
    fill="#F05B2C" />
  <path
    d="M52.1633 15.0537C52.1633 15.7074 52.0262 16.3547 51.7597 16.9586C51.4932 17.5625 51.1025 18.1112 50.6101 18.5734C50.1177 19.0356 49.5331 19.4023 48.8897 19.6524C48.2463 19.9026 47.5567 20.0313 46.8603 20.0313C45.4539 20.0313 44.1051 19.5069 43.1106 18.5734C42.1161 17.6399 41.5574 16.3739 41.5574 15.0537C41.5574 13.7336 42.1161 12.4675 43.1106 11.5341C44.1051 10.6006 45.4539 10.0762 46.8603 10.0762C48.2668 10.0762 49.6156 10.6006 50.6101 11.5341C51.6046 12.4675 52.1633 13.7336 52.1633 15.0537ZM46.8536 17.7232C47.1779 17.7226 47.4988 17.6531 47.7981 17.5186C48.0974 17.3842 48.3692 17.1873 48.5981 16.9394C48.8269 16.6915 49.0082 16.3973 49.1318 16.0736C49.2553 15.75 49.3185 15.4033 49.3179 15.0532C49.3173 14.7031 49.2528 14.3566 49.1282 14.0334C49.0036 13.7102 48.8212 13.4167 48.5915 13.1696C48.3618 12.9224 48.0893 12.7265 47.7895 12.5931C47.4897 12.4597 47.1686 12.3913 46.8443 12.3918C46.5201 12.3924 46.1992 12.4619 45.8999 12.5964C45.6006 12.7309 45.3287 12.9277 45.0999 13.1757C44.8711 13.4236 44.6897 13.7178 44.5662 14.0414C44.4427 14.365 44.3795 14.7118 44.3801 15.0618C44.3807 15.4119 44.4452 15.7584 44.5698 16.0816C44.6944 16.4048 44.8768 16.6984 45.1065 16.9455C45.3362 17.1926 45.6087 17.3885 45.9085 17.5219C46.2083 17.6554 46.5294 17.7238 46.8536 17.7232Z"
    fill="#F05B2C" />
  <path
    d="M56.2913 18.9679L56.297 23.2039C56.297 23.227 56.2878 23.2491 56.2715 23.2654C56.2552 23.2817 56.2331 23.2909 56.21 23.2909L53.6238 23.2928C53.538 23.2928 53.4951 23.2499 53.4951 23.1641V10.3825C53.4951 10.3676 53.498 10.3529 53.5038 10.3391C53.5095 10.3253 53.5178 10.3128 53.5284 10.3023C53.5389 10.2917 53.5514 10.2834 53.5652 10.2777C53.579 10.2719 53.5937 10.269 53.6086 10.269L56.0416 10.2633C56.1337 10.2633 56.1784 10.3087 56.1759 10.3996L56.1551 11.1109C56.1501 11.2774 56.2062 11.3007 56.3235 11.1809C57.6497 9.81874 60.1508 9.83388 61.6927 10.7931C63.0372 11.6305 63.7794 12.8786 63.9194 14.5371C64.1786 17.6247 62.1751 20.052 58.9911 19.982C57.9417 19.9593 57.0733 19.608 56.3859 18.9282C56.3783 18.9201 56.3683 18.9146 56.3574 18.9123C56.3465 18.91 56.3352 18.9111 56.3249 18.9154C56.3147 18.9197 56.3059 18.9271 56.2999 18.9364C56.2939 18.9458 56.2909 18.9568 56.2913 18.9679ZM58.6742 17.7193C58.9982 17.7198 59.3191 17.6515 59.6187 17.5182C59.9182 17.3848 60.1905 17.1891 60.4201 16.9421C60.6496 16.6952 60.8318 16.4018 60.9564 16.0789C61.0809 15.7559 61.1453 15.4096 61.1459 15.0598C61.1465 14.71 61.0833 14.3635 60.9599 14.0401C60.8365 13.7167 60.6553 13.4227 60.4266 13.175C60.198 12.9272 59.9264 12.7305 59.6273 12.5961C59.3282 12.4617 59.0075 12.3923 58.6836 12.3917C58.3596 12.3911 58.0387 12.4595 57.7391 12.5928C57.4396 12.7262 57.1673 12.9219 56.9377 13.1689C56.7082 13.4158 56.526 13.7092 56.4014 14.0321C56.2769 14.3551 56.2125 14.7014 56.2119 15.0512C56.2113 15.401 56.2745 15.7475 56.3979 16.0709C56.5213 16.3943 56.7025 16.6883 56.9312 16.936C57.1598 17.1838 57.4314 17.3805 57.7305 17.5149C58.0296 17.6493 58.3503 17.7187 58.6742 17.7193Z"
    fill="#F05B2C" />
  <path
    d="M68.11 18.972L68.1138 23.2042C68.1138 23.2257 68.1054 23.2464 68.0905 23.2617C68.0756 23.277 68.0554 23.2855 68.0343 23.2855L65.4084 23.2931C65.3883 23.2931 65.3691 23.2853 65.3549 23.2715C65.3407 23.2576 65.3327 23.2389 65.3327 23.2193L65.3365 10.3942C65.3365 10.3046 65.3813 10.2598 65.4708 10.2598L67.8811 10.2504C67.8966 10.2504 67.9121 10.2534 67.9264 10.2594C67.9408 10.2653 67.9538 10.2739 67.9647 10.2849C67.9756 10.2958 67.9842 10.3087 67.99 10.3229C67.9958 10.3372 67.9986 10.3524 67.9984 10.3677L67.987 11.115C67.9845 11.2764 68.0406 11.3004 68.1554 11.1869C68.8415 10.5096 69.6954 10.1558 70.717 10.1255C77.5619 9.9212 77.3935 20.3493 70.6546 19.9728C69.6973 19.9198 68.8806 19.5724 68.2046 18.9304C68.1969 18.9225 68.1871 18.9172 68.1764 18.9152C68.1657 18.9132 68.1545 18.9145 68.1444 18.9189C68.1342 18.9234 68.1255 18.9308 68.1194 18.9403C68.1133 18.9497 68.11 18.9608 68.11 18.972ZM70.5024 17.7196C70.8266 17.7201 71.1478 17.6519 71.4475 17.5186C71.7473 17.3854 72.0198 17.1898 72.2495 16.943C72.4792 16.6962 72.6616 16.4031 72.7862 16.0803C72.9109 15.7576 72.9753 15.4116 72.976 15.062C72.9766 14.7124 72.9133 14.3662 72.7898 14.043C72.6663 13.7198 72.4849 13.4261 72.2561 13.1785C72.0273 12.9309 71.7555 12.7344 71.4561 12.6001C71.1568 12.4658 70.8359 12.3964 70.5117 12.3958C70.1875 12.3952 69.8663 12.4635 69.5665 12.5968C69.2667 12.73 68.9942 12.9256 68.7645 13.1724C68.5348 13.4192 68.3525 13.7123 68.2278 14.035C68.1032 14.3578 68.0387 14.7038 68.0381 15.0534C68.0375 15.4029 68.1008 15.7492 68.2243 16.0724C68.3478 16.3955 68.5291 16.6893 68.758 16.9369C68.9868 17.1845 69.2586 17.381 69.5579 17.5153C69.8572 17.6496 70.1782 17.719 70.5024 17.7196Z"
    fill="#F05B2C" />
  <path
    d="M96.8422 15.0518C96.8422 16.3719 96.2834 17.638 95.2889 18.5715C94.2944 19.5049 92.9456 20.0294 91.5392 20.0294C90.8428 20.0294 90.1532 19.9006 89.5098 19.6505C88.8664 19.4003 88.2818 19.0337 87.7894 18.5715C87.297 18.1092 86.9064 17.5605 86.6399 16.9566C86.3734 16.3527 86.2362 15.7054 86.2362 15.0518C86.2362 14.3981 86.3734 13.7509 86.6399 13.147C86.9064 12.543 87.297 11.9943 87.7894 11.5321C88.2818 11.0699 88.8664 10.7033 89.5098 10.4531C90.1532 10.203 90.8428 10.0742 91.5392 10.0742C92.9456 10.0742 94.2944 10.5986 95.2889 11.5321C96.2834 12.4656 96.8422 13.7317 96.8422 15.0518ZM91.5232 17.7212C91.8476 17.7218 92.1691 17.6535 92.4691 17.5201C92.7691 17.3868 93.0418 17.1911 93.2717 16.9441C93.5015 16.6971 93.684 16.4038 93.8088 16.0808C93.9335 15.7579 93.998 15.4116 93.9986 15.0618C93.9992 14.712 93.9359 14.3655 93.8123 14.0421C93.6887 13.7187 93.5072 13.4247 93.2782 13.1769C93.0492 12.9292 92.7772 12.7325 92.4777 12.5981C92.1781 12.4637 91.857 12.3942 91.5325 12.3937C91.208 12.3931 90.8866 12.4615 90.5866 12.5948C90.2866 12.7281 90.0139 12.9239 89.784 13.1708C89.5541 13.4178 89.3716 13.7111 89.2469 14.0341C89.1221 14.3571 89.0576 14.7033 89.057 15.0531C89.0564 15.403 89.1197 15.7495 89.2433 16.0729C89.3669 16.3963 89.5484 16.6902 89.7774 16.938C90.0064 17.1857 90.2785 17.3824 90.578 17.5168C90.8775 17.6512 91.1987 17.7207 91.5232 17.7212Z"
    fill="#F05B2C" />
  <path
    d="M84.7757 10.2578H82.1497C82.1048 10.2578 82.0684 10.2942 82.0684 10.3392V19.7646C82.0684 19.8095 82.1048 19.8459 82.1497 19.8459H84.7757C84.8206 19.8459 84.857 19.8095 84.857 19.7646V10.3392C84.857 10.2942 84.8206 10.2578 84.7757 10.2578Z"
    fill="#F05B2C" />
  <path
    d="M18.2303 7.64332L18.1962 5.24441C18.1962 5.17882 18.2145 5.11954 18.2511 5.06657C18.303 4.99112 18.3757 4.92836 18.4493 4.86488C18.5178 4.80579 18.587 4.74609 18.6408 4.67495C19.2071 3.92197 19.3125 3.14357 18.9366 2.3515C17.6974 -0.251746 13.7654 1.51738 15.0254 4.31549C15.1348 4.55742 15.3358 4.75417 15.5283 4.94254C15.5721 4.98541 15.6155 5.02791 15.6573 5.07035C15.7052 5.11954 15.7285 5.17819 15.7273 5.2463L15.714 7.71143L7.73593 7.74359C7.59972 7.74359 7.58584 7.78521 7.69431 7.86845L14.1059 12.7457C14.1551 12.7836 14.2106 12.8031 14.2724 12.8044C15.149 12.8284 16.5408 12.8359 18.4478 12.8271C19.91 12.8176 21.2846 13.9636 21.2611 15.5079C21.2358 17.2606 19.7605 18.2454 18.1073 18.2152C16.7691 18.1925 15.4984 18.19 14.2951 18.2076C14.2508 18.2077 14.2071 18.2223 14.1703 18.2493L7.6962 23.172C7.57638 23.2615 7.59151 23.3063 7.7416 23.3063C10.7157 23.2861 13.9685 23.2886 17.5 23.3139C18.7713 23.3227 19.7961 23.2268 20.5743 23.0263C23.2482 22.3389 25.0871 20.5416 26.0911 17.6344C26.0911 17.6344 27.7162 17.441 27.7162 15.5079C27.7162 13.8819 26.0911 13.669 26.0911 13.669C26.0911 13.669 25.7398 12.4222 25.5443 12.0628C24.003 9.22998 21.601 7.79088 18.3381 7.74548C18.27 7.74422 18.234 7.71016 18.2303 7.64332Z"
    fill="url(#paint0_linear_358_2840)" />
  <path
    d="M14.9648 14.2688C14.9648 14.2601 14.9665 14.2515 14.9699 14.2434C14.9732 14.2354 14.9781 14.2281 14.9842 14.2219C14.9904 14.2158 14.9977 14.2109 15.0057 14.2076C15.0137 14.2043 15.0224 14.2025 15.0311 14.2025L18.2227 14.1969C18.4011 14.1966 18.5778 14.2302 18.7427 14.2956C18.9076 14.3611 19.0575 14.4572 19.1838 14.5784C19.3101 14.6996 19.4104 14.8436 19.4789 15.0021C19.5473 15.1606 19.5827 15.3306 19.5829 15.5023V15.5439C19.5834 15.8906 19.4408 16.2233 19.1864 16.4688C18.932 16.7143 18.5867 16.8526 18.2265 16.8531L15.0348 16.8588C15.0173 16.8588 15.0004 16.8518 14.988 16.8394C14.9756 16.8269 14.9686 16.8101 14.9686 16.7925L14.9648 14.2688Z"
    fill="url(#paint1_linear_358_2840)" />
  <path
    d="M11.8773 17.7441L0.315938 18.0071C0.313416 14.7379 0.312785 11.4643 0.314046 8.1863C0.315307 7.64648 0.358821 7.27125 0.444587 7.06062C0.726479 6.3663 1.61945 5.92927 2.3554 6.19792C2.57864 6.2799 2.78927 6.39594 2.98729 6.54603C6.539 9.24639 9.93368 11.8269 13.1713 14.2876C14.0057 14.9214 13.9489 16.1852 13.1222 16.8114C12.7072 17.1255 12.2922 17.4364 11.8773 17.7441Z"
    fill="url(#paint2_linear_358_2840)" />
  <path
    d="M11.8773 17.7441C8.86792 20.0371 5.85095 22.3162 2.82645 24.5815C2.23366 25.0254 1.63582 25.0544 1.03293 24.6685C0.3878 24.2561 0.3178 23.7206 0.315908 22.9942C0.313385 21.3356 0.313416 19.6732 0.315938 18.0071L11.8773 17.7441Z"
    fill="url(#paint3_linear_358_2840)" />
  <defs>
    <linearGradient id="paint0_linear_358_2840" x1="14.0148" y1="1.08105" x2="14.0148" y2="24.9377"
      gradientUnits="userSpaceOnUse">
      <stop stop-color="#FBAC11" />
      <stop offset="1" stop-color="#E64F0D" />
    </linearGradient>
    <linearGradient id="paint1_linear_358_2840" x1="14.0148" y1="1.08105" x2="14.0148" y2="24.9377"
      gradientUnits="userSpaceOnUse">
      <stop stop-color="#FBAC11" />
      <stop offset="1" stop-color="#E64F0D" />
    </linearGradient>
    <linearGradient id="paint2_linear_358_2840" x1="14.0148" y1="1.08105" x2="14.0148" y2="24.9377"
      gradientUnits="userSpaceOnUse">
      <stop stop-color="#FBAC11" />
      <stop offset="1" stop-color="#E64F0D" />
    </linearGradient>
    <linearGradient id="paint3_linear_358_2840" x1="14.0148" y1="1.08105" x2="14.0148" y2="24.9377"
      gradientUnits="userSpaceOnUse">
      <stop stop-color="#FBAC11" />
      <stop offset="1" stop-color="#E64F0D" />
    </linearGradient>
  </defs>
</svg>