<svg width="140" height="48" viewBox="0 0 140 48" fill="none" xmlns="http://www.w3.org/2000/svg">
<path d="M104.508 18.9499C105.483 18.9227 106.253 18.1978 106.229 17.331C106.205 16.4641 105.395 15.7834 104.421 15.8106C103.446 15.8378 102.676 16.5626 102.7 17.4295C102.724 18.2964 103.534 18.9771 104.508 18.9499Z" fill="#F05B2C"/>
<path d="M58.5389 29.0041C58.544 28.8402 58.4878 28.8149 58.3705 28.9285C57.3527 29.9066 55.8789 30.1771 54.5735 29.8971C51.5843 29.2558 50.2695 26.556 50.9297 23.6841C51.4557 21.4006 53.4422 20.0479 55.773 20.1217C56.7732 20.1532 57.6195 20.4963 58.3119 21.1509C58.3197 21.1583 58.3294 21.1633 58.34 21.1652C58.3506 21.1671 58.3615 21.1658 58.3713 21.1616C58.3812 21.1574 58.3896 21.1503 58.3955 21.1414C58.4014 21.1324 58.4046 21.1219 58.4046 21.1112L58.4027 16.7522C58.4027 16.674 58.4418 16.6349 58.52 16.6349L61.1081 16.6331C61.1302 16.6331 61.1514 16.6418 61.167 16.6574C61.1826 16.673 61.1914 16.6942 61.1914 16.7163L61.1932 29.7136C61.1932 29.7968 61.1523 29.8385 61.0703 29.8385L58.6392 29.8422C58.5522 29.8435 58.5099 29.8006 58.5124 29.7136L58.5389 29.0041ZM56.0348 27.7233C56.6895 27.7199 57.316 27.4359 57.7764 26.934C58.2368 26.432 58.4934 25.7531 58.4897 25.0466C58.486 24.3402 58.2223 23.664 57.7567 23.1669C57.2911 22.6697 56.6617 22.3924 56.0069 22.3958C55.3521 22.3992 54.7256 22.6832 54.2652 23.1851C53.8048 23.6871 53.5482 24.366 53.5519 25.0725C53.5556 25.7789 53.8193 26.4551 54.2849 26.9522C54.7505 27.4494 55.38 27.7267 56.0348 27.7233Z" fill="#F05B2C"/>
<path d="M100.879 16.6367H98.227C98.1884 16.6367 98.157 16.6681 98.157 16.7067V29.7683C98.157 29.807 98.1884 29.8383 98.227 29.8383H100.879C100.918 29.8383 100.949 29.807 100.949 29.7683V16.7067C100.949 16.6681 100.918 16.6367 100.879 16.6367Z" fill="#F05B2C"/>
<path d="M73.1633 25.0537C73.1633 25.7074 73.0262 26.3547 72.7597 26.9586C72.4932 27.5625 72.1025 28.1112 71.6101 28.5734C71.1177 29.0356 70.5331 29.4023 69.8897 29.6524C69.2463 29.9026 68.5567 30.0313 67.8603 30.0313C66.4539 30.0313 65.1051 29.5069 64.1106 28.5734C63.1161 27.6399 62.5574 26.3739 62.5574 25.0537C62.5574 23.7336 63.1161 22.4675 64.1106 21.5341C65.1051 20.6006 66.4539 20.0762 67.8603 20.0762C69.2668 20.0762 70.6156 20.6006 71.6101 21.5341C72.6046 22.4675 73.1633 23.7336 73.1633 25.0537ZM67.8536 27.7232C68.1779 27.7226 68.4988 27.6531 68.7981 27.5186C69.0974 27.3842 69.3692 27.1873 69.5981 26.9394C69.8269 26.6915 70.0082 26.3973 70.1318 26.0736C70.2553 25.75 70.3185 25.4033 70.3179 25.0532C70.3173 24.7031 70.2528 24.3566 70.1282 24.0334C70.0036 23.7102 69.8212 23.4167 69.5915 23.1696C69.3618 22.9224 69.0893 22.7265 68.7895 22.5931C68.4897 22.4597 68.1686 22.3913 67.8443 22.3918C67.5201 22.3924 67.1992 22.4619 66.8999 22.5964C66.6006 22.7309 66.3287 22.9277 66.0999 23.1757C65.8711 23.4236 65.6897 23.7178 65.5662 24.0414C65.4427 24.365 65.3795 24.7118 65.3801 25.0618C65.3807 25.4119 65.4452 25.7584 65.5698 26.0816C65.6944 26.4048 65.8768 26.6984 66.1065 26.9455C66.3362 27.1926 66.6087 27.3885 66.9085 27.5219C67.2083 27.6554 67.5294 27.7238 67.8536 27.7232Z" fill="#F05B2C"/>
<path d="M77.2913 28.9679L77.297 33.2039C77.297 33.227 77.2878 33.2491 77.2715 33.2654C77.2552 33.2817 77.2331 33.2909 77.21 33.2909L74.6238 33.2928C74.538 33.2928 74.4951 33.2499 74.4951 33.1641V20.3825C74.4951 20.3676 74.498 20.3529 74.5038 20.3391C74.5095 20.3253 74.5178 20.3128 74.5284 20.3023C74.5389 20.2917 74.5514 20.2834 74.5652 20.2777C74.579 20.2719 74.5937 20.269 74.6086 20.269L77.0416 20.2633C77.1337 20.2633 77.1784 20.3087 77.1759 20.3996L77.1551 21.1109C77.1501 21.2774 77.2062 21.3007 77.3235 21.1809C78.6497 19.8187 81.1508 19.8339 82.6927 20.7931C84.0372 21.6305 84.7794 22.8786 84.9194 24.5371C85.1786 27.6247 83.1751 30.052 79.9911 29.982C78.9417 29.9593 78.0733 29.608 77.3859 28.9282C77.3783 28.9201 77.3683 28.9146 77.3574 28.9123C77.3465 28.91 77.3352 28.9111 77.3249 28.9154C77.3147 28.9197 77.3059 28.9271 77.2999 28.9364C77.2939 28.9458 77.2909 28.9568 77.2913 28.9679ZM79.6742 27.7193C79.9982 27.7198 80.3191 27.6515 80.6187 27.5182C80.9182 27.3848 81.1905 27.1891 81.4201 26.9421C81.6496 26.6952 81.8318 26.4018 81.9564 26.0789C82.0809 25.7559 82.1453 25.4096 82.1459 25.0598C82.1465 24.71 82.0833 24.3635 81.9599 24.0401C81.8365 23.7167 81.6553 23.4227 81.4266 23.175C81.198 22.9272 80.9264 22.7305 80.6273 22.5961C80.3282 22.4617 80.0075 22.3923 79.6836 22.3917C79.3596 22.3911 79.0387 22.4595 78.7391 22.5928C78.4396 22.7262 78.1673 22.9219 77.9377 23.1689C77.7082 23.4158 77.526 23.7092 77.4014 24.0321C77.2769 24.3551 77.2125 24.7014 77.2119 25.0512C77.2113 25.401 77.2745 25.7475 77.3979 26.0709C77.5213 26.3943 77.7025 26.6883 77.9312 26.936C78.1598 27.1838 78.4314 27.3805 78.7305 27.5149C79.0296 27.6493 79.3503 27.7187 79.6742 27.7193Z" fill="#F05B2C"/>
<path d="M89.11 28.972L89.1138 33.2042C89.1138 33.2257 89.1054 33.2464 89.0905 33.2617C89.0756 33.277 89.0554 33.2855 89.0343 33.2855L86.4084 33.2931C86.3883 33.2931 86.3691 33.2853 86.3549 33.2715C86.3407 33.2576 86.3327 33.2389 86.3327 33.2193L86.3365 20.3942C86.3365 20.3046 86.3813 20.2598 86.4708 20.2598L88.8811 20.2504C88.8966 20.2504 88.9121 20.2534 88.9264 20.2594C88.9408 20.2653 88.9538 20.2739 88.9647 20.2849C88.9756 20.2958 88.9842 20.3087 88.99 20.3229C88.9958 20.3372 88.9986 20.3524 88.9984 20.3677L88.987 21.115C88.9845 21.2764 89.0406 21.3004 89.1554 21.1869C89.8415 20.5096 90.6954 20.1558 91.717 20.1255C98.5619 19.9212 98.3935 30.3493 91.6546 29.9728C90.6973 29.9198 89.8806 29.5724 89.2046 28.9304C89.1969 28.9225 89.1871 28.9172 89.1764 28.9152C89.1657 28.9132 89.1545 28.9145 89.1444 28.9189C89.1342 28.9234 89.1255 28.9308 89.1194 28.9403C89.1133 28.9497 89.11 28.9608 89.11 28.972ZM91.5024 27.7196C91.8266 27.7201 92.1478 27.6519 92.4475 27.5186C92.7473 27.3854 93.0198 27.1898 93.2495 26.943C93.4792 26.6962 93.6616 26.4031 93.7862 26.0803C93.9109 25.7576 93.9753 25.4116 93.976 25.062C93.9766 24.7124 93.9133 24.3662 93.7898 24.043C93.6663 23.7198 93.4849 23.4261 93.2561 23.1785C93.0273 22.9309 92.7555 22.7344 92.4561 22.6001C92.1568 22.4658 91.8359 22.3964 91.5117 22.3958C91.1875 22.3952 90.8663 22.4635 90.5665 22.5968C90.2667 22.73 89.9942 22.9256 89.7645 23.1724C89.5348 23.4192 89.3525 23.7123 89.2278 24.035C89.1032 24.3578 89.0387 24.7038 89.0381 25.0534C89.0375 25.4029 89.1008 25.7492 89.2243 26.0724C89.3478 26.3955 89.5291 26.6893 89.758 26.9369C89.9868 27.1845 90.2586 27.381 90.5579 27.5153C90.8572 27.6496 91.1782 27.719 91.5024 27.7196Z" fill="#F05B2C"/>
<path d="M117.842 25.0518C117.842 26.3719 117.283 27.638 116.289 28.5715C115.294 29.5049 113.946 30.0294 112.539 30.0294C111.843 30.0294 111.153 29.9006 110.51 29.6505C109.866 29.4003 109.282 29.0337 108.789 28.5715C108.297 28.1092 107.906 27.5605 107.64 26.9566C107.373 26.3527 107.236 25.7054 107.236 25.0518C107.236 24.3981 107.373 23.7509 107.64 23.147C107.906 22.543 108.297 21.9943 108.789 21.5321C109.282 21.0699 109.866 20.7033 110.51 20.4531C111.153 20.203 111.843 20.0742 112.539 20.0742C113.946 20.0742 115.294 20.5986 116.289 21.5321C117.283 22.4656 117.842 23.7317 117.842 25.0518ZM112.523 27.7212C112.848 27.7218 113.169 27.6535 113.469 27.5201C113.769 27.3868 114.042 27.1911 114.272 26.9441C114.502 26.6971 114.684 26.4038 114.809 26.0808C114.934 25.7579 114.998 25.4116 114.999 25.0618C114.999 24.712 114.936 24.3655 114.812 24.0421C114.689 23.7187 114.507 23.4247 114.278 23.1769C114.049 22.9292 113.777 22.7325 113.478 22.5981C113.178 22.4637 112.857 22.3942 112.532 22.3937C112.208 22.3931 111.887 22.4615 111.587 22.5948C111.287 22.7281 111.014 22.9239 110.784 23.1708C110.554 23.4178 110.372 23.7111 110.247 24.0341C110.122 24.3571 110.058 24.7033 110.057 25.0531C110.056 25.403 110.12 25.7495 110.243 26.0729C110.367 26.3963 110.548 26.6902 110.777 26.938C111.006 27.1857 111.278 27.3824 111.578 27.5168C111.878 27.6512 112.199 27.7207 112.523 27.7212Z" fill="#F05B2C"/>
<path d="M105.776 20.2578H103.15C103.105 20.2578 103.068 20.2942 103.068 20.3392V29.7646C103.068 29.8095 103.105 29.8459 103.15 29.8459H105.776C105.821 29.8459 105.857 29.8095 105.857 29.7646V20.3392C105.857 20.2942 105.821 20.2578 105.776 20.2578Z" fill="#F05B2C"/>
<path d="M39.2303 17.6433L39.1962 15.2444C39.1962 15.1788 39.2145 15.1195 39.2511 15.0666C39.303 14.9911 39.3757 14.9284 39.4493 14.8649C39.5178 14.8058 39.587 14.7461 39.6408 14.6749C40.2071 13.922 40.3125 13.1436 39.9366 12.3515C38.6974 9.74825 34.7654 11.5174 36.0254 14.3155C36.1348 14.5574 36.3358 14.7542 36.5283 14.9425C36.5721 14.9854 36.6155 15.0279 36.6573 15.0704C36.7052 15.1195 36.7285 15.1782 36.7273 15.2463L36.714 17.7114L28.7359 17.7436C28.5997 17.7436 28.5858 17.7852 28.6943 17.8685L35.1059 22.7457C35.1551 22.7836 35.2106 22.8031 35.2724 22.8044C36.149 22.8284 37.5408 22.8359 39.4478 22.8271C40.91 22.8176 42.2846 23.9636 42.2611 25.5079C42.2358 27.2606 40.7605 28.2454 39.1073 28.2152C37.7691 28.1925 36.4984 28.19 35.2951 28.2076C35.2508 28.2077 35.2071 28.2223 35.1703 28.2493L28.6962 33.172C28.5764 33.2615 28.5915 33.3063 28.7416 33.3063C31.7157 33.2861 34.9685 33.2886 38.5 33.3139C39.7713 33.3227 40.7961 33.2268 41.5743 33.0263C44.2482 32.3389 46.0871 30.5416 47.0911 27.6344C47.0911 27.6344 48.7162 27.441 48.7162 25.5079C48.7162 23.8819 47.0911 23.669 47.0911 23.669C47.0911 23.669 46.7398 22.4222 46.5443 22.0628C45.003 19.23 42.601 17.7909 39.3381 17.7455C39.27 17.7442 39.234 17.7102 39.2303 17.6433Z" fill="url(#paint0_linear_358_2839)"/>
<path d="M35.9648 24.2688C35.9648 24.2601 35.9665 24.2515 35.9699 24.2434C35.9732 24.2354 35.9781 24.2281 35.9842 24.2219C35.9904 24.2158 35.9977 24.2109 36.0057 24.2076C36.0137 24.2043 36.0224 24.2025 36.0311 24.2025L39.2227 24.1969C39.4011 24.1966 39.5778 24.2302 39.7427 24.2956C39.9076 24.3611 40.0575 24.4572 40.1838 24.5784C40.3101 24.6996 40.4104 24.8436 40.4789 25.0021C40.5473 25.1606 40.5827 25.3306 40.5829 25.5023V25.5439C40.5834 25.8906 40.4408 26.2233 40.1864 26.4688C39.932 26.7143 39.5867 26.8526 39.2265 26.8531L36.0348 26.8588C36.0173 26.8588 36.0004 26.8518 35.988 26.8394C35.9756 26.8269 35.9686 26.8101 35.9686 26.7925L35.9648 24.2688Z" fill="url(#paint1_linear_358_2839)"/>
<path d="M32.8773 27.7441L21.3159 28.0071C21.3134 24.7379 21.3128 21.4643 21.314 18.1863C21.3153 17.6465 21.3588 17.2713 21.4446 17.0606C21.7265 16.3663 22.6195 15.9293 23.3554 16.1979C23.5786 16.2799 23.7893 16.3959 23.9873 16.546C27.539 19.2464 30.9337 21.8269 34.1713 24.2876C35.0057 24.9214 34.9489 26.1852 34.1222 26.8114C33.7072 27.1255 33.2922 27.4364 32.8773 27.7441Z" fill="url(#paint2_linear_358_2839)"/>
<path d="M32.8773 27.7441C29.8679 30.0371 26.851 32.3162 23.8264 34.5815C23.2337 35.0254 22.6358 35.0544 22.0329 34.6685C21.3878 34.2561 21.3178 33.7206 21.3159 32.9942C21.3134 31.3356 21.3134 29.6732 21.3159 28.0071L32.8773 27.7441Z" fill="url(#paint3_linear_358_2839)"/>
<defs>
<linearGradient id="paint0_linear_358_2839" x1="35.0148" y1="11.0811" x2="35.0148" y2="34.9377" gradientUnits="userSpaceOnUse">
<stop stop-color="#FBAC11"/>
<stop offset="1" stop-color="#E64F0D"/>
</linearGradient>
<linearGradient id="paint1_linear_358_2839" x1="35.0148" y1="11.0811" x2="35.0148" y2="34.9377" gradientUnits="userSpaceOnUse">
<stop stop-color="#FBAC11"/>
<stop offset="1" stop-color="#E64F0D"/>
</linearGradient>
<linearGradient id="paint2_linear_358_2839" x1="35.0148" y1="11.0811" x2="35.0148" y2="34.9377" gradientUnits="userSpaceOnUse">
<stop stop-color="#FBAC11"/>
<stop offset="1" stop-color="#E64F0D"/>
</linearGradient>
<linearGradient id="paint3_linear_358_2839" x1="35.0148" y1="11.0811" x2="35.0148" y2="34.9377" gradientUnits="userSpaceOnUse">
<stop stop-color="#FBAC11"/>
<stop offset="1" stop-color="#E64F0D"/>
</linearGradient>
</defs>
</svg>
