<svg width="553" height="311" viewBox="0 0 553 311" fill="none" xmlns="http://www.w3.org/2000/svg">
<g clip-path="url(#clip0_3913_1581)">
<path d="M353.43 50.96L364.08 0H51.3L0 245.01H261.52L247.12 310.72H497.63L552.88 50.96H353.43Z" fill="#02262B"/>
<path d="M106.6 213.73C99.5101 213.73 92.8101 212.57 86.5101 210.24C80.2101 207.92 74.7101 204.49 70.0201 199.96C65.3301 195.43 61.6301 189.86 58.9101 183.24C56.1901 176.62 54.8301 169.02 54.8301 160.43C54.8301 148.69 56.4601 137.99 59.7301 128.34C63.0001 118.69 67.5501 110.42 73.3801 103.52C79.2101 96.6298 86.2001 91.2898 94.3601 87.5098C102.51 83.7298 111.44 81.8398 121.13 81.8398C127.67 81.8398 133.87 82.9798 139.75 85.2698C145.62 87.5598 150.76 90.8798 155.17 95.2598C159.58 99.6298 163.09 105.01 165.69 111.39C168.29 117.77 169.59 125.1 169.59 133.37C169.59 134.63 169.55 136.11 169.47 137.8C169.39 139.5 169.27 141.23 169.11 143C168.95 144.77 168.79 146.51 168.64 148.2C168.48 149.89 168.29 151.33 168.05 152.51H76.2201C76.1401 153.62 76.0801 154.68 76.0401 155.7C76.0001 156.73 75.9801 157.79 75.9801 158.89C75.9801 165.43 76.9301 171 78.8201 175.61C80.7101 180.22 83.1701 183.98 86.2101 186.9C89.2401 189.82 92.6501 191.92 96.4301 193.22C100.21 194.52 104.03 195.17 107.89 195.17C116.32 195.17 123.1 193.71 128.22 190.8C133.34 187.89 137.24 183.95 139.92 178.98H161.55C160.21 183.87 158 188.44 154.93 192.69C151.86 196.94 147.98 200.63 143.29 203.74C138.6 206.85 133.16 209.3 126.98 211.07C120.8 212.84 114 213.73 106.6 213.73ZM148.08 136.08C148.16 135.69 148.22 134.96 148.26 133.89C148.3 132.83 148.32 131.78 148.32 130.76C148.32 126.58 147.71 122.62 146.49 118.88C145.27 115.14 143.44 111.85 140.99 109.01C138.55 106.17 135.51 103.93 131.89 102.27C128.26 100.62 124.05 99.7898 119.24 99.7898C114.35 99.7898 109.78 100.66 105.53 102.39C101.27 104.12 97.4101 106.59 93.9501 109.78C90.4801 112.97 87.4901 116.79 84.9701 121.24C82.4501 125.69 80.4401 130.64 78.9401 136.07H148.08V136.08Z" fill="white"/>
<path d="M227.58 213.73C221.2 213.73 215.21 212.53 209.61 210.12C204.01 207.72 199.11 204.27 194.9 199.78C190.68 195.29 187.35 189.85 184.91 183.47C182.47 177.09 181.25 169.96 181.25 162.08C181.25 154.44 182.02 147.13 183.55 140.16C185.08 133.19 187.27 126.73 190.11 120.78C192.95 114.83 196.35 109.45 200.33 104.65C204.31 99.8402 208.72 95.7502 213.57 92.3602C218.42 88.9702 223.65 86.3702 229.29 84.5602C234.92 82.7502 240.81 81.8402 246.96 81.8402C251.53 81.8402 255.88 82.4702 260.02 83.7302C264.16 84.9902 267.9 86.7402 271.25 88.9902C274.6 91.2402 277.47 93.9502 279.88 97.1402C282.28 100.33 284.04 103.82 285.14 107.6H287.03L302.75 33.4902H323.43L285.61 211.49H265.99L269.65 194.12H267.76C263.11 200.19 257.28 204.97 250.27 208.48C243.26 211.97 235.69 213.73 227.58 213.73ZM234.08 195.41C240.7 195.41 246.82 193.86 252.46 190.74C258.09 187.63 263 183.37 267.17 177.98C271.35 172.58 274.62 166.24 276.98 158.95C279.34 151.66 280.53 143.8 280.53 135.37C280.53 129.93 279.78 125.05 278.28 120.71C276.78 116.38 274.65 112.69 271.9 109.66C269.14 106.63 265.79 104.28 261.85 102.63C257.91 100.97 253.46 100.15 248.49 100.15C241.95 100.15 235.88 101.61 230.29 104.52C224.69 107.44 219.85 111.49 215.75 116.69C211.65 121.89 208.42 128.1 206.06 135.3C203.7 142.5 202.51 150.41 202.51 159C202.51 164.36 203.28 169.28 204.82 173.77C206.36 178.26 208.5 182.1 211.26 185.29C214.02 188.48 217.33 190.96 221.19 192.74C225.05 194.52 229.35 195.41 234.08 195.41Z" fill="white"/>
<path d="M508.94 84.4502H462.81L412.49 146.75H410.01L383.4 84.4502H336.74L376.74 174.94L290.39 277.23H335.9L391.32 211.52H395.06L425 277.23H470.79L426.51 179.47L508.94 84.4502Z" fill="white"/>
</g>
<defs>
<clipPath id="clip0_3913_1581">
<rect width="552.88" height="310.72" fill="white"/>
</clipPath>
</defs>
</svg>
