<svg width="140" height="48" viewBox="0 0 140 48" fill="none" xmlns="http://www.w3.org/2000/svg">
<path d="M34.5008 18.1166C34.5008 18.1166 33.9128 20.4685 33.6544 21.3307C33.3545 22.3251 33.2144 23.9557 33.2341 26.2227C33.2489 27.9451 34.0746 29.6735 36.0959 29.4663C36.5635 29.417 37.1742 29.0974 37.9279 28.5075C37.9338 28.5213 37.9387 28.5341 37.9427 28.5459C38.067 29.6853 38.0995 30.7448 37.3981 31.7126C36.4984 32.9556 34.5304 33 33.2696 32.4495C32.0641 31.9227 30.9977 31.2973 30.0704 30.5732C26.9659 28.1494 24.2135 25.0093 23.3198 21.2951C22.7575 18.9542 23.0889 16.2462 25.1813 14.7813C26.1372 14.1124 27.3181 13.9763 28.4515 13.8194C30.8251 13.488 32.95 15.0269 33.9237 17.1015C34.0525 17.3777 34.5008 18.1166 34.5008 18.1166Z" fill="#E58672"/>
<path d="M34.5007 18.1167C34.9466 19.261 35.3648 20.2564 35.7555 21.1028C36.45 22.6082 37.1741 25.0765 37.9278 28.5075C37.1741 29.0974 36.5634 29.4171 36.0958 29.4664C34.0745 29.6736 33.2488 27.9452 33.234 26.2228C33.2143 23.9558 33.3544 22.3251 33.6543 21.3307C33.9127 20.4685 34.1949 19.3972 34.5007 18.1167Z" fill="#1B1F1C"/>
<path d="M37.9428 28.546C37.9388 28.5342 37.9339 28.5213 37.928 28.5075C37.1743 25.0765 36.4502 22.6082 35.7557 21.1028C35.365 20.2564 34.9468 19.261 34.5009 18.1167C34.5009 18.1167 36.043 14.9879 36.6998 14.1628C36.9582 13.8373 37.3361 13.6488 37.8333 13.5975C40.8224 13.2986 43.8558 15.8527 43.7375 19.0282C43.5865 22.9969 41.0769 26.3204 37.9428 28.546Z" fill="#8890B4"/>
<path d="M69.4525 10.6824L69.4703 14.5208C69.4703 14.6432 69.5196 14.6668 69.6183 14.5919C70.7942 13.7021 72.1013 13.5018 73.5396 13.9911C74.9424 14.4676 75.4958 15.8526 75.484 17.2821C75.4721 18.8013 75.4692 20.2978 75.4751 21.7716C75.4751 21.7883 75.4718 21.8049 75.4654 21.8203C75.459 21.8358 75.4496 21.8498 75.4378 21.8616C75.426 21.8734 75.412 21.8828 75.3965 21.8892C75.3811 21.8956 75.3646 21.8989 75.3479 21.8989L73.6964 21.8841C73.6711 21.8841 73.6466 21.8742 73.6284 21.8565C73.6102 21.8389 73.5996 21.8148 73.5988 21.7894C73.5751 20.5918 73.5771 19.2363 73.6047 17.723C73.6313 16.2403 72.9359 15.1335 71.2697 15.4176C70.078 15.6228 69.4732 16.3794 69.4555 17.6875C69.4358 19.1594 69.4348 20.5119 69.4525 21.745C69.4545 21.8436 69.4071 21.893 69.3105 21.893L67.733 21.89C67.686 21.89 67.6408 21.8716 67.6075 21.8389C67.5742 21.8061 67.5555 21.7617 67.5555 21.7154L67.5496 10.6824H69.4525Z" fill="#1B1F1C"/>
<path d="M49.3249 19.2239C50.2542 20.7925 52.5301 20.6474 53.7553 19.6442C53.8441 19.5712 53.925 19.5791 53.998 19.6679L54.7319 20.5616C54.8049 20.6504 54.803 20.7372 54.726 20.8221C54.3038 21.2837 53.7938 21.6014 53.196 21.775C50.5265 22.5445 47.2829 21.2926 47.1911 18.1023C47.0224 12.3904 55.3209 12.3283 55.386 17.6465C55.3866 17.6812 55.375 17.7149 55.3533 17.7415C55.3315 17.7681 55.3011 17.7859 55.2676 17.7915L49.4581 18.928C49.2746 18.9635 49.2302 19.0621 49.3249 19.2239ZM49.1059 17.7531L53.489 16.9096C53.4979 16.9075 53.5057 16.902 53.5106 16.8942C53.5156 16.8865 53.5174 16.8772 53.5156 16.8682L53.5126 16.8504C53.4624 16.5893 53.3563 16.3416 53.2004 16.1215C53.0445 15.9014 52.8419 15.7131 52.6042 15.5675C52.3665 15.4218 52.0983 15.3216 51.8149 15.2726C51.5315 15.2236 51.2385 15.2268 50.9527 15.2819L50.855 15.3026C50.278 15.4138 49.7649 15.7298 49.4286 16.181C49.0923 16.6322 48.9603 17.1816 49.0615 17.7087L49.0645 17.7264C49.0666 17.7354 49.0721 17.7431 49.0798 17.7481C49.0876 17.7531 49.0969 17.7548 49.1059 17.7531Z" fill="#1B1F1C"/>
<path d="M58.9937 14.672C58.9926 14.6838 58.995 14.6956 59.0007 14.706C59.0064 14.7163 59.015 14.7248 59.0255 14.7302C59.036 14.7356 59.0479 14.7377 59.0596 14.7363C59.0714 14.7349 59.0824 14.7301 59.0913 14.7223C60.8404 13.2988 63.7466 13.2574 64.8476 15.5658C65.0764 16.0472 65.183 16.7348 65.1672 17.6286C65.1416 19.1734 65.1406 20.5565 65.1642 21.7778C65.1646 21.7932 65.1619 21.8085 65.1563 21.8229C65.1507 21.8372 65.1423 21.8503 65.1315 21.8613C65.1207 21.8723 65.1079 21.8811 65.0937 21.8871C65.0795 21.8931 65.0642 21.8962 65.0488 21.8962L63.3767 21.8873C63.3076 21.8873 63.2721 21.8528 63.2702 21.7837C63.2583 20.4973 63.2593 19.1103 63.2731 17.6226C63.285 16.3362 62.7848 15.5993 61.7727 15.4119C60.3107 15.1426 59.115 16.1192 59.1239 17.6404C59.1318 19.0176 59.1328 20.3957 59.1269 21.7748C59.1269 21.8518 59.0884 21.8902 59.0114 21.8902L57.3097 21.8932C57.2953 21.8932 57.2811 21.8904 57.2678 21.8849C57.2545 21.8794 57.2425 21.8713 57.2323 21.8611C57.2221 21.851 57.2141 21.8389 57.2086 21.8256C57.2031 21.8123 57.2002 21.7981 57.2002 21.7837L57.1973 14.0298C57.1973 13.8917 57.2663 13.8226 57.4044 13.8226L58.8398 13.8315C58.9661 13.8315 59.0262 13.8956 59.0203 14.0239L58.9937 14.672Z" fill="#1B1F1C"/>
<path d="M83.9777 14.5387L83.954 14.0563C83.9461 13.9103 84.0152 13.8373 84.1612 13.8373L85.5966 13.8225C85.7406 13.8205 85.8136 13.8916 85.8156 14.0356L85.854 21.677C85.856 21.8191 85.785 21.8901 85.641 21.8901L84.1908 21.8931C84.0547 21.8931 83.9896 21.826 83.9955 21.6918L84.0132 21.1887C84.0192 21.0309 83.96 21.0013 83.8357 21.0999C81.2698 23.142 77.4964 21.6445 77.3188 18.2263C77.2044 16.0402 78.0844 14.6236 79.9587 13.9764C81.3615 13.493 82.64 13.711 83.7942 14.6305C83.9264 14.735 83.9876 14.7045 83.9777 14.5387ZM81.5421 20.4072C82.1849 20.4161 82.805 20.1569 83.2662 19.6866C83.7274 19.2162 83.9917 18.5732 84.0012 17.8991C84.0058 17.5652 83.9477 17.2338 83.8303 16.9237C83.7128 16.6136 83.5382 16.3309 83.3164 16.0917C83.0946 15.8525 82.8301 15.6615 82.5378 15.5297C82.2456 15.3978 81.9313 15.3277 81.613 15.3232C80.9703 15.3143 80.3501 15.5735 79.8889 16.0438C79.4277 16.5142 79.1634 17.1572 79.154 17.8313C79.1493 18.1652 79.2074 18.4966 79.3249 18.8067C79.4424 19.1168 79.617 19.3995 79.8387 19.6387C80.0605 19.8779 80.325 20.0689 80.6173 20.2007C80.9096 20.3326 81.2238 20.4027 81.5421 20.4072Z" fill="#1B1F1C"/>
<path d="M90.0685 14.663C90.0681 14.6759 90.0713 14.6886 90.0778 14.6997C90.0844 14.7108 90.094 14.7199 90.1054 14.7258C90.1169 14.7317 90.1298 14.7342 90.1427 14.733C90.1555 14.7318 90.1678 14.7271 90.178 14.7192C91.4447 13.6893 92.8425 13.4604 94.3716 14.0326C95.7981 14.5653 96.2568 15.9267 96.2361 17.4479C96.2164 18.9217 96.2164 20.36 96.2361 21.7628C96.2381 21.8536 96.1937 21.899 96.1029 21.899L94.49 21.8871C94.3894 21.8871 94.3391 21.8358 94.3391 21.7332C94.345 20.2416 94.343 18.7283 94.3331 17.1933C94.3272 15.974 93.3654 15.2578 92.22 15.3851C90.8587 15.535 90.1829 16.3884 90.1928 17.9451C90.2007 19.2176 90.2036 20.504 90.2017 21.8042C90.2017 21.8615 90.1731 21.8901 90.1158 21.8901L88.4053 21.893C88.3421 21.893 88.3105 21.8615 88.3105 21.7983V14C88.3105 13.8817 88.3707 13.8225 88.4911 13.8225L89.8998 13.8284C89.9274 13.8288 89.9546 13.8346 89.9798 13.8457C90.0051 13.8567 90.0278 13.8727 90.0466 13.8926C90.0654 13.9125 90.0799 13.936 90.0893 13.9615C90.0986 13.9871 90.1026 14.0143 90.101 14.0415L90.0685 14.663Z" fill="#1B1F1C"/>
<path d="M104.283 16.3352C103.528 15.4325 102.703 15.1099 101.528 15.4917C99.5122 16.1517 99.3494 19.2266 101.196 20.0967C102.427 20.6748 103.468 20.44 104.318 19.3923C104.384 19.3114 104.461 19.2976 104.552 19.3509L105.695 20.0227C105.799 20.0839 105.82 20.1658 105.757 20.2684C104.798 21.8369 102.839 22.3015 101.137 21.8339C99.0199 21.2499 97.994 19.8136 98.0591 17.5249C98.1656 13.6923 103.756 12.3073 105.751 15.4562C105.814 15.5529 105.795 15.6308 105.695 15.69L104.54 16.3766C104.442 16.4358 104.356 16.422 104.283 16.3352Z" fill="#1B1F1C"/>
<path d="M115.428 16.6899L115.637 17.5519C115.657 17.6336 115.605 17.7154 115.522 17.7319L109.418 18.948C109.395 18.9528 109.374 18.9629 109.356 18.9774C109.338 18.992 109.324 19.0106 109.315 19.0317C109.306 19.0528 109.301 19.0759 109.303 19.0989C109.304 19.1219 109.311 19.1443 109.323 19.1641C110.294 20.7415 112.487 20.703 113.783 19.6287C113.862 19.5636 113.934 19.5705 113.999 19.6494L114.751 20.5521C114.824 20.6409 114.825 20.7287 114.754 20.8155C114.46 21.1785 114.111 21.439 113.709 21.5968C111.676 22.4018 108.876 22.0407 107.731 19.9454C106.414 17.5423 107.586 14.6864 110.116 13.911C111.077 13.617 112.097 13.6821 113.176 14.1063C114.179 14.4989 115.054 15.3989 115.428 16.6899ZM109.148 17.7494L113.514 16.9149C113.52 16.9138 113.527 16.9114 113.532 16.9078C113.538 16.9043 113.543 16.8996 113.547 16.894C113.551 16.8885 113.553 16.8823 113.555 16.8757C113.556 16.8691 113.556 16.8623 113.555 16.8557L113.549 16.8261C113.45 16.3089 113.124 15.8571 112.643 15.5701C112.161 15.2832 111.565 15.1846 110.983 15.296L110.903 15.3108C110.322 15.4217 109.804 15.7333 109.463 16.1773C109.121 16.6213 108.985 17.1612 109.083 17.6784L109.089 17.708C109.09 17.7147 109.093 17.721 109.096 17.7268C109.1 17.7325 109.105 17.7374 109.11 17.7413C109.116 17.7451 109.122 17.7478 109.128 17.7492C109.135 17.7507 109.142 17.7507 109.148 17.7494Z" fill="#1B1F1C"/>
<path d="M49.5173 28.703C51.6985 27.1226 55.2055 27.7353 55.3416 30.9049C55.4028 32.3255 55.4117 33.9798 55.3683 35.868C55.3663 35.9725 55.312 36.0248 55.2055 36.0248L53.6606 36.0219C53.56 36.0219 53.5087 35.9716 53.5067 35.8709C53.4949 34.5096 53.4949 33.0979 53.5067 31.6359C53.5334 28.5728 49.3457 28.9043 49.3279 31.8253C49.32 33.2478 49.3171 34.5855 49.319 35.8384C49.321 35.9627 49.2599 36.0248 49.1356 36.0248L47.5966 36.0219C47.5534 36.0219 47.512 36.0044 47.4815 35.9733C47.451 35.9422 47.4338 35.9001 47.4338 35.8561V24.8882C47.4338 24.8428 47.4575 24.8192 47.5049 24.8172L49.2806 24.8113C49.3082 24.8113 49.322 24.8251 49.322 24.8527L49.319 28.5994C49.319 28.7632 49.3851 28.7977 49.5173 28.703Z" fill="#1B1F1C"/>
<path d="M79.3284 24.7993H77.6533C77.5945 24.7993 77.5468 24.847 77.5468 24.9059V35.9034C77.5468 35.9622 77.5945 36.0099 77.6533 36.0099H79.3284C79.3872 36.0099 79.4349 35.9622 79.4349 35.9034V24.9059C79.4349 24.847 79.3872 24.7993 79.3284 24.7993Z" fill="#1B1F1C"/>
<path d="M90.1128 28.685C92.3502 27.0247 95.8247 27.8593 95.9075 31.0141C95.947 32.5195 95.9519 34.1413 95.9223 35.8795C95.9223 35.9782 95.872 36.0275 95.7714 36.0275L94.2088 36.0216C94.1003 36.0216 94.046 35.9673 94.046 35.8588C94.0381 34.5685 94.0391 33.1529 94.049 31.6119C94.0697 28.6021 89.95 28.9158 89.9145 31.7126C89.8968 33.0641 89.8948 34.4619 89.9086 35.9062C89.9086 35.9851 89.8691 36.0246 89.7902 36.0246L88.127 36.0216C88.1126 36.0216 88.0984 36.0188 88.0851 36.0133C88.0718 36.0078 88.0597 35.9997 88.0496 35.9895C88.0394 35.9794 88.0313 35.9673 88.0258 35.954C88.0203 35.9407 88.0175 35.9265 88.0175 35.9121L88.0145 24.9057C88.0145 24.8505 88.0421 24.8228 88.0974 24.8228L89.8317 24.814C89.883 24.814 89.9086 24.8396 89.9086 24.8909L89.9027 28.5814C89.9027 28.755 89.9727 28.7896 90.1128 28.685Z" fill="#1B1F1C"/>
<path d="M83.9689 28.037L85.7742 28.0311C85.859 28.0311 85.9024 28.0735 85.9044 28.1583L85.9133 29.3984C85.9133 29.499 85.8629 29.5493 85.7623 29.5493H83.96C83.9329 29.5493 83.9061 29.5546 83.8812 29.5649C83.8562 29.5752 83.8335 29.5903 83.8145 29.6093C83.7955 29.6283 83.7806 29.6508 83.7705 29.6756C83.7604 29.7004 83.7554 29.7268 83.7558 29.7535C83.7656 30.9156 83.7666 32.1783 83.7587 33.5417C83.7528 34.6367 84.9781 34.7906 85.7564 34.3111C85.8531 34.252 85.9211 34.2746 85.9606 34.3792L86.4016 35.5186C86.4147 35.5519 86.4154 35.5888 86.4034 35.6221C86.3913 35.6554 86.3675 35.6829 86.3365 35.6992C85.4309 36.1687 84.4937 36.2595 83.5249 35.9714C82.1636 35.5689 81.8439 34.4059 81.8558 33.0741C81.8814 30.7203 81.8864 28.4484 81.8706 26.2583C81.8706 26.207 81.8972 26.1814 81.9505 26.1814H83.7055C83.739 26.1814 83.7558 26.1982 83.7558 26.2317L83.7647 27.8328C83.7647 27.9689 83.8327 28.037 83.9689 28.037Z" fill="#1B1F1C"/>
<path d="M59.0883 33.302C60.0472 34.8794 62.1633 34.8202 63.5217 33.8169C63.6539 33.7183 63.7713 33.7331 63.8738 33.8613L64.4894 34.6337C64.6354 34.8152 64.6157 34.976 64.4302 35.1161C63.1419 36.1026 61.7252 36.3877 60.1804 35.9714C57.7773 35.3223 56.7484 33.7261 57.0936 31.183C57.4784 28.3537 60.5829 27.1787 63.0452 28.2945C64.3454 28.8824 65.0754 30.012 65.2352 31.6831C65.2407 31.7422 65.2241 31.8013 65.1886 31.8489C65.153 31.8964 65.1011 31.9291 65.0428 31.9406L59.189 33.077C59.0469 33.1047 59.0134 33.1796 59.0883 33.302ZM58.9433 31.8696L63.3027 31.0379C63.3139 31.0358 63.3239 31.0293 63.3306 31.0199C63.3372 31.0106 63.3399 30.999 63.3382 30.9876L63.3352 30.961C63.2861 30.7027 63.1807 30.4577 63.0249 30.24C62.8692 30.0224 62.6663 29.8364 62.4277 29.6926C62.1891 29.5488 61.9196 29.4502 61.6345 29.4022C61.3494 29.3543 61.0544 29.358 60.7664 29.4132L60.7042 29.425C60.4161 29.4799 60.1406 29.5852 59.8933 29.7348C59.646 29.8844 59.4319 30.0755 59.2631 30.297C59.0944 30.5186 58.9743 30.7662 58.9098 31.0259C58.8452 31.2856 58.8375 31.5521 58.8871 31.8104L58.89 31.834C58.8911 31.8399 58.8933 31.8455 58.8966 31.8505C58.8999 31.8555 58.9041 31.8598 58.9091 31.8631C58.9141 31.8665 58.9197 31.8687 58.9256 31.8698C58.9314 31.8709 58.9375 31.8708 58.9433 31.8696Z" fill="#1B1F1C"/>
<path d="M73.2437 28.6614L73.223 28.1464C73.2171 28.0221 73.2763 27.959 73.4006 27.957L74.8537 27.9511C74.9839 27.9511 75.049 28.0162 75.049 28.1464L75.0816 35.8086C75.0816 35.9467 75.0125 36.0158 74.8744 36.0158L73.4923 36.0217C73.3305 36.0237 73.2516 35.9428 73.2556 35.779L73.2704 35.3114C73.2783 35.12 73.2122 35.0885 73.0721 35.2167C71.5923 36.5751 68.9554 36.4153 67.5822 34.8912C66.5168 33.7133 66.3037 31.9109 66.8009 30.4371C67.6562 27.9038 71.0803 26.9952 73.0425 28.7561C73.1845 28.8844 73.2516 28.8528 73.2437 28.6614ZM70.7594 34.5378C71.4011 34.5569 72.0246 34.3078 72.4925 33.8452C72.9604 33.3827 73.2345 32.7447 73.2545 32.0715C73.2644 31.7382 73.2116 31.4063 73.0991 31.0948C72.9867 30.7832 72.8167 30.4981 72.599 30.2558C72.3813 30.0134 72.1201 29.8185 71.8303 29.6823C71.5405 29.546 71.2278 29.471 70.91 29.4616C70.2682 29.4425 69.6448 29.6917 69.1769 30.1542C68.709 30.6167 68.4349 31.2547 68.4149 31.9279C68.405 32.2612 68.4578 32.5931 68.5703 32.9047C68.6827 33.2162 68.8527 33.5013 69.0704 33.7437C69.2881 33.986 69.5493 34.1809 69.8391 34.3172C70.1289 34.4534 70.4416 34.5284 70.7594 34.5378Z" fill="#1B1F1C"/>
</svg>
