<svg width="96" height="30" viewBox="0 0 96 30" fill="none" xmlns="http://www.w3.org/2000/svg">
  <path
    d="M12.5008 9.11664C12.5008 9.11664 11.9128 11.4685 11.6544 12.3307C11.3545 13.3251 11.2144 14.9557 11.2341 17.2227C11.2489 18.9451 12.0746 20.6735 14.0959 20.4663C14.5635 20.417 15.1742 20.0974 15.9279 19.5075C15.9338 19.5213 15.9387 19.5341 15.9427 19.5459C16.067 20.6853 16.0995 21.7448 15.3981 22.7126C14.4984 23.9556 12.5304 24 11.2696 23.4495C10.0641 22.9227 8.99771 22.2973 8.0704 21.5732C4.96588 19.1494 2.21354 16.0093 1.31977 12.2951C0.757467 9.95418 1.08893 7.24624 3.1813 5.78128C4.13722 5.11244 5.31806 4.9763 6.45155 4.81945C8.82507 4.48798 10.95 6.02692 11.9237 8.10153C12.0525 8.37766 12.5008 9.11664 12.5008 9.11664Z"
    fill="#E58672" />
  <path
    d="M12.5007 9.1167C12.9466 10.261 13.3648 11.2564 13.7555 12.1028C14.45 13.6082 15.1741 16.0765 15.9278 19.5075C15.1741 20.0974 14.5634 20.4171 14.0958 20.4664C12.0745 20.6736 11.2488 18.9452 11.234 17.2228C11.2143 14.9558 11.3544 13.3251 11.6543 12.3307C11.9127 11.4685 12.1949 10.3972 12.5007 9.1167Z"
    fill="#1B1F1C" />
  <path
    d="M15.9428 19.546C15.9388 19.5342 15.9339 19.5213 15.928 19.5075C15.1743 16.0765 14.4502 13.6082 13.7557 12.1028C13.365 11.2564 12.9468 10.261 12.5009 9.11671C12.5009 9.11671 14.043 5.98794 14.6998 5.16281C14.9582 4.83727 15.3361 4.64885 15.8333 4.59755C18.8224 4.29864 21.8558 6.85269 21.7375 10.0282C21.5865 13.9969 19.0769 17.3204 15.9428 19.546Z"
    fill="#8890B4" />
  <path
    d="M47.4525 1.68237L47.4703 5.52085C47.4703 5.64317 47.5196 5.66685 47.6183 5.59187C48.7942 4.70205 50.1013 4.50179 51.5396 4.9911C52.9424 5.46758 53.4958 6.85262 53.484 8.28206C53.4721 9.80127 53.4692 11.2978 53.4751 12.7716C53.4751 12.7883 53.4718 12.8049 53.4654 12.8203C53.459 12.8358 53.4496 12.8498 53.4378 12.8616C53.426 12.8734 53.412 12.8828 53.3965 12.8892C53.3811 12.8956 53.3646 12.8989 53.3479 12.8989L51.6964 12.8841C51.6711 12.8841 51.6466 12.8742 51.6284 12.8565C51.6102 12.8389 51.5996 12.8148 51.5988 12.7894C51.5751 11.5918 51.5771 10.2363 51.6047 8.72303C51.6313 7.24032 50.9359 6.13346 49.2697 6.41758C48.078 6.62277 47.4732 7.37941 47.4555 8.68751C47.4358 10.1594 47.4348 11.5119 47.4525 12.745C47.4545 12.8436 47.4071 12.893 47.3105 12.893L45.733 12.89C45.686 12.89 45.6408 12.8716 45.6075 12.8389C45.5742 12.8061 45.5555 12.7617 45.5555 12.7154L45.5496 1.68237H47.4525Z"
    fill="#1B1F1C" />
  <path
    d="M27.3249 10.2239C28.2542 11.7925 30.5301 11.6474 31.7553 10.6442C31.8441 10.5712 31.925 10.5791 31.998 10.6679L32.7319 11.5616C32.8049 11.6504 32.803 11.7372 32.726 11.8221C32.3038 12.2837 31.7938 12.6014 31.196 12.775C28.5265 13.5445 25.2829 12.2926 25.1911 9.10227C25.0224 3.39044 33.3209 3.32829 33.386 8.64651C33.3866 8.68121 33.375 8.71492 33.3533 8.74153C33.3315 8.76814 33.3011 8.78588 33.2676 8.79153L27.4581 9.92798C27.2746 9.96349 27.2302 10.0621 27.3249 10.2239ZM27.1059 8.75305L31.489 7.9096C31.4979 7.90747 31.5057 7.90197 31.5106 7.89425C31.5156 7.88652 31.5174 7.87717 31.5156 7.86816L31.5126 7.85041C31.4624 7.58933 31.3563 7.34165 31.2004 7.12152C31.0445 6.90139 30.8419 6.71312 30.6042 6.56746C30.3665 6.42181 30.0983 6.32162 29.8149 6.27261C29.5315 6.22361 29.2385 6.22676 28.9527 6.28187L28.855 6.30259C28.278 6.41385 27.7649 6.72979 27.4286 7.18098C27.0923 7.63216 26.9603 8.18165 27.0615 8.70866L27.0645 8.72642C27.0666 8.73535 27.0721 8.74312 27.0798 8.74809C27.0876 8.75305 27.0969 8.75483 27.1059 8.75305Z"
    fill="#1B1F1C" />
  <path
    d="M36.9937 5.67202C36.9926 5.68378 36.995 5.69561 37.0007 5.70598C37.0064 5.71635 37.015 5.72478 37.0255 5.73019C37.036 5.7356 37.0479 5.73775 37.0596 5.73635C37.0714 5.73494 37.0824 5.73006 37.0913 5.72233C38.8404 4.29881 41.7466 4.25738 42.8476 6.56579C43.0764 7.0472 43.183 7.73479 43.1672 8.62856C43.1416 10.1734 43.1406 11.5565 43.1642 12.7778C43.1646 12.7932 43.1619 12.8085 43.1563 12.8229C43.1507 12.8372 43.1423 12.8503 43.1315 12.8613C43.1207 12.8723 43.1079 12.8811 43.0937 12.8871C43.0795 12.8931 43.0642 12.8962 43.0488 12.8962L41.3767 12.8873C41.3076 12.8873 41.2721 12.8528 41.2702 12.7837C41.2583 11.4973 41.2593 10.1103 41.2731 8.62264C41.285 7.33624 40.7848 6.59933 39.7727 6.41189C38.3107 6.14258 37.115 7.11921 37.1239 8.6404C37.1318 10.0176 37.1328 11.3957 37.1269 12.7748C37.1269 12.8518 37.0884 12.8902 37.0114 12.8902L35.3097 12.8932C35.2953 12.8932 35.2811 12.8904 35.2678 12.8849C35.2545 12.8794 35.2425 12.8713 35.2323 12.8611C35.2221 12.851 35.2141 12.8389 35.2086 12.8256C35.2031 12.8123 35.2002 12.7981 35.2002 12.7837L35.1973 5.02981C35.1973 4.8917 35.2663 4.82264 35.4044 4.82264L36.8398 4.83152C36.9661 4.83152 37.0262 4.89564 37.0203 5.02389L36.9937 5.67202Z"
    fill="#1B1F1C" />
  <path
    d="M61.9777 5.53872L61.954 5.05632C61.9461 4.91032 62.0152 4.83732 62.1612 4.83732L63.5966 4.82252C63.7406 4.82055 63.8136 4.89157 63.8156 5.0356L63.854 12.677C63.856 12.8191 63.785 12.8901 63.641 12.8901L62.1908 12.8931C62.0547 12.8931 61.9896 12.826 61.9955 12.6918L62.0132 12.1887C62.0192 12.0309 61.96 12.0013 61.8357 12.0999C59.2698 14.142 55.4964 12.6445 55.3188 9.22626C55.2044 7.04017 56.0844 5.62356 57.9587 4.97641C59.3615 4.49303 60.64 4.71104 61.7942 5.63046C61.9264 5.73503 61.9876 5.70445 61.9777 5.53872ZM59.5421 11.4072C60.1849 11.4161 60.805 11.1569 61.2662 10.6866C61.7274 10.2162 61.9917 9.57322 62.0012 8.89906C62.0058 8.56524 61.9477 8.23381 61.8303 7.9237C61.7128 7.61359 61.5382 7.33087 61.3164 7.09168C61.0946 6.85249 60.8301 6.66152 60.5378 6.52967C60.2456 6.39782 59.9313 6.32767 59.613 6.32322C58.9703 6.31425 58.3501 6.57346 57.8889 7.04382C57.4277 7.51418 57.1634 8.15717 57.154 8.83134C57.1493 9.16516 57.2074 9.49659 57.3249 9.8067C57.4424 10.1168 57.617 10.3995 57.8387 10.6387C58.0605 10.8779 58.325 11.0689 58.6173 11.2007C58.9096 11.3326 59.2238 11.4027 59.5421 11.4072Z"
    fill="#1B1F1C" />
  <path
    d="M68.0685 5.66297C68.0681 5.67586 68.0713 5.68861 68.0778 5.69973C68.0844 5.71085 68.094 5.71988 68.1054 5.72577C68.1169 5.73167 68.1298 5.73418 68.1427 5.73301C68.1555 5.73185 68.1678 5.72706 68.178 5.7192C69.4447 4.68929 70.8425 4.46042 72.3716 5.03259C73.7981 5.5653 74.2568 6.92668 74.2361 8.44786C74.2164 9.92169 74.2164 11.36 74.2361 12.7628C74.2381 12.8536 74.1937 12.899 74.1029 12.899L72.49 12.8871C72.3894 12.8871 72.3391 12.8358 72.3391 12.7332C72.345 11.2416 72.343 9.72834 72.3331 8.19334C72.3272 6.97403 71.3654 6.25783 70.22 6.38509C68.8587 6.53503 68.1829 7.38836 68.1928 8.94506C68.2007 10.2176 68.2036 11.504 68.2017 12.8042C68.2017 12.8615 68.1731 12.8901 68.1158 12.8901L66.4053 12.893C66.3421 12.893 66.3105 12.8615 66.3105 12.7983V5.00004C66.3105 4.88166 66.3707 4.82247 66.4911 4.82247L67.8998 4.82839C67.9274 4.82876 67.9546 4.83465 67.9798 4.84568C68.0051 4.85671 68.0278 4.87267 68.0466 4.89258C68.0654 4.9125 68.0799 4.93596 68.0893 4.96155C68.0986 4.98714 68.1026 5.01433 68.101 5.04147L68.0685 5.66297Z"
    fill="#1B1F1C" />
  <path
    d="M82.2829 7.33518C81.5282 6.43253 80.7025 6.10994 79.5276 6.49172C77.5122 7.15169 77.3494 10.2266 79.1961 11.0967C80.4273 11.6748 81.468 11.44 82.3184 10.3923C82.3835 10.3114 82.4615 10.2976 82.5522 10.3509L83.6946 11.0227C83.7991 11.0839 83.8199 11.1658 83.7567 11.2684C82.7979 12.8369 80.8387 13.3015 79.1369 12.8339C77.0199 12.2499 75.994 10.8136 76.0591 8.52489C76.1656 4.69234 81.7561 3.30729 83.7508 6.4562C83.8139 6.55288 83.7952 6.63081 83.6946 6.69L82.5404 7.37661C82.4417 7.4358 82.3559 7.42199 82.2829 7.33518Z"
    fill="#1B1F1C" />
  <path
    d="M93.4285 7.68995L93.6372 8.5519C93.657 8.63364 93.6048 8.71543 93.5223 8.73186L87.4177 9.94805C87.3951 9.95281 87.374 9.96288 87.3561 9.97743C87.3382 9.99198 87.3241 10.0106 87.3148 10.0317C87.3055 10.0528 87.3015 10.0759 87.3029 10.0989C87.3043 10.1219 87.3112 10.1443 87.323 10.1641C88.2937 11.7415 90.4867 11.703 91.783 10.6287C91.8619 10.5636 91.9339 10.5705 91.999 10.6494L92.7507 11.5521C92.8237 11.6409 92.8247 11.7287 92.7537 11.8155C92.4597 12.1785 92.1115 12.439 91.709 12.5968C89.6758 13.4018 86.8761 13.0407 85.7308 10.9454C84.4138 8.54228 85.5858 5.68636 88.1161 4.91097C89.077 4.617 90.097 4.68211 91.1763 5.1063C92.1786 5.49893 93.0539 6.39887 93.4285 7.68995ZM87.1484 8.74945L91.5137 7.91487C91.5203 7.9138 91.5267 7.91141 91.5324 7.90783C91.5381 7.90425 91.543 7.89956 91.5469 7.89404C91.5508 7.88852 91.5535 7.88228 91.5549 7.87569C91.5563 7.8691 91.5564 7.8623 91.5551 7.85568L91.5492 7.82608C91.4499 7.30886 91.1238 6.85709 90.6426 6.57015C90.1614 6.28321 89.5645 6.1846 88.9833 6.29602L88.9034 6.31082C88.3223 6.42166 87.8041 6.73333 87.4628 7.1773C87.1215 7.62127 86.985 8.16121 87.0833 8.67842L87.0892 8.70801C87.0903 8.71467 87.0927 8.72104 87.0962 8.72675C87.0998 8.73246 87.1045 8.7374 87.11 8.74126C87.1155 8.74513 87.1218 8.74784 87.1284 8.74925C87.135 8.75065 87.1418 8.75072 87.1484 8.74945Z"
    fill="#1B1F1C" />
  <path
    d="M27.5173 19.703C29.6985 18.1226 33.2055 18.7353 33.3416 21.9049C33.4028 23.3255 33.4117 24.9798 33.3683 26.868C33.3663 26.9725 33.312 27.0248 33.2055 27.0248L31.6606 27.0219C31.56 27.0219 31.5087 26.9716 31.5067 26.8709C31.4949 25.5096 31.4949 24.0979 31.5067 22.6359C31.5334 19.5728 27.3457 19.9043 27.3279 22.8253C27.32 24.2478 27.3171 25.5855 27.319 26.8384C27.321 26.9627 27.2599 27.0248 27.1356 27.0248L25.5966 27.0219C25.5534 27.0219 25.512 27.0044 25.4815 26.9733C25.451 26.9422 25.4338 26.9001 25.4338 26.8561V15.8882C25.4338 15.8428 25.4575 15.8192 25.5049 15.8172L27.2806 15.8113C27.3082 15.8113 27.322 15.8251 27.322 15.8527L27.319 19.5994C27.319 19.7632 27.3851 19.7977 27.5173 19.703Z"
    fill="#1B1F1C" />
  <path
    d="M57.3284 15.7993H55.6533C55.5945 15.7993 55.5468 15.847 55.5468 15.9059V26.9034C55.5468 26.9622 55.5945 27.0099 55.6533 27.0099H57.3284C57.3872 27.0099 57.4349 26.9622 57.4349 26.9034V15.9059C57.4349 15.847 57.3872 15.7993 57.3284 15.7993Z"
    fill="#1B1F1C" />
  <path
    d="M68.1128 19.685C70.3502 18.0247 73.8247 18.8593 73.9075 22.0141C73.947 23.5195 73.9519 25.1413 73.9223 26.8795C73.9223 26.9782 73.872 27.0275 73.7714 27.0275L72.2088 27.0216C72.1003 27.0216 72.046 26.9673 72.046 26.8588C72.0381 25.5685 72.0391 24.1529 72.049 22.6119C72.0697 19.6021 67.95 19.9158 67.9145 22.7126C67.8968 24.0641 67.8948 25.4619 67.9086 26.9062C67.9086 26.9851 67.8691 27.0246 67.7902 27.0246L66.127 27.0216C66.1126 27.0216 66.0984 27.0188 66.0851 27.0133C66.0718 27.0078 66.0597 26.9997 66.0496 26.9895C66.0394 26.9794 66.0313 26.9673 66.0258 26.954C66.0203 26.9407 66.0175 26.9265 66.0175 26.9121L66.0145 15.9057C66.0145 15.8505 66.0421 15.8228 66.0974 15.8228L67.8317 15.814C67.883 15.814 67.9086 15.8396 67.9086 15.8909L67.9027 19.5814C67.9027 19.755 67.9727 19.7896 68.1128 19.685Z"
    fill="#1B1F1C" />
  <path
    d="M61.9689 19.037L63.7742 19.0311C63.859 19.0311 63.9024 19.0735 63.9044 19.1583L63.9133 20.3984C63.9133 20.499 63.8629 20.5493 63.7623 20.5493H61.96C61.9329 20.5493 61.9061 20.5546 61.8812 20.5649C61.8562 20.5752 61.8335 20.5903 61.8145 20.6093C61.7955 20.6283 61.7806 20.6508 61.7705 20.6756C61.7604 20.7004 61.7554 20.7268 61.7558 20.7535C61.7656 21.9156 61.7666 23.1783 61.7587 24.5417C61.7528 25.6367 62.9781 25.7906 63.7564 25.3111C63.8531 25.252 63.9211 25.2746 63.9606 25.3792L64.4016 26.5186C64.4147 26.5519 64.4154 26.5888 64.4034 26.6221C64.3913 26.6554 64.3675 26.6829 64.3365 26.6992C63.4309 27.1687 62.4937 27.2595 61.5249 26.9714C60.1636 26.5689 59.8439 25.4059 59.8558 24.0741C59.8814 21.7203 59.8864 19.4484 59.8706 17.2583C59.8706 17.207 59.8972 17.1814 59.9505 17.1814H61.7055C61.739 17.1814 61.7558 17.1982 61.7558 17.2317L61.7647 18.8328C61.7647 18.9689 61.8327 19.037 61.9689 19.037Z"
    fill="#1B1F1C" />
  <path
    d="M37.0883 24.302C38.0472 25.8794 40.1633 25.8202 41.5217 24.8169C41.6539 24.7183 41.7713 24.7331 41.8738 24.8613L42.4894 25.6337C42.6354 25.8152 42.6157 25.976 42.4302 26.1161C41.1419 27.1026 39.7252 27.3877 38.1804 26.9714C35.7773 26.3223 34.7484 24.7261 35.0936 22.183C35.4784 19.3537 38.5829 18.1787 41.0452 19.2945C42.3454 19.8824 43.0754 21.012 43.2352 22.6831C43.2407 22.7422 43.2241 22.8013 43.1886 22.8489C43.153 22.8964 43.1011 22.9291 43.0428 22.9406L37.189 24.077C37.0469 24.1047 37.0134 24.1796 37.0883 24.302ZM36.9433 22.8696L41.3027 22.0379C41.3139 22.0358 41.3239 22.0293 41.3306 22.0199C41.3372 22.0106 41.3399 21.999 41.3382 21.9876L41.3352 21.961C41.2861 21.7027 41.1807 21.4577 41.0249 21.24C40.8692 21.0224 40.6663 20.8364 40.4277 20.6926C40.1891 20.5488 39.9196 20.4502 39.6345 20.4022C39.3494 20.3543 39.0544 20.358 38.7664 20.4132L38.7042 20.425C38.4161 20.4799 38.1406 20.5852 37.8933 20.7348C37.646 20.8844 37.4319 21.0755 37.2631 21.297C37.0944 21.5186 36.9743 21.7662 36.9098 22.0259C36.8452 22.2856 36.8375 22.5521 36.8871 22.8104L36.89 22.834C36.8911 22.8399 36.8933 22.8455 36.8966 22.8505C36.8999 22.8555 36.9041 22.8598 36.9091 22.8631C36.9141 22.8665 36.9197 22.8687 36.9256 22.8698C36.9314 22.8709 36.9375 22.8708 36.9433 22.8696Z"
    fill="#1B1F1C" />
  <path
    d="M51.2437 19.6614L51.223 19.1464C51.2171 19.0221 51.2763 18.959 51.4006 18.957L52.8537 18.9511C52.9839 18.9511 53.049 19.0162 53.049 19.1464L53.0816 26.8086C53.0816 26.9467 53.0125 27.0158 52.8744 27.0158L51.4923 27.0217C51.3305 27.0237 51.2516 26.9428 51.2556 26.779L51.2704 26.3114C51.2783 26.12 51.2122 26.0885 51.0721 26.2167C49.5923 27.5751 46.9554 27.4153 45.5822 25.8912C44.5168 24.7133 44.3037 22.9109 44.8009 21.4371C45.6562 18.9038 49.0803 17.9952 51.0425 19.7561C51.1845 19.8844 51.2516 19.8528 51.2437 19.6614ZM48.7594 25.5378C49.4011 25.5569 50.0246 25.3078 50.4925 24.8452C50.9604 24.3827 51.2345 23.7447 51.2545 23.0715C51.2644 22.7382 51.2116 22.4063 51.0991 22.0948C50.9867 21.7832 50.8167 21.4981 50.599 21.2558C50.3813 21.0134 50.1201 20.8185 49.8303 20.6823C49.5405 20.546 49.2278 20.471 48.91 20.4616C48.2682 20.4425 47.6448 20.6917 47.1769 21.1542C46.709 21.6167 46.4349 22.2547 46.4149 22.9279C46.405 23.2612 46.4578 23.5931 46.5703 23.9047C46.6827 24.2162 46.8527 24.5013 47.0704 24.7437C47.2881 24.986 47.5493 25.1809 47.8391 25.3172C48.1289 25.4534 48.4416 25.5284 48.7594 25.5378Z"
    fill="#1B1F1C" />
</svg>