<svg width="140" height="48" viewBox="0 0 140 48" fill="none" xmlns="http://www.w3.org/2000/svg">
<path d="M34.5008 18.1166C34.5008 18.1166 33.9128 20.4685 33.6544 21.3307C33.3545 22.3251 33.2144 23.9557 33.2341 26.2227C33.2489 27.9451 34.0746 29.6735 36.0959 29.4663C36.5635 29.417 37.1742 29.0974 37.9279 28.5075C37.9338 28.5213 37.9387 28.5341 37.9427 28.5459C38.067 29.6853 38.0995 30.7448 37.3981 31.7126C36.4984 32.9556 34.5304 33 33.2696 32.4495C32.0641 31.9227 30.9977 31.2973 30.0704 30.5732C26.9659 28.1494 24.2135 25.0093 23.3198 21.2951C22.7575 18.9542 23.0889 16.2462 25.1813 14.7813C26.1372 14.1124 27.3181 13.9763 28.4515 13.8194C30.8251 13.488 32.95 15.0269 33.9237 17.1015C34.0525 17.3777 34.5008 18.1166 34.5008 18.1166Z" fill="#EBEBEB"/>
<path d="M34.5007 18.1167C34.9466 19.261 35.3648 20.2564 35.7555 21.1028C36.45 22.6082 37.1741 25.0765 37.9278 28.5075C37.1741 29.0974 36.5634 29.4171 36.0958 29.4664C34.0745 29.6736 33.2488 27.9452 33.234 26.2228C33.2143 23.9558 33.3544 22.3251 33.6543 21.3307C33.9127 20.4685 34.1949 19.3972 34.5007 18.1167Z" fill="#AEADAD"/>
<path d="M37.9429 28.546C37.9389 28.5342 37.934 28.5213 37.9281 28.5075C37.1744 25.0765 36.4503 22.6082 35.7558 21.1028C35.3652 20.2564 34.9469 19.261 34.501 18.1167C34.501 18.1167 36.0431 14.9879 36.6999 14.1628C36.9583 13.8373 37.3362 13.6488 37.8334 13.5975C40.8225 13.2986 43.856 15.8527 43.7376 19.0282C43.5866 22.9969 41.077 26.3204 37.9429 28.546Z" fill="#C7C7C7"/>
<path d="M69.4525 10.6826L69.4703 14.5211C69.4703 14.6434 69.5196 14.6671 69.6183 14.5921C70.7942 13.7023 72.1013 13.502 73.5396 13.9913C74.9424 14.4678 75.4958 15.8529 75.484 17.2823C75.4721 18.8015 75.4692 20.298 75.4751 21.7719C75.4751 21.7886 75.4718 21.8051 75.4654 21.8206C75.459 21.836 75.4496 21.85 75.4378 21.8619C75.426 21.8737 75.412 21.883 75.3965 21.8894C75.3811 21.8958 75.3646 21.8991 75.3479 21.8991L73.6964 21.8843C73.6711 21.8843 73.6466 21.8745 73.6284 21.8568C73.6102 21.8391 73.5996 21.815 73.5988 21.7896C73.5751 20.592 73.5771 19.2366 73.6047 17.7233C73.6313 16.2406 72.9359 15.1337 71.2697 15.4178C70.078 15.623 69.4732 16.3797 69.4555 17.6878C69.4358 19.1596 69.4348 20.5121 69.4525 21.7452C69.4545 21.8439 69.4071 21.8932 69.3105 21.8932L67.733 21.8902C67.686 21.8902 67.6408 21.8719 67.6075 21.8391C67.5742 21.8064 67.5555 21.7619 67.5555 21.7156L67.5496 10.6826H69.4525Z" fill="#AEADAD"/>
<path d="M49.3251 19.2239C50.2543 20.7925 52.5302 20.6474 53.7554 19.6442C53.8442 19.5712 53.9251 19.5791 53.9981 19.6679L54.7321 20.5616C54.8051 20.6504 54.8031 20.7372 54.7261 20.8221C54.3039 21.2837 53.7939 21.6014 53.1961 21.775C50.5266 22.5445 47.283 21.2926 47.1913 18.1023C47.0226 12.3904 55.321 12.3283 55.3861 17.6465C55.3867 17.6812 55.3751 17.7149 55.3534 17.7415C55.3317 17.7681 55.3013 17.7859 55.2677 17.7915L49.4582 18.928C49.2747 18.9635 49.2304 19.0621 49.3251 19.2239ZM49.1061 17.7531L53.4891 16.9096C53.498 16.9075 53.5058 16.902 53.5107 16.8942C53.5157 16.8865 53.5175 16.8772 53.5157 16.8682L53.5128 16.8504C53.4625 16.5893 53.3564 16.3416 53.2005 16.1215C53.0446 15.9014 52.8421 15.7131 52.6043 15.5675C52.3666 15.4218 52.0984 15.3216 51.815 15.2726C51.5317 15.2236 51.2387 15.2268 50.9528 15.2819L50.8551 15.3026C50.2781 15.4138 49.765 15.7298 49.4287 16.181C49.0924 16.6322 48.9604 17.1816 49.0617 17.7087L49.0646 17.7264C49.0667 17.7354 49.0722 17.7431 49.08 17.7481C49.0877 17.7531 49.097 17.7548 49.1061 17.7531Z" fill="#AEADAD"/>
<path d="M58.9937 14.6718C58.9926 14.6835 58.995 14.6954 59.0007 14.7057C59.0064 14.7161 59.015 14.7245 59.0255 14.7299C59.036 14.7354 59.0479 14.7375 59.0596 14.7361C59.0714 14.7347 59.0824 14.7298 59.0913 14.7221C60.8404 13.2986 63.7466 13.2571 64.8476 15.5655C65.0764 16.047 65.183 16.7345 65.1672 17.6283C65.1416 19.1732 65.1406 20.5562 65.1642 21.7775C65.1646 21.7929 65.1619 21.8083 65.1563 21.8226C65.1507 21.837 65.1423 21.85 65.1315 21.8611C65.1207 21.8721 65.1079 21.8809 65.0937 21.8869C65.0795 21.8928 65.0642 21.8959 65.0488 21.8959L63.3767 21.887C63.3076 21.887 63.2721 21.8525 63.2702 21.7835C63.2583 20.4971 63.2593 19.11 63.2731 17.6224C63.285 16.336 62.7848 15.5991 61.7727 15.4116C60.3107 15.1423 59.115 16.119 59.1239 17.6402C59.1318 19.0173 59.1328 20.3954 59.1269 21.7746C59.1269 21.8515 59.0884 21.89 59.0114 21.89L57.3097 21.893C57.2953 21.893 57.2811 21.8901 57.2678 21.8846C57.2545 21.8791 57.2425 21.8711 57.2323 21.8609C57.2221 21.8507 57.2141 21.8386 57.2086 21.8254C57.2031 21.8121 57.2002 21.7978 57.2002 21.7835L57.1973 14.0296C57.1973 13.8915 57.2663 13.8224 57.4044 13.8224L58.8398 13.8313C58.9661 13.8313 59.0262 13.8954 59.0203 14.0236L58.9937 14.6718Z" fill="#AEADAD"/>
<path d="M83.9778 14.5387L83.9542 14.0563C83.9463 13.9103 84.0153 13.8373 84.1613 13.8373L85.5967 13.8225C85.7407 13.8205 85.8137 13.8916 85.8157 14.0356L85.8542 21.677C85.8561 21.8191 85.7851 21.8901 85.6411 21.8901L84.1909 21.8931C84.0548 21.8931 83.9897 21.826 83.9956 21.6918L84.0134 21.1887C84.0193 21.0309 83.9601 21.0013 83.8358 21.0999C81.2699 23.142 77.4965 21.6445 77.319 18.2263C77.2045 16.0402 78.0845 14.6236 79.9588 13.9764C81.3616 13.493 82.6401 13.711 83.7943 14.6305C83.9265 14.735 83.9877 14.7045 83.9778 14.5387ZM81.5422 20.4072C82.185 20.4161 82.8052 20.1569 83.2663 19.6866C83.7275 19.2162 83.9919 18.5732 84.0013 17.8991C84.0059 17.5652 83.9479 17.2338 83.8304 16.9237C83.7129 16.6136 83.5383 16.3309 83.3165 16.0917C83.0948 15.8525 82.8302 15.6615 82.5379 15.5297C82.2457 15.3978 81.9314 15.3277 81.6132 15.3232C80.9704 15.3143 80.3502 15.5735 79.889 16.0438C79.4279 16.5142 79.1635 17.1572 79.1541 17.8313C79.1494 18.1652 79.2075 18.4966 79.325 18.8067C79.4425 19.1168 79.6171 19.3995 79.8388 19.6387C80.0606 19.8779 80.3252 20.0689 80.6174 20.2007C80.9097 20.3326 81.2239 20.4027 81.5422 20.4072Z" fill="#AEADAD"/>
<path d="M90.0685 14.663C90.0681 14.6759 90.0713 14.6886 90.0778 14.6997C90.0844 14.7108 90.094 14.7199 90.1054 14.7258C90.1169 14.7317 90.1298 14.7342 90.1427 14.733C90.1555 14.7318 90.1678 14.7271 90.178 14.7192C91.4447 13.6893 92.8425 13.4604 94.3716 14.0326C95.7981 14.5653 96.2568 15.9267 96.2361 17.4479C96.2164 18.9217 96.2164 20.36 96.2361 21.7628C96.2381 21.8536 96.1937 21.899 96.1029 21.899L94.49 21.8871C94.3894 21.8871 94.3391 21.8358 94.3391 21.7332C94.345 20.2416 94.343 18.7283 94.3331 17.1933C94.3272 15.974 93.3654 15.2578 92.22 15.3851C90.8587 15.535 90.1829 16.3884 90.1928 17.9451C90.2007 19.2176 90.2036 20.504 90.2017 21.8042C90.2017 21.8615 90.1731 21.8901 90.1158 21.8901L88.4053 21.893C88.3421 21.893 88.3105 21.8615 88.3105 21.7983V14C88.3105 13.8817 88.3707 13.8225 88.4911 13.8225L89.8998 13.8284C89.9274 13.8288 89.9546 13.8346 89.9798 13.8457C90.0051 13.8567 90.0278 13.8727 90.0466 13.8926C90.0654 13.9125 90.0799 13.936 90.0893 13.9615C90.0986 13.9871 90.1026 14.0143 90.101 14.0415L90.0685 14.663Z" fill="#AEADAD"/>
<path d="M104.283 16.3354C103.528 15.4328 102.703 15.1102 101.528 15.492C99.5122 16.1519 99.3494 19.2269 101.196 20.0969C102.427 20.675 103.468 20.4402 104.318 19.3926C104.384 19.3117 104.461 19.2979 104.552 19.3512L105.695 20.023C105.799 20.0841 105.82 20.166 105.757 20.2686C104.798 21.8371 102.839 22.3018 101.137 21.8342C99.0199 21.2502 97.994 19.8138 98.0591 17.5251C98.1656 13.6926 103.756 12.3075 105.751 15.4564C105.814 15.5531 105.795 15.6311 105.695 15.6902L104.54 16.3769C104.442 16.436 104.356 16.4222 104.283 16.3354Z" fill="#AEADAD"/>
<path d="M115.428 16.6899L115.637 17.5519C115.657 17.6336 115.605 17.7154 115.522 17.7319L109.418 18.948C109.395 18.9528 109.374 18.9629 109.356 18.9774C109.338 18.992 109.324 19.0106 109.315 19.0317C109.306 19.0528 109.301 19.0759 109.303 19.0989C109.304 19.1219 109.311 19.1443 109.323 19.1641C110.294 20.7415 112.487 20.703 113.783 19.6287C113.862 19.5636 113.934 19.5705 113.999 19.6494L114.751 20.5521C114.824 20.6409 114.825 20.7287 114.754 20.8155C114.46 21.1785 114.111 21.439 113.709 21.5968C111.676 22.4018 108.876 22.0407 107.731 19.9454C106.414 17.5423 107.586 14.6864 110.116 13.911C111.077 13.617 112.097 13.6821 113.176 14.1063C114.179 14.4989 115.054 15.3989 115.428 16.6899ZM109.148 17.7494L113.514 16.9149C113.52 16.9138 113.527 16.9114 113.532 16.9078C113.538 16.9043 113.543 16.8996 113.547 16.894C113.551 16.8885 113.553 16.8823 113.555 16.8757C113.556 16.8691 113.556 16.8623 113.555 16.8557L113.549 16.8261C113.45 16.3089 113.124 15.8571 112.643 15.5701C112.161 15.2832 111.565 15.1846 110.983 15.296L110.903 15.3108C110.322 15.4217 109.804 15.7333 109.463 16.1773C109.121 16.6213 108.985 17.1612 109.083 17.6784L109.089 17.708C109.09 17.7147 109.093 17.721 109.096 17.7268C109.1 17.7325 109.105 17.7374 109.11 17.7413C109.116 17.7451 109.122 17.7478 109.128 17.7492C109.135 17.7507 109.142 17.7507 109.148 17.7494Z" fill="#AEADAD"/>
<path d="M49.5173 28.7033C51.6985 27.1229 55.2055 27.7355 55.3416 30.9051C55.4028 32.3257 55.4117 33.9801 55.3683 35.8682C55.3663 35.9728 55.312 36.0251 55.2055 36.0251L53.6606 36.0221C53.56 36.0221 53.5087 35.9718 53.5067 35.8712C53.4949 34.5098 53.4949 33.0981 53.5067 31.6361C53.5334 28.5731 49.3457 28.9045 49.3279 31.8255C49.32 33.2481 49.3171 34.5858 49.319 35.8386C49.321 35.9629 49.2599 36.0251 49.1356 36.0251L47.5966 36.0221C47.5534 36.0221 47.512 36.0047 47.4815 35.9736C47.451 35.9425 47.4338 35.9003 47.4338 35.8564V24.8885C47.4338 24.8431 47.4575 24.8194 47.5049 24.8174L49.2806 24.8115C49.3082 24.8115 49.322 24.8253 49.322 24.853L49.319 28.5997C49.319 28.7634 49.3851 28.798 49.5173 28.7033Z" fill="#AEADAD"/>
<path d="M79.3285 24.7993H77.6534C77.5946 24.7993 77.5469 24.847 77.5469 24.9059V35.9034C77.5469 35.9622 77.5946 36.0099 77.6534 36.0099H79.3285C79.3873 36.0099 79.435 35.9622 79.435 35.9034V24.9059C79.435 24.847 79.3873 24.7993 79.3285 24.7993Z" fill="#AEADAD"/>
<path d="M90.1129 28.685C92.3503 27.0247 95.8248 27.8593 95.9076 31.0141C95.9471 32.5195 95.952 34.1413 95.9224 35.8795C95.9224 35.9782 95.8721 36.0275 95.7715 36.0275L94.2089 36.0216C94.1004 36.0216 94.0461 35.9673 94.0461 35.8588C94.0382 34.5685 94.0392 33.1529 94.0491 31.6119C94.0698 28.6021 89.9502 28.9158 89.9146 31.7126C89.8969 33.0641 89.8949 34.4619 89.9087 35.9062C89.9087 35.9851 89.8693 36.0246 89.7903 36.0246L88.1271 36.0216C88.1127 36.0216 88.0985 36.0188 88.0852 36.0133C88.0719 36.0078 88.0599 35.9997 88.0497 35.9895C88.0395 35.9794 88.0314 35.9673 88.0259 35.954C88.0204 35.9407 88.0176 35.9265 88.0176 35.9121L88.0146 24.9057C88.0146 24.8505 88.0423 24.8228 88.0975 24.8228L89.8318 24.814C89.8831 24.814 89.9087 24.8396 89.9087 24.8909L89.9028 28.5814C89.9028 28.755 89.9729 28.7896 90.1129 28.685Z" fill="#AEADAD"/>
<path d="M83.9689 28.0372L85.7742 28.0313C85.859 28.0313 85.9024 28.0737 85.9044 28.1586L85.9133 29.3986C85.9133 29.4992 85.8629 29.5496 85.7623 29.5496H83.96C83.9329 29.5496 83.9061 29.5549 83.8812 29.5652C83.8562 29.5755 83.8335 29.5906 83.8145 29.6096C83.7955 29.6286 83.7806 29.6511 83.7705 29.6758C83.7604 29.7006 83.7554 29.7271 83.7558 29.7538C83.7656 30.9159 83.7666 32.1786 83.7587 33.5419C83.7528 34.6369 84.9781 34.7908 85.7564 34.3114C85.8531 34.2522 85.9211 34.2749 85.9606 34.3795L86.4016 35.5189C86.4147 35.5521 86.4154 35.589 86.4034 35.6223C86.3913 35.6557 86.3675 35.6831 86.3365 35.6994C85.4309 36.169 84.4937 36.2597 83.5249 35.9717C82.1636 35.5692 81.8439 34.4061 81.8558 33.0743C81.8814 30.7205 81.8864 28.4486 81.8706 26.2586C81.8706 26.2073 81.8972 26.1816 81.9505 26.1816H83.7055C83.739 26.1816 83.7558 26.1984 83.7558 26.232L83.7647 27.833C83.7647 27.9692 83.8327 28.0372 83.9689 28.0372Z" fill="#AEADAD"/>
<path d="M59.0883 33.3022C60.0472 34.8796 62.1633 34.8204 63.5217 33.8172C63.6539 33.7185 63.7713 33.7333 63.8738 33.8615L64.4894 34.634C64.6354 34.8155 64.6157 34.9763 64.4302 35.1164C63.1419 36.1029 61.7252 36.388 60.1804 35.9717C57.7773 35.3225 56.7484 33.7264 57.0936 31.1832C57.4784 28.3539 60.5829 27.179 63.0452 28.2947C64.3454 28.8827 65.0754 30.0122 65.2352 31.6834C65.2407 31.7425 65.2241 31.8015 65.1886 31.8491C65.153 31.8967 65.1011 31.9294 65.0428 31.9408L59.189 33.0773C59.0469 33.1049 59.0134 33.1799 59.0883 33.3022ZM58.9433 31.8698L63.3027 31.0382C63.3139 31.036 63.3239 31.0296 63.3306 31.0202C63.3372 31.0108 63.3399 30.9992 63.3382 30.9879L63.3352 30.9612C63.2861 30.7029 63.1807 30.4579 63.0249 30.2403C62.8692 30.0226 62.6663 29.8366 62.4277 29.6928C62.1891 29.5491 61.9196 29.4504 61.6345 29.4025C61.3494 29.3545 61.0544 29.3582 60.7664 29.4134L60.7042 29.4253C60.4161 29.4802 60.1406 29.5854 59.8933 29.735C59.646 29.8847 59.4319 30.0757 59.2631 30.2973C59.0944 30.5188 58.9743 30.7665 58.9098 31.0262C58.8452 31.2858 58.8375 31.5524 58.8871 31.8106L58.89 31.8343C58.8911 31.8402 58.8933 31.8458 58.8966 31.8508C58.8999 31.8558 58.9041 31.8601 58.9091 31.8634C58.9141 31.8667 58.9197 31.869 58.9256 31.8701C58.9314 31.8712 58.9375 31.8711 58.9433 31.8698Z" fill="#AEADAD"/>
<path d="M73.2437 28.6614L73.223 28.1464C73.2171 28.0221 73.2763 27.959 73.4006 27.957L74.8537 27.9511C74.9839 27.9511 75.049 28.0162 75.049 28.1464L75.0816 35.8086C75.0816 35.9467 75.0125 36.0158 74.8744 36.0158L73.4923 36.0217C73.3305 36.0237 73.2516 35.9428 73.2556 35.779L73.2704 35.3114C73.2783 35.12 73.2122 35.0885 73.0721 35.2167C71.5923 36.5751 68.9554 36.4153 67.5822 34.8912C66.5168 33.7133 66.3037 31.9109 66.8009 30.4371C67.6562 27.9038 71.0803 26.9952 73.0425 28.7561C73.1845 28.8844 73.2516 28.8528 73.2437 28.6614ZM70.7594 34.5378C71.4011 34.5569 72.0246 34.3078 72.4925 33.8452C72.9604 33.3827 73.2345 32.7447 73.2545 32.0715C73.2644 31.7382 73.2116 31.4063 73.0991 31.0948C72.9867 30.7832 72.8167 30.4981 72.599 30.2558C72.3813 30.0134 72.1201 29.8185 71.8303 29.6823C71.5405 29.546 71.2278 29.471 70.91 29.4616C70.2682 29.4425 69.6448 29.6917 69.1769 30.1542C68.709 30.6167 68.4349 31.2547 68.4149 31.9279C68.405 32.2612 68.4578 32.5931 68.5703 32.9047C68.6827 33.2162 68.8527 33.5013 69.0704 33.7437C69.2881 33.986 69.5493 34.1809 69.8391 34.3172C70.1289 34.4534 70.4416 34.5284 70.7594 34.5378Z" fill="#AEADAD"/>
</svg>
