<svg width="2501" height="1331" viewBox="0 0 2501 1331" fill="none" xmlns="http://www.w3.org/2000/svg">
<g clip-path="url(#clip0_3913_1607)">
<path d="M688.494 586.758H1147.16C1147.16 586.758 1208.23 656.123 1249.45 656.123C1290.66 656.123 1351.73 586.758 1351.73 586.758H1812.16C1812.16 586.758 1838.8 0.421875 1249.45 0.421875C666.378 0.421875 688.494 586.758 688.494 586.758Z" fill="white"/>
<path d="M712.621 559.866H1785.52C1785.52 559.866 1783.51 27.5645 1250.45 27.5645C709.857 27.5645 712.621 559.866 712.621 559.866Z" fill="#013088"/>
<path d="M1084.83 51.1895C1075.78 143.425 1077.04 235.66 1079.05 327.644C992.344 291.705 905.386 266.573 818.68 247.221C867.687 325.383 919.711 401.785 979.526 472.658C889.05 496.533 799.83 523.676 714.883 560.369H1784.01C1704.09 524.179 1609.34 500.303 1519.37 472.658C1572.9 404.549 1626.68 343.478 1680.21 247.221C1590.49 266.322 1503.79 293.716 1419.84 327.644C1422.61 236.666 1424.12 145.687 1414.06 51.1895C1349.98 120.555 1302.22 198.213 1248.19 272.856C1201.95 198.967 1145.65 125.078 1084.83 51.1895Z" fill="#B5C4EB"/>
<path d="M996.868 560.369C929.513 512.115 873.217 466.374 829.989 424.403C904.632 413.345 973.997 412.842 1048.64 412.591C1015.47 344.985 1008.43 276.123 990.836 206.004C1057.19 246.969 1127.56 282.406 1175.81 333.927C1187.37 262.803 1216.02 189.416 1249.95 121.057C1279.1 191.176 1309.76 261.295 1323.59 328.649C1384.16 274.866 1444.47 243.2 1505.04 208.014C1492.22 284.416 1474.63 355.038 1447.99 414.853C1520.62 413.094 1593.26 412.088 1668.65 426.665C1612.61 482.961 1556.81 520.409 1500.77 560.62L996.868 560.369Z" fill="white"/>
<path d="M1249.45 625.21V326.136H1079.8C1080.81 500.554 1164.75 587.26 1249.45 625.21Z" fill="#E01A33"/>
<path d="M1248.69 625.21V326.136H1418.34C1417.33 500.554 1333.39 587.26 1248.69 625.21Z" fill="#B20032"/>
<path d="M0.624023 705.131V1000.94H58.9309V879.549H180.32V829.536H58.9309V754.893H190.121L207.714 704.88H0.624023V705.131Z" fill="#013088"/>
<path d="M1569.38 705.131V1000.94H1627.69V1000.69H1761.89V950.924H1627.69V871.506H1749.08V821.745H1627.69V755.144H1759.13L1776.72 705.131H1569.38Z" fill="#013186"/>
<path d="M393.693 706.388L274.817 1004.96H338.905L361.775 941.626H480.148L502.264 1003.7H569.368L450.995 706.639H393.693V706.388ZM420.082 784.8L464.817 895.885H375.849L420.082 784.8Z" fill="#013088"/>
<path d="M699.553 705.131V1003.7H762.132V888.345H790.029L868.442 1004.46H941.828L852.608 878.795C852.608 878.795 913.931 861.202 913.931 801.136C913.931 707.393 820.69 705.131 820.69 705.131H699.553ZM761.881 752.128H812.145C812.145 752.128 855.624 755.647 855.624 798.372C855.624 841.85 811.14 843.861 811.14 843.861H761.378L761.881 752.128Z" fill="#013088"/>
<path d="M1920.73 705.131V1003.7H1983.31V888.345H2011.21L2089.62 1004.46H2163.01L2074.04 879.046C2074.04 879.046 2135.36 861.454 2135.36 801.387C2135.36 707.644 2042.12 705.382 2042.12 705.382H1920.73V705.131ZM1983.06 752.128H2033.32C2033.32 752.128 2076.8 755.647 2076.8 798.372C2076.8 841.85 2032.32 843.861 2032.32 843.861H1982.56L1983.06 752.128Z" fill="#013088"/>
<path d="M1143.39 818.226L1129.82 1004.71H1072.77L1097.65 706.639H1157.21L1246.68 901.665L1329.87 706.639H1384.66L1412.05 1003.45H1349.98L1339.92 816.969L1252.97 1003.45H1226.83L1143.39 818.226Z" fill="#013088"/>
<path d="M2279.12 971.03L2307.77 927.551C2362.05 963.49 2402.01 964.244 2436.19 940.62C2443.48 916.493 2437.95 903.676 2426.64 894.879L2328.88 855.673C2286.66 821.996 2270.82 782.538 2317.82 729.006C2360.29 693.067 2415.08 692.565 2480.68 722.723L2478.16 778.517C2440.47 765.197 2405.28 737.551 2361.3 761.176C2339.43 789.826 2359.04 803.146 2372.61 812.445C2435.19 834.813 2482.69 853.411 2494.25 879.046C2510.84 929.813 2491.74 953.94 2476.66 974.8C2405.78 1030.34 2325.86 1003.95 2279.12 971.03Z" fill="#013088"/>
<path d="M416.563 1164.8H449.989V1327.66H416.563V1164.8Z" fill="#E21931"/>
<path d="M561.576 1217.33V1326.4H533.177V1167.31H560.32L640.24 1275.63V1166.06H666.126V1327.66H642L561.576 1217.33Z" fill="#E21931"/>
<path d="M1579.43 1217.33V1326.4H1551.03V1167.31H1578.18L1658.1 1275.63V1166.06H1683.98V1327.66H1659.86L1579.43 1217.33Z" fill="#E21931"/>
<path d="M741.021 1310.57L756.854 1286.44C787.013 1306.29 803.852 1308.81 822.952 1295.49C830.743 1288.95 833.005 1277.39 824.46 1270.1L768.666 1245.22C743.032 1232.15 736.246 1205.51 762.383 1175.61C786.008 1155.5 816.418 1155.25 853.111 1172.09L851.603 1203.25C830.492 1195.71 802.092 1181.39 788.018 1194.46C777.211 1205.77 783.243 1214.06 790.783 1219.09C825.717 1231.4 854.368 1244.97 860.651 1259.3C869.95 1287.45 857.132 1301.77 848.587 1313.33C814.659 1341.98 767.159 1328.91 741.021 1310.57Z" fill="#E21931"/>
<path d="M1000.89 1330.17C938.309 1330.17 932.78 1274.88 932.78 1274.88V1164.55H966.96V1274.63C966.96 1274.63 968.217 1302.78 999.883 1302.78C1027.78 1302.78 1033.31 1277.39 1033.31 1277.39V1163.29H1063.97V1273.62C1064.22 1273.62 1064.98 1330.17 1000.89 1330.17Z" fill="#E21931"/>
<path d="M1146.91 1163.54V1327.41H1181.34V1264.07H1196.67L1239.65 1327.91H1279.86L1231.1 1259.05C1231.1 1259.05 1264.78 1249.25 1264.78 1216.32C1264.78 1164.8 1213.51 1163.54 1213.51 1163.54H1146.91ZM1181.09 1189.43H1208.73C1208.73 1189.43 1232.61 1191.19 1232.61 1214.81C1232.61 1238.69 1208.23 1239.69 1208.23 1239.69H1181.09V1189.43Z" fill="#E21931"/>
<path d="M1393.71 1166.06L1328.11 1330.42H1363.55L1376.11 1295.49H1441.21L1453.27 1329.67H1490.21L1425.12 1166.06H1393.71ZM1408.28 1209.28L1432.91 1270.61H1383.9L1408.28 1209.28Z" fill="#E21931"/>
<path d="M1761.14 1249.24C1760.64 1203.76 1783.76 1163.04 1843.57 1161.03C1862.93 1160.28 1889.57 1172.59 1889.57 1172.59L1891.58 1204.26C1891.58 1204.26 1861.92 1187.92 1843.57 1189.93C1813.67 1192.95 1790.8 1206.77 1790.8 1250.5C1790.8 1279.15 1813.41 1301.27 1841.56 1301.27C1860.66 1301.27 1883.79 1287.95 1883.79 1287.95L1894.84 1313.83C1894.84 1313.83 1865.69 1329.67 1842.57 1329.67C1799.59 1329.42 1761.64 1301.77 1761.14 1249.24Z" fill="#E21931"/>
<path d="M1974.01 1166.06V1326.9H2079.06V1299.76H2005.93V1256.53H2072.03V1229.39H2005.93V1193.2H2077.56L2087.11 1166.06H1974.01Z" fill="#E21931"/>
<path d="M2425.39 640.541L2430.16 640.039C2430.41 642.049 2430.91 643.557 2431.67 644.814C2432.42 646.07 2433.93 647.076 2435.69 647.83C2437.45 648.584 2439.46 649.086 2441.72 649.086C2443.73 649.086 2445.49 648.835 2447 648.332C2448.51 647.83 2449.51 646.824 2450.27 645.819C2451.02 644.814 2451.27 643.808 2451.27 642.552C2451.27 641.295 2451.02 640.29 2450.27 639.285C2449.51 638.279 2448.51 637.525 2446.75 637.023C2445.74 636.52 2443.48 636.017 2439.71 635.012C2436.19 634.258 2433.68 633.253 2432.17 632.499C2430.41 631.494 2428.9 630.237 2427.9 628.98C2426.89 627.473 2426.64 625.965 2426.64 624.205C2426.64 622.195 2427.15 620.435 2428.4 618.676C2429.41 616.917 2431.17 615.66 2433.18 614.655C2435.44 613.65 2437.7 613.398 2440.21 613.398C2443.23 613.398 2445.74 613.901 2447.75 614.906C2450.02 615.912 2451.77 617.168 2452.78 618.928C2454.04 620.687 2454.54 622.697 2454.79 624.959L2449.76 625.211C2449.51 622.697 2448.51 620.938 2447 619.682C2445.49 618.425 2443.23 617.671 2440.21 617.671C2437.2 617.671 2434.94 618.174 2433.43 619.43C2431.92 620.687 2431.17 621.943 2431.17 623.451C2431.17 624.959 2431.67 625.965 2432.67 626.97C2433.68 627.975 2436.19 628.729 2440.47 629.734C2444.74 630.74 2447.5 631.494 2449.01 632.248C2451.27 633.253 2453.03 634.51 2454.04 636.269C2455.04 637.777 2455.54 639.787 2455.54 641.798C2455.54 643.808 2455.04 645.819 2453.79 647.578C2452.53 649.338 2450.77 650.845 2448.76 651.851C2446.5 652.856 2443.98 653.359 2441.22 653.359C2437.7 653.359 2434.68 652.856 2432.42 651.851C2430.16 650.845 2428.15 649.338 2426.89 647.327C2425.64 645.316 2425.39 643.306 2425.39 640.541Z" fill="#013088"/>
<path d="M2463.34 653.107V614.152H2471.13L2480.43 641.798C2481.18 644.311 2481.93 646.322 2482.19 647.578C2482.69 646.07 2483.44 644.06 2484.2 641.295L2493.49 614.152H2500.53V653.107H2495.51V620.435L2484.2 653.107H2479.42L2468.11 619.933V653.107H2463.34Z" fill="#013088"/>
</g>
<defs>
<clipPath id="clip0_3913_1607">
<rect width="2500" height="1330" fill="white" transform="translate(0.5 0.5)"/>
</clipPath>
</defs>
</svg>
