<svg width="90" height="24" viewBox="0 0 90 24" fill="none" xmlns="http://www.w3.org/2000/svg">
  <g clip-path="url(#clip0_362_3422)">
    <path
      d="M72.0158 12.2378L88.5472 0.418989C88.5504 0.416658 88.5541 0.414997 88.5579 0.4141C88.5618 0.413203 88.5658 0.413089 88.5697 0.413762C88.5735 0.414436 88.5773 0.415886 88.5806 0.418027C88.584 0.420169 88.5869 0.422962 88.5891 0.426245L89.2511 1.38972C89.2534 1.393 89.255 1.39671 89.2559 1.40063C89.2568 1.40455 89.2569 1.40862 89.2562 1.41259C89.2556 1.41655 89.2541 1.42035 89.252 1.42376C89.2499 1.42717 89.2472 1.43012 89.244 1.43245L77.7899 9.62074C77.7864 9.62319 77.7833 9.6264 77.7811 9.63014C77.7788 9.63388 77.7774 9.63807 77.7769 9.64243C77.7763 9.64679 77.7767 9.65121 77.778 9.6554C77.7793 9.65958 77.7815 9.66344 77.7844 9.6667L89.3444 22.4845C89.3471 22.4874 89.3492 22.4909 89.3506 22.4947C89.352 22.4985 89.3527 22.5025 89.3525 22.5066C89.3524 22.5106 89.3514 22.5146 89.3498 22.5183C89.3481 22.522 89.3458 22.5253 89.3428 22.528L88.4934 23.3238C88.4905 23.3266 88.4871 23.3287 88.4834 23.3302C88.4797 23.3316 88.4757 23.3322 88.4718 23.3321C88.4678 23.3319 88.4639 23.331 88.4603 23.3293C88.4567 23.3276 88.4534 23.3252 88.4507 23.3222L76.7776 10.3786C76.7727 10.373 76.766 10.3695 76.7587 10.3686C76.7515 10.3677 76.7441 10.3695 76.7381 10.3738L71.981 13.7729C71.9771 13.7758 71.9739 13.7795 71.9717 13.7839C71.9695 13.7882 71.9684 13.793 71.9684 13.7979V22.932C71.9684 22.9401 71.9652 22.9479 71.9596 22.9536C71.954 22.9594 71.9463 22.9626 71.9383 22.9626H70.8122C70.8042 22.9626 70.7965 22.9594 70.7909 22.9536C70.7853 22.9479 70.7821 22.9401 70.7821 22.932V1.07125C70.7821 1.06312 70.7853 1.05533 70.7909 1.04958C70.7965 1.04384 70.8042 1.04061 70.8122 1.04061L71.9383 1.03577C71.9463 1.03577 71.954 1.039 71.9596 1.04474C71.9652 1.05049 71.9684 1.05828 71.9684 1.06641V12.2128C71.9684 12.2185 71.9699 12.224 71.9728 12.2288C71.9756 12.2336 71.9798 12.2375 71.9847 12.2401C71.9896 12.2427 71.9951 12.2438 72.0006 12.2434C72.0061 12.243 72.0113 12.2411 72.0158 12.2378Z"
      fill="#26242D" />
    <path
      d="M45.0688 11.9962C45.0688 15.0632 43.8738 18.0045 41.7465 20.1732C39.6192 22.3419 36.734 23.5603 33.7255 23.5603C30.7171 23.5603 27.8319 22.3419 25.7046 20.1732C23.5773 18.0045 22.3822 15.0632 22.3822 11.9962C22.3822 8.92922 23.5773 5.98785 25.7046 3.81917C27.8319 1.65048 30.7171 0.432129 33.7255 0.432129C35.2151 0.432129 36.6902 0.731242 38.0664 1.31239C39.4427 1.89354 40.6931 2.74534 41.7465 3.81917C42.7998 4.89299 43.6353 6.1678 44.2054 7.57082C44.7754 8.97384 45.0688 10.4776 45.0688 11.9962ZM43.8572 11.9962C43.8572 9.25681 42.7898 6.62961 40.8897 4.69257C38.9897 2.75553 36.4126 1.66731 33.7255 1.66731C31.0384 1.66731 28.4614 2.75553 26.5613 4.69257C24.6612 6.62961 23.5938 9.25681 23.5938 11.9962C23.5938 14.7356 24.6612 17.3628 26.5613 19.2998C28.4614 21.2369 31.0384 22.3251 33.7255 22.3251C36.4126 22.3251 38.9897 21.2369 40.8897 19.2998C42.7898 17.3628 43.8572 14.7356 43.8572 11.9962Z"
      fill="#26242D" />
    <path
      d="M0 22.949V1.08831C0.355888 1.02811 0.726801 1.01145 1.11274 1.03832C1.16125 1.04155 1.1855 1.06815 1.1855 1.11814L1.18629 14.5301C1.18629 14.564 1.20316 14.5809 1.23691 14.5809L16.8849 14.5793C16.9112 14.5793 16.9244 14.5659 16.9244 14.539L16.9236 1.11572C16.9236 1.09412 16.9321 1.07341 16.9473 1.05814C16.9624 1.04287 16.9829 1.03429 17.0043 1.03429L18.0332 1.03913C18.0536 1.03913 18.0731 1.04737 18.0875 1.06203C18.1018 1.0767 18.1099 1.09659 18.1099 1.11733L18.1115 22.9256C18.1115 22.9357 18.1077 22.9453 18.1009 22.9524C18.094 22.9595 18.0848 22.9635 18.0751 22.9635H16.964C16.9381 22.9635 16.9252 22.9504 16.9252 22.924L16.9244 15.829C16.9244 15.8183 16.9203 15.8081 16.9128 15.8005C16.9054 15.7929 16.8954 15.7887 16.8849 15.7887L1.22663 15.7903C1.21593 15.7903 1.20567 15.7946 1.19811 15.8021C1.19054 15.8097 1.18629 15.8199 1.18629 15.8306L1.18708 22.9063C1.18708 22.9348 1.17285 22.949 1.14438 22.949H0Z"
      fill="#26242D" />
    <path
      d="M49.4462 3.10955C49.4346 3.12782 49.4288 3.14798 49.4288 3.17001C49.4288 9.67217 49.4288 16.2528 49.4288 22.9119C49.4288 22.9522 49.4093 22.9724 49.3703 22.9724L48.2963 22.9748C48.2821 22.9748 48.2684 22.969 48.2583 22.9587C48.2482 22.9484 48.2426 22.9345 48.2426 22.92V1.08102C48.2426 1.0684 48.2475 1.0563 48.2562 1.04738C48.265 1.03846 48.2768 1.03345 48.2892 1.03345H49.3482C49.3735 1.03345 49.394 1.04366 49.4099 1.06408L65.023 20.8729C65.0663 20.9277 65.0879 20.9199 65.0879 20.8495V1.10117C65.0879 1.06516 65.1058 1.04715 65.1417 1.04715L66.2283 1.04473C66.2343 1.04473 66.2403 1.04594 66.2459 1.04829C66.2514 1.05064 66.2565 1.05409 66.2608 1.05843C66.265 1.06277 66.2684 1.06793 66.2707 1.0736C66.273 1.07928 66.2742 1.08536 66.2742 1.0915V22.9248C66.2742 22.941 66.2679 22.9566 66.2566 22.9681C66.2453 22.9796 66.23 22.9861 66.2141 22.9861L65.1709 22.9853C65.144 22.9853 65.1222 22.9748 65.1053 22.9538L49.4644 3.10874C49.4634 3.10729 49.4619 3.10612 49.4603 3.10535C49.4587 3.10457 49.4569 3.10421 49.4551 3.10428C49.4533 3.10436 49.4516 3.10488 49.4501 3.1058C49.4485 3.10672 49.4472 3.108 49.4462 3.10955Z"
      fill="#26242D" />
    <path
      d="M33.5009 3.63276C37.8127 3.56101 41.4743 6.79327 41.9069 11.1753C42.4068 16.2393 38.4999 20.5197 33.5048 20.4415C33.47 20.441 33.4526 20.4232 33.4526 20.3883V19.2595C33.4526 19.23 33.4671 19.2155 33.4961 19.216C35.323 19.2316 36.9253 18.6519 38.303 17.4769C40.1829 15.8733 41.1485 13.282 40.7009 10.8294C40.3872 9.1099 39.5713 7.68687 38.2532 6.56026C36.925 5.42506 35.342 4.85773 33.504 4.85827C33.4708 4.85827 33.4542 4.84133 33.4542 4.80747L33.455 3.67953C33.455 3.64889 33.4703 3.6333 33.5009 3.63276Z"
      fill="#8F09F9" />
    <path
      d="M36.2507 15.4798C39.551 12.7999 37.5912 7.73821 33.504 7.70113C33.4708 7.70059 33.4542 7.68312 33.4542 7.64872V6.52077C33.4542 6.49229 33.4682 6.47777 33.4961 6.47724C35.4575 6.43209 37.2353 7.47779 38.2508 9.13787C39.7226 11.5429 39.1524 14.7187 36.9672 16.4691C35.9697 17.2678 34.8137 17.6672 33.4993 17.6672C33.4682 17.6672 33.4526 17.6516 33.4526 17.6204L33.4534 16.4788C33.4534 16.4514 33.4666 16.4377 33.493 16.4377C34.5554 16.4291 35.4746 16.1098 36.2507 15.4798Z"
      fill="#8F09F9" />
    <path
      d="M34.873 11.3003C34.6221 10.7294 34.1665 10.4061 33.5064 10.3304C33.4716 10.3261 33.4542 10.3062 33.4542 10.2707L33.455 9.13952C33.455 9.10619 33.4711 9.09088 33.5033 9.09356C34.4781 9.16666 35.2207 9.58565 35.7311 10.3505C36.4358 11.4067 36.3867 12.8733 35.569 13.8682C35.0433 14.5078 34.3521 14.8518 33.4953 14.9002C33.4669 14.9018 33.4526 14.8881 33.4526 14.8591L33.4534 13.7287C33.4534 13.69 33.4721 13.6688 33.5096 13.665C34.0489 13.6096 34.4578 13.3726 34.7362 12.9539C35.0525 12.4782 35.104 11.8251 34.873 11.3003Z"
      fill="#8F09F9" />
  </g>
  <defs>
    <clipPath id="clip0_362_3422">
      <rect width="90" height="23.2201" fill="white" transform="translate(0 0.389893)" />
    </clipPath>
  </defs>
</svg>