<svg width="140" height="48" viewBox="0 0 140 48" fill="none" xmlns="http://www.w3.org/2000/svg">
<g clip-path="url(#clip0_4691_12987)">
<path d="M97.0157 24.2378L113.547 12.419C113.55 12.4167 113.554 12.415 113.558 12.4141C113.562 12.4132 113.566 12.4131 113.57 12.4138C113.573 12.4144 113.577 12.4159 113.58 12.418C113.584 12.4202 113.587 12.423 113.589 12.4262L114.251 13.3897C114.253 13.393 114.255 13.3967 114.256 13.4006C114.257 13.4046 114.257 13.4086 114.256 13.4126C114.255 13.4166 114.254 13.4204 114.252 13.4238C114.25 13.4272 114.247 13.4301 114.244 13.4324L102.79 21.6207C102.786 21.6232 102.783 21.6264 102.781 21.6301C102.779 21.6339 102.777 21.6381 102.777 21.6424C102.776 21.6468 102.777 21.6512 102.778 21.6554C102.779 21.6596 102.781 21.6634 102.784 21.6667L114.344 34.4845C114.347 34.4874 114.349 34.4909 114.351 34.4947C114.352 34.4985 114.353 34.5025 114.352 34.5066C114.352 34.5106 114.351 34.5146 114.35 34.5183C114.348 34.522 114.346 34.5253 114.343 34.528L113.493 35.3238C113.49 35.3266 113.487 35.3287 113.483 35.3302C113.48 35.3316 113.476 35.3322 113.472 35.3321C113.468 35.3319 113.464 35.331 113.46 35.3293C113.457 35.3276 113.453 35.3252 113.451 35.3222L101.778 22.3786C101.773 22.373 101.766 22.3695 101.759 22.3686C101.751 22.3677 101.744 22.3695 101.738 22.3738L96.9809 25.7729C96.977 25.7758 96.9738 25.7795 96.9716 25.7839C96.9694 25.7882 96.9683 25.793 96.9683 25.7979V34.932C96.9683 34.9401 96.9651 34.9479 96.9595 34.9536C96.9538 34.9594 96.9462 34.9626 96.9382 34.9626H95.812C95.8041 34.9626 95.7964 34.9594 95.7908 34.9536C95.7852 34.9479 95.782 34.9401 95.782 34.932V13.0712C95.782 13.0631 95.7852 13.0553 95.7908 13.0496C95.7964 13.0438 95.8041 13.0406 95.812 13.0406L96.9382 13.0358C96.9462 13.0358 96.9538 13.039 96.9595 13.0447C96.9651 13.0505 96.9683 13.0583 96.9683 13.0664V24.2128C96.9683 24.2185 96.9698 24.224 96.9727 24.2288C96.9755 24.2336 96.9796 24.2375 96.9845 24.2401C96.9894 24.2427 96.9949 24.2438 97.0004 24.2434C97.0059 24.243 97.0112 24.2411 97.0157 24.2378Z" fill="#AEADAD"/>
<path d="M70.069 23.9962C70.069 27.0632 68.8739 30.0045 66.7466 32.1732C64.6193 34.3419 61.7341 35.5603 58.7256 35.5603C55.7172 35.5603 52.832 34.3419 50.7047 32.1732C48.5774 30.0045 47.3823 27.0632 47.3823 23.9962C47.3823 20.9292 48.5774 17.9879 50.7047 15.8192C52.832 13.6505 55.7172 12.4321 58.7256 12.4321C60.2153 12.4321 61.6903 12.7312 63.0665 13.3124C64.4428 13.8935 65.6933 14.7453 66.7466 15.8192C67.7999 16.893 68.6355 18.1678 69.2055 19.5708C69.7756 20.9738 70.069 22.4776 70.069 23.9962ZM68.8574 23.9962C68.8574 21.2568 67.7899 18.6296 65.8899 16.6926C63.9898 14.7555 61.4127 13.6673 58.7256 13.6673C56.0385 13.6673 53.4615 14.7555 51.5614 16.6926C49.6614 18.6296 48.5939 21.2568 48.5939 23.9962C48.5939 26.7356 49.6614 29.3628 51.5614 31.2998C53.4615 33.2369 56.0385 34.3251 58.7256 34.3251C61.4127 34.3251 63.9898 33.2369 65.8899 31.2998C67.7899 29.3628 68.8574 26.7356 68.8574 23.9962Z" fill="#AEADAD"/>
<path d="M25 34.949V13.0883C25.3559 13.0281 25.7268 13.0114 26.1127 13.0383C26.1612 13.0415 26.1855 13.0682 26.1855 13.1181L26.1863 26.5301C26.1863 26.564 26.2032 26.5809 26.2369 26.5809L41.8849 26.5793C41.9112 26.5793 41.9244 26.5659 41.9244 26.539L41.9236 13.1157C41.9236 13.0941 41.9321 13.0734 41.9473 13.0581C41.9624 13.0429 41.9829 13.0343 42.0043 13.0343L43.0332 13.0391C43.0536 13.0391 43.0731 13.0474 43.0875 13.062C43.1018 13.0767 43.1099 13.0966 43.1099 13.1173L43.1115 34.9256C43.1115 34.9357 43.1077 34.9453 43.1009 34.9524C43.094 34.9595 43.0848 34.9635 43.0751 34.9635H41.964C41.9381 34.9635 41.9252 34.9504 41.9252 34.924L41.9244 27.829C41.9244 27.8183 41.9203 27.8081 41.9128 27.8005C41.9054 27.7929 41.8954 27.7887 41.8849 27.7887L26.2266 27.7903C26.2159 27.7903 26.2057 27.7946 26.1981 27.8021C26.1905 27.8097 26.1863 27.8199 26.1863 27.8306L26.1871 34.9063C26.1871 34.9348 26.1728 34.949 26.1444 34.949H25Z" fill="#AEADAD"/>
<path d="M74.4464 15.1095C74.4348 15.1278 74.429 15.148 74.429 15.17C74.429 21.6722 74.429 28.2528 74.429 34.9119C74.429 34.9522 74.4095 34.9724 74.3704 34.9724L73.2965 34.9748C73.2822 34.9748 73.2685 34.969 73.2584 34.9587C73.2483 34.9484 73.2427 34.9345 73.2427 34.92V13.081C73.2427 13.0684 73.2476 13.0563 73.2563 13.0474C73.2651 13.0385 73.277 13.0334 73.2893 13.0334H74.3483C74.3736 13.0334 74.3942 13.0437 74.41 13.0641L90.0232 32.8729C90.0664 32.9277 90.088 32.9199 90.088 32.8495V13.1012C90.088 13.0652 90.1059 13.0472 90.1418 13.0472L91.2284 13.0447C91.2345 13.0447 91.2404 13.0459 91.246 13.0483C91.2516 13.0506 91.2566 13.0541 91.2609 13.0584C91.2651 13.0628 91.2685 13.0679 91.2708 13.0736C91.2731 13.0793 91.2743 13.0854 91.2743 13.0915V34.9248C91.2743 34.941 91.268 34.9566 91.2567 34.9681C91.2454 34.9796 91.2301 34.9861 91.2142 34.9861L90.1711 34.9853C90.1442 34.9853 90.1223 34.9748 90.1054 34.9538L74.4646 15.1087C74.4635 15.1073 74.4621 15.1061 74.4604 15.1053C74.4588 15.1046 74.457 15.1042 74.4553 15.1043C74.4535 15.1044 74.4517 15.1049 74.4502 15.1058C74.4486 15.1067 74.4473 15.108 74.4464 15.1095Z" fill="#AEADAD"/>
<path d="M58.5009 15.6328C62.8127 15.561 66.4743 18.7933 66.9069 23.1753C67.4068 28.2393 63.4999 32.5197 58.5048 32.4415C58.47 32.441 58.4526 32.4232 58.4526 32.3883V31.2595C58.4526 31.23 58.4671 31.2155 58.4961 31.216C60.323 31.2316 61.9253 30.6519 63.303 29.4769C65.1829 27.8733 66.1485 25.282 65.7009 22.8294C65.3872 21.1099 64.5713 19.6869 63.2532 18.5603C61.925 17.4251 60.342 16.8577 58.504 16.8583C58.4708 16.8583 58.4542 16.8413 58.4542 16.8075L58.455 15.6795C58.455 15.6489 58.4703 15.6333 58.5009 15.6328Z" fill="#C7C7C7"/>
<path d="M61.2507 27.4798C64.551 24.7999 62.5912 19.7382 58.504 19.7011C58.4708 19.7006 58.4542 19.6831 58.4542 19.6487V18.5208C58.4542 18.4923 58.4682 18.4778 58.4961 18.4772C60.4575 18.4321 62.2353 19.4778 63.2508 21.1379C64.7226 23.5429 64.1524 26.7187 61.9672 28.4691C60.9697 29.2678 59.8137 29.6672 58.4993 29.6672C58.4682 29.6672 58.4526 29.6516 58.4526 29.6204L58.4534 28.4788C58.4534 28.4514 58.4666 28.4377 58.493 28.4377C59.5554 28.4291 60.4746 28.1098 61.2507 27.4798Z" fill="#C7C7C7"/>
<path d="M59.873 23.3003C59.6221 22.7294 59.1665 22.4061 58.5064 22.3304C58.4716 22.3261 58.4542 22.3062 58.4542 22.2707L58.455 21.1395C58.455 21.1062 58.4711 21.0909 58.5033 21.0936C59.4781 21.1667 60.2207 21.5856 60.7311 22.3505C61.4358 23.4067 61.3867 24.8733 60.569 25.8682C60.0433 26.5078 59.3521 26.8518 58.4953 26.9002C58.4669 26.9018 58.4526 26.8881 58.4526 26.8591L58.4534 25.7287C58.4534 25.69 58.4721 25.6688 58.5096 25.665C59.0489 25.6096 59.4578 25.3726 59.7362 24.9539C60.0525 24.4782 60.104 23.8251 59.873 23.3003Z" fill="#C7C7C7"/>
</g>
<defs>
<clipPath id="clip0_4691_12987">
<rect width="90" height="23.2201" fill="white" transform="translate(25 12.3899)"/>
</clipPath>
</defs>
</svg>
