<svg width="137" height="40" viewBox="0 0 137 40" fill="none" xmlns="http://www.w3.org/2000/svg">
<path d="M3.23434 11.8916H39.2476C40.694 11.8916 41.6621 10.4036 41.0761 9.08129L37.5786 1.18963C37.2581 0.466346 36.5413 -5.40156e-06 35.7502 -5.40156e-06H6.73179C5.94065 -5.40156e-06 5.22387 0.466346 4.90333 1.18963L1.40589 9.08129C0.81985 10.4036 1.78795 11.8916 3.23434 11.8916Z" fill="#083342"/>
<path fill-rule="evenodd" clip-rule="evenodd" d="M4.00028 16.2168H38.4823C40.8344 16.2168 42.6788 18.2364 42.4658 20.5789L41.031 36.3622C40.8437 38.4225 39.1163 40 37.0475 40H5.43512C3.36634 40 1.6389 38.4225 1.4516 36.3622L0.0167527 20.5789C-0.196196 18.2364 1.64818 16.2168 4.00028 16.2168ZM23.2389 23.3243L22.7532 23.0546C22.1492 22.719 21.4147 22.719 20.8107 23.0546L20.325 23.3243L12.3438 27.7584C11.3783 28.2948 11.0304 29.5124 11.5668 30.4779L12.5381 32.2262C13.0745 33.1918 14.2921 33.5396 15.2577 33.0032L20.8107 29.9182C21.4147 29.5826 22.1492 29.5826 22.7532 29.9182L28.3062 33.0032C29.2718 33.5396 30.4894 33.1918 31.0258 32.2262L31.9971 30.4779C32.5335 29.5124 32.1856 28.2948 31.2201 27.7584L23.2389 23.3243Z" fill="#083342"/>
<path d="M71.4084 31.1426H56.4964V8.74258H61.0724V27.0786H71.4084V31.1426ZM75.2282 28.9986C73.5428 27.3559 72.7002 25.3186 72.7002 22.8866C72.7002 20.4546 73.5428 18.4172 75.2282 16.7746C76.9135 15.1319 79.0148 14.3106 81.5322 14.3106C84.0495 14.3106 86.1509 15.1319 87.8362 16.7746C89.5215 18.4172 90.3642 20.4546 90.3642 22.8866C90.3642 25.3186 89.5215 27.3559 87.8362 28.9986C86.1509 30.6412 84.0495 31.4626 81.5322 31.4626C79.0148 31.4626 76.9135 30.6412 75.2282 28.9986ZM77.1802 22.8866C77.1802 24.2092 77.5962 25.3186 78.4282 26.2146C79.2602 27.0892 80.2948 27.5266 81.5322 27.5266C82.7695 27.5266 83.8042 27.0892 84.6362 26.2146C85.4682 25.3186 85.8842 24.2092 85.8842 22.8866C85.8842 21.5639 85.4682 20.4652 84.6362 19.5906C83.8042 18.7159 82.7695 18.2786 81.5322 18.2786C80.2948 18.2786 79.2602 18.7266 78.4282 19.6226C77.5962 20.4972 77.1802 21.5852 77.1802 22.8866ZM95.0094 28.9986C93.3241 27.3559 92.4814 25.3186 92.4814 22.8866C92.4814 20.4546 93.3241 18.4172 95.0094 16.7746C96.6948 15.1319 98.7961 14.3106 101.313 14.3106C103.831 14.3106 105.932 15.1319 107.617 16.7746C109.303 18.4172 110.145 20.4546 110.145 22.8866C110.145 25.3186 109.303 27.3559 107.617 28.9986C105.932 30.6412 103.831 31.4626 101.313 31.4626C98.7961 31.4626 96.6948 30.6412 95.0094 28.9986ZM96.9614 22.8866C96.9614 24.2092 97.3774 25.3186 98.2094 26.2146C99.0414 27.0892 100.076 27.5266 101.313 27.5266C102.551 27.5266 103.585 27.0892 104.417 26.2146C105.249 25.3186 105.665 24.2092 105.665 22.8866C105.665 21.5639 105.249 20.4652 104.417 19.5906C103.585 18.7159 102.551 18.2786 101.313 18.2786C100.076 18.2786 99.0414 18.7266 98.2094 19.6226C97.3774 20.4972 96.9614 21.5852 96.9614 22.8866ZM114.294 18.4386H110.966V14.6306H114.294V9.76658L118.614 8.42258V14.6306H122.902V18.4386H118.614V24.9986C118.614 26.5559 119.393 27.3346 120.95 27.3346H122.902V31.1426H120.95C118.689 31.1426 117.014 30.6199 115.926 29.5746C114.838 28.5079 114.294 26.8972 114.294 24.7426V18.4386Z" fill="#083342"/>
</svg>
