<?xml version="1.0" encoding="utf-8"?>
<!-- Generator: Adobe Illustrator 22.1.0, SVG Export Plug-In . SVG Version: 6.00 Build 0)  -->
<svg version="1.1" id="Layer_1" xmlns="http://www.w3.org/2000/svg" xmlns:xlink="http://www.w3.org/1999/xlink" x="0px" y="0px"
	 viewBox="0 0 67.3 21.1" style="enable-background:new 0 0 67.3 21.1;" xml:space="preserve">
<style type="text/css">
	.st0{fill:#3697E9;}
	.st1{fill:#979797;}
</style>
<path class="st0" d="M13.7,18.2c0,1.6-1.3,2.8-2.8,2.8c0,0-0.1,0-0.1,0c-1.5-0.1-2.7-1.3-2.7-2.9c0-1.5,1.3-2.8,2.8-2.8c0,0,0,0,0,0
	C12.5,15.4,13.7,16.6,13.7,18.2 M10.9,7.8c1.5,0,2.8,1.2,2.8,2.8c0,1.6-1.3,2.8-2.8,2.8c0,0,0,0-0.1,0c-1.5,0-2.8-1.3-2.8-2.8
	c0,0,0,0,0,0C8.1,9,9.4,7.8,10.9,7.8 M5.6,18.2c0,1.5-1.3,2.9-2.9,2.8C1.2,20.9,0,19.6,0.1,18c0.1-1.5,1.3-2.7,2.8-2.7
	C4.4,15.4,5.6,16.6,5.6,18.2 M10.9,5.9c-1.5,0-2.8-1.3-2.8-2.8c0,0,0,0,0-0.1c0-1.5,1.3-2.8,2.8-2.8c1.5,0,2.8,1.2,2.8,2.8
	c0,0,0,0,0,0C13.7,4.6,12.4,5.9,10.9,5.9C10.9,5.9,10.9,5.9,10.9,5.9 M5.6,10.6c0,1.5-1.2,2.8-2.8,2.8c-1.6,0-2.8-1.2-2.9-2.8
	c0,0,0-0.1,0-0.1C0,9,1.3,7.8,2.9,7.8C4.4,7.8,5.6,9.1,5.6,10.6 M2.8,5.9C1.3,5.9,0,4.6,0,3.1c0-1.5,1.2-2.8,2.8-2.9c0,0,0,0,0.1,0
	c1.6,0,2.8,1.3,2.8,2.8c0,0,0,0.1,0,0.1C5.6,4.6,4.4,5.9,2.8,5.9 M19,7.8c1.5,0,2.8,1.2,2.8,2.8c0,0,0,0,0,0c0,1.5-1.2,2.8-2.8,2.8
	c0,0,0,0,0,0c-1.6,0-2.8-1.3-2.8-2.8c0,0,0,0,0,0C16.1,9,17.5,7.8,19,7.8 M19,5.9c-1.6,0-2.8-1.2-2.8-2.8c0,0,0,0,0,0
	c0-1.5,1.2-2.8,2.8-2.8c0,0,0,0,0,0c1.5,0,2.8,1.2,2.8,2.8c0,0,0,0,0,0C21.8,4.6,20.5,5.9,19,5.9C19,5.9,19,5.9,19,5.9 M16.1,18.2
	c0-1.5,1.2-2.8,2.8-2.8c0,0,0,0,0.1,0c1.5,0,2.8,1.3,2.8,2.8c0,1.5-1.2,2.8-2.8,2.8c0,0-0.1,0-0.1,0C17.3,20.9,16.1,19.7,16.1,18.2
	 M30,0.2H24v12.4h3.2V3.3H30c1.7,0,3,1.4,3,3v6.2h3.2V6.4C36.2,3,33.4,0.2,30,0.2 M47.8,0.2h-6.1v12.4h3.2V3.3h2.9c1.7,0,3,1.4,3,3
	v6.2H54V6.4C54,3,51.2,0.2,47.8,0.2 M37.3,0.2h3.2v12.3h-3.2V0.2z M67.3,6.2c0-3.4-2.5-6.2-6.2-6.2c-3.7,0-6.5,2.5-6.5,6.4v0.1
	c0,3.8,2.7,6.3,6.6,6.3c1.8,0,3.6-0.6,5.2-2.2l-2.1-2c-0.8,0.8-1.7,1.2-2.9,1.2c-1.9,0-3.1-0.9-3.2-2.4h9.1
	C67.3,6.8,67.3,6.2,67.3,6.2 M58.2,5c0.1-1.1,1.4-2,2.9-2c1.4,0,2.6,0.9,2.6,2H58.2z"/>
<path class="st1" d="M24.8,18.7c-0.6,0-1.1,0.5-1.1,1.1s0.5,1.1,1.1,1.1s1.1-0.5,1.1-1.1v0C25.9,19.2,25.4,18.7,24.8,18.7
	 M29.5,15.8c0.6,0,1,0.3,1.4,0.8l0.1,0.2l1.7-1l-0.2-0.2c-0.8-1.1-1.8-1.6-3.1-1.6c-1.4,0-2.3,0.6-2.8,1.1c-0.6,0.7-1,1.6-1,2.5
	c0,0.9,0.4,1.8,1,2.5c0.9,0.9,2,1.1,2.8,1.1c1.2,0,2.4-0.6,3.1-1.7l0.2-0.2l-1.7-1l-0.1,0.2c-0.3,0.5-0.8,0.8-1.4,0.8
	c-1,0-1.8-0.8-1.8-1.8C27.7,16.5,28.5,15.8,29.5,15.8 M36.5,13.9c-1.4,0-2.3,0.6-2.8,1.1c-0.6,0.7-1,1.6-1,2.5c0,0.9,0.4,1.8,1,2.5
	c0.9,0.9,2,1.1,2.8,1.1c1.4,0,2.3-0.6,2.8-1.1c0.6-0.7,1-1.6,1-2.5c0-0.9-0.4-1.8-1-2.5C38.4,14.1,37.3,13.9,36.5,13.9 M36.5,19.3
	c-1,0-1.8-0.8-1.8-1.8c0-1,0.8-1.8,1.8-1.8c1,0,1.8,0.8,1.8,1.8C38.3,18.5,37.5,19.3,36.5,19.3 M52,19c-0.6,0-1.1,0.5-1.1,1.1
	s0.5,1.1,1.1,1.1s1.1-0.5,1.1-1.1S52.6,19,52,19 M58.2,14.5c-0.5-0.3-1.1-0.5-1.8-0.5c-2.2,0-3.6,1.9-3.6,3.6c0,0.9,0.3,1.8,0.9,2.5
	c0.7,0.7,1.6,1.1,2.6,1.1c0.7,0,1.3-0.2,1.8-0.6V21h1.9v-6.9h-1.9C58.2,14.1,58.2,14.5,58.2,14.5z M56.5,19.3c-1,0-1.7-0.8-1.7-1.8
	c0-1,0.8-1.8,1.7-1.8c0.9,0,1.7,0.8,1.7,1.8C58.2,18.5,57.4,19.3,56.5,19.3 M65.1,14.1v3.8c0,0.7-0.5,1.3-1.2,1.3s-1.2-0.6-1.2-1.3
	v-3.8h-1.9V18c0,0.9,0.3,1.7,1,2.3c0.6,0.5,1.4,0.8,2.2,0.8c0.8,0,1.6-0.3,2.2-0.8c0.6-0.6,1-1.4,1-2.3v-3.9
	C67.1,14.1,65.1,14.1,65.1,14.1z M49.8,14.7c-0.5-0.5-1.2-0.8-1.9-0.8c-0.7,0-1.5,0.4-1.9,0.9c-0.3-0.6-1.1-0.9-1.8-0.9
	c-0.6,0-1.2,0.3-1.5,0.6v-0.4h-1.9V21h1.9v-4.2c0-0.6,0.6-0.9,1-0.9c0.6,0,1,0.4,1,1.1v4h1.9v-4c0-0.8,0.4-1.1,1-1.1
	c0.5,0,1,0.4,1,0.9V21h1.9v-4.2C50.6,15.9,50.3,15.2,49.8,14.7"/>
</svg>
