<svg width="638" height="116" viewBox="0 0 638 116" fill="none" xmlns="http://www.w3.org/2000/svg">
<g clip-path="url(#clip0_3913_1594)">
<path d="M89.9696 33.1091L37.0272 1.59766H0V113.625H37.0272V44.2973L89.9696 75.8145V113.625H127.003V1.59766H89.9696V33.1091Z" fill="black"/>
<path d="M71.1144 84.5118H55.9126V113.622H71.1144V84.506V84.5118ZM194.086 0C159.483 0 132.722 25.7288 132.722 58V58.3248C132.722 90.5728 159.153 116 193.755 116C228.364 116 255.119 90.2712 255.119 58V57.6752C255.119 25.4272 228.689 0 194.086 0ZM217.327 58.3248C217.327 71.3516 208.36 83.1082 194.109 83.1082C179.696 83.1082 170.573 71.1892 170.573 58V57.6752C170.573 44.6484 179.534 32.8918 193.784 32.8918C208.197 32.8918 217.327 44.8108 217.327 58V58.3248ZM324.163 41.4874L300.133 2.378H261.059V113.622H297.732V58.4872L323.513 98.0548H324.163L349.973 58.4872V113.622H387.267V2.378H348.198L324.163 41.4874ZM439.177 1.595L391.93 113.622H431.985L437.756 98.6754H476.993L482.938 113.622H523.613L476.366 1.595H439.177ZM447.186 72.297L457.429 45.298L467.678 72.297H447.186ZM571.19 2.378H528.247V113.593H569.909C615.247 113.593 638.001 90.2422 638.001 57.3504V57.0256C637.972 24.1628 615.711 2.378 571.19 2.378ZM600.179 58.1624C600.179 74.2168 589.118 81.1884 571.979 81.1884H565.738V34.8116H571.979C589.118 34.8116 600.179 41.8122 600.179 57.8376V58.1624Z" fill="black"/>
</g>
<defs>
<clipPath id="clip0_3913_1594">
<rect width="638" height="116" fill="white"/>
</clipPath>
</defs>
</svg>
