<svg width="100" height="33" viewBox="0 0 100 33" fill="none" xmlns="http://www.w3.org/2000/svg">
<mask id="mask0_3913_1242" style="mask-type:luminance" maskUnits="userSpaceOnUse" x="0" y="0" width="100" height="33">
<path d="M100 0H0V32.129H100V0Z" fill="white"/>
</mask>
<g mask="url(#mask0_3913_1242)">
<path d="M38.5825 7.2181C38.5868 6.6418 38.4122 6.1661 38.0586 5.791C40.8363 5.4048 43.29 5.1003 45.4199 4.8775C49.4672 4.4534 53.7361 4.1274 58.2264 3.8994C63.9726 3.6078 69.6294 3.5889 75.1967 3.8426C76.0586 3.8814 76.9193 3.9351 77.7786 4.0039C82.7326 4.4014 87.3846 4.991 91.9946 6.2297C94.0196 6.7743 96.0616 7.4749 97.9826 8.4659C98.1356 8.545 98.2816 8.6392 98.4196 8.7484C98.4326 8.7588 98.4346 8.7712 98.4246 8.7859L98.4066 8.813C98.4006 8.8233 98.3916 8.8254 98.3796 8.8194C98.0806 8.6663 97.7826 8.5398 97.4866 8.4401C94.3916 7.3949 91.2866 6.7059 87.9046 6.1846C84.8686 5.7175 81.8156 5.3854 78.7477 5.1884C74.3193 4.9037 69.9864 4.81 65.749 4.9072C56.767 5.111 47.5851 5.9175 38.5825 7.2181Z" fill="#F4EE1F"/>
<path d="M38.0587 5.79077C38.4122 6.16587 38.5868 6.64157 38.5825 7.21787C38.5412 8.05837 38.2101 8.82777 37.589 9.52627C36.8483 10.3599 35.8225 10.9444 34.7374 10.6902C33.5361 10.4076 33.438 8.94947 33.7825 7.97917C33.9881 7.40197 34.3623 6.84197 34.9051 6.29917C35.3877 5.85447 35.9683 5.57447 36.6471 5.45917C37.183 5.36887 37.6535 5.47937 38.0587 5.79077Z" fill="#202356"/>
<path d="M22.8442 8.77517C22.87 9.26887 22.8046 9.77297 22.648 10.2874C22.0364 12.2952 20.5151 13.8268 18.6687 14.7597C17.2932 15.4539 15.7362 15.7967 13.9977 15.7881C13.9813 15.7879 13.9651 15.7836 13.9507 15.7757C13.9362 15.7678 13.9239 15.7565 13.9149 15.7427C13.9059 15.729 13.9003 15.7132 13.8988 15.6968C13.8973 15.6804 13.8998 15.6639 13.9061 15.6487C13.9732 15.4887 14.1177 15.3726 14.2816 15.3249C14.5061 15.2586 14.716 15.1623 14.9113 15.0358C16.0635 14.2926 17.1538 13.0087 17.4971 11.6229C17.6562 11.2074 17.7375 10.7425 17.7409 10.2281C17.6549 9.24917 17.104 8.69947 16.088 8.57897C16.0347 8.57297 15.9994 8.59537 15.9822 8.64607L15.1758 11.0332L14.7035 12.4513C13.7728 15.2272 12.8317 18.0367 11.8803 20.8797C11.6609 21.539 11.7551 22.4694 12.2816 22.9584C12.3754 23.0453 12.3581 23.0887 12.23 23.0887L5.74351 23.0797C5.60591 23.0797 5.58911 23.035 5.69321 22.9455C6.09661 22.5971 6.43601 22.1829 6.71131 21.7029C7.11301 21.001 7.44161 20.2651 7.69711 19.4952C8.26141 17.7988 8.83641 16.0418 9.42221 14.2242L9.80421 13.0887C10.3358 11.4818 10.8708 9.85777 11.4093 8.21647C11.5861 7.67577 11.6855 6.92607 11.4145 6.43577C11.3655 6.34637 11.3151 6.25727 11.2635 6.16867C11.2248 6.10077 11.2446 6.06677 11.3229 6.06677C13.6876 6.08137 15.962 6.08007 18.1461 6.06287C19.5526 6.05257 20.8029 6.25257 21.8558 7.01257C22.4012 7.40567 22.7306 7.99317 22.8442 8.77517Z" fill="#202356"/>
<path d="M34.9042 6.29932C34.3614 6.84212 33.9872 7.40212 33.7817 7.97932C33.3335 8.07482 32.6079 8.20682 31.6049 8.37542C29.3468 8.75652 26.361 9.39392 22.6475 10.2877C22.804 9.77332 22.8694 9.26922 22.8436 8.77542C26.8178 7.76902 30.838 6.94362 34.9042 6.29932Z" fill="#F4EE1F"/>
<path d="M17.7406 10.2285C17.7371 10.7429 17.6558 11.2078 17.4967 11.6233L14.7031 12.4517L15.1754 11.0336L17.7406 10.2285Z" fill="#F4EE1F"/>
<path d="M61.0527 17.0955C60.6436 18.5536 60.8656 20.2723 62.5172 20.7278C62.9783 20.8551 63.4789 20.8934 64.0191 20.8426C65.3327 20.7187 66.5972 20.3304 67.8127 19.6774C68.0957 19.526 68.1503 19.585 67.9766 19.8542L66.2733 22.4942C66.2535 22.526 66.2264 22.5501 66.192 22.5665C65.9357 22.6869 65.7361 22.7622 65.5933 22.7923C64.1843 23.0873 62.8703 23.2706 61.6514 23.342C60.3314 23.4181 58.7662 23.1549 57.7236 22.351C56.9073 21.7222 56.4505 20.8542 56.3533 19.7471C56.2122 18.1282 56.6411 16.5828 57.6398 15.111C59.1434 12.8959 61.1912 11.4461 63.783 10.7613C64.1641 10.6607 64.7193 10.6104 65.4488 10.6104C66.6127 10.6104 67.974 11.0052 68.7095 11.8994C69.8501 13.2852 69.5417 15.3265 68.9043 16.9445C68.8966 16.9636 68.8834 16.9799 68.8664 16.9914C68.8494 17.0029 68.8293 17.009 68.8088 17.0091L61.1624 17.0129C61.1376 17.0128 61.1134 17.0209 61.0936 17.0358C61.0738 17.0507 61.0594 17.0717 61.0527 17.0955ZM61.8424 14.7742C61.8387 14.78 61.8366 14.7867 61.8364 14.7936C61.8362 14.8005 61.8378 14.8073 61.8411 14.8134C61.8444 14.8194 61.8492 14.8245 61.8551 14.828C61.861 14.8316 61.8677 14.8335 61.8746 14.8336L65.2243 14.8323C65.2733 14.8323 65.3047 14.8095 65.3185 14.7639C65.4028 14.4835 65.4307 14.1755 65.4024 13.84C65.312 12.7523 64.0514 12.9149 63.3856 13.2762C62.7593 13.6151 62.2449 14.1144 61.8424 14.7742Z" fill="#202356"/>
<path d="M83.7295 17.5612C83.7325 17.5546 83.7325 17.5475 83.7315 17.5405C83.7305 17.5335 83.7275 17.527 83.7225 17.5217C83.7175 17.5164 83.7115 17.5125 83.7055 17.5103C83.6985 17.5082 83.6915 17.5079 83.6845 17.5096C83.1595 17.6481 82.6235 17.8489 82.0765 18.1122C81.6455 18.3195 81.3385 18.5741 81.1545 18.876C80.8985 19.2967 80.5555 20.1612 80.8945 20.6206C81.2015 21.036 81.7555 21.0347 82.2345 21.0064C82.2435 21.0059 82.2535 21.0083 82.2625 21.0133C82.2705 21.0183 82.2775 21.0257 82.2825 21.0346C82.2865 21.0434 82.2885 21.0534 82.2875 21.0632C82.2865 21.0731 82.2825 21.0825 82.2765 21.0902C81.6985 21.8008 81.1395 22.5122 80.5995 23.2244C80.4855 23.3741 80.3605 23.3651 80.1925 23.3728C79.3067 23.4158 78.5119 23.3483 77.8083 23.1702C76.1928 22.7612 75.1657 21.4799 75.7812 19.8064C76.3325 18.3053 77.2435 17.2696 78.5141 16.6993C79.0534 16.4575 79.7635 16.2416 80.6445 16.0515C81.6045 15.8451 82.6305 15.5492 83.7235 15.1638C84.1455 15.0141 84.7605 14.7173 84.9075 14.2541C84.9215 14.2128 84.9205 14.1715 84.9065 14.1302C84.7275 13.6399 84.3675 13.3603 83.8275 13.2915C82.5085 13.1251 81.3875 13.5702 80.1515 13.9793C80.0595 14.0102 80.0415 13.9866 80.0985 13.9083L82.0525 11.2077C82.0885 11.1567 82.1425 11.1198 82.2035 11.1031C83.2905 10.8098 84.4055 10.655 85.5485 10.6386C86.7195 10.6218 87.9965 10.8399 88.8055 11.716C89.6775 12.6593 89.4265 14.2593 89.0315 15.3986C88.5885 16.6752 88.2125 17.8472 87.9055 18.9147C87.5635 20.1018 87.8545 20.8412 89.1855 20.898C89.2035 20.8986 89.2215 20.9044 89.2375 20.9148C89.2535 20.9252 89.2655 20.9397 89.2735 20.9568C89.2805 20.9738 89.2835 20.9926 89.2815 21.0112C89.2795 21.0298 89.2715 21.0473 89.2595 21.0618L87.4255 23.3109C87.4145 23.3235 87.4015 23.3337 87.3865 23.3411C87.3725 23.3484 87.3565 23.3526 87.3395 23.3535C85.6275 23.4322 83.6905 23.3818 83.0745 21.587C82.9205 21.138 82.9325 20.4971 83.1125 19.6644C83.2795 18.892 83.4855 18.1909 83.7295 17.5612Z" fill="#202356"/>
<path d="M27.7689 12.2065C28.7401 11.0014 30.0343 10.5446 31.6515 10.8362C31.7573 10.8551 31.7926 10.9149 31.7573 11.0156C31.4562 11.8861 31.1564 12.7648 30.8579 13.6517C30.8124 13.7859 30.7539 13.9123 30.6825 14.031C30.6584 14.0706 30.6244 14.0826 30.5805 14.0672C29.119 13.5545 27.9173 13.9373 26.9754 15.2156C26.6924 15.5983 26.4674 16.0444 26.3005 16.5536C25.7887 18.1218 25.2876 19.6809 24.7973 21.231C24.5969 21.8667 24.6382 22.4452 24.9212 22.9665C24.9282 22.9787 24.9318 22.9924 24.9317 23.0065C24.9316 23.0205 24.9277 23.0342 24.9205 23.0464C24.9133 23.0585 24.9031 23.0686 24.8907 23.0757C24.8784 23.0827 24.8644 23.0865 24.8502 23.0865L18.8012 23.0852C18.5242 23.0852 18.5074 23.0194 18.7509 22.8878C19.0941 22.702 19.4605 22.5317 19.7328 22.2452C20.0304 21.9321 20.2472 21.5665 20.3831 21.1485C21.4033 18.0026 22.3448 15.0517 23.2076 12.2956C23.3358 11.887 23.2446 11.5515 22.9341 11.2891C22.9249 11.2811 22.9181 11.2707 22.9146 11.259C22.9111 11.2474 22.9109 11.2349 22.9142 11.2232C22.9174 11.2115 22.9239 11.2009 22.9329 11.1927C22.9419 11.1845 22.953 11.179 22.965 11.1768C23.0536 11.1614 23.1431 11.154 23.2334 11.1549C24.639 11.1669 25.8863 11.1631 26.9754 11.1433C27.3814 11.1356 27.7422 11.0328 28.0579 10.8349C28.2007 10.7454 28.2403 10.7786 28.1767 10.9343C28.0184 11.3222 27.8691 11.739 27.7289 12.1846C27.704 12.2637 27.7173 12.271 27.7689 12.2065Z" fill="#202356"/>
<path d="M43.6772 12.0607C43.6532 12.1347 43.6725 12.1488 43.7353 12.1033C45.3418 10.9187 47.8592 9.9884 49.3727 11.9574C49.4463 12.0542 49.4966 12.16 49.5624 12.262C49.5882 12.3033 49.62 12.308 49.6579 12.2762C51.103 11.062 53.4037 10.4645 55.2282 11.0168C56.5121 11.4052 57.1456 12.8052 57.054 14.0336C57.0033 14.7114 56.8299 15.4245 56.534 16.1729C55.9594 17.6233 55.4648 19.0366 55.0501 20.4129C54.8282 21.1549 54.6669 22.2491 55.0837 22.9316C55.0933 22.9473 55.0986 22.9652 55.099 22.9836C55.0994 23.0019 55.0949 23.02 55.086 23.0361C55.0771 23.0521 55.064 23.0655 55.0482 23.0748C55.0323 23.0841 55.0143 23.089 54.9959 23.0891L49.0347 23.0826C48.8265 23.0826 48.805 23.019 48.9701 22.8916C49.5955 22.4125 50.048 21.7643 50.3276 20.9471C50.9942 18.997 51.6845 16.8998 52.3985 14.6555C52.6166 13.9716 52.2321 13.3884 51.4798 13.5213C50.9258 13.6185 50.4742 13.9076 50.125 14.3884C49.7912 14.8486 49.5426 15.3291 49.3792 15.8297C48.8665 17.3979 48.2579 19.311 47.5534 21.5691C47.4037 22.0491 47.5121 22.6039 47.8566 22.9716C47.8654 22.9812 47.8714 22.9932 47.8736 23.0061C47.8759 23.019 47.8744 23.0322 47.8693 23.0442C47.8642 23.0561 47.8558 23.0662 47.8451 23.0733C47.8343 23.0803 47.8217 23.084 47.8089 23.0839L41.9443 23.0813C41.7689 23.0813 41.7456 23.0215 41.8747 22.902C42.6682 22.1716 43.1379 21.4181 43.4772 20.3471C44.1086 18.3574 44.7052 16.5213 45.2669 14.8387C45.4153 14.3962 45.4063 13.8413 44.8837 13.6491C43.6682 13.2013 42.8914 14.4194 42.5714 15.3703C41.8876 17.3996 41.251 19.3673 40.6618 21.2736C40.4777 21.8697 40.5181 22.4263 40.783 22.9433C40.7909 22.9581 40.7947 22.9747 40.7942 22.9914C40.7937 23.0081 40.7888 23.0245 40.7801 23.0388C40.7714 23.0531 40.7591 23.0649 40.7445 23.073C40.7298 23.0811 40.7133 23.0853 40.6966 23.0852H34.4592C34.4481 23.0852 34.4372 23.0824 34.4276 23.0773C34.4179 23.0721 34.4097 23.0646 34.4037 23.0555C34.3744 23.0142 34.3792 22.9824 34.4179 22.96C34.7783 22.751 35.0979 22.5527 35.3766 22.3652C36.0592 21.9045 36.245 21.1562 36.4811 20.4245C37.3534 17.7291 38.2372 15.0671 39.0424 12.3613C39.1985 11.8374 39.0734 11.6503 38.7921 11.2284C38.7872 11.221 38.7844 11.2124 38.784 11.2035C38.7836 11.1946 38.7856 11.1858 38.7898 11.1779C38.7941 11.1701 38.8004 11.1636 38.808 11.1591C38.8157 11.1546 38.8245 11.1522 38.8334 11.1523C40.0807 11.1669 41.2377 11.1643 42.3043 11.1445C42.9134 11.1334 43.4742 10.9962 43.9869 10.7329C43.9994 10.7263 44.0137 10.7235 44.0278 10.725C44.0419 10.7265 44.0553 10.7322 44.0661 10.7414C44.0769 10.7506 44.0848 10.7628 44.0886 10.7765C44.0924 10.7901 44.0921 10.8046 44.0876 10.8181L43.6772 12.0607Z" fill="#202356"/>
<path d="M76.1071 12.1753C76.2955 11.9766 76.4555 11.7327 76.671 11.5675C77.6198 10.8398 78.7239 10.5976 79.9832 10.8411C80 10.8442 80.016 10.851 80.031 10.8609C80.045 10.8709 80.057 10.8838 80.065 10.8987C80.074 10.9137 80.079 10.9304 80.081 10.9476C80.083 10.9648 80.081 10.9822 80.075 10.9985L79.031 14.0101C79.0264 14.0233 79.0192 14.0354 79.0098 14.0458C79.0005 14.0561 78.9892 14.0646 78.9767 14.0706C78.9641 14.0765 78.9504 14.08 78.9365 14.0807C78.9226 14.0814 78.9086 14.0793 78.8955 14.0746C76.6684 13.2721 75.1755 14.7585 74.5471 16.7095C74.1187 18.0402 73.6976 19.3465 73.2839 20.6282C73.0374 21.3908 72.7949 22.1727 73.2284 22.9301C73.2376 22.9464 73.2425 22.9648 73.2424 22.9835C73.2423 23.0022 73.2373 23.0206 73.2279 23.0368C73.2185 23.053 73.205 23.0664 73.1888 23.0758C73.1726 23.0851 73.1542 23.0901 73.1355 23.0901L66.9381 23.085C66.9105 23.085 66.8912 23.0725 66.88 23.0475C66.8628 23.0088 66.8736 22.98 66.9123 22.9611C67.8 22.5198 68.3574 22.1275 68.68 21.1392C69.5256 18.5473 70.3553 15.9637 71.169 13.3882C71.2766 13.0493 71.3794 12.7026 71.4774 12.3482C71.5923 11.9379 71.56 11.6166 71.2645 11.3069C71.2528 11.2942 71.2449 11.2784 71.242 11.2614C71.239 11.2444 71.2411 11.2269 71.2479 11.211C71.2548 11.1951 71.2661 11.1816 71.2805 11.1721C71.2949 11.1625 71.3118 11.1573 71.329 11.1572C72.5893 11.1607 73.8125 11.1654 74.9987 11.1714C75.489 11.1749 75.9604 11.0544 76.4129 10.8101C76.5067 10.7594 76.5351 10.7839 76.4981 10.8837L76.0297 12.1263C75.9755 12.2708 76.0013 12.2871 76.1071 12.1753Z" fill="#202356"/>
<path d="M32.2255 11.1626C33.4823 11.1548 34.7274 11.1544 35.961 11.1613C36.4823 11.1639 36.9575 11.0477 37.3868 10.8129C37.4926 10.7544 37.5253 10.7823 37.4848 10.8968C37.4375 11.031 37.3898 11.1682 37.3416 11.3084C36.3773 14.1333 35.3945 17.1071 34.3932 20.2297C34.2393 20.7088 34.1076 21.1548 33.9984 21.5677C33.8676 22.0606 33.9377 22.5157 34.2087 22.9329C34.2188 22.9481 34.2245 22.9659 34.2253 22.9841C34.2261 23.0024 34.2219 23.0205 34.2131 23.0366C34.2044 23.0526 34.1914 23.066 34.1756 23.0752C34.1598 23.0845 34.1418 23.0892 34.1236 23.089C32.176 23.0839 30.1433 23.0843 28.0255 23.0903C27.9679 23.0903 27.915 23.0778 27.8668 23.0529C27.8558 23.0473 27.8466 23.0388 27.8402 23.0283C27.8337 23.0178 27.8302 23.0057 27.8301 22.9933C27.83 22.9809 27.8332 22.9686 27.8394 22.9577C27.8456 22.9469 27.8546 22.9378 27.8655 22.9316C28.4552 22.5974 29.0539 22.289 29.3984 21.6929C29.5317 21.4606 29.6543 21.1725 29.7661 20.8284C30.635 18.1411 31.4797 15.4972 32.3003 12.8968C32.5197 12.2 32.6913 11.7574 32.1932 11.24C32.1868 11.2337 32.1824 11.2256 32.1806 11.2167C32.1788 11.2079 32.1797 11.1987 32.1831 11.1904C32.1866 11.182 32.1925 11.1749 32.2001 11.17C32.2076 11.165 32.2165 11.1624 32.2255 11.1626Z" fill="#202356"/>
<path d="M9.80404 13.0889L9.42204 14.2244C7.27414 15.002 5.19584 15.8601 3.18724 16.7986C2.65224 17.0489 2.12664 17.3151 1.61044 17.5973C1.60274 17.6007 1.59714 17.599 1.59374 17.5921L1.57434 17.5625C1.55884 17.5367 1.56354 17.5151 1.58854 17.4979C2.46594 16.8786 3.02854 16.4928 3.27624 16.3405C5.19804 15.1612 7.37394 14.0773 9.80404 13.0889Z" fill="#F4EE1F"/>
<path d="M10.2642 28.5562L10.2539 26.8168C10.253 26.754 10.2844 26.7226 10.3481 26.7226H10.7739C10.804 26.7226 10.8329 26.7347 10.8542 26.7562C10.8755 26.7778 10.8874 26.807 10.8874 26.8374L10.881 29.4826C10.881 29.5428 10.8504 29.5725 10.7894 29.5716C10.6177 29.5691 10.4513 29.6013 10.3055 29.4813C9.54944 28.8611 8.84534 28.2693 8.19324 27.7058C8.15114 27.6697 8.13044 27.6792 8.13134 27.7342L8.14164 29.4787C8.14164 29.503 8.13204 29.5263 8.11484 29.5435C8.09764 29.5607 8.07434 29.5703 8.05004 29.5703H7.60364C7.57784 29.57 7.55324 29.5597 7.53514 29.5416C7.51694 29.5234 7.50684 29.499 7.50684 29.4736L7.51324 26.782C7.51324 26.7647 7.52014 26.7482 7.53244 26.7359C7.54474 26.7236 7.56154 26.7165 7.57904 26.7162C7.84104 26.7097 7.95844 26.6994 8.17774 26.88C8.86424 27.4469 9.53824 28.0155 10.1997 28.5858C10.2427 28.6228 10.2642 28.6129 10.2642 28.5562Z" fill="#545557"/>
<path d="M57.3013 27.6311L58.0832 26.7278C58.0896 26.7205 58.0976 26.7146 58.1065 26.7106C58.1154 26.7066 58.1251 26.7046 58.1348 26.7046L58.7658 26.6943C58.7791 26.6943 58.7921 26.6981 58.8033 26.7054C58.8144 26.7127 58.8232 26.723 58.8286 26.7352C58.8339 26.7474 58.8356 26.7609 58.8334 26.774C58.8311 26.7872 58.8251 26.7994 58.8161 26.8091L57.7 27.9924C57.6879 28.0055 57.6813 28.0228 57.6818 28.0406C57.6823 28.0585 57.6898 28.0754 57.7026 28.0878L59.0742 29.4543C59.0836 29.4639 59.0899 29.4761 59.0924 29.4893C59.0949 29.5026 59.0934 29.5162 59.0882 29.5286C59.083 29.541 59.0742 29.5516 59.063 29.559C59.0518 29.5665 59.0386 29.5704 59.0251 29.5704L58.2716 29.5614C58.2536 29.5611 58.2364 29.5536 58.2238 29.5407L57.2755 28.5407C57.269 28.5339 57.2611 28.5284 57.2524 28.5247C57.2437 28.521 57.2343 28.5192 57.2249 28.5193C57.2154 28.5194 57.2061 28.5215 57.1974 28.5254C57.1888 28.5293 57.1811 28.535 57.1748 28.542L56.318 29.5356C56.3117 29.5427 56.304 29.5485 56.2953 29.5525C56.2867 29.5565 56.2773 29.5587 56.2677 29.5588L55.6135 29.573C55.5998 29.5735 55.5863 29.57 55.5747 29.5627C55.5631 29.5555 55.5539 29.545 55.5483 29.5324C55.5428 29.5199 55.5411 29.506 55.5435 29.4926C55.5459 29.4791 55.5523 29.4667 55.5619 29.4569L56.7722 28.1678C56.7841 28.155 56.7906 28.138 56.7904 28.1205C56.7902 28.103 56.7832 28.0862 56.7709 28.0736L55.54 26.8169C55.5304 26.8071 55.524 26.7946 55.5216 26.7812C55.5192 26.7677 55.5208 26.7538 55.5264 26.7413C55.532 26.7288 55.5411 26.7182 55.5528 26.711C55.5644 26.7038 55.5779 26.7002 55.5916 26.7007L56.3284 26.7317C56.3374 26.732 56.3462 26.7341 56.3544 26.7379C56.3626 26.7417 56.37 26.747 56.3761 26.7536L57.1993 27.6324C57.2058 27.6394 57.2138 27.6451 57.2226 27.6489C57.2314 27.6527 57.241 27.6546 57.2506 27.6545C57.2602 27.6544 57.2697 27.6522 57.2784 27.6482C57.2872 27.6442 57.2949 27.6383 57.3013 27.6311Z" fill="#545557"/>
<path d="M74.6713 28.688C74.7023 28.743 74.7319 28.7426 74.7603 28.6867L75.6932 26.9009C75.7595 26.7727 75.8648 26.7095 76.0094 26.7112L76.2958 26.7138C76.4326 26.7155 76.4679 26.7757 76.4016 26.8944L75.0223 29.3796C74.9878 29.4416 74.9376 29.4934 74.8766 29.5297C74.8156 29.566 74.7461 29.5854 74.6751 29.5861C74.6042 29.5868 74.5343 29.5686 74.4726 29.5334C74.411 29.4983 74.3598 29.4474 74.3242 29.386L72.8532 26.8415C72.8449 26.8271 72.8406 26.8108 72.8408 26.7942C72.8409 26.7776 72.8455 26.7613 72.8541 26.7471C72.8626 26.7329 72.8748 26.7212 72.8894 26.7133C72.9041 26.7054 72.9205 26.7016 72.9371 26.7022L73.4313 26.7202C73.5371 26.7245 73.6154 26.7731 73.6661 26.866L74.6713 28.688Z" fill="#545557"/>
<path d="M77.5241 26.7095H77.0131C76.9568 26.7095 76.9111 26.7552 76.9111 26.8115V29.4695C76.9111 29.5258 76.9568 29.5715 77.0131 29.5715H77.5241C77.5804 29.5715 77.626 29.5258 77.626 29.4695V26.8115C77.626 26.7552 77.5804 26.7095 77.5241 26.7095Z" fill="#545557"/>
<path d="M6.29861 26.7191L5.82121 26.7183C5.76351 26.7182 5.71661 26.7649 5.71651 26.8226L5.71191 29.4678C5.71181 29.5255 5.75851 29.5724 5.81621 29.5725L6.29361 29.5733C6.35131 29.5734 6.39821 29.5267 6.39831 29.469L6.40291 26.8238C6.40301 26.7661 6.35631 26.7192 6.29861 26.7191Z" fill="#545557"/>
<path d="M16.9109 29.0259L18.6193 29.0233C18.6354 29.0233 18.6508 29.0169 18.6622 29.0055C18.6735 28.9942 18.6799 28.9787 18.6799 28.9627L18.6722 26.8169C18.6722 26.7566 18.7023 26.7261 18.7625 26.7252L19.2567 26.7188C19.2685 26.7184 19.2802 26.7205 19.2913 26.7247C19.3023 26.7289 19.3123 26.7353 19.3209 26.7435C19.3294 26.7516 19.3362 26.7614 19.3409 26.7722C19.3456 26.7831 19.3481 26.7947 19.3483 26.8065C19.3569 27.4629 19.3569 28.127 19.3483 28.7988C19.3431 29.2427 19.3573 29.5485 18.778 29.5536C18.1079 29.5605 17.4399 29.5631 16.7741 29.5614C16.4825 29.5614 16.1625 29.4736 16.1573 29.1381C16.1436 28.3192 16.1401 27.5467 16.147 26.8207C16.1472 26.8077 16.15 26.7948 16.1552 26.7828C16.1604 26.7708 16.1679 26.7599 16.1774 26.7508C16.1869 26.7417 16.1981 26.7346 16.2103 26.7297C16.2226 26.7249 16.2357 26.7225 16.249 26.7227L16.7264 26.7278C16.7909 26.7287 16.8231 26.7609 16.8231 26.8246V28.9381C16.8231 28.9966 16.8524 29.0259 16.9109 29.0259Z" fill="#545557"/>
<path d="M22.6935 28.5057C22.6187 28.5169 22.6109 28.5457 22.6703 28.5922L23.7425 29.4386C23.8492 29.5229 23.8346 29.5651 23.6987 29.5651L23.0909 29.5638C22.961 29.5638 22.8488 29.519 22.7541 29.4296L21.8251 28.5509C21.7928 28.5203 21.7494 28.5032 21.7038 28.5031L21.2238 28.507C21.1722 28.507 21.1473 28.5324 21.149 28.5831L21.1683 29.4515C21.1687 29.4664 21.1661 29.4811 21.1607 29.495C21.1553 29.5088 21.1472 29.5214 21.1368 29.5321C21.1265 29.5428 21.1142 29.5513 21.1005 29.5572C21.0869 29.5631 21.0722 29.5662 21.0574 29.5663L20.589 29.5689C20.5271 29.5689 20.4961 29.5375 20.4961 29.4747L20.5051 26.7805C20.5051 26.7478 20.5215 26.7315 20.5541 26.7315C21.3533 26.7341 22.1275 26.7341 22.8767 26.7315C23.2496 26.7302 23.5335 26.8076 23.5696 27.2076C23.6187 27.7315 23.74 28.5728 22.909 28.4992C22.8376 28.4932 22.7658 28.4954 22.6935 28.5057ZM22.9038 27.3547C22.9038 27.3181 22.8893 27.283 22.8634 27.2571C22.8375 27.2312 22.8024 27.2167 22.7658 27.2167H21.2767C21.2401 27.2167 21.205 27.2312 21.1791 27.2571C21.1532 27.283 21.1387 27.3181 21.1387 27.3547V27.8709C21.1387 27.9075 21.1532 27.9426 21.1791 27.9685C21.205 27.9944 21.2401 28.0089 21.2767 28.0089H22.7658C22.8024 28.0089 22.8375 27.9944 22.8634 27.9685C22.8893 27.9426 22.9038 27.9075 22.9038 27.8709V27.3547Z" fill="#545557"/>
<path d="M25.0441 28.9999L24.746 29.5251C24.7396 29.5363 24.7304 29.5456 24.7193 29.5521C24.7082 29.5587 24.6956 29.5622 24.6828 29.5625L24.1705 29.5677C24.1573 29.5679 24.1443 29.5645 24.1328 29.558C24.1212 29.5515 24.1116 29.5421 24.105 29.5307C24.0983 29.5193 24.0947 29.5063 24.0947 29.4931C24.0946 29.4799 24.0981 29.4669 24.1047 29.4554L25.6454 26.7625C25.652 26.751 25.6616 26.7415 25.6732 26.7349C25.6847 26.7283 25.6979 26.7249 25.7112 26.7251L26.2647 26.7264C26.2778 26.7264 26.2906 26.7299 26.302 26.7365C26.3133 26.7431 26.3227 26.7525 26.3292 26.7638L27.8957 29.4593C27.9023 29.4707 27.9058 29.4837 27.9057 29.497C27.9057 29.5102 27.9021 29.5232 27.8954 29.5346C27.8887 29.546 27.8792 29.5554 27.8676 29.5619C27.8561 29.5684 27.8431 29.5717 27.8299 29.5716L27.195 29.5612C27.181 29.5612 27.1672 29.5571 27.1554 29.5496C27.1435 29.5421 27.134 29.5313 27.1279 29.5187L26.8789 29.0012C26.8728 28.9886 26.8633 28.9778 26.8515 28.9703C26.8396 28.9628 26.8259 28.9587 26.8118 28.9587L25.1099 28.9625C25.0966 28.9623 25.0835 28.9657 25.0719 28.9723C25.0603 28.9789 25.0507 28.9884 25.0441 28.9999ZM25.4041 28.3509C25.3996 28.3592 25.3973 28.3685 25.3975 28.3778C25.3977 28.3872 25.4004 28.3964 25.4052 28.4045C25.41 28.4126 25.4168 28.4192 25.425 28.4239C25.4332 28.4285 25.4424 28.4309 25.4518 28.4309L26.4686 28.427C26.478 28.4271 26.4872 28.4246 26.4954 28.42C26.5036 28.4154 26.5104 28.4087 26.5152 28.4006C26.52 28.3926 26.5227 28.3834 26.5229 28.374C26.523 28.3646 26.5208 28.3553 26.5163 28.347L26.0041 27.4012C25.9994 27.3926 25.9925 27.3854 25.9841 27.3804C25.9757 27.3753 25.9661 27.3727 25.9563 27.3727C25.9465 27.3727 25.9369 27.3753 25.9285 27.3804C25.9201 27.3854 25.9132 27.3926 25.9086 27.4012L25.4041 28.3509Z" fill="#545557"/>
<path d="M31.2644 28.5536L31.2567 26.8155C31.2567 26.7923 31.2659 26.77 31.2824 26.7535C31.2989 26.737 31.3212 26.7278 31.3444 26.7278H31.7754C31.8511 26.7278 31.889 26.7652 31.889 26.8401L31.8864 29.4968C31.8863 29.512 31.8814 29.5266 31.8723 29.5385C31.8632 29.5504 31.8504 29.5589 31.8361 29.5626C31.6141 29.6186 31.4115 29.5708 31.2283 29.4194C30.4834 28.8018 29.8081 28.2315 29.2025 27.7084C29.15 27.6637 29.1255 27.6758 29.129 27.7446C29.1556 28.3201 29.1599 28.8998 29.1419 29.4839C29.1401 29.5424 29.11 29.5708 29.0515 29.5691C28.9053 29.5639 28.7582 29.5635 28.6102 29.5678C28.5983 29.5681 28.5865 29.5661 28.5754 29.5618C28.5643 29.5575 28.5542 29.551 28.5456 29.5427C28.5371 29.5344 28.5303 29.5244 28.5257 29.5135C28.521 29.5025 28.5186 29.4907 28.5186 29.4788L28.5199 26.8091C28.52 26.7914 28.5258 26.7743 28.5366 26.7605C28.5474 26.7467 28.5624 26.737 28.5793 26.733C28.7918 26.6788 28.9789 26.7183 29.1406 26.8517C29.741 27.3429 30.4275 27.9201 31.1999 28.5833C31.2429 28.6194 31.2644 28.6095 31.2644 28.5536Z" fill="#545557"/>
<path d="M37.8854 27.8556L38.9925 27.8685C39.0187 27.8688 39.0437 27.8792 39.0625 27.8974C39.0812 27.9157 39.0922 27.9404 39.0932 27.9666L39.1048 28.2324C39.1055 28.2461 39.1034 28.2598 39.0987 28.2727C39.094 28.2855 39.0867 28.2973 39.0773 28.3073C39.0679 28.3173 39.0566 28.3253 39.044 28.3309C39.0314 28.3364 39.0179 28.3393 39.0042 28.3395L37.8958 28.3498C37.869 28.3501 37.8434 28.361 37.8245 28.3801C37.8057 28.3992 37.7951 28.4249 37.7951 28.4517L37.7925 28.9188C37.7925 28.9459 37.8033 28.9718 37.8224 28.9909C37.8415 29.01 37.8674 29.0208 37.8945 29.0208L39.9693 29.022C39.9961 29.022 40.0219 29.0326 40.0409 29.0514C40.06 29.0703 40.0709 29.0959 40.0713 29.1227L40.0738 29.4569C40.0738 29.4837 40.0633 29.5094 40.0444 29.5285C40.0256 29.5476 40 29.5585 39.9732 29.5588L37.2054 29.5704C37.1784 29.5704 37.1525 29.5597 37.1334 29.5406C37.1142 29.5215 37.1035 29.4955 37.1035 29.4685L37.11 26.8285C37.11 26.8015 37.1207 26.7755 37.1398 26.7564C37.1589 26.7373 37.1849 26.7266 37.2119 26.7266L39.9345 26.7408C39.9613 26.7408 39.987 26.7513 40.0061 26.7702C40.0252 26.789 40.0361 26.8146 40.0364 26.8414L40.039 27.1111C40.0392 27.1246 40.0367 27.138 40.0316 27.1505C40.0266 27.163 40.0191 27.1744 40.0096 27.184C40.0001 27.1936 39.9888 27.2012 39.9764 27.2064C39.9639 27.2116 39.9506 27.2143 39.9371 27.2143L37.8867 27.2079C37.8734 27.2079 37.8601 27.2105 37.8477 27.2156C37.8354 27.2207 37.8241 27.2282 37.8147 27.2377C37.8052 27.2472 37.7977 27.2584 37.7926 27.2708C37.7874 27.2831 37.7848 27.2964 37.7848 27.3098V27.7537C37.7848 27.7805 37.7954 27.8062 37.8142 27.8253C37.833 27.8444 37.8586 27.8553 37.8854 27.8556Z" fill="#545557"/>
<path d="M50.1797 27.3459L50.181 29.4646C50.181 29.4923 50.17 29.5189 50.1504 29.5385C50.1308 29.5581 50.1042 29.5691 50.0765 29.5691L49.5952 29.5704C49.5675 29.5704 49.5409 29.5594 49.5213 29.5398C49.5017 29.5202 49.4907 29.4936 49.4907 29.4659L49.492 27.3459C49.492 27.3182 49.481 27.2916 49.4614 27.272C49.4418 27.2524 49.4152 27.2414 49.3875 27.2414L48.2868 27.2375C48.2593 27.2375 48.2329 27.2267 48.2134 27.2074C48.1938 27.1881 48.1826 27.1618 48.1823 27.1343L48.1797 26.8324C48.1796 26.8185 48.1821 26.8048 48.1873 26.792C48.1925 26.7791 48.2002 26.7675 48.2099 26.7576C48.2196 26.7478 48.2312 26.74 48.2439 26.7346C48.2567 26.7293 48.2704 26.7266 48.2842 26.7266H51.3888C51.4026 26.7266 51.4163 26.7293 51.4291 26.7346C51.4418 26.74 51.4534 26.7478 51.4631 26.7576C51.4728 26.7675 51.4805 26.7791 51.4857 26.792C51.4909 26.8048 51.4934 26.8185 51.4933 26.8324L51.4881 27.1356C51.4878 27.1631 51.4766 27.1893 51.457 27.2087C51.4375 27.228 51.4111 27.2388 51.3836 27.2388L50.2842 27.2414C50.2565 27.2414 50.2299 27.2524 50.2103 27.272C50.1907 27.2916 50.1797 27.3182 50.1797 27.3459Z" fill="#545557"/>
<path d="M54.1966 28.9562L52.4534 28.9639C52.4418 28.964 52.4305 28.9673 52.4207 28.9734C52.4109 28.9796 52.403 28.9884 52.3979 28.9988L52.1476 29.5227C52.1427 29.5333 52.1349 29.5424 52.1251 29.5488C52.1153 29.5552 52.1038 29.5586 52.0921 29.5588L51.5257 29.5704C51.5146 29.5707 51.5037 29.5681 51.494 29.5628C51.4844 29.5575 51.4763 29.5497 51.4706 29.5402C51.465 29.5308 51.4619 29.52 51.4619 29.5089C51.4618 29.4979 51.4647 29.487 51.4702 29.4775L53.0211 26.7549C53.0265 26.7452 53.0343 26.737 53.0438 26.7314C53.0534 26.7257 53.0642 26.7227 53.0753 26.7227L53.6508 26.7291C53.6616 26.7292 53.6721 26.7322 53.6814 26.7376C53.6906 26.743 53.6984 26.7508 53.7037 26.7601L55.2728 29.4736C55.2782 29.4831 55.2811 29.4938 55.2811 29.5047C55.281 29.5157 55.2781 29.5264 55.2726 29.5358C55.2671 29.5452 55.2592 29.553 55.2497 29.5584C55.2402 29.5638 55.2295 29.5666 55.2186 29.5665L54.5824 29.5614C54.5712 29.5612 54.5602 29.558 54.5507 29.5521C54.5411 29.5462 54.5334 29.5378 54.5282 29.5278L54.2508 28.9898C54.2457 28.9798 54.2379 28.9714 54.2284 28.9655C54.2188 28.9596 54.2079 28.9564 54.1966 28.9562ZM52.7863 28.3549C52.7821 28.3631 52.7801 28.3723 52.7805 28.3815C52.7808 28.3907 52.7835 28.3997 52.7883 28.4075C52.7931 28.4154 52.7998 28.4219 52.8078 28.4265C52.8158 28.4311 52.8248 28.4335 52.834 28.4336L53.8482 28.4272C53.8575 28.427 53.8666 28.4244 53.8746 28.4197C53.8826 28.4149 53.8892 28.4082 53.8939 28.4002C53.8986 28.3922 53.9011 28.3831 53.9012 28.3738C53.9014 28.3645 53.8991 28.3553 53.8947 28.3472L53.3824 27.3923C53.3778 27.3834 53.3708 27.376 53.3622 27.3709C53.3536 27.3657 53.3437 27.3631 53.3336 27.3632C53.3236 27.3633 53.3138 27.3662 53.3053 27.3716C53.2969 27.377 53.2901 27.3846 53.2857 27.3936L52.7863 28.3549Z" fill="#545557"/>
<path d="M83.6154 29.0246L85.7114 29.0181C85.7344 29.0181 85.7554 29.0271 85.7714 29.0431C85.7874 29.0591 85.7964 29.0807 85.7964 29.1033L85.7974 29.4775C85.7974 29.5001 85.7884 29.5217 85.7724 29.5377C85.7574 29.5537 85.7354 29.5627 85.7124 29.5627L82.9014 29.5665C82.8784 29.5665 82.8564 29.5576 82.8404 29.5416C82.8244 29.5256 82.8154 29.504 82.8154 29.4814L82.8324 26.8156C82.8334 26.7934 82.8424 26.7723 82.8574 26.7566C82.8734 26.741 82.8944 26.732 82.9164 26.7317L85.6764 26.7227C85.6994 26.7227 85.7204 26.7316 85.7364 26.7476C85.7524 26.7636 85.7614 26.7852 85.7614 26.8078L85.7604 27.1459C85.7604 27.1682 85.7514 27.1896 85.7354 27.2053C85.7194 27.221 85.6974 27.2298 85.6754 27.2298L83.6174 27.2117C83.6054 27.2115 83.5944 27.2136 83.5844 27.2178C83.5734 27.222 83.5644 27.2282 83.5564 27.2362C83.5484 27.2441 83.5414 27.2535 83.5374 27.264C83.5334 27.2744 83.5304 27.2856 83.5304 27.2968L83.5344 27.7665C83.5344 27.7891 83.5434 27.8108 83.5594 27.8267C83.5754 27.8427 83.5974 27.8517 83.6194 27.8517L84.7344 27.8491C84.7574 27.8491 84.7784 27.8579 84.7944 27.8736C84.8104 27.8893 84.8194 27.9106 84.8194 27.933L84.8254 28.2659C84.8254 28.2772 84.8234 28.2884 84.8184 28.2989C84.8144 28.3093 84.8084 28.3189 84.8004 28.3269C84.7924 28.335 84.7834 28.3414 84.7724 28.3457C84.7624 28.3501 84.7514 28.3523 84.7394 28.3523L83.6254 28.3498C83.6024 28.3498 83.5814 28.3585 83.5654 28.3742C83.5494 28.3899 83.5404 28.4113 83.5394 28.4336L83.5304 28.9381C83.5304 28.9494 83.5324 28.9606 83.5364 28.9711C83.5414 28.9816 83.5474 28.9911 83.5554 28.9992C83.5634 29.0072 83.5724 29.0136 83.5834 29.018C83.5934 29.0223 83.6044 29.0246 83.6154 29.0246Z" fill="#545557"/>
<path d="M14.355 27.2296L12.7098 27.2335C12.6496 27.2335 12.6199 27.2632 12.6208 27.3225L12.6285 27.7535C12.6294 27.8085 12.6573 27.8356 12.7124 27.8348C13.312 27.8262 13.9124 27.8313 14.5137 27.8502C14.6909 27.8554 14.8461 27.9036 14.9795 27.9948C15.0156 28.0197 15.0375 28.0537 15.0453 28.0967C15.0943 28.3883 15.1077 28.7199 15.0853 29.0915C15.0681 29.3797 14.9201 29.5294 14.6414 29.5406C13.9352 29.5681 13.2246 29.5737 12.5098 29.5573C12.3627 29.5539 12.2203 29.5212 12.0827 29.4593C12.0354 29.4386 12.0023 29.4042 11.9833 29.3561C11.9197 29.2012 11.8965 29.0468 11.9137 28.8928C11.9214 28.8214 11.961 28.7819 12.0324 28.7741L12.4156 28.7277C12.4879 28.7191 12.5158 28.7505 12.4995 28.8219C12.4892 28.8692 12.4922 28.9139 12.5085 28.9561C12.5223 28.9948 12.5498 29.0141 12.5911 29.0141L14.4169 29.0283C14.4409 29.0283 14.4638 29.0188 14.4808 29.0019C14.4977 28.9849 14.5072 28.9619 14.5072 28.938L14.5008 28.4877C14.5008 28.4266 14.4698 28.3965 14.4079 28.3973C13.8221 28.4068 13.2178 28.4098 12.595 28.4064C12.0246 28.4038 11.9717 27.9457 11.9872 27.5044C11.9988 27.1586 12.0672 26.7561 12.4982 26.7432C13.1115 26.7242 13.7803 26.7225 14.5046 26.738C14.9072 26.7457 15.0926 26.9556 15.0608 27.3677C15.0565 27.4158 15.0307 27.4447 14.9833 27.4541L14.5601 27.5393C14.5197 27.547 14.4896 27.5328 14.4698 27.4967C14.4423 27.4485 14.4345 27.3969 14.4466 27.3419C14.4621 27.267 14.4315 27.2296 14.355 27.2296Z" fill="#545557"/>
<path d="M33.7431 29.0401L35.2915 29.0298C35.356 29.0298 35.387 28.998 35.3844 28.9343L35.3728 28.5459C35.3726 28.532 35.3754 28.5183 35.3811 28.5056C35.3868 28.493 35.3953 28.4818 35.4058 28.4729C35.4163 28.464 35.4287 28.4576 35.4419 28.4541C35.4552 28.4507 35.4691 28.4503 35.4825 28.453L35.9857 28.5485C36.0118 28.5534 36.0352 28.5677 36.0515 28.5886C36.0679 28.6094 36.0762 28.6355 36.0748 28.662C36.0489 29.0956 36.1418 29.5266 35.5406 29.5395C34.8231 29.5541 34.1363 29.5562 33.4799 29.5459C33.1393 29.5399 32.9659 29.367 32.9599 29.0272C32.9505 28.4242 32.9479 27.8328 32.9522 27.253C32.9556 26.921 33.1242 26.7502 33.458 26.7407C34.1745 26.7201 34.8649 26.7154 35.5289 26.7266C36.1057 26.7369 36.0825 27.1936 36.0657 27.6117C36.0631 27.6685 36.0343 27.7025 35.9793 27.7136L35.4554 27.8182C35.445 27.8203 35.4342 27.8201 35.4239 27.8175C35.4135 27.8149 35.4039 27.81 35.3958 27.8032C35.3876 27.7963 35.381 27.7878 35.3766 27.7781C35.3722 27.7684 35.37 27.7578 35.3702 27.7472L35.3767 27.324C35.3784 27.2663 35.35 27.2375 35.2915 27.2375L33.7096 27.2427C33.6563 27.2427 33.6296 27.2693 33.6296 27.3227L33.6373 28.9356C33.6373 29.0061 33.6726 29.041 33.7431 29.0401Z" fill="#545557"/>
<path d="M45.5945 28.88L46.2861 29.449C46.3851 29.5307 46.3704 29.5703 46.2423 29.5677C46.0599 29.5643 45.8715 29.5634 45.6771 29.5651C45.4397 29.5664 45.2913 29.3896 45.1416 29.2335C45.1313 29.223 45.1188 29.2147 45.1051 29.2094C45.0913 29.204 45.0766 29.2016 45.0618 29.2023C45.0471 29.203 45.0326 29.2069 45.0195 29.2136C45.0063 29.2203 44.9947 29.2297 44.9855 29.2413C44.8397 29.4258 44.6578 29.5458 44.4139 29.5522C43.9322 29.5651 43.4818 29.5626 43.0629 29.5445C42.4474 29.5187 42.5003 28.7987 42.6139 28.4129C42.6239 28.3788 42.6459 28.3499 42.6758 28.3316L43.3971 27.889C43.4075 27.8826 43.4163 27.8739 43.4229 27.8637C43.4295 27.8534 43.4338 27.8418 43.4354 27.8297C43.437 27.8176 43.4359 27.8054 43.4322 27.7937C43.4284 27.7821 43.4222 27.7715 43.4139 27.7626C43.1494 27.4787 43.1494 26.7767 43.6539 26.7496C44.041 26.729 44.4027 26.7238 44.739 26.7342C45.1459 26.7453 45.3102 26.9892 45.2319 27.4658C45.2294 27.4804 45.2212 27.4894 45.2074 27.4929C45.0595 27.5307 44.9098 27.5518 44.7584 27.5561C44.7352 27.557 44.724 27.5458 44.7249 27.5226C44.7386 27.3109 44.699 27.2026 44.6061 27.1974C44.3747 27.1845 44.1378 27.1776 43.8952 27.1767C43.8812 27.1767 43.8673 27.1796 43.8545 27.1852C43.8416 27.1908 43.8301 27.199 43.8206 27.2093C43.8111 27.2197 43.8039 27.2319 43.7994 27.2451C43.7949 27.2584 43.7933 27.2725 43.7945 27.2864C43.8023 27.3776 43.8474 27.455 43.93 27.5187C44.3033 27.8069 44.6707 28.1075 45.032 28.4206C45.0576 28.4429 45.0905 28.4551 45.1245 28.4549C45.1584 28.4546 45.1912 28.442 45.2165 28.4193L45.6203 28.0503C45.7064 27.9729 45.7967 27.9669 45.8913 28.0322L46.0616 28.1509C46.1855 28.237 46.1821 28.317 46.0513 28.3909C45.8758 28.4916 45.7206 28.621 45.5855 28.7793C45.5545 28.8155 45.5575 28.849 45.5945 28.88ZM44.5197 29.0219C44.5456 29.0205 44.5705 29.0115 44.5912 28.9958C44.612 28.9802 44.6275 28.9588 44.636 28.9342C44.6444 28.9097 44.6454 28.8832 44.6387 28.8581C44.632 28.8331 44.618 28.8106 44.5984 28.7935L43.9184 28.2038C43.8973 28.1856 43.8708 28.1745 43.8429 28.1725C43.815 28.1704 43.7872 28.1773 43.7636 28.1922L43.1661 28.569C43.1476 28.5804 43.1322 28.5964 43.1214 28.6153C43.1105 28.6342 43.1046 28.6556 43.1042 28.6774L43.1016 28.9484C43.1014 28.9661 43.1049 28.9838 43.1117 29.0002C43.1186 29.0166 43.1288 29.0314 43.1416 29.0437C43.1544 29.056 43.1696 29.0656 43.1862 29.0719C43.2029 29.0781 43.2206 29.0809 43.2384 29.08L44.5197 29.0219Z" fill="#545557"/>
<path d="M63.7108 27.2194L62.076 27.222C62.0157 27.222 61.9861 27.2517 61.9869 27.311L61.9947 27.7704C61.9948 27.7807 61.997 27.7909 62.0011 27.8004C62.0053 27.8099 62.0112 27.8185 62.0186 27.8257C62.0261 27.8329 62.0348 27.8385 62.0444 27.8423C62.0541 27.8461 62.0643 27.848 62.0747 27.8478C62.6794 27.8366 63.3099 27.8414 63.9663 27.862C64.2992 27.8723 64.4686 28.0354 64.4747 28.351C64.4811 28.6323 64.5172 29.0736 64.4101 29.324C64.3121 29.5562 63.8811 29.5562 63.6721 29.5588C63.0458 29.5648 62.4381 29.5648 61.8489 29.5588C61.4609 29.5554 61.2764 29.3493 61.2953 28.9407C61.2996 28.8418 61.3512 28.7859 61.4501 28.773L61.7714 28.733C61.8626 28.7209 61.8988 28.7597 61.8798 28.8491C61.8695 28.899 61.8751 28.9442 61.8966 28.9846C61.9095 29.0104 61.9306 29.0233 61.9598 29.0233C62.6015 29.019 63.2067 29.0207 63.7753 29.0285C63.7908 29.0286 63.8061 29.0257 63.8204 29.0199C63.8348 29.014 63.8478 29.0054 63.8587 28.9945C63.8697 28.9835 63.8783 28.9705 63.8841 28.9562C63.89 28.9419 63.8929 28.9265 63.8927 28.911L63.885 28.5214C63.8841 28.4397 63.8433 28.3988 63.7624 28.3988C63.199 28.3936 62.6076 28.3941 61.9882 28.4001C61.2798 28.4078 61.3818 27.7343 61.405 27.262C61.4213 26.9179 61.6003 26.7442 61.9418 26.7407C62.5809 26.7338 63.22 26.7326 63.8592 26.7369C64.2704 26.7403 64.4674 26.9472 64.4501 27.3575C64.4484 27.4074 64.4235 27.4371 64.3753 27.4465L63.956 27.5356C63.9398 27.539 63.9231 27.5388 63.9071 27.535C63.891 27.5313 63.876 27.524 63.8631 27.5138C63.8501 27.5036 63.8396 27.4906 63.8323 27.4759C63.8249 27.4611 63.8209 27.445 63.8205 27.4285L63.8179 27.324C63.8175 27.2961 63.8061 27.2695 63.7861 27.25C63.766 27.2304 63.739 27.2194 63.7108 27.2194Z" fill="#545557"/>
<path d="M66.3011 29.0219L68.3991 29.0206C68.4224 29.0206 68.4447 29.0299 68.4612 29.0463C68.4776 29.0628 68.4869 29.0851 68.4869 29.1084L68.4907 29.4748C68.4907 29.4981 68.4815 29.5204 68.465 29.5369C68.4486 29.5533 68.4263 29.5626 68.403 29.5626L65.6004 29.5664C65.5771 29.5664 65.5548 29.5572 65.5384 29.5407C65.5219 29.5243 65.5127 29.502 65.5127 29.4787L65.5217 26.8167C65.5217 26.7935 65.5309 26.7712 65.5474 26.7547C65.5639 26.7382 65.5862 26.729 65.6094 26.729L68.3772 26.7355C68.3888 26.7355 68.4003 26.7378 68.4111 26.7423C68.4218 26.7467 68.4315 26.7533 68.4397 26.7616C68.4479 26.7699 68.4543 26.7797 68.4586 26.7905C68.463 26.8013 68.4651 26.8129 68.4649 26.8245L68.4623 27.1342C68.462 27.1572 68.4526 27.1792 68.4362 27.1954C68.4198 27.2116 68.3977 27.2206 68.3746 27.2206L66.2985 27.2155C66.2868 27.2155 66.2753 27.2178 66.2646 27.2223C66.2539 27.2267 66.2441 27.2333 66.236 27.2416C66.2278 27.2499 66.2214 27.2597 66.217 27.2705C66.2127 27.2813 66.2106 27.2929 66.2107 27.3045L66.2172 27.7638C66.2175 27.7869 66.2269 27.8089 66.2433 27.8251C66.2598 27.8412 66.2819 27.8503 66.3049 27.8503L67.4249 27.858C67.4475 27.858 67.4693 27.8667 67.4856 27.8824C67.502 27.898 67.5117 27.9193 67.5127 27.9419L67.5269 28.2516C67.5274 28.2634 67.5255 28.2753 67.5213 28.2864C67.5172 28.2974 67.5108 28.3076 67.5026 28.3161C67.4944 28.3247 67.4845 28.3315 67.4736 28.3362C67.4627 28.3408 67.451 28.3432 67.4391 28.3432L66.3088 28.3509C66.2858 28.3509 66.2636 28.36 66.2472 28.3762C66.2308 28.3924 66.2214 28.4143 66.2211 28.4374L66.2133 28.9329C66.2131 28.9445 66.2153 28.9561 66.2196 28.9669C66.2239 28.9776 66.2304 28.9875 66.2385 28.9958C66.2467 29.004 66.2564 29.0106 66.2672 29.0151C66.2779 29.0196 66.2894 29.0219 66.3011 29.0219Z" fill="#545557"/>
<path d="M71.6153 28.6412L72.6475 29.458C72.7361 29.5277 72.7241 29.5625 72.6114 29.5625H71.9559C71.8432 29.5625 71.746 29.5242 71.6643 29.4477L70.7043 28.5458C70.6708 28.5139 70.6308 28.4984 70.5843 28.4993L70.1262 28.5019C70.0712 28.5019 70.0437 28.5294 70.0437 28.5845L70.0475 29.4838C70.0484 29.538 70.0213 29.5651 69.9662 29.5651H69.4862C69.414 29.5651 69.3779 29.529 69.3779 29.4567L69.3882 26.8064C69.3882 26.7617 69.4105 26.7393 69.4553 26.7393C70.2308 26.7303 71.0359 26.7509 71.8475 26.729C72.2501 26.7178 72.451 26.9088 72.4501 27.3019C72.4475 27.8903 72.6514 28.5948 71.6746 28.4954C71.4871 28.4765 71.4673 28.5251 71.6153 28.6412ZM71.7994 27.3475C71.7995 27.3313 71.7963 27.3151 71.7902 27.3001C71.784 27.285 71.7749 27.2714 71.7635 27.2598C71.752 27.2483 71.7384 27.2391 71.7234 27.2328C71.7084 27.2265 71.6923 27.2233 71.676 27.2232L70.1663 27.218C70.1335 27.2178 70.1019 27.2308 70.0786 27.2539C70.0553 27.2771 70.0421 27.3085 70.042 27.3414L70.0401 27.8833C70.0401 27.8996 70.0432 27.9157 70.0494 27.9308C70.0556 27.9458 70.0646 27.9595 70.0761 27.9711C70.0876 27.9826 70.1012 27.9918 70.1162 27.998C70.1312 28.0043 70.1473 28.0076 70.1636 28.0076L71.6732 28.0129C71.7061 28.013 71.7376 28.0001 71.761 27.9769C71.7843 27.9538 71.7974 27.9223 71.7975 27.8895L71.7994 27.3475Z" fill="#545557"/>
<path d="M81.01 27.2388L79.4439 27.2504C79.4179 27.2504 79.3929 27.2609 79.3745 27.2795C79.3561 27.2981 79.3458 27.3234 79.3458 27.3497L79.3548 28.9381C79.3548 28.9509 79.3574 28.9636 79.3623 28.9755C79.3673 28.9873 79.3745 28.998 79.3836 29.007C79.3928 29.016 79.4036 29.0231 79.4155 29.0279C79.4274 29.0327 79.4401 29.0351 79.4529 29.0349L81.027 29.0297C81.086 29.0289 81.114 28.9992 81.114 28.9407L81.108 28.5523C81.108 28.4723 81.146 28.4401 81.225 28.4555L81.706 28.5459C81.784 28.5605 81.822 28.6078 81.821 28.6878C81.8 29.4581 81.657 29.5536 80.908 29.5497C80.372 29.5472 79.8224 29.5497 79.2607 29.5575C78.6516 29.5665 78.6968 29.1601 78.6865 28.6594C78.6753 28.1725 78.6748 27.6964 78.6852 27.231C78.6912 26.9136 78.8529 26.7497 79.1703 26.7394C79.8774 26.7179 80.58 26.7145 81.279 26.7291C81.805 26.7394 81.803 27.1872 81.817 27.5704C81.819 27.6504 81.782 27.6981 81.705 27.7136L81.257 27.8039C81.154 27.8246 81.103 27.7824 81.103 27.6775L81.105 27.333C81.105 27.2702 81.074 27.2388 81.01 27.2388Z" fill="#545557"/>
<path d="M87.4253 27.2232C87.3393 27.2223 87.2963 27.2649 87.2973 27.3509L87.3023 27.7432C87.3033 27.812 87.3383 27.846 87.4063 27.8451C87.9923 27.8374 88.5883 27.8395 89.1943 27.8516C89.4043 27.855 89.5693 27.9161 89.6883 28.0348C89.7233 28.0709 89.7433 28.114 89.7473 28.1638C89.7723 28.4615 89.7773 28.769 89.7613 29.0864C89.7473 29.3892 89.5773 29.5432 89.2523 29.5484C88.5683 29.5613 87.8853 29.5651 87.2033 29.56C86.7793 29.5574 86.5713 29.3458 86.5773 28.9251C86.5773 28.8916 86.5893 28.8592 86.6113 28.8339C86.6333 28.8086 86.6643 28.792 86.6973 28.7871L87.0923 28.7251C87.1063 28.7228 87.1213 28.7242 87.1353 28.7293C87.1483 28.7345 87.1603 28.7431 87.1703 28.7543C87.1793 28.7656 87.1863 28.7792 87.1893 28.7937C87.1913 28.8083 87.1903 28.8233 87.1863 28.8374C87.1743 28.8718 87.1733 28.9062 87.1833 28.9406C87.1893 28.9628 87.2023 28.9824 87.2203 28.9964C87.2393 29.0104 87.2613 29.018 87.2843 29.018L89.1013 29.0284C89.1663 29.0292 89.1983 28.997 89.1963 28.9316L89.1793 28.4877C89.1783 28.4318 89.1493 28.4034 89.0933 28.4026C88.5713 28.3905 88.0093 28.3931 87.4093 28.4103C87.2743 28.4146 87.1483 28.3983 87.0323 28.3613C86.6303 28.2348 86.7033 27.4813 86.7473 27.1574C86.7843 26.8838 86.9393 26.7445 87.2133 26.7393C87.9293 26.7247 88.5973 26.7243 89.2143 26.738C89.5813 26.7458 89.7573 26.9475 89.7433 27.3432C89.7423 27.4051 89.7103 27.4426 89.6493 27.4555L89.2503 27.5419C89.1853 27.5565 89.1493 27.5303 89.1433 27.4632L89.1303 27.3226C89.1253 27.2632 89.0923 27.2335 89.0323 27.2335L87.4253 27.2232Z" fill="#545557"/>
</g>
</svg>
