<svg width="140" height="48" viewBox="0 0 140 48" fill="none" xmlns="http://www.w3.org/2000/svg">
<g clip-path="url(#clip0_623_1240)">
<path d="M58.5819 15.2181C58.5862 14.6418 58.4116 14.1661 58.058 13.791C60.8357 13.4048 63.2894 13.1003 65.4193 12.8775C69.4666 12.4534 73.7355 12.1274 78.2258 11.8994C83.972 11.6078 89.6288 11.5889 95.1961 11.8426C96.058 11.8814 96.9187 11.9351 97.778 12.0039C102.732 12.4014 107.384 12.991 111.994 14.2297C114.019 14.7743 116.061 15.4749 117.982 16.4659C118.135 16.545 118.281 16.6392 118.419 16.7484C118.432 16.7588 118.434 16.7712 118.424 16.7859L118.406 16.813C118.4 16.8233 118.391 16.8254 118.379 16.8194C118.08 16.6663 117.782 16.5398 117.486 16.4401C114.391 15.3949 111.286 14.7059 107.904 14.1846C104.868 13.7175 101.815 13.3854 98.7471 13.1884C94.3187 12.9037 89.9858 12.81 85.7484 12.9072C76.7664 13.111 67.5845 13.9175 58.5819 15.2181Z" fill="#F4EE1F"/>
<path d="M58.0581 13.791C58.4116 14.1661 58.5862 14.6418 58.5819 15.2181C58.5406 16.0586 58.2095 16.828 57.5884 17.5265C56.8477 18.3601 55.8219 18.9446 54.7368 18.6904C53.5355 18.4078 53.4374 16.9497 53.7819 15.9794C53.9875 15.4022 54.3617 14.8422 54.9045 14.2994C55.3871 13.8547 55.9677 13.5747 56.6465 13.4594C57.1824 13.3691 57.6529 13.4796 58.0581 13.791Z" fill="#202356"/>
<path d="M42.8439 16.7754C42.8697 17.2691 42.8043 17.7732 42.6477 18.2876C42.0361 20.2954 40.5148 21.827 38.6684 22.7599C37.2929 23.4541 35.7359 23.7969 33.9974 23.7883C33.981 23.7881 33.9648 23.7838 33.9504 23.7759C33.9359 23.768 33.9236 23.7567 33.9146 23.7429C33.9056 23.7292 33.9 23.7134 33.8985 23.697C33.897 23.6806 33.8995 23.6641 33.9058 23.6489C33.9729 23.4889 34.1174 23.3728 34.2813 23.3251C34.5058 23.2588 34.7157 23.1625 34.911 23.036C36.0632 22.2928 37.1535 21.0089 37.4968 19.6231C37.6559 19.2076 37.7372 18.7427 37.7406 18.2283C37.6546 17.2494 37.1037 16.6997 36.0877 16.5792C36.0344 16.5732 35.9991 16.5956 35.9819 16.6463L35.1755 19.0334L34.7032 20.4515C33.7725 23.2274 32.8314 26.0369 31.88 28.8799C31.6606 29.5392 31.7548 30.4696 32.2813 30.9586C32.3751 31.0455 32.3578 31.0889 32.2297 31.0889L25.7432 31.0799C25.6056 31.0799 25.5888 31.0352 25.6929 30.9457C26.0963 30.5973 26.4357 30.1831 26.711 29.7031C27.1127 29.0012 27.4413 28.2653 27.6968 27.4954C28.2611 25.799 28.8361 24.042 29.4219 22.2244L29.8039 21.0889C30.3355 19.482 30.8705 17.858 31.409 16.2167C31.5858 15.676 31.6852 14.9263 31.4142 14.436C31.3652 14.3466 31.3148 14.2575 31.2632 14.1689C31.2245 14.101 31.2443 14.067 31.3226 14.067C33.6873 14.0816 35.9617 14.0803 38.1458 14.0631C39.5523 14.0528 40.8026 14.2528 41.8555 15.0128C42.4009 15.4059 42.7303 15.9934 42.8439 16.7754Z" fill="#202356"/>
<path d="M54.9045 14.2993C54.3617 14.8421 53.9875 15.4021 53.782 15.9793C53.3338 16.0748 52.6082 16.2068 51.6052 16.3754C49.3471 16.7565 46.3613 17.3939 42.6478 18.2877C42.8043 17.7733 42.8697 17.2692 42.8439 16.7754C46.8181 15.769 50.8383 14.9436 54.9045 14.2993Z" fill="#F4EE1F"/>
<path d="M37.7407 18.2283C37.7372 18.7427 37.6559 19.2076 37.4968 19.6231L34.7032 20.4515L35.1755 19.0334L37.7407 18.2283Z" fill="#F4EE1F"/>
<path d="M81.0529 25.0955C80.6438 26.5536 80.8658 28.2723 82.5174 28.7278C82.9785 28.8551 83.4791 28.8934 84.0193 28.8426C85.3329 28.7187 86.5974 28.3304 87.8129 27.6774C88.0959 27.526 88.1505 27.585 87.9768 27.8542L86.2735 30.4942C86.2537 30.526 86.2266 30.5501 86.1922 30.5665C85.9359 30.6869 85.7363 30.7622 85.5935 30.7923C84.1845 31.0873 82.8705 31.2706 81.6516 31.342C80.3316 31.4181 78.7664 31.1549 77.7238 30.351C76.9075 29.7222 76.4507 28.8542 76.3535 27.7471C76.2124 26.1282 76.6413 24.5828 77.64 23.111C79.1436 20.8959 81.1914 19.4461 83.7832 18.7613C84.1643 18.6607 84.7195 18.6104 85.449 18.6104C86.6129 18.6104 87.9742 19.0052 88.7097 19.8994C89.8503 21.2852 89.5419 23.3265 88.9045 24.9445C88.8968 24.9636 88.8836 24.9799 88.8666 24.9914C88.8496 25.0029 88.8295 25.009 88.809 25.0091L81.1626 25.0129C81.1378 25.0128 81.1136 25.0209 81.0938 25.0358C81.074 25.0507 81.0596 25.0717 81.0529 25.0955ZM81.8426 22.7742C81.8389 22.78 81.8368 22.7867 81.8366 22.7936C81.8364 22.8005 81.838 22.8073 81.8413 22.8134C81.8446 22.8194 81.8494 22.8245 81.8553 22.828C81.8612 22.8316 81.8679 22.8335 81.8748 22.8336L85.2245 22.8323C85.2735 22.8323 85.3049 22.8095 85.3187 22.7639C85.403 22.4835 85.4309 22.1755 85.4026 21.84C85.3122 20.7523 84.0516 20.9149 83.3858 21.2762C82.7595 21.6151 82.2451 22.1144 81.8426 22.7742Z" fill="#202356"/>
<path d="M103.729 25.5614C103.732 25.5548 103.732 25.5477 103.731 25.5407C103.73 25.5337 103.727 25.5272 103.722 25.5219C103.717 25.5166 103.711 25.5127 103.705 25.5105C103.698 25.5084 103.691 25.5081 103.684 25.5098C103.159 25.6483 102.623 25.8491 102.076 26.1124C101.645 26.3197 101.338 26.5743 101.154 26.8762C100.898 27.2969 100.555 28.1614 100.894 28.6208C101.201 29.0362 101.755 29.0349 102.234 29.0066C102.243 29.0061 102.253 29.0085 102.262 29.0135C102.27 29.0185 102.277 29.0259 102.282 29.0348C102.286 29.0436 102.288 29.0536 102.287 29.0634C102.286 29.0733 102.282 29.0827 102.276 29.0904C101.698 29.801 101.139 30.5124 100.599 31.2246C100.485 31.3743 100.36 31.3653 100.192 31.373C99.3062 31.416 98.5114 31.3485 97.8078 31.1704C96.1923 30.7614 95.1652 29.4801 95.7807 27.8066C96.332 26.3055 97.243 25.2698 98.5136 24.6995C99.0529 24.4577 99.763 24.2418 100.644 24.0517C101.604 23.8453 102.63 23.5494 103.723 23.164C104.145 23.0143 104.76 22.7175 104.907 22.2543C104.921 22.213 104.92 22.1717 104.906 22.1304C104.727 21.6401 104.367 21.3605 103.827 21.2917C102.508 21.1253 101.387 21.5704 100.151 21.9795C100.059 22.0104 100.041 21.9868 100.098 21.9085L102.052 19.2079C102.088 19.1569 102.142 19.12 102.203 19.1033C103.29 18.81 104.405 18.6552 105.548 18.6388C106.719 18.622 107.996 18.8401 108.805 19.7162C109.677 20.6595 109.426 22.2595 109.031 23.3988C108.588 24.6754 108.212 25.8474 107.905 26.9149C107.563 28.102 107.854 28.8414 109.185 28.8982C109.203 28.8988 109.221 28.9046 109.237 28.915C109.253 28.9254 109.265 28.9399 109.273 28.957C109.28 28.974 109.283 28.9928 109.281 29.0114C109.279 29.03 109.271 29.0475 109.259 29.062L107.425 31.3111C107.414 31.3237 107.401 31.3339 107.386 31.3413C107.372 31.3486 107.356 31.3528 107.339 31.3537C105.627 31.4324 103.69 31.382 103.074 29.5872C102.92 29.1382 102.932 28.4973 103.112 27.6646C103.279 26.8922 103.485 26.1911 103.729 25.5614Z" fill="#202356"/>
<path d="M47.769 20.2065C48.7402 19.0014 50.0344 18.5446 51.6516 18.8362C51.7574 18.8551 51.7927 18.9149 51.7574 19.0156C51.4563 19.8861 51.1565 20.7648 50.858 21.6517C50.8125 21.7859 50.754 21.9123 50.6826 22.031C50.6585 22.0706 50.6245 22.0826 50.5806 22.0672C49.1191 21.5545 47.9174 21.9373 46.9755 23.2156C46.6925 23.5983 46.4675 24.0444 46.3006 24.5536C45.7888 26.1218 45.2877 27.6809 44.7974 29.231C44.597 29.8667 44.6383 30.4452 44.9213 30.9665C44.9283 30.9787 44.9319 30.9924 44.9318 31.0065C44.9317 31.0205 44.9278 31.0342 44.9206 31.0464C44.9134 31.0585 44.9032 31.0686 44.8908 31.0757C44.8785 31.0827 44.8645 31.0865 44.8503 31.0865L38.8013 31.0852C38.5243 31.0852 38.5075 31.0194 38.751 30.8878C39.0942 30.702 39.4606 30.5317 39.7329 30.2452C40.0305 29.9321 40.2473 29.5665 40.3832 29.1485C41.4034 26.0026 42.3449 23.0517 43.2077 20.2956C43.3359 19.887 43.2447 19.5515 42.9342 19.2891C42.925 19.2811 42.9182 19.2707 42.9147 19.259C42.9112 19.2474 42.911 19.2349 42.9143 19.2232C42.9175 19.2115 42.924 19.2009 42.933 19.1927C42.942 19.1845 42.9531 19.179 42.9651 19.1768C43.0537 19.1614 43.1432 19.154 43.2335 19.1549C44.6391 19.1669 45.8864 19.1631 46.9755 19.1433C47.3815 19.1356 47.7423 19.0328 48.058 18.8349C48.2008 18.7454 48.2404 18.7786 48.1768 18.9343C48.0185 19.3222 47.8692 19.739 47.729 20.1846C47.7041 20.2637 47.7174 20.271 47.769 20.2065Z" fill="#202356"/>
<path d="M63.6774 20.0607C63.6534 20.1347 63.6727 20.1488 63.7355 20.1033C65.342 18.9187 67.8594 17.9884 69.3729 19.9574C69.4465 20.0542 69.4968 20.16 69.5626 20.262C69.5884 20.3033 69.6202 20.308 69.6581 20.2762C71.1032 19.062 73.4039 18.4645 75.2284 19.0168C76.5123 19.4052 77.1458 20.8052 77.0542 22.0336C77.0035 22.7114 76.8301 23.4245 76.5342 24.1729C75.9596 25.6233 75.465 27.0366 75.0503 28.4129C74.8284 29.1549 74.6671 30.2491 75.0839 30.9316C75.0935 30.9473 75.0988 30.9652 75.0992 30.9836C75.0996 31.0019 75.0951 31.02 75.0862 31.0361C75.0773 31.0521 75.0642 31.0655 75.0484 31.0748C75.0325 31.0841 75.0145 31.089 74.9961 31.0891L69.0349 31.0826C68.8267 31.0826 68.8052 31.019 68.9703 30.8916C69.5957 30.4125 70.0482 29.7643 70.3278 28.9471C70.9944 26.997 71.6847 24.8998 72.3987 22.6555C72.6168 21.9716 72.2323 21.3884 71.48 21.5213C70.926 21.6185 70.4744 21.9076 70.1252 22.3884C69.7914 22.8486 69.5428 23.3291 69.3794 23.8297C68.8667 25.3979 68.2581 27.311 67.5536 29.5691C67.4039 30.0491 67.5123 30.6039 67.8568 30.9716C67.8656 30.9812 67.8716 30.9932 67.8738 31.0061C67.8761 31.019 67.8746 31.0322 67.8695 31.0442C67.8644 31.0561 67.856 31.0662 67.8453 31.0733C67.8345 31.0803 67.8219 31.084 67.8091 31.0839L61.9445 31.0813C61.7691 31.0813 61.7458 31.0215 61.8749 30.902C62.6684 30.1716 63.1381 29.4181 63.4774 28.3471C64.1088 26.3574 64.7054 24.5213 65.2671 22.8387C65.4155 22.3962 65.4065 21.8413 64.8839 21.6491C63.6684 21.2013 62.8916 22.4194 62.5716 23.3703C61.8878 25.3996 61.2512 27.3673 60.662 29.2736C60.4779 29.8697 60.5183 30.4263 60.7832 30.9433C60.7911 30.9581 60.7949 30.9747 60.7944 30.9914C60.7939 31.0081 60.789 31.0245 60.7803 31.0388C60.7716 31.0531 60.7593 31.0649 60.7447 31.073C60.73 31.0811 60.7135 31.0853 60.6968 31.0852H54.4594C54.4483 31.0852 54.4374 31.0824 54.4278 31.0773C54.4181 31.0721 54.4099 31.0646 54.4039 31.0555C54.3746 31.0142 54.3794 30.9824 54.4181 30.96C54.7785 30.751 55.0981 30.5527 55.3768 30.3652C56.0594 29.9045 56.2452 29.1562 56.4813 28.4245C57.3536 25.7291 58.2374 23.0671 59.0426 20.3613C59.1987 19.8374 59.0736 19.6503 58.7923 19.2284C58.7874 19.221 58.7846 19.2124 58.7842 19.2035C58.7838 19.1946 58.7858 19.1858 58.79 19.1779C58.7943 19.1701 58.8006 19.1636 58.8082 19.1591C58.8159 19.1546 58.8247 19.1522 58.8336 19.1523C60.0809 19.1669 61.2379 19.1643 62.3045 19.1445C62.9136 19.1334 63.4744 18.9962 63.9871 18.7329C63.9996 18.7263 64.0139 18.7235 64.028 18.725C64.0421 18.7265 64.0555 18.7322 64.0663 18.7414C64.0771 18.7506 64.085 18.7628 64.0888 18.7765C64.0926 18.7901 64.0923 18.8046 64.0878 18.8181L63.6774 20.0607Z" fill="#202356"/>
<path d="M96.1071 20.1755C96.2955 19.9768 96.4555 19.7329 96.671 19.5677C97.6198 18.84 98.7239 18.5978 99.9832 18.8413C100 18.8444 100.016 18.8512 100.031 18.8611C100.045 18.8711 100.057 18.884 100.065 18.8989C100.074 18.9139 100.079 18.9306 100.081 18.9478C100.083 18.965 100.081 18.9824 100.075 18.9987L99.031 22.0103C99.0264 22.0235 99.0192 22.0356 99.0098 22.046C99.0005 22.0563 98.9892 22.0648 98.9767 22.0708C98.9641 22.0767 98.9504 22.0802 98.9365 22.0809C98.9226 22.0816 98.9086 22.0795 98.8955 22.0748C96.6684 21.2723 95.1755 22.7587 94.5471 24.7097C94.1187 26.0404 93.6976 27.3467 93.2839 28.6284C93.0374 29.391 92.7949 30.1729 93.2284 30.9303C93.2376 30.9466 93.2425 30.965 93.2424 30.9837C93.2423 31.0024 93.2373 31.0208 93.2279 31.037C93.2185 31.0532 93.205 31.0666 93.1888 31.076C93.1726 31.0853 93.1542 31.0903 93.1355 31.0903L86.9381 31.0852C86.9105 31.0852 86.8912 31.0727 86.88 31.0477C86.8628 31.009 86.8736 30.9802 86.9123 30.9613C87.8 30.52 88.3574 30.1277 88.68 29.1394C89.5256 26.5475 90.3553 23.9639 91.169 21.3884C91.2766 21.0495 91.3794 20.7028 91.4774 20.3484C91.5923 19.9381 91.56 19.6168 91.2645 19.3071C91.2528 19.2944 91.2449 19.2786 91.242 19.2616C91.239 19.2446 91.2411 19.2271 91.2479 19.2112C91.2548 19.1953 91.2661 19.1818 91.2805 19.1723C91.2949 19.1627 91.3118 19.1575 91.329 19.1574C92.5893 19.1609 93.8125 19.1656 94.9987 19.1716C95.489 19.1751 95.9604 19.0546 96.4129 18.8103C96.5067 18.7596 96.5351 18.7841 96.4981 18.8839L96.0297 20.1265C95.9755 20.271 96.0013 20.2873 96.1071 20.1755Z" fill="#202356"/>
<path d="M52.2258 19.1626C53.4826 19.1548 54.7277 19.1544 55.9613 19.1613C56.4826 19.1639 56.9578 19.0477 57.3871 18.8129C57.4929 18.7544 57.5256 18.7823 57.4851 18.8968C57.4378 19.031 57.3901 19.1682 57.3419 19.3084C56.3776 22.1333 55.3948 25.1071 54.3935 28.2297C54.2396 28.7088 54.1079 29.1548 53.9987 29.5677C53.8679 30.0606 53.938 30.5157 54.209 30.9329C54.2191 30.9481 54.2248 30.9659 54.2256 30.9841C54.2264 31.0024 54.2222 31.0205 54.2134 31.0366C54.2047 31.0526 54.1917 31.066 54.1759 31.0752C54.1601 31.0845 54.1421 31.0892 54.1239 31.089C52.1763 31.0839 50.1436 31.0843 48.0258 31.0903C47.9682 31.0903 47.9153 31.0778 47.8671 31.0529C47.8561 31.0473 47.8469 31.0388 47.8405 31.0283C47.834 31.0178 47.8305 31.0057 47.8304 30.9933C47.8303 30.9809 47.8335 30.9686 47.8397 30.9577C47.8459 30.9469 47.8549 30.9378 47.8658 30.9316C48.4555 30.5974 49.0542 30.289 49.3987 29.6929C49.532 29.4606 49.6546 29.1725 49.7664 28.8284C50.6353 26.1411 51.48 23.4972 52.3006 20.8968C52.52 20.2 52.6916 19.7574 52.1935 19.24C52.1871 19.2337 52.1827 19.2256 52.1809 19.2167C52.1791 19.2079 52.18 19.1987 52.1834 19.1904C52.1869 19.182 52.1928 19.1749 52.2004 19.17C52.2079 19.165 52.2168 19.1624 52.2258 19.1626Z" fill="#202356"/>
<path d="M29.8039 21.0891L29.4219 22.2246C27.274 23.0022 25.1957 23.8603 23.1871 24.7988C22.6521 25.0491 22.1265 25.3153 21.6103 25.5975C21.6026 25.6009 21.597 25.5992 21.5936 25.5923L21.5742 25.5627C21.5587 25.5369 21.5634 25.5153 21.5884 25.4981C22.4658 24.8788 23.0284 24.493 23.2761 24.3407C25.1979 23.1614 27.3738 22.0775 29.8039 21.0891Z" fill="#F4EE1F"/>
<path d="M30.2645 36.5562L30.2542 34.8168C30.2533 34.754 30.2847 34.7226 30.3484 34.7226H30.7742C30.8043 34.7226 30.8332 34.7347 30.8545 34.7562C30.8758 34.7778 30.8877 34.807 30.8877 34.8374L30.8813 37.4826C30.8813 37.5428 30.8507 37.5725 30.7897 37.5716C30.618 37.5691 30.4516 37.6013 30.3058 37.4813C29.5497 36.8611 28.8456 36.2693 28.1935 35.7058C28.1514 35.6697 28.1307 35.6792 28.1316 35.7342L28.1419 37.4787C28.1419 37.503 28.1323 37.5263 28.1151 37.5435C28.0979 37.5607 28.0746 37.5703 28.0503 37.5703H27.6039C27.5781 37.57 27.5535 37.5597 27.5354 37.5416C27.5172 37.5234 27.5071 37.499 27.5071 37.4736L27.5135 34.782C27.5135 34.7647 27.5204 34.7482 27.5327 34.7359C27.545 34.7236 27.5618 34.7165 27.5793 34.7162C27.8413 34.7097 27.9587 34.6994 28.178 34.88C28.8645 35.4469 29.5385 36.0155 30.2 36.5858C30.243 36.6228 30.2645 36.6129 30.2645 36.5562Z" fill="#545557"/>
<path d="M77.3007 35.6309L78.0826 34.7276C78.089 34.7203 78.097 34.7144 78.1059 34.7104C78.1148 34.7064 78.1245 34.7044 78.1342 34.7044L78.7652 34.6941C78.7785 34.6941 78.7915 34.6979 78.8027 34.7052C78.8138 34.7125 78.8226 34.7228 78.828 34.735C78.8333 34.7472 78.835 34.7607 78.8328 34.7738C78.8305 34.787 78.8245 34.7992 78.8155 34.8089L77.6994 35.9922C77.6873 36.0053 77.6807 36.0226 77.6812 36.0404C77.6817 36.0583 77.6892 36.0752 77.702 36.0876L79.0736 37.4541C79.083 37.4637 79.0893 37.4759 79.0918 37.4891C79.0943 37.5024 79.0928 37.516 79.0876 37.5284C79.0824 37.5408 79.0736 37.5514 79.0624 37.5588C79.0512 37.5663 79.038 37.5702 79.0245 37.5702L78.271 37.5612C78.253 37.5609 78.2358 37.5534 78.2232 37.5405L77.2749 36.5405C77.2684 36.5337 77.2605 36.5282 77.2518 36.5245C77.2431 36.5208 77.2337 36.519 77.2243 36.5191C77.2148 36.5192 77.2055 36.5213 77.1968 36.5252C77.1882 36.5291 77.1805 36.5348 77.1742 36.5418L76.3174 37.5354C76.3111 37.5425 76.3034 37.5483 76.2947 37.5523C76.2861 37.5563 76.2767 37.5585 76.2671 37.5586L75.6129 37.5728C75.5992 37.5733 75.5857 37.5698 75.5741 37.5625C75.5625 37.5553 75.5533 37.5448 75.5477 37.5322C75.5422 37.5197 75.5405 37.5058 75.5429 37.4924C75.5453 37.4789 75.5517 37.4665 75.5613 37.4567L76.7716 36.1676C76.7835 36.1548 76.79 36.1378 76.7898 36.1203C76.7896 36.1028 76.7826 36.086 76.7703 36.0734L75.5394 34.8167C75.5298 34.8069 75.5234 34.7944 75.521 34.781C75.5186 34.7675 75.5202 34.7536 75.5258 34.7411C75.5314 34.7286 75.5405 34.718 75.5522 34.7108C75.5638 34.7036 75.5773 34.7 75.591 34.7005L76.3278 34.7315C76.3368 34.7318 76.3456 34.7339 76.3538 34.7377C76.362 34.7415 76.3694 34.7468 76.3755 34.7534L77.1987 35.6322C77.2052 35.6392 77.2132 35.6449 77.222 35.6487C77.2308 35.6525 77.2404 35.6544 77.25 35.6543C77.2596 35.6542 77.2691 35.652 77.2778 35.648C77.2866 35.644 77.2943 35.6381 77.3007 35.6309Z" fill="#545557"/>
<path d="M94.671 36.6878C94.702 36.7428 94.7316 36.7424 94.76 36.6865L95.6929 34.9007C95.7592 34.7725 95.8645 34.7093 96.0091 34.711L96.2955 34.7136C96.4323 34.7153 96.4676 34.7755 96.4013 34.8942L95.022 37.3794C94.9875 37.4414 94.9373 37.4932 94.8763 37.5295C94.8153 37.5658 94.7458 37.5852 94.6748 37.5859C94.6039 37.5866 94.534 37.5684 94.4723 37.5332C94.4107 37.4981 94.3595 37.4472 94.3239 37.3858L92.8529 34.8413C92.8446 34.8269 92.8403 34.8106 92.8405 34.794C92.8406 34.7774 92.8452 34.7611 92.8538 34.7469C92.8623 34.7327 92.8745 34.721 92.8891 34.7131C92.9038 34.7052 92.9202 34.7014 92.9368 34.702L93.431 34.72C93.5368 34.7243 93.6151 34.7729 93.6658 34.8658L94.671 36.6878Z" fill="#545557"/>
<path d="M97.5239 34.7097H97.0129C96.9566 34.7097 96.9109 34.7554 96.9109 34.8117V37.4697C96.9109 37.526 96.9566 37.5717 97.0129 37.5717H97.5239C97.5802 37.5717 97.6258 37.526 97.6258 37.4697V34.8117C97.6258 34.7554 97.5802 34.7097 97.5239 34.7097Z" fill="#545557"/>
<path d="M26.298 34.719L25.8206 34.7182C25.7629 34.7181 25.716 34.7648 25.7159 34.8225L25.7113 37.4677C25.7112 37.5254 25.7579 37.5723 25.8156 37.5724L26.293 37.5732C26.3507 37.5733 26.3976 37.5266 26.3977 37.4689L26.4023 34.8237C26.4024 34.766 26.3557 34.7191 26.298 34.719Z" fill="#545557"/>
<path d="M36.911 37.0259L38.6194 37.0233C38.6355 37.0233 38.6509 37.0169 38.6623 37.0055C38.6736 36.9942 38.68 36.9787 38.68 36.9627L38.6723 34.8169C38.6723 34.7566 38.7024 34.7261 38.7626 34.7252L39.2568 34.7188C39.2686 34.7184 39.2803 34.7205 39.2914 34.7247C39.3024 34.7289 39.3124 34.7353 39.321 34.7435C39.3295 34.7516 39.3363 34.7614 39.341 34.7722C39.3457 34.7831 39.3482 34.7947 39.3484 34.8065C39.357 35.4629 39.357 36.127 39.3484 36.7988C39.3432 37.2427 39.3574 37.5485 38.7781 37.5536C38.108 37.5605 37.44 37.5631 36.7742 37.5614C36.4826 37.5614 36.1626 37.4736 36.1574 37.1381C36.1437 36.3192 36.1402 35.5467 36.1471 34.8207C36.1473 34.8077 36.1501 34.7948 36.1553 34.7828C36.1605 34.7708 36.168 34.7599 36.1775 34.7508C36.187 34.7417 36.1982 34.7346 36.2104 34.7297C36.2227 34.7249 36.2358 34.7225 36.2491 34.7227L36.7265 34.7278C36.791 34.7287 36.8232 34.7609 36.8232 34.8246V36.9381C36.8232 36.9966 36.8525 37.0259 36.911 37.0259Z" fill="#545557"/>
<path d="M42.6929 36.5059C42.6181 36.5171 42.6103 36.5459 42.6697 36.5924L43.7419 37.4388C43.8486 37.5231 43.834 37.5653 43.6981 37.5653L43.0903 37.564C42.9604 37.564 42.8482 37.5192 42.7535 37.4298L41.8245 36.5511C41.7922 36.5205 41.7488 36.5034 41.7032 36.5033L41.2232 36.5072C41.1716 36.5072 41.1467 36.5326 41.1484 36.5833L41.1677 37.4517C41.1681 37.4666 41.1655 37.4813 41.1601 37.4952C41.1547 37.509 41.1466 37.5216 41.1362 37.5323C41.1259 37.543 41.1136 37.5515 41.0999 37.5574C41.0863 37.5633 41.0716 37.5664 41.0568 37.5665L40.5884 37.5691C40.5265 37.5691 40.4955 37.5377 40.4955 37.4749L40.5045 34.7807C40.5045 34.748 40.5209 34.7317 40.5535 34.7317C41.3527 34.7343 42.1269 34.7343 42.8761 34.7317C43.249 34.7304 43.5329 34.8078 43.569 35.2078C43.6181 35.7317 43.7394 36.573 42.9084 36.4994C42.837 36.4934 42.7652 36.4956 42.6929 36.5059ZM42.9032 35.3549C42.9032 35.3183 42.8887 35.2832 42.8628 35.2573C42.8369 35.2314 42.8018 35.2169 42.7652 35.2169H41.2761C41.2395 35.2169 41.2044 35.2314 41.1785 35.2573C41.1526 35.2832 41.1381 35.3183 41.1381 35.3549V35.8711C41.1381 35.9077 41.1526 35.9428 41.1785 35.9687C41.2044 35.9946 41.2395 36.0091 41.2761 36.0091H42.7652C42.8018 36.0091 42.8369 35.9946 42.8628 35.9687C42.8887 35.9428 42.9032 35.9077 42.9032 35.8711V35.3549Z" fill="#545557"/>
<path d="M45.0439 36.9999L44.7458 37.5251C44.7394 37.5363 44.7302 37.5456 44.7191 37.5521C44.708 37.5587 44.6954 37.5622 44.6826 37.5625L44.1703 37.5677C44.1571 37.5679 44.1441 37.5645 44.1326 37.558C44.121 37.5515 44.1114 37.5421 44.1048 37.5307C44.0981 37.5193 44.0945 37.5063 44.0945 37.4931C44.0944 37.4799 44.0979 37.4669 44.1045 37.4554L45.6452 34.7625C45.6518 34.751 45.6614 34.7415 45.673 34.7349C45.6845 34.7283 45.6977 34.7249 45.711 34.7251L46.2645 34.7264C46.2776 34.7264 46.2904 34.7299 46.3018 34.7365C46.3131 34.7431 46.3225 34.7525 46.329 34.7638L47.8955 37.4593C47.9021 37.4707 47.9056 37.4837 47.9055 37.497C47.9055 37.5102 47.9019 37.5232 47.8952 37.5346C47.8885 37.546 47.879 37.5554 47.8674 37.5619C47.8559 37.5684 47.8429 37.5717 47.8297 37.5716L47.1948 37.5612C47.1808 37.5612 47.167 37.5571 47.1552 37.5496C47.1433 37.5421 47.1338 37.5313 47.1277 37.5187L46.8787 37.0012C46.8726 36.9886 46.8631 36.9778 46.8513 36.9703C46.8394 36.9628 46.8257 36.9587 46.8116 36.9587L45.1097 36.9625C45.0964 36.9623 45.0833 36.9657 45.0717 36.9723C45.0601 36.9789 45.0505 36.9884 45.0439 36.9999ZM45.4039 36.3509C45.3994 36.3592 45.3971 36.3685 45.3973 36.3778C45.3975 36.3872 45.4002 36.3964 45.405 36.4045C45.4098 36.4126 45.4166 36.4192 45.4248 36.4239C45.433 36.4285 45.4422 36.4309 45.4516 36.4309L46.4684 36.427C46.4778 36.4271 46.487 36.4246 46.4952 36.42C46.5034 36.4154 46.5102 36.4087 46.515 36.4006C46.5198 36.3926 46.5225 36.3834 46.5227 36.374C46.5228 36.3646 46.5206 36.3553 46.5161 36.347L46.0039 35.4012C45.9992 35.3926 45.9923 35.3854 45.9839 35.3804C45.9755 35.3753 45.9659 35.3727 45.9561 35.3727C45.9463 35.3727 45.9367 35.3753 45.9283 35.3804C45.9199 35.3854 45.913 35.3926 45.9084 35.4012L45.4039 36.3509Z" fill="#545557"/>
<path d="M51.2645 36.5536L51.2568 34.8155C51.2568 34.7923 51.266 34.77 51.2825 34.7535C51.299 34.737 51.3213 34.7278 51.3445 34.7278H51.7755C51.8512 34.7278 51.8891 34.7652 51.8891 34.8401L51.8865 37.4968C51.8864 37.512 51.8815 37.5266 51.8724 37.5385C51.8633 37.5504 51.8505 37.5589 51.8362 37.5626C51.6142 37.6186 51.4116 37.5708 51.2284 37.4194C50.4835 36.8018 49.8082 36.2315 49.2026 35.7084C49.1501 35.6637 49.1256 35.6758 49.1291 35.7446C49.1557 36.3201 49.16 36.8998 49.142 37.4839C49.1402 37.5424 49.1101 37.5708 49.0516 37.5691C48.9054 37.5639 48.7583 37.5635 48.6103 37.5678C48.5984 37.5681 48.5866 37.5661 48.5755 37.5618C48.5644 37.5575 48.5543 37.551 48.5457 37.5427C48.5372 37.5344 48.5304 37.5244 48.5258 37.5135C48.5211 37.5025 48.5187 37.4907 48.5187 37.4788L48.52 34.8091C48.5201 34.7914 48.5259 34.7743 48.5367 34.7605C48.5475 34.7467 48.5625 34.737 48.5794 34.733C48.7919 34.6788 48.979 34.7183 49.1407 34.8517C49.7411 35.3429 50.4276 35.9201 51.2 36.5833C51.243 36.6194 51.2645 36.6095 51.2645 36.5536Z" fill="#545557"/>
<path d="M57.8851 35.8556L58.9922 35.8685C59.0184 35.8688 59.0434 35.8792 59.0622 35.8974C59.0809 35.9157 59.0919 35.9404 59.0929 35.9666L59.1045 36.2324C59.1052 36.2461 59.1031 36.2598 59.0984 36.2727C59.0937 36.2855 59.0864 36.2973 59.077 36.3073C59.0676 36.3173 59.0563 36.3253 59.0437 36.3309C59.0311 36.3364 59.0176 36.3393 59.0039 36.3395L57.8955 36.3498C57.8687 36.3501 57.8431 36.361 57.8242 36.3801C57.8054 36.3992 57.7948 36.4249 57.7948 36.4517L57.7922 36.9188C57.7922 36.9459 57.803 36.9718 57.8221 36.9909C57.8412 37.01 57.8671 37.0208 57.8942 37.0208L59.969 37.022C59.9958 37.022 60.0216 37.0326 60.0406 37.0514C60.0597 37.0703 60.0706 37.0959 60.071 37.1227L60.0735 37.4569C60.0735 37.4837 60.063 37.5094 60.0441 37.5285C60.0253 37.5476 59.9997 37.5585 59.9729 37.5588L57.2051 37.5704C57.1781 37.5704 57.1522 37.5597 57.1331 37.5406C57.1139 37.5215 57.1032 37.4955 57.1032 37.4685L57.1097 34.8285C57.1097 34.8015 57.1204 34.7755 57.1395 34.7564C57.1586 34.7373 57.1846 34.7266 57.2116 34.7266L59.9342 34.7408C59.961 34.7408 59.9867 34.7513 60.0058 34.7702C60.0249 34.789 60.0358 34.8146 60.0361 34.8414L60.0387 35.1111C60.0389 35.1246 60.0364 35.138 60.0313 35.1505C60.0263 35.163 60.0188 35.1744 60.0093 35.184C59.9998 35.1936 59.9885 35.2012 59.9761 35.2064C59.9636 35.2116 59.9503 35.2143 59.9368 35.2143L57.8864 35.2079C57.8731 35.2079 57.8598 35.2105 57.8474 35.2156C57.8351 35.2207 57.8238 35.2282 57.8144 35.2377C57.8049 35.2472 57.7974 35.2584 57.7923 35.2708C57.7871 35.2831 57.7845 35.2964 57.7845 35.3098V35.7537C57.7845 35.7805 57.7951 35.8062 57.8139 35.8253C57.8327 35.8444 57.8583 35.8553 57.8851 35.8556Z" fill="#545557"/>
<path d="M70.1793 35.3459L70.1806 37.4646C70.1806 37.4923 70.1696 37.5189 70.15 37.5385C70.1304 37.5581 70.1038 37.5691 70.0761 37.5691L69.5948 37.5704C69.5671 37.5704 69.5405 37.5594 69.5209 37.5398C69.5013 37.5202 69.4903 37.4936 69.4903 37.4659L69.4916 35.3459C69.4916 35.3182 69.4806 35.2916 69.461 35.272C69.4414 35.2524 69.4148 35.2414 69.3871 35.2414L68.2864 35.2375C68.2589 35.2375 68.2325 35.2267 68.213 35.2074C68.1934 35.1881 68.1822 35.1618 68.1819 35.1343L68.1793 34.8324C68.1792 34.8185 68.1817 34.8048 68.1869 34.792C68.1921 34.7791 68.1998 34.7675 68.2095 34.7576C68.2192 34.7478 68.2308 34.74 68.2435 34.7346C68.2563 34.7293 68.27 34.7266 68.2838 34.7266H71.3884C71.4022 34.7266 71.4159 34.7293 71.4287 34.7346C71.4414 34.74 71.453 34.7478 71.4627 34.7576C71.4724 34.7675 71.4801 34.7791 71.4853 34.792C71.4905 34.8048 71.493 34.8185 71.4929 34.8324L71.4877 35.1356C71.4874 35.1631 71.4762 35.1893 71.4566 35.2087C71.4371 35.228 71.4107 35.2388 71.3832 35.2388L70.2838 35.2414C70.2561 35.2414 70.2295 35.2524 70.2099 35.272C70.1903 35.2916 70.1793 35.3182 70.1793 35.3459Z" fill="#545557"/>
<path d="M74.1961 36.9562L72.4529 36.9639C72.4413 36.964 72.43 36.9673 72.4202 36.9734C72.4104 36.9796 72.4025 36.9884 72.3974 36.9988L72.1471 37.5227C72.1422 37.5333 72.1344 37.5424 72.1246 37.5488C72.1148 37.5552 72.1033 37.5586 72.0916 37.5588L71.5252 37.5704C71.5141 37.5707 71.5032 37.5681 71.4935 37.5628C71.4839 37.5575 71.4758 37.5497 71.4701 37.5402C71.4645 37.5308 71.4614 37.52 71.4614 37.5089C71.4613 37.4979 71.4642 37.487 71.4697 37.4775L73.0206 34.7549C73.026 34.7452 73.0338 34.737 73.0433 34.7314C73.0529 34.7257 73.0637 34.7227 73.0748 34.7227L73.6503 34.7291C73.6611 34.7292 73.6716 34.7322 73.6809 34.7376C73.6901 34.743 73.6979 34.7508 73.7032 34.7601L75.2723 37.4736C75.2777 37.4831 75.2806 37.4938 75.2806 37.5047C75.2805 37.5157 75.2776 37.5264 75.2721 37.5358C75.2666 37.5452 75.2587 37.553 75.2492 37.5584C75.2397 37.5638 75.229 37.5666 75.2181 37.5665L74.5819 37.5614C74.5707 37.5612 74.5597 37.558 74.5502 37.5521C74.5406 37.5462 74.5329 37.5378 74.5277 37.5278L74.2503 36.9898C74.2452 36.9798 74.2374 36.9714 74.2279 36.9655C74.2183 36.9596 74.2074 36.9564 74.1961 36.9562ZM72.7858 36.3549C72.7816 36.3631 72.7796 36.3723 72.78 36.3815C72.7803 36.3907 72.783 36.3997 72.7878 36.4075C72.7926 36.4154 72.7993 36.4219 72.8073 36.4265C72.8153 36.4311 72.8243 36.4335 72.8335 36.4336L73.8477 36.4272C73.857 36.427 73.8661 36.4244 73.8741 36.4197C73.8821 36.4149 73.8887 36.4082 73.8934 36.4002C73.8981 36.3922 73.9006 36.3831 73.9007 36.3738C73.9009 36.3645 73.8986 36.3553 73.8942 36.3472L73.3819 35.3923C73.3773 35.3834 73.3703 35.376 73.3617 35.3709C73.3531 35.3657 73.3432 35.3631 73.3331 35.3632C73.3231 35.3633 73.3133 35.3662 73.3048 35.3716C73.2964 35.377 73.2896 35.3846 73.2852 35.3936L72.7858 36.3549Z" fill="#545557"/>
<path d="M103.615 37.0246L105.711 37.0181C105.734 37.0181 105.755 37.0271 105.771 37.0431C105.787 37.0591 105.796 37.0807 105.796 37.1033L105.797 37.4775C105.797 37.5001 105.788 37.5217 105.772 37.5377C105.757 37.5537 105.735 37.5627 105.712 37.5627L102.901 37.5665C102.878 37.5665 102.856 37.5576 102.84 37.5416C102.824 37.5256 102.815 37.504 102.815 37.4814L102.832 34.8156C102.833 34.7934 102.842 34.7723 102.857 34.7566C102.873 34.741 102.894 34.732 102.916 34.7317L105.676 34.7227C105.699 34.7227 105.72 34.7316 105.736 34.7476C105.752 34.7636 105.761 34.7852 105.761 34.8078L105.76 35.1459C105.76 35.1682 105.751 35.1896 105.735 35.2053C105.719 35.221 105.697 35.2298 105.675 35.2298L103.617 35.2117C103.605 35.2115 103.594 35.2136 103.584 35.2178C103.573 35.222 103.564 35.2282 103.556 35.2362C103.548 35.2441 103.541 35.2535 103.537 35.264C103.533 35.2744 103.53 35.2856 103.53 35.2968L103.534 35.7665C103.534 35.7891 103.543 35.8108 103.559 35.8267C103.575 35.8427 103.597 35.8517 103.619 35.8517L104.734 35.8491C104.757 35.8491 104.778 35.8579 104.794 35.8736C104.81 35.8893 104.819 35.9106 104.819 35.933L104.825 36.2659C104.825 36.2772 104.823 36.2884 104.818 36.2989C104.814 36.3093 104.808 36.3189 104.8 36.3269C104.792 36.335 104.783 36.3414 104.772 36.3457C104.762 36.3501 104.751 36.3523 104.739 36.3523L103.625 36.3498C103.602 36.3498 103.581 36.3585 103.565 36.3742C103.549 36.3899 103.54 36.4113 103.539 36.4336L103.53 36.9381C103.53 36.9494 103.532 36.9606 103.536 36.9711C103.541 36.9816 103.547 36.9911 103.555 36.9992C103.563 37.0072 103.572 37.0136 103.583 37.018C103.593 37.0223 103.604 37.0246 103.615 37.0246Z" fill="#545557"/>
<path d="M34.3549 35.2296L32.7097 35.2335C32.6495 35.2335 32.6198 35.2632 32.6207 35.3225L32.6284 35.7535C32.6293 35.8085 32.6572 35.8356 32.7123 35.8348C33.3119 35.8262 33.9123 35.8313 34.5136 35.8502C34.6908 35.8554 34.846 35.9036 34.9794 35.9948C35.0155 36.0197 35.0374 36.0537 35.0452 36.0967C35.0942 36.3883 35.1076 36.7199 35.0852 37.0915C35.068 37.3797 34.92 37.5294 34.6413 37.5406C33.9351 37.5681 33.2245 37.5737 32.5097 37.5573C32.3626 37.5539 32.2202 37.5212 32.0826 37.4593C32.0353 37.4386 32.0022 37.4042 31.9832 37.3561C31.9196 37.2012 31.8964 37.0468 31.9136 36.8928C31.9213 36.8214 31.9609 36.7819 32.0323 36.7741L32.4155 36.7277C32.4878 36.7191 32.5157 36.7505 32.4994 36.8219C32.4891 36.8692 32.4921 36.9139 32.5084 36.9561C32.5222 36.9948 32.5497 37.0141 32.591 37.0141L34.4168 37.0283C34.4408 37.0283 34.4637 37.0188 34.4807 37.0019C34.4976 36.9849 34.5071 36.9619 34.5071 36.938L34.5007 36.4877C34.5007 36.4266 34.4697 36.3965 34.4078 36.3973C33.822 36.4068 33.2177 36.4098 32.5949 36.4064C32.0245 36.4038 31.9716 35.9457 31.9871 35.5044C31.9987 35.1586 32.0671 34.7561 32.4981 34.7432C33.1114 34.7242 33.7802 34.7225 34.5045 34.738C34.9071 34.7457 35.0925 34.9556 35.0607 35.3677C35.0564 35.4158 35.0306 35.4447 34.9832 35.4541L34.56 35.5393C34.5196 35.547 34.4895 35.5328 34.4697 35.4967C34.4422 35.4485 34.4344 35.3969 34.4465 35.3419C34.462 35.267 34.4314 35.2296 34.3549 35.2296Z" fill="#545557"/>
<path d="M53.7432 37.0399L55.2916 37.0296C55.3561 37.0296 55.3871 36.9978 55.3845 36.9341L55.3729 36.5457C55.3727 36.5318 55.3755 36.5181 55.3812 36.5054C55.3869 36.4928 55.3954 36.4816 55.4059 36.4727C55.4164 36.4638 55.4288 36.4574 55.442 36.4539C55.4553 36.4505 55.4692 36.4501 55.4826 36.4528L55.9858 36.5483C56.0119 36.5532 56.0353 36.5675 56.0516 36.5884C56.068 36.6092 56.0763 36.6353 56.0749 36.6618C56.049 37.0954 56.1419 37.5264 55.5407 37.5393C54.8232 37.5539 54.1364 37.556 53.48 37.5457C53.1394 37.5397 52.966 37.3668 52.96 37.027C52.9506 36.424 52.948 35.8326 52.9523 35.2528C52.9557 34.9208 53.1243 34.75 53.4581 34.7405C54.1746 34.7199 54.865 34.7152 55.529 34.7264C56.1058 34.7367 56.0826 35.1934 56.0658 35.6115C56.0632 35.6683 56.0344 35.7023 55.9794 35.7134L55.4555 35.818C55.4451 35.8201 55.4343 35.8199 55.424 35.8173C55.4136 35.8147 55.404 35.8098 55.3959 35.803C55.3877 35.7961 55.3811 35.7876 55.3767 35.7779C55.3723 35.7682 55.3701 35.7576 55.3703 35.747L55.3768 35.3238C55.3785 35.2661 55.3501 35.2373 55.2916 35.2373L53.7097 35.2425C53.6564 35.2425 53.6297 35.2691 53.6297 35.3225L53.6374 36.9354C53.6374 37.0059 53.6727 37.0408 53.7432 37.0399Z" fill="#545557"/>
<path d="M65.5948 36.88L66.2864 37.449C66.3854 37.5307 66.3707 37.5703 66.2426 37.5677C66.0602 37.5643 65.8718 37.5634 65.6774 37.5651C65.44 37.5664 65.2916 37.3896 65.1419 37.2335C65.1316 37.223 65.1191 37.2147 65.1054 37.2094C65.0916 37.204 65.0769 37.2016 65.0621 37.2023C65.0474 37.203 65.0329 37.2069 65.0198 37.2136C65.0066 37.2203 64.995 37.2297 64.9858 37.2413C64.84 37.4258 64.6581 37.5458 64.4142 37.5522C63.9325 37.5651 63.4821 37.5626 63.0632 37.5445C62.4477 37.5187 62.5006 36.7987 62.6142 36.4129C62.6242 36.3788 62.6462 36.3499 62.6761 36.3316L63.3974 35.889C63.4078 35.8826 63.4166 35.8739 63.4232 35.8637C63.4298 35.8534 63.4341 35.8418 63.4357 35.8297C63.4373 35.8176 63.4362 35.8054 63.4325 35.7937C63.4287 35.7821 63.4225 35.7715 63.4142 35.7626C63.1497 35.4787 63.1497 34.7767 63.6542 34.7496C64.0413 34.729 64.403 34.7238 64.7393 34.7342C65.1462 34.7453 65.3105 34.9892 65.2322 35.4658C65.2297 35.4804 65.2215 35.4894 65.2077 35.4929C65.0598 35.5307 64.9101 35.5518 64.7587 35.5561C64.7355 35.557 64.7243 35.5458 64.7252 35.5226C64.7389 35.3109 64.6993 35.2026 64.6064 35.1974C64.375 35.1845 64.1381 35.1776 63.8955 35.1767C63.8815 35.1767 63.8676 35.1796 63.8548 35.1852C63.8419 35.1908 63.8304 35.199 63.8209 35.2093C63.8114 35.2197 63.8042 35.2319 63.7997 35.2451C63.7952 35.2584 63.7936 35.2725 63.7948 35.2864C63.8026 35.3776 63.8477 35.455 63.9303 35.5187C64.3036 35.8069 64.671 36.1075 65.0323 36.4206C65.0579 36.4429 65.0908 36.4551 65.1248 36.4549C65.1587 36.4546 65.1915 36.442 65.2168 36.4193L65.6206 36.0503C65.7067 35.9729 65.797 35.9669 65.8916 36.0322L66.0619 36.1509C66.1858 36.237 66.1824 36.317 66.0516 36.3909C65.8761 36.4916 65.7209 36.621 65.5858 36.7793C65.5548 36.8155 65.5578 36.849 65.5948 36.88ZM64.52 37.0219C64.5459 37.0205 64.5708 37.0115 64.5915 36.9958C64.6123 36.9802 64.6278 36.9588 64.6363 36.9342C64.6447 36.9097 64.6457 36.8832 64.639 36.8581C64.6323 36.8331 64.6183 36.8106 64.5987 36.7935L63.9187 36.2038C63.8976 36.1856 63.8711 36.1745 63.8432 36.1725C63.8153 36.1704 63.7875 36.1773 63.7639 36.1922L63.1664 36.569C63.1479 36.5804 63.1325 36.5964 63.1217 36.6153C63.1108 36.6342 63.1049 36.6556 63.1045 36.6774L63.1019 36.9484C63.1017 36.9661 63.1052 36.9838 63.112 37.0002C63.1189 37.0166 63.1291 37.0314 63.1419 37.0437C63.1547 37.056 63.1699 37.0656 63.1865 37.0719C63.2032 37.0781 63.2209 37.0809 63.2387 37.08L64.52 37.0219Z" fill="#545557"/>
<path d="M83.711 35.2194L82.0762 35.222C82.0159 35.222 81.9863 35.2517 81.9871 35.311L81.9949 35.7704C81.995 35.7807 81.9972 35.7909 82.0013 35.8004C82.0055 35.8099 82.0114 35.8185 82.0188 35.8257C82.0263 35.8329 82.035 35.8385 82.0446 35.8423C82.0543 35.8461 82.0645 35.848 82.0749 35.8478C82.6796 35.8366 83.3101 35.8414 83.9665 35.862C84.2994 35.8723 84.4688 36.0354 84.4749 36.351C84.4813 36.6323 84.5174 37.0736 84.4103 37.324C84.3123 37.5562 83.8813 37.5562 83.6723 37.5588C83.046 37.5648 82.4383 37.5648 81.8491 37.5588C81.4611 37.5554 81.2766 37.3493 81.2955 36.9407C81.2998 36.8418 81.3514 36.7859 81.4503 36.773L81.7716 36.733C81.8628 36.7209 81.899 36.7597 81.88 36.8491C81.8697 36.899 81.8753 36.9442 81.8968 36.9846C81.9097 37.0104 81.9308 37.0233 81.96 37.0233C82.6017 37.019 83.2069 37.0207 83.7755 37.0285C83.791 37.0286 83.8063 37.0257 83.8206 37.0199C83.835 37.014 83.848 37.0054 83.8589 36.9945C83.8699 36.9835 83.8785 36.9705 83.8843 36.9562C83.8902 36.9419 83.8931 36.9265 83.8929 36.911L83.8852 36.5214C83.8843 36.4397 83.8435 36.3988 83.7626 36.3988C83.1992 36.3936 82.6078 36.3941 81.9884 36.4001C81.28 36.4078 81.382 35.7343 81.4052 35.262C81.4215 34.9179 81.6005 34.7442 81.942 34.7407C82.5811 34.7338 83.2202 34.7326 83.8594 34.7369C84.2706 34.7403 84.4676 34.9472 84.4503 35.3575C84.4486 35.4074 84.4237 35.4371 84.3755 35.4465L83.9562 35.5356C83.94 35.539 83.9233 35.5388 83.9073 35.535C83.8912 35.5313 83.8762 35.524 83.8633 35.5138C83.8503 35.5036 83.8398 35.4906 83.8325 35.4759C83.8251 35.4611 83.8211 35.445 83.8207 35.4285L83.8181 35.324C83.8177 35.2961 83.8063 35.2695 83.7863 35.25C83.7662 35.2304 83.7392 35.2194 83.711 35.2194Z" fill="#545557"/>
<path d="M86.3007 37.0219L88.3987 37.0206C88.422 37.0206 88.4443 37.0299 88.4608 37.0463C88.4772 37.0628 88.4865 37.0851 88.4865 37.1084L88.4903 37.4748C88.4903 37.4981 88.4811 37.5204 88.4646 37.5369C88.4482 37.5533 88.4259 37.5626 88.4026 37.5626L85.6 37.5664C85.5767 37.5664 85.5544 37.5572 85.538 37.5407C85.5215 37.5243 85.5123 37.502 85.5123 37.4787L85.5213 34.8167C85.5213 34.7935 85.5305 34.7712 85.547 34.7547C85.5635 34.7382 85.5858 34.729 85.609 34.729L88.3768 34.7355C88.3884 34.7355 88.3999 34.7378 88.4107 34.7423C88.4214 34.7467 88.4311 34.7533 88.4393 34.7616C88.4475 34.7699 88.4539 34.7797 88.4582 34.7905C88.4626 34.8013 88.4647 34.8129 88.4645 34.8245L88.4619 35.1342C88.4616 35.1572 88.4522 35.1792 88.4358 35.1954C88.4194 35.2116 88.3973 35.2206 88.3742 35.2206L86.2981 35.2155C86.2864 35.2155 86.2749 35.2178 86.2642 35.2223C86.2535 35.2267 86.2437 35.2333 86.2356 35.2416C86.2274 35.2499 86.221 35.2597 86.2166 35.2705C86.2123 35.2813 86.2102 35.2929 86.2103 35.3045L86.2168 35.7638C86.2171 35.7869 86.2265 35.8089 86.2429 35.8251C86.2594 35.8412 86.2815 35.8503 86.3045 35.8503L87.4245 35.858C87.4471 35.858 87.4689 35.8667 87.4852 35.8824C87.5016 35.898 87.5113 35.9193 87.5123 35.9419L87.5265 36.2516C87.527 36.2634 87.5251 36.2753 87.5209 36.2864C87.5168 36.2974 87.5104 36.3076 87.5022 36.3161C87.494 36.3247 87.4841 36.3315 87.4732 36.3362C87.4623 36.3408 87.4506 36.3432 87.4387 36.3432L86.3084 36.3509C86.2854 36.3509 86.2632 36.36 86.2468 36.3762C86.2304 36.3924 86.221 36.4143 86.2207 36.4374L86.2129 36.9329C86.2127 36.9445 86.2149 36.9561 86.2192 36.9669C86.2235 36.9776 86.23 36.9875 86.2381 36.9958C86.2463 37.004 86.256 37.0106 86.2668 37.0151C86.2775 37.0196 86.289 37.0219 86.3007 37.0219Z" fill="#545557"/>
<path d="M91.6155 36.6412L92.6477 37.458C92.7363 37.5277 92.7243 37.5625 92.6116 37.5625H91.9561C91.8434 37.5625 91.7462 37.5242 91.6645 37.4477L90.7045 36.5458C90.671 36.5139 90.631 36.4984 90.5845 36.4993L90.1264 36.5019C90.0714 36.5019 90.0439 36.5294 90.0439 36.5845L90.0477 37.4838C90.0486 37.538 90.0215 37.5651 89.9664 37.5651H89.4864C89.4142 37.5651 89.3781 37.529 89.3781 37.4567L89.3884 34.8064C89.3884 34.7617 89.4107 34.7393 89.4555 34.7393C90.231 34.7303 91.0361 34.7509 91.8477 34.729C92.2503 34.7178 92.4512 34.9088 92.4503 35.3019C92.4477 35.8903 92.6516 36.5948 91.6748 36.4954C91.4873 36.4765 91.4675 36.5251 91.6155 36.6412ZM91.7996 35.3475C91.7997 35.3313 91.7965 35.3151 91.7904 35.3001C91.7842 35.285 91.7751 35.2714 91.7637 35.2598C91.7522 35.2483 91.7386 35.2391 91.7236 35.2328C91.7086 35.2265 91.6925 35.2233 91.6762 35.2232L90.1665 35.218C90.1337 35.2178 90.1021 35.2308 90.0788 35.2539C90.0555 35.2771 90.0423 35.3085 90.0422 35.3414L90.0403 35.8833C90.0403 35.8996 90.0434 35.9157 90.0496 35.9308C90.0558 35.9458 90.0648 35.9595 90.0763 35.9711C90.0878 35.9826 90.1014 35.9918 90.1164 35.998C90.1314 36.0043 90.1475 36.0076 90.1638 36.0076L91.6734 36.0129C91.7063 36.013 91.7378 36.0001 91.7612 35.9769C91.7845 35.9538 91.7976 35.9223 91.7977 35.8895L91.7996 35.3475Z" fill="#545557"/>
<path d="M101.01 35.2388L99.4439 35.2504C99.4179 35.2504 99.3929 35.2609 99.3745 35.2795C99.3561 35.2981 99.3458 35.3234 99.3458 35.3497L99.3548 36.9381C99.3548 36.9509 99.3574 36.9636 99.3623 36.9755C99.3673 36.9873 99.3745 36.998 99.3836 37.007C99.3928 37.016 99.4036 37.0231 99.4155 37.0279C99.4274 37.0327 99.4401 37.0351 99.4529 37.0349L101.027 37.0297C101.086 37.0289 101.114 36.9992 101.114 36.9407L101.108 36.5523C101.108 36.4723 101.146 36.4401 101.225 36.4555L101.706 36.5459C101.784 36.5605 101.822 36.6078 101.821 36.6878C101.8 37.4581 101.657 37.5536 100.908 37.5497C100.372 37.5472 99.8224 37.5497 99.2607 37.5575C98.6516 37.5665 98.6968 37.1601 98.6865 36.6594C98.6753 36.1725 98.6748 35.6964 98.6852 35.231C98.6912 34.9136 98.8529 34.7497 99.1703 34.7394C99.8774 34.7179 100.58 34.7145 101.279 34.7291C101.805 34.7394 101.803 35.1872 101.817 35.5704C101.819 35.6504 101.782 35.6981 101.705 35.7136L101.257 35.8039C101.154 35.8246 101.103 35.7824 101.103 35.6775L101.105 35.333C101.105 35.2702 101.074 35.2388 101.01 35.2388Z" fill="#545557"/>
<path d="M107.425 35.2232C107.339 35.2223 107.296 35.2649 107.297 35.3509L107.302 35.7432C107.303 35.812 107.338 35.846 107.406 35.8451C107.992 35.8374 108.588 35.8395 109.194 35.8516C109.404 35.855 109.569 35.9161 109.688 36.0348C109.723 36.0709 109.743 36.114 109.747 36.1638C109.772 36.4615 109.777 36.769 109.761 37.0864C109.747 37.3892 109.577 37.5432 109.252 37.5484C108.568 37.5613 107.885 37.5651 107.203 37.56C106.779 37.5574 106.571 37.3458 106.577 36.9251C106.577 36.8916 106.589 36.8592 106.611 36.8339C106.633 36.8086 106.664 36.792 106.697 36.7871L107.092 36.7251C107.106 36.7228 107.121 36.7242 107.135 36.7293C107.148 36.7345 107.16 36.7431 107.17 36.7543C107.179 36.7656 107.186 36.7792 107.189 36.7937C107.191 36.8083 107.19 36.8233 107.186 36.8374C107.174 36.8718 107.173 36.9062 107.183 36.9406C107.189 36.9628 107.202 36.9824 107.22 36.9964C107.239 37.0104 107.261 37.018 107.284 37.018L109.101 37.0284C109.166 37.0292 109.198 36.997 109.196 36.9316L109.179 36.4877C109.178 36.4318 109.149 36.4034 109.093 36.4026C108.571 36.3905 108.009 36.3931 107.409 36.4103C107.274 36.4146 107.148 36.3983 107.032 36.3613C106.63 36.2348 106.703 35.4813 106.747 35.1574C106.784 34.8838 106.939 34.7445 107.213 34.7393C107.929 34.7247 108.597 34.7243 109.214 34.738C109.581 34.7458 109.757 34.9475 109.743 35.3432C109.742 35.4051 109.71 35.4426 109.649 35.4555L109.25 35.5419C109.185 35.5565 109.149 35.5303 109.143 35.4632L109.13 35.3226C109.125 35.2632 109.092 35.2335 109.032 35.2335L107.425 35.2232Z" fill="#545557"/>
</g>
<defs>
<clipPath id="clip0_623_1240">
<rect width="100" height="32.129" fill="white" transform="translate(20 8)"/>
</clipPath>
</defs>
</svg>
