<svg width="601" height="105" viewBox="0 0 601 105" fill="none" xmlns="http://www.w3.org/2000/svg">
<path d="M49.8998 45.7001L69.0998 30.6001L68.7998 26.7001L82.4998 16.1001L81.9998 23.0001L88.8998 24.5001L75.2998 34.9001L71.3998 33.7001L47.5998 52.3001L57.3998 59.9001L76.7998 75.2001L77.6998 70.8001L85.5998 84.6001L70.3998 80.1001L74.3998 78.1001L49.7998 58.8001L51.9998 63.3001V63.4001L63.3998 87.0001L66.1998 83.4001L67.1998 99.3001L55.4998 88.6001H59.9998L46.3998 60.5001V91.6001L50.3998 89.6001L44.5998 104.3L38.7998 89.6001L42.7998 91.6001V60.5001L29.1998 88.6001H33.6998L21.9998 99.3001L22.9998 83.4001L25.7998 87.0001L37.1998 63.4001V63.3001L39.3998 58.8001L14.7998 78.1001L18.7998 80.1001L3.59981 84.6001L11.4998 70.8001L12.3998 75.2001L31.7998 59.9001L41.4998 52.3001L17.7998 33.7001L13.8998 34.9001L0.299805 24.5001L7.19981 23.0001L6.69981 16.1001L20.3998 26.7001L19.9998 30.6001L39.2998 45.8001L28.5998 23.8001L24.5998 23.2001L16.9998 7.80008L23.7998 9.6001L26.3998 3.1001L33.9998 18.6001L31.9998 22.1001L42.6998 44.3001L42.7998 38.3001L42.6998 28.2001V19.5001L39.3998 17.3001L39.2998 0.100098L44.5998 4.7001L49.8998 0.100098L49.7998 17.3001L46.4998 19.5001L46.3998 28.2001V38.3001V44.2001L57.1998 22.1001L55.1998 18.6001L62.7998 3.1001L65.3998 9.6001L72.1998 7.80008L64.5998 23.2001L60.5998 23.8001L49.8998 45.7001Z" fill="#001655"/>
<path d="M477.1 25.2002C475.2 25.2002 473.4 25.5002 471.7 26.1002C470 26.7002 468.5 27.5002 467.3 28.6002C466.1 29.7002 465.1 31.1002 464.3 32.6002C463.6 34.2002 463.2 36.0002 463.2 38.0002C463.2 39.2002 463.3 40.3002 463.6 41.2002C463.9 42.2002 464.2 43.1002 464.7 43.9002C465.2 44.8002 465.8 45.6002 466.4 46.5002C467.1 47.3002 467.8 48.2002 468.7 49.1002L468.9 49.4002L468.6 49.6002C465.9 51.3002 463.6 53.3002 462 55.5002C460.4 57.7002 459.5 60.5002 459.5 63.6002C459.5 66.0002 460 68.2002 460.9 70.1002C461.8 72.0002 463 73.6002 464.6 75.0002C466.1 76.3002 467.9 77.3002 470 78.1002C472.1 78.8002 474.2 79.2002 476.5 79.2002C479.1 79.2002 481.7 78.8002 484.2 77.9002C486.7 77.0002 489 75.7002 491 73.9002L491.2 73.7002L495 77.9002H505.3L496 67.8002L496.1 67.6002C497.2 65.9002 498 64.1002 498.4 62.1002C498.8 60.1002 499.1 58.1002 499.2 56.1002V55.8002H505.2V49.0002H492.4V51.6002C492.4 52.7002 492.3 53.9002 492.3 55.1002C492.2 56.3002 492.1 57.5002 491.9 58.6002C491.7 59.7002 491.4 60.7002 491 61.6002L490.8 62.0002L481.3 51.6002L481.6 51.4002C483 50.6002 484.3 49.7002 485.5 48.8002C486.7 47.9002 487.7 46.9002 488.6 45.8002C489.5 44.7002 490.1 43.5002 490.6 42.2002C491.1 40.9002 491.3 39.4002 491.3 37.7002C491.3 35.7002 490.9 33.9002 490.2 32.4002C489.4 30.9002 488.4 29.5002 487.1 28.5002C485.8 27.4002 484.3 26.6002 482.6 26.1002C480.8 25.5002 479 25.2002 477.1 25.2002ZM477 71.7002C475.8 71.7002 474.5 71.5002 473.4 71.2002C472.2 70.8002 471.2 70.3002 470.3 69.6002C469.4 68.9002 468.7 68.0002 468.2 66.9002C467.7 65.8002 467.4 64.6002 467.4 63.2002C467.4 62.1002 467.6 61.1002 467.9 60.3002C468.2 59.5002 468.7 58.7002 469.3 58.1002C469.9 57.4002 470.5 56.9002 471.3 56.4002C472 55.9002 472.9 55.4002 473.7 54.9002L473.9 54.8002L486.1 68.3002L485.9 68.5002C484.7 69.8002 483.3 70.7002 481.7 71.2002C480.1 71.4002 478.5 71.7002 477 71.7002ZM476.2 46.2002L474.4 44.4002C473.8 43.8002 473.3 43.2002 472.8 42.5002C472.3 41.8002 471.9 41.1002 471.6 40.4002C471.3 39.6002 471.1 38.8002 471.1 37.9002C471.1 36.0002 471.7 34.6002 473 33.6002C474.2 32.7002 475.6 32.2002 477.2 32.2002C478.9 32.2002 480.4 32.7002 481.5 33.7002C482.7 34.7002 483.2 36.2002 483.2 38.1002C483.2 39.2002 483 40.2002 482.6 41.0002C482.2 41.8002 481.7 42.5002 481 43.1002C480.4 43.7002 479.6 44.2002 478.8 44.7002C478 45.2002 477.2 45.6002 476.4 46.1002L476.2 46.2002Z" fill="#001655"/>
<path d="M582.7 39.2998C579.8 39.2998 577.2 39.8998 574.9 40.9998C572.6 42.1998 570.8 43.4998 569.5 45.0998C568.1 46.8998 567 48.8998 566.2 50.9998C565.4 53.0998 565 55.8998 565 59.0998C565 62.2998 565.4 64.9998 566.2 67.0998C567 69.2998 568.1 71.1998 569.5 72.9998C570.8 74.5998 572.6 75.9998 574.9 77.0998C577.2 78.2998 579.8 78.7998 582.7 78.7998C585.6 78.7998 588.2 78.1998 590.5 77.0998C592.8 75.8998 594.6 74.5998 595.9 72.9998C597.3 71.1998 598.4 69.1998 599.2 67.0998C600 64.9998 600.4 62.1998 600.4 59.0998C600.4 55.8998 600 53.1998 599.2 50.9998C598.4 48.8998 597.3 46.8998 595.9 45.0998C594.6 43.4998 592.8 42.0998 590.5 40.9998C588.2 39.8998 585.5 39.2998 582.7 39.2998ZM582.7 71.4998C581.4 71.4998 580.2 71.2998 579.2 70.7998C578.2 70.2998 577.3 69.6998 576.7 68.9998C575.5 67.6998 574.8 66.1998 574.4 64.4998C574.1 62.7998 573.9 60.9998 573.9 59.1998C573.9 57.3998 574.1 55.5998 574.4 53.8998C574.8 52.1998 575.5 50.5998 576.7 49.3998C577.4 48.6998 578.2 48.0998 579.2 47.5998C580.2 47.0998 581.4 46.8998 582.7 46.8998C584 46.8998 585.2 47.0998 586.2 47.5998C587.2 48.0998 588.1 48.6998 588.7 49.3998C589.9 50.6998 590.6 52.1998 591 53.8998C591.3 55.5998 591.5 57.3998 591.5 59.1998C591.5 60.9998 591.3 62.7998 591 64.4998C590.6 66.1998 589.9 67.7998 588.7 68.9998C588 69.6998 587.2 70.2998 586.2 70.7998C585.2 71.2998 584 71.4998 582.7 71.4998Z" fill="#001655"/>
<path d="M540.8 25.2002C538 25.2002 535.4 25.7002 532.8 26.6002C530.3 27.5002 528 29.0002 526 31.0002C524.6 32.4002 523.4 33.9002 522.6 35.5002C521.7 37.1002 521.1 38.7002 520.7 40.5002C520.3 42.3002 520 44.1002 519.8 46.1002C519.7 48.1002 519.6 50.1002 519.6 52.2002C519.6 54.4002 519.7 56.4002 519.8 58.4002C519.9 60.3002 520.2 62.2002 520.7 64.0002C521.1 65.7002 521.8 67.4002 522.6 69.0002C523.5 70.6002 524.6 72.1002 526 73.5002C528 75.5002 530.3 77.0002 532.8 77.9002C535.3 78.8002 538 79.3002 540.8 79.3002C543.6 79.3002 546.3 78.8002 548.9 77.7002C551.5 76.7002 553.8 75.1002 555.7 73.1002C557.2 71.5002 558.4 69.8002 559.1 67.8002C559.8 65.9002 560.3 64.0002 560.6 62.1002H551.4C551.2 64.2002 550.3 66.1002 549 67.8002C548.1 68.9002 547 69.8002 545.5 70.4002C544.1 71.0002 542.5 71.3002 540.8 71.3002C539.2 71.3002 537.7 71.0002 536.3 70.4002C534.9 69.8002 533.6 68.9002 532.5 67.7002C531.6 66.7002 530.9 65.6002 530.4 64.3002C529.9 63.1002 529.5 61.7002 529.3 60.3002C529.1 58.9002 528.9 57.5002 528.9 56.1002C528.8 54.7002 528.8 53.4002 528.8 52.2002C528.8 51.0002 528.8 49.7002 528.9 48.3002C529 46.9002 529.1 45.5002 529.3 44.1002C529.5 42.7002 529.9 41.4002 530.4 40.1002C530.9 38.8002 531.6 37.7002 532.5 36.7002C533.6 35.5002 534.8 34.6002 536.3 34.0002C537.7 33.4002 539.3 33.1002 540.8 33.1002C542.5 33.1002 544 33.4002 545.5 33.9002C547 34.5002 548.1 35.3002 549 36.4002C549.7 37.3002 550.3 38.1002 550.7 39.0002C551.1 39.8002 551.3 40.8002 551.4 41.8002H560.6C560.3 39.9002 559.8 38.0002 559.1 36.1002C558.3 34.2002 557.2 32.4002 555.7 30.8002C553.8 28.8002 551.5 27.3002 548.9 26.3002C546.3 25.7002 543.5 25.2002 540.8 25.2002Z" fill="#001655"/>
<path d="M384.1 35.2999V25.8999L375.3 31.1999V35.2999H384.1Z" fill="#001655"/>
<path d="M135.1 78.4001H145L135.3 56.7001L135.6 56.6001C138.5 55.5001 140.8 53.7001 142.6 51.1001C144.3 48.5001 145.2 45.4001 145.2 41.9001C145.2 39.8001 144.8 37.7001 144.1 35.8001C143.4 33.9001 142.3 32.1001 140.8 30.6001C139.3 29.1001 137.4 27.9001 135.1 27.0001C132.8 26.1001 130.1 25.6001 127 25.6001H107.8V78.3001H117V58.2001H126.3L135.1 78.4001ZM127.1 50.2001H116.9V33.7001H127C128.4 33.7001 129.7 33.9001 130.8 34.4001C131.9 34.8001 132.9 35.5001 133.7 36.2001C134.5 37.0001 135.1 37.9001 135.5 38.9001C135.9 39.9001 136.1 41.0001 136.1 42.1001C136.1 44.7001 135.3 46.8001 133.7 48.2001C132.2 49.4001 129.9 50.2001 127.1 50.2001Z" fill="#001655"/>
<path d="M166.7 39.1001C163.8 39.1001 161.1 39.7001 158.8 40.9001C156.5 42.1001 154.6 43.5001 153.3 45.1001C151.9 46.9001 150.8 48.9001 150 51.1001C149.2 53.3001 148.8 56.0001 148.8 59.3001C148.8 62.6001 149.2 65.3001 150 67.5001C150.8 69.7001 151.9 71.7001 153.3 73.5001C154.6 75.1001 156.5 76.5001 158.8 77.7001C161.1 78.9001 163.8 79.5001 166.7 79.5001C169.6 79.5001 172.3 78.9001 174.6 77.7001C176.9 76.5001 178.8 75.1001 180.1 73.5001C181.5 71.7001 182.6 69.7001 183.4 67.5001C184.2 65.3001 184.6 62.6001 184.6 59.3001C184.6 56.0001 184.2 53.3001 183.4 51.1001C182.6 48.9001 181.5 46.9001 180.1 45.1001C178.8 43.5001 176.9 42.1001 174.6 40.9001C172.3 39.7001 169.6 39.1001 166.7 39.1001ZM166.7 72.0001C165.4 72.0001 164.1 71.7001 163.1 71.3001C162.1 70.8001 161.2 70.2001 160.5 69.5001C159.3 68.2001 158.5 66.7001 158.2 64.9001C157.8 63.2001 157.7 61.3001 157.7 59.5001C157.7 57.6001 157.9 55.8001 158.2 54.1001C158.6 52.3001 159.3 50.8001 160.5 49.5001C161.2 48.8001 162 48.2001 163.1 47.7001C164.1 47.2001 165.3 47.0001 166.7 47.0001C168 47.0001 169.2 47.3001 170.3 47.7001C171.3 48.2001 172.2 48.8001 172.9 49.5001C174.1 50.8001 174.9 52.3001 175.2 54.1001C175.6 55.8001 175.7 57.7001 175.7 59.5001C175.7 61.4001 175.5 63.2001 175.2 64.9001C174.8 66.7001 174.1 68.2001 172.9 69.5001C172.2 70.2001 171.4 70.8001 170.3 71.3001C169.2 71.7001 168 72.0001 166.7 72.0001Z" fill="#001655"/>
<path d="M187.8 47.2999H194.9V67.3999C194.9 71.0999 195.9 73.9999 197.8 75.9999C199.7 78.0999 202.6 79.0999 206.4 79.0999C208.9 79.0999 211.5 78.7999 214.1 78.0999V70.7999C212.9 70.8999 211.9 70.9999 211.2 71.0999C210.3 71.1999 209.4 71.1999 208.4 71.1999C206.8 71.1999 205.6 70.7999 204.9 70.0999C204.1 69.3999 203.8 68.1999 203.8 66.5999V47.2999H213.6V40.1999H203.8V25.8999L195 31.1999V40.0999H187.9V47.2999H187.8Z" fill="#001655"/>
<path d="M244.2 78.5998H253V52.7998C253 50.7998 252.7 48.9998 252.1 47.2998C251.5 45.5998 250.7 44.1998 249.6 42.9998C248.5 41.7998 247.2 40.7998 245.6 40.0998C244 39.3998 242.2 39.0998 240.1 39.0998C238.1 39.0998 236.1 39.4998 234.2 40.3998C232.3 41.2998 230.8 42.4998 229.7 44.0998L229.1 44.8998V25.7998H220.3V78.5998H229.1V58.2998C229.1 57.0998 229.3 55.7998 229.6 54.4998C229.9 53.1998 230.4 51.9998 231.1 50.8998C231.8 49.7998 232.6 48.8998 233.7 48.1998C234.8 47.4998 236.1 47.0998 237.5 47.0998C240.1 47.0998 241.9 47.7998 242.9 49.1998C243.8 50.4998 244.3 52.3998 244.3 54.6998V78.5998H244.2Z" fill="#001655"/>
<path d="M258.5 66.6002C258.5 68.3002 258.9 69.9002 259.7 71.3002C260.5 72.8002 261.4 74.1002 262.6 75.2002C264.2 76.7002 266 77.8002 268.1 78.6002C270.2 79.3002 272.5 79.7002 275 79.7002C277.7 79.7002 280.2 79.4002 282.4 78.7002C284.6 78.0002 286.6 76.9002 288.1 75.3002C289.1 74.3002 289.9 73.1002 290.5 71.8002C291.1 70.4002 291.4 68.8002 291.4 67.0002C291.4 64.0002 290.4 61.5002 288.5 59.7002C286.5 57.9002 284 56.7002 281 56.2002C280.1 56.1002 279.3 55.9002 278.6 55.8002C277.9 55.7002 277.3 55.6002 276.7 55.5002L274.9 55.3002C274.3 55.2002 273.6 55.1002 272.6 55.0002C271.5 54.8002 270.4 54.5002 269.4 53.9002C268.3 53.3002 267.8 52.3002 267.8 50.7002C267.8 49.6002 268.1 48.7002 268.7 48.0002C269.3 47.3002 270.1 46.7002 271 46.3002C271.7 46.0002 272.4 45.8002 273.1 45.8002C273.8 45.7002 274.5 45.7002 275.2 45.7002C276.2 45.7002 277.2 45.9002 278.2 46.2002C279.2 46.5002 280 47.0002 280.5 47.6002C281 48.1002 281.4 48.7002 281.7 49.3002C282 49.9002 282.1 50.5002 282.2 51.2002H290.5C290.5 49.9002 290.2 48.6002 289.6 47.4002C289 46.1002 288.2 44.8002 287.1 43.7002C285.7 42.2002 283.9 41.1002 281.8 40.3002C279.7 39.6002 277.4 39.2002 275.1 39.2002C272.7 39.2002 270.5 39.5002 268.5 40.2002C266.5 40.9002 264.8 41.8002 263.4 43.0002C262.3 44.0002 261.3 45.2002 260.6 46.6002C259.9 48.0002 259.5 49.7002 259.5 51.6002C259.5 52.8002 259.7 54.0002 260.1 55.1002C260.5 56.2002 261.1 57.2002 261.9 58.1002C262.7 59.0002 263.6 59.8002 264.6 60.4002C265.6 61.0002 266.8 61.5002 268.2 61.8002C269.9 62.2002 271.7 62.5002 273.6 62.7002C275.4 62.9002 277.3 63.1002 279 63.3002C280.3 63.5002 281.3 64.0002 282 64.7002C282.8 65.5002 283.1 66.5002 283.1 67.7002C283.1 68.8002 282.8 69.7002 282.2 70.4002C281.6 71.1002 280.9 71.6002 280.1 72.0002C279.3 72.4002 278.4 72.6002 277.4 72.7002C274.9 73.0002 272.8 72.9002 271.3 72.5002C270.3 72.2002 269.5 71.8002 268.7 71.1002C268.1 70.6002 267.5 69.9002 267.1 69.0002C266.7 68.2002 266.5 67.4002 266.5 66.6002H258.5Z" fill="#001655"/>
<path d="M313.2 39.1001C310.3 39.1001 307.6 39.7001 305.3 40.9001C303 42.1001 301.2 43.5001 299.8 45.1001C298.4 46.9001 297.3 49.0001 296.6 51.4001C295.9 53.8001 295.6 56.4001 295.6 59.2001C295.6 62.0001 296 64.6001 296.6 67.0001C297.3 69.4001 298.4 71.5001 299.8 73.3001C301.1 74.9001 303 76.3001 305.3 77.5001C307.6 78.7001 310.3 79.3001 313.2 79.3001C316.1 79.3001 318.8 78.7001 321 77.5001C323.2 76.3001 325 74.9001 326.4 73.2001C327.3 72.1001 328 70.8001 328.5 69.3001C329 68.0001 329.2 66.6001 329.4 65.2001H320.8C320.7 65.8001 320.6 66.4001 320.4 66.9001C320.2 67.5001 319.9 68.1001 319.6 68.6001C319 69.5001 318.2 70.2001 317.2 70.8001C316.2 71.4001 314.9 71.7001 313.4 71.7001C312.1 71.7001 310.9 71.4001 309.9 71.0001C308.9 70.5001 308.1 69.9001 307.4 69.2001C306.2 67.9001 305.5 66.4001 305.1 64.6001C304.8 62.9001 304.6 61.0001 304.6 59.2001C304.6 57.3001 304.8 55.5001 305.1 53.7001C305.4 51.9001 306.2 50.3001 307.4 49.0001C308.1 48.3001 308.9 47.7001 309.9 47.2001C310.9 46.7001 312 46.5001 313.4 46.5001C314.9 46.5001 316.2 46.8001 317.2 47.4001C318.2 48.0001 319.1 48.7001 319.6 49.6001C319.9 50.1001 320.2 50.7001 320.4 51.3001C320.6 51.8001 320.7 52.4001 320.8 53.0001H329.4C329.3 51.6001 329 50.2001 328.5 48.9001C328 47.5001 327.3 46.2001 326.4 45.0001C325.1 43.3001 323.3 41.9001 321 40.7001C318.8 39.7001 316.2 39.1001 313.2 39.1001Z" fill="#001655"/>
<path d="M358.8 78.5998H367.6V52.7998C367.6 50.7998 367.3 48.9998 366.7 47.2998C366.1 45.5998 365.3 44.1998 364.2 42.9998C363.1 41.7998 361.8 40.7998 360.2 40.0998C358.6 39.3998 356.8 39.0998 354.7 39.0998C352.7 39.0998 350.7 39.4998 348.8 40.3998C346.9 41.2998 345.4 42.4998 344.3 44.0998L343.8 44.8998V25.7998H335V78.5998H343.8V58.2998C343.8 57.0998 344 55.7998 344.3 54.4998C344.6 53.1998 345.1 51.9998 345.8 50.8998C346.5 49.7998 347.3 48.8998 348.4 48.1998C349.5 47.4998 350.8 47.0998 352.2 47.0998C354.8 47.0998 356.6 47.7998 357.6 49.1998C358.5 50.4998 359 52.3998 359 54.6998V78.5998H358.8Z" fill="#001655"/>
<path d="M383.9 39.7998H375.5V78.5998H383.9V39.7998Z" fill="#001655"/>
<path d="M392.1 25.8002V68.8002C392.1 72.4002 393.1 75.0002 394.9 76.6002C396.8 78.2002 399.3 79.0002 402.4 79.0002C403.3 79.0002 404 79.0002 404.4 78.9002C404.8 78.8002 405.4 78.7002 406.2 78.5002V71.2002C406.1 71.2002 406 71.2002 405.9 71.2002C405.7 71.2002 405.4 71.2002 405 71.2002C403.3 71.2002 402.2 70.8002 401.7 70.1002C401.2 69.4002 401 68.4002 401 67.2002V25.7002H392.1V25.8002Z" fill="#001655"/>
<path d="M426.4 39.0999C424.4 39.0999 422.7 39.3999 421.1 39.8999C419.6 40.3999 418.2 41.1999 417 42.1999C412.4 45.9999 410.1 51.7999 410.1 59.3999C410.1 63.0999 410.7 66.2999 411.8 69.1999C412.9 71.9999 414.6 74.3999 416.9 76.2999C418.1 77.2999 419.5 78.0999 421 78.6999C422.6 79.2999 424.3 79.5999 426.2 79.5999C428.3 79.5999 430.4 79.1999 432.3 78.3999C434.2 77.5999 435.8 76.2999 436.9 74.5999L437.3 73.8999L438 78.6999H445.6V25.8999H436.8V43.3999L436.3 42.7999C435.5 41.7999 434.2 40.9999 432.5 40.2999C431 39.4999 428.9 39.0999 426.4 39.0999ZM428.2 72.1999C426.7 72.1999 425.4 71.8999 424.3 71.2999C423.2 70.6999 422.3 69.8999 421.6 68.9999C420.6 67.6999 419.9 66.0999 419.5 64.3999C419.2 62.6999 419 60.9999 419 59.2999C419 57.5999 419.2 55.8999 419.5 54.1999C419.8 52.4999 420.5 50.9999 421.5 49.5999C422.2 48.6999 423.1 47.9999 424.2 47.2999C425.3 46.6999 426.6 46.3999 428.1 46.3999C430 46.3999 431.6 46.7999 432.8 47.5999C434 48.3999 434.9 49.4999 435.6 50.6999C436.3 51.9999 436.7 53.3999 436.9 54.8999C437.1 56.3999 437.2 57.8999 437.2 59.2999C437.2 60.6999 437.1 62.1999 436.9 63.6999C436.7 65.1999 436.2 66.5999 435.6 67.8999C434.9 69.1999 434 70.1999 432.8 70.9999C431.7 71.7999 430.1 72.1999 428.2 72.1999Z" fill="#001655"/>
</svg>
