<svg width="132" height="22" viewBox="0 0 132 22" fill="none" xmlns="http://www.w3.org/2000/svg">
  <g clip-path="url(#clip0_358_2488)">
    <path
      d="M28.4734 16.1533C28.2667 16.0533 28.2534 15.9933 28.2534 15.6C28.2534 14.8667 28.3134 14.2867 28.3267 14.0533C28.34 13.8933 28.3734 13.82 28.4467 13.82C28.5334 13.82 28.5467 13.8667 28.5467 13.98C28.5467 14.1133 28.5467 14.3133 28.5934 14.52C28.8134 15.6 29.78 16.0133 30.76 16.0133C32.1667 16.0133 32.8534 15.0067 32.8534 14.0667C32.8534 13.06 32.4267 12.4733 31.1734 11.4333L30.5134 10.8933C28.96 9.62 28.6134 8.71334 28.6134 7.72C28.6134 6.15334 29.78 5.08667 31.64 5.08667C32.2134 5.08667 32.6334 5.14667 33 5.23334C33.28 5.29334 33.3934 5.30667 33.5134 5.30667C33.6334 5.30667 33.66 5.33334 33.66 5.40667C33.66 5.48 33.6 5.96 33.6 6.95334C33.6 7.18667 33.5734 7.28667 33.5 7.28667C33.4134 7.28667 33.4 7.21334 33.38 7.09334C33.3667 6.92 33.28 6.52 33.1867 6.36C33.0934 6.2 32.7067 5.58667 31.36 5.58667C30.3534 5.58667 29.56 6.21334 29.56 7.28C29.56 8.11334 29.94 8.64 31.3467 9.73334L31.7534 10.0533C33.48 11.4133 33.8867 12.32 33.8867 13.4867C33.8867 14.0867 33.6534 15.2 32.6467 15.9133C32.02 16.3533 31.2267 16.5267 30.44 16.5267C29.74 16.5467 29.0667 16.4467 28.4734 16.1533Z"
      fill="black" />
    <path
      d="M37.1867 10.5398C37.1867 8.6131 37.1867 8.25977 37.1601 7.86644C37.1334 7.43977 37.0601 7.23977 36.6334 7.17977C36.5334 7.16644 36.3134 7.1531 36.1934 7.1531C36.1467 7.1531 36.0934 7.0931 36.0934 7.0531C36.0934 6.97977 36.1534 6.9531 36.3001 6.9531C36.8867 6.9531 37.7201 6.97977 37.7934 6.97977C37.8801 6.97977 40.5734 6.9931 40.8667 6.97977C41.1134 6.96644 41.3467 6.91977 41.4534 6.90644C41.5134 6.8931 41.5734 6.84644 41.6267 6.84644C41.6734 6.84644 41.6867 6.90644 41.6867 6.96644C41.6867 7.0531 41.6134 7.19977 41.5868 7.5531C41.5734 7.6731 41.5401 8.22644 41.5134 8.3731C41.5001 8.4331 41.4534 8.50644 41.3934 8.50644C41.3201 8.50644 41.2934 8.44644 41.2934 8.34644C41.2934 8.25977 41.2801 8.0531 41.2201 7.90644C41.1334 7.69977 41.0001 7.6131 40.3001 7.52644C40.0801 7.49977 38.5867 7.47977 38.4401 7.47977C38.3801 7.47977 38.3667 7.52644 38.3667 7.6131V10.9931C38.3667 11.0798 38.3667 11.1264 38.4401 11.1264C38.6001 11.1264 40.3001 11.1264 40.5867 11.0998C40.8934 11.0731 41.0867 11.0531 41.2134 10.9264C41.3001 10.8398 41.3601 10.7664 41.4067 10.7664C41.4534 10.7664 41.4801 10.7931 41.4801 10.8664C41.4801 10.9398 41.4067 11.1464 41.3801 11.5531C41.3534 11.7998 41.3201 12.2664 41.3201 12.3598C41.3201 12.4598 41.2934 12.5931 41.2001 12.5931C41.1401 12.5931 41.1134 12.5464 41.1134 12.4731C41.1134 12.3531 41.1134 12.2264 41.0534 12.0664C41.0068 11.8931 40.8934 11.7464 40.3934 11.6864C40.0401 11.6398 38.6667 11.6264 38.4467 11.6264C38.3734 11.6264 38.3601 11.6731 38.3601 11.7131V12.7531C38.3601 13.1798 38.3467 14.6264 38.3601 14.8731C38.3867 15.7064 38.6201 15.8664 39.8934 15.8664C40.2267 15.8664 40.8467 15.8664 41.1801 15.7331C41.5134 15.5864 41.6934 15.3664 41.7668 14.8731C41.7934 14.7264 41.8267 14.6798 41.9001 14.6798C41.9734 14.6798 41.9867 14.7798 41.9867 14.8731C41.9867 14.9598 41.8868 15.8064 41.8134 16.0731C41.7267 16.3931 41.5934 16.3931 41.1001 16.3931C40.1334 16.3931 39.3867 16.3664 38.8601 16.3464C38.3201 16.3198 37.9801 16.3198 37.7934 16.3198C37.7667 16.3198 37.5134 16.3198 37.2401 16.3331C36.9934 16.3464 36.7001 16.3598 36.4934 16.3598C36.3601 16.3598 36.2867 16.3331 36.2867 16.2598C36.2867 16.2131 36.3134 16.1598 36.3867 16.1598C36.5067 16.1598 36.6667 16.1131 36.7801 16.0998C37.0267 16.0531 37.0601 15.8064 37.1134 15.4398C37.1867 14.9264 37.1867 13.9464 37.1867 12.7464V10.5398Z"
      fill="black" />
    <path
      d="M46.3401 12.7602C46.3401 14.5869 46.3667 15.3335 46.6001 15.5535C46.8067 15.7602 47.3001 15.8469 48.3134 15.8469C48.9867 15.8469 49.5534 15.8335 49.8601 15.4669C50.0201 15.2735 50.1201 15.0135 50.1667 14.7669C50.1801 14.6802 50.2267 14.6069 50.3001 14.6069C50.3601 14.6069 50.3867 14.6669 50.3867 14.7935C50.3867 14.9269 50.3001 15.6735 50.1934 16.0335C50.1067 16.3269 50.0601 16.3669 49.3734 16.3669C48.4534 16.3669 47.7334 16.3535 47.1334 16.3202C46.5467 16.3069 46.1067 16.2935 45.7267 16.2935C45.6667 16.2935 45.4467 16.2935 45.2001 16.3069C44.9401 16.3202 44.6601 16.3335 44.4534 16.3335C44.3201 16.3335 44.2467 16.3069 44.2467 16.2335C44.2467 16.1869 44.2734 16.1335 44.3467 16.1335C44.4667 16.1335 44.6267 16.1069 44.7401 16.0735C44.9867 16.0135 45.0201 15.7802 45.0734 15.4135C45.1467 14.9002 45.1467 13.9202 45.1467 12.7202V10.5269C45.1467 8.60019 45.1467 8.24685 45.1201 7.85352C45.0934 7.42685 45.0201 7.22685 44.5934 7.16685C44.4934 7.15352 44.2734 7.14019 44.1534 7.14019C44.1067 7.14019 44.0534 7.08019 44.0534 7.04019C44.0534 6.96685 44.1134 6.94019 44.2601 6.94019C44.8467 6.94019 45.6467 6.96685 45.7201 6.96685C45.7801 6.96685 46.7467 6.94019 47.1401 6.94019C47.2734 6.94019 47.3467 6.96685 47.3467 7.04019C47.3467 7.08685 47.2867 7.12685 47.2467 7.12685C47.1601 7.12685 46.9667 7.14019 46.8201 7.15352C46.4401 7.22685 46.3667 7.41352 46.3401 7.85352C46.3267 8.24685 46.3267 8.60019 46.3267 10.5269V12.7602H46.3401Z"
      fill="black" />
    <path
      d="M52.7734 10.5398C52.7734 8.6131 52.7734 8.25977 52.7467 7.86644C52.7201 7.43977 52.6467 7.23977 52.2201 7.17977C52.1201 7.16644 51.9001 7.1531 51.7801 7.1531C51.7334 7.1531 51.6801 7.0931 51.6801 7.0531C51.6801 6.97977 51.7401 6.9531 51.8867 6.9531C52.4734 6.9531 53.3067 6.97977 53.3801 6.97977C53.4667 6.97977 56.1601 6.9931 56.4534 6.97977C56.7001 6.96644 56.9334 6.91977 57.0401 6.90644C57.1001 6.8931 57.1601 6.84644 57.2134 6.84644C57.2601 6.84644 57.2734 6.90644 57.2734 6.96644C57.2734 7.0531 57.2001 7.19977 57.1734 7.5531C57.1601 7.6731 57.1267 8.22644 57.1001 8.3731C57.0867 8.4331 57.0401 8.50644 56.9801 8.50644C56.9067 8.50644 56.8801 8.44644 56.8801 8.34644C56.8801 8.25977 56.8667 8.0531 56.8067 7.90644C56.7201 7.69977 56.5867 7.6131 55.8867 7.52644C55.6667 7.49977 54.1734 7.47977 54.0267 7.47977C53.9667 7.47977 53.9534 7.52644 53.9534 7.6131V10.9931C53.9534 11.0798 53.9534 11.1264 54.0267 11.1264C54.1867 11.1264 55.8867 11.1264 56.1734 11.0998C56.4801 11.0731 56.6734 11.0531 56.8001 10.9264C56.8867 10.8398 56.9467 10.7664 56.9934 10.7664C57.0401 10.7664 57.0667 10.7931 57.0667 10.8664C57.0667 10.9398 56.9934 11.1464 56.9667 11.5531C56.9401 11.7998 56.9067 12.2664 56.9067 12.3598C56.9067 12.4598 56.8801 12.5931 56.7867 12.5931C56.7267 12.5931 56.7001 12.5464 56.7001 12.4731C56.7001 12.3531 56.7001 12.2264 56.6401 12.0664C56.5934 11.8931 56.4801 11.7464 55.9801 11.6864C55.6267 11.6398 54.2534 11.6264 54.0334 11.6264C53.9601 11.6264 53.9467 11.6731 53.9467 11.7131V12.7531C53.9467 13.1798 53.9334 14.6264 53.9467 14.8731C53.9734 15.7064 54.2067 15.8664 55.4801 15.8664C55.8134 15.8664 56.4334 15.8664 56.7667 15.7331C57.1001 15.5864 57.2801 15.3664 57.3534 14.8731C57.3801 14.7264 57.4134 14.6798 57.4867 14.6798C57.5601 14.6798 57.5734 14.7798 57.5734 14.8731C57.5734 14.9598 57.4734 15.8064 57.4001 16.0731C57.3134 16.3931 57.1801 16.3931 56.6867 16.3931C55.7201 16.3931 54.9734 16.3664 54.4467 16.3464C53.9067 16.3198 53.5667 16.3198 53.3801 16.3198C53.3534 16.3198 53.1001 16.3198 52.8267 16.3331C52.5801 16.3464 52.2867 16.3598 52.0801 16.3598C51.9467 16.3598 51.8734 16.3331 51.8734 16.2598C51.8734 16.2131 51.9001 16.1598 51.9734 16.1598C52.0934 16.1598 52.2534 16.1131 52.3667 16.0998C52.6134 16.0531 52.6467 15.8064 52.7001 15.4398C52.7734 14.9264 52.7734 13.9464 52.7734 12.7464V10.5398Z"
      fill="black" />
    <path
      d="M61.0001 15.1733C59.7401 14.0933 59.4334 12.6733 59.4334 11.4867C59.4334 10.6533 59.7401 9.20668 60.8801 8.09334C61.6534 7.34668 62.8267 6.76001 64.8001 6.76001C65.3134 6.76001 66.0401 6.80668 66.6734 6.90668C67.1534 6.99334 67.5667 7.08001 67.9867 7.10001C68.1201 7.10001 68.1467 7.16001 68.1467 7.23334C68.1467 7.33334 68.1201 7.48001 68.0867 7.93334C68.0734 8.34001 68.0734 9.02668 68.0601 9.20668C68.0467 9.39334 67.9867 9.46668 67.9134 9.46668C67.8267 9.46668 67.8134 9.38001 67.8134 9.20668C67.8134 8.72668 67.6067 8.22668 67.2734 7.96668C66.8201 7.58668 65.8867 7.28001 64.7467 7.28001C63.0934 7.28001 62.3067 7.72001 61.8534 8.14001C60.9001 9.02001 60.7001 10.1267 60.7001 11.3867C60.7001 13.7667 62.5867 15.8867 65.3334 15.8867C66.3001 15.8867 66.9401 15.8133 67.4534 15.3C67.7334 15.02 67.9067 14.4933 67.9534 14.26C67.9801 14.1267 68.0001 14.0867 68.0867 14.0867C68.1467 14.0867 68.2067 14.1733 68.2067 14.26C68.2067 14.3467 68.0334 15.4267 67.9001 15.8533C67.8267 16.0867 67.8001 16.1333 67.5801 16.22C67.0534 16.4267 66.0867 16.5 65.2534 16.5C63.3134 16.5 62.0134 16.0467 61.0001 15.1733Z"
      fill="black" />
    <path
      d="M74.28 12.7267C74.28 13.9267 74.2801 14.9067 74.3401 15.42C74.3867 15.7867 74.4401 16.02 74.8401 16.08C75.0134 16.1067 75.3067 16.14 75.4267 16.14C75.5134 16.14 75.5267 16.2 75.5267 16.24C75.5267 16.3 75.4667 16.34 75.3201 16.34C74.6201 16.34 73.8 16.2933 73.7267 16.2933C73.6667 16.2933 72.7734 16.34 72.3934 16.34C72.2467 16.34 72.1867 16.3133 72.1867 16.24C72.1867 16.1933 72.2134 16.1533 72.2867 16.1533C72.4067 16.1533 72.5467 16.1267 72.6667 16.0933C72.9267 16.0333 73.0001 15.7867 73.0467 15.42C73.1067 14.9067 73.1067 13.9267 73.1067 12.7267V7.50668L71.2467 7.53334C70.4401 7.54668 70.1334 7.63334 69.9467 7.92668C69.8 8.14668 69.7867 8.23334 69.7401 8.32001C69.7134 8.42001 69.6667 8.44001 69.6067 8.44001C69.5801 8.44001 69.5201 8.41334 69.5201 8.34001C69.5201 8.20668 69.7667 7.10001 69.8 6.99334C69.8134 6.92001 69.8867 6.76001 69.9334 6.76001C70.0201 6.76001 70.1534 6.86001 70.5001 6.90668C70.8667 6.95334 71.3601 6.96668 71.5067 6.96668H76.3601C76.7867 6.96668 77.0734 6.94001 77.28 6.90668C77.4734 6.88001 77.5867 6.84668 77.6467 6.84668C77.7067 6.84668 77.7067 6.92001 77.7067 6.99334C77.7067 7.37334 77.66 8.26668 77.66 8.41334C77.66 8.51334 77.6 8.57334 77.54 8.57334C77.48 8.57334 77.4534 8.52668 77.4401 8.35334L77.4267 8.22001C77.3801 7.84001 77.1067 7.56001 75.8801 7.53334L74.2734 7.50668V12.7267H74.28Z"
      fill="black" />
    <path
      d="M87.0734 16.0467C86.5467 16.3267 85.5534 16.5467 84.7801 16.5467C80.7334 16.5467 79.0601 13.4333 79.0601 10.8C79.0601 8.43334 80.7867 5.08667 84.8201 5.08667C88.1067 5.08667 90.5667 7.18 90.5667 10.5667C90.5667 13.14 88.9467 14.8533 87.9801 15.48L90.9801 17.0333C94.1801 18.6867 96.4067 18.76 97.1334 18.76C97.8667 18.76 99.0067 18.6 100.013 18.1933C100.1 18.1667 100.173 18.1333 100.22 18.1333C100.28 18.1333 100.307 18.18 100.307 18.22C100.307 18.28 100.28 18.32 100.187 18.3667C99.3534 18.7467 97.7134 19.3733 95.5534 19.3733C93.7867 19.3733 91.9001 18.7267 89.5267 17.4133L87.0734 16.0467ZM85.1267 15.9933C86.4401 15.9933 89.1601 15.2333 89.1601 10.98C89.1601 7.47334 87.0267 5.58667 84.7134 5.58667C82.2734 5.58667 80.4467 7.19334 80.4467 10.4C80.4467 13.8 82.4934 15.9933 85.1267 15.9933Z"
      fill="black" />
    <path
      d="M93.1134 10.5401C93.1134 8.61344 93.1134 8.26011 93.0867 7.86678C93.0601 7.47344 92.9867 7.24011 92.56 7.18011C92.46 7.16678 92.24 7.15344 92.12 7.15344C92.0734 7.15344 92.0201 7.09344 92.0201 7.05344C92.0201 6.98011 92.08 6.95344 92.2267 6.95344C92.8134 6.95344 93.5867 6.98011 93.7067 6.98011C93.8267 6.98011 94.6267 6.95344 95.0067 6.95344C95.1534 6.95344 95.2267 6.98011 95.2267 7.05344C95.2267 7.10011 95.1667 7.15344 95.1067 7.15344C95.0201 7.15344 94.9467 7.15344 94.7867 7.18011C94.4534 7.24011 94.3801 7.46011 94.3467 7.86678C94.3201 8.26011 94.32 8.61344 94.32 10.5401V12.2801C94.32 14.0801 94.7134 14.8268 95.2734 15.3201C95.9001 15.8868 96.46 15.9934 97.1867 15.9934C97.9734 15.9934 98.7334 15.6401 99.1734 15.1134C99.7734 14.4001 99.9067 13.3734 99.9067 12.1001V10.5334C99.9067 8.60678 99.8934 8.25344 99.8801 7.86011C99.8667 7.46678 99.7934 7.23344 99.3667 7.17344C99.2667 7.16011 99.0467 7.14678 98.9267 7.14678C98.8667 7.14678 98.8267 7.08678 98.8267 7.04678C98.8267 6.97344 98.8867 6.94678 99.0334 6.94678C99.6001 6.94678 100.347 6.97344 100.42 6.97344C100.507 6.97344 101.12 6.94678 101.5 6.94678C101.647 6.94678 101.707 6.97344 101.707 7.04678C101.707 7.09344 101.66 7.14678 101.607 7.14678C101.52 7.14678 101.447 7.14678 101.287 7.17344C100.933 7.24678 100.86 7.45344 100.833 7.86011C100.807 8.25344 100.82 8.60678 100.82 10.5334V11.8668C100.82 13.2134 100.647 14.7201 99.62 15.5934C98.6867 16.4001 97.6934 16.5001 96.9267 16.5001C96.5 16.5001 95.1601 16.4734 94.2534 15.6201C93.6267 15.0334 93.1267 14.1734 93.1267 12.3601V10.5401H93.1134Z"
      fill="black" />
    <path
      d="M108.04 6.76685C110.933 6.76685 113.127 8.53351 113.127 11.4335C113.127 14.2135 111.067 16.5068 107.967 16.5068C104.44 16.5068 102.94 13.8602 102.94 11.6268C102.933 9.61351 104.487 6.76685 108.04 6.76685ZM108.333 15.9935C109.487 15.9935 111.813 15.3802 111.813 11.7802C111.813 8.80018 110 7.23351 107.967 7.23351C105.82 7.23351 104.267 8.58018 104.267 11.2802C104.267 14.1802 106.007 15.9935 108.333 15.9935Z"
      fill="black" />
    <path
      d="M118.32 12.7267C118.32 13.9267 118.32 14.9067 118.38 15.42C118.427 15.7867 118.48 16.02 118.88 16.08C119.053 16.1067 119.347 16.14 119.467 16.14C119.553 16.14 119.567 16.2 119.567 16.24C119.567 16.3 119.507 16.34 119.36 16.34C118.66 16.34 117.84 16.2933 117.767 16.2933C117.707 16.2933 116.813 16.34 116.433 16.34C116.287 16.34 116.227 16.3133 116.227 16.24C116.227 16.1933 116.253 16.1533 116.327 16.1533C116.447 16.1533 116.587 16.1267 116.707 16.0933C116.967 16.0333 117.04 15.7867 117.087 15.42C117.147 14.9067 117.147 13.9267 117.147 12.7267V7.50668L115.287 7.53334C114.48 7.54668 114.173 7.63334 113.987 7.92668C113.84 8.14668 113.827 8.23334 113.78 8.32001C113.753 8.42001 113.707 8.44001 113.647 8.44001C113.62 8.44001 113.56 8.41334 113.56 8.34001C113.56 8.20668 113.807 7.10001 113.84 6.99334C113.853 6.92001 113.927 6.76001 113.973 6.76001C114.06 6.76001 114.193 6.86001 114.54 6.90668C114.907 6.95334 115.4 6.96668 115.547 6.96668H120.4C120.827 6.96668 121.113 6.94001 121.32 6.90668C121.513 6.88001 121.627 6.84668 121.687 6.84668C121.747 6.84668 121.747 6.92001 121.747 6.99334C121.747 7.37334 121.7 8.26668 121.7 8.41334C121.7 8.51334 121.64 8.57334 121.58 8.57334C121.52 8.57334 121.493 8.52668 121.48 8.35334L121.467 8.22001C121.42 7.84001 121.147 7.56001 119.92 7.53334L118.313 7.50668V12.7267H118.32Z"
      fill="black" />
    <path
      d="M123.993 10.5398C123.993 8.6131 123.993 8.25977 123.967 7.86644C123.94 7.43977 123.867 7.23977 123.44 7.17977C123.34 7.16644 123.12 7.1531 123 7.1531C122.953 7.1531 122.9 7.0931 122.9 7.0531C122.9 6.97977 122.96 6.9531 123.107 6.9531C123.693 6.9531 124.527 6.97977 124.6 6.97977C124.687 6.97977 127.38 6.9931 127.673 6.97977C127.92 6.96644 128.153 6.91977 128.26 6.90644C128.32 6.8931 128.38 6.84644 128.433 6.84644C128.48 6.84644 128.493 6.90644 128.493 6.96644C128.493 7.0531 128.42 7.19977 128.393 7.5531C128.38 7.6731 128.347 8.22644 128.32 8.3731C128.307 8.4331 128.26 8.50644 128.2 8.50644C128.127 8.50644 128.1 8.44644 128.1 8.34644C128.1 8.25977 128.087 8.0531 128.027 7.90644C127.94 7.69977 127.807 7.6131 127.107 7.52644C126.887 7.49977 125.393 7.47977 125.247 7.47977C125.187 7.47977 125.173 7.52644 125.173 7.6131V10.9931C125.173 11.0798 125.173 11.1264 125.247 11.1264C125.407 11.1264 127.107 11.1264 127.393 11.0998C127.7 11.0731 127.893 11.0531 128.02 10.9264C128.107 10.8398 128.167 10.7664 128.213 10.7664C128.26 10.7664 128.287 10.7931 128.287 10.8664C128.287 10.9398 128.213 11.1464 128.187 11.5531C128.16 11.7998 128.127 12.2664 128.127 12.3598C128.127 12.4598 128.1 12.5931 128.007 12.5931C127.947 12.5931 127.92 12.5464 127.92 12.4731C127.92 12.3531 127.92 12.2264 127.86 12.0664C127.813 11.8931 127.7 11.7464 127.2 11.6864C126.847 11.6398 125.473 11.6264 125.253 11.6264C125.18 11.6264 125.167 11.6731 125.167 11.7131V12.7531C125.167 13.1798 125.153 14.6264 125.167 14.8731C125.193 15.7064 125.427 15.8664 126.7 15.8664C127.033 15.8664 127.653 15.8664 127.987 15.7331C128.32 15.5864 128.5 15.3664 128.573 14.8731C128.6 14.7264 128.633 14.6798 128.707 14.6798C128.78 14.6798 128.793 14.7798 128.793 14.8731C128.793 14.9598 128.693 15.8064 128.62 16.0731C128.533 16.3931 128.4 16.3931 127.907 16.3931C126.94 16.3931 126.193 16.3664 125.667 16.3464C125.127 16.3198 124.787 16.3198 124.6 16.3198C124.573 16.3198 124.32 16.3198 124.047 16.3331C123.8 16.3464 123.507 16.3598 123.3 16.3598C123.167 16.3598 123.093 16.3331 123.093 16.2598C123.093 16.2131 123.12 16.1598 123.193 16.1598C123.313 16.1598 123.473 16.1131 123.587 16.0998C123.833 16.0531 123.867 15.8064 123.92 15.4398C123.993 14.9264 123.993 13.9464 123.993 12.7464V10.5398Z"
      fill="black" />
    <path
      d="M131.387 7.41355C131.387 7.85355 131.04 8.20021 130.587 8.20021C130.14 8.20021 129.787 7.85355 129.787 7.41355C129.787 6.98021 130.14 6.63354 130.587 6.63354C131.04 6.63354 131.387 6.98021 131.387 7.41355ZM129.98 7.41355C129.98 7.76021 130.24 8.03355 130.587 8.03355C130.927 8.03355 131.18 7.76021 131.18 7.41355C131.18 7.06688 130.927 6.78688 130.58 6.78688C130.24 6.79355 129.98 7.07354 129.98 7.41355ZM130.46 7.82021H130.28V7.04021C130.353 7.02688 130.453 7.01355 130.58 7.01355C130.727 7.01355 130.793 7.04021 130.853 7.07354C130.893 7.10688 130.927 7.16688 130.927 7.24688C130.927 7.33354 130.86 7.40021 130.767 7.42688V7.43354C130.84 7.46021 130.887 7.52021 130.907 7.62021C130.933 7.74021 130.947 7.78688 130.967 7.81355H130.773C130.747 7.78688 130.733 7.71354 130.713 7.62688C130.7 7.54021 130.653 7.50021 130.553 7.50021H130.467V7.82021H130.46ZM130.467 7.38021H130.553C130.653 7.38021 130.733 7.34688 130.733 7.26688C130.733 7.19354 130.68 7.14688 130.567 7.14688C130.52 7.14688 130.487 7.15354 130.467 7.15354V7.38021Z"
      fill="black" />
    <path
      d="M10.1267 19.5137C4.84001 19.5137 0.540009 15.2137 0.540009 9.927C0.540009 4.64033 4.84001 0.340332 10.1267 0.340332C15.4133 0.340332 19.7133 4.64033 19.7133 9.927C19.7133 15.2137 15.4133 19.5137 10.1267 19.5137ZM10.1267 2.02033C5.76668 2.02033 2.22001 5.567 2.22001 9.927C2.22001 14.287 5.76668 17.8337 10.1267 17.8337C14.4867 17.8337 18.0333 14.287 18.0333 9.927C18.0333 5.567 14.4867 2.02033 10.1267 2.02033Z"
      fill="white" />
    <path
      d="M9.75339 21.3738C4.46672 21.3738 0.166718 17.0738 0.166718 11.7871C0.166718 6.50044 4.46672 2.20044 9.75339 2.20044C15.0401 2.20044 19.3401 6.50044 19.3401 11.7871C19.3467 17.0738 15.0401 21.3738 9.75339 21.3738ZM9.75339 3.88044C5.39339 3.88044 1.84672 7.42711 1.84672 11.7871C1.84672 16.1471 5.39339 19.6938 9.75339 19.6938C14.1134 19.6938 17.6601 16.1471 17.6601 11.7871C17.6667 7.42711 14.1134 3.88044 9.75339 3.88044Z"
      fill="white" />
    <path
      d="M12.1734 20.6269C6.88673 20.6269 2.58673 16.3269 2.58673 11.0403C2.58673 5.75361 6.88673 1.45361 12.1734 1.45361C17.4601 1.45361 21.7601 5.75361 21.7601 11.0403C21.7601 16.3269 17.4601 20.6269 12.1734 20.6269ZM12.1734 3.13361C7.8134 3.13361 4.26673 6.68028 4.26673 11.0403C4.26673 15.4003 7.8134 18.9469 12.1734 18.9469C16.5334 18.9469 20.0801 15.4003 20.0801 11.0403C20.0867 6.68028 16.5334 3.13361 12.1734 3.13361Z"
      fill="white" />
    <path
      d="M10.1267 19.5137C4.84001 19.5137 0.540009 15.2137 0.540009 9.927C0.540009 4.64033 4.84001 0.340332 10.1267 0.340332C15.4133 0.340332 19.7133 4.64033 19.7133 9.927C19.7133 15.2137 15.4133 19.5137 10.1267 19.5137ZM10.1267 2.02033C5.76668 2.02033 2.22001 5.567 2.22001 9.927C2.22001 14.287 5.76668 17.8337 10.1267 17.8337C14.4867 17.8337 18.0333 14.287 18.0333 9.927C18.0333 5.567 14.4867 2.02033 10.1267 2.02033Z"
      fill="#72644F" />
    <path opacity="0.82"
      d="M9.75339 21.3738C4.46672 21.3738 0.166718 17.0738 0.166718 11.7871C0.166718 6.50044 4.46672 2.20044 9.75339 2.20044C15.0401 2.20044 19.3401 6.50044 19.3401 11.7871C19.3467 17.0738 15.0401 21.3738 9.75339 21.3738ZM9.75339 3.88044C5.39339 3.88044 1.84672 7.42711 1.84672 11.7871C1.84672 16.1471 5.39339 19.6938 9.75339 19.6938C14.1134 19.6938 17.6601 16.1471 17.6601 11.7871C17.6667 7.42711 14.1134 3.88044 9.75339 3.88044Z"
      fill="#FBCE64" />
    <path opacity="0.72"
      d="M12.1734 20.6269C6.88673 20.6269 2.58673 16.3269 2.58673 11.0403C2.58673 5.75361 6.88673 1.45361 12.1734 1.45361C17.4601 1.45361 21.7601 5.75361 21.7601 11.0403C21.7601 16.3269 17.4601 20.6269 12.1734 20.6269ZM12.1734 3.13361C7.8134 3.13361 4.26673 6.68028 4.26673 11.0403C4.26673 15.4003 7.8134 18.9469 12.1734 18.9469C16.5334 18.9469 20.0801 15.4003 20.0801 11.0403C20.0867 6.68028 16.5334 3.13361 12.1734 3.13361Z"
      fill="#E16841" />
  </g>
  <defs>
    <clipPath id="clip0_358_2488">
      <rect width="132" height="22" fill="white" transform="translate(0 -0.000244141)" />
    </clipPath>
  </defs>
</svg>