<svg width="140" height="48" viewBox="0 0 140 48" fill="none" xmlns="http://www.w3.org/2000/svg">
<path d="M32.4734 29.1541C32.2667 29.0541 32.2534 28.9941 32.2534 28.6007C32.2534 27.8674 32.3134 27.2874 32.3268 27.0541C32.3401 26.8941 32.3734 26.8207 32.4467 26.8207C32.5334 26.8207 32.5468 26.8674 32.5468 26.9807C32.5468 27.1141 32.5468 27.3141 32.5934 27.5207C32.8134 28.6007 33.7801 29.0141 34.7601 29.0141C36.1667 29.0141 36.8534 28.0074 36.8534 27.0674C36.8534 26.0607 36.4267 25.4741 35.1734 24.4341L34.5134 23.8941C32.9601 22.6207 32.6134 21.7141 32.6134 20.7207C32.6134 19.1541 33.7801 18.0874 35.6401 18.0874C36.2134 18.0874 36.6334 18.1474 37.0001 18.2341C37.2801 18.2941 37.3934 18.3074 37.5134 18.3074C37.6334 18.3074 37.6601 18.3341 37.6601 18.4074C37.6601 18.4807 37.6001 18.9607 37.6001 19.9541C37.6001 20.1874 37.5734 20.2874 37.5001 20.2874C37.4134 20.2874 37.4001 20.2141 37.3801 20.0941C37.3667 19.9207 37.2801 19.5207 37.1867 19.3607C37.0934 19.2007 36.7068 18.5874 35.3601 18.5874C34.3534 18.5874 33.5601 19.2141 33.5601 20.2807C33.5601 21.1141 33.9401 21.6407 35.3468 22.7341L35.7534 23.0541C37.4801 24.4141 37.8868 25.3207 37.8868 26.4874C37.8868 27.0874 37.6534 28.2007 36.6468 28.9141C36.0201 29.3541 35.2267 29.5274 34.4401 29.5274C33.7401 29.5474 33.0667 29.4474 32.4734 29.1541Z" fill="#AEADAD"/>
<path d="M41.1868 23.5405C41.1868 21.6138 41.1868 21.2605 41.1602 20.8672C41.1335 20.4405 41.0602 20.2405 40.6335 20.1805C40.5335 20.1672 40.3135 20.1538 40.1935 20.1538C40.1468 20.1538 40.0935 20.0938 40.0935 20.0538C40.0935 19.9805 40.1535 19.9538 40.3002 19.9538C40.8868 19.9538 41.7202 19.9805 41.7935 19.9805C41.8802 19.9805 44.5735 19.9938 44.8668 19.9805C45.1135 19.9672 45.3468 19.9205 45.4535 19.9072C45.5135 19.8938 45.5735 19.8472 45.6268 19.8472C45.6735 19.8472 45.6868 19.9072 45.6868 19.9672C45.6868 20.0538 45.6135 20.2005 45.5868 20.5538C45.5735 20.6738 45.5402 21.2272 45.5135 21.3738C45.5002 21.4338 45.4535 21.5072 45.3935 21.5072C45.3202 21.5072 45.2935 21.4472 45.2935 21.3472C45.2935 21.2605 45.2802 21.0538 45.2202 20.9072C45.1335 20.7005 45.0002 20.6138 44.3002 20.5272C44.0802 20.5005 42.5868 20.4805 42.4402 20.4805C42.3802 20.4805 42.3668 20.5272 42.3668 20.6138V23.9938C42.3668 24.0805 42.3668 24.1272 42.4402 24.1272C42.6002 24.1272 44.3002 24.1272 44.5868 24.1005C44.8935 24.0738 45.0868 24.0538 45.2135 23.9272C45.3002 23.8405 45.3602 23.7672 45.4068 23.7672C45.4535 23.7672 45.4802 23.7938 45.4802 23.8672C45.4802 23.9405 45.4068 24.1472 45.3802 24.5538C45.3535 24.8005 45.3202 25.2672 45.3202 25.3605C45.3202 25.4605 45.2935 25.5938 45.2002 25.5938C45.1402 25.5938 45.1135 25.5472 45.1135 25.4738C45.1135 25.3538 45.1135 25.2272 45.0535 25.0672C45.0068 24.8938 44.8935 24.7472 44.3935 24.6872C44.0402 24.6405 42.6668 24.6272 42.4468 24.6272C42.3735 24.6272 42.3602 24.6738 42.3602 24.7138V25.7538C42.3602 26.1805 42.3468 27.6272 42.3602 27.8738C42.3868 28.7072 42.6202 28.8672 43.8935 28.8672C44.2268 28.8672 44.8468 28.8672 45.1802 28.7338C45.5135 28.5872 45.6935 28.3672 45.7668 27.8738C45.7935 27.7272 45.8268 27.6805 45.9002 27.6805C45.9735 27.6805 45.9868 27.7805 45.9868 27.8738C45.9868 27.9605 45.8868 28.8072 45.8135 29.0738C45.7268 29.3938 45.5935 29.3938 45.1002 29.3938C44.1335 29.3938 43.3868 29.3672 42.8602 29.3472C42.3202 29.3205 41.9802 29.3205 41.7935 29.3205C41.7668 29.3205 41.5135 29.3205 41.2402 29.3338C40.9935 29.3472 40.7002 29.3605 40.4935 29.3605C40.3602 29.3605 40.2868 29.3338 40.2868 29.2605C40.2868 29.2138 40.3135 29.1605 40.3868 29.1605C40.5068 29.1605 40.6668 29.1138 40.7802 29.1005C41.0268 29.0538 41.0602 28.8072 41.1135 28.4405C41.1868 27.9272 41.1868 26.9472 41.1868 25.7472V23.5405Z" fill="#AEADAD"/>
<path d="M50.3401 25.7609C50.3401 27.5876 50.3668 28.3343 50.6001 28.5543C50.8068 28.7609 51.3001 28.8476 52.3135 28.8476C52.9868 28.8476 53.5535 28.8343 53.8601 28.4676C54.0201 28.2743 54.1201 28.0143 54.1668 27.7676C54.1801 27.6809 54.2268 27.6076 54.3001 27.6076C54.3601 27.6076 54.3868 27.6676 54.3868 27.7943C54.3868 27.9276 54.3001 28.6743 54.1935 29.0343C54.1068 29.3276 54.0601 29.3676 53.3735 29.3676C52.4535 29.3676 51.7335 29.3543 51.1335 29.3209C50.5468 29.3076 50.1068 29.2943 49.7268 29.2943C49.6668 29.2943 49.4468 29.2943 49.2001 29.3076C48.9401 29.3209 48.6601 29.3343 48.4535 29.3343C48.3201 29.3343 48.2468 29.3076 48.2468 29.2343C48.2468 29.1876 48.2735 29.1343 48.3468 29.1343C48.4668 29.1343 48.6268 29.1076 48.7401 29.0743C48.9868 29.0143 49.0201 28.7809 49.0735 28.4143C49.1468 27.9009 49.1468 26.9209 49.1468 25.7209V23.5276C49.1468 21.6009 49.1468 21.2476 49.1201 20.8543C49.0935 20.4276 49.0201 20.2276 48.5935 20.1676C48.4935 20.1543 48.2735 20.1409 48.1535 20.1409C48.1068 20.1409 48.0535 20.0809 48.0535 20.0409C48.0535 19.9676 48.1135 19.9409 48.2601 19.9409C48.8468 19.9409 49.6468 19.9676 49.7201 19.9676C49.7801 19.9676 50.7468 19.9409 51.1401 19.9409C51.2735 19.9409 51.3468 19.9676 51.3468 20.0409C51.3468 20.0876 51.2868 20.1276 51.2468 20.1276C51.1601 20.1276 50.9668 20.1409 50.8201 20.1543C50.4401 20.2276 50.3668 20.4143 50.3401 20.8543C50.3268 21.2476 50.3268 21.6009 50.3268 23.5276V25.7609H50.3401Z" fill="#AEADAD"/>
<path d="M56.7735 23.5405C56.7735 21.6138 56.7735 21.2605 56.7468 20.8672C56.7202 20.4405 56.6468 20.2405 56.2202 20.1805C56.1202 20.1672 55.9002 20.1538 55.7802 20.1538C55.7335 20.1538 55.6802 20.0938 55.6802 20.0538C55.6802 19.9805 55.7402 19.9538 55.8868 19.9538C56.4735 19.9538 57.3068 19.9805 57.3802 19.9805C57.4668 19.9805 60.1602 19.9938 60.4535 19.9805C60.7002 19.9672 60.9335 19.9205 61.0402 19.9072C61.1002 19.8938 61.1602 19.8472 61.2135 19.8472C61.2602 19.8472 61.2735 19.9072 61.2735 19.9672C61.2735 20.0538 61.2002 20.2005 61.1735 20.5538C61.1602 20.6738 61.1268 21.2272 61.1002 21.3738C61.0868 21.4338 61.0402 21.5072 60.9802 21.5072C60.9068 21.5072 60.8802 21.4472 60.8802 21.3472C60.8802 21.2605 60.8668 21.0538 60.8068 20.9072C60.7202 20.7005 60.5868 20.6138 59.8868 20.5272C59.6668 20.5005 58.1735 20.4805 58.0268 20.4805C57.9668 20.4805 57.9535 20.5272 57.9535 20.6138V23.9938C57.9535 24.0805 57.9535 24.1272 58.0268 24.1272C58.1868 24.1272 59.8868 24.1272 60.1735 24.1005C60.4802 24.0738 60.6735 24.0538 60.8002 23.9272C60.8868 23.8405 60.9468 23.7672 60.9935 23.7672C61.0402 23.7672 61.0668 23.7938 61.0668 23.8672C61.0668 23.9405 60.9935 24.1472 60.9668 24.5538C60.9402 24.8005 60.9068 25.2672 60.9068 25.3605C60.9068 25.4605 60.8802 25.5938 60.7868 25.5938C60.7268 25.5938 60.7002 25.5472 60.7002 25.4738C60.7002 25.3538 60.7002 25.2272 60.6402 25.0672C60.5935 24.8938 60.4802 24.7472 59.9802 24.6872C59.6268 24.6405 58.2535 24.6272 58.0335 24.6272C57.9602 24.6272 57.9468 24.6738 57.9468 24.7138V25.7538C57.9468 26.1805 57.9335 27.6272 57.9468 27.8738C57.9735 28.7072 58.2068 28.8672 59.4802 28.8672C59.8135 28.8672 60.4335 28.8672 60.7668 28.7338C61.1002 28.5872 61.2802 28.3672 61.3535 27.8738C61.3802 27.7272 61.4135 27.6805 61.4868 27.6805C61.5602 27.6805 61.5735 27.7805 61.5735 27.8738C61.5735 27.9605 61.4735 28.8072 61.4002 29.0738C61.3135 29.3938 61.1802 29.3938 60.6868 29.3938C59.7202 29.3938 58.9735 29.3672 58.4468 29.3472C57.9068 29.3205 57.5668 29.3205 57.3802 29.3205C57.3535 29.3205 57.1002 29.3205 56.8268 29.3338C56.5802 29.3472 56.2868 29.3605 56.0802 29.3605C55.9468 29.3605 55.8735 29.3338 55.8735 29.2605C55.8735 29.2138 55.9002 29.1605 55.9735 29.1605C56.0935 29.1605 56.2535 29.1138 56.3668 29.1005C56.6135 29.0538 56.6468 28.8072 56.7002 28.4405C56.7735 27.9272 56.7735 26.9472 56.7735 25.7472V23.5405Z" fill="#AEADAD"/>
<path d="M65 28.1741C63.74 27.0941 63.4333 25.6741 63.4333 24.4874C63.4333 23.6541 63.74 22.2074 64.88 21.0941C65.6533 20.3474 66.8267 19.7607 68.8 19.7607C69.3133 19.7607 70.04 19.8074 70.6734 19.9074C71.1534 19.9941 71.5667 20.0807 71.9867 20.1007C72.12 20.1007 72.1467 20.1607 72.1467 20.2341C72.1467 20.3341 72.12 20.4807 72.0867 20.9341C72.0733 21.3407 72.0733 22.0274 72.06 22.2074C72.0467 22.3941 71.9867 22.4674 71.9134 22.4674C71.8267 22.4674 71.8134 22.3807 71.8134 22.2074C71.8134 21.7274 71.6067 21.2274 71.2734 20.9674C70.82 20.5874 69.8867 20.2807 68.7467 20.2807C67.0934 20.2807 66.3067 20.7207 65.8533 21.1407C64.9 22.0207 64.7 23.1274 64.7 24.3874C64.7 26.7674 66.5867 28.8874 69.3333 28.8874C70.3 28.8874 70.94 28.8141 71.4534 28.3007C71.7334 28.0207 71.9067 27.4941 71.9534 27.2607C71.98 27.1274 72 27.0874 72.0867 27.0874C72.1467 27.0874 72.2067 27.1741 72.2067 27.2607C72.2067 27.3474 72.0333 28.4274 71.9 28.8541C71.8267 29.0874 71.8 29.1341 71.58 29.2207C71.0534 29.4274 70.0867 29.5007 69.2533 29.5007C67.3133 29.5007 66.0133 29.0474 65 28.1741Z" fill="#AEADAD"/>
<path d="M78.28 25.7274C78.28 26.9274 78.28 27.9074 78.34 28.4207C78.3867 28.7874 78.44 29.0207 78.84 29.0807C79.0134 29.1074 79.3067 29.1407 79.4267 29.1407C79.5134 29.1407 79.5267 29.2007 79.5267 29.2407C79.5267 29.3007 79.4667 29.3407 79.32 29.3407C78.62 29.3407 77.8 29.2941 77.7267 29.2941C77.6667 29.2941 76.7734 29.3407 76.3934 29.3407C76.2467 29.3407 76.1867 29.3141 76.1867 29.2407C76.1867 29.1941 76.2134 29.1541 76.2867 29.1541C76.4067 29.1541 76.5467 29.1274 76.6667 29.0941C76.9267 29.0341 77 28.7874 77.0467 28.4207C77.1067 27.9074 77.1067 26.9274 77.1067 25.7274V20.5074L75.2467 20.5341C74.44 20.5474 74.1334 20.6341 73.9467 20.9274C73.8 21.1474 73.7867 21.2341 73.74 21.3207C73.7134 21.4207 73.6667 21.4407 73.6067 21.4407C73.58 21.4407 73.52 21.4141 73.52 21.3407C73.52 21.2074 73.7667 20.1007 73.8 19.9941C73.8134 19.9207 73.8867 19.7607 73.9334 19.7607C74.02 19.7607 74.1534 19.8607 74.5 19.9074C74.8667 19.9541 75.36 19.9674 75.5067 19.9674H80.36C80.7867 19.9674 81.0734 19.9407 81.28 19.9074C81.4734 19.8807 81.5867 19.8474 81.6467 19.8474C81.7067 19.8474 81.7067 19.9207 81.7067 19.9941C81.7067 20.3741 81.66 21.2674 81.66 21.4141C81.66 21.5141 81.6 21.5741 81.54 21.5741C81.48 21.5741 81.4534 21.5274 81.44 21.3541L81.4267 21.2207C81.38 20.8407 81.1067 20.5607 79.88 20.5341L78.2734 20.5074V25.7274H78.28Z" fill="#AEADAD"/>
<path d="M91.0734 29.0474C90.5467 29.3274 89.5534 29.5474 88.7801 29.5474C84.7334 29.5474 83.0601 26.4341 83.0601 23.8007C83.0601 21.4341 84.7867 18.0874 88.8201 18.0874C92.1067 18.0874 94.5667 20.1807 94.5667 23.5674C94.5667 26.1407 92.9467 27.8541 91.9801 28.4807L94.9801 30.0341C98.1801 31.6874 100.407 31.7607 101.133 31.7607C101.867 31.7607 103.007 31.6007 104.013 31.1941C104.1 31.1674 104.173 31.1341 104.22 31.1341C104.28 31.1341 104.307 31.1807 104.307 31.2207C104.307 31.2807 104.28 31.3207 104.187 31.3674C103.353 31.7474 101.713 32.3741 99.5534 32.3741C97.7867 32.3741 95.9001 31.7274 93.5267 30.4141L91.0734 29.0474ZM89.1267 28.9941C90.4401 28.9941 93.1601 28.2341 93.1601 23.9807C93.1601 20.4741 91.0267 18.5874 88.7134 18.5874C86.2734 18.5874 84.4467 20.1941 84.4467 23.4007C84.4467 26.8007 86.4934 28.9941 89.1267 28.9941Z" fill="#AEADAD"/>
<path d="M97.1134 23.5411C97.1134 21.6144 97.1134 21.2611 97.0867 20.8678C97.06 20.4744 96.9867 20.2411 96.56 20.1811C96.46 20.1678 96.24 20.1544 96.12 20.1544C96.0733 20.1544 96.02 20.0944 96.02 20.0544C96.02 19.9811 96.08 19.9544 96.2267 19.9544C96.8134 19.9544 97.5867 19.9811 97.7067 19.9811C97.8267 19.9811 98.6267 19.9544 99.0067 19.9544C99.1533 19.9544 99.2267 19.9811 99.2267 20.0544C99.2267 20.1011 99.1667 20.1544 99.1067 20.1544C99.02 20.1544 98.9467 20.1544 98.7867 20.1811C98.4533 20.2411 98.38 20.4611 98.3467 20.8678C98.32 21.2611 98.32 21.6144 98.32 23.5411V25.2811C98.32 27.0811 98.7134 27.8278 99.2734 28.3211C99.9 28.8878 100.46 28.9944 101.187 28.9944C101.973 28.9944 102.733 28.6411 103.173 28.1144C103.773 27.4011 103.907 26.3744 103.907 25.1011V23.5344C103.907 21.6078 103.893 21.2544 103.88 20.8611C103.867 20.4678 103.793 20.2344 103.367 20.1744C103.267 20.1611 103.047 20.1478 102.927 20.1478C102.867 20.1478 102.827 20.0878 102.827 20.0478C102.827 19.9744 102.887 19.9478 103.033 19.9478C103.6 19.9478 104.347 19.9744 104.42 19.9744C104.507 19.9744 105.12 19.9478 105.5 19.9478C105.647 19.9478 105.707 19.9744 105.707 20.0478C105.707 20.0944 105.66 20.1478 105.607 20.1478C105.52 20.1478 105.447 20.1478 105.287 20.1744C104.933 20.2478 104.86 20.4544 104.833 20.8611C104.807 21.2544 104.82 21.6078 104.82 23.5344V24.8678C104.82 26.2144 104.647 27.7211 103.62 28.5944C102.687 29.4011 101.693 29.5011 100.927 29.5011C100.5 29.5011 99.16 29.4744 98.2534 28.6211C97.6267 28.0344 97.1267 27.1744 97.1267 25.3611V23.5411H97.1134Z" fill="#AEADAD"/>
<path d="M112.04 19.7676C114.933 19.7676 117.127 21.5342 117.127 24.4342C117.127 27.2142 115.067 29.5076 111.967 29.5076C108.44 29.5076 106.94 26.8609 106.94 24.6276C106.933 22.6142 108.487 19.7676 112.04 19.7676ZM112.333 28.9942C113.487 28.9942 115.813 28.3809 115.813 24.7809C115.813 21.8009 114 20.2342 111.967 20.2342C109.82 20.2342 108.267 21.5809 108.267 24.2809C108.267 27.1809 110.007 28.9942 112.333 28.9942Z" fill="#AEADAD"/>
<path d="M122.32 25.7274C122.32 26.9274 122.32 27.9074 122.38 28.4207C122.427 28.7874 122.48 29.0207 122.88 29.0807C123.053 29.1074 123.347 29.1407 123.467 29.1407C123.553 29.1407 123.567 29.2007 123.567 29.2407C123.567 29.3007 123.507 29.3407 123.36 29.3407C122.66 29.3407 121.84 29.2941 121.767 29.2941C121.707 29.2941 120.813 29.3407 120.433 29.3407C120.287 29.3407 120.227 29.3141 120.227 29.2407C120.227 29.1941 120.253 29.1541 120.327 29.1541C120.447 29.1541 120.587 29.1274 120.707 29.0941C120.967 29.0341 121.04 28.7874 121.087 28.4207C121.147 27.9074 121.147 26.9274 121.147 25.7274V20.5074L119.287 20.5341C118.48 20.5474 118.173 20.6341 117.987 20.9274C117.84 21.1474 117.827 21.2341 117.78 21.3207C117.753 21.4207 117.707 21.4407 117.647 21.4407C117.62 21.4407 117.56 21.4141 117.56 21.3407C117.56 21.2074 117.807 20.1007 117.84 19.9941C117.853 19.9207 117.927 19.7607 117.973 19.7607C118.06 19.7607 118.193 19.8607 118.54 19.9074C118.907 19.9541 119.4 19.9674 119.547 19.9674H124.4C124.827 19.9674 125.113 19.9407 125.32 19.9074C125.513 19.8807 125.627 19.8474 125.687 19.8474C125.747 19.8474 125.747 19.9207 125.747 19.9941C125.747 20.3741 125.7 21.2674 125.7 21.4141C125.7 21.5141 125.64 21.5741 125.58 21.5741C125.52 21.5741 125.493 21.5274 125.48 21.3541L125.467 21.2207C125.42 20.8407 125.147 20.5607 123.92 20.5341L122.313 20.5074V25.7274H122.32Z" fill="#AEADAD"/>
<path d="M127.993 23.5405C127.993 21.6138 127.993 21.2605 127.967 20.8672C127.94 20.4405 127.867 20.2405 127.44 20.1805C127.34 20.1672 127.12 20.1538 127 20.1538C126.953 20.1538 126.9 20.0938 126.9 20.0538C126.9 19.9805 126.96 19.9538 127.107 19.9538C127.693 19.9538 128.527 19.9805 128.6 19.9805C128.687 19.9805 131.38 19.9938 131.673 19.9805C131.92 19.9672 132.153 19.9205 132.26 19.9072C132.32 19.8938 132.38 19.8472 132.433 19.8472C132.48 19.8472 132.493 19.9072 132.493 19.9672C132.493 20.0538 132.42 20.2005 132.393 20.5538C132.38 20.6738 132.347 21.2272 132.32 21.3738C132.307 21.4338 132.26 21.5072 132.2 21.5072C132.127 21.5072 132.1 21.4472 132.1 21.3472C132.1 21.2605 132.087 21.0538 132.027 20.9072C131.94 20.7005 131.807 20.6138 131.107 20.5272C130.887 20.5005 129.393 20.4805 129.247 20.4805C129.187 20.4805 129.173 20.5272 129.173 20.6138V23.9938C129.173 24.0805 129.173 24.1272 129.247 24.1272C129.407 24.1272 131.107 24.1272 131.393 24.1005C131.7 24.0738 131.893 24.0538 132.02 23.9272C132.107 23.8405 132.167 23.7672 132.213 23.7672C132.26 23.7672 132.287 23.7938 132.287 23.8672C132.287 23.9405 132.213 24.1472 132.187 24.5538C132.16 24.8005 132.127 25.2672 132.127 25.3605C132.127 25.4605 132.1 25.5938 132.007 25.5938C131.947 25.5938 131.92 25.5472 131.92 25.4738C131.92 25.3538 131.92 25.2272 131.86 25.0672C131.813 24.8938 131.7 24.7472 131.2 24.6872C130.847 24.6405 129.473 24.6272 129.253 24.6272C129.18 24.6272 129.167 24.6738 129.167 24.7138V25.7538C129.167 26.1805 129.153 27.6272 129.167 27.8738C129.193 28.7072 129.427 28.8672 130.7 28.8672C131.033 28.8672 131.653 28.8672 131.987 28.7338C132.32 28.5872 132.5 28.3672 132.573 27.8738C132.6 27.7272 132.633 27.6805 132.707 27.6805C132.78 27.6805 132.793 27.7805 132.793 27.8738C132.793 27.9605 132.693 28.8072 132.62 29.0738C132.533 29.3938 132.4 29.3938 131.907 29.3938C130.94 29.3938 130.193 29.3672 129.667 29.3472C129.127 29.3205 128.787 29.3205 128.6 29.3205C128.573 29.3205 128.32 29.3205 128.047 29.3338C127.8 29.3472 127.507 29.3605 127.3 29.3605C127.167 29.3605 127.093 29.3338 127.093 29.2605C127.093 29.2138 127.12 29.1605 127.193 29.1605C127.313 29.1605 127.473 29.1138 127.587 29.1005C127.833 29.0538 127.867 28.8072 127.92 28.4405C127.993 27.9272 127.993 26.9472 127.993 25.7472V23.5405Z" fill="#AEADAD"/>
<path d="M135.387 20.4143C135.387 20.8543 135.04 21.2009 134.587 21.2009C134.14 21.2009 133.787 20.8543 133.787 20.4143C133.787 19.9809 134.14 19.6343 134.587 19.6343C135.04 19.6343 135.387 19.9809 135.387 20.4143ZM133.98 20.4143C133.98 20.7609 134.24 21.0343 134.587 21.0343C134.927 21.0343 135.18 20.7609 135.18 20.4143C135.18 20.0676 134.927 19.7876 134.58 19.7876C134.24 19.7943 133.98 20.0743 133.98 20.4143ZM134.46 20.8209H134.28V20.0409C134.353 20.0276 134.453 20.0143 134.58 20.0143C134.727 20.0143 134.793 20.0409 134.853 20.0743C134.893 20.1076 134.927 20.1676 134.927 20.2476C134.927 20.3343 134.86 20.4009 134.767 20.4276V20.4343C134.84 20.4609 134.887 20.5209 134.907 20.6209C134.933 20.7409 134.947 20.7876 134.967 20.8143H134.773C134.747 20.7876 134.733 20.7143 134.713 20.6276C134.7 20.5409 134.653 20.5009 134.553 20.5009H134.467V20.8209H134.46ZM134.467 20.3809H134.553C134.653 20.3809 134.733 20.3476 134.733 20.2676C134.733 20.1943 134.68 20.1476 134.567 20.1476C134.52 20.1476 134.487 20.1543 134.467 20.1543V20.3809Z" fill="#AEADAD"/>
<path d="M14.1267 32.5142C8.84004 32.5142 4.54004 28.2142 4.54004 22.9275C4.54004 17.6408 8.84004 13.3408 14.1267 13.3408C19.4134 13.3408 23.7134 17.6408 23.7134 22.9275C23.7134 28.2142 19.4134 32.5142 14.1267 32.5142ZM14.1267 15.0208C9.76671 15.0208 6.22004 18.5675 6.22004 22.9275C6.22004 27.2875 9.76671 30.8342 14.1267 30.8342C18.4867 30.8342 22.0334 27.2875 22.0334 22.9275C22.0334 18.5675 18.4867 15.0208 14.1267 15.0208Z" fill="#E0E0E0"/>
<path d="M13.7534 34.374C8.46675 34.374 4.16675 30.074 4.16675 24.7874C4.16675 19.5007 8.46675 15.2007 13.7534 15.2007C19.0401 15.2007 23.3401 19.5007 23.3401 24.7874C23.3468 30.074 19.0401 34.374 13.7534 34.374ZM13.7534 16.8807C9.39342 16.8807 5.84675 20.4274 5.84675 24.7874C5.84675 29.1474 9.39342 32.694 13.7534 32.694C18.1134 32.694 21.6601 29.1474 21.6601 24.7874C21.6668 20.4274 18.1134 16.8807 13.7534 16.8807Z" fill="#E0E0E0"/>
<path d="M16.1733 33.6274C10.8867 33.6274 6.58667 29.3274 6.58667 24.0408C6.58667 18.7541 10.8867 14.4541 16.1733 14.4541C21.46 14.4541 25.76 18.7541 25.76 24.0408C25.76 29.3274 21.46 33.6274 16.1733 33.6274ZM16.1733 16.1341C11.8133 16.1341 8.26667 19.6808 8.26667 24.0408C8.26667 28.4008 11.8133 31.9474 16.1733 31.9474C20.5333 31.9474 24.08 28.4008 24.08 24.0408C24.0867 19.6808 20.5333 16.1341 16.1733 16.1341Z" fill="#E0E0E0"/>
<path d="M14.1267 32.5142C8.84004 32.5142 4.54004 28.2142 4.54004 22.9275C4.54004 17.6408 8.84004 13.3408 14.1267 13.3408C19.4134 13.3408 23.7134 17.6408 23.7134 22.9275C23.7134 28.2142 19.4134 32.5142 14.1267 32.5142ZM14.1267 15.0208C9.76671 15.0208 6.22004 18.5675 6.22004 22.9275C6.22004 27.2875 9.76671 30.8342 14.1267 30.8342C18.4867 30.8342 22.0334 27.2875 22.0334 22.9275C22.0334 18.5675 18.4867 15.0208 14.1267 15.0208Z" fill="#C7C7C7"/>
<path opacity="0.82" d="M13.7534 34.374C8.46675 34.374 4.16675 30.074 4.16675 24.7874C4.16675 19.5007 8.46675 15.2007 13.7534 15.2007C19.0401 15.2007 23.3401 19.5007 23.3401 24.7874C23.3468 30.074 19.0401 34.374 13.7534 34.374ZM13.7534 16.8807C9.39342 16.8807 5.84675 20.4274 5.84675 24.7874C5.84675 29.1474 9.39342 32.694 13.7534 32.694C18.1134 32.694 21.6601 29.1474 21.6601 24.7874C21.6668 20.4274 18.1134 16.8807 13.7534 16.8807Z" fill="#959393"/>
<path opacity="0.72" d="M16.1733 33.6274C10.8867 33.6274 6.58667 29.3274 6.58667 24.0408C6.58667 18.7541 10.8867 14.4541 16.1733 14.4541C21.46 14.4541 25.76 18.7541 25.76 24.0408C25.76 29.3274 21.46 33.6274 16.1733 33.6274ZM16.1733 16.1341C11.8133 16.1341 8.26667 19.6808 8.26667 24.0408C8.26667 28.4008 11.8133 31.9474 16.1733 31.9474C20.5333 31.9474 24.08 28.4008 24.08 24.0408C24.0867 19.6808 20.5333 16.1341 16.1733 16.1341Z" fill="#EBEBEB"/>
</svg>
