<svg width="140" height="48" viewBox="0 0 140 48" fill="none" xmlns="http://www.w3.org/2000/svg">
<g clip-path="url(#clip0_358_2483)">
<path d="M32.4734 29.1533C32.2667 29.0533 32.2534 28.9933 32.2534 28.6C32.2534 27.8667 32.3134 27.2867 32.3267 27.0533C32.34 26.8933 32.3734 26.82 32.4467 26.82C32.5334 26.82 32.5467 26.8667 32.5467 26.98C32.5467 27.1133 32.5467 27.3133 32.5934 27.52C32.8134 28.6 33.78 29.0133 34.76 29.0133C36.1667 29.0133 36.8534 28.0067 36.8534 27.0667C36.8534 26.06 36.4267 25.4733 35.1734 24.4333L34.5134 23.8933C32.96 22.62 32.6134 21.7133 32.6134 20.72C32.6134 19.1533 33.78 18.0867 35.64 18.0867C36.2134 18.0867 36.6334 18.1467 37 18.2333C37.28 18.2933 37.3934 18.3067 37.5134 18.3067C37.6334 18.3067 37.66 18.3333 37.66 18.4067C37.66 18.48 37.6 18.96 37.6 19.9533C37.6 20.1867 37.5734 20.2867 37.5 20.2867C37.4134 20.2867 37.4 20.2133 37.38 20.0933C37.3667 19.92 37.28 19.52 37.1867 19.36C37.0934 19.2 36.7067 18.5867 35.36 18.5867C34.3534 18.5867 33.56 19.2133 33.56 20.28C33.56 21.1133 33.94 21.64 35.3467 22.7333L35.7534 23.0533C37.48 24.4133 37.8867 25.32 37.8867 26.4867C37.8867 27.0867 37.6534 28.2 36.6467 28.9133C36.02 29.3533 35.2267 29.5267 34.44 29.5267C33.74 29.5467 33.0667 29.4467 32.4734 29.1533Z" fill="black"/>
<path d="M41.1867 23.5398C41.1867 21.6131 41.1867 21.2598 41.1601 20.8664C41.1334 20.4398 41.0601 20.2398 40.6334 20.1798C40.5334 20.1664 40.3134 20.1531 40.1934 20.1531C40.1467 20.1531 40.0934 20.0931 40.0934 20.0531C40.0934 19.9798 40.1534 19.9531 40.3001 19.9531C40.8867 19.9531 41.7201 19.9798 41.7934 19.9798C41.8801 19.9798 44.5734 19.9931 44.8667 19.9798C45.1134 19.9664 45.3467 19.9198 45.4534 19.9064C45.5134 19.8931 45.5734 19.8464 45.6267 19.8464C45.6734 19.8464 45.6867 19.9064 45.6867 19.9664C45.6867 20.0531 45.6134 20.1998 45.5868 20.5531C45.5734 20.6731 45.5401 21.2264 45.5134 21.3731C45.5001 21.4331 45.4534 21.5064 45.3934 21.5064C45.3201 21.5064 45.2934 21.4464 45.2934 21.3464C45.2934 21.2598 45.2801 21.0531 45.2201 20.9064C45.1334 20.6998 45.0001 20.6131 44.3001 20.5264C44.0801 20.4998 42.5867 20.4798 42.4401 20.4798C42.3801 20.4798 42.3667 20.5264 42.3667 20.6131V23.9931C42.3667 24.0798 42.3667 24.1264 42.4401 24.1264C42.6001 24.1264 44.3001 24.1264 44.5867 24.0998C44.8934 24.0731 45.0867 24.0531 45.2134 23.9264C45.3001 23.8398 45.3601 23.7664 45.4067 23.7664C45.4534 23.7664 45.4801 23.7931 45.4801 23.8664C45.4801 23.9398 45.4067 24.1464 45.3801 24.5531C45.3534 24.7998 45.3201 25.2664 45.3201 25.3598C45.3201 25.4598 45.2934 25.5931 45.2001 25.5931C45.1401 25.5931 45.1134 25.5464 45.1134 25.4731C45.1134 25.3531 45.1134 25.2264 45.0534 25.0664C45.0068 24.8931 44.8934 24.7464 44.3934 24.6864C44.0401 24.6398 42.6667 24.6264 42.4467 24.6264C42.3734 24.6264 42.3601 24.6731 42.3601 24.7131V25.7531C42.3601 26.1798 42.3467 27.6264 42.3601 27.8731C42.3867 28.7064 42.6201 28.8664 43.8934 28.8664C44.2267 28.8664 44.8467 28.8664 45.1801 28.7331C45.5134 28.5864 45.6934 28.3664 45.7668 27.8731C45.7934 27.7264 45.8267 27.6798 45.9001 27.6798C45.9734 27.6798 45.9867 27.7798 45.9867 27.8731C45.9867 27.9598 45.8868 28.8064 45.8134 29.0731C45.7267 29.3931 45.5934 29.3931 45.1001 29.3931C44.1334 29.3931 43.3867 29.3664 42.8601 29.3464C42.3201 29.3198 41.9801 29.3198 41.7934 29.3198C41.7667 29.3198 41.5134 29.3198 41.2401 29.3331C40.9934 29.3464 40.7001 29.3598 40.4934 29.3598C40.3601 29.3598 40.2867 29.3331 40.2867 29.2598C40.2867 29.2131 40.3134 29.1598 40.3867 29.1598C40.5067 29.1598 40.6667 29.1131 40.7801 29.0998C41.0267 29.0531 41.0601 28.8064 41.1134 28.4398C41.1867 27.9264 41.1867 26.9464 41.1867 25.7464V23.5398Z" fill="black"/>
<path d="M50.3401 25.7602C50.3401 27.5869 50.3667 28.3335 50.6001 28.5535C50.8067 28.7602 51.3001 28.8469 52.3134 28.8469C52.9867 28.8469 53.5534 28.8335 53.8601 28.4669C54.0201 28.2735 54.1201 28.0135 54.1667 27.7669C54.1801 27.6802 54.2267 27.6069 54.3001 27.6069C54.3601 27.6069 54.3867 27.6669 54.3867 27.7935C54.3867 27.9269 54.3001 28.6735 54.1934 29.0335C54.1067 29.3269 54.0601 29.3669 53.3734 29.3669C52.4534 29.3669 51.7334 29.3535 51.1334 29.3202C50.5467 29.3069 50.1067 29.2935 49.7267 29.2935C49.6667 29.2935 49.4467 29.2935 49.2001 29.3069C48.9401 29.3202 48.6601 29.3335 48.4534 29.3335C48.3201 29.3335 48.2467 29.3069 48.2467 29.2335C48.2467 29.1869 48.2734 29.1335 48.3467 29.1335C48.4667 29.1335 48.6267 29.1069 48.7401 29.0735C48.9867 29.0135 49.0201 28.7802 49.0734 28.4135C49.1467 27.9002 49.1467 26.9202 49.1467 25.7202V23.5269C49.1467 21.6002 49.1467 21.2469 49.1201 20.8535C49.0934 20.4269 49.0201 20.2269 48.5934 20.1669C48.4934 20.1535 48.2734 20.1402 48.1534 20.1402C48.1067 20.1402 48.0534 20.0802 48.0534 20.0402C48.0534 19.9669 48.1134 19.9402 48.2601 19.9402C48.8467 19.9402 49.6467 19.9669 49.7201 19.9669C49.7801 19.9669 50.7467 19.9402 51.1401 19.9402C51.2734 19.9402 51.3467 19.9669 51.3467 20.0402C51.3467 20.0869 51.2867 20.1269 51.2467 20.1269C51.1601 20.1269 50.9667 20.1402 50.8201 20.1535C50.4401 20.2269 50.3667 20.4135 50.3401 20.8535C50.3267 21.2469 50.3267 21.6002 50.3267 23.5269V25.7602H50.3401Z" fill="black"/>
<path d="M56.7734 23.5398C56.7734 21.6131 56.7734 21.2598 56.7467 20.8664C56.7201 20.4398 56.6467 20.2398 56.2201 20.1798C56.1201 20.1664 55.9001 20.1531 55.7801 20.1531C55.7334 20.1531 55.6801 20.0931 55.6801 20.0531C55.6801 19.9798 55.7401 19.9531 55.8867 19.9531C56.4734 19.9531 57.3067 19.9798 57.3801 19.9798C57.4667 19.9798 60.1601 19.9931 60.4534 19.9798C60.7001 19.9664 60.9334 19.9198 61.0401 19.9064C61.1001 19.8931 61.1601 19.8464 61.2134 19.8464C61.2601 19.8464 61.2734 19.9064 61.2734 19.9664C61.2734 20.0531 61.2001 20.1998 61.1734 20.5531C61.1601 20.6731 61.1267 21.2264 61.1001 21.3731C61.0867 21.4331 61.0401 21.5064 60.9801 21.5064C60.9067 21.5064 60.8801 21.4464 60.8801 21.3464C60.8801 21.2598 60.8667 21.0531 60.8067 20.9064C60.7201 20.6998 60.5867 20.6131 59.8867 20.5264C59.6667 20.4998 58.1734 20.4798 58.0267 20.4798C57.9667 20.4798 57.9534 20.5264 57.9534 20.6131V23.9931C57.9534 24.0798 57.9534 24.1264 58.0267 24.1264C58.1867 24.1264 59.8867 24.1264 60.1734 24.0998C60.4801 24.0731 60.6734 24.0531 60.8001 23.9264C60.8867 23.8398 60.9467 23.7664 60.9934 23.7664C61.0401 23.7664 61.0667 23.7931 61.0667 23.8664C61.0667 23.9398 60.9934 24.1464 60.9667 24.5531C60.9401 24.7998 60.9067 25.2664 60.9067 25.3598C60.9067 25.4598 60.8801 25.5931 60.7867 25.5931C60.7267 25.5931 60.7001 25.5464 60.7001 25.4731C60.7001 25.3531 60.7001 25.2264 60.6401 25.0664C60.5934 24.8931 60.4801 24.7464 59.9801 24.6864C59.6267 24.6398 58.2534 24.6264 58.0334 24.6264C57.9601 24.6264 57.9467 24.6731 57.9467 24.7131V25.7531C57.9467 26.1798 57.9334 27.6264 57.9467 27.8731C57.9734 28.7064 58.2067 28.8664 59.4801 28.8664C59.8134 28.8664 60.4334 28.8664 60.7667 28.7331C61.1001 28.5864 61.2801 28.3664 61.3534 27.8731C61.3801 27.7264 61.4134 27.6798 61.4867 27.6798C61.5601 27.6798 61.5734 27.7798 61.5734 27.8731C61.5734 27.9598 61.4734 28.8064 61.4001 29.0731C61.3134 29.3931 61.1801 29.3931 60.6867 29.3931C59.7201 29.3931 58.9734 29.3664 58.4467 29.3464C57.9067 29.3198 57.5667 29.3198 57.3801 29.3198C57.3534 29.3198 57.1001 29.3198 56.8267 29.3331C56.5801 29.3464 56.2867 29.3598 56.0801 29.3598C55.9467 29.3598 55.8734 29.3331 55.8734 29.2598C55.8734 29.2131 55.9001 29.1598 55.9734 29.1598C56.0934 29.1598 56.2534 29.1131 56.3667 29.0998C56.6134 29.0531 56.6467 28.8064 56.7001 28.4398C56.7734 27.9264 56.7734 26.9464 56.7734 25.7464V23.5398Z" fill="black"/>
<path d="M65.0001 28.1733C63.7401 27.0933 63.4334 25.6733 63.4334 24.4867C63.4334 23.6533 63.7401 22.2067 64.8801 21.0933C65.6534 20.3467 66.8267 19.76 68.8001 19.76C69.3134 19.76 70.0401 19.8067 70.6734 19.9067C71.1534 19.9933 71.5667 20.08 71.9867 20.1C72.1201 20.1 72.1467 20.16 72.1467 20.2333C72.1467 20.3333 72.1201 20.48 72.0867 20.9333C72.0734 21.34 72.0734 22.0267 72.0601 22.2067C72.0467 22.3933 71.9867 22.4667 71.9134 22.4667C71.8267 22.4667 71.8134 22.38 71.8134 22.2067C71.8134 21.7267 71.6067 21.2267 71.2734 20.9667C70.8201 20.5867 69.8867 20.28 68.7467 20.28C67.0934 20.28 66.3067 20.72 65.8534 21.14C64.9001 22.02 64.7001 23.1267 64.7001 24.3867C64.7001 26.7667 66.5867 28.8867 69.3334 28.8867C70.3001 28.8867 70.9401 28.8133 71.4534 28.3C71.7334 28.02 71.9067 27.4933 71.9534 27.26C71.9801 27.1267 72.0001 27.0867 72.0867 27.0867C72.1467 27.0867 72.2067 27.1733 72.2067 27.26C72.2067 27.3467 72.0334 28.4267 71.9001 28.8533C71.8267 29.0867 71.8001 29.1333 71.5801 29.22C71.0534 29.4267 70.0867 29.5 69.2534 29.5C67.3134 29.5 66.0134 29.0467 65.0001 28.1733Z" fill="black"/>
<path d="M78.28 25.7267C78.28 26.9267 78.2801 27.9067 78.3401 28.42C78.3867 28.7867 78.4401 29.02 78.8401 29.08C79.0134 29.1067 79.3067 29.14 79.4267 29.14C79.5134 29.14 79.5267 29.2 79.5267 29.24C79.5267 29.3 79.4667 29.34 79.3201 29.34C78.6201 29.34 77.8 29.2933 77.7267 29.2933C77.6667 29.2933 76.7734 29.34 76.3934 29.34C76.2467 29.34 76.1867 29.3133 76.1867 29.24C76.1867 29.1933 76.2134 29.1533 76.2867 29.1533C76.4067 29.1533 76.5467 29.1267 76.6667 29.0933C76.9267 29.0333 77.0001 28.7867 77.0467 28.42C77.1067 27.9067 77.1067 26.9267 77.1067 25.7267V20.5067L75.2467 20.5333C74.4401 20.5467 74.1334 20.6333 73.9467 20.9267C73.8 21.1467 73.7867 21.2333 73.7401 21.32C73.7134 21.42 73.6667 21.44 73.6067 21.44C73.5801 21.44 73.5201 21.4133 73.5201 21.34C73.5201 21.2067 73.7667 20.1 73.8 19.9933C73.8134 19.92 73.8867 19.76 73.9334 19.76C74.0201 19.76 74.1534 19.86 74.5001 19.9067C74.8667 19.9533 75.3601 19.9667 75.5067 19.9667H80.3601C80.7867 19.9667 81.0734 19.94 81.28 19.9067C81.4734 19.88 81.5867 19.8467 81.6467 19.8467C81.7067 19.8467 81.7067 19.92 81.7067 19.9933C81.7067 20.3733 81.66 21.2667 81.66 21.4133C81.66 21.5133 81.6 21.5733 81.54 21.5733C81.48 21.5733 81.4534 21.5267 81.4401 21.3533L81.4267 21.22C81.3801 20.84 81.1067 20.56 79.8801 20.5333L78.2734 20.5067V25.7267H78.28Z" fill="black"/>
<path d="M91.0734 29.0467C90.5467 29.3267 89.5534 29.5467 88.7801 29.5467C84.7334 29.5467 83.0601 26.4333 83.0601 23.8C83.0601 21.4333 84.7867 18.0867 88.8201 18.0867C92.1067 18.0867 94.5667 20.18 94.5667 23.5667C94.5667 26.14 92.9467 27.8533 91.9801 28.48L94.9801 30.0333C98.1801 31.6867 100.407 31.76 101.133 31.76C101.867 31.76 103.007 31.6 104.013 31.1933C104.1 31.1667 104.173 31.1333 104.22 31.1333C104.28 31.1333 104.307 31.18 104.307 31.22C104.307 31.28 104.28 31.32 104.187 31.3667C103.353 31.7467 101.713 32.3733 99.5534 32.3733C97.7867 32.3733 95.9001 31.7267 93.5267 30.4133L91.0734 29.0467ZM89.1267 28.9933C90.4401 28.9933 93.1601 28.2333 93.1601 23.98C93.1601 20.4733 91.0267 18.5867 88.7134 18.5867C86.2734 18.5867 84.4467 20.1933 84.4467 23.4C84.4467 26.8 86.4934 28.9933 89.1267 28.9933Z" fill="black"/>
<path d="M97.1134 23.5401C97.1134 21.6134 97.1134 21.2601 97.0867 20.8668C97.0601 20.4734 96.9867 20.2401 96.56 20.1801C96.46 20.1668 96.24 20.1534 96.12 20.1534C96.0734 20.1534 96.0201 20.0934 96.0201 20.0534C96.0201 19.9801 96.08 19.9534 96.2267 19.9534C96.8134 19.9534 97.5867 19.9801 97.7067 19.9801C97.8267 19.9801 98.6267 19.9534 99.0067 19.9534C99.1534 19.9534 99.2267 19.9801 99.2267 20.0534C99.2267 20.1001 99.1667 20.1534 99.1067 20.1534C99.0201 20.1534 98.9467 20.1534 98.7867 20.1801C98.4534 20.2401 98.3801 20.4601 98.3467 20.8668C98.3201 21.2601 98.32 21.6134 98.32 23.5401V25.2801C98.32 27.0801 98.7134 27.8268 99.2734 28.3201C99.9001 28.8868 100.46 28.9934 101.187 28.9934C101.973 28.9934 102.733 28.6401 103.173 28.1134C103.773 27.4001 103.907 26.3734 103.907 25.1001V23.5334C103.907 21.6068 103.893 21.2534 103.88 20.8601C103.867 20.4668 103.793 20.2334 103.367 20.1734C103.267 20.1601 103.047 20.1468 102.927 20.1468C102.867 20.1468 102.827 20.0868 102.827 20.0468C102.827 19.9734 102.887 19.9468 103.033 19.9468C103.6 19.9468 104.347 19.9734 104.42 19.9734C104.507 19.9734 105.12 19.9468 105.5 19.9468C105.647 19.9468 105.707 19.9734 105.707 20.0468C105.707 20.0934 105.66 20.1468 105.607 20.1468C105.52 20.1468 105.447 20.1468 105.287 20.1734C104.933 20.2468 104.86 20.4534 104.833 20.8601C104.807 21.2534 104.82 21.6068 104.82 23.5334V24.8668C104.82 26.2134 104.647 27.7201 103.62 28.5934C102.687 29.4001 101.693 29.5001 100.927 29.5001C100.5 29.5001 99.1601 29.4734 98.2534 28.6201C97.6267 28.0334 97.1267 27.1734 97.1267 25.3601V23.5401H97.1134Z" fill="black"/>
<path d="M112.04 19.7668C114.933 19.7668 117.127 21.5335 117.127 24.4335C117.127 27.2135 115.067 29.5068 111.967 29.5068C108.44 29.5068 106.94 26.8602 106.94 24.6268C106.933 22.6135 108.487 19.7668 112.04 19.7668ZM112.333 28.9935C113.487 28.9935 115.813 28.3802 115.813 24.7802C115.813 21.8002 114 20.2335 111.967 20.2335C109.82 20.2335 108.267 21.5802 108.267 24.2802C108.267 27.1802 110.007 28.9935 112.333 28.9935Z" fill="black"/>
<path d="M122.32 25.7267C122.32 26.9267 122.32 27.9067 122.38 28.42C122.427 28.7867 122.48 29.02 122.88 29.08C123.053 29.1067 123.347 29.14 123.467 29.14C123.553 29.14 123.567 29.2 123.567 29.24C123.567 29.3 123.507 29.34 123.36 29.34C122.66 29.34 121.84 29.2933 121.767 29.2933C121.707 29.2933 120.813 29.34 120.433 29.34C120.287 29.34 120.227 29.3133 120.227 29.24C120.227 29.1933 120.253 29.1533 120.327 29.1533C120.447 29.1533 120.587 29.1267 120.707 29.0933C120.967 29.0333 121.04 28.7867 121.087 28.42C121.147 27.9067 121.147 26.9267 121.147 25.7267V20.5067L119.287 20.5333C118.48 20.5467 118.173 20.6333 117.987 20.9267C117.84 21.1467 117.827 21.2333 117.78 21.32C117.753 21.42 117.707 21.44 117.647 21.44C117.62 21.44 117.56 21.4133 117.56 21.34C117.56 21.2067 117.807 20.1 117.84 19.9933C117.853 19.92 117.927 19.76 117.973 19.76C118.06 19.76 118.193 19.86 118.54 19.9067C118.907 19.9533 119.4 19.9667 119.547 19.9667H124.4C124.827 19.9667 125.113 19.94 125.32 19.9067C125.513 19.88 125.627 19.8467 125.687 19.8467C125.747 19.8467 125.747 19.92 125.747 19.9933C125.747 20.3733 125.7 21.2667 125.7 21.4133C125.7 21.5133 125.64 21.5733 125.58 21.5733C125.52 21.5733 125.493 21.5267 125.48 21.3533L125.467 21.22C125.42 20.84 125.147 20.56 123.92 20.5333L122.313 20.5067V25.7267H122.32Z" fill="black"/>
<path d="M127.993 23.5398C127.993 21.6131 127.993 21.2598 127.967 20.8664C127.94 20.4398 127.867 20.2398 127.44 20.1798C127.34 20.1664 127.12 20.1531 127 20.1531C126.953 20.1531 126.9 20.0931 126.9 20.0531C126.9 19.9798 126.96 19.9531 127.107 19.9531C127.693 19.9531 128.527 19.9798 128.6 19.9798C128.687 19.9798 131.38 19.9931 131.673 19.9798C131.92 19.9664 132.153 19.9198 132.26 19.9064C132.32 19.8931 132.38 19.8464 132.433 19.8464C132.48 19.8464 132.493 19.9064 132.493 19.9664C132.493 20.0531 132.42 20.1998 132.393 20.5531C132.38 20.6731 132.347 21.2264 132.32 21.3731C132.307 21.4331 132.26 21.5064 132.2 21.5064C132.127 21.5064 132.1 21.4464 132.1 21.3464C132.1 21.2598 132.087 21.0531 132.027 20.9064C131.94 20.6998 131.807 20.6131 131.107 20.5264C130.887 20.4998 129.393 20.4798 129.247 20.4798C129.187 20.4798 129.173 20.5264 129.173 20.6131V23.9931C129.173 24.0798 129.173 24.1264 129.247 24.1264C129.407 24.1264 131.107 24.1264 131.393 24.0998C131.7 24.0731 131.893 24.0531 132.02 23.9264C132.107 23.8398 132.167 23.7664 132.213 23.7664C132.26 23.7664 132.287 23.7931 132.287 23.8664C132.287 23.9398 132.213 24.1464 132.187 24.5531C132.16 24.7998 132.127 25.2664 132.127 25.3598C132.127 25.4598 132.1 25.5931 132.007 25.5931C131.947 25.5931 131.92 25.5464 131.92 25.4731C131.92 25.3531 131.92 25.2264 131.86 25.0664C131.813 24.8931 131.7 24.7464 131.2 24.6864C130.847 24.6398 129.473 24.6264 129.253 24.6264C129.18 24.6264 129.167 24.6731 129.167 24.7131V25.7531C129.167 26.1798 129.153 27.6264 129.167 27.8731C129.193 28.7064 129.427 28.8664 130.7 28.8664C131.033 28.8664 131.653 28.8664 131.987 28.7331C132.32 28.5864 132.5 28.3664 132.573 27.8731C132.6 27.7264 132.633 27.6798 132.707 27.6798C132.78 27.6798 132.793 27.7798 132.793 27.8731C132.793 27.9598 132.693 28.8064 132.62 29.0731C132.533 29.3931 132.4 29.3931 131.907 29.3931C130.94 29.3931 130.193 29.3664 129.667 29.3464C129.127 29.3198 128.787 29.3198 128.6 29.3198C128.573 29.3198 128.32 29.3198 128.047 29.3331C127.8 29.3464 127.507 29.3598 127.3 29.3598C127.167 29.3598 127.093 29.3331 127.093 29.2598C127.093 29.2131 127.12 29.1598 127.193 29.1598C127.313 29.1598 127.473 29.1131 127.587 29.0998C127.833 29.0531 127.867 28.8064 127.92 28.4398C127.993 27.9264 127.993 26.9464 127.993 25.7464V23.5398Z" fill="black"/>
<path d="M135.387 20.4135C135.387 20.8535 135.04 21.2002 134.587 21.2002C134.14 21.2002 133.787 20.8535 133.787 20.4135C133.787 19.9802 134.14 19.6335 134.587 19.6335C135.04 19.6335 135.387 19.9802 135.387 20.4135ZM133.98 20.4135C133.98 20.7602 134.24 21.0335 134.587 21.0335C134.927 21.0335 135.18 20.7602 135.18 20.4135C135.18 20.0669 134.927 19.7869 134.58 19.7869C134.24 19.7935 133.98 20.0735 133.98 20.4135ZM134.46 20.8202H134.28V20.0402C134.353 20.0269 134.453 20.0135 134.58 20.0135C134.727 20.0135 134.793 20.0402 134.853 20.0735C134.893 20.1069 134.927 20.1669 134.927 20.2469C134.927 20.3335 134.86 20.4002 134.767 20.4269V20.4335C134.84 20.4602 134.887 20.5202 134.907 20.6202C134.933 20.7402 134.947 20.7869 134.967 20.8135H134.773C134.747 20.7869 134.733 20.7135 134.713 20.6269C134.7 20.5402 134.653 20.5002 134.553 20.5002H134.467V20.8202H134.46ZM134.467 20.3802H134.553C134.653 20.3802 134.733 20.3469 134.733 20.2669C134.733 20.1935 134.68 20.1469 134.567 20.1469C134.52 20.1469 134.487 20.1535 134.467 20.1535V20.3802Z" fill="black"/>
<path d="M14.1267 32.5137C8.84001 32.5137 4.54001 28.2137 4.54001 22.927C4.54001 17.6403 8.84001 13.3403 14.1267 13.3403C19.4133 13.3403 23.7133 17.6403 23.7133 22.927C23.7133 28.2137 19.4133 32.5137 14.1267 32.5137ZM14.1267 15.0203C9.76668 15.0203 6.22001 18.567 6.22001 22.927C6.22001 27.287 9.76668 30.8337 14.1267 30.8337C18.4867 30.8337 22.0333 27.287 22.0333 22.927C22.0333 18.567 18.4867 15.0203 14.1267 15.0203Z" fill="white"/>
<path d="M13.7534 34.3738C8.46672 34.3738 4.16672 30.0738 4.16672 24.7871C4.16672 19.5004 8.46672 15.2004 13.7534 15.2004C19.0401 15.2004 23.3401 19.5004 23.3401 24.7871C23.3467 30.0738 19.0401 34.3738 13.7534 34.3738ZM13.7534 16.8804C9.39339 16.8804 5.84672 20.4271 5.84672 24.7871C5.84672 29.1471 9.39339 32.6938 13.7534 32.6938C18.1134 32.6938 21.6601 29.1471 21.6601 24.7871C21.6667 20.4271 18.1134 16.8804 13.7534 16.8804Z" fill="white"/>
<path d="M16.1734 33.6269C10.8867 33.6269 6.58673 29.3269 6.58673 24.0403C6.58673 18.7536 10.8867 14.4536 16.1734 14.4536C21.4601 14.4536 25.7601 18.7536 25.7601 24.0403C25.7601 29.3269 21.4601 33.6269 16.1734 33.6269ZM16.1734 16.1336C11.8134 16.1336 8.26673 19.6803 8.26673 24.0403C8.26673 28.4003 11.8134 31.9469 16.1734 31.9469C20.5334 31.9469 24.0801 28.4003 24.0801 24.0403C24.0867 19.6803 20.5334 16.1336 16.1734 16.1336Z" fill="white"/>
<path d="M14.1267 32.5137C8.84001 32.5137 4.54001 28.2137 4.54001 22.927C4.54001 17.6403 8.84001 13.3403 14.1267 13.3403C19.4133 13.3403 23.7133 17.6403 23.7133 22.927C23.7133 28.2137 19.4133 32.5137 14.1267 32.5137ZM14.1267 15.0203C9.76668 15.0203 6.22001 18.567 6.22001 22.927C6.22001 27.287 9.76668 30.8337 14.1267 30.8337C18.4867 30.8337 22.0333 27.287 22.0333 22.927C22.0333 18.567 18.4867 15.0203 14.1267 15.0203Z" fill="#72644F"/>
<path opacity="0.82" d="M13.7534 34.3738C8.46672 34.3738 4.16672 30.0738 4.16672 24.7871C4.16672 19.5004 8.46672 15.2004 13.7534 15.2004C19.0401 15.2004 23.3401 19.5004 23.3401 24.7871C23.3467 30.0738 19.0401 34.3738 13.7534 34.3738ZM13.7534 16.8804C9.39339 16.8804 5.84672 20.4271 5.84672 24.7871C5.84672 29.1471 9.39339 32.6938 13.7534 32.6938C18.1134 32.6938 21.6601 29.1471 21.6601 24.7871C21.6667 20.4271 18.1134 16.8804 13.7534 16.8804Z" fill="#FBCE64"/>
<path opacity="0.72" d="M16.1734 33.6269C10.8867 33.6269 6.58673 29.3269 6.58673 24.0403C6.58673 18.7536 10.8867 14.4536 16.1734 14.4536C21.4601 14.4536 25.7601 18.7536 25.7601 24.0403C25.7601 29.3269 21.4601 33.6269 16.1734 33.6269ZM16.1734 16.1336C11.8134 16.1336 8.26673 19.6803 8.26673 24.0403C8.26673 28.4003 11.8134 31.9469 16.1734 31.9469C20.5334 31.9469 24.0801 28.4003 24.0801 24.0403C24.0867 19.6803 20.5334 16.1336 16.1734 16.1336Z" fill="#E16841"/>
</g>
<defs>
<clipPath id="clip0_358_2483">
<rect width="132" height="22" fill="white" transform="translate(4 12.9998)"/>
</clipPath>
</defs>
</svg>
