<svg width="2042" height="529" viewBox="0 0 2042 529" fill="none" xmlns="http://www.w3.org/2000/svg">
<path fill-rule="evenodd" clip-rule="evenodd" d="M1901.75 428.46C1889.13 465.981 1863.19 504.554 1823.83 517.575C1800.25 527.069 1776.08 527.199 1749.36 527.964L0.100586 528.755C46.7917 385.478 91.8746 240.943 139.435 98.7425C151.082 65.1768 169.577 33.4268 202.987 14.5169C228.537 -0.398316 258.731 0.84673 289.78 0.198242H2041.48L1901.75 428.46Z" fill="#CF4037"/>
<path fill-rule="evenodd" clip-rule="evenodd" d="M1883.47 421.651C1872.81 455.242 1848.84 490.857 1812.92 500.883C1774.52 511.44 1733.61 505.747 1691.71 507.446L27.7266 507.42L153.339 118.379C164.493 84.3201 179.019 48.6403 214.906 30.2103C238.485 17.2794 241.585 18.9784 294.19 18.758L2015.11 17.6426L1883.47 421.651Z" fill="white"/>
<path fill-rule="evenodd" clip-rule="evenodd" d="M1672.37 180.323C1661.26 214.135 1646.28 257.116 1607.17 269.204L1606.67 269.658C1618.75 279.814 1628.88 293.821 1625.03 311.68L1616.82 342.613L1582.04 459.017C1582.04 462.869 1584.21 469.626 1584.21 469.626L1499.68 469.704C1497.02 465.774 1495.58 459.017 1496.54 452.727L1536.16 323.768C1538.08 315.558 1537.12 306.389 1530.36 301.071C1526.49 298.633 1522.63 298.179 1517.8 297.699L1516.36 300.111L1460.52 469.808H1367.79L1500.07 68.3027L1638.56 68.7437C1653.53 69.7035 1668.99 73.5684 1678.15 86.616C1684.94 96.7584 1688.79 109.313 1685.88 122.361C1682.99 142.165 1678.14 161.49 1672.37 180.323ZM1590.73 137.821C1587.83 130.091 1578.66 131.05 1571.43 130.091L1537.61 234.899H1549.7C1558.39 234.419 1564.67 227.649 1568.52 220.399C1578.2 199.155 1583.97 176.445 1591.22 153.747C1592.68 148.923 1593.64 142.645 1590.73 137.821ZM1891.34 220.049H1807.8C1815.05 195.419 1824.22 171.27 1831.94 146.147C1831.94 141.322 1832.9 135.525 1829.52 131.66C1825.65 127.808 1819.85 126.835 1814.08 128.275L1806.8 131.66C1794.74 149.052 1788.94 168.844 1787.5 190.582C1787.5 202.177 1788.46 214.731 1798.14 222.461C1819.37 241.786 1844.01 261.098 1859.47 286.234C1871.56 304.093 1862.36 328.256 1858.49 347.075C1850.78 376.049 1841.61 404.077 1828.06 430.159C1817.93 447.059 1801.51 463.465 1783.15 470.236C1739.67 483.763 1692.36 476.993 1646.46 474.594C1632.93 473.154 1618.95 471.675 1606.86 466.864C1623.28 414.219 1640.65 361.562 1658.05 309.398H1744.99L1714.08 408.902C1713.6 412.754 1714.56 416.632 1716.97 419.031C1720.85 421.949 1727.13 422.429 1731.46 420.471C1742.58 416.139 1746.43 403.571 1750.79 393.922C1757.54 372.184 1765.75 350.94 1766.23 326.764C1762.38 303.587 1736.78 294.418 1722.76 276.532C1707.31 258.686 1687.01 243.213 1687.97 218.104C1688.93 194.434 1697.14 173.669 1704.39 152.425C1715.51 123.93 1730.01 89.625 1761.39 76.5904C1804.87 60.6505 1854.13 65.4753 1899.04 69.8332C1912.09 70.8059 1925.14 74.6709 1937.69 77.0832C1922.75 124.903 1906.79 172.229 1891.34 220.049ZM1383.92 126.615C1371.83 161.867 1349.14 232.746 1349.14 232.746L1404.31 232.539L1381.96 298.555H1327.88C1315.86 334.643 1304.27 370.87 1293.1 407.229L1365.67 406.995L1344.49 469.821H1175.46L1302.27 80.7148C1255.51 135.771 1209.14 191.157 1163.16 246.87L1164.12 247.843C1177.68 249.283 1189.74 253.641 1198.91 263.29C1208.08 273.899 1212.44 287.907 1209.06 301.927C1198.91 344.909 1183.93 385.971 1172.36 428.486C1170.41 441.534 1163.16 454.879 1168.96 469.834L1082.03 469.989C1075.27 454.101 1082.51 438.628 1085.88 424.141C1097.49 385.024 1111.97 346.88 1121.62 306.778C1122.13 301.94 1121.14 297.608 1117.77 294.21C1116.29 293.026 1114.58 292.158 1112.75 291.661C1110.92 291.163 1109.01 291.046 1107.13 291.318C1102.8 291.318 1100.88 295.65 1099.43 299.048L1045.8 469.432L954.507 469.535C978.176 396.606 1086.98 68.5492 1086.98 68.5492L1176.68 68.3157C1176.68 68.3157 1147.7 156.095 1133.7 200.037L1134.18 200.516L1237.53 68.3157H1476.15L1457.79 126.472L1383.92 126.615ZM997.774 232.305L914.936 232.383C914.936 232.383 934.261 172.969 942.951 143.022C943.431 139.157 943.431 134.332 941.018 131.427C937.153 126.109 930.396 125.149 924.106 127.082C913.004 131.906 911.071 144.461 907.206 154.603L828 397.06C827.52 401.898 828 406.256 831.385 409.628C835.237 413.026 841.527 414.466 846.352 412.066C855.534 408.668 858.907 399.019 861.812 390.809L895.611 291.785L979.655 291.603C979.655 291.603 951.64 382.599 935.221 424.115C912.524 477.265 849.244 473.387 800.465 474.347C775.342 472.907 740.57 474.347 730.908 444.4C728.975 422.183 736.226 401.418 741.05 381.12C765.98 296.833 793.685 213.392 824.122 130.934C833.784 107.744 847.792 79.742 874.833 71.0393C909.605 58.9644 951.627 61.3768 989.305 63.3093C1010.07 64.2691 1031.33 69.1068 1049.69 77.3167C1033.29 129.027 997.774 232.305 997.774 232.305ZM585.154 470.041L719.702 67.317H814.848L680.287 469.847L585.154 470.041ZM551.925 470.716H450.982L472.122 262.875L402.682 471.533L344.24 471.403C344.24 471.403 440.722 175.926 477.92 68.0174H580.316C580.316 68.0174 564.376 209.258 558.099 277.842H558.579C582.381 207.947 606.046 138.005 629.575 68.0174H687.057L551.925 470.716ZM395.704 215.107L309.974 215.159L335.33 140.181C335.81 135.836 336.783 130.519 334.357 126.654C331.945 121.829 325.616 120.649 321.31 120.869C315.045 122.309 308.755 124.721 305.37 131.491C296.187 147.431 293.295 165.783 290.403 184.136C289.43 195.731 291.376 207.326 299.585 215.535C321.31 234.368 343.54 252.72 360.44 275.923C367.197 286.052 371.062 298.62 368.17 312.121C361.397 346.44 351.038 379.952 337.263 412.105C328.573 434.828 308.768 455.58 285.578 464.775C240.664 479.743 187.047 471.533 139.707 469.107C129.085 467.668 117.49 466.215 107.348 462.35V459.458C124.817 407.801 142.205 356.116 159.512 304.404L246.941 303.924L215.062 403.908C214.582 408.266 215.541 412.118 218.927 414.544C222.312 416.463 226.177 417.436 230.521 416.463C243.076 414.051 247.914 399.563 252.259 389.408C259.016 367.191 268.692 345.454 268.199 321.317C264.814 298.62 239.704 288.944 225.217 272.525C212.662 257.545 195.75 244.99 191.405 225.678C186.58 195.251 199.628 169.169 207.837 142.607C213.635 126.187 222.325 111.22 231.987 96.7195C249.367 73.0496 275.462 62.9073 303.463 60.4949C338.715 55.6572 375.433 58.0695 410.205 62.4144C421.8 64.8268 431.942 65.7996 442.564 69.6646C427.555 118.34 411.934 166.825 395.704 215.107ZM1966.27 61.2601H1961.27V37.8756H1969.99C1976.02 37.8756 1979.59 39.6006 1979.59 44.9441C1979.59 49.2501 1977.06 50.8065 1973.96 51.027L1979.94 61.2601H1974.01L1968.61 51.429H1966.25L1966.27 61.2601ZM1970.7 47.4733C1972.93 47.4733 1974.24 47.0064 1974.24 44.4254C1974.24 42.013 1971.66 41.8314 1969.75 41.8314H1966.25V47.4733H1970.7ZM1969.9 71.3247C1958.34 71.3247 1948.06 63.3353 1948.06 49.6003C1948.06 35.8653 1958.34 27.876 1969.9 27.876C1981.4 27.876 1991.69 35.8653 1991.69 49.6003C1991.69 63.3353 1981.39 71.3247 1969.9 71.3247ZM1969.9 32.9342C1961.28 32.9342 1954.32 39.6136 1954.32 49.6003C1954.32 59.587 1961.28 66.3183 1969.9 66.2665V66.3313C1978.28 66.3313 1985.42 59.6 1985.42 49.6132C1985.42 39.6265 1978.28 32.9342 1969.9 32.9342Z" fill="#2D509F"/>
</svg>
