<svg width="523" height="122" viewBox="0 0 523 122" fill="none" xmlns="http://www.w3.org/2000/svg">
<g clip-path="url(#clip0_2161_1574)">
<path d="M57.3057 50.9481L41.967 48.2066C32.6297 46.4241 25.6607 41.9086 25.6607 33.6754C25.6607 23.1844 37.6125 19.1526 48.2655 19.1526C59.2411 19.1526 73.7734 25.2384 73.3829 39.7272H95.2323C94.1033 17.2938 73.4423 0.750977 49.2332 0.750977C27.6045 0.750977 2.54654 11.0807 2.54654 34.643C2.54654 55.0138 18.5304 64.8258 37.5785 68.5435L52.4588 71.2851C64.8859 73.5428 74.0874 77.2266 74.0874 87.2592C74.0874 99.8552 61.0152 103.564 50.6847 103.564C36.7976 103.564 22.8425 96.859 21.5777 78.9496H0C2.09665 104.133 21.1448 121.966 49.8783 121.966C73.4423 121.966 97.3374 110.185 97.3374 86.1303C97.3374 61.923 76.3454 54.3348 57.3057 50.9481Z" fill="black"/>
<path d="M99.5952 21.5717H135.586V119.87H158.675V21.5717H194.827V2.84747H99.5952V21.5717Z" fill="black"/>
<path d="M278.116 70.4787C278.116 91.1381 274.246 103.581 252.94 103.581C231.634 103.581 227.432 91.1551 227.432 70.4787V2.84747H204.352V70.3514C204.352 108.929 218.714 122 252.94 122C287.165 122 301.197 108.929 301.197 70.3514V2.84747H278.116V70.4787Z" fill="black"/>
<path d="M350.438 2.84747H315.771V119.87H350.481C387.601 119.87 415.528 107.757 415.528 61.3033C415.486 14.9512 387.559 2.84747 350.438 2.84747ZM349.462 101.756H338.809V20.9266H349.462C370.768 20.9266 391.591 26.257 391.591 61.2779C391.591 96.46 370.768 101.756 349.462 101.756Z" fill="black"/>
<path d="M482.994 50.9481L467.664 48.2066C458.327 46.4241 451.358 41.9086 451.358 33.6754C451.358 23.1844 463.31 19.1526 473.954 19.1526C484.93 19.1526 499.471 25.2384 499.08 39.7272H520.929C519.758 17.2938 499.123 0.750977 474.888 0.750977C453.251 0.750977 428.201 11.0807 428.201 34.643C428.201 55.0138 444.185 64.8258 463.233 68.5435L478.08 71.2851C490.507 73.5428 499.708 77.2266 499.708 87.2592C499.708 99.8552 486.636 103.564 476.306 103.564C462.418 103.564 448.463 96.859 447.199 78.9496H425.655C427.751 104.133 446.8 121.966 475.533 121.966C499.097 121.966 522.984 110.185 522.984 86.1303C522.984 61.923 502 54.3348 482.994 50.9481Z" fill="black"/>
</g>
<defs>
<clipPath id="clip0_2161_1574">
<rect width="523" height="122" fill="white"/>
</clipPath>
</defs>
</svg>
