<svg width="140" height="48" viewBox="0 0 140 48" fill="none" xmlns="http://www.w3.org/2000/svg">
<g clip-path="url(#clip0_575_2265)">
<path fill-rule="evenodd" clip-rule="evenodd" d="M31.0032 34.997C27.1485 34.9083 24.3545 33.0872 22.6671 29.6157C21.7753 27.781 21.8497 25.82 22.4659 23.9168C23.7895 19.8283 26.3828 16.7947 30.1575 14.8062C31.0192 14.3524 31.9505 14.0876 32.9323 14.0142C34.3331 13.9095 35.5244 14.3892 36.564 15.3C37.9618 16.5247 38.8644 18.0888 39.5248 19.8065C40.2837 21.7804 40.6441 23.8284 40.5258 25.9467C40.3884 28.4074 39.631 30.6166 37.8134 32.3505C36.264 33.8285 34.3939 34.6331 32.2981 34.9331C32.0944 34.9621 31.8888 34.985 31.6834 34.9946C31.457 35.0051 31.2299 34.997 31.0032 34.997ZM31.1422 24.3493C31.9449 24.3493 32.748 24.3428 33.551 24.3536C33.7729 24.3566 33.865 24.2974 33.859 24.0578C33.8452 23.497 33.8455 22.935 33.8589 22.3742C33.8646 22.1372 33.7775 22.0751 33.5527 22.0763C31.9467 22.0843 30.3407 22.0852 28.7349 22.0759C28.4822 22.0745 28.418 22.1745 28.4228 22.4081C28.4341 22.9483 28.439 23.4895 28.421 24.0292C28.4121 24.3001 28.5193 24.3583 28.7641 24.3541C29.5565 24.3413 30.3493 24.3493 31.1422 24.3493ZM33.9493 28.3132C32.8178 28.3132 31.7364 28.3098 30.6553 28.3225C30.5926 28.323 30.4794 28.4568 30.4778 28.5307C30.4634 29.1447 30.4634 29.7593 30.478 30.3732C30.4797 30.4456 30.5955 30.576 30.6597 30.5768C31.6906 30.5897 32.7222 30.5892 33.7533 30.5787C33.8191 30.5779 33.9395 30.4719 33.9407 30.4129C33.954 29.7279 33.9493 29.0426 33.9493 28.3132ZM29.4113 27.4852C30.1331 27.4852 30.811 27.4902 31.4882 27.4759C31.5419 27.4749 31.637 27.3411 31.6385 27.2677C31.6505 26.6537 31.6424 26.0394 31.6472 25.425C31.6486 25.2642 31.5859 25.2024 31.4281 25.2037C30.8301 25.2081 30.2317 25.1989 29.6342 25.2141C29.5583 25.2162 29.4224 25.3313 29.421 25.3965C29.4054 26.0799 29.4113 26.7639 29.4113 27.4852ZM30.5257 21.217C30.8245 21.217 31.1235 21.2139 31.4223 21.2183C31.5722 21.2205 31.6491 21.173 31.6474 21.0048C31.6416 20.3907 31.6421 19.7767 31.6473 19.1628C31.6486 19.001 31.5854 18.9418 31.428 18.943C30.8302 18.9476 30.2322 18.937 29.6349 18.9543C29.5582 18.9564 29.4223 19.0864 29.4201 19.1605C29.4026 19.7739 29.4128 20.388 29.4082 21.002C29.407 21.1636 29.4716 21.223 29.6291 21.2191C29.9277 21.2118 30.2268 21.217 30.5257 21.217Z" fill="#3E5EE2"/>
<path fill-rule="evenodd" clip-rule="evenodd" d="M92.0192 27.2425C92.0588 27.1183 92.1058 26.9958 92.1361 26.8694C92.5255 25.2431 92.9175 23.6172 93.2944 21.9878C93.3429 21.7785 93.4061 21.6892 93.6316 21.6944C94.2605 21.709 94.8895 21.6986 95.5185 21.7007C95.5984 21.7008 95.6787 21.7152 95.7998 21.7271C95.6401 22.2881 95.506 22.8313 95.3316 23.3606C94.5998 25.5788 93.8539 27.7922 93.1211 30.0099C93.0496 30.2263 92.9363 30.2963 92.7186 30.2881C92.3277 30.2731 91.933 30.2589 91.5442 30.2917C91.2289 30.3182 91.1161 30.1749 91.0352 29.9017C90.6156 28.4766 90.1823 27.0556 89.7538 25.6333C89.736 25.5745 89.7157 25.5164 89.6744 25.3887C89.6259 25.5102 89.5941 25.5747 89.5742 25.643C89.1556 27.0783 88.7338 28.5127 88.3246 29.9507C88.2541 30.1976 88.1456 30.3092 87.8752 30.2902C87.5161 30.2649 87.1512 30.2565 86.7936 30.2918C86.4507 30.3258 86.2988 30.1793 86.1981 29.8719C85.5472 27.8883 84.8785 25.9105 84.2323 23.9255C83.9979 23.2073 83.809 22.4738 83.5866 21.7035C84.4045 21.7035 85.1755 21.6979 85.946 21.7143C86.006 21.7157 86.0942 21.8632 86.1161 21.9557C86.4497 23.3712 86.7722 24.7894 87.1037 26.2057C87.183 26.5478 87.2838 26.8847 87.3997 27.3151C87.4628 27.1657 87.5004 27.1009 87.5187 27.0308C87.9467 25.3711 88.3805 23.7126 88.7913 22.0484C88.8591 21.7736 88.9572 21.6722 89.2386 21.6931C89.5977 21.7194 89.9605 21.7091 90.3206 21.6959C90.5237 21.6885 90.5973 21.7619 90.6458 21.9652C91.042 23.6223 91.4539 25.2758 91.8621 26.9302C91.8866 27.0304 91.92 27.1287 91.9497 27.2278C91.9727 27.2327 91.9962 27.2377 92.0192 27.2425Z" fill="#3E5EE2"/>
<path fill-rule="evenodd" clip-rule="evenodd" d="M116.985 26.777C116.037 26.777 115.142 26.777 114.246 26.777C113.362 26.777 112.477 26.777 111.557 26.777C111.597 27.3234 111.831 27.7143 112.231 28.0081C112.691 28.346 113.225 28.4595 113.779 28.4577C114.18 28.4563 114.584 28.4311 114.979 28.3709C115.373 28.3112 115.759 28.1949 116.194 28.0924C116.25 28.4052 116.31 28.7258 116.365 29.0472C116.396 29.2315 116.391 29.4267 116.45 29.6005C116.562 29.9268 116.444 30.064 116.133 30.15C114.866 30.5003 113.587 30.684 112.289 30.3861C110.464 29.9671 109.379 28.7043 109.164 26.8229C109.041 25.7569 109.142 24.7238 109.6 23.7465C110.933 20.9022 114.539 20.947 116.001 22.6098C116.626 23.3209 116.9 24.1679 116.977 25.0847C117.023 25.6294 116.985 26.1812 116.985 26.777ZM114.703 25.1307C114.778 24.1986 114.114 23.4602 113.217 23.4538C112.278 23.447 111.528 24.2232 111.598 25.1307C112.634 25.1307 113.67 25.1307 114.703 25.1307Z" fill="#3E5EE2"/>
<path fill-rule="evenodd" clip-rule="evenodd" d="M82.6523 26.778C80.8071 26.778 79.0266 26.778 77.2091 26.778C77.2456 27.3022 77.4638 27.6786 77.8381 27.9692C78.3742 28.3852 79.0052 28.5071 79.6509 28.4563C80.3738 28.3999 81.091 28.2624 81.8594 28.153C81.9257 28.5507 82.0071 29.0167 82.0807 29.4839C82.1668 30.0314 82.1668 30.0435 81.6313 30.19C80.5169 30.4948 79.3857 30.6266 78.2353 30.4496C76.28 30.1485 74.9912 28.7428 74.8101 26.7482C74.7083 25.6247 74.8315 24.5488 75.3613 23.5387C76.6829 21.0189 79.9213 20.9913 81.4209 22.3765C82.2947 23.1838 82.5896 24.2369 82.6486 25.3807C82.6721 25.8342 82.6523 26.2896 82.6523 26.778ZM77.2342 25.1233C78.2765 25.1233 79.3189 25.1233 80.3598 25.1233C80.4005 24.1738 79.7725 23.4693 78.8904 23.4481C77.9425 23.4254 77.2482 24.1222 77.2342 25.1233Z" fill="#3E5EE2"/>
<path fill-rule="evenodd" clip-rule="evenodd" d="M56.0877 25.0553C56.267 24.3178 55.8233 23.6359 55.0575 23.5157C54.2623 23.3909 53.4765 23.4908 52.6982 23.6686C52.5603 23.7002 52.4244 23.74 52.2502 23.7856C52.1493 23.1349 52.0532 22.5157 51.9487 21.8417C52.4727 21.7443 52.963 21.636 53.4588 21.565C54.3183 21.4421 55.1797 21.4071 56.0386 21.5907C57.3895 21.8796 58.1395 22.6868 58.3163 24.0684C58.3572 24.3869 58.3773 24.7104 58.3786 25.0317C58.385 26.6033 58.3797 28.175 58.3838 29.7465C58.3842 29.9274 58.3768 30.0555 58.1505 30.1017C56.6688 30.4047 55.1808 30.5852 53.6692 30.3868C53.4454 30.3573 53.2205 30.3131 53.0048 30.2474C51.1807 29.6915 50.51 27.3674 51.7701 25.9402C52.2748 25.3684 52.963 25.1387 53.6914 25.0392C54.0877 24.9849 54.4913 24.9615 54.8915 24.9652C55.2899 24.9686 55.6878 25.0231 56.0877 25.0553ZM56.1307 27.6229C56.1307 27.3733 56.1421 27.1232 56.1241 26.8752C56.1182 26.7949 56.0457 26.6625 55.9858 26.6514C55.3741 26.5384 54.757 26.5009 54.156 26.7022C53.6876 26.8587 53.4762 27.1955 53.5009 27.6734C53.5252 28.1428 53.7473 28.4518 54.2448 28.5287C54.7266 28.603 55.2231 28.5898 55.7132 28.5944C56.1304 28.5987 56.1306 28.5859 56.131 28.1527C56.1314 27.9761 56.131 27.7995 56.1307 27.6229Z" fill="#3E5EE2"/>
<path fill-rule="evenodd" clip-rule="evenodd" d="M66.1793 21.8925C66.0386 22.5377 65.9087 23.1332 65.7797 23.7233C65.2522 23.6178 64.7554 23.486 64.2505 23.4284C63.898 23.388 63.5307 23.4224 63.1769 23.4727C62.9134 23.51 62.6967 23.6648 62.6524 23.9704C62.6075 24.2794 62.7351 24.5037 63.0063 24.6314C63.4445 24.8376 63.8986 25.0103 64.3303 25.2289C64.8162 25.4751 65.3059 25.7245 65.7562 26.0294C66.826 26.7539 66.9815 29.2562 65.3316 30.0536C64.4242 30.4922 63.4633 30.5836 62.4944 30.5048C61.7823 30.447 61.0819 30.2459 60.3758 30.1108C60.1622 30.0701 60.0918 29.9632 60.1436 29.7383C60.2668 29.2028 60.369 28.6624 60.4888 28.0797C60.6096 28.1169 60.7124 28.1459 60.8135 28.1799C61.7115 28.4814 62.6242 28.664 63.5764 28.5323C63.8663 28.4922 64.1244 28.4098 64.1986 28.0718C64.275 27.7237 64.0863 27.5102 63.816 27.366C63.4888 27.1915 63.1475 27.0432 62.8093 26.8907C62.4334 26.7208 62.0441 26.5781 61.6779 26.3898C60.6059 25.8381 60.2149 24.9118 60.3349 23.7469C60.4427 22.7011 61.0627 22.0396 62.017 21.7162C63.4053 21.2458 64.7774 21.4676 66.1793 21.8925Z" fill="#3E5EE2"/>
<path fill-rule="evenodd" clip-rule="evenodd" d="M101.627 28.1357C102.322 28.2803 102.969 28.4473 103.626 28.5396C104.018 28.5946 104.427 28.5503 104.824 28.5158C105.082 28.4936 105.293 28.3616 105.353 28.0694C105.415 27.7688 105.282 27.5504 105.041 27.4175C104.689 27.2241 104.321 27.0624 103.957 26.8919C103.519 26.6864 103.058 26.5202 102.642 26.2763C101.682 25.7134 101.376 24.8106 101.487 23.7455C101.593 22.7277 102.197 22.0833 103.115 21.7376C104.153 21.347 105.221 21.4254 106.283 21.6245C106.625 21.6885 106.959 21.793 107.331 21.888C107.194 22.5242 107.063 23.1263 106.932 23.7276C106.409 23.6218 105.913 23.4824 105.408 23.4325C105.027 23.3945 104.631 23.4485 104.248 23.5047C103.998 23.5413 103.832 23.722 103.8 23.9954C103.77 24.2619 103.864 24.4723 104.101 24.5923C104.45 24.7692 104.807 24.9294 105.161 25.0957C105.609 25.3061 106.07 25.4926 106.503 25.7304C107.486 26.2707 107.792 27.1607 107.699 28.2325C107.611 29.2357 107.05 29.8787 106.137 30.2013C104.8 30.6733 103.441 30.6112 102.088 30.2789C101.246 30.0724 101.249 30.057 101.413 29.2122C101.484 28.8465 101.558 28.4817 101.627 28.1357Z" fill="#3E5EE2"/>
<path fill-rule="evenodd" clip-rule="evenodd" d="M73.5249 28.2691C73.6143 28.7766 73.7046 29.3085 73.8035 29.8386C73.8339 30.0024 73.7809 30.0815 73.6246 30.1368C72.5062 30.5322 71.3711 30.6404 70.226 30.2962C69.2525 30.0038 68.6518 29.3224 68.4507 28.3235C68.3487 27.8175 68.295 27.2932 68.292 26.7768C68.2792 24.4768 68.2974 22.1767 68.2899 19.8769C68.2891 19.6134 68.3663 19.512 68.6207 19.4766C69.2811 19.3846 69.9383 19.2693 70.6415 19.1558C70.6415 19.5699 70.6415 19.9521 70.6415 20.3337C70.6415 20.6045 70.6396 20.8751 70.642 21.1457C70.6472 21.7636 70.5366 21.6971 71.2053 21.7C71.9552 21.7033 72.7052 21.7007 73.4753 21.7007C73.4753 22.3745 73.4753 23.0131 73.4753 23.6842C72.5397 23.6842 71.6165 23.6842 70.6604 23.6842C70.6517 23.8131 70.6396 23.9126 70.6395 24.0118C70.638 24.9382 70.633 25.8645 70.6423 26.7907C70.6449 27.0383 70.6694 27.2912 70.7252 27.532C70.8695 28.1529 71.2047 28.4517 71.8403 28.4409C72.3892 28.4316 72.9364 28.3328 73.5249 28.2691Z" fill="#3E5EE2"/>
<path fill-rule="evenodd" clip-rule="evenodd" d="M50.064 28.2541C50.1556 28.7859 50.2571 29.3449 50.3414 29.9063C50.3507 29.9676 50.2761 30.0851 50.2156 30.1073C49.0209 30.544 47.809 30.6702 46.5904 30.2231C45.6783 29.8885 45.1596 29.1918 44.982 28.2483C44.8918 27.771 44.8353 27.2797 44.8334 26.7942C44.8242 24.4745 44.8388 22.1545 44.8459 19.8345C44.8463 19.743 44.8572 19.6515 44.8646 19.5361C45.6249 19.4094 46.3726 19.2845 47.1682 19.1516C47.1682 20.0018 47.1682 20.8254 47.1682 21.6949C48.1422 21.6949 49.073 21.6949 50.0198 21.6949C50.0198 22.3727 50.0198 23.0038 50.0198 23.678C49.0892 23.678 48.1584 23.678 47.2569 23.678C47.2168 23.7371 47.1957 23.7539 47.1957 23.7702C47.2061 24.9653 47.1666 26.1635 47.2476 27.3535C47.3029 28.1657 47.7255 28.4736 48.5432 28.4452C49.0321 28.4284 49.518 28.3258 50.064 28.2541Z" fill="#3E5EE2"/>
<path fill-rule="evenodd" clip-rule="evenodd" d="M97.1272 21.7046C97.8648 21.7046 98.5747 21.7001 99.2851 21.7131C99.3451 21.7141 99.413 21.8268 99.4584 21.8999C99.4819 21.9372 99.4631 22.0015 99.4631 22.0535C99.4631 24.6772 99.4589 27.3009 99.4699 29.9245C99.4709 30.2144 99.3895 30.3029 99.1056 30.2931C98.5288 30.2732 97.9509 30.2821 97.3736 30.2898C97.1805 30.2924 97.0985 30.2365 97.0991 30.0251C97.1043 27.3182 97.1027 24.6112 97.1038 21.9042C97.1038 21.8536 97.1152 21.8033 97.1272 21.7046Z" fill="#3E5EE2"/>
<path fill-rule="evenodd" clip-rule="evenodd" d="M99.6917 19.1849C99.6881 20.0104 99.1071 20.5952 98.2887 20.5969C97.465 20.5989 96.8736 19.9894 96.883 19.1481C96.8929 18.3279 97.4864 17.7455 98.3054 17.753C99.1217 17.7607 99.6954 18.3533 99.6917 19.1849Z" fill="#3E5EE2"/>
</g>
<defs>
<clipPath id="clip0_575_2265">
<rect width="95" height="21" fill="white" transform="translate(22 14)"/>
</clipPath>
</defs>
</svg>
