<svg width="140" height="48" viewBox="0 0 140 48" fill="none" xmlns="http://www.w3.org/2000/svg">
<g clip-path="url(#clip0_4691_12984)">
<path fill-rule="evenodd" clip-rule="evenodd" d="M31.0032 34.997C27.1485 34.9083 24.3545 33.0872 22.6671 29.6157C21.7753 27.781 21.8497 25.82 22.4659 23.9168C23.7895 19.8283 26.3828 16.7947 30.1575 14.8062C31.0192 14.3524 31.9505 14.0876 32.9323 14.0142C34.3331 13.9095 35.5244 14.3892 36.564 15.3C37.9618 16.5247 38.8644 18.0888 39.5248 19.8065C40.2837 21.7804 40.6441 23.8284 40.5258 25.9467C40.3884 28.4074 39.631 30.6166 37.8134 32.3505C36.264 33.8285 34.3939 34.6331 32.2981 34.9331C32.0944 34.9621 31.8888 34.985 31.6834 34.9946C31.457 35.0051 31.2299 34.997 31.0032 34.997ZM31.1422 24.3493C31.9449 24.3493 32.748 24.3428 33.551 24.3536C33.7729 24.3566 33.865 24.2974 33.859 24.0578C33.8452 23.497 33.8455 22.935 33.8589 22.3742C33.8646 22.1372 33.7775 22.0751 33.5527 22.0763C31.9467 22.0843 30.3407 22.0852 28.7349 22.0759C28.4822 22.0745 28.418 22.1745 28.4228 22.4081C28.4341 22.9483 28.439 23.4895 28.421 24.0292C28.4121 24.3001 28.5193 24.3583 28.7641 24.3541C29.5565 24.3413 30.3493 24.3493 31.1422 24.3493ZM33.9493 28.3132C32.8178 28.3132 31.7364 28.3098 30.6553 28.3225C30.5926 28.323 30.4794 28.4568 30.4778 28.5307C30.4634 29.1447 30.4634 29.7593 30.478 30.3732C30.4797 30.4456 30.5955 30.576 30.6597 30.5768C31.6906 30.5897 32.7222 30.5892 33.7533 30.5787C33.8191 30.5779 33.9395 30.4719 33.9407 30.4129C33.954 29.7279 33.9493 29.0426 33.9493 28.3132ZM29.4113 27.4852C30.1331 27.4852 30.811 27.4902 31.4882 27.4759C31.5419 27.4749 31.637 27.3411 31.6385 27.2677C31.6505 26.6537 31.6424 26.0394 31.6472 25.425C31.6486 25.2642 31.5859 25.2024 31.4281 25.2037C30.8301 25.2081 30.2317 25.1989 29.6342 25.2141C29.5583 25.2162 29.4224 25.3313 29.421 25.3965C29.4054 26.0799 29.4113 26.7639 29.4113 27.4852ZM30.5257 21.217C30.8245 21.217 31.1235 21.2139 31.4223 21.2183C31.5722 21.2205 31.6491 21.173 31.6474 21.0048C31.6416 20.3907 31.6421 19.7767 31.6472 19.1628C31.6486 19.001 31.5854 18.9418 31.428 18.943C30.8302 18.9476 30.2322 18.937 29.6349 18.9543C29.5582 18.9564 29.4223 19.0864 29.4201 19.1605C29.4026 19.7739 29.4128 20.388 29.4082 21.002C29.407 21.1636 29.4716 21.223 29.6291 21.2191C29.9277 21.2118 30.2268 21.217 30.5257 21.217Z" fill="#C7C7C7"/>
<path fill-rule="evenodd" clip-rule="evenodd" d="M92.0192 27.2425C92.0589 27.1183 92.1059 26.9958 92.1361 26.8694C92.5255 25.2431 92.9176 23.6172 93.2944 21.9878C93.343 21.7785 93.4061 21.6892 93.6316 21.6944C94.2606 21.709 94.8896 21.6986 95.5186 21.7007C95.5984 21.7008 95.6788 21.7152 95.7999 21.7271C95.6402 22.2881 95.506 22.8313 95.3317 23.3606C94.5999 25.5788 93.854 27.7922 93.1211 30.0099C93.0496 30.2263 92.9363 30.2963 92.7187 30.2881C92.3277 30.2731 91.9331 30.2589 91.5442 30.2917C91.2289 30.3182 91.1162 30.1749 91.0353 29.9017C90.6156 28.4766 90.1824 27.0556 89.7538 25.6333C89.7361 25.5745 89.7157 25.5164 89.6745 25.3887C89.626 25.5102 89.5941 25.5747 89.5743 25.643C89.1556 27.0783 88.7339 28.5127 88.3247 29.9507C88.2542 30.1976 88.1456 30.3092 87.8752 30.2902C87.5161 30.2649 87.1513 30.2565 86.7937 30.2918C86.4508 30.3258 86.2989 30.1793 86.1981 29.8719C85.5472 27.8883 84.8786 25.9105 84.2324 23.9255C83.998 23.2073 83.809 22.4738 83.5867 21.7035C84.4046 21.7035 85.1756 21.6979 85.946 21.7143C86.006 21.7157 86.0943 21.8632 86.1162 21.9557C86.4497 23.3712 86.7723 24.7894 87.1038 26.2057C87.1831 26.5478 87.2838 26.8847 87.3997 27.3151C87.4629 27.1657 87.5005 27.1009 87.5187 27.0308C87.9468 25.3711 88.3805 23.7126 88.7913 22.0484C88.8592 21.7736 88.9573 21.6722 89.2386 21.6931C89.5978 21.7194 89.9605 21.7091 90.3207 21.6959C90.5238 21.6885 90.5974 21.7619 90.6459 21.9652C91.0421 23.6223 91.4539 25.2758 91.8621 26.9302C91.8866 27.0304 91.9201 27.1287 91.9498 27.2278C91.9728 27.2327 91.9963 27.2377 92.0192 27.2425Z" fill="#C7C7C7"/>
<path fill-rule="evenodd" clip-rule="evenodd" d="M116.985 26.777C116.037 26.777 115.142 26.777 114.246 26.777C113.362 26.777 112.477 26.777 111.557 26.777C111.597 27.3234 111.831 27.7143 112.231 28.0081C112.691 28.346 113.225 28.4595 113.779 28.4577C114.18 28.4563 114.584 28.4311 114.979 28.3709C115.373 28.3112 115.759 28.1949 116.194 28.0924C116.25 28.4052 116.31 28.7258 116.365 29.0472C116.396 29.2315 116.391 29.4267 116.45 29.6005C116.561 29.9268 116.443 30.064 116.133 30.15C114.866 30.5003 113.587 30.684 112.289 30.3861C110.464 29.9671 109.379 28.7043 109.163 26.8229C109.041 25.7569 109.142 24.7238 109.6 23.7465C110.933 20.9022 114.539 20.947 116.001 22.6098C116.626 23.3209 116.9 24.1679 116.977 25.0847C117.023 25.6294 116.985 26.1812 116.985 26.777ZM114.703 25.1307C114.778 24.1986 114.114 23.4602 113.217 23.4538C112.278 23.447 111.528 24.2232 111.597 25.1307C112.634 25.1307 113.67 25.1307 114.703 25.1307Z" fill="#C7C7C7"/>
<path fill-rule="evenodd" clip-rule="evenodd" d="M82.6522 26.7778C80.807 26.7778 79.0266 26.7778 77.209 26.7778C77.2456 27.3019 77.4638 27.6784 77.838 27.969C78.3741 28.385 79.0052 28.5069 79.6508 28.4561C80.3738 28.3997 81.091 28.2622 81.8593 28.1528C81.9256 28.5504 82.0071 29.0165 82.0807 29.4836C82.1668 30.0311 82.1668 30.0432 81.6312 30.1897C80.5168 30.4945 79.3857 30.6263 78.2352 30.4494C76.2799 30.1482 74.9912 28.7426 74.81 26.748C74.7082 25.6245 74.8314 24.5485 75.3612 23.5385C76.6829 21.0187 79.9212 20.991 81.4209 22.3763C82.2947 23.1836 82.5896 24.2366 82.6486 25.3805C82.6721 25.834 82.6522 26.2893 82.6522 26.7778ZM77.2341 25.123C78.2765 25.123 79.3189 25.123 80.3597 25.123C80.4004 24.1735 79.7725 23.4691 78.8903 23.4479C77.9424 23.4252 77.2482 24.122 77.2341 25.123Z" fill="#C7C7C7"/>
<path fill-rule="evenodd" clip-rule="evenodd" d="M56.0878 25.0553C56.2671 24.3178 55.8234 23.6359 55.0576 23.5157C54.2623 23.3909 53.4766 23.4908 52.6983 23.6686C52.5604 23.7002 52.4245 23.74 52.2503 23.7856C52.1494 23.1349 52.0533 22.5157 51.9488 21.8417C52.4728 21.7443 52.9631 21.636 53.4589 21.565C54.3183 21.4421 55.1798 21.4071 56.0387 21.5907C57.3896 21.8796 58.1395 22.6868 58.3164 24.0684C58.3573 24.3869 58.3774 24.7104 58.3787 25.0317C58.3851 26.6033 58.3798 28.175 58.3839 29.7465C58.3843 29.9274 58.3769 30.0555 58.1506 30.1017C56.6689 30.4047 55.1809 30.5852 53.6693 30.3868C53.4454 30.3573 53.2206 30.3131 53.0048 30.2474C51.1807 29.6915 50.5101 27.3674 51.7702 25.9402C52.2749 25.3684 52.9631 25.1387 53.6915 25.0392C54.0878 24.9849 54.4914 24.9615 54.8916 24.9652C55.29 24.9686 55.6879 25.0231 56.0878 25.0553ZM56.1308 27.6229C56.1308 27.3733 56.1422 27.1232 56.1242 26.8752C56.1183 26.7949 56.0458 26.6625 55.9859 26.6514C55.3742 26.5384 54.7571 26.5009 54.1561 26.7022C53.6876 26.8587 53.4763 27.1955 53.501 27.6734C53.5253 28.1428 53.7474 28.4518 54.2449 28.5287C54.7267 28.603 55.2232 28.5898 55.7133 28.5944C56.1305 28.5987 56.1307 28.5859 56.1311 28.1527C56.1315 27.9761 56.1311 27.7995 56.1308 27.6229Z" fill="#C7C7C7"/>
<path fill-rule="evenodd" clip-rule="evenodd" d="M66.1794 21.8925C66.0387 22.5377 65.9088 23.1332 65.7798 23.7233C65.2524 23.6178 64.7555 23.486 64.2506 23.4284C63.8981 23.388 63.5309 23.4224 63.1771 23.4727C62.9135 23.51 62.6969 23.6648 62.6525 23.9704C62.6076 24.2794 62.7353 24.5037 63.0064 24.6314C63.4446 24.8376 63.8988 25.0103 64.3304 25.2289C64.8163 25.4751 65.3061 25.7245 65.7563 26.0294C66.8261 26.7539 66.9816 29.2562 65.3317 30.0536C64.4243 30.4922 63.4634 30.5836 62.4945 30.5048C61.7825 30.447 61.082 30.2459 60.3759 30.1108C60.1623 30.0701 60.0919 29.9632 60.1437 29.7383C60.2669 29.2028 60.3691 28.6624 60.4889 28.0797C60.6097 28.1169 60.7126 28.1459 60.8137 28.1799C61.7117 28.4814 62.6243 28.664 63.5765 28.5323C63.8664 28.4922 64.1246 28.4098 64.1987 28.0718C64.2752 27.7237 64.0864 27.5102 63.8161 27.366C63.489 27.1915 63.1476 27.0432 62.8094 26.8907C62.4335 26.7208 62.0442 26.5781 61.678 26.3898C60.606 25.8381 60.2151 24.9118 60.335 23.7469C60.4428 22.7011 61.0628 22.0396 62.0171 21.7162C63.4054 21.2458 64.7775 21.4676 66.1794 21.8925Z" fill="#C7C7C7"/>
<path fill-rule="evenodd" clip-rule="evenodd" d="M101.627 28.1354C102.322 28.2801 102.969 28.447 103.626 28.5394C104.018 28.5943 104.426 28.5501 104.824 28.5155C105.082 28.4933 105.292 28.3614 105.353 28.0691C105.415 27.7686 105.282 27.5501 105.041 27.4173C104.689 27.2239 104.321 27.0622 103.957 26.8917C103.519 26.6862 103.058 26.5199 102.642 26.2761C101.681 25.7132 101.376 24.8104 101.487 23.7452C101.593 22.7275 102.197 22.0831 103.115 21.7373C104.153 21.3467 105.22 21.4252 106.283 21.6242C106.625 21.6883 106.959 21.7928 107.331 21.8878C107.193 22.5239 107.063 23.1261 106.932 23.7273C106.409 23.6215 105.913 23.4822 105.408 23.4322C105.027 23.3943 104.631 23.4483 104.247 23.5045C103.997 23.5411 103.831 23.7218 103.8 23.9952C103.77 24.2617 103.864 24.4721 104.101 24.5921C104.45 24.7689 104.807 24.9292 105.161 25.0954C105.609 25.3058 106.07 25.4923 106.502 25.7302C107.486 26.2704 107.792 27.1605 107.699 28.2323C107.611 29.2354 107.049 29.8785 106.136 30.2011C104.8 30.673 103.441 30.6109 102.087 30.2787C101.246 30.0721 101.249 30.0567 101.413 29.212C101.484 28.8462 101.558 28.4815 101.627 28.1354Z" fill="#C7C7C7"/>
<path fill-rule="evenodd" clip-rule="evenodd" d="M73.525 28.2691C73.6144 28.7766 73.7047 29.3085 73.8036 29.8386C73.834 30.0024 73.781 30.0815 73.6247 30.1368C72.5063 30.5322 71.3712 30.6404 70.226 30.2962C69.2525 30.0038 68.6518 29.3224 68.4507 28.3235C68.3488 27.8175 68.295 27.2932 68.2921 26.7768C68.2792 24.4768 68.2974 22.1767 68.29 19.8769C68.2892 19.6134 68.3663 19.512 68.6207 19.4766C69.2811 19.3846 69.9384 19.2693 70.6416 19.1558C70.6416 19.5699 70.6416 19.9521 70.6416 20.3337C70.6416 20.6045 70.6396 20.8751 70.642 21.1457C70.6473 21.7636 70.5366 21.6971 71.2054 21.7C71.9553 21.7033 72.7053 21.7007 73.4754 21.7007C73.4754 22.3745 73.4754 23.0131 73.4754 23.6842C72.5397 23.6842 71.6166 23.6842 70.6605 23.6842C70.6517 23.8131 70.6396 23.9126 70.6396 24.0118C70.638 24.9382 70.6331 25.8645 70.6424 26.7907C70.645 27.0383 70.6694 27.2912 70.7253 27.532C70.8695 28.1529 71.2047 28.4517 71.8403 28.4409C72.3893 28.4316 72.9365 28.3328 73.525 28.2691Z" fill="#C7C7C7"/>
<path fill-rule="evenodd" clip-rule="evenodd" d="M50.0638 28.2539C50.1555 28.7856 50.257 29.3446 50.3413 29.9061C50.3506 29.9673 50.276 30.0848 50.2155 30.1071C49.0208 30.5437 47.8089 30.67 46.5903 30.2229C45.6782 29.8883 45.1595 29.1916 44.9819 28.248C44.8917 27.7708 44.8352 27.2795 44.8332 26.7939C44.8241 24.4742 44.8387 22.1543 44.8458 19.8342C44.8462 19.7428 44.857 19.6513 44.8645 19.5359C45.6248 19.4091 46.3725 19.2842 47.1681 19.1514C47.1681 20.0016 47.1681 20.8252 47.1681 21.6946C48.1421 21.6946 49.0729 21.6946 50.0197 21.6946C50.0197 22.3725 50.0197 23.0036 50.0197 23.6778C49.089 23.6778 48.1583 23.6778 47.2568 23.6778C47.2167 23.7369 47.1956 23.7537 47.1956 23.7699C47.2059 24.965 47.1664 26.1633 47.2475 27.3533C47.3028 28.1654 47.7254 28.4733 48.5431 28.445C49.0319 28.4282 49.5179 28.3255 50.0638 28.2539Z" fill="#C7C7C7"/>
<path fill-rule="evenodd" clip-rule="evenodd" d="M97.1273 21.7044C97.8649 21.7044 98.5748 21.6999 99.2852 21.7128C99.3452 21.7138 99.4131 21.8266 99.4585 21.8997C99.482 21.9369 99.4632 22.0012 99.4632 22.0532C99.4632 24.6769 99.459 27.3007 99.47 29.9243C99.471 30.2142 99.3896 30.3026 99.1056 30.2929C98.5288 30.273 97.951 30.2818 97.3737 30.2896C97.1806 30.2922 97.0986 30.2363 97.0991 30.0249C97.1043 27.3179 97.1028 24.611 97.1038 21.9039C97.1038 21.8534 97.1153 21.803 97.1273 21.7044Z" fill="#C7C7C7"/>
<path fill-rule="evenodd" clip-rule="evenodd" d="M99.6917 19.1849C99.688 20.0104 99.1071 20.5952 98.2886 20.5969C97.4649 20.5989 96.8735 19.9894 96.8829 19.1481C96.8928 18.3279 97.4863 17.7455 98.3053 17.753C99.1217 17.7607 99.6953 18.3533 99.6917 19.1849Z" fill="#C7C7C7"/>
</g>
<defs>
<clipPath id="clip0_4691_12984">
<rect width="95" height="21" fill="white" transform="translate(22 14)"/>
</clipPath>
</defs>
</svg>
