<svg width="90" height="20" viewBox="0 0 90 20" fill="none" xmlns="http://www.w3.org/2000/svg">
<mask id="mask0_3913_1251" style="mask-type:luminance" maskUnits="userSpaceOnUse" x="0" y="0" width="90" height="20">
<path d="M90 0H0V19.5H90V0Z" fill="white"/>
</mask>
<g mask="url(#mask0_3913_1251)">
<path d="M11.8161 5.94559C12.0607 5.89129 12.3166 5.98519 12.4642 6.18599L13.3689 7.40669C13.4183 7.47309 13.454 7.54859 13.4738 7.62879C13.4937 7.70899 13.4975 7.79229 13.4848 7.87389C13.4721 7.95549 13.4434 8.03389 13.4001 8.10439C13.3569 8.17489 13.3 8.23629 13.2328 8.28489C11.3768 9.63999 9.36587 11.4418 8.20917 12.758C8.18147 12.7888 8.20187 12.7936 8.22057 12.7864C10.2788 12.0295 15.0098 10.9125 17.2881 10.5992V7.77739L17.2905 7.77899C17.2905 7.40989 17.1193 7.05539 16.8259 6.82379L16.6751 6.70399L9.49627 1.07019C9.27967 0.900693 9.01187 0.808594 8.73617 0.808594C8.46037 0.808594 8.19267 0.900693 7.97607 1.07019C7.97607 1.07019 2.74217 5.17009 0.632568 6.82379C0.339168 7.05539 0.167969 7.40669 0.167969 7.77819V10.0771C5.26657 7.64139 10.4166 6.25879 11.8161 5.94559Z" fill="#0E6BFD"/>
<path d="M4.98947 16.8651C4.86587 16.9169 4.72877 16.928 4.59837 16.8969C4.46797 16.8657 4.35107 16.7938 4.26477 16.6919C3.91417 16.2736 3.56857 15.8513 3.22797 15.425C3.13607 15.3102 3.08747 15.1672 3.09047 15.0206C3.09347 14.8741 3.14787 14.7331 3.24427 14.6221C4.23947 13.4807 7.21557 10.2817 8.58327 9.37829C8.61347 9.35889 8.60527 9.33949 8.57187 9.34759C6.89517 9.79679 2.03297 11.5866 0.167969 12.4948V17.9344C0.167969 18.6079 0.715768 19.1518 1.39477 19.1518H16.0629C16.7395 19.1518 17.2897 18.6079 17.2897 17.936V13.5471C14.7913 13.8976 8.26947 15.5019 4.98947 16.8675V16.8651Z" fill="#0E6BFD"/>
<path d="M40.7225 7.50677H37.3137V19.1533H40.7225V7.50677ZM22.0879 19.1533V17.2454L30.0028 6.25287V6.02538H22.2241V2.98187H35.0949V4.88898L27.317 15.8831V16.1098H35.3231V19.1533H22.0879ZM43.1752 19.1533V2.41357H46.5727V19.1533H43.1752ZM49.0327 19.1533V2.41357H52.4302V19.1533H49.0327ZM53.9528 13.3365C53.9528 9.59518 56.5392 7.16998 60.4551 7.16998C64.3701 7.16998 66.9565 9.59518 66.9581 13.3365C66.9581 17.0989 64.3481 19.503 60.4559 19.503C56.5637 19.503 53.9528 17.0779 53.9528 13.3365ZM63.546 13.3365C63.546 11.4084 62.263 10.0493 60.4551 10.0493C58.6471 10.0493 57.3413 11.4092 57.3413 13.3373C57.3413 15.2647 58.6243 16.648 60.4559 16.648C62.2883 16.648 63.5468 15.2639 63.5468 13.3373L63.546 13.3365ZM70.4787 19.1533L66.9573 7.51967H70.4094L72.7871 15.8588H73.0153L75.0935 7.51967H78.4785L80.7185 15.8572H80.9465L83.2765 7.51727H86.6375L83.0955 19.1509H78.6825L76.8995 11.4497H76.6715L74.9105 19.1525H70.4762H70.4778L70.4787 19.1533ZM88.3095 6.56857H88.1625V5.52028H88.6585C88.9075 5.52028 89.0685 5.64577 89.0685 5.83847C89.0685 6.01647 88.9165 6.14118 88.7045 6.15088H88.6855L89.0985 6.56857H88.9125L88.5185 6.15817H88.3085L88.3095 6.56857ZM88.3095 5.64008V6.03997H88.6585C88.8215 6.03997 88.9215 5.96388 88.9215 5.83928C88.9215 5.71538 88.8215 5.64097 88.6585 5.64097L88.3095 5.64008Z" fill="#424242"/>
<path d="M88.5738 7.29591C88.2818 7.29781 87.9978 7.19821 87.7708 7.01441C87.5448 6.83061 87.3898 6.57401 87.3338 6.28901C87.2928 6.08701 87.3028 5.87821 87.3628 5.68121C87.4238 5.48421 87.5318 5.30501 87.6788 5.15981C87.8248 5.01371 88.0048 4.90581 88.2038 4.84591C88.4018 4.78601 88.6118 4.77591 88.8148 4.81651C89.0598 4.86411 89.2858 4.98321 89.4618 5.15851C89.6388 5.33381 89.7588 5.55751 89.8068 5.80081C89.8478 6.00261 89.8378 6.21151 89.7778 6.40851C89.7168 6.60551 89.6078 6.78441 89.4608 6.92921C89.3448 7.04581 89.2058 7.13831 89.0528 7.20131C88.9008 7.26421 88.7368 7.29641 88.5718 7.29591H88.5738ZM88.5708 4.96951C88.4288 4.96921 88.2878 4.99681 88.1558 5.05091C88.0248 5.10491 87.9058 5.18431 87.8048 5.28441C87.6788 5.40941 87.5858 5.56351 87.5338 5.73301C87.4818 5.90251 87.4738 6.08211 87.5088 6.25581C87.5468 6.44661 87.6368 6.62351 87.7688 6.76761C87.9008 6.91171 88.0698 7.01751 88.2568 7.07381C88.4448 7.13021 88.6448 7.13491 88.8348 7.08751C89.0248 7.04001 89.1988 6.94231 89.3368 6.80461C89.4888 6.65401 89.5918 6.46221 89.6338 6.25331C89.6758 6.04441 89.6538 5.82791 89.5718 5.63121C89.4898 5.43451 89.3498 5.26651 89.1718 5.14841C88.9928 5.03031 88.7838 4.96751 88.5688 4.96791L88.5708 4.96951ZM37.1934 4.21191C37.1934 3.20001 37.9531 2.44971 39.0192 2.44971C40.0846 2.44971 40.8435 3.19921 40.8435 4.21191C40.8435 5.22531 40.0846 5.97411 39.0184 5.97411C37.9531 5.97411 37.1942 5.24471 37.1934 4.21191Z" fill="#424242"/>
</g>
</svg>
