<svg width="140" height="48" viewBox="0 0 140 48" fill="none" xmlns="http://www.w3.org/2000/svg">
<g clip-path="url(#clip0_575_2259)">
<path d="M36.8162 19.9456C37.0608 19.8913 37.3167 19.9852 37.4643 20.186L38.369 21.4067C38.4184 21.4731 38.4541 21.5486 38.4739 21.6288C38.4938 21.709 38.4976 21.7923 38.4849 21.8739C38.4722 21.9555 38.4435 22.0339 38.4002 22.1044C38.357 22.1749 38.3001 22.2363 38.2329 22.2849C36.3769 23.64 34.366 25.4418 33.2093 26.758C33.1816 26.7888 33.202 26.7936 33.2207 26.7864C35.2789 26.0295 40.0099 24.9125 42.2882 24.5992V21.7774L42.2906 21.779C42.2906 21.4099 42.1194 21.0554 41.826 20.8238L41.6752 20.704L34.4964 15.0702C34.2798 14.9007 34.012 14.8086 33.7363 14.8086C33.4605 14.8086 33.1928 14.9007 32.9762 15.0702C32.9762 15.0702 27.7423 19.1701 25.6327 20.8238C25.3393 21.0554 25.1681 21.4067 25.1681 21.7782V24.0771C30.2667 21.6414 35.4167 20.2588 36.8162 19.9456Z" fill="#0E6BFD"/>
<path d="M29.9896 30.8651C29.866 30.9169 29.7289 30.928 29.5985 30.8969C29.4681 30.8657 29.3512 30.7938 29.2649 30.6919C28.9143 30.2736 28.5687 29.8513 28.2281 29.425C28.1362 29.3102 28.0876 29.1672 28.0906 29.0206C28.0936 28.8741 28.148 28.7331 28.2444 28.6221C29.2396 27.4807 32.2157 24.2817 33.5834 23.3783C33.6136 23.3589 33.6054 23.3395 33.572 23.3476C31.8953 23.7968 27.0331 25.5866 25.1681 26.4948V31.9344C25.1681 32.6079 25.7159 33.1518 26.3949 33.1518H41.063C41.7396 33.1518 42.2898 32.6079 42.2898 31.936V27.5471C39.7914 27.8976 33.2696 29.5019 29.9896 30.8675V30.8651Z" fill="#0E6BFD"/>
<path d="M65.723 21.507H62.3142V33.1535H65.723V21.507ZM47.0884 33.1535V31.2456L55.0033 20.2531V20.0256H47.2246V16.9821H60.0954V18.8892L52.3175 29.8833V30.11H60.3236V33.1535H47.0884ZM68.1757 33.1535V16.4138H71.5732V33.1535H68.1757ZM74.0332 33.1535V16.4138H77.4307V33.1535H74.0332ZM78.9533 27.3367C78.9533 23.5954 81.5397 21.1702 85.4556 21.1702C89.3706 21.1702 91.957 23.5954 91.9586 27.3367C91.9586 31.0991 89.3486 33.5032 85.4564 33.5032C81.5642 33.5032 78.9533 31.0781 78.9533 27.3367ZM88.5465 27.3367C88.5465 25.4086 87.2635 24.0495 85.4556 24.0495C83.6476 24.0495 82.3418 25.4094 82.3418 27.3375C82.3418 29.2649 83.6248 30.6482 85.4564 30.6482C87.2888 30.6482 88.5473 29.2641 88.5473 27.3375L88.5465 27.3367ZM95.4792 33.1535L91.9578 21.5199H95.4099L97.7876 29.859H98.0158L100.094 21.5199H103.479L105.719 29.8574H105.947L108.277 21.5175H111.638L108.096 33.1511H103.683L101.9 25.4499H101.672L99.911 33.1527H95.4767H95.4783L95.4792 33.1535ZM113.31 20.5688H113.163V19.5205H113.659C113.908 19.5205 114.069 19.646 114.069 19.8387C114.069 20.0167 113.917 20.1414 113.705 20.1511H113.686L114.099 20.5688H113.913L113.519 20.1584H113.309L113.31 20.5688ZM113.31 19.6403V20.0402H113.659C113.822 20.0402 113.922 19.9641 113.922 19.8395C113.922 19.7156 113.822 19.6412 113.659 19.6412L113.31 19.6403Z" fill="#424242"/>
<path d="M113.574 21.2957C113.282 21.2976 112.998 21.198 112.771 21.0142C112.545 20.8304 112.39 20.5738 112.334 20.2888C112.293 20.0868 112.303 19.878 112.363 19.681C112.424 19.484 112.532 19.3048 112.679 19.1596C112.825 19.0135 113.005 18.9056 113.204 18.8457C113.402 18.7858 113.612 18.7757 113.815 18.8163C114.06 18.8639 114.286 18.983 114.462 19.1583C114.639 19.3336 114.759 19.5573 114.807 19.8006C114.848 20.0024 114.838 20.2113 114.778 20.4083C114.717 20.6053 114.608 20.7842 114.461 20.929C114.345 21.0456 114.206 21.1381 114.053 21.2011C113.901 21.264 113.737 21.2962 113.572 21.2957H113.574ZM113.571 18.9693C113.429 18.969 113.288 18.9966 113.156 19.0507C113.025 19.1047 112.906 19.1841 112.805 19.2842C112.679 19.4092 112.586 19.5633 112.534 19.7328C112.482 19.9023 112.474 20.0819 112.509 20.2556C112.547 20.4464 112.637 20.6233 112.769 20.7674C112.901 20.9115 113.07 21.0173 113.257 21.0736C113.445 21.13 113.645 21.1347 113.835 21.0873C114.025 21.0398 114.199 20.9421 114.337 20.8044C114.489 20.6538 114.592 20.462 114.634 20.2531C114.676 20.0442 114.654 19.8277 114.572 19.631C114.49 19.4343 114.35 19.2663 114.172 19.1482C113.993 19.0301 113.784 18.9673 113.569 18.9677L113.571 18.9693ZM62.1936 18.2117C62.1936 17.1998 62.9533 16.4495 64.0194 16.4495C65.0848 16.4495 65.8437 17.199 65.8437 18.2117C65.8437 19.2251 65.0848 19.9739 64.0186 19.9739C62.9533 19.9739 62.1944 19.2445 62.1936 18.2117Z" fill="#424242"/>
</g>
<defs>
<clipPath id="clip0_575_2259">
<rect width="90" height="19.5" fill="white" transform="translate(25 14)"/>
</clipPath>
</defs>
</svg>
